<?xml version="1.0" encoding="UTF-8"?><svg id="Layer_2" xmlns="http://www.w3.org/2000/svg" xmlns:xlink="http://www.w3.org/1999/xlink" viewBox="0 0 234.69 266.37"><defs><style>.cls-1{fill:url(#linear-gradient);}.cls-2{mask:url(#mask);}.cls-3{filter:url(#luminosity-noclip-2);}.cls-4{fill:#f3f3f3;}.cls-5{fill:#eee;}.cls-6{fill:#f5f5f5;}.cls-7,.cls-8{fill:#fff;}.cls-9{fill:#e2e2e2;}.cls-10,.cls-11,.cls-12{fill:#fdfdfd;}.cls-13{fill:#7c7c7c;}.cls-14{fill:#8b8b8b;}.cls-15{fill:#b4b4b4;}.cls-16{fill:#666;}.cls-17{fill:#303030;}.cls-18{fill:#8c8c8c;}.cls-19{fill:#858585;}.cls-20{fill:#bcbcbc;}.cls-21{fill:silver;}.cls-22{fill:#ccc;}.cls-23{fill:#c9c9c9;}.cls-24{fill:#d4d4d4;}.cls-25{fill:#d9d9d9;}.cls-26{fill:#404040;}.cls-27{fill:#414141;}.cls-28{fill:#424242;}.cls-29{fill:#6d6d6d;}.cls-30{fill:gray;}.cls-31{fill:#636363;}.cls-32{fill:#4a4a4a;}.cls-33{fill:#484848;}.cls-34{fill:#2d2d2d;}.cls-35{fill:#272727;}.cls-36{fill:#838383;}.cls-37{fill:#616161;}.cls-38{fill:#494949;}.cls-39{fill:#606060;}.cls-40{fill:#5d5d5d;}.cls-41{fill:#767676;}.cls-42{fill:#828282;}.cls-11{opacity:.5;}.cls-8{opacity:.9;}.cls-12{opacity:.7;}</style><filter id="luminosity-noclip-2" width="234.69" height="554.12" color-interpolation-filters="sRGB" filterUnits="userSpaceOnUse"><feFlood flood-color="#fff" result="bg"/><feBlend in="SourceGraphic" in2="bg"/></filter><linearGradient id="linear-gradient" x1="106.24" y1="157.98" x2="106.24" y2="554.12" gradientTransform="matrix(1, 0, 0, 1, 0, 0)" gradientUnits="userSpaceOnUse"><stop offset="0" stop-color="#fff"/><stop offset=".01" stop-color="#e5e4e5"/><stop offset=".03" stop-color="#bcbbbc"/><stop offset=".05" stop-color="#979696"/><stop offset=".07" stop-color="#787576"/><stop offset=".1" stop-color="#5d5a5b"/><stop offset=".13" stop-color="#474445"/><stop offset=".16" stop-color="#373334"/><stop offset=".2" stop-color="#2b2728"/><stop offset=".26" stop-color="#242021"/><stop offset=".43" stop-color="#231f20"/></linearGradient><mask id="mask" width="234.69" height="554.12" maskUnits="userSpaceOnUse"><g class="cls-3"><rect class="cls-1" x="5.12" y="157.98" width="202.26" height="396.14" rx="12" ry="12"/></g></mask></defs><g id="New_components"><g class="cls-2"><g><path class="cls-33" d="M10.83,241.66c-1.09,0-1.98-.89-1.98-1.98v-78.34c0-1.09,.89-1.98,1.98-1.98s1.98,.89,1.98,1.98v78.34c0,1.09-.89,1.98-1.98,1.98Z"/><path class="cls-33" d="M22.05,233.9c-1.09,0-1.98-.89-1.98-1.98v-70.58c0-1.09,.89-1.98,1.98-1.98s1.98,.89,1.98,1.98v70.58c0,1.09-.89,1.98-1.98,1.98Z"/><g><g><g><polygon class="cls-15" points="185.69 187.3 6.19 187.3 7.71 142.71 192.44 142.71 185.69 187.3"/><g><path class="cls-22" d="M178.07,153.15c-3.15,1.66-6.06,3.58-9.61,4.3-3.43,.69-7.01,.57-10.47,.13-6.95-.88-13.6-3.18-20.44-4.59-3.3-.68-6.65-1.16-10.02-1.16-3.32,0-6.62,.45-9.89,.94-6.73,1.02-13.88,2.49-20.53,.25-3.2-1.08-5.91-3.22-9.1-4.32-3.21-1.11-6.67-.96-10-.56-6.97,.84-14.06,1.89-20.79,3.9-3.34,1-6.49,2.37-9.65,3.83-3.32,1.54-6.69,2.98-10.36,3.38-3.68,.41-7.38,0-11.04-.4-3.71-.41-7.42-.74-11.15-.88-2.68-.1-5.36-.12-8.04-.06,.04,.24,.07,.49,.1,.74,.94-.02,1.88-.04,2.83-.04,3.82,0,7.65,.16,11.46,.48,3.65,.31,7.28,.87,10.94,1.02,3.48,.14,6.9-.19,10.21-1.33,3.21-1.11,6.21-2.72,9.33-4.04,6.6-2.79,13.71-4.05,20.76-5.1,3.54-.53,7.13-1.21,10.73-1.05,1.92,.08,3.81,.46,5.58,1.23,1.49,.64,2.88,1.48,4.31,2.25,2.78,1.49,5.71,2.41,8.85,2.71,3.29,.31,6.6,.02,9.87-.42,6.88-.93,13.62-2.34,20.6-1.48,6.89,.85,13.49,3.11,20.26,4.54,6.34,1.34,13.47,2.19,19.6-.42,3.08-1.31,5.8-3.33,8.94-4.55,3.16-1.23,6.53-1.86,9.92-1.85l.11-.72c-4.6-.02-9.17,1.08-13.28,3.26Z"/><path class="cls-19" d="M192.3,143.59c-5.44,1.47-10.88,2.94-16.31,4.42-5.95,1.61-12.01,3.46-18.24,3.35-5.87-.1-11.51-1.89-17.23-3-2.84-.55-5.69-.89-8.58-.91-3.12-.02-6.23,.1-9.32-.43-4.33-.75-8.41-2.36-12.34-4.31h-1.63c3.66,1.89,7.46,3.55,11.47,4.54,2.88,.71,5.79,.97,8.76,.96,3.13,0,6.21,0,9.31,.49,5.79,.92,11.41,2.77,17.27,3.28,6.16,.53,12.15-.94,18.04-2.53,6.23-1.68,12.45-3.37,18.68-5.06l.12-.8Z"/><path class="cls-19" d="M172.31,142.71c-2.65,.75-5.25,1.65-7.91,2.42-1.88,.54-3.79,.86-5.75,.86-1.93,0-3.85-.23-5.77-.47-3.89-.49-7.76-1.18-11.58-2.05-1.05-.24-2.09-.49-3.13-.76h-2.85c5.22,1.46,10.54,2.58,15.92,3.33,3.74,.52,7.59,1.06,11.34,.3,1.86-.38,3.65-1.01,5.45-1.61,1.81-.6,3.64-1.14,5.49-1.61,.58-.15,1.17-.28,1.75-.41h-2.97Z"/><path class="cls-22" d="M57.47,142.71h-.78c.08,.49-.07,1.03-.39,1.53-.58,.9-1.45,1.48-2.38,1.96-3.71,1.91-7.98,2.23-11.91,3.49-1.95,.62-3.65,1.59-5.44,2.55-1.05,.56-2.14,1.03-3.34,1.15-1.14,.12-2.29-.03-3.42-.12-4.89-.42-9.78-.84-14.67-1.26-2.57-.22-5.13-.44-7.7-.66,0,.25-.02,.49-.03,.74,7.66,.66,15.32,1.32,22.99,1.97,1.2,.1,2.41,.19,3.6-.03,1.04-.2,2.02-.65,2.95-1.15,.99-.53,1.94-1.12,2.95-1.59,1.08-.5,2.22-.88,3.37-1.2,2.14-.6,4.33-.99,6.48-1.57,1.99-.53,4.2-1.2,5.85-2.47,.97-.74,1.99-2.08,1.87-3.33Z"/><path class="cls-22" d="M44.21,142.71c-.76,.3-1.59,.49-2.31,.72-2.86,.92-5.72,1.83-8.59,2.75-1.3,.42-2.61,.87-3.95,1.15-1.42,.3-2.86,.33-4.31,.28-2.94-.12-5.89-.37-8.82-.66-2.94-.29-5.87-.64-8.8-1.06,0,.25,.01,.5,.02,.74,2.82,.4,5.65,.75,8.49,1.03,3.39,.33,6.83,.7,10.23,.71,3.3,.01,6.35-1.17,9.44-2.16,1.64-.53,3.28-1.05,4.93-1.58,1.46-.47,2.99-.84,4.39-1.46,.29-.13,.57-.28,.83-.46h-1.56Z"/><path class="cls-22" d="M97.24,160.73c-.81-2.93-3.74-4.54-6.41-5.41-2.08-.68-4.17-1.44-6.28-2.03-2.14-.59-4.41-.6-6.61-.38-3.66,.36-7.3,1.13-10.88,1.97-7.31,1.71-14.27,4.43-21.43,6.62-3.59,1.1-7.26,2.03-11.01,2.45-3.88,.44-7.79,.29-11.67-.04-3.87-.33-7.73-.83-11.6-1.09-1.42-.09-2.88-.19-4.34-.19,0,.25-.02,.5-.04,.75,.85,0,1.69,.04,2.51,.07,3.74,.16,7.46,.61,11.18,.98,3.61,.36,7.24,.63,10.87,.49,3.46-.14,6.88-.72,10.23-1.57,6.78-1.72,13.26-4.41,19.98-6.33,3.56-1.02,7.16-1.87,10.8-2.54,3.21-.6,6.54-1.23,9.81-.88,1.62,.18,10.11,2.71,12.12,4.38,1.1,.92,2.05,2.19,2.19,3.66,.14,1.49-.6,2.86-1.68,3.85-2.57,2.33-6.51,2.12-9.74,2.1-3.71-.02-7.42-.23-11.13-.32-3.65-.09-7.31-.07-10.94,.36-3.52,.41-6.97,1.24-10.4,2.1-3.5,.88-7,1.77-10.58,2.33-3.68,.58-7.4,.86-11.12,1-3.67,.14-7.34,.12-11.01,.08-3.37-.04-6.75-.04-10.11-.32-1.03-.09-2.06-.2-3.08-.36v.74c2.48,.37,5,.51,7.51,.58,3.8,.1,7.61,.14,11.41,.12,7.69-.04,15.32-.59,22.83-2.38,3.68-.88,7.32-1.91,11.04-2.61,3.92-.74,7.88-.97,11.86-.95,3.95,.02,7.9,.26,11.85,.34,3.37,.07,7.24,.39,10.37-1.1,2.41-1.15,4.26-3.73,3.5-6.47Z"/><path class="cls-22" d="M171.63,177.45c-3.47,.14-6.81-.38-10.1-1.48-3.12-1.04-6.09-2-9.41-2.14-3.33-.14-6.73,.18-10.02-.54-3.26-.72-5.94-2.7-8.85-4.23-5.17-2.71-11.07-3.96-16.89-3.71-2.94,.13-5.87,.64-8.67,1.54-2.99,.96-5.75,2.46-8.6,3.77-3.14,1.44-6.38,2.36-9.83,2.66-3.33,.29-6.68,.11-10-.16-3.37-.27-6.73-.63-10.1-.73-3.46-.1-6.91,.13-10.34,.52-7.08,.82-14.09,2.12-21.18,2.94-10.32,1.2-20.7,1.84-31.08,1.92-.02,.24-.04,.49-.06,.73,8.75-.07,17.49-.53,26.19-1.39,6.95-.69,13.84-1.72,20.75-2.75,3.6-.54,7.22-1.01,10.86-1.19,3.43-.17,6.85,0,10.27,.28,6.52,.54,13.23,1.39,19.66-.27,3.06-.79,5.85-2.24,8.69-3.59,2.9-1.38,5.87-2.48,9.03-3.06,6.1-1.12,12.53-.46,18.27,1.88,2.99,1.22,5.6,3.13,8.53,4.47,2.89,1.31,5.96,1.56,9.09,1.58,3.46,.03,6.81,.03,10.15,1.06,3.06,.94,5.99,2.1,9.2,2.46,6.67,.76,13.34-1,19.61-3.11,.26-.09,.53-.18,.79-.27l.12-.82c-5.21,1.82-10.57,3.4-16.1,3.61Z"/><path class="cls-22" d="M36.3,187.3h2.32c7.08-2.24,14.95-3.29,21.63,0h1.57c-7.75-4.55-17.34-2.9-25.52,0Z"/><path class="cls-19" d="M160.58,185.01c-4.2,.05-8.46,.08-12.57-.89-3.67-.86-7.12-2.42-10.72-3.5-1.94-.59-3.95-1.03-5.98-1.13-1.4-.06-3.76-.25-4.6,1.17-.06,.1-.08,.27,0,.37,2.76,3.66,7.08,4.84,11.28,6.27h2.25c-1.47-.57-2.98-1.05-4.46-1.56-3.06-1.05-6.22-2.3-8.28-4.9,.49-.54,1.4-.56,2.07-.6,.91-.06,1.83-.03,2.74,.06,1.8,.18,3.56,.64,5.28,1.18,3.42,1.07,6.73,2.53,10.23,3.35,7.38,1.74,15,.32,22.46,1.22,1.93,.23,3.84,.63,5.67,1.25h2.05c-5.36-2.39-11.61-2.36-17.42-2.3Z"/><path class="cls-19" d="M98.16,145.29c-2.87,.78-5.85,.25-8.66-.51-2.41-.65-4.77-1.5-7.21-2.07h-5.04c.85,.06,1.69,.14,2.53,.27,3.44,.51,6.68,1.78,10.03,2.65,3.1,.8,6.53,1.27,9.59,.04,1.3-.52,2.16-1.55,2.18-2.95h-.74c-.04,1.52-1.3,2.21-2.68,2.58Z"/><path class="cls-22" d="M88.36,158.28c-1.18-.44-2.48-.62-3.72-.8-1.21-.18-2.42-.31-3.64-.39-2.58-.16-5.17-.09-7.74,.21-5.57,.65-10.97,2.36-15.89,5.04-.45,.11-.76,.56-.79,1.06-.06,.89,.81,1.32,1.57,1.44,1.36,.2,2.79,.17,4.16,.22,1.47,.06,2.95,.1,4.42,.13,5.96,.12,11.97,.11,17.91-.33,1.92-.14,4.72-.3,5.91-2.1,1.24-1.87-.47-3.83-2.21-4.48Zm1.73,3.82c-.39,.87-1.4,1.31-2.27,1.55-2.32,.64-4.84,.58-7.23,.67-2.45,.09-4.91,.15-7.37,.17-2.8,.02-5.6,0-8.4-.08-1.38-.04-2.75-.09-4.12-.15-.67-.03-1.35-.05-2.02-.1-.28-.02-.58-.04-.84-.14-.2-.08-.35-.18-.44-.37-.42-.93,4.51-2.65,5.1-2.89,1.71-.67,3.46-1.24,5.24-1.69,3.56-.9,7.24-1.35,10.91-1.32,1.25,0,2.5,.07,3.75,.19,1.11,.11,2.21,.26,3.3,.45,1.01,.18,2.09,.35,3.01,.85,.98,.53,1.9,1.69,1.37,2.85Z"/><path class="cls-22" d="M174.25,181.88c-6.02-.91-12.13,.11-18.17-.45-12.23-1.13-22.95-8.39-35.22-9.38-2.94-.24-5.92-.09-8.8,.6-2.76,.66-5.37,1.81-7.94,2.99-2.72,1.25-5.43,2.55-8.31,3.42-2.91,.88-5.93,1.36-8.97,1.55-12.22,.77-24.28-2.52-36.52-1.65-11.81,.84-23.18,4.42-34.29,8.34h2.22c9.01-3.14,18.16-5.94,27.64-7.16,6-.77,11.98-.72,17.99-.19,5.94,.52,11.87,1.36,17.85,1.49,5.77,.13,11.55-.49,16.96-2.6,5.47-2.14,10.56-5.33,16.5-6,12.22-1.37,23.27,5.51,34.77,8.29,2.84,.69,5.73,1.1,8.65,1.19,3.12,.1,6.24-.09,9.35-.09,5.17,0,10.69,.59,15,3.74,.55,.4,1.07,.85,1.55,1.33h1c-2.89-3.17-7.07-4.79-11.28-5.42Z"/><path class="cls-19" d="M114.46,183.87c-4.24-.95-8.62,.29-12.49,2.02-1,.45-1.98,.93-2.95,1.42h1.66c3.6-1.74,7.46-3.23,11.52-3,2.89,.16,5.26,1.36,7.38,3h1.21c-1.84-1.58-3.89-2.89-6.33-3.44Z"/><path class="cls-19" d="M116.43,158.59c.48-.28,.98-.54,1.5-.76,1.07-.47,2.2-.81,3.34-1.05,2.27-.48,4.63-.53,6.93-.32,5.21,.48,10.17,2.33,15.2,3.66,4.83,1.28,9.8,2.1,14.79,2.3,4.96,.2,9.96-.23,14.77-1.48,5.03-1.31,9.61-3.94,14.67-5.14,.96-.23,1.92-.39,2.9-.47l.11-.75c-5.08,.4-9.64,2.91-14.39,4.58-5.01,1.77-10.32,2.55-15.63,2.56-5.34,.01-10.67-.74-15.85-2.02-5.2-1.29-10.26-3.22-15.6-3.89-4.58-.57-9.54-.13-13.52,2.38-.6,.38-1.4,.91-1.07,1.73,.28,.7,1.17,.94,1.84,1.04,2.89,.43,5.79,.77,8.67,1.25,2.63,.44,5.33,.83,7.89,1.6,1.29,.39,2.49,.93,3.64,1.62,1.13,.69,2.22,1.44,3.45,1.97,2.22,.95,4.67,1.09,7.05,1.12,2.71,.04,5.36,.1,8.04,.55,5.19,.86,10.28,2.5,15.58,2.6,2.66,.05,5.29-.37,7.89-.9,2.82-.57,5.63-1.18,8.45-1.77l1.43-.3,.12-.78c-1.88,.39-3.76,.79-5.64,1.18-2.62,.55-5.24,1.17-7.89,1.54-5.3,.75-10.4-.37-15.56-1.48-2.44-.52-4.89-1.02-7.38-1.24-2.46-.22-4.92-.06-7.38-.25-1.25-.09-2.5-.29-3.69-.69-1.23-.41-2.32-1.1-3.41-1.78-2.1-1.32-4.26-2.15-6.68-2.67-2.6-.56-5.23-.99-7.86-1.4-1.34-.21-2.68-.4-4.02-.59-.61-.08-1.22-.16-1.83-.24-.54-.07-1.28-.06-1.74-.41-.71-.55,.46-1.1,.88-1.35Z"/><path class="cls-19" d="M165.95,164.2c-1.2,.03-3.69-.35-3.85,1.44-.05,.59,.29,.97,.8,1.2,.94,.41,2.03,.62,3.03,.83,3.92,.84,7.99,.86,11.92,.08,3.93-.79,7.53-2.63,11.36-3.72l.12-.8c-3.09,.85-6,2.23-9.07,3.15-3.57,1.07-7.34,1.42-11.05,1.05-1.91-.19-3.85-.56-5.67-1.17-.35-.12-.49-.09-.6-.45-.13-.43,.12-.64,.54-.78,.43-.14,.92-.09,1.36-.09,1.02,0,2.04-.04,3.06-.11,3.73-.27,7.4-1.02,10.94-2.22,3.74-1.27,7.34-2.93,11.18-3.89l.12-.79c-3.91,.93-7.57,2.62-11.37,3.92-4.13,1.41-8.45,2.22-12.82,2.33Z"/></g></g><path class="cls-33" d="M184.69,237.03c-.11,.02-.22,.02-.33,.02-1.23,0-2.21-1-2.21-2.23l.41-91.18c0-1.23,1-2.21,2.23-2.21,1.23,0,2.21,1,2.21,2.23l-.41,91.18c0,1.11-.83,2.03-1.9,2.19Z"/><path class="cls-33" d="M171.71,244.64c-.11,.02-.22,.02-.33,.02-1.23,0-2.21-1-2.21-2.23l.41-91.18c0-1.23,1-2.21,2.23-2.21,1.23,0,2.21,1,2.21,2.23l-.41,91.18c0,1.11-.83,2.03-1.9,2.19Z"/><rect class="cls-33" x="0" y="139.77" width="197.73" height="5.87" rx="2.94" ry="2.94"/></g><g><ellipse class="cls-9" cx="166.41" cy="18.97" rx="20.08" ry="15.87" transform="translate(61.27 149.34) rotate(-57.62)"/><ellipse class="cls-10" cx="166.41" cy="18.97" rx="17.77" ry="14.04" transform="translate(61.27 149.34) rotate(-57.62)"/><path class="cls-28" d="M172.61,7.72l-6.83,12.34c-.28,.5,.48,.77,.76,.26l6.76-12.21c.28-.5-.41-.9-.68-.39Z"/><path class="cls-28" d="M161.46,13.75l4.35,6.23c.18,.25,.87-.13,.69-.38l-4.35-6.23c-.5-.52-.87,.13-.69,.38Z"/><path class="cls-9" d="M167.14,19.82c.05,.52-.3,1-.79,1.09-.49,.09-.92-.26-.97-.78-.05-.52,.3-1,.79-1.09,.49-.09,.92,.26,.97,.78Z"/><path class="cls-9" d="M173.33,4.31c-.08,.38-.45,.69-.82,.69s-.61-.31-.53-.69,.45-.69,.82-.69,.61,.31,.53,.69Z"/><path class="cls-9" d="M154.1,18.76c-.08,.38-.45,.69-.82,.69s-.61-.31-.53-.69c.08-.38,.45-.69,.82-.69s.61,.31,.53,.69Z"/><path class="cls-9" d="M180.02,20.05c-.08,.38-.45,.69-.82,.69s-.61-.31-.53-.69c.08-.38,.45-.69,.82-.69s.61,.31,.53,.69Z"/><path class="cls-9" d="M162.09,33.61c-.08,.38-.45,.69-.82,.69s-.61-.31-.53-.69,.45-.69,.82-.69,.61,.31,.53,.69Z"/></g><g><g><g><polygon class="cls-28" points="87.36 138.33 74.15 138.33 75.55 119 88.76 119 87.36 138.33"/><polygon class="cls-34" points="88.64 120.68 88.76 119 75.55 119 75.43 120.68 88.64 120.68"/><path class="cls-28" d="M138.63,119.31H25.64c-1.36,0-2.38-1.1-2.28-2.45l4.8-66.3c.1-1.36,1.28-2.45,2.64-2.45h112.99c1.36,0,2.38,1.1,2.28,2.45l-4.8,66.3c-.1,1.36-1.28,2.45-2.64,2.45Z"/><path class="cls-4" d="M139.48,116.04c.03-.13,.06-.27,.07-.4l4.64-63.5c.1-1.34-.92-2.43-2.28-2.43H32.62c-1.36,0-2.54,1.09-2.64,2.43l-4.64,63.5c-.01,.14,0,.27,0,.4h114.12Z"/><path class="cls-28" d="M122.4,105.99H25.93l-1.16,10.59c-.09,.84,.57,1.57,1.41,1.57H122.4v-12.17Z"/><path class="cls-10" d="M136.98,118.07h-17.61l5.12-68.34,17.44-.03c1.34,0,2.36,1.09,2.26,2.43l-4.59,63.5c-.1,1.34-1.27,2.43-2.61,2.43Z"/><path class="cls-28" d="M102.84,136.75H58.91c-.88,0-1.64,.71-1.7,1.58-.06,.88,.6,1.58,1.47,1.58h43.93c.88,0,1.64-.71,1.7-1.58,.06-.88-.6-1.58-1.47-1.58Z"/></g><g><path class="cls-28" d="M124.9,48.1h-20.65c-.57,0-1.01-.42-.97-.94l.29-4.35c.03-.52,.53-.94,1.1-.94h20.65c.57,0,1.01,.42,.97,.94l-.29,4.35c-.03,.52-.53,.94-1.1,.94Z"/><ellipse class="cls-10" cx="118.69" cy="44.99" rx="2.8" ry="2.49" transform="translate(-7.67 33.02) rotate(-15.35)"/><path class="cls-10" d="M114.29,44.99c-.04,.59-.6,1.07-1.26,1.07s-1.15-.48-1.11-1.07c.04-.59,.6-1.07,1.26-1.07s1.15,.48,1.11,1.07Z"/></g><path class="cls-23" d="M129.24,54c-.06,.65-.65,1.17-1.32,1.16s-1.17-.56-1.11-1.21c.06-.65,.65-1.17,1.32-1.16,.67,.02,1.17,.56,1.11,1.21Z"/><path class="cls-28" d="M128.7,59.96c-.06,.65-.65,1.17-1.32,1.16-.67-.02-1.17-.56-1.11-1.21,.06-.65,.65-1.17,1.32-1.16,.67,.02,1.17,.56,1.11,1.21Z"/><path class="cls-24" d="M128.16,65.91c-.06,.65-.65,1.17-1.32,1.16-.67-.02-1.17-.56-1.11-1.21,.06-.65,.65-1.17,1.32-1.16,.67,.02,1.17,.56,1.11,1.21Z"/><path class="cls-42" d="M127.61,71.87c-.06,.65-.65,1.17-1.32,1.16-.67-.02-1.17-.56-1.11-1.21,.06-.65,.65-1.17,1.32-1.16s1.17,.56,1.11,1.21Z"/><path class="cls-23" d="M79.48,111.49c-.09,.97-.97,1.74-1.96,1.72-1-.02-1.73-.83-1.64-1.8,.09-.97,.97-1.74,1.96-1.72,1,.02,1.73,.83,1.64,1.8Z"/><path class="cls-42" d="M70.82,111.64c-.09,.97-.97,1.74-1.96,1.72-1-.02-1.73-.83-1.64-1.8,.09-.97,.97-1.74,1.96-1.72,1,.02,1.73,.83,1.64,1.8Z"/><path class="cls-28" d="M140.5,53.58h-9.68c-.2,0-.2,.31,0,.31h9.68c.2,0,.2-.31,0-.31Z"/><path class="cls-28" d="M137.47,54.77h-6.71c-.2,0-.2,.31,0,.31h6.71c.2,0,.2-.31,0-.31Z"/><path class="cls-28" d="M139.92,59.18h-9.68c-.2,0-.2,.31,0,.31h9.68c.2,0,.2-.31,0-.31Z"/><path class="cls-28" d="M136.9,60.37h-6.71c-.2,0-.2,.31,0,.31h6.71c.2,0,.2-.31,0-.31Z"/><path class="cls-28" d="M139.38,65.14h-9.68c-.2,0-.2,.31,0,.31h9.68c.2,0,.2-.31,0-.31Z"/><path class="cls-28" d="M138.88,71.09h-9.68c-.2,0-.2,.31,0,.31h9.68c.2,0,.2-.31,0-.31Z"/><path class="cls-28" d="M135.86,72.28h-6.71c-.2,0-.2,.31,0,.31h6.71c.2,0,.2-.31,0-.31Z"/><path class="cls-11" d="M108.07,109.14c-.69,0-.69,1.08,0,1.08s.69-1.08,0-1.08Z"/><path class="cls-11" d="M107.82,111.58c-.69,0-.69,1.08,0,1.08s.69-1.08,0-1.08Z"/><path class="cls-11" d="M107.55,113.93c-.69,0-.69,1.08,0,1.08s.69-1.08,0-1.08Z"/></g><g><polygon class="cls-9" points="73.72 98.19 73.29 105.96 120.45 105.96 120.56 98.19 73.72 98.19"/><path class="cls-9" d="M54.99,105.83c.09-.24,.17-.49,.26-.73-.09,.3,.63-1.77,.71-2,1.34-3.77,2.58-7.58,3.64-11.43,.9-3.24,3.28-11.48,1.18-11.84-1.37-.24-2.73,7.84-3.2,10.25-.17,.87-1.98,10.74-2.86,14.69-.08,.35-.15,.7-.22,1.05h.48Z"/><path class="cls-9" d="M52.2,103.89c.1,.64,.19,1.29,.26,1.94h1.66c.09-1.1,.15-2.21,.17-3.31,.05-2-.04-4.01-.43-5.98-.14-.72-1.05-5.4-2.37-4.29-1.06,.89-.48,3.18-.35,4.34,.26,2.45,.69,4.86,1.06,7.29Z"/><path class="cls-9" d="M111.6,99.59c.2,0,.2-.31,0-.31h-36.86c-.2,0-.2,.31,0,.31h36.86Z"/><path class="cls-9" d="M69.83,88.66c-1.15,.67-2.22,1.48-3.26,2.32-1.61,1.29-3.11,2.71-4.49,4.24-2.84,3.15-5.08,6.74-6.81,10.61h1.38c.03-.07,.07-.13,.12-.19,.02-.02,.05-.04,.08-.06,.84-1.12,1.73-2.19,2.66-3.23,2.68-3,5.68-5.69,8.31-8.73,.71-.82,1.4-1.67,2.04-2.54,.18-.25,1.32-1.78,1.42-2.49,.1-.78-1.17-.07-1.45,.09Z"/><path class="cls-9" d="M36.04,105.83h1.5c-.37-.73-.76-1.46-1.17-2.17-.72-1.26-1.54-2.47-2.52-3.54-.36-.39-2.68-2.95-3.08-1.76-.32,.95,.9,2.15,1.42,2.82,1.08,1.42,2.25,2.75,3.4,4.12,.15,.18,.3,.36,.44,.54Z"/><path class="cls-9" d="M37.5,104.89c.11,.31,.22,.62,.33,.94h.3c-.06-.31-.13-.62-.19-.93,.06,.22-.28-1.33-.31-1.5-.59-2.84-1.26-5.66-2.04-8.45-.66-2.34-2.29-8.34-3.73-7.78-.94,.37,1.26,5.88,1.88,7.56,.22,.6,2.81,7.4,3.76,10.18Z"/><path class="cls-9" d="M41.66,88.62c-.23-.52-.75,.4-.87,.6-.46,.85-.82,1.76-1.15,2.66-.51,1.4-.91,2.85-1.19,4.32-.58,3.03-.61,6.11-.22,9.16,.02,.16,.04,.31,.06,.47h.72c.08-1.43,.27-2.85,.53-4.25,.53-2.87,1.38-5.67,1.87-8.54,.13-.78,.24-1.56,.3-2.34,.02-.23,.15-1.6-.06-2.08Z"/><path class="cls-9" d="M112.55,94.57h-25.08c-.76,0-1.37-.64-1.32-1.41l.61-9.36c.05-.69,.62-1.23,1.32-1.23h25.08c.76,0,1.37,.64,1.32,1.41l-.61,9.36c-.05,.69-.62,1.23-1.32,1.23Z"/><path class="cls-4" d="M111.22,93.18h-22.03c-.67,0-1.2-.52-1.16-1.12l.54-7.48c.04-.56,.55-.99,1.16-.99h22.03c.67,0,1.2,.52,1.16,1.12l-.54,7.48c-.04,.56-.55,.99-1.16,.99Z"/><g><path class="cls-9" d="M60.24,77.44c.08-.22,.16-.44,.23-.66-.08,.27,.57-1.59,.64-1.8,1.21-3.4,2.32-6.82,3.28-10.3,.81-2.92,2.95-10.34,1.06-10.67-1.23-.22-2.46,7.06-2.88,9.24-.15,.78-1.79,9.67-2.57,13.24-.07,.31-.13,.63-.2,.95h.43Z"/><path class="cls-9" d="M58.84,73.87c.09,.58,.17,1.16,.24,1.75h1.49c.08-.99,.13-1.99,.16-2.98,.04-1.8-.04-3.61-.39-5.38-.13-.65-.94-4.86-2.13-3.86-.95,.8-.43,2.87-.32,3.91,.24,2.2,.62,4.38,.96,6.57Z"/><path class="cls-9" d="M70.14,59.64c-.92,.77-1.75,1.65-2.55,2.55-1.23,1.39-2.35,2.88-3.35,4.44-2.05,3.23-3.49,6.76-4.44,10.45l1.23-.21c.02-.07,.04-.13,.08-.19,.02-.02,.04-.05,.06-.07,.58-1.12,1.21-2.21,1.88-3.27,1.93-3.07,4.18-5.92,6.06-9.01,.51-.84,.99-1.69,1.42-2.57,.13-.25,.91-1.78,.88-2.43-.03-.71-1.05,.11-1.28,.3Z"/><path class="cls-9" d="M51.2,62.63h-16.27c-.38,0-.75-.16-1.02-.44-.26-.28-.4-.66-.37-1.04l.4-6.07c.05-.73,.66-1.3,1.39-1.3h16.27c.38,0,.75,.16,1.02,.44,.26,.28,.4,.66,.37,1.04l-.4,6.07c-.05,.73-.66,1.3-1.39,1.3Zm-15.87-7.78c-.17,0-.31,.13-.32,.3l-.4,6.07c0,.12,.05,.2,.09,.24,.04,.04,.11,.1,.23,.1h16.27c.17,0,.31-.13,.32-.3l.4-6.07c0-.12-.05-.2-.09-.24-.04-.04-.11-.1-.23-.1h-16.27Z"/><g><path class="cls-6" d="M36.15,77.52s.05-.02,.07-.02h28.6c.15,0,.16-.2,.05-.24-.07-.15-.14-.31-.23-.45-.46-1.23-.94-2.45-1.46-3.66-.28-.66-.57-1.31-.86-1.96-.23-.51-.47-.98-.92-1.33-.94-.73-2.24-1.04-3.38-1.28-1.31-.28-5.02-.73-5.44-.82,.21-1.03,.44-2.06,.7-3.08,.06-.25-.11-.42-.3-.46-.56-.16-1.13-.27-1.71-.32-.6-.06-1.35,.12-1.92-.06-.19-.06-.33,.02-.4,.15-.09,.04-.16,.12-.17,.25l-.53,3.63c-.62,.15-1.23,.34-1.83,.56-.02-.03-2.23,.92-3.31,1.42-1.05,.5-2.07,.95-2.87,1.82-.78,.85-1.48,1.77-2.16,2.69-.37,.51-.7,1.05-1.04,1.59-.2,.31-.84,1.15-1.1,1.57h.23Z"/><path class="cls-32" d="M40.65,76.41c1.32,.11,2.63,.03,3.93-.27,1.4-.32,2.71-.9,4.1-1.25,1.33-.33,2.7-.43,4.06-.34,1.42,.1,2.78,.31,4.2,.19,2.16-.18,4.24-.87,6.04-2.06-.22-.5-.44-1-.67-1.5-.23-.51-.47-.98-.92-1.33-.12-.09-.25-.18-.38-.26-.29,.24-.56,.48-.82,.67-.82,.59-1.7,1.07-2.64,1.45-3.91,1.56-8.2,.5-12.24,1.26-1.8,.34-3.56,.86-5.35,.21-.26-.09-.52-.2-.77-.31-.39,.49-.77,.99-1.14,1.49-.32,.44-.61,.91-.91,1.37,1.15,.31,2.31,.57,3.5,.67Z"/><path class="cls-32" d="M64.87,77.26c-.07-.15-.14-.31-.23-.45-.3-.81-.62-1.61-.94-2.41-.24,.16-.48,.32-.74,.45-2.46,1.23-5.26,1.89-8.01,1.72-1.37-.08-2.7-.32-4.08-.22-1.36,.09-2.61,.55-3.9,.98-.2,.07-.4,.13-.61,.19h18.44c.15,0,.16-.2,.05-.24Z"/><path class="cls-32" d="M58.02,68.57c-1.31-.28-5.02-.73-5.44-.82,.08-.37,.16-.75,.24-1.12-.21,.02-.42,.03-.62,.05-1.27,.11-2.53,0-3.77-.27l-.21,1.44c-.62,.15-1.23,.34-1.83,.56-.02-.03-2.23,.92-3.31,1.42-.96,.45-1.89,.87-2.65,1.61,.17,.06,.34,.11,.51,.16,.84,.22,1.62,.07,2.45-.09,1.01-.19,2.01-.4,3.03-.54,2.09-.27,4.22-.07,6.33-.18,1.9-.1,3.74-.42,5.41-1.36,.33-.18,.64-.4,.94-.62-.36-.1-.73-.18-1.08-.25Z"/><path class="cls-10" d="M56.83,70.35c-.55-2.44-.87-3.84-.83-6.35,.03-1.79,.78-4.69-1.08-5.86-.17-.11-.42-.04-.52,.14-.17,.3-.24,.59-.22,.91-.08,1.08-.31,2.16-.26,3.25,.05,1.14,.49,2.14,.88,3.19,.75,1.98,.74,4.61,1.8,6.48,.22,.38,.33-1.33,.24-1.75Z"/><path class="cls-21" d="M54.9,53.56c-1.19-1.39-2.94-1.64-4.41-.55-1.34,.99-3.18,2.21-3.46,3.99-.16,1.05,.05,2.2,.13,3.25,.17,2.4,.45,4.61,2.08,6.19,.99,.96,2.29,.9,3.18,.05,1.17-1.13,1.93-2.59,2.5-4.1,1.08-2.87,2.25-6.18-.02-8.84Z"/><path class="cls-10" d="M57.31,54.36c-1.18-2.71-5.22-3.65-7.77-2.49-1.37,.62-2.38,1.88-3.09,3.18-.34,.63-.68,1.32-.84,2.02-.09,.4-.12,.83-.14,1.23-.02,.41,.12,1.01,.02,1.39-.41,1.49-.91,2.96-.67,4.51,.18,1.2,.72,2.37,1.04,3.55,.22,.81,.34,1.65,.5,2.48,.08,.4,.16,.79,.29,1.18,0,.03,.44,.92,.49,.74,.4-1.3,.64-2.66,.78-4.04,.09-1.42,.12-2.83-.02-4.26-.13-1.35-.04-2.71,.2-4.04,.2-1.14,.44-2.22,1.16-3.14,.65-.84,1.14-1.87,2-2.52,.58-.44,1.43-.25,1.78,.39,.04,.07,.07,.13,.11,.2,.31,.6,.59,1.21,.9,1.8,.54,1.04,1.13,2.05,1.75,3.04,0,.38-.05,.76-.09,1.14-.02,.13-.03,.26-.05,.39-.03,.93,.04,1.86,.09,2.79,.06,1.23,.08,2.46,.2,3.7,.15,1.59,.47,3.15,.75,4.73,.05-.04,.09-.1,.12-.17,.74-1.98,.83-4.09,.81-6.18-.02-2,.05-4,.13-6,.08-1.86,.31-3.87-.45-5.62Z"/><path class="cls-27" d="M53.92,59.95c-.35-.33-.58,.33-.64,.54-.06,.22-.12,.46-.1,.69,.01,.14,.09,.27,.26,.25,.18-.01,.3-.19,.36-.33,.12-.25,.37-.92,.12-1.16Z"/><path class="cls-27" d="M49.79,59.32c-.4-.26-.51,.43-.53,.64-.02,.23-.04,.47,.02,.69,.04,.14,.14,.25,.3,.21,.17-.04,.26-.24,.3-.39,.07-.27,.2-.97-.09-1.16Z"/><path class="cls-14" d="M51.91,60.32c-.02,.36-.04,.72-.07,1.08-.04,.42-.02,1.15-.53,1.33-.15,.05-.09,.3,.07,.24,.4-.14,.56-.45,.63-.86,.1-.59,.13-1.2,.16-1.8,0-.16-.25-.16-.25,0Z"/><path class="cls-14" d="M51.08,62.38l-.29-.04c-.07,0-.14,.02-.16,.09-.02,.06,.02,.15,.09,.16l.29,.04c.07,0,.14-.02,.16-.09,.02-.06-.02-.15-.09-.16Z"/><path class="cls-10" d="M52.26,64.18c-.85,0-1.69-.04-2.53-.09-.08,0-.12,.07-.1,.13,.05,.14,.46,.27,.58,.33,.26,.12,.54,.22,.84,.23,.3,.02,.57-.11,.83-.22,.11-.05,.78-.38,.38-.39Z"/><path class="cls-10" d="M55.18,59.01c-.02-.12-.1-.26-.13-.31-.17-.27-.44-.48-.75-.59-.25-.08-.54-.09-.78,.03-.11,.06-.25,.17-.29,.29-.07,.21,.09,.26,.25,.29,.29,.04,.58,.08,.86,.14,.26,.06,.45,.24,.7,.3,.14,.03,.16-.05,.14-.15Z"/><path class="cls-10" d="M50.99,57.96h0c-.19-.46-.86-.55-1.27-.47-.31,.06-.97,.28-.94,.68,.02,.2,.4,.15,.53,.14,.35-.02,.7,.02,1.05,.05,.24,.02,.79-.01,.63-.4Z"/><path class="cls-25" d="M57.32,61.08c-.48-.28-.86-.67-1.12-1.16-.08-.14-.3-.02-.22,.13,.29,.52,.7,.95,1.21,1.25,.14,.08,.27-.14,.13-.22Z"/><path class="cls-25" d="M48.21,58.05c-.49,.94-1.21,1.84-2.36,1.84-.16,0-.16,.25,0,.25,1.24,0,2.05-.95,2.58-1.96,.08-.14-.14-.27-.22-.13Z"/><path class="cls-25" d="M51.9,52.62c-.95-.02-1.67,.58-2.33,1.19-.12,.11,.06,.29,.18,.18,.61-.57,1.26-1.14,2.15-1.12,.16,0,.16-.25,0-.25Z"/><path class="cls-25" d="M56.6,56.6c0-.16-.26-.16-.25,0,.03,.46,.06,.91,.1,1.37-.29-.96-.66-1.9-1.11-2.79-.38-.75-.78-1.56-1.6-1.88-.15-.06-.22,.19-.07,.24,.86,.33,1.28,1.39,1.65,2.17,.42,.88,.74,1.8,1,2.74,.03,.09,.12,.11,.19,.07,.06,.1,.25,.08,.23-.06-.06-.62-.11-1.24-.14-1.86Z"/><path class="cls-25" d="M55.96,64.41c0-1.6,.21-3.22-.1-4.8-.03-.16-.28-.09-.24,.07,.32,1.64,.07,3.33,.09,4.98,.01,1.66,.15,3.32,.28,4.98,.01,.16,.27,.16,.25,0-.14-1.74-.27-3.48-.28-5.23Z"/><path class="cls-25" d="M47.3,66.27c-.32-1.52-.39-3.05-.19-4.58,.02-.16-.23-.16-.25,0-.19,1.56-.12,3.12,.2,4.65,.03,.16,.28,.09,.24-.07Z"/><path class="cls-21" d="M32.37,69.93c.17,.59,.91,.8,1.39,1.02,1.14,.52,2.32,.96,3.41,1.58,.29,.65,.42,1.37,.51,2.09,.12,1,.21,2,.27,3h3.06s-.03-.04-.06-.06c0-.02,0-.04,0-.06-.29-1.21-.54-2.43-.75-3.67-.13-.77-.14-1.6-.35-2.37-.1-.35-.25-.86-.52-1.12-.27-.26-.76-.41-1.09-.61-1.47-.9-2.76-2.11-3.76-3.54-.23-.32-.72-.07-.63,.25-.01,.09,.03,.18,.08,.28,.3,.6,.56,1.03,.87,1.55,.07,.11,.9,1.1,.47,1.04-.02,0-.05,0-.07,0-.62-.38-1.07-1-1.45-1.66-.52-.89-.75-1.57-1.25-2.48-.12-.21-.33-.23-.51-.33-.22-.13-.27-.28-.37-.51-.17-.41-.86-.29-.68,.11,.02,.06,.05,.11,.07,.17-.14,.06-.24,.2-.16,.38,.43,1.09,.89,2.17,1.38,3.23,.01,.57,0,1.18,.14,1.7Z"/><path class="cls-21" d="M48.32,70.27c.54-.57,.69-.57,1.29-1.09,.3-.26,.74-.57,1.18-.74,.17-.07,.32,.13,.21,.28-.26,.33-.53,.75-.63,.88-.41,.53-.8,1.08-1.26,1.57-.33,.36,.2,.89,.54,.54,.05-.05,.09-.1,.14-.15,.06-.06,.14-.07,.22-.04,.13,.06,.28,.06,.41-.07,.1-.1,.19-.19,.29-.29,.05-.05,.13-.07,.2-.04,.06,.02,.12,.04,.18,.03,.11,.1,.26,.13,.41,.02,1.2-.81,2.43-1.56,3.7-2.25,.08-.05,.19-.02,.24,.06,.44,.72,1.65,3,2.03,3.74,.8,1.58,1.56,3.18,2.28,4.8h3.86c-1.38-2.3-4.65-8.76-5.28-9.81-.54-.91-1.31-2.23-2.53-2.28-1.02-.04-2.06,.45-3.02,.97-1.36,.48-2.7,1-4.03,1.55,0,0-.02,0-.03,.01-.07,.03-.14,.06-.21,.08,0,0-.01,0-.02,.01,0,0-.01,0-.02,0-.05,.03-.09,.07-.1,.13-.04,.13,.07,.23,.17,.29,.09,.06,.18,.09,.28,.12-.61,.51-1.12,1.17-1.66,1.74-.33,.36,.83,.29,1.16-.07Z"/><path class="cls-14" d="M35.97,70.54c-.48-.21-.97-.4-1.47-.54-.67-.19-1.12-.43-1.25-1.18-.14-.81,.05-1.71-.61-2.33-.11-.1-.27,.06-.16,.16,.79,.75,.25,1.98,.76,2.87,.16,.29,.42,.47,.72,.57,.64,.23,1.28,.38,1.9,.66,.13,.06,.25-.14,.11-.2Z"/><path class="cls-14" d="M53.18,67.81c-.97,.73-1.83,1.58-2.57,2.55-.1,.13,.12,.26,.22,.13,.71-.93,1.55-1.75,2.48-2.46,.13-.1,0-.32-.13-.22Z"/><path class="cls-14" d="M53.11,68.62c-.64,.47-1.23,.98-1.79,1.54-.12,.12,.06,.29,.18,.18,.54-.54,1.12-1.05,1.74-1.51,.13-.1,0-.32-.13-.22Z"/></g></g><g><path class="cls-13" d="M90.35,89.33c-.1-.2-.23-.51-.42-.75-.15-.24-.32-.43-.5-.53-.24-.22-.48-.27-.67,.11,0,.02-.01,.03-.02,.05-.34,.38-.13,1.01,0,1.43,.08,.23,.17,.46,.28,.68,.13,.35,.3,.69,.52,.94,.07,.08,.15,.14,.24,.19h.02c.13,.08,.28,.11,.42,.08,.25,0,.46-.18,.52-.45,.02-.1,.03-.2,.03-.31,.12-.46-.23-1.05-.43-1.44Z"/><path class="cls-13" d="M99.52,87.1s-.01-.05-.02-.08c-.05-.15-.16-.21-.31-.23-.34-.04-.49,.31-.59,.62-.06,.04-.11,.1-.14,.18-.05,.16-.17,.59-.24,1.04-.11,.44-.18,.91-.06,1.31,.06,.2,.28,.28,.46,.19,.04-.02,.07-.04,.1-.06,.05-.01,.11-.02,.17-.05,.86-.33,1.05-2.16,.62-2.92Z"/><path class="cls-13" d="M97.69,100.35c-.19-2.42-.28-4.84-.28-7.27,0-.06-.01-.1-.03-.14-.02-.09-.09-.16-.22-.18-.88-.12-1.75-.12-2.62,.05-.44,.09-.88,.27-1.32,.32-.3,.03-.61-.07-.87,.12-.07,.05-.11,.12-.13,.19-.08,.07-.12,.17-.1,.3,.46,2.42,.46,4.21,.4,6.67,0,.03,.2,.74,.21,.76-.05,.15,0,.34,.21,.39,1.51,.4,3.5,.17,4.73-.82,.16-.13,.13-.3,.02-.41Z"/><path class="cls-13" d="M98.43,85.49c-.28-1.04-.75-2.03-1.22-3-.01-.02-.02-.04-.03-.06-.02-.09-.09-.18-.22-.21-1.83-.47-3.84,.17-5.47,1.03-1.31,.69-2.48,2.05-2.16,3.57,0,.02,0,.05,0,.08,.22,1.89,.7,3.73,1.46,5.47,.66,1.51,1.84,3.26,3.5,3.83,1.55,.53,2.62-.49,3.34-1.89,.85-1.65,1-3.77,1.06-5.59,.04-1.09,.02-2.18-.26-3.25Z"/><path class="cls-10" d="M108.23,105.96c0-.06,0-.12-.03-.19-.41-.85-1.15-2.21-2.15-2.44-1.04-.24-2.19-.02-3.18-.43-.84-.35-4.27-1.66-4.57-2.16-.3-.49-.03-3.34-.48-3.34-1.72,.35-3.45,.5-5.2,.45-.04,0-.08,0-.11,.02-.13-.01-.27,.05-.3,.23-.13,.65-.15,2.31-.39,2.53-.86,.8-4.26,1.89-6.03,2.14-1,.14-1.95,.35-2.76,1-.73,.58-1.26,1.35-1.77,2.11-.02,0-.04,.03-.07,.07h27.06Z"/><path class="cls-32" d="M98.26,81.26c-.22-.09-.39-.26-.49-.47-.25-.52-.66-.98-1.16-1.29-1.54-.94-3.74-.98-5.27,0-.35,.22-.67,.5-.94,.81-.36,.43-.53,.98-.9,1.41-.32,.37-.77,.63-1.12,.96-.33,.31-.62,.66-.87,1.04-.5,.74-.83,1.59-.43,2.45,.26,.56,.73,.94,1.25,1.23,.14,.07,.25,.18,.34,.31,.2,.31,.4,.62,.58,.93,.24,.41,.53,1.11,1.04,1.25-.1-.64-.18-1.28-.29-1.92-.17-.94,1.09-1.65,1.47-2.4,.38-.75,.78-1.79,1.79-1.77,.51,.01,1.01,.22,1.51,.31,.35,.06,.7,.06,1.05,0,.33-.05,.71-.27,1.05-.17,.23,.07,.38,.14,.61,.17,.23,.02,.43,0,.51,.28,.18,.56,.48,1,.52,1.6,.04,.6,.09,1.21,.11,1.81,.04,.04,.11,.05,.2,0,.49-.23,.44-.97,.51-1.43,.01-.09,.02-.18,.04-.27,.02-.19,.11-.37,.24-.51,.22-.25,.4-.55,.48-.73,.75-1.66-.33-3.02-1.81-3.61Z"/><path class="cls-27" d="M96.55,87.46c-.5-.01-.4,1.29-.19,1.51,.09,.1,.24,.11,.35,.02,.31-.27,.25-.93,.13-1.29-.05-.14-.17-.24-.29-.24Z"/><path class="cls-27" d="M92.39,87.79c-.49,.08-.16,1.34,.08,1.52,.11,.08,.26,.07,.35-.04,.26-.32,.08-.96-.1-1.29-.07-.13-.21-.21-.33-.19Z"/><path class="cls-38" d="M97.53,86.41c-.34-.61-1.26-1.08-1.8-.51-.2,.21-.23,.59,.06,.71,.24,.09,.48-.04,.71-.07,.28-.02,.57,.05,.84,.15,.14,.05,.27-.14,.19-.28Z"/><path class="cls-38" d="M93.18,86.05c-.2-.08-.46-.1-.63-.08-.41,.04-1.33,.43-1.07,.99,.15,.33,.51,.06,.72-.04,.23-.11,.41-.17,.67-.16,.16,0,.47,0,.56-.17,.14-.28-.02-.44-.26-.53Z"/><path class="cls-32" d="M95.23,88.22c-.03-.16-.28-.09-.24,.07,.15,.74,.39,1.79,.09,2.53-.06,.15,.18,.22,.24,.07,.32-.78,.07-1.86-.09-2.66Z"/><path class="cls-32" d="M94.65,90.49c-.1-.02-.2-.03-.31-.02-.07,0-.13,.05-.13,.13,0,.06,.06,.13,.13,.13,.08,0,.16,0,.24,.01,.16,.04,.23-.21,.07-.24Z"/><path class="cls-10" d="M96.25,92.01c-.87,.2-1.75,.34-2.65,.42-.09,0-.18,.09-.12,.19,.26,.42,1,.62,1.34,.65,.65,.06,1.13-.53,1.52-.99,.02-.02,.03-.05,.03-.08,.06-.08,0-.23-.13-.2Z"/><path class="cls-32" d="M98.7,90.17c0-.09-.14-.19-.22-.09-.16,.2-.4,1.2-.61,1.71-.19,.48-.42,.99-.79,1.36-.18,.18-.56,.59-.81,.65-.31,.07-.31-.18-.44-.21-.32-.08-1.13-.1-1.38,.16-.22,.24-.36,.37-.7,.31-.31-.06-.85-.25-1.1-.42-1.67-1.12-1.71-2.45-2.2-2.49-.09,0-.13,.08-.12,.15-.03,.03-.04,.07-.02,.11,.5,1.28,1.14,2.52,2.07,3.55,.71,.78,1.9,1.46,3.09,1.4,.52-.02,.99-.33,1.39-.81,.38-.46,.74-.95,.98-1.49,.53-1.2,.72-2.52,.87-3.81,0-.03,0-.05-.01-.07Z"/></g><g><path class="cls-21" d="M46.36,94.42h0s-.04-.08-.07-.1c-.44-.56-.84-1.12-1.38-1.59-.52-.45-1.3-.73-1.73-1.25-.14-.17-.37,.04-.3,.22,0,.01,0,.02,0,.04-.14,2.11-.28,4.21-.42,6.32-.18-.05-.32,.23-.14,.35,.73,.49,1.54,.81,2.42,.91,.47,.05,.97,.08,1.27-.24,.1,.02,.22-.04,.22-.18-.02-1.41,.02-2.82,.13-4.22,.06-.07,.09-.18,.01-.27Z"/><path class="cls-37" d="M57.19,105.99c-.32-.95-.75-1.87-1.28-2.73-.35-.57-.67-1.21-1.18-1.66-.51-.44-5.93-1.71-7.15-1.88-2.47-.34-4.87-.47-7.35-.24-1.87,.17-4.33,.47-5.85,1.74-1.41,1.18-1.37,3.08-1.16,4.76h23.96Z"/><path class="cls-37" d="M51.18,102.87c.04-.78,.05-1.56,.11-2.34-1.53-.38-3.12-.72-3.71-.81-2.43-.34-4.78-.46-7.22-.25,.31,.54,.7,1,1.3,1.34,1.28,.71,2.84,1.06,4.29,1.16,1.44,.09,2.67,.26,3.94,1,.42,.25,.83,.51,1.25,.77,0-.3,.03-.59,.04-.88Z"/><path class="cls-41" d="M47,100.33l.2,.31c.33,.35,.66,.71,1,1.05,.17,.17,.47,.03,.44-.21-.05-.41-.07-.82-.08-1.23,.03,.15,.07,.3,.12,.45,.21,.62,.41,1.28,.67,1.9,.04,.09,.1,.16,.18,.22,.08,.05,.15,.11,.23,.16,.54,.35,1.06,1.21,1.62,1.53,.43-2.55,.51-5.84-.8-8.15-.33-.58-.48-1.31-.25-2.02,.07-.22-.07-.47,.03-.7,.12-.25-.06-.5,.02-.76,.34-1.26,.41-2.67,.44-3.97,.03-1.08,.07-2.64-.66-3.53-.58-.71-1.53-.67-2.04,.1-.29,.44-.41,.96-.54,1.46-.21,.78-.4,1.57-.57,2.36-.32,1.44-.57,2.9-.76,4.36-.12,.88-.21,1.77-.29,2.66-.05,.64-.25,1.49-.09,2.13,.17,.67,.77,1.32,1.14,1.89Z"/><path class="cls-21" d="M48.46,83.44c-.06-.11-.17-.11-.26-.06-1.13-.76-2.75-.67-4.03-.4-1.47,.31-2.59,1.43-3.16,2.79-.26,.62-.46,1.36-.34,2.03,.12,.67,.58,.91,.97,1.41,.38,.48,.33,1.16,.39,1.74,.04,.39,.1,.77,.16,1.16,.11,.7-.29,.88,.2,1.42,.67,1.09,2.2,2.58,3.55,2.54,1.61-.04,2.19-1.41,2.7-2.72,1.25-3.19,1.53-6.84-.2-9.91Z"/><path class="cls-14" d="M45.55,95.85c-1-.32-1.84-.95-2.44-1.81-.09-.13-.31,0-.22,.13,.64,.92,1.53,1.58,2.59,1.93,.16,.05,.22-.19,.07-.24Z"/><path class="cls-37" d="M47.1,100.73c.03-.45,.04-.9,.09-1.34,.07-.71,.19-1.38-.14-2.02-.03,0-.06,0-.09,.02-.02,0-.05,0-.08,0-1.4,.24-3.18,.13-4.41-.64-.01-.14-.19-.26-.32-.13-.12,.13-.19,.26-.23,.41-.02,.84-.09,1.67-.14,2.5-.03,.43,1.66,1.23,1.95,1.35,.51,.21,1.06,.34,1.61,.34,.18,0,.95-.18,1.41-.25,.11-.09,.23-.16,.34-.24Z"/><path class="cls-41" d="M47.4,81.54c-2.88-.69-5.56,.56-6.92,2.27-1.19,1.51-2.2,3.52-1.81,5.4,.27,1.31,.74,2.46,.48,3.81-.23,1.18-.71,2.31-1.1,3.46-.46,1.36-.81,2.79-.71,4.19,.02,.25,.13,.49,.32,.66,.2,.18,.41,.35,.66,.49,.66,.37,1.4,.55,2.04,.95,.71,.45,1.31,1.04,2.04,1.46,.26,.15,.52,.34,.8,.5,.2,.11,.44-.04,.42-.27-.05-.65-.24-1.3-.29-1.95-.07-.86,.15-1.71,.26-2.56,.11-.78,.14-1.57-.05-2.34-.21-.84,.21-1.69-.12-2.48-2.08-5.09-.9-4.8,.02-6.95,.18-.43,1.11-1.02,1.45-1.39,.49-.53,.94-1.09,1.29-1.7,.32-.56,.55-1.21,.64-1.85,.04-.26,.62,.12,.86,.34,.06-.39,.43-1.88-.29-2.05Z"/><path class="cls-41" d="M49.76,93.42c-.1,1.08-.08,2.15,.17,3.2,.28,1.2,.74,2.33,.81,3.59,.02,.38-.16,2.25-.02,3.54,.02,.16,.1,.31,.23,.41,.22,.17,.44,.35,.66,.53l.16-.07c.27-2.32,.52-4.67,.21-7-.16-1.17-.56-2.27-.77-3.42-.24-1.34-.03-2.67,.14-4.01,.26-2.04,.21-4.17-.77-6-.45-.84-1.1-1.57-1.89-2.08-.39-.25-.81-.44-1.26-.57-.26-.07-.73-.14-1-.13-.18,0-.54,.13-.29,.42,.35,.39,.35,.93,.55,1.4,.17,.42-.58,.88-.28,1.19,.74,.74,2.34,1.56,2.84,2.53,1.07,2.08,.71,4.25,.51,6.46Z"/><path class="cls-27" d="M48.44,89.45c.03-.31-.03-.66-.12-.78-.19-.27-.43,.15-.46,.3-.05,.28-.04,.57,0,.85,.02,.11,.11,.16,.21,.16,.23,0,.33-.25,.35-.54Z"/><path class="cls-27" d="M45.17,89.42c0-.19,0-.74-.25-.83-.21-.07-.42,.28-.43,.43-.03,.28,0,.49,.08,.76,.03,.1,.18,.2,.29,.19,.23-.02,.31-.27,.31-.56Z"/><path class="cls-14" d="M47.27,89.04c-.03-.16-.27-.09-.24,.07,.07,.39,.5,2.19-.08,2.4-.15,.05-.09,.3,.07,.24,.35-.12,.45-.4,.47-.75,.03-.64-.1-1.33-.21-1.96Z"/><path class="cls-14" d="M46.7,91.12c-.13,0-.26,.02-.39,.05-.16,.04-.09,.28,.07,.24,.11-.03,.21-.04,.32-.04,.16,0,.16-.25,0-.25Z"/><path class="cls-41" d="M48.16,87.23c-.18-.02-.41-.03-.55,.1-.11,.11-.14,.28-.04,.41,0,0,.01,.01,.02,.02,.09,.13,.28,.14,.45,.15,.22,0,.43,.03,.64,.08,.12,.03,.25,.09,.37,.04,.04-.01,.08-.04,.09-.09,.06-.42-.64-.67-.97-.71Z"/><path class="cls-41" d="M44.17,87.78c.16,.04,.38,.04,.44,.04,.27,0,1.08,.14,1.24-.11,.07-.11,.08-.25,0-.38v-.02c-.2-.28-.62-.18-.9-.13-.27,.05-.76,.15-.92,.37-.09,.12,0,.19,.13,.22Z"/><path class="cls-10" d="M47.37,92.8h-.02c-.42-.04-.83-.06-1.25-.07-.24,0-.58-.08-.79,.08-.05,.04-.07,.1-.04,.16,.31,.52,.97,.53,1.49,.54,.4,0,.72-.16,.74-.6,0-.09-.07-.12-.14-.11Z"/><path class="cls-21" d="M64.35,97.11c-.18-.71-.74-1.41-1.1-2.03-.05-.08-.1-.13-.17-.16-.12-.18-.33-.28-.56-.12-.46,.32-1.01,.62-1.34,1.08-.36,.5-.32,1.03-.27,1.62,.13,1.52,.22,3.04,.27,4.57,0,.1,.03,.17,.07,.24,.02,.39,.05,.77,.11,1.15,.02,.12,.07,.2,.14,.25-.06,.49,.72,.67,.87,.15,.47-1.6,.99-3.19,1.56-4.76,.22-.61,.58-1.3,.42-1.97Z"/><path class="cls-37" d="M63.73,105.99c-.28-1.24-.7-3.36-.81-3.56-.08-.16-.01-.14-.19-.07-.12,.05-.26,.2-.36,.27-.45,.35-.9,.7-1.41,.98-.45,.24-.87,.42-1.24,.72,.1,.56,.22,1.11,.36,1.66h3.65Z"/><path class="cls-32" d="M50.47,98.76c-.19-1.1-.73-2.16-.72-3.29,.02-2.17,.62-4.24,.28-6.43-.03-.16-.27-.09-.24,.07,.17,1.11,.13,2.22,.02,3.33-.11,1.08-.36,2.2-.31,3.28,.04,.95,.46,1.83,.65,2.75,.23,1.13,.29,2.28,.2,3.42-.01,.16,.24,.16,.25,0,.08-1.05,.04-2.1-.14-3.14Z"/><path class="cls-32" d="M48.57,96.42c0-.16-.25-.16-.25,0,0,1.12,.05,2.22,.17,3.33,.02,.16,.27,.16,.25,0-.12-1.11-.18-2.22-.17-3.33Z"/><path class="cls-32" d="M44.95,84.01c-.72,1.1-1.23,2.3-1.52,3.58-.04,.16,.21,.23,.24,.07,.29-1.26,.79-2.44,1.49-3.52,.09-.14-.13-.26-.22-.13Z"/><path class="cls-32" d="M42.41,84.93c-.87,1.5-1.09,3.04-1.09,4.74,0,.6-.05,1.2-.13,1.78,0-.53-.04-1.05-.11-1.58-.02-.16-.27-.16-.25,0,.12,.94,.14,1.88,.07,2.83,0,.04,.01,.08,.04,.1-.2,.88-.46,1.75-.73,2.63-.05,.16,.2,.22,.24,.07,.52-1.68,1.04-3.38,1.11-5.14,.04-.89-.03-1.78,.11-2.66,.15-.93,.49-1.81,.96-2.63,.08-.14-.14-.27-.22-.13Z"/><path class="cls-10" d="M61.63,101.26h-.01v-5.09h.01v-1.13h-.01v-.58c0-.41-.33-.74-.74-.74h-4.68c-.41,0-.74,.33-.74,.74v8.52c0,.41,.33,.74,.74,.74h4.68c.41,0,.74-.33,.74-.74v-.68h.01v-1.05Z"/><path class="cls-21" d="M63.45,98.24c-1.08-1.33-2.33-2.48-3.74-3.46-.47-.33-.91,.44-.45,.77,.31,.22,.18,.22,.47,.45-.43-.22-.53,.57-.11,.9,.2,.16,.14,.11,.33,.27-.21,.14-.07,.67,.15,.91,.64,.71,1.32,1.37,2.06,1.97,.44,.36,1.64-1.38,1.28-1.82Z"/><path class="cls-10" d="M61.63,94.69c-.44-.36-1.07,.27-.63,.63,.89,.72,1.66,1.7,1.62,2.91-.03,1.25-1.06,2.18-2.08,2.76-.5,.28-.05,1.05,.45,.76,1.23-.69,2.38-1.83,2.51-3.31,.13-1.51-.75-2.83-1.87-3.75Z"/><path class="cls-21" d="M62.48,101.74c.04-.07,0-.13-.05-.15h-.01s-.06-.02-.09,0c-1.19,.07-1.84,1.2-2.87,1.66-1.16,.53-2.49,.5-3.68,.91-.14,.05-.09,.27,.04,.25-.03,.08,.01,.17,.11,.16,.76-.06,1.52-.09,2.29-.07,.62,.01,1.35,.19,1.95,.09,.44-.07,.65-.44,.89-.78,.47-.67,.93-1.35,1.4-2.02,.01-.01,.03-.03,.03-.05Z"/><path class="cls-21" d="M62.37,95.38s.02,.03,.03,.04c.49,.2,.95,.46,1.44,.65-.24-.5-.53-.97-.9-1.38-.75-.83-1.85-1.27-2.81-1.8-.5-.27-.84,.55-.34,.82,.88,.48,1.92,.88,2.58,1.67Z"/><path class="cls-21" d="M54.4,105.99c.23-.41,.42-.79,.59-1.07,.11-.18,.3-.3,.51-.31,.55-.05,1.57-.09,1.94-.11,.67-.04,1.4-.18,2.03-.41,1.12-.41,2.12-1.48,2.92-2.34,.24-.25,.1-.59-.14-.71-.12-.12-.31-.18-.51-.06-.82,.51-1.67,1.18-2.6,1.48-.53,.17-1.08,.3-1.63,.39-.35,.05-1.15,.28-1.42-.05-.23-.29,.06-.61,.3-.77,.76-.4,.85-.38,1.51-.93,.44-.37,.42-1.49-.01-1.12-1,.85-2.14,1.42-3.33,1.93-.54,.23-1.05,.54-1.46,.96-.42,.44-.65,1.03-.99,1.53-.36,.54-.72,1.08-1.09,1.62h3.38Z"/><path class="cls-37" d="M54.34,105.99c-.19-.25-.38-.5-.55-.75-.37-.53-1.24-1.52-1.5-1.52,0,0-.76,1.33-1.3,2.27h3.34Z"/><path class="cls-14" d="M61.76,101.45c-.62,.97-1.48,1.72-2.52,2.22-.15,.07-.02,.29,.13,.22,1.08-.51,1.97-1.3,2.61-2.31,.09-.14-.13-.26-.22-.13Z"/><path class="cls-14" d="M62.15,97.51c-.58-.54-1.19-1.04-1.83-1.5-.13-.1-.26,.12-.13,.22,.62,.45,1.21,.94,1.78,1.46,.12,.11,.3-.07,.18-.18Z"/><path class="cls-14" d="M61.97,98.51c-.49-.51-1.04-.97-1.64-1.35-.14-.09-.26,.13-.13,.22,.58,.38,1.11,.81,1.59,1.31,.11,.12,.29-.06,.18-.18Z"/><path class="cls-32" d="M52.15,103.69c-.48,.68-.91,1.39-1.3,2.12-.09,.17,.17,.33,.27,.16,.39-.73,.83-1.44,1.3-2.12,.11-.16-.15-.32-.27-.16Z"/></g><g><path class="cls-9" d="M83.11,75.79h1.07c-.26-.52-.54-1.04-.83-1.54-.51-.89-1.09-1.75-1.79-2.52-.26-.28-1.91-2.1-2.19-1.25-.23,.67,.64,1.53,1.01,2.01,.77,1.01,1.6,1.96,2.42,2.93,.11,.13,.21,.25,.32,.38Z"/><path class="cls-9" d="M84.15,75.13c.08,.22,.16,.44,.23,.67h.22c-.05-.22-.09-.44-.14-.66,.04,.16-.2-.95-.22-1.07-.42-2.02-.89-4.03-1.45-6.01-.47-1.67-1.63-5.93-2.65-5.53-.67,.26,.89,4.18,1.34,5.37,.16,.43,2,5.26,2.67,7.24Z"/><path class="cls-9" d="M87.11,63.56c-.16-.37-.54,.28-.62,.43-.33,.6-.58,1.25-.82,1.89-.36,1-.65,2.03-.84,3.07-.41,2.15-.43,4.34-.16,6.51,.01,.11,.03,.22,.05,.33h.51c.06-1.01,.19-2.02,.38-3.02,.38-2.04,.98-4.03,1.33-6.07,.09-.55,.17-1.11,.22-1.67,.01-.16,.11-1.14-.04-1.48Z"/><path class="cls-9" d="M123.14,64.28h-21.99c-.47,0-.91-.19-1.23-.53-.32-.34-.48-.8-.45-1.26l.54-8.31c.06-.89,.8-1.58,1.69-1.58h22.21v1.08h-22.21c-.32,0-.59,.25-.61,.57l-.54,8.31c-.01,.17,.05,.33,.16,.46,.12,.13,.28,.19,.45,.19h21.99v1.08Z"/><g><path class="cls-41" d="M98.18,53.19c-.35-.85-1.15-1.31-2.02-1.42-.46-.53-1.09-.93-1.79-1.09-1.31-.31-2.42,.49-3.7,.49-.59,0-1.11-.09-1.68,.09-.51,.15-.97,.42-1.37,.77-.63,.54-1.2,1.37-1.17,2.2,0,.29-.33,.56-.44,.82-.14,.32-.17,.67-.16,1.02,.03,.73,.25,1.43,.24,2.16,0,.53-.26,1.08-.03,1.59,.17,.38,.55,.65,.86,.92,1.7,1.47,2.2,3.54,2.94,5.54,.21-.15,.53-.5,.77-.19,.04,.06,.29-3.48,.34-3.46,.05,.06-1.4-.1-1.3-.1,2.66,.14,2.75-3.52,3.64-5.22,.59-1.14,1.39-1.82,2.45-2.48,.26,.34,.52,.67,.79,.99,.16,.18,.46,.31,.67,.26,.07,0,.14-.03,.21-.11,.63-.82,1.18-1.72,.74-2.77Z"/><path class="cls-21" d="M95.11,65.78c-.52-.76-1.33-1.25-2.08-1.76-.94-.63-1.9-1.22-2.89-1.77v-.04c0-.14-.2-.16-.25-.05-.09,.03-.13,.17-.03,.23h.02c.04,2.2-.24,4.36-.84,6.46-.03,.1,.06,.16,.14,.15,.25,.85,.82,1.58,1.63,1.97,.74,.35,2.11,.73,2.88,.3,.08-.05,.07-.14,.02-.19,.34-1.75,.79-3.47,1.37-5.15h0s.05-.1,.01-.15Z"/><path class="cls-21" d="M97.01,53.8c.05-.05,.06-.15-.02-.2-2.42-1.35-6.14-1.28-7.7,1.32-.65,1.08-1.5,2.66-.72,3.86,.22,.33,.49,.62,.68,.97,.21,.39,.32,.83,.41,1.27,.15,.78,.22,1.58,.49,2.33,.02,.06,.07,.09,.13,.09,.57,1.26,1.85,2.3,3.08,2.96,1.55,.83,2.98,.75,3.82-.97,.41-.85,.53-1.83,.66-2.76,.15-1.04,.25-2.08,.26-3.13,.03-1.98-.27-3.93-1.09-5.74Z"/><path class="cls-41" d="M97.94,54.61c.07-.59,.04-.42,.02-.52-.83-3.38-5.63-2.53-7.97-.89-1.22,.86-2.18,2.2-2.52,3.65-.22,.96-.01,1.87,.44,2.68-.05,.11-.05,.24,.04,.35,.48,.56,.49,1.04,1.1,1.47,.35,.25,1.05,1.11,1.53,.93,.48-.17,.33-.87,.18-1.21-.34-.79-.47-1.65-.46-2.57,0-.37,.13-.78,.43-1.02,.34-.28,.8-.26,1.2-.39,.58-.18,.89-.6,1.14-1.12,.38-.78,.8-1.36,1.72-1.55,.97-.2,2.29,.47,2.88,1.24l.27-1.06Z"/><path class="cls-21" d="M91.01,62.27c-.14-.44-.38-.87-.55-1.18-.41-.7-1.23-1.51-2.03-.98-.87,.58,.04,1.89,.45,2.47,.32,.45,1.38,1.69,2,.99,.31-.35,.28-.83,.13-1.3Z"/><path class="cls-41" d="M97.83,58c-.19-.17-.68-.37-.95-.34-.37,.04-.47,.35-.41,.59,.07,.23,.62,.18,.83,.19,.15,.01,.34,.05,.49,.02,.26-.06,.2-.32,.04-.46Z"/><path class="cls-41" d="M94.62,57.97c-.14-.19-.4-.27-.65-.27-.54,0-1.19,.28-1.54,.67-.08,.09-.04,.2,.05,.26,.23,.13,.48,.02,.72-.03,.42-.08,.86-.06,1.27-.15,.27-.05,.27-.3,.14-.47Z"/><path class="cls-27" d="M93.98,60c-.01-.25-.09-.48-.23-.6-.16-.14-.38-.09-.46,.13-.11,.29-.03,.88,.16,1.09,.09,.1,.25,.23,.36,.1,.13-.15,.19-.44,.17-.71Z"/><path class="cls-27" d="M97.34,59.46c-.02-.11-.12-.35-.29-.35-.16,0-.23,.1-.28,.3-.06,.24-.04,.51,.02,.74,.05,.2,.22,.54,.43,.31,.19-.21,.16-.73,.13-.99Z"/><path class="cls-14" d="M96.8,61.83c-.03-.66-.13-1.31-.3-1.95-.04-.16-.28-.09-.24,.07,.11,.45,.2,.91,.25,1.37,.04,.38,.17,1.01-.19,1.27-.13,.1,0,.32,.13,.22,.34-.25,.37-.58,.35-.98Z"/><path class="cls-14" d="M96.08,62.31c-.19,0-.37,.02-.55,.07-.16,.04-.09,.29,.07,.24,.16-.05,.32-.07,.49-.06,.16,0,.16-.25,0-.25Z"/><path class="cls-10" d="M96.63,63.65c0-.07-.03-.11-.15-.09-.81,.14-1.62,.27-2.43,.39-.27,.04,.27,.37,.34,.41,.35,.21,.79,.39,1.22,.32,.27-.04,.48-.21,.64-.4,.04-.05,.37-.45,.39-.63Z"/><path class="cls-32" d="M97.11,54.28c-.1-.33-.27-.61-.48-.85,.02-.03,.02-.07,0-.11-.27-.58-.68-1.06-1.19-1.43-.13-.1-.26,.12-.13,.22,.36,.26,.65,.58,.88,.95-1-.68-2.51-.71-3.54-.16-.14,.08-.02,.29,.13,.22,1.32-.7,3.58-.39,4.09,1.24,.05,.16,.29,.09,.24-.07Z"/><path class="cls-32" d="M90.8,53.31c-1.18,.8-1.98,2.08-1.58,3.53,0,.02,.02,.04,.03,.05-.69,.49-.58,1.4-.36,2.14,.05,.16,.29,.09,.24-.07-.19-.65-.35-1.5,.34-1.91,.09-.06,.07-.17,0-.21,0-.02,0-.04,0-.06-.37-1.34,.38-2.51,1.47-3.25,.13-.09,0-.31-.13-.22Z"/><path class="cls-32" d="M88.36,55.8c-.7-.55-.82-1.45-.29-2.17,.1-.13-.12-.26-.22-.13-.59,.8-.45,1.86,.33,2.48,.13,.1,.31-.08,.18-.18Z"/><path class="cls-14" d="M89.08,60.67c-.16-.03-.23,.22-.07,.24,.2,.03,.38,.11,.54,.22-.12-.02-.25-.02-.37,0-.16,.02-.09,.27,.07,.24,.22-.03,.43,.02,.62,.13,.02,.01,.04,.02,.06,.02,.08,.14,.15,.29,.18,.45,.03,.16,.27,.09,.24-.07-.12-.63-.63-1.13-1.27-1.24Z"/><path class="cls-14" d="M94.62,66.78c-1.46-.46-2.7-1.36-3.57-2.62-.09-.13-.31,0-.22,.13,.91,1.31,2.2,2.26,3.73,2.74,.16,.05,.22-.2,.07-.24Z"/><path class="cls-12" d="M113.18,57.6v-.03c-.22-.73-1.27-.09-1.49,.29-.24,.42-.3,.92-.39,1.39-.09,.43-.25,.84-.46,1.23-.37,.71-.97,1.25-1.79,1.31-1.19,.09-2.28-.7-3.38,.12-.79,.59-1.09,1.63-.84,2.57,.01,.04,.04,.07,.08,.07-.07,.11,.1,.2,.17,.1,1.23-1.98,3.75-1.3,5.6-2,.71-.27,1.09-.84,1.31-1.55,.15-.51,.23-1.04,.33-1.56,.07-.36,.09-.73,.21-1.07,.09-.27,.7-.57,.66-.86Z"/><path class="cls-29" d="M104.79,77.18c-.04-1.29-.21-2.58-.53-3.83-.27-1.04-.61-1.98-1.56-2.58-.89-.56-1.98-.73-3-.92-1.48-.27-2.96-.55-4.43-.82-.07-.01-.12,.03-.14,.08-.01,0-.02,.02-.03,.04-.71,1.24-1.84,2.51-3.41,2.38-1.45-.12-2.49-1.28-3.34-2.35,0-.06-.04-.12-.11-.12-.04-.02-.09,0-.13,.03-2.38,.68-4.68,1.74-6.68,3.21-.86,.63-1.58,1.37-2.09,2.32-.49,.92-.78,1.92-1.05,2.93,.08,.02,.16,.05,.24,.07l.02-.06c4.4-.03,8.8-.06,13.19-.09,2.18-.02,13.07,.14,13.07-.03v-.02c.09-.04,.09-.19,0-.23Z"/><path class="cls-21" d="M94.67,74.76c-.08-.23-.4-.39-.64-.18l-.05,.04c-.66,.1-1.31,.2-1.97,.25-.47,.04-.95,.02-1.42,.1-.1-.05-.33-.08-.46,0-.95,.58-1.59,1.4-2.33,2.22-.06,.07-.09,.14-.1,.22h4.04c.82-.84,1.28-1.18,1.64-1.27,.05,0,1.03-.82,1.08-.83,.3-.05,.33-.35,.2-.55Z"/><path class="cls-42" d="M110.48,66c0-.1-1.26-.03-2.28-.1-1.24-.09-1.64-.15-2.29-.21-1.04-.11-1.91-.3-1.91-.28l-.37,8.26c-.04,.38,.28,.73,.71,.76l3.71,.32c.43,.03,.81-.25,.85-.63l1.58-8.1Z"/><path class="cls-10" d="M107.51,71.62c-.54-.7-.91-1.44-1.29-2.21-.66-1.31-1.56-2.51-2.22-3.82l-.05,1.14c1.06,1.38,1.03,3.24,2.14,4.6,.37,.45,.85,.8,1.27,1.19,.43,.4,.81,.86,1.15,1.33,.11,.15,.21,.3,.32,.46,.04-.07,.07-.15,.07-.24l.07-.36c-.38-.75-.94-1.41-1.46-2.09Z"/><path class="cls-10" d="M104.61,72.48c.28,.5,.74,.82,1.17,1.21,.31,.28,.57,.6,.82,.92l.98,.08c-.06-.08-.11-.16-.17-.24-.66-.91-1.6-1.55-2.32-2.4-.65-.78-.95-1.72-1.26-2.64l-.04,.81c.35,.72,.41,1.53,.81,2.25Z"/><path class="cls-10" d="M105.59,73.86c-.37-.34-.78-.63-1.07-1.03-.43-.6-.53-1.33-.75-2l-.13,2.84c-.04,.38,.28,.73,.71,.76l1.91,.16c-.21-.26-.42-.5-.67-.73Z"/><path class="cls-10" d="M95.95,68.99c0-.19-.12-.35-.28-.43-.1-.05-.2-.09-.3-.15-.12-.06-.36-.17-.56-.25-.19-.08-.41,.02-.47,.21-.09,.28-.2,.64-.24,.77-.21,.8-.85,1.51-1.38,2.13-1.06-.67-2.01-1.47-2.86-2.39-.21-.24-.42-.5-.61-.76,0,0-.01-.01-.02-.02-.02-.07-.1-.12-.18-.07-.52,.37-1.1,.72-1.6,1.12-.14,.11-.17,.3-.08,.46,.21,.36,.39,.76,.62,1.1,.43,.62,.95,1.18,1.52,1.67,.2,.17,1.4,1.28,1.66,1.14,.21-.11,1.71-1.79,1.6-1.91,.14,.15,1.72,1.76,1.78,1.69,1.07-1.22,1.47-2.72,1.39-4.33Z"/><path class="cls-21" d="M103.86,71.4c-1.19,0-2.39,.09-3.57,.29-.65,.11-1.28,.27-1.91,.45-.43,.13-.8,.4-1.25,.5-.57,.13-.13-.4,.05-.56,.4-.36,2.19-1.62,3.13-2.08,.32-.16,.57-.42,.71-.75h0c.1-.25-.18-.49-.42-.36-1.4,.74-2.8,1.53-4.16,2.37,.14-.14,.3-.31,.44-.5,.26-.36,.02-.85-.36-.59-1.15,.77-2.19,1.68-3.27,2.54-1.12,.89-2.33,1.64-3.46,2.51-.21,.16-.09,.52,.16,.57,.8,.17,1.62,.07,2.41,.21,.05,.09,.15,.15,.29,.14h.27c.06,0,.11,0,.16-.03,.87-.05,1.73-.1,2.55-.44,.8-.34,1.63-.56,2.41-.92,.64-.15,1.29-.26,1.94-.35,.76-.1,1.65-.08,2.15-.65,.04,0,.08-.02,.12-.03,.34-.08,.72-.19,1.01-.39,.16-.11,.33-.26,.41-.45,.08-.2-.02-.46,.1-.63,.12-.18,.36-.14,.41-.42,.04-.22-.09-.43-.33-.43Z"/><path class="cls-14" d="M103.14,72.03c-1.9,.02-3.77,.35-5.57,.97-.15,.05-.09,.3,.07,.24,1.78-.62,3.62-.94,5.51-.96,.16,0,.16-.26,0-.25Z"/><path class="cls-14" d="M101.9,73.06c-1.14,.13-2.27,.32-3.39,.57-.16,.03-.09,.28,.07,.24,1.1-.24,2.21-.43,3.32-.56,.16-.02,.16-.27,0-.25Z"/><path class="cls-42" d="M110.01,66.7c-.46-.29-1.13,.25-.66,.53,.94,.58,1.75,1.37,1.72,2.37-.03,1.04-1.12,1.83-2.19,2.33-.52,.24-.05,.87,.47,.62,1.3-.6,2.51-1.57,2.64-2.8,.13-1.25-.8-2.33-1.99-3.06Z"/><path class="cls-21" d="M115.52,77.65c-.49-1.93-.84-4.08-.91-6.05-.01-.33-.26-.22-.48-.11-.13-.02-.27,.03-.37,.17-.27,.41-.51,.83-.74,1.26-.13,.04-.28,.35-.27,.53,.09,1.47,.29,2.76,.51,4.19h2.26Z"/><path class="cls-21" d="M113.67,68.15s-2.09-.26-3.3-.44c-.22-.03-.5,.4-.4,.6-.38-.09-.74,.49-.35,.68h.02c-.15,.26-.06,.49,.18,.69,.1,.08,.13,.21,.1,.33-.18,.61,.26,.61,1.01,.95,.45,.2,.93,.34,1.41,.45,.23,.05,.39,.26,.38,.49-.02,.37-.02,.75,0,1.12,.04,.65,.07,1.34,.66,1.72,.26,.17,.51-.04,.55-.28,.07-.04,.72-2.06,.71-2.17-.07-.61,0-1.55,.17-2.85,.11-.79-.11-1.06-1.14-1.3Z"/><path class="cls-14" d="M113.78,69.05c-.84-.27-1.7-.48-2.57-.64-.16-.03-.23,.21-.07,.24,.87,.16,1.72,.38,2.57,.64,.16,.05,.22-.2,.07-.24Z"/><path class="cls-14" d="M113.22,69.79c-.77-.3-1.55-.55-2.34-.75-.16-.04-.23,.2-.07,.24,.8,.2,1.58,.45,2.34,.75,.15,.06,.22-.19,.07-.24Z"/><path class="cls-14" d="M113.39,70.5l-2.09-.69c-.16-.05-.22,.19-.07,.24,.7,.23,1.39,.46,2.09,.69,.16,.05,.22-.19,.07-.24Z"/><path class="cls-32" d="M104,65.4s.26-.22,1.68-.13c1.42,.09,2.96,.17,3.76,.32,.81,.15,1.17,.29,1.03,.41-.15,.12-2.21,.4-4.87-.05-1.02-.17-1.61-.54-1.61-.54Z"/></g><rect class="cls-9" x="121.94" y="55.23" width="1.06" height="8.08" rx=".53" ry=".53" transform="translate(12 -20.15) rotate(9.89)"/><rect class="cls-9" x="119.88" y="55.37" width="1.06" height="8.08" rx=".53" ry=".53" transform="translate(40.38 -48.4) rotate(27.15)"/></g><path class="cls-4" d="M112.64,102.57c-.12-.12-.32-.21-.49-.2-.18,0-.36,.07-.49,.2-.12,.14-.2,.3-.2,.49v.08c0,.18,.08,.36,.2,.49,.12,.12,.32,.21,.49,.2,.18,0,.36-.07,.49-.2,.12-.14,.2-.3,.2-.49v-.08c0-.18-.08-.36-.2-.49Z"/><path class="cls-4" d="M79.31,102.57c-.12-.12-.32-.21-.49-.2-.18,0-.36,.07-.49,.2-.12,.14-.2,.3-.2,.49v.08c0,.18,.08,.36,.2,.49,.12,.12,.32,.21,.49,.2,.18,0,.36-.07,.49-.2,.12-.14,.2-.3,.2-.49v-.08c0-.18-.08-.36-.2-.49Z"/></g><path class="cls-28" d="M73.23,106.11h0c-.07,0-.12-.07-.12-.14l4.11-56.83c0-.07,.07-.12,.14-.12,.07,0,.12,.07,.12,.14l-4.11,56.83c0,.07-.06,.12-.13,.12Z"/><path class="cls-28" d="M120.16,106.12h0c-.07,0-.12-.07-.12-.14l4.11-56.83c0-.07,.07-.12,.14-.12,.07,0,.12,.07,.12,.14l-4.11,56.83c0,.07-.06,.12-.13,.12Z"/><path class="cls-28" d="M122.27,77.7H28.17c-.07,0-.13-.06-.13-.13s.06-.13,.13-.13H122.27c.07,0,.13,.06,.13,.13s-.06,.13-.13,.13Z"/><path class="cls-28" d="M120.15,106.12H26.05c-.07,0-.13-.06-.13-.13s.06-.13,.13-.13H120.15c.07,0,.13,.06,.13,.13s-.06,.13-.13,.13Z"/></g><g><g><path class="cls-8" d="M65.7,100.03c-.45-1.45-2.24-1.66-3.52-1.75-1.62-.1-3.26,.11-4.82,.58-1.61,.48-3.14,1.23-4.52,2.18-1.37,.95-2.52,2.13-3.69,3.32-.62,.63-1.24,1.25-1.94,1.78-.67,.51-1.48,1.09-2.35,1.12-.93,.04-1.26-.8-1.88-1.31-.53-.43-1.17-.68-1.85-.76-3.52-.39-4.78,3.93-4.45,6.69,.45,3.72,3.39,7.12,6.58,8.96,0,0,.05-.59,.05-.62,0-.05-.16-.08-.27-.19-1.01-.96-1.39-2.41-2.09-3.61-.6-1.04-1.24-2.07-.61-3.25,.54-1.01,1.59-1.6,2.71-1.68,1.21-.08,2.46,.11,3.55-.55,.94-.57,1.56-1.51,2.2-2.38,.76-1.02,1.58-1.99,2.51-2.86,1.77-1.67,3.93-2.81,6.23-3.58,2.58-.86,5.27-1.3,7.94-1.73,.16-.03,.26-.24,.22-.38Z"/><path class="cls-20" d="M53.46,121.26l.08,.34c.1-.99,.13-.37-3.47-.51-1.33-.05-4.84-.07-5.86-.1-6.68-.22-7.57-.59-8.33-.78l-2.08,19.92c-.05,.46,.29,.82,.74,.82l16,.48c.46,0,.86-.37,.91-.82l.21-1.48c1.59-.52,3.12-1.21,4.44-2.32,1.85-1.57,3.02-3.84,3.38-6.11,.7-4.35-2.06-8.23-6.02-9.43Zm3.61,9.43c-.28,1.73-1.25,3.42-2.67,4.55-.75,.6-1.6,1.02-2.48,1.36l1.29-12.79c2.64,1.14,4.37,3.76,3.87,6.88Z"/><path class="cls-28" d="M53.2,123.82s1.02,.53,1.33,.76c.86-.41,1.75-.76,2.66-1.05-1.01-1.04,.15,.1-1.29-.34l-1.5-.32c.1-.99-.62-1.46-1.44-2.04,0,0-.35,.15-1.68,.26-.06,0-1.81,0-1.81,0,.55,.92,2.22,1.9,3.73,2.71Z"/><path class="cls-28" d="M56.88,127.79c.81,1.34,1.44,2.78,2.24,4.13l.06,.1c.13-.44,.23-.88,.3-1.32,.7-4.35-2.07-8.42-6.04-9.62l.02,.1c-.08,.67-.11,1.34-.18,2.02-.05,.42-.08,.62-.08,.62,1.76,.76,3.12,2.18,3.68,3.97Z"/><path class="cls-32" d="M51.92,136.93l-.09,1.13c-.01,.18,.27,.18,.28,0l.09-1.13c.01-.18-.27-.18-.28,0Z"/><path class="cls-32" d="M58.29,132.14c-.35,2.11-2,3.5-3.58,4.77-.14,.11,.06,.31,.2,.2,1.62-1.3,3.3-2.73,3.65-4.89,.03-.18-.24-.26-.27-.08Z"/><path class="cls-32" d="M44.43,122.83c-2.37-.05-4.35-.15-6.72-.47-.18-.02-.2,.26-.02,.28,2.3,.33,4.26,.48,6.72,.47,.18,0,.2-.28,.02-.28Z"/><path class="cls-32" d="M35.96,120.39c-.13-.11-.08-.32,.08-.37,.29-.08,.99-.16,2.22-.16,2.58,0,7.9,.06,10.26,.35,2.36,.29,3.97,.37,4.6,.63,.63,.25,.82,.61-1.22,.9-3.77,.53-11.63-.22-14.05-.6-.72-.11-1.67-.55-1.89-.74Z"/></g><g><path class="cls-28" d="M79.46,204.89c-.25,0-.5-.03-.75-.1-1.51-.41-2.4-1.97-1.99-3.49l11.68-42.68c1.83-6.67,7.92-11.19,14.84-11.01l50.31,1.43c1.57,.04,2.8,1.35,2.76,2.92-.04,1.54-1.3,2.76-2.83,2.76-.03,0-.05,0-.08,0l-50.31-1.43c-4.29-.12-8.08,2.7-9.21,6.84l-11.68,42.68c-.34,1.26-1.49,2.09-2.73,2.09Z"/><path class="cls-33" d="M124.96,266.31c-.19,.04-.39,.06-.59,.06-1.57,0-2.83-1.28-2.83-2.85l.37-88.87c0-1.57,1.28-2.83,2.85-2.83,1.57,0,2.83,1.28,2.83,2.85l-.37,88.87c0,1.36-.97,2.5-2.26,2.77Z"/><path class="cls-42" d="M229.32,57.06l-64.76-2.24c-4.38-1.45-9.34,1.01-11.09,5.49l-52.92,135.47-28.55-.07c-1.27,0-2.37,1.03-2.46,2.3l-.47,6.94c-.09,1.27,.88,2.3,2.15,2.3,13.06,0,33.29,.07,46.35,.07h30.52c6.37,0,12.74,.61,19.12,.39,5.35-.18,11.07-.61,13.35-6.3l53.52-133.63c1.75-4.48-.38-9.28-4.76-10.73Z"/><g><path class="cls-31" d="M164.29,84.62c.11-1.27,.4-2.54,.97-3.68,.29-.59,.66-1.15,1.1-1.64,.22-.24,.45-.46,.7-.66,.12-.09,.24-.18,.37-.26,.21-.11,4.18,3.99,4.54,4.13-1.82,.94-4.46,3.31-2.1,10.59,.43,1.32,1.8,.13,1.89,1.51,.08,1.27-1.71-1.39-1.78-.12,0,.13-.02,.27-.05,.4l-.1,.28-.94,.09c-.23-.07-.49-.32-.67-.45-.43-.33-.83-.69-1.19-1.09-.71-.78-1.27-1.69-1.69-2.65-.89-2-1.22-4.26-1.04-6.44Z"/><path class="cls-31" d="M196.63,144.95c-.37-2.17-1.19-4.25-2.23-6.18-2.17-4.03-5.26-7.51-8.26-10.93-1.49-1.7-3.15-3.65-5.21-4.69-.72-.37-1.52-.39-2.08,.26-.2,.23-.33,.49-.4,.76l-.67,.84c-2.38,1.19-4.53,2.87-6.25,4.89-2.01,2.37-3.28,5.18-4.43,8.04-1.27,3.15-2.53,6.31-3.95,9.4-2.8,6.07-6.22,11.7-10.76,16.63-2.3,2.49-4.72,4.87-6.81,7.54-2.02,2.58-3.71,5.39-5.42,8.18-1.98,3.22-4.04,6.36-6.57,9.17-2.22,2.45-4.7,4.65-7.39,6.56-.25,.18-.57,.23-.86,.16-.53-.14-1.07-.3-1.59-.49-.17-.06-.25,.21-.08,.27,.6,.22,1.21,.39,1.83,.54-.05,.03-.09,.06-.14,.09-.15,.1,0,.35,.14,.24,.23-.16,.51-.22,.78-.17,4.32,.76,8.73,.08,13-.57,2.8-.43,5.66-.38,8.44-.96,3.68-.77,4.13-2.1,5.98-5.1,1.34-2.16,2.49-4.39,3.46-6.74,2.05-4.96,3.31-10.17,5.61-15.04,4.14-8.78,9.99-16.42,13.44-25.56,.91-2.41,2.05-5.06,5.08-4.34,2.55,.61,4.4,2.79,6.17,4.56,2.32,2.33,4.41,5.41,7,7.41,.59,.45,.59-.26,1.39-.37,.69-.1,.94-.7,.99-1.32,.1-1.03-.02-2.1-.19-3.12Z"/></g><path class="cls-33" d="M169.99,199.5H84.57c-.08,0-.14-.06-.14-.14s.06-.14,.14-.14h85.42c2.16,0,4.07-1.3,4.87-3.32L227.66,61.33c.03-.07,.11-.11,.18-.08,.07,.03,.11,.11,.08,.18l-52.8,134.57c-.83,2.12-2.85,3.5-5.13,3.5Z"/><path class="cls-21" d="M125.13,130.62c-.02-.18-.12-.35-.26-.48-.03-.25,.04-.65,.02-.78-.04-.37-.15-.72-.32-1.06-.36-.71-.96-1.29-1.6-1.78-1.58-1.22-3.3-2.28-4.95-3.4-.65-.44-1.28,.32-1.06,.91h-.01c-4.62,4.26-9.34,8.42-14.16,12.47-.4-.6-1.57-.2-1.37,.63,.39,1.63,1.71,2.76,3.11,3.63,1.32,.81,2.85,1.46,3.78,2.7-.06,.46,.32,1,.94,.85,3.15-.79,5.39-3.3,7.61-5.43l7.63-7.31c.42-.08,.77-.53,.62-.94Z"/><path class="cls-6" d="M139.33,163.53c-1.03-1.21-2.89-1.74-4.32-2.31-3.76-1.5-7.65-2.61-11.63-3.36-.27-.05-.48,.1-.57,.3-.1-.07-.24-.1-.39-.07-1.29,.32-2.59,.74-3.71,1.48-1.21,.81-4.19,3.53-4.84,3.7-1.17,.3-9.41,1.04-12.29,1.35-8.28,.9-16.55,1.85-24.8,2.96-5.09,.68-10.19,1.36-15.25,2.27-4.79,.86-9.48,1.71-13.61,4.45-7.67,5.1-6.28,14.91-3.98,22.68,.46,1.56,6.64,26.83,6.64,26.83-.03,0-.72,.97-.08,.99,.21,0,.42,.01,.63,.02,.13,.05,.27,.05,.4,.01,3.55,.11,7.1,.21,10.65,.32,1.9,.06,3.8,.15,5.65,.6,1.79,.44,3.49,1.16,5.18,1.88,.03,.07,.07,.14,.1,.21,.28,.58,1.13,.07,.86-.5-2.37-4.91-3.08-10.37-2.91-15.77,.08-2.52-.13-4.1-1.44-6.29-1.13-1.88-2.54-3.7-2.52-6.01,0-.81,.17-1.64,.62-2.31,1.49-2.22,7.33-2.22,9.73-2.55,3.81-.52,7.65-.86,11.46-1.45,7.25-1.12,14.2-3.58,21.4-4.96,3.56-.68,7.15-1.22,10.7-1.92,1.79-.35,3.58-.75,5.35-1.23,1.53-.42,3.15-.82,4.57-1.56,1.29-.67,2.13-1.71,2.45-3.13,.36-1.56,.44-3.14,.91-4.68,.48-1.56,1.16-3.05,2.03-4.44,.82-1.31,1.92-2.38,2.82-3.63,.86-1.18,1.24-2.68,.21-3.89Z"/><path class="cls-5" d="M139.33,163.53c-1.03-1.21-2.89-1.74-4.32-2.31-3.76-1.5-7.65-2.61-11.63-3.36-.27-.05-.48,.1-.57,.3-.1-.07-.24-.1-.39-.07-1.29,.32-2.59,.74-3.71,1.48-1.21,.81-4.19,3.53-4.84,3.7-1.17,.3-9.41,1.04-12.29,1.35-8.28,.9-16.55,1.85-24.8,2.96-5.09,.68-10.19,1.36-15.25,2.27-4.79,.86-9.48,1.71-13.61,4.45-7.67,5.1-6.28,14.91-3.98,22.68,.46,1.56,6.64,26.83,6.64,26.83-.03,0-.72,.97-.08,.99,.21,0,.42,.01,.63,.02,.13,.05,.27,.05,.4,.01,3.55,.11,7.1,.21,10.65,.32,1.9,.06,3.8,.15,5.65,.6,1.79,.44,3.49,1.16,5.18,1.88,.03,.07,.07,.14,.1,.21,.28,.58,1.13,.07,.86-.5-2.37-4.91-3.08-10.37-2.91-15.77,.08-2.52-.13-4.1-1.44-6.29-1.13-1.88-2.54-3.7-2.52-6.01,0-.81,.17-1.64,.62-2.31,1.49-2.22,7.33-2.22,9.73-2.55,3.81-.52,7.65-.86,11.46-1.45,7.25-1.12,14.2-3.58,21.4-4.96,3.56-.68,7.15-1.22,10.7-1.92,1.79-.35,3.58-.75,5.35-1.23,1.53-.42,3.15-.82,4.57-1.56,1.29-.67,2.13-1.71,2.45-3.13,.36-1.56,.44-3.14,.91-4.68,.48-1.56,1.16-3.05,2.03-4.44,.82-1.31,1.92-2.38,2.82-3.63,.86-1.18,1.24-2.68,.21-3.89Z"/><path class="cls-14" d="M124.11,131.84c-1.38-1.39-2.66-2.87-4.11-4.19-1.12-1.02-2.56-2.8-4.22-2.82-.12,0-.16,.12-.12,.2-.04,.04-.05,.1-.01,.16,.48,.67,5.91,6.62,7.31,7.63,.06,.04,.13,.01,.17-.02l.98-.76c.06-.05,.05-.15,0-.2Z"/><path class="cls-32" d="M139.91,172.07c.57-.54,1.12-1.1,1.64-1.69,.11-.12,.18-.25,.23-.38-.6,.71-1.22,1.4-1.87,2.07Z"/><path class="cls-26" d="M149.28,58.15c.43-1.87,1.06-3.51,2.26-5.06,.46-.59,.1-1.52-.51-1.86-.72-.41-1.49-.1-1.94,.49-.07,.09-.13,.17-.19,.26-.67-.27-.41-1.44-.83-.89-3.22,4.22-6.92,10.33-8.86,15.23-.93,2.36-1.68,5.61,.18,7.74,.81,.93,2.05,1.53,3.16,2.05,1.26,.6,2.57,1.1,3.91,1.49,.63,.18,2.54,.84,2.84,.46,1.61,1.12-1.01-.85-.83-.9,.8-.21,1.13-.95,.99-1.68-.37-2-.75-3.99-1.12-5.99-.36-1.9-.7-3.69-.35-5.62,.35-1.91,.85-3.81,1.28-5.71Z"/><path class="cls-5" d="M154.09,165.36c-2.7-1.63-5.7-2.73-8.82-3.2-.6-.09-1.2,.13-1.43,.7-10.69,1.58-10.93,5.22-21.38,7.97-11.3,1.12-32.45,2.1-43.62,4.12-4.91,.89-8.26,1.7-12.91,3.73-9.28,4.06-25.5,25.67-29.19,30.16-4.42,5.38-7.8,10.51-12.06,16.03,.11,.21-.4-.85-.21-.74,.07,.04,.13,.07,.2,.09,.22,.47,.7,.78,1.34,.58,2.59-.83,5.31-.24,7.95-.02,2.84,.24,5.59-.26,8.4-.56,5.09-.54,10.14,.63,15.22,.57,.46-.78,.94-1.55,1.45-2.29,.64-1.6,1.37-3.15,2.3-4.6,1.31-2.05,3.24-3.62,4.55-5.67,1.47-2.29,1.79-5.11,3.9-6.99,1.95-1.73,6.23-5.37,8.73-6.03,1.63-.43,51.6-2.13,55.61-3.17,3.11-.81,5.26-2.79,7.53-5.06,7.59-7.59,13.01-21.19,12.42-23.55,.66-.44,.91-1.54,.02-2.08Z"/><path class="cls-30" d="M138.67,94.7c-.13-.05-1.03-.65-1.51-.43-4.73,1.84-6.81,6.82-9.85,10.55-1.82,2.23-3.79,4.35-5.69,6.5-1.94,2.19-5.45,5.29-7.39,7.48-.05,.06-.06,.12-.05,.18,0,.08,.05,.16,.14,.2,1.34,.51,10.71,7.67,12.7,11.43,.1,.19,.35,.1,.39-.07,.8,.02,1.29-.73,1.58-1.4,.52-1.19,.92-2.44,1.37-3.66,.99-2.67,1.97-5.35,2.91-8.04,1.86-5.33,3.54-10.73,4.82-16.23,.33-1.45,.79-2.97,.88-4.45,.07-1.03,.71-1.64-.29-2.05Z"/><path class="cls-40" d="M124.6,124.88c-.39,.77,.95-.2,.52,.55l-.65,1.45s-.08,.04-.11,.09c-.19,.29-.26,.63-.23,.97-.1-.05-.21-.1-.32-.15-.26-.1-.37,.31-.11,.41,.69,.26,1.49,1.08,2.25,.52,.71-.52,1.01-1.02,1.09-1.82,.21-2.13,1.2-5.33,2.09-7.45-.24,.37-.49,.73-.76,1.09-.64,.89-2.03,3.64-3.77,4.33Z"/><path class="cls-40" d="M128.52,129.05c-2.52-4.28-5.96-7.98-9.97-10.9-.71-.51-1.93-1.7-2.79-1.52-.55,.12-4.23,3.36-4.55,4.56-.33,1.24,6.3,4.41,13.54,11.93,.43,.44,3.92-2.98,3.88-3.69,0-.12-.04-.25-.12-.38Z"/><path class="cls-5" d="M156.93,160.03c-.12-.03-.24-.05-.35-.04-10.56-2.24-21.04-4.86-31.42-7.86-.34-.1-.64-.05-.87,.08-.52,.01-.94,.39-1.13,.89-.89,2.3-1.79,4.6-2.68,6.9-.24,.61,31.58,10.78,32.68,10.02,2.14-1.49,3.52-5.7,4.61-8.49,.24-.61-.26-1.32-.84-1.48Z"/><path class="cls-18" d="M143.35,168.05c.15-.35,.29-.7,.43-1.05,.42-1.11,.81-2.24,1.24-3.35,.6-1.56,1.33-3.06,2.02-4.58-.71-.22-1.53-.44-2.11-.05-.13,.09-.04,.28,.08,.27-1.37,2.62-2.44,5.38-3.2,8.23,.51,.19,1.02,.37,1.54,.53Z"/><path class="cls-18" d="M127.17,154.72c-.48-.17-.97-.33-1.45-.49-.79,1.68-1.54,3.38-2.23,5.11-.21,.52-.42,1.03-.64,1.55,.51,.24,1.01,.46,1.54,.71,.35-.98,.66-1.79,1.08-2.75,.58-1.35,1.15-2.75,1.84-4.08-.05-.02-.1-.04-.15-.05Z"/><path class="cls-26" d="M181.44,77.7c-.37-1.55-1.21-3.44-2.77-2.75-.39-.68,.65-1.65,.57-1.85-1.26-2.88-5.23-3.18-7.74-1.63-1.38,.85-2.79,1.78-4.07,2.77-1.38,1.06-1.53,2.54-1.26,4.13,.45,2.61,1.59,5.24,4.11,6.4,1.6,.73,4.05,.63,5.74,.31,1.46-.27,3.12-.65,4.23-1.68,1.47-1.37,1.59-4.05,1.19-5.7Z"/><path class="cls-21" d="M174.23,96.57c-.17-.24-.43-.44-.67-.61,.04,.03,.29-.2,.32-.24-.59-.83-1.92-1.46-2.8-1.97-1.13-.65-2.3-1.21-3.51-1.69-2.29-.9-4.75-1.55-7.22-1.55-3.19,0-14.4,1.67-15.04,3.66-.67,2.06,1.78,4.16,3.3,5.08,1.77,1.07,3.81,1.84,5.77,2.48,2.21,.71,4.52,1.07,6.83,.73,2.01-.3,4.02-1.01,5.91-1.74,1.41-.54,2.8-1.2,3.99-2.14,1-.78,1.77-2.17,3.26-1.72-.03-.11-.09-.21-.15-.3Z"/><path class="cls-30" d="M186.14,100.39c-.39-2.9-2.58-5.94-5.45-6.38-1.86-.28-3.7-.59-5.55-.87-3.21-.48-6.43-.86-9.66-1.14-.27-.02-2.2,2.26-2.55,2.56-.93,.76-1.94,1.55-2.96,2.18-2.39,1.46-5.14,1.83-7.33,3.68-.26,.22-.52,.45-.83,.57-2.1,.75-1.5-4.01-1.36-4.98,.24-1.65,1.08-3.22,2-4.61-.81,0-1.62,0-2.42,0-.2,0-9.99,.91-14.08,3.6-.81,.48-1.49,1.19-1.99,2.06-.97,1.69-1.13,3.72-1.27,5.63-.25,3.46-.33,6.94-.87,10.35-.24,1.5-1.32,3.58-1.91,5.1-.77,1.99-1.72,3.92-2.24,5.98-1.03,4.04-1.32,8.15-1.75,12.28-.49,4.69-3.95,11.24-5.38,15.13-.67,1.83,.06,2.35,1.81,3.4,.44,.26,1.12,.33,1.6,.47,1.27,.35,2.54,.69,3.81,1.03,3.4,.92,6.8,1.83,10.19,2.77,3.6,1,7.29,2.14,11,2.87,3.3,.66,7.89,1.85,10.73-.57,.85-.73,1.63-1.53,2.38-2.36,2.16-2.41,4.06-5.06,5.83-7.77,5-7.68,8.93-16.11,11.68-24.85,.66-2.09,1.24-4.2,1.75-6.33,1.51-6.34,5.76-13.15,4.86-19.83Z"/><path class="cls-40" d="M150.77,92.81c-4.55-.04-8.53,.28-13,1.18-.18,.04-.67,.42-.49,.38,4.44-.9,8.96-1.32,13.49-1.28,.18,0,.18-.28,0-.28Z"/><path class="cls-36" d="M148.22,60.91h-.02c-.21,.12-.44,.66-.56,.86-1.07,1.76-2.99,7.73,.51,10.76,2.7,2.33,1.55,1.78,1.56,1.66,.03-.43,.03-.87,0-1.3-.05-.97-.21-1.93-.4-2.87-.34-1.63-.8-3.24-1.32-4.83-.06-.18-.3-.62-.26-.81,.26-1.13,.51-2.26,.77-3.4,.07-.29-.19-.13-.29-.07Z"/><path class="cls-40" d="M151.45,100.46c.44-3.9,2.41-9.36,2.85-10.76,.08-.26-1.82,.67-2.04,.83-1.78,1.22-7,8.47-8.8,12.48-.08,.18,0,.39,.21,.37,1.01-.07,7.67-1.93,7.79-2.92Z"/><path class="cls-21" d="M167.28,91.58c-1.04-7.02-.94-14.2,.32-21.18,.13-.74-.19-1.49-.94-1.73-.43-.24-.99-.29-1.39,0-2.17,1.65-4.33,3.3-6.5,4.95-1.05,.8-2.09,1.59-3.14,2.39-1.01,.77-2.03,1.51-2.82,2.51-.24,.3-.39,.66-.4,1.02-.16,.31-.2,.68-.14,1.05,1.03,5.68,1.48,11.14,1,14.58-.4,2.84,2.44,3.24,6.4,2.73,2.55-2.09,4.93-4.39,7.59-6.33Z"/><path class="cls-21" d="M176.05,51.32c-1-2.24-2.87-4.07-4.98-5.28-1.48-.85-3.1-1.46-4.78-1.8-2.26-.45-4.12-.69-6.2,.46-4.57,2.52-8.42,5.75-10.7,10.55-1.84,3.88-2.36,8.31-2.41,12.56-.06,4.17-.03,9.66,1.75,13.56,2.24,4.91,6.94,2.75,11.49,1.11,5.12-1.85,4.68-2.88,7.01-5.54,.44-.5,1.74-3.43,1.58-3.91,.51-2.57,3.33-3.78,4.17-6.27,.88-2.61,2.06-5.06,3.1-7.6,1.06-2.58,1.12-5.28-.03-7.84Z"/><path class="cls-35" d="M162.3,63.54c-.79,.04-1.28,1.76-1.41,2.42-.09,.46-.1,1.83,.66,1.54,.93-.35,1.37-2.15,1.41-3.09,.02-.42-.2-.9-.66-.88Z"/><path class="cls-35" d="M152.34,61.45c-.79,.04-1.28,1.76-1.41,2.42-.09,.46-.1,1.83,.66,1.54,.93-.35,1.37-2.15,1.41-3.09,.02-.42-.2-.9-.66-.88Z"/><path class="cls-14" d="M153.94,69.16c.15-.49,.31-.98,.48-1.47,.35-1.02,.74-2.02,1.16-3.02,.08-.18-.21-.26-.29-.08-.68,1.59-1.28,3.23-1.76,4.89-.32,1.13,.1,1.67,1.25,1.74,.19,.01,.19-.29,0-.3-.54-.03-1.12-.07-1.07-.99,.01-.23,.16-.55,.22-.78Z"/><path class="cls-14" d="M156.92,70.46l-1.42-.08c-.19-.01-.19,.29,0,.3l1.42,.08c.19,.01,.19-.29,0-.3Z"/><path class="cls-21" d="M172.1,65.69c-.86-.22-1.91,.11-2.6,.77-1.37,1.3-4.27,6.65-1.02,7.52,.45,.12,.89,.08,1.3-.07,1.36-.36,2.53-2.09,3.06-3.23,.5-1.08,1.02-2.63,.57-3.8-.26-.67-.74-1.05-1.31-1.19Z"/><path class="cls-26" d="M166.96,62.08c-.53-.94-1.42-1.73-2.39-2.2-.87-.42-2.34-.78-3.1,.04-.24,.26-.32,.61-.21,.91,.03,.57,.79,.77,1.33,.92,.44,.13,.89,.23,1.33,.31,.34,.08,.67,.15,1.01,.21,.56,.1,1.19,.27,1.76,.15,.16,.08,.39-.14,.28-.35Z"/><path class="cls-26" d="M156.15,58.45c-.01-.53-.59-.9-1.04-1.1-1.13-.49-2.68-.4-3.78,.13-.32,.15-1.19,.75-.63,1.11,.42,.27,5.14,1.37,5.43,.06,.02-.07,.03-.14,.02-.21Z"/><path class="cls-26" d="M181.8,54.78c-.82-2.77-2.22-5.34-4.69-7.02-7.8-5.31-20.12-5.46-27.17,1.23-.68,.64-1.3,1.35-1.87,2.08-1.5,1.94-2.62,4.09-3.72,6.25-1.06,2.07-2.16,4.07-2.88,6.3-.02,.06-.03,.12-.02,.17-.34,.28,.06,.89,.52,.66,.83-.41,1.8-.87,2.64-.25,.06,.05,.12,.07,.18,.08,.17,.11,.4,.14,.54-.04,.28-.34,1.49-.59,2.36-2.5,1.22-2.66,2.56-4.47,4.67-6.56,1.27-1.26,3.1-2.89,4.67-3.77,.47-.26,3.3-2.15,3.6-1.07,.12,.44-.15,.93-.24,1.36-.11,.54-.17,1.09-.19,1.64-.06,1.69,1.17,2.92,2,4.43,.65,1.19,2.96,2.95,3.69,4.11,1.87,3.02,2.43,12.04,2.7,13.21,.16,.68,.34,1.37,.7,1.97,1.41,2.31,5.21,1.86,7.44,1.23,1.17-.33,2.01-.76,2.48-1.9,.44-1.05-1.62,1.33-.9,.47,1.89-2.25,1.81-7.09,2.42-8.7,.55-1.46,1.13-2.89,1.45-4.43,.61-2.96,.49-6.07-.37-8.97Z"/><path class="cls-39" d="M177.59,77.18c-1.46-.29-2.54-1.7-3.24-2.93-.69-1.2-1.14-2.51-1.54-3.83-.06-.18-.34-.11-.29,.08,.45,1.49,.97,2.98,1.81,4.3,.61,.97,1.45,1.99,2.53,2.46-1.36,.7-3.17,1.31-4.67,.81-1.56-.53-2.41-2.08-3.15-3.44-.09-.17-.35-.02-.26,.15,.78,1.43,1.69,3.03,3.33,3.57,1.64,.55,3.59-.14,5.05-.91,.03-.01,.04-.03,.05-.05,.09,.03,.19,.05,.29,.07,.19,.04,.27-.25,.08-.29Z"/><path class="cls-39" d="M179.12,76.12c-1.3-.6-1.81-2.36-2.09-3.65-.04-.19-.33-.11-.29,.08,.29,1.36,.85,3.2,2.22,3.83,.17,.08,.33-.18,.15-.26Z"/><path class="cls-39" d="M160.31,47.5c-4.02,.15-7.07,3-9.56,5.88-2.66,3.07-4.88,6.51-6.62,10.18-.08,.17,.18,.33,.26,.15,1.65-3.49,3.73-6.77,6.23-9.72,2.5-2.95,5.58-6.04,9.69-6.19,.19,0,.19-.31,0-.3Z"/><path class="cls-39" d="M170.08,59.9c-.12-1.79-.09-3.59-.29-5.38-.27-2.39-1.36-6.41-4.45-6.28-.19,0-.19,.31,0,.3,1.8-.07,2.93,1.62,3.5,3.11,.57,1.48,.71,3.08,.78,4.65,.15,3.25,.34,6.45,.93,9.66,.03,.19,.32,.11,.29-.08-.36-1.98-.62-3.97-.76-5.98Z"/><path class="cls-21" d="M202.39,143.91c-.22-2.48-.94-4.82-1.67-7.12-.75-2.38-1.54-4.73-2.35-7.08-.88-2.54-1.79-5.07-2.7-7.6,.22-.68-.31-1.58-.9-1.06-1.85,1.62-3.76,3.11-5.75,4.46-1.61,1.09-3.72,1.97-4.62,4.11-.01,.03-.02,.06-.04,.1-.22,.23-.35,.61-.19,1.02,1.62,4.35,3.44,8.66,5.71,12.55,1.62,2.78,5.3,9.46,9.36,8.34,3.02-.83,3.37-5.16,3.15-7.71Z"/><path class="cls-14" d="M191.33,130.12c-1.21,.74-2.19,1.98-3.47,2.59-.94,.45-1.88,.26-2.49,1.14-.1,.15,.42,1.02,.42,1.02,0,0-.13-.22-.13-.23,.72-.24,5.11-1.69,5.52-2.12,.39-.41,.47-1.15,.63-1.67,.04-.12-.38-.79-.49-.73Z"/><path class="cls-39" d="M174.35,50.36c-.11-.16-.37,0-.26,.15,1.53,2.3,2.28,4.98,2.14,7.74,0,.19,.29,.19,.3,0,.14-2.8-.63-5.55-2.18-7.89Z"/><path class="cls-32" d="M159.52,82.66l-1.71,.74,1.71-.74Z"/><path class="cls-40" d="M133.01,103.02c-.24,0-.49,.55-.55,.74-.21,.65-.24,1.37-.33,2.04-.19,1.39-.27,2.78-.27,4.18,0,.05,.02,.08,.04,.1-.25,1.74-.48,3.5-1.1,5.15-1.39,3.7-3.06,7.29-3.98,11.15-.04,.18,.23,.25,.27,.08,.91-3.86,2.58-7.45,3.98-11.15,.71-1.88,.9-3.9,1.21-5.87,.17-1.11,.34-2.22,.52-3.33,.1-.62,.31-1.22,.41-1.84,.04-.27,.14-.81,.02-1.06-.07-.13-.14-.19-.21-.19Z"/><path class="cls-14" d="M161.75,81.79c-.21,.12-.42,.24-.63,.35-.49,.21-1.6,.53-1.67,.56-2.8,1.21-6.5,1.58-6.5,1.58-.16,0,.03,.77,.04,1.03,0,.13,1.69-.15,2.41-.41,.77-.28,1.53-.56,2.29-.86,1.22-.48,4.21-1.94,4.21-1.99,.17-.1,.02-.36-.15-.26Z"/><path class="cls-39" d="M179.45,77.44c-.02-.19-.32-.19-.3,0,.17,1.87-1.21,3.4-3.09,3.4-.19,0-.19,.3,0,.3,1.06,0,1.98-.45,2.6-1.17-.24,.74-.54,1.48-1.1,2.03-.75,.75-1.84,1.03-2.88,1.01-2.21-.06-4.45-1.53-4.45-3.92,0-.19-.3-.19-.3,0,0,2.47,2.23,4.05,4.53,4.21,1.04,.07,2.14-.15,2.98-.79,.97-.74,1.36-1.94,1.7-3.07,.02-.06,0-.11-.03-.14,.27-.55,.4-1.18,.34-1.85Z"/><path class="cls-40" d="M167.31,90.61c-4.73,3.19-11.35,7.27-16.33,10.05-.54,.3,4.7,7,5.5,6.23,.57-.56,1.14-1.12,1.69-1.69,1.56-1.59,10.63-11.14,11.08-12.81,.09-.35-1.43-1.69-1.95-1.78Z"/><path class="cls-14" d="M167.08,76.87c-1.06,2.33-3.14,3.9-5.41,4.95-1.3,.6-2.67,1.04-4.03,1.47-1.36,.42-2.71,.85-4.11,1.09-.19,.03-.11,.32,.08,.29,1.54-.26,3.02-.74,4.5-1.21,1.35-.42,2.69-.88,3.96-1.49,2.22-1.06,4.23-2.66,5.28-4.94,.08-.17-.18-.33-.26-.15Z"/><path class="cls-30" d="M196.49,118.77s-.07-.07-.11-.1c-2.18-4.4-4.36-8.8-6.55-13.2-1.91-3.84-3.99-10.1-8.15-11.06-.64-.15-1.78,.2-2.13,.58-.12,0,1.46-.27,1.32-.21-5.12,1.9-8.13,6.68-9.64,11.71-.84,2.79-1.57,5.85-1.02,8.77,.52,2.74,2.16,5.3,3.68,7.59,1.75,2.64,3.78,5.1,6.02,7.34,.45,.45,1.02,.33,1.37-.01,1.26-.1,2.43-.63,3.5-1.3,1.35-.84,2.63-1.81,3.92-2.74,2.55-1.85,5.06-3.77,7.51-5.74,.05-.03,.09-.07,.13-.1,.05-.04,.1-.08,.14-.11,.42-.34,.35-1.05,0-1.4Z"/><path class="cls-40" d="M194.41,119.6c-1.46-2.36-2.82-4.79-4.06-7.27-1.24-2.47-2.2-5.1-3.56-7.5-.67-1.18-1.5-2.26-2.18-3.43-.66-1.13-1.17-2.34-1.78-3.5-.47-.89-.99-1.82-1.8-2.45-.98-.76-2.3-.86-3.48-1.05-3.16-.49-6.35-.76-9.54-.8-.18,0-.18,.28,0,.28,2.8,.04,5.6,.25,8.37,.63,1.3,.18,2.9,.23,4.07,.88,1.05,.59,1.67,1.72,2.2,2.75,.58,1.12,1.09,2.29,1.72,3.39,.66,1.14,1.45,2.19,2.11,3.32,1.29,2.23,2.19,4.7,3.33,7.01,1.33,2.69,2.79,5.32,4.36,7.87,.1,.16,.34,.01,.24-.14Z"/><path class="cls-40" d="M200.08,122.08c0-.16-.05-.33-.15-.5-1.02-1.72-2.12-3.4-3.3-5.02-.31-.43-.82-.64-1.31-.45-.24,0-.49,.09-.72,.32-4.83,4.92-10.42,9.02-16.56,12.17-2.18-2.77-4.12-5.76-5.68-8.93-.94-1.91-1.71-3.94-1.89-6.08-.19-2.3,.32-4.58,.81-6.81,0-.01,0-.02,0-.04,0-.02,.01-.03,0-.05,0-.28-.22-.34-.45-.22-.56,.31-.72,1.46-.81,1.99-.19,1.06-.13,2.18-.06,3.25,.18,2.69,.76,5.2,1.92,7.65,1.58,3.33,3.61,6.47,5.89,9.38l-.04,.02c-.21,.11-.35,.25-.43,.41-.24,.3-.35,.68-.31,1.14,.06,.72,.6,1.33,1.03,1.89,.58,.77,1.2,1.5,1.86,2.2,.59,.62,1.25,1.48,2.12,1.69,.61,.15,1.11-.2,1.64-.47,.57-.29,1.13-.6,1.68-.91,1.11-.62,2.2-1.29,3.27-1.98,2.14-1.39,4.19-2.91,6.14-4.56,1.81-1.53,3.53-3.17,5.15-4.91,.34-.36,.36-.8,.19-1.15Z"/><path class="cls-40" d="M151.43,101.62c-1.59,3.71-3.19,7.41-4.78,11.12-1.49,3.47-3.32,6.97-4.17,10.67-.85,3.7-.86,7.56-1.57,11.3-.71,3.71-1.74,7.35-2.75,10.98-1.13,4.06-2.24,8.13-2.89,12.3-.03,.18,.25,.26,.27,.08,1.16-7.39,3.76-14.44,5.33-21.74,.37-1.73,.68-3.46,.9-5.22,.24-1.96,.35-3.94,.66-5.89,.61-3.89,2.37-7.45,3.91-11.04,1.78-4.14,3.56-8.27,5.33-12.41,.07-.17-.17-.31-.24-.14Z"/><path class="cls-18" d="M153.91,169.05c-3,.55-5.81,.05-8.7-.8-2.82-.83-5.63-1.69-8.43-2.59-2.8-.9-5.58-1.83-8.36-2.8-1.39-.48-2.77-.98-4.15-1.48-1.24-.45-2.54-.91-3.34-2.02-.11-.15-.35,0-.24,.14,1.1,1.53,3.12,2.02,4.81,2.62,2.33,.84,4.68,1.65,7.03,2.44,4.63,1.55,9.29,3.09,14,4.36,2.47,.67,4.94,.87,7.46,.41,.18-.03,.1-.31-.08-.27Z"/><path class="cls-40" d="M149.88,152.3c-2.68-2.72-5-5.76-6.92-9.05-.09-.16-.34-.01-.24,.14,1.94,3.32,4.28,6.37,6.97,9.11,.13,.13,.33-.07,.2-.2Z"/><path class="cls-40" d="M128.29,154.86c-1.64-2.1-2.6-4.63-2.77-7.3-.01-.18-.3-.18-.28,0,.17,2.74,1.16,5.33,2.85,7.5,.11,.14,.31-.06,.2-.2Z"/><path class="cls-40" d="M152.54,112.04c-.24-.22-.53-.35-.85-.35h-.07c-.17,0-.32,.03-.46,.1-.15,.05-.28,.13-.39,.25-.12,.11-.2,.24-.25,.39-.08,.14-.11,.3-.1,.46,.01,.31,.12,.64,.35,.85,.24,.22,.53,.35,.85,.35h.07c.17,0,.32-.03,.46-.1,.15-.05,.28-.13,.39-.25,.12-.11,.2-.24,.25-.39,.08-.14,.11-.3,.1-.46-.01-.31-.12-.64-.35-.85Z"/><path class="cls-40" d="M148.07,121.19c-1.55,0-1.55,2.41,0,2.41s1.55-2.41,0-2.41Z"/><path class="cls-40" d="M145.95,134.3c-.24-.22-.53-.35-.85-.35h-.07c-.17,0-.32,.03-.46,.1-.15,.05-.28,.13-.39,.25-.12,.11-.2,.24-.25,.39-.08,.14-.11,.3-.1,.46,.01,.31,.12,.64,.35,.85,.24,.22,.53,.35,.85,.35h.07c.17,0,.32-.03,.46-.1,.15-.05,.28-.13,.39-.25,.12-.11,.2-.24,.25-.39,.08-.14,.11-.3,.1-.46-.01-.31-.12-.64-.35-.85Z"/><path class="cls-40" d="M144.07,150.91c-3.57-8.39-5.7-17.36-6.27-26.46-.01-.18-.3-.18-.28,0,.57,9.16,2.71,18.16,6.31,26.6,.07,.17,.32,.02,.24-.14Z"/><path class="cls-28" d="M135.17,159.17c-.05-.14-.12-.26-.23-.36-.21-.2-.5-.34-.8-.33-.3,.01-.58,.11-.8,.33l-.03,.03c-.11,.1-.19,.22-.23,.36-.07,.13-.1,.28-.1,.43,0,.15,.03,.3,.1,.43,.05,.14,.12,.26,.23,.36,.21,.2,.5,.34,.8,.33,.3-.01,.58-.11,.8-.33l.03-.03c.11-.1,.19-.22,.23-.36,.07-.13,.1-.28,.1-.43,0-.15-.03-.3-.1-.43Z"/><path class="cls-28" d="M134.02,162.15c-.05-.14-.12-.26-.23-.36-.21-.2-.5-.34-.8-.33-.3,.01-.58,.11-.8,.33l-.03,.03c-.11,.1-.19,.22-.23,.36-.07,.13-.1,.28-.1,.43,0,.15,.03,.3,.1,.43,.05,.14,.12,.26,.23,.36,.21,.2,.5,.34,.8,.33,.3-.01,.58-.11,.8-.33l.03-.03c.11-.1,.19-.22,.23-.36,.07-.13,.1-.28,.1-.43,0-.15-.03-.3-.1-.43Z"/><path class="cls-18" d="M61.91,185.94c-5.61,9.94-11.22,19.87-16.45,30.01-1.48,2.86-2.92,5.74-4.33,8.63-.08,.16,.17,.31,.24,.14,4.99-10.26,10.46-20.28,16.04-30.23,1.57-2.81,3.16-5.61,4.74-8.42,.09-.16-.16-.3-.24-.14Z"/><path class="cls-18" d="M62.79,191.29c-.84,5.32-1.95,10.58-3.34,15.79-.05,.18,.23,.25,.27,.08,1.38-5.2,2.5-10.47,3.34-15.79,.03-.18-.25-.26-.27-.08Z"/><path class="cls-18" d="M112.54,171.42c-9.08,.58-18.14,1.3-27.16,2.53-3.11,.43-6.22,.91-9.31,1.48-2.94,.54-5.88,1.15-8.66,2.28-3.37,1.37-6.39,3.41-9.12,5.79,0,0-.02,0-.03,.01-.03,0-.06,.01-.09,.04-2.65,2.28-5.11,4.78-7.52,7.3-2.25,2.35-4.55,4.67-6.32,7.41h0c-.03,.05-.02,.1,0,.13,.11,.19,.16,.74,.41,.82,.21,.06,.58-.55,.72-.73,.49-.61,.98-1.22,1.47-1.83,.98-1.23,1.96-2.46,2.95-3.68,1.97-2.44,3.99-4.84,6.21-7.05,2.2-2.2,4.6-4.21,7.25-5.83,.84-.51,1.69-.98,2.57-1.41,2.65-1.29,5.5-2.05,8.38-2.62,2.97-.6,5.97-1.08,8.97-1.52,6.11-.9,12.26-1.54,18.42-2.05,3.64-.3,7.28-.55,10.93-.79,0,0,.02,0,.02,0,.12-.09,.05-.28-.1-.27Z"/><path class="cls-18" d="M57.37,223.07c1.21-1.7,2.62-3.14,4.19-4.5,.78-.67,1.58-1.37,2.14-2.25,.59-.91,.94-1.93,1.31-2.94,.76-2.06,1.69-4.05,3.02-5.81,.55-.73,1.08-1.49,1.65-2.21,0-.01-.02-.03-.03-.04-1.78,1.19-3.23,2.8-4.15,4.75-.51,1.07-.83,2.23-1.4,3.27-.59,1.05-1.48,1.85-2.41,2.58-1.79,1.4-3.53,2.78-5.02,4.52-1.51,1.76-2.78,3.7-3.77,5.79-.19,.41,.17,.8,.5,.78,.04,.01,.08,.02,.13,.03,.45,.03,.89,.09,1.34,.16,.76-1.43,1.57-2.82,2.51-4.14Z"/><path class="cls-21" d="M194.44,98.1c-.68-.82-.68-1.72-1.52-2.38-1.1-.86-2.34-1.55-3.73-1.42,.1-.19,.21-.38,.33-.57,.29-.43-.4-.84-.69-.41-1.66,2.48-1.28,5.8-1.2,8.64,.1,3.57,.29,7.15,.55,10.71,.51,6.99,1.31,13.96,2.24,20.91,.54,3.99,1.12,7.97,1.73,11.95,.04,.26,.26,.34,.46,.27,1.08,1.17,2.26,2.23,3.55,3.16,.7,.5,1.45,.91,2.16,1.39,.38,.26-.43,.34-.85,.35,.35,.23,1.55,1.1,1.77,1.03,4.94-1.61,4.58-9.46,2.8-18.9-1.44-5.74-7.64-28.77-7.61-34.73Z"/><path class="cls-21" d="M213.79,70.15c-.99,.1-1.73,.87-2.3,1.61-.28,.37-.54,.76-.81,1.14-.25,.35-.57,1.08-.91,1.31-.07,.05-.14,.1-.21,.14,.34-.74,.69-1.47,1.06-2.2,.74-1.46-2.35-.97-3.09,.49-.82,1.61-.69,1.48-1.39,3.15,.09-1.94-2.22-.39-2.68,1.29-.93,3.4-.74,2.92-1.41,5.09-.42,1.36-5.27,5.64-6.06,3.96-.1-.34-.07-.73,.14-1.11,.87-1.53,1.29-2.3,2.06-3.88,.52-1.25,1.05-2.53,1.25-3.87,.09-.62,.16-1.37-.05-1.98-.13-.39-1.15-.93-1.47-.33-2.32,4.35-4.32,8.6-6.99,12.74-1.36,2.11-3.23,4.19-3.48,6.78-.13,1.34,.01,2.71,.07,4.04l.18,4.42c0,.08,.02,.15,.05,.21-.11,.76,.95,1.53,1.72,.86,.63-.54,1.26-1.08,1.89-1.62l.84-.72c.17-.15,.35-.3,.52-.45l.1-.04c.51,.05,1.59-1.28,1.67-1.89,.63-4.59,3.6-6.06,6.37-9.12,.6-.58,1.22-1.16,1.85-1.7,1.74-1.5,3.69-2.7,4.77-4.8,.51-.99,.9-2.04,1.4-3.03,.54-1.08,1.14-2.12,1.78-3.15,1.28-2.05,2.99-4.62,4.43-6.57,.41-.56-.38-.87-1.3-.78Z"/><path class="cls-14" d="M211.65,75.3c-1.57-.07-2.87,.87-3.79,2.07-1.09,1.43-1.88,3.13-2.8,4.67-.5,.83-.99,1.68-1.54,2.48-.65,.96-1.52,1.41-2.52,1.92-1.8,.92-3.58,1.88-5.34,2.89-.16,.09-.02,.34,.14,.24,1.68-.96,3.37-1.88,5.09-2.76,.73-.37,1.54-.7,2.15-1.26,.59-.55,1-1.3,1.42-1.98,.96-1.54,1.85-3.12,2.76-4.69,.96-1.65,2.32-3.39,4.43-3.3,.18,0,.18-.28,0-.28Z"/><path class="cls-14" d="M190.33,131.75c-.02-.18-.3-.18-.28,0,.39,3.89,.94,7.75,1.65,11.59,.03,.18,.31,.1,.27-.08-.7-3.82-1.25-7.66-1.64-11.52Z"/><path class="cls-21" d="M110.64,141.18c-.34-3.3-3.02-7.09-3.22-7.18-.28-.26-1.15-.21-1.83,.2-.37,.22-.79,.35-1.22,.4-3.27,.45-11.35,.6-13.5,.53-2.68-.08-19.76-1.7-22.13-3.69-.35-.38-5.81,5.14-4.95,5.67,1.33,.82,11.03,2.58,14.31,3.34,6.77,1.58,13.61,2.82,20.5,3.74,3.73,.5,10.19,1.08,12.16-.41,1.05-.8-.14-1.16-.1-1.17,.53-1.47,.03-1-.01-1.42Z"/><path class="cls-21" d="M68.89,131.59c-2.95-2.67-4.18-7.94-6.22-12.24-.92-1.95-1.69-3.99-3.75-4.99-.76-.37-1.2-.57-1.56-.71-.05-.02-.1-.04-.14-.05-.53-.19-.96-.26-2.22-.58-.91-.23-1.58-.38-2.18-.49-2.72-.62-3.29-.71-6.36-1.73-1.38-.46-1.15,1.65,.16,2.29,3.59,1.75,4.12,1.58,7.98,2.43-3.49,1.27-4.32,1.95-7.88,3-1.4,.41,.32,2.03,1.77,1.85,.78-.1,.49-.17,1.32-.42,.05,0,.1,0,.16,0,1.63-.17,1.64-.47,2.15-.24,.02,.13,.07,.27,.15,.41,.88,1.51,1.78,3.01,2.84,4.41,1.05,1.39,2.18,2.71,3.2,4.12,1.9,2.62,4.08,8.17,5.46,8.45,.17,.03,1.1-.13,2.01-.3,1.49-1.28,2.62-2.99,3.27-4.84-.17-.38-.08-.3-.17-.38Zm-10.8-7.75c-1.24-1.52-2.43-3.08-3.6-4.65h.06c1.37-.36,2.82,.2,3.58,1.4l.02,.02c.7,1.11,.47,2.28,.57,3.59-.23-.04-.45-.15-.62-.37Z"/><path class="cls-14" d="M54.13,118.82c-.38-.4-1.12-1.05-1.69-.64-.5,.36-.55,1.07-.3,1.59,.08,.17,.32,.02,.24-.14-.18-.39-.15-1.13,.35-1.27,.42-.12,.92,.37,1.19,.66,.13,.13,.33-.07,.2-.2Z"/><path class="cls-14" d="M61.19,121.4c-.76-1.73-2.05-3.37-3.28-4.8-.48-.55-1-1.05-1.68-1.34-.74-.32-1.57-.38-2.36-.49-1.68-.23-4.43-.79-4.86-2.77-.04-.18-.31-.08-.27,.09,.28,1.28,1.49,1.95,2.63,2.36,.76,.27,1.53,.46,2.33,.57,.84,.12,1.72,.17,2.51,.53,.82,.37,1.38,1.08,1.93,1.76,.58,.73,1.14,1.48,1.66,2.26,.96,1.44,2.47,3.84,.67,5.28-.14,.11,.02,.35,.16,.24,1.14-.92,1.12-2.45,.57-3.7Z"/><path class="cls-18" d="M138.2,174.84c-7.35-2.11-14.96-3.22-22.6-3.3-.18,0-.18,.28,0,.28,7.62,.08,15.2,1.19,22.53,3.29,.18,.05,.25-.22,.08-.27Z"/><path class="cls-28" d="M128.01,177.04l-6.17-2.99c-.16-.08-.31,.17-.14,.24,2.06,1,4.11,1.99,6.17,2.99,.16,.08,.31-.17,.14-.24Z"/><path class="cls-41" d="M125.74,178.49c-.02-.18-.3-.18-.28,0,.12,1.1,.1,2.2-.06,3.3-.03,.18,.25,.26,.27,.08,.16-1.12,.19-2.24,.07-3.37Z"/><path class="cls-41" d="M126.9,178.98c-.02-.18-.31-.18-.28,0,.11,.87,.09,1.72-.06,2.58-.03,.18,.24,.26,.27,.08,.16-.89,.18-1.77,.07-2.66Z"/><path class="cls-33" d="M122.21,206.43c-.25,0-.51-.03-.76-.1-1.51-.42-2.39-1.99-1.97-3.49l11.68-41.9c1.83-6.56,7.93-11.02,14.83-10.84l50.31,1.4c1.57,.04,2.8,1.35,2.76,2.91-.04,1.57-1.35,2.8-2.91,2.76l-50.31-1.4c-4.29-.11-8.09,2.64-9.22,6.69l-11.68,41.9c-.35,1.25-1.49,2.08-2.73,2.08Z"/><g><path class="cls-16" d="M125.87,176.36c-.84-2.43-1.68-4.86-2.52-7.29-.69-2-.44-4.81-2.16-6.12-.63-.48-2.67,.15-3.33,.77-.56,.52-.62,1.43-.3,2.09,.42,.85,1.28,1.39,1.78,2.19,.53,.84,.87,1.79,1.4,2.62,.65,1.02,1.64,1.77,2.24,2.82,.65,1.12,.93,2.41,1.21,3.66,.14,.62,.97,.47,1.09-.04,.36,.02,.73-.26,.58-.69Z"/><path class="cls-16" d="M90.52,167.77c1.28-.09,2.43,.25,3.58,.77,.34,.15,.68,.29,1.01,.43,.83,.24,1.66,.5,2.48,.75,.08,.02,.16,.03,.24,.05,1.52,.27,3.07,.4,4.55,.84,.72,.21,1.41,.48,2.15,.63,.61,.12,1.22,.23,1.81,.44-.47-1.15-1.35-2.03-2.52-2.58-1.84-.86-3.81-1.58-5.76-2.14-1.9-.54-3.89-.86-5.87-.69-.88,.08-1.76,.25-2.59,.55-.58,.2-1.19,.45-1.36,1.09-.08,.08-.06,.26,.09,.24,.57-.07,1.13-.09,1.69-.08,.09-.16,.25-.28,.48-.29Z"/><path class="cls-16" d="M89.84,170.8c-.33-1.43-1.8-2.31-3.12-2.73-1.8-.57-3.77-.5-5.64-.49-4.47,.04-8.95,.4-13.36,1.19-.33,.06-.66,.09-.98,.09,2.69,.97,5.52,1.19,8.37,1.03,.43-.04,.87-.08,1.3-.11,.1,0,.19-.01,.29-.02,.16-.02,.31-.03,.47-.05,.08,0,.16,0,.22,.02,3.15-.12,6.31,.15,9.36,.97,.89,.24,2.34,.76,3.3,.35v-.08c.03-.13-.12-.21-.2-.16Z"/><path class="cls-16" d="M120.53,168.04c-.54-.67-2.1-.17-2.73,.03-2.78,.9-5.55,1.4-8.49,1.21-.16-.01-.19,.24-.04,.28,1.99,.55,4.05,.77,6.1,.63,1.54-.1,3.11-.37,4.45-1.13,.48-.12,1.13-.48,.7-1.02Z"/><path class="cls-10" d="M128.09,178.75c-.09-1.41-.22-2.83-.39-4.26-.28-2.28-.69-4.55-1.33-6.71-.58-2.02-1.35-3.98-2.19-5.91-1.55-3.56-3.1-6.68-6.2-9.19-4.62-3.75-9.48-5.58-15.28-6.51-3.66-.58-8.19-.9-11.89-.73-2.05,.09-4.1,.34-6.11,.77-.38,.08-.75,.17-1.12,.29-.72,.24-1.45,.58-2.23,.61-.13,0-.17-.15-.1-.24,.01-.02,.03-.03,.04-.05-1.36,.41-2.7,.93-4,1.59-3.36,1.68-6.6,3.78-9.02,6.66-2.86,3.4-4.09,7.47-2.19,10.91,1.72,3.12,5.5,3.97,8.46,3.35,.44-.09,.89-.17,1.33-.22,.08,0,.16-.01,.24-.03,4.6-.51,9.24,.85,13.46,2.58,.39,.16,.83,.03,1.16-.23,.23-.11,.43-.28,.54-.52,.64-1.33,.33-2.75-.59-3.74,.81,0,1.61,0,2.42,.02,.14,.18,.3,.35,.48,.51,.65,.56,1.41,.85,2.22,1.02,.03-.27,.22-.51,.58-.47,1.3,.12,2.62,.2,3.92,.37,.96,.13,2.29,.32,2.53,1.44,0,.02,0,.03,0,.05,1.24,.6,2.31,1.49,3,2.78,.56,1.05,1.82,.74,2.31-.05,.24-.24,.4-.57,.36-.92-.06-.62-.66-1.9-.9-2.45,0,0,1.68,.13,2.59,.3,2.33,.43,5.75-.19,7.75-1.31,.9-.51,1.65-1.23,2.46-1.86,.89-.68,1.16,1.91,1.28,2.35,.39,1.45,.97,2.83,1.45,4.25,.7,2.1,.67,4.13,1.03,6.28,.21,1.26,.76,2.42,1.39,3.53,.84,.86,1.71,.26,2.2-.61,.64-1.12,.41-2.43,.33-3.65Z"/><path class="cls-41" d="M81,146.94h.01c.22,.15,.43,.29,.65,.41,.2,.12,.41,.22,.63,.32,.12,.06,.23,.11,.35,.16l.06,.02c.46,.16,.91,.33,1.38,.47,.82,.24,1.65,.43,2.49,.57,.03,0,.07,.01,.11,.02h.07c.3,0,.61,.05,.91,.06,.65,.02,1.3,0,1.95-.03,2.42-.16,4.93-.79,7.38-1.41,1.98-.5,3.96-.99,5.98-1.31-3.43-.68-6.94-.97-10.42-.91-3.94,.06-7.86,.44-11.57,1.62l.03,.02Z"/><path class="cls-41" d="M127.51,177.26c.16,.05,.32,.08,.48,.11-.08-.95-.17-1.91-.29-2.87-.28-2.28-.69-4.55-1.33-6.71-.07-.25-.15-.5-.23-.75-1.17,.25-2.18,.94-2.63,2.23-.45,1.3,.11,2.43,.73,3.54,.19,.33,.36,.67,.52,1.02,.04,.08,.11,.25,.13,.3,.06,.15,.11,.3,.17,.45,.45,1.19,1.13,2.31,2.43,2.69Z"/><path class="cls-41" d="M99.93,169.19c1.1,.2,2.2,.53,3.17,1.05-.01-.11-.03-.23-.05-.35-.27-1.34-1.17-2.49-2.3-3.23-1.54-1.01-3.89-.98-4.86,.81-.2,.36-.3,.77-.33,1.18,1.41,.35,2.98,.28,4.36,.53Z"/><path class="cls-41" d="M89.78,163.98c-2.13-.33-4.34-.38-6.5-.52,.97-.77,1.94-1.59,2.6-2.66,.67-1.1,1-2.41,.93-3.69-.13-2.44-1.71-4.59-3.94-5.54-.17-.07-.31,.17-.14,.24,2.22,.94,3.77,3.08,3.81,5.51,.05,2.77-1.7,4.55-3.72,6.14-.11,.08,0,.23,.1,.24,1.88,.14,3.76,.27,5.63,.41,1.79,.14,4.29,.61,4.48,2.83,.02,.18,.3,.18,.28,0-.16-1.83-1.88-2.73-3.52-2.98Z"/><path class="cls-41" d="M90.15,164.85c-.16-.08-.31,.17-.14,.24,.71,.33,1.7,.83,1.55,1.78-.03,.18,.25,.26,.27,.08,.17-1.1-.82-1.7-1.68-2.1Z"/><path class="cls-41" d="M106.61,169.88c-.13-.13-.33,.07-.2,.2,.76,.77,1.12,1.76,1.04,2.84-.01,.18,.27,.18,.28,0,.09-1.14-.32-2.22-1.13-3.04Z"/><path class="cls-41" d="M105.73,170.94c-.1-.15-.34-.01-.24,.14,.27,.43,.44,.9,.5,1.41,.02,.18,.3,.18,.28,0-.06-.56-.24-1.08-.54-1.55Z"/><path class="cls-41" d="M94.81,155.41c-1.64,2.66-2.43,5.74-2.28,8.86,0,.18,.29,.18,.28,0-.15-3.07,.62-6.1,2.24-8.71,.1-.16-.15-.3-.24-.14Z"/><path class="cls-41" d="M127.74,164.21c-1.23-4.04-3.85-8.5-8.38-11.35-5.61-3.54-10.9-4.54-12.09-4.6-2.07-.1-.73,4.06-.4,4.85,.24,.56,.63,1.24,.31,1.81-.5,.9-.71,1.63-1.15,2.61-.18,.48-.34,.97-.44,1.49-.16,.87-.23,1.75-.22,2.64,0,.53,.37,.99,.88,1.12,.28,.07,.54,.12,.69,.15,2.17,.47,3.63-.72,5.31-1.87,.94-.64,1.96-1.15,3.04-1.51,.49-.16,.96,.3,.82,.79-.3,1.02-.54,2.05-.72,3.1-.17,.99-.75,2.5-.19,3.44,.15,.25,.37,.46,.59,.65,.31,.26,.63,.5,.98,.71,.19,.11,.38,.22,.6,.26,.9,.15,1.98-.75,2.61-1.28,.54-.45,1-1,1.55-1.44,.37-.3,.76-.7,1.23-.86,1.2,.08,2.38,.3,3.54,.67,.57,.18,1.6-.83,1.44-1.35Z"/><path class="cls-41" d="M107.45,169.56c-.9-1.43-2.27-2.38-3.76-3.14-1.61-.82-3.4-1.71-5.21-1.89-.18-.02-.18,.27,0,.28,1.77,.17,3.5,1.05,5.07,1.85,1.44,.73,2.78,1.65,3.65,3.04,.1,.15,.34,.01,.24-.14Z"/><path class="cls-32" d="M116.19,166.53c-.35-.12-1.5,.23-1.78,.23-.23,0-1.65-.2-1.74,0-.09,.2,.63,.35,.74,.39,.54,.17,1.15,.37,1.75,.34,.26-.01,1.55-.39,1.11-.9-.02-.02-.04-.04-.08-.05Z"/><path class="cls-32" d="M109.26,164.5c-.1,.02-.85-3.1-1.32-2.89-.3,.13,.04,1.59,.12,1.84,.17,.56,.52,1.18,1.2,1.05Z"/><path class="cls-41" d="M109.89,168.04c.05-.47-.21-.59-.63-.56-.28,.02-.55,.09-.82,.16-.13,.03-.19,.02-.24,.14-.09,.22,.19,.49,.21,.7,.02,.19-.09,.33-.1,.5,0,.11-.06,.07,.06,.09,.18,.02,.38-.16,.59-.15,.28,0,.51,.36,.73,.1,.19-.23,.18-.56,.22-.83,0-.03,0-.05,.01-.08-.01-.02-.02-.04-.02-.08Z"/><path class="cls-32" d="M111,152.45c-1.29-.7-2.33-1.71-3.06-2.99-.09-.16-.34-.02-.24,.14,.49,.86,1.12,1.6,1.87,2.22-.17-.03-.34-.04-.52-.04-.11,0-.2,.16-.1,.24l.34,.28c.09,.08,.33,.21,.36,.33,.04,.22-.37,.57-.53,.71-.14,.12,.07,.32,.2,.2,.22-.19,.65-.59,.64-.91,0-.16-.1-.23-.21-.32-.09-.07-.18-.15-.27-.22,.01,0,.02,0,.04,0,.12,.02,.19-.09,.17-.18,.37,.29,.75,.55,1.17,.78,.16,.09,.3-.16,.14-.24Z"/><path class="cls-32" d="M126.75,163.59c-1.66-.43-3.24-1.05-4.74-1.86-.16-.09-.3,.16-.14,.24,.23,.12,.46,.24,.69,.35-.03,.05-.03,.11,.03,.15,.27,.23,.53,.47,.78,.72-.08,0-.16-.02-.23-.02-.1,0-.23-.03-.32,.04-.22,.18,.04,.61,.11,.8,.06,.17,.33,.1,.27-.08-.04-.12-.16-.35-.17-.5,.21-.03,.52,.06,.68,.09,.14,.02,.24-.13,.14-.24-.22-.24-.44-.46-.68-.68,1.13,.51,2.3,.93,3.51,1.24,.18,.05,.25-.23,.08-.27Z"/><path class="cls-32" d="M116.74,164.08c-1.11,.34-2.18,.74-3.24,1.22-.17,.08-.02,.32,.14,.24,1.03-.47,2.09-.87,3.17-1.2,.17-.05,.1-.33-.08-.27Z"/><path class="cls-32" d="M116.45,165.13c-.54,.01-1.07,.08-1.6,.21-.18,.04-.1,.32,.08,.27,.5-.12,1.01-.19,1.53-.2,.18,0,.18-.29,0-.28Z"/><path class="cls-32" d="M110.39,159.3c-.02-.18-.3-.18-.28,0,.13,1.17,.07,2.32-.2,3.46-.04,.18,.23,.25,.27,.08,.27-1.17,.35-2.34,.21-3.54Z"/><path class="cls-32" d="M109.69,161.44l-.25-.94c-.05-.18-.32-.1-.27,.08l.25,.94c.05,.18,.32,.1,.27-.08Z"/><path class="cls-41" d="M90.63,167.03c-.97-1.09-2.34-1.57-3.73-1.87-1.88-.4-3.82-.64-5.74-.8-3.57-.29-8.46,.38-10.78-3.04-.1-.15-.35,0-.24,.14,2.02,2.98,5.88,2.92,9.09,3.06,2.15,.09,4.3,.33,6.43,.69,1.72,.3,3.57,.65,4.78,2.02,.12,.14,.32-.06,.2-.2Z"/></g><g><path class="cls-32" d="M172.18,119.6c.06,.19,.14,.35,.22,.5l-.21-.69c-.03-.09-.03,.1,0,.19Z"/><path class="cls-40" d="M172.81,120.94c-.1-.33-.27-.58-.41-.84l.27,.87s0,.02,0,.03c.75,3.88,3.19,8.99,4.78,11.5,.68-1.67,.45-1.14,1.04-2.84-1.97-2.86-3.87-5.76-5.69-8.72Z"/></g><path class="cls-7" d="M157.99,74.75s-1.19-.02-3.16-.27c-1.97-.25-3.68-.91-3.68-.91,0,0,.68,2.03,2.94,2.53,2.26,.49,3.9-1.34,3.9-1.34Z"/></g></g><g><path class="cls-41" d="M17.18,139.75l-12.88,.02c-.73-.14-1.21-.85-1.07-1.58l4.79-24.49c.16-.81,.99-1.29,1.76-1.02l10.89,4.15c.64,.22,.16,1.15,.04,1.81l-1.94,20.04c-.14,.73-.85,1.21-1.58,1.07Z"/><path class="cls-32" d="M20.67,116.82l-10.89-4.15c-.78-.26-1.61,.22-1.76,1.02l-2.12,10.85c.36,3.13,1.9,13.26,2.12,15.22l9.16-.02c.73,.14,1.44-.34,1.58-1.07l1.94-20.04c.13-.66,.6-1.59-.04-1.81Z"/><path class="cls-41" d="M23.14,138.93l-12.52,.83c-.74,.12-1.43-.38-1.55-1.12l-3.91-24.44c-.13-.81,.49-1.55,1.31-1.57l12.78-.03c.68-.01,1.26,.47,1.36,1.14l3.65,23.64c.12,.74-.38,1.43-1.12,1.55Z"/><path class="cls-28" d="M24.28,138.39l-12.52,.83c-.74,.12-1.43-.38-1.55-1.12l-3.91-24.44c-.13-.81,.49-1.55,1.31-1.57l12.78-.03c.68-.01,1.26,.47,1.36,1.14l3.65,23.64c.12,.74-.38,1.43-1.12,1.55Z"/><rect class="cls-41" x="9.33" y="134.15" width="17.26" height="5.62" rx="2.81" ry="2.81"/><path class="cls-17" d="M7.98,113.29c-.03-.19-.31-.11-.29,.08,.88,5.97,1.76,11.95,2.65,17.92,.03,.19,.31,.11,.29-.08-.88-5.97-1.76-11.95-2.65-17.92Z"/><path class="cls-23" d="M20.53,117.77H10.05c-.23,0-.42-.17-.46-.39l-.34-2.11c-.05-.28,.17-.54,.46-.54h10.48c.23,0,.42,.17,.46,.39l.34,2.11c.05,.28-.17,.54-.46,.54Z"/></g></g></g></g></g></svg>