<?xml version="1.0" encoding="UTF-8"?><svg id="Layer_2" xmlns="http://www.w3.org/2000/svg" xmlns:xlink="http://www.w3.org/1999/xlink" viewBox="0 0 202.49 314.56"><defs><style>.cls-1{fill:url(#linear-gradient);}.cls-2{mask:url(#mask);}.cls-3{filter:url(#luminosity-noclip-2);}.cls-4{fill:#e8947e;}.cls-5{fill:#e7b585;}.cls-6{fill:#fba386;}.cls-7{fill:#efefef;}.cls-8{fill:#2f77a5;}.cls-9{fill:#324366;}.cls-10{fill:#cdcfd0;}.cls-11{fill:#c0966b;}.cls-12{fill:#dda576;}.cls-13{fill:#404041;}.cls-14{fill:#362d29;}.cls-15{fill:#544b47;}.cls-16{fill:#88c23f;}.cls-17{fill:#6e7b8e;}.cls-18{fill:#588769;}.cls-19{fill:#4a4747;}.cls-20{fill:#294254;}.cls-21{fill:#485a7e;}.cls-22{fill:#486178;}.cls-23{fill:#58595b;}.cls-24{fill:#577982;}.cls-25{fill:#5db0b2;}.cls-26{fill:#76a387;}.cls-27{fill:#778699;}.cls-28{fill:#7a7979;}.cls-29{fill:#4ea5ac;}.cls-30{fill:#82a890;}</style><filter id="luminosity-noclip-2" x="-5255.35" y="-2331.91" width="6791.34" height="2881.84" color-interpolation-filters="sRGB" filterUnits="userSpaceOnUse"><feFlood flood-color="#fff" result="bg"/><feBlend in="SourceGraphic" in2="bg"/></filter><linearGradient id="linear-gradient" x1="100.22" y1="153.79" x2="100.22" y2="549.92" gradientTransform="matrix(1, 0, 0, 1, 0, 0)" gradientUnits="userSpaceOnUse"><stop offset="0" stop-color="#fff"/><stop offset=".01" stop-color="#f5f5f5"/><stop offset=".07" stop-color="#c9c8c9"/><stop offset=".13" stop-color="#a1a0a0"/><stop offset=".2" stop-color="#7f7d7d"/><stop offset=".27" stop-color="#625f60"/><stop offset=".35" stop-color="#4b4748"/><stop offset=".45" stop-color="#393536"/><stop offset=".56" stop-color="#2c2829"/><stop offset=".7" stop-color="#252122"/><stop offset="1" stop-color="#231f20"/></linearGradient><mask id="mask" x="-5255.35" y="-2331.91" width="6791.34" height="2881.84" maskUnits="userSpaceOnUse"><g class="cls-3"><rect class="cls-1" x="-.91" y="153.79" width="202.26" height="396.14" rx="12" ry="12"/></g></mask></defs><g id="New_components"><g class="cls-2"><g><g><polygon class="cls-17" points="100.22 26.53 122.74 26.53 122.74 87.78 103.65 102.75 100.22 26.53"/><g><g><path class="cls-29" d="M103.71,107.72l-.9-76.19s4.7-1.34,12.08-1.12c7.38,.22,33.34,0,33.34,0h7.38V115.67s-51.7,10.27-51.92-7.95Z"/><path class="cls-25" d="M102.9,38.88s3.61,17.82,3.85,30.33c.23,12.51,0,20.93,.95,26.06,.95,5.13,7.65,10.96,14.52,13.34,6.87,2.38,16.2,5.9,18.2,8.21,2,2.32,3.58,1.55,3.58,1.55l-1.57-16.31s-12,2.2-19.67-2.17c-7.67-4.37-10.69-6.98-11.26-9.6-.58-2.62-2.12-11.76-1.41-14.8,.71-3.04,1.88-37.35-2.04-44.83l-5.22,.88,.09,7.34Z"/><polygon class="cls-22" points="149.93 23.6 140.41 23.6 141.49 118.56 157.92 118.56 149.93 23.6"/><polygon class="cls-24" points="145.75 23.72 144.52 24.15 141.97 118.56 148.55 127.24 145.75 23.72"/><polygon class="cls-27" points="201.91 21.13 144.52 21.13 146.51 127.37 202.49 127.37 201.91 21.13"/></g><g><path class="cls-20" d="M161.02,31.85c0,.94-.26,1.67-.78,2.17-.52,.51-1.25,.76-2.18,.76h-1.82v-5.64h1.95c.9,0,1.6,.23,2.09,.69,.49,.46,.74,1.13,.74,2Zm-1.58,.05c0-.52-.1-.9-.31-1.15-.2-.25-.51-.37-.93-.37h-.44v3.16h.34c.46,0,.8-.13,1.02-.4,.22-.27,.32-.68,.32-1.23Z"/><path class="cls-20" d="M163.66,34.86c-.73,0-1.29-.19-1.69-.58-.4-.39-.6-.94-.6-1.65s.19-1.3,.56-1.7c.37-.39,.9-.59,1.6-.59s1.17,.17,1.52,.51c.36,.34,.54,.84,.54,1.48v.67h-2.69c.01,.24,.1,.44,.27,.57,.17,.14,.4,.21,.69,.21,.27,0,.51-.03,.73-.08,.22-.05,.46-.14,.72-.26v1.08c-.24,.12-.48,.2-.73,.25s-.55,.07-.9,.07Zm-.09-3.5c-.18,0-.33,.06-.45,.17-.12,.11-.19,.29-.21,.53h1.29c0-.21-.06-.38-.18-.51s-.27-.19-.46-.19Z"/><path class="cls-20" d="M167.54,34.78h-1.51v-6h1.51v6Z"/><path class="cls-20" d="M172.36,32.59c0,.71-.19,1.27-.58,1.67s-.92,.6-1.61,.6-1.19-.2-1.58-.61c-.39-.41-.59-.96-.59-1.66s.19-1.26,.58-1.66c.38-.39,.92-.59,1.62-.59,.43,0,.81,.09,1.14,.27,.33,.18,.58,.44,.76,.78s.27,.74,.27,1.19Zm-2.83,0c0,.38,.05,.66,.15,.86,.1,.2,.27,.3,.51,.3s.4-.1,.5-.3c.1-.2,.14-.48,.14-.86s-.05-.65-.15-.84c-.1-.19-.27-.29-.5-.29s-.4,.1-.5,.28c-.1,.19-.15,.47-.15,.85Z"/><path class="cls-20" d="M172.8,29.33c0-.23,.06-.39,.19-.5s.33-.17,.61-.17,.48,.06,.61,.17c.13,.11,.19,.28,.19,.5,0,.44-.27,.66-.81,.66s-.8-.22-.8-.66Zm1.55,5.46h-1.51v-4.37h1.51v4.37Z"/><path class="cls-20" d="M177.14,33.67c.2,0,.45-.05,.73-.15v1.1c-.2,.09-.4,.15-.58,.19-.18,.04-.4,.06-.65,.06-.51,0-.87-.12-1.09-.37s-.34-.63-.34-1.14v-1.8h-.53v-.61l.67-.47,.39-.92h.99v.87h1.07v1.13h-1.07v1.7c0,.28,.14,.42,.41,.42Z"/><path class="cls-20" d="M180.38,33.67c.2,0,.45-.05,.73-.15v1.1c-.2,.09-.4,.15-.58,.19-.18,.04-.4,.06-.65,.06-.51,0-.87-.12-1.09-.37s-.34-.63-.34-1.14v-1.8h-.53v-.61l.67-.47,.39-.92h.99v.87h1.07v1.13h-1.07v1.7c0,.28,.14,.42,.41,.42Z"/><path class="cls-20" d="M183.58,34.86c-.73,0-1.29-.19-1.69-.58-.4-.39-.6-.94-.6-1.65s.19-1.3,.56-1.7c.37-.39,.9-.59,1.6-.59s1.17,.17,1.52,.51c.36,.34,.54,.84,.54,1.48v.67h-2.69c.01,.24,.1,.44,.27,.57,.17,.14,.4,.21,.69,.21,.27,0,.51-.03,.73-.08,.22-.05,.46-.14,.72-.26v1.08c-.24,.12-.48,.2-.73,.25s-.55,.07-.9,.07Zm-.09-3.5c-.18,0-.33,.06-.45,.17-.12,.11-.19,.29-.21,.53h1.29c0-.21-.06-.38-.18-.51s-.27-.19-.46-.19Z"/><path class="cls-16" d="M185.77,34.14c0-.24,.07-.42,.21-.55,.14-.13,.34-.19,.61-.19s.45,.06,.59,.19c.14,.13,.2,.31,.2,.55s-.07,.41-.21,.54c-.14,.13-.33,.19-.58,.19s-.46-.06-.6-.19c-.15-.13-.22-.31-.22-.54Z"/></g><g><rect class="cls-8" x="159.51" y="40.15" width="5.08" height="2.44"/><rect class="cls-8" x="167.68" y="40.15" width="2.99" height="2.44"/><rect class="cls-8" x="173.98" y="40.15" width="9.7" height="2.44"/><rect class="cls-8" x="157.45" y="46.38" width="3.22" height="2.44"/><rect class="cls-8" x="162.69" y="46.38" width="5.71" height="2.44"/><rect class="cls-8" x="173.98" y="46.38" width="4.47" height="2.44"/><rect class="cls-8" x="182.14" y="46.38" width="4.47" height="2.44"/><rect class="cls-8" x="157.45" y="73.85" width="3.22" height="2.44"/><rect class="cls-8" x="162.69" y="73.85" width="5.71" height="2.44"/><rect class="cls-8" x="173.98" y="73.85" width="4.47" height="2.44"/><rect class="cls-8" x="182.14" y="73.85" width="4.47" height="2.44"/><rect class="cls-8" x="157.45" y="114.25" width="3.22" height="2.44"/><rect class="cls-8" x="162.69" y="114.25" width="5.71" height="2.44"/><rect class="cls-8" x="173.98" y="114.25" width="4.47" height="2.44"/><rect class="cls-8" x="182.14" y="114.25" width="4.47" height="2.44"/><rect class="cls-8" x="157.45" y="81.48" width="4.08" height="2.44"/><rect class="cls-8" x="166.59" y="81.48" width="4.03" height="2.44"/><rect class="cls-8" x="172.92" y="81.48" width="3.88" height="2.44"/><rect class="cls-8" x="179.09" y="81.48" width="7.51" height="2.44"/><rect class="cls-8" x="157.45" y="97.07" width="4.08" height="2.44"/><rect class="cls-8" x="166.59" y="97.07" width="4.03" height="2.44"/><rect class="cls-8" x="172.92" y="97.07" width="3.88" height="2.44"/><rect class="cls-8" x="179.09" y="97.07" width="7.51" height="2.44"/><rect class="cls-8" x="157.45" y="59.59" width="3.22" height="2.44"/><rect class="cls-8" x="162.69" y="59.59" width="5.71" height="2.44"/><rect class="cls-8" x="173.98" y="59.59" width="4.47" height="2.44"/><rect class="cls-8" x="182.14" y="59.59" width="4.47" height="2.44"/><rect class="cls-8" x="177.59" y="52.95" width="9.02" height="2.44"/><rect class="cls-8" x="169.69" y="52.95" width="4.88" height="2.44"/><rect class="cls-8" x="159.06" y="52.95" width="6.48" height="2.44"/><rect class="cls-8" x="177.59" y="66.6" width="9.02" height="2.44"/><rect class="cls-8" x="169.69" y="66.6" width="4.88" height="2.44"/><rect class="cls-8" x="159.06" y="66.6" width="6.48" height="2.44"/><rect class="cls-8" x="177.59" y="89.22" width="9.02" height="2.44"/><rect class="cls-8" x="169.69" y="89.22" width="4.88" height="2.44"/><rect class="cls-8" x="159.06" y="89.22" width="6.48" height="2.44"/><rect class="cls-8" x="177.59" y="105.49" width="9.02" height="2.44"/><rect class="cls-8" x="169.69" y="105.49" width="4.88" height="2.44"/><rect class="cls-8" x="159.06" y="105.49" width="6.48" height="2.44"/></g></g></g><g><path class="cls-10" d="M119.96,114.99c2.01,1.72,4.16,3.26,6.45,4.58,3.03,1.75,7.66,4.16,13.67,6.52,11.3,4.44,28.45,23.21,17.56,51.86-10.9,28.66-26.44,43.19-26.44,43.19l-35.72-15.74s44.6-23.81,46.42-46.62c1.82-22.8-4.64-27.45-17.36-36.12-12.71-8.68-6.46-9.28-6.46-9.28l1.88,1.61Z"/><g><path class="cls-7" d="M122.56,207.1l-.53-.59s1.37-1.22,3.44-3.24l.55,.57c-2.09,2.04-3.45,3.25-3.47,3.27Z"/><path class="cls-7" d="M132.73,196.89l-.59-.53c2.26-2.48,4.34-4.95,6.2-7.32l.62,.49c-1.87,2.39-3.97,4.87-6.24,7.36Zm11.81-15.26l-.67-.42c1.88-3.03,3.32-5.89,4.29-8.51l.74,.27c-.98,2.67-2.45,5.58-4.36,8.65Zm6.18-18.18l-.79-.06c.15-1.94,.22-3.87,.22-5.76,0-1.28-.03-2.56-.1-3.81l.79-.04c.07,1.26,.1,2.56,.1,3.85,0,1.9-.07,3.86-.22,5.82Zm-1.93-19.09c-.49-2.15-.94-3.4-1.02-3.63h0c-.06-.13-1-2.28-2.86-4.94l.65-.45c1.96,2.8,2.9,4.99,2.94,5.08l.11,.25h-.01c.18,.52,.56,1.71,.97,3.51l-.77,.17Zm-10.4-15.42c-1.04-.77-2.12-1.45-3.21-2.01-1.94-1-3.61-1.88-5.1-2.71l.38-.69c1.48,.83,3.14,1.71,5.08,2.7,1.13,.58,2.25,1.28,3.32,2.08l-.47,.63Z"/><path class="cls-7" d="M121.94,119c-1.35-1.06-2.5-2.13-3.53-3.26l.59-.53c1,1.1,2.12,2.14,3.44,3.17l-.49,.62Z"/></g></g><g><path class="cls-26" d="M151.23,122.39c.42-1.02-.25-2.12-.81-2.93-.44-.64-.94-1.26-1.2-2-.34-.95-.11-1.73,.42-2.55,.55-.85,1.12-1.68,.8-2.73-.39-1.29-1.79-1.95-2.22-3.18-.25-.7-.12-1.56-.24-2.3-.1-.6-.26-1.2-.59-1.71-.77-1.2-2.25-1.43-3.33-2.25-1.12-.86-1.92-2.11-3.25-2.7-.98-.43-2.08-.33-2.92,.37-2.33,1.94,.66,5.29-1.71,7.26-.91,.76-1.62,1.29-1.6,2.58,.01,.62,.2,1.22,.42,1.79,.14,.36,.3,.7,.45,1.06,.07,.17,.15,.36,.2,.54,.17,.63,.08,.9-.28,1.38-.71,.97-1.6,1.78-1.63,3.08,0,.54,.48,1,.6,1.51,.21,.9-.2,.74-.64,1.42-1.37,2.14,2.24,3.42,3.7,3.87,3.41,1.04,12.02,1.91,13.82-2.48Z"/><path class="cls-18" d="M153.67,104.83c-.55,.77-.8,1.7-1.42,2.45-1.13,1.36-2.97,1.75-3.69,3.43-.75,1.76-.22,4.07,.46,5.76,.41,1.02,.93,2.13,.54,3.15-.34,.89-1.46,1.56-1.46,2.58,0,.96,1.13,1.73,1.5,2.55,.96,2.12-1.9,4.22-.34,6.44,.86,1.22,2.39,1.59,3.79,1.72,4.04,.38,8.59,1.04,12.57-.01,1.82-.48,2.29-1.86,2.45-3.61,.17-1.75-.13-3.55-.86-5.14-.27-.6-.73-1.19-.73-1.86,0-.45,.2-.89,.29-1.33,.13-.6,.14-1.21,.03-1.81-.27-1.61-1.25-2.88-2.41-3.97-.78-.74-1.66-1.44-2.14-2.43-.48-.97-.3-1.9-.25-2.93,.07-1.45-.38-2.87-1.28-4.02-1.54-1.98-5.26-3.48-7.06-.97Z"/><path class="cls-30" d="M163.57,117.48c-.02,1.86,.03,3.5-1.36,4.94-1.09,1.13-2.52,1.97-3.03,3.54-.56,1.73,.19,3.57-.22,5.32-.27,1.14-.99,2.13-1.48,3.18-.4,.86-.72,1.76-.96,2.68-.44,1.74-.47,3.48,.16,5.18,2.71,7.28,15.08,5.45,20.36,2.55,3.15-1.72,1.72-4.57,.18-6.93-.6-.93-1.21-1.85-1.81-2.78-.7-1.07-1.5-2.17-1.07-3.51,.45-1.39,1.28-2.27,.96-3.82-.32-1.55-1.38-2.61-2.24-3.87-.8-1.16-.33-1.89,.03-3.09,.18-.62,.21-1.27,.13-1.91-.34-2.71-2.63-5.91-5.52-6.19-3-.29-4.12,2.14-4.15,4.71Z"/><path class="cls-26" d="M188.02,221.44c1.28-1.75,.52-4.18-.16-5.99-.54-1.43-1.19-2.85-1.34-4.39-.2-1.98,.61-3.36,2-4.67,1.45-1.36,2.93-2.68,2.82-4.84-.14-2.66-2.49-4.58-2.74-7.13-.15-1.47,.5-3.04,.63-4.5,.1-1.19,.06-2.41-.32-3.56-.9-2.66-3.63-3.79-5.29-5.88-1.73-2.18-2.68-4.95-4.93-6.69-1.67-1.29-3.82-1.61-5.75-.68-5.37,2.6-1.25,10.42-6.7,13.07-2.1,1.02-3.71,1.69-4.28,4.17-.27,1.19-.2,2.42-.04,3.62,.1,.75,.25,1.49,.35,2.23,.05,.36,.13,.75,.14,1.12,.03,1.28-.28,1.75-1.18,2.5-1.82,1.52-3.91,2.64-4.57,5.12-.27,1.02,.45,2.14,.43,3.17-.03,1.81-.74,1.32-1.89,2.41-3.63,3.44,2.66,7.6,5.24,9.14,6.03,3.6,22.07,9.33,27.58,1.8Z"/><path class="cls-26" d="M192.17,145.47c.5-1.21-.3-2.53-.96-3.49-.52-.76-1.11-1.5-1.43-2.38-.4-1.13-.13-2.06,.5-3.03,.65-1.01,1.33-2,.95-3.25-.47-1.54-2.13-2.33-2.65-3.79-.3-.84-.15-1.86-.29-2.73-.11-.71-.31-1.42-.71-2.04-.91-1.43-2.68-1.7-3.96-2.68-1.33-1.03-2.29-2.51-3.87-3.21-1.17-.51-2.48-.39-3.47,.44-2.77,2.31,.78,6.3-2.03,8.64-1.08,.9-1.93,1.53-1.91,3.07,.01,.74,.23,1.45,.5,2.13,.17,.42,.36,.84,.53,1.26,.08,.2,.18,.42,.24,.64,.21,.74,.09,1.07-.33,1.64-.85,1.16-1.91,2.12-1.94,3.67-.01,.64,.57,1.19,.71,1.8,.25,1.07-.24,.88-.76,1.69-1.63,2.55,2.67,4.07,4.4,4.6,4.06,1.24,14.31,2.27,16.44-2.95Z"/><path class="cls-18" d="M167.26,159.67c.53,.06,1.05,.1,1.54,.16,5.24,.62,11.78,1.55,15.96-2.52,.9-.87,1.75-2.08,1.35-3.39-.36-1.16-1.49-1.87-2.4-2.57-.94-.73-1.67-1.47-1.54-2.75,.08-.82,.4-1.61,.51-2.43,.19-1.37-.03-2.79-.6-4.05-.28-.63-.65-1.23-1.09-1.75-.62-.74-1.66-1.27-2.06-2.17-.32-.73-.23-1.64-.41-2.41-.18-.8-.46-1.58-.85-2.31-1.12-2.1-3.72-4.63-6.14-2.75-1.19,.93-1.68,2.39-2.15,3.76-.31,.9-.62,1.81-1.21,2.58-.67,.88-1.62,1.48-2.36,2.29-.87,.95-1.2,2.02-.98,3.29,.22,1.25,.9,2.42,.91,3.7,.01,1.89-1.96,2.48-2.67,4-.6,1.28,.68,2.31,.3,3.51-.29,.91-1.42,1.13-1.57,2.15-.07,.5,.1,1.02,.37,1.43,1.09,1.66,3.16,2.02,5.08,2.23Z"/><path class="cls-26" d="M165.43,146.72c-.55,.77-.8,1.7-1.42,2.45-1.13,1.36-2.97,1.75-3.69,3.43-.75,1.76-.22,4.07,.46,5.76,.41,1.02,.93,2.13,.54,3.15-.34,.89-1.46,1.56-1.46,2.58,0,.96,1.13,1.73,1.5,2.55,.96,2.12-1.9,4.22-.34,6.44,.86,1.22,2.39,1.59,3.79,1.72,4.04,.38,8.59,1.04,12.57-.01,1.82-.48,2.29-1.86,2.45-3.61,.17-1.75-.13-3.55-.86-5.14-.27-.6-.73-1.19-.73-1.86,0-.45,.2-.89,.29-1.33,.13-.6,.14-1.21,.03-1.81-.27-1.61-1.25-2.88-2.41-3.97-.78-.74-1.66-1.44-2.14-2.43-.48-.97-.3-1.9-.25-2.93,.07-1.45-.38-2.87-1.28-4.02-1.54-1.98-5.26-3.48-7.06-.97Z"/><path class="cls-30" d="M176.38,195.67c.5-1.21-.3-2.53-.96-3.49-.52-.76-1.11-1.5-1.43-2.38-.4-1.13-.13-2.06,.5-3.03,.65-1.01,1.33-2,.95-3.25-.47-1.54-2.13-2.33-2.65-3.79-.3-.84-.15-1.86-.29-2.73-.11-.71-.31-1.42-.71-2.04-.91-1.43-2.68-1.7-3.96-2.68-1.33-1.03-2.29-2.51-3.87-3.21-1.17-.51-2.48-.39-3.47,.44-2.77,2.31,.78,6.3-2.03,8.64-1.08,.9-1.93,1.53-1.91,3.07,.01,.74,.23,1.45,.5,2.13,.17,.42,.36,.84,.53,1.26,.08,.2,.18,.42,.24,.64,.21,.74,.09,1.07-.33,1.64-.85,1.16-1.91,2.12-1.94,3.67-.01,.64,.57,1.19,.71,1.8,.25,1.07-.24,.88-.76,1.69-1.63,2.55,2.67,4.07,4.4,4.6,4.06,1.24,14.31,2.27,16.44-2.95Z"/><path class="cls-18" d="M198.69,138.72c.5-1.21-.3-2.53-.96-3.49-.52-.76-1.11-1.5-1.43-2.38-.4-1.13-.13-2.06,.5-3.03,.65-1.01,1.33-2,.95-3.25-.47-1.54-2.13-2.33-2.65-3.79-.3-.84-.15-1.86-.29-2.73-.11-.71-.31-1.42-.71-2.04-.91-1.43-2.68-1.7-3.96-2.68-1.33-1.03-2.29-2.51-3.87-3.21-1.17-.51-2.48-.39-3.47,.44-2.77,2.31,.78,6.3-2.03,8.64-1.08,.9-1.93,1.53-1.91,3.07,.01,.74,.23,1.45,.5,2.13,.17,.42,.36,.84,.53,1.26,.08,.2,.18,.42,.24,.64,.21,.74,.09,1.07-.33,1.64-.85,1.16-1.91,2.12-1.94,3.67-.01,.64,.57,1.19,.71,1.8,.25,1.07-.24,.88-.76,1.69-1.63,2.55,2.67,4.07,4.4,4.6,4.06,1.24,14.31,2.27,16.44-2.95Z"/><path class="cls-26" d="M186.34,133.75c-.55,.77-.8,1.7-1.42,2.45-1.13,1.36-2.97,1.75-3.69,3.43-.75,1.76-.22,4.07,.46,5.76,.41,1.02,.93,2.13,.54,3.15-.34,.89-1.46,1.56-1.46,2.58,0,.96,1.13,1.73,1.5,2.55,.96,2.12-1.9,4.22-.34,6.44,.86,1.22,2.39,1.59,3.79,1.72,4.04,.38,8.59,1.04,12.57-.01,1.82-.48,2.29-1.86,2.45-3.61,.17-1.75-.13-3.55-.86-5.14-.27-.6-.73-1.19-.73-1.86,0-.45,.2-.89,.29-1.33,.13-.6,.14-1.21,.03-1.81-.27-1.61-1.25-2.88-2.41-3.97-.78-.74-1.66-1.44-2.14-2.43-.48-.97-.3-1.9-.25-2.93,.07-1.45-.38-2.87-1.28-4.02-1.54-1.98-5.26-3.48-7.06-.97Z"/><path class="cls-30" d="M187.88,153.97c-.55,.77-.8,1.7-1.42,2.45-1.13,1.36-2.97,1.75-3.69,3.43-.75,1.76-.22,4.07,.46,5.76,.41,1.02,.93,2.13,.54,3.15-.34,.89-1.46,1.56-1.46,2.58,0,.96,1.13,1.73,1.5,2.55,.96,2.12-1.9,4.22-.34,6.44,.86,1.22,2.39,1.59,3.79,1.72,4.04,.38,8.59,1.04,12.57-.01,1.82-.48,2.29-1.86,2.45-3.61,.17-1.75-.13-3.55-.86-5.14-.27-.6-.73-1.19-.73-1.86,0-.45,.2-.89,.29-1.33,.13-.6,.14-1.21,.03-1.81-.27-1.61-1.25-2.88-2.41-3.97-.78-.74-1.66-1.44-2.14-2.43-.48-.97-.3-1.9-.25-2.93,.07-1.45-.38-2.87-1.28-4.02-1.54-1.98-5.26-3.48-7.06-.97Z"/><path class="cls-18" d="M182.6,200.19c.53,.06,1.05,.1,1.54,.16,5.24,.62,11.78,1.55,15.96-2.52,.9-.87,1.75-2.08,1.35-3.39-.36-1.16-1.49-1.87-2.4-2.57-.94-.73-1.67-1.47-1.54-2.75,.08-.82,.4-1.61,.51-2.43,.19-1.37-.03-2.79-.6-4.05-.28-.63-.65-1.23-1.09-1.75-.62-.74-1.66-1.27-2.06-2.17-.32-.73-.23-1.64-.41-2.41-.18-.8-.46-1.58-.85-2.31-1.12-2.1-3.72-4.63-6.14-2.75-1.19,.93-1.68,2.39-2.15,3.76-.31,.9-.62,1.81-1.21,2.58-.67,.88-1.62,1.48-2.36,2.29-.87,.95-1.2,2.02-.98,3.29,.22,1.25,.9,2.42,.91,3.7,.01,1.89-1.96,2.48-2.67,4-.6,1.28,.68,2.31,.3,3.51-.29,.91-1.42,1.13-1.57,2.15-.07,.5,.1,1.02,.37,1.43,1.09,1.66,3.16,2.02,5.08,2.23Z"/><path class="cls-18" d="M178.56,158.73c-.02,1.86,.03,3.5-1.36,4.94-1.09,1.13-2.52,1.97-3.03,3.54-.56,1.73,.19,3.57-.22,5.32-.27,1.14-.99,2.13-1.48,3.18-.4,.86-.72,1.76-.96,2.68-.44,1.74-.47,3.48,.16,5.18,2.71,7.28,15.08,5.45,20.36,2.55,3.15-1.72,1.72-4.57,.18-6.93-.6-.93-1.21-1.85-1.81-2.78-.7-1.07-1.5-2.17-1.07-3.51,.45-1.39,1.28-2.27,.96-3.82-.32-1.55-1.38-2.61-2.24-3.87-.8-1.16-.33-1.89,.03-3.09,.18-.62,.21-1.27,.13-1.91-.34-2.71-2.63-5.91-5.52-6.19-3-.29-4.12,2.14-4.15,4.71Z"/><path class="cls-26" d="M173.04,178.26c-.55,.77-.8,1.7-1.42,2.45-1.13,1.36-2.97,1.75-3.69,3.43-.75,1.76-.22,4.07,.46,5.76,.41,1.02,.93,2.13,.54,3.15-.34,.89-1.46,1.56-1.46,2.58,0,.96,1.13,1.73,1.5,2.55,.96,2.12-1.9,4.22-.34,6.44,.86,1.22,2.39,1.59,3.79,1.72,4.04,.38,8.59,1.04,12.57-.01,1.82-.48,2.29-1.86,2.45-3.61,.17-1.75-.13-3.55-.86-5.14-.27-.6-.73-1.19-.73-1.86,0-.45,.2-.89,.29-1.33,.13-.6,.14-1.21,.03-1.81-.27-1.61-1.25-2.88-2.41-3.97-.78-.74-1.66-1.44-2.14-2.43-.48-.97-.3-1.9-.25-2.93,.07-1.45-.38-2.87-1.28-4.02-1.54-1.98-5.26-3.48-7.06-.97Z"/><path class="cls-26" d="M201.87,214.38c.5-1.21-.3-2.53-.96-3.49-.52-.76-1.11-1.5-1.43-2.38-.4-1.13-.13-2.06,.5-3.03,.65-1.01,1.33-2,.95-3.25-.47-1.54-2.13-2.33-2.65-3.79-.3-.84-.15-1.86-.29-2.73-.11-.71-.31-1.42-.71-2.04-.91-1.43-2.68-1.7-3.96-2.68-1.33-1.03-2.29-2.51-3.87-3.21-1.17-.51-2.48-.39-3.47,.44-2.77,2.31,.78,6.3-2.03,8.64-1.08,.9-1.93,1.53-1.91,3.07,.01,.74,.23,1.45,.5,2.13,.17,.42,.36,.84,.53,1.26,.08,.2,.18,.42,.24,.64,.21,.74,.09,1.07-.33,1.64-.85,1.16-1.91,2.12-1.94,3.67-.01,.64,.57,1.19,.71,1.8,.25,1.07-.24,.88-.76,1.69-1.63,2.55,2.67,4.07,4.4,4.6,4.06,1.24,14.31,2.27,16.44-2.95Z"/><path class="cls-18" d="M177.09,231.27c1.28-1.75,.52-4.18-.16-5.99-.54-1.43-1.19-2.85-1.34-4.39-.2-1.98,.61-3.36,2-4.67,1.45-1.36,2.93-2.68,2.82-4.84-.14-2.66-2.49-4.58-2.74-7.13-.15-1.47,.5-3.04,.63-4.5,.1-1.19,.06-2.41-.32-3.56-.9-2.66-3.63-3.79-5.29-5.88-1.73-2.18-2.68-4.95-4.93-6.69-1.67-1.29-3.82-1.61-5.75-.68-5.37,2.6-1.25,10.42-6.7,13.07-2.1,1.02-3.71,1.69-4.28,4.17-.27,1.19-.2,2.42-.04,3.62,.1,.75,.25,1.49,.35,2.23,.05,.36,.13,.75,.14,1.12,.03,1.28-.28,1.75-1.18,2.5-1.82,1.52-3.91,2.64-4.57,5.12-.27,1.02,.45,2.14,.43,3.17-.03,1.81-.74,1.32-1.89,2.41-3.63,3.44,2.66,7.6,5.24,9.14,6.03,3.6,22.07,9.33,27.58,1.8Z"/><path class="cls-30" d="M181.92,195.07c-.94,1.16-1.4,2.59-2.44,3.7-1.89,2.02-4.81,2.46-6.08,5.03-1.34,2.68-.72,6.35,.19,9.05,.54,1.63,1.26,3.42,.56,4.98-.62,1.36-2.43,2.31-2.52,3.9-.09,1.5,1.6,2.8,2.11,4.13,1.3,3.4-3.36,6.43-1.12,10.04,1.23,1.99,3.59,2.71,5.77,3.04,6.29,.96,13.34,2.41,19.66,1.13,2.89-.58,3.75-2.71,4.17-5.42,.42-2.72,.12-5.56-.88-8.12-.37-.96-1.03-1.92-.96-2.98,.04-.71,.39-1.38,.58-2.06,.25-.92,.32-1.88,.22-2.83-.28-2.54-1.7-4.62-3.41-6.43-1.16-1.22-2.46-2.41-3.13-3.99-.66-1.56-.3-3-.13-4.6,.24-2.27-.34-4.53-1.63-6.41-2.22-3.24-7.9-5.92-10.95-2.16Z"/></g><g><path class="cls-26" d="M126.31,131.09c-.01,1.6,.03,3.01-1.1,4.25-.89,.97-2.07,1.7-2.48,3.05-.45,1.49,.17,3.07-.16,4.58-.22,.98-.81,1.84-1.2,2.74-.33,.74-.59,1.52-.78,2.31-.36,1.5-.37,3,.15,4.45,2.25,6.25,12.42,4.64,16.75,2.14,2.58-1.49,1.4-3.93,.13-5.96-.5-.79-1-1.59-1.5-2.38-.58-.92-1.24-1.86-.89-3.01,.36-1.19,1.05-1.96,.78-3.29-.27-1.34-1.14-2.24-1.86-3.33-.66-.99-.28-1.63,.01-2.66,.15-.53,.17-1.09,.1-1.64-.29-2.33-2.18-5.08-4.56-5.31-2.47-.24-3.38,1.86-3.4,4.07Z"/><path class="cls-26" d="M121.54,146.66c.5-.8,.14-1.83-.18-2.6-.25-.61-.55-1.21-.65-1.88-.12-.86,.19-1.48,.75-2.09,.58-.63,1.17-1.25,1.08-2.19-.11-1.15-1.13-1.93-1.28-3.03-.09-.63,.15-1.34,.18-1.98,.02-.52-.02-1.05-.2-1.54-.43-1.13-1.59-1.55-2.32-2.42-.76-.9-1.21-2.08-2.19-2.78-.72-.52-1.63-.6-2.42-.14-2.19,1.28-.32,4.57-2.55,5.88-.86,.5-1.52,.84-1.71,1.93-.09,.53-.04,1.06,.05,1.58,.06,.32,.13,.64,.19,.96,.03,.15,.07,.33,.08,.48,.04,.55-.08,.77-.44,1.12-.73,.71-1.58,1.26-1.81,2.35-.09,.45,.23,.92,.24,1.37,.02,.79-.28,.59-.74,1.1-1.45,1.6,1.26,3.24,2.37,3.84,2.59,1.4,9.41,3.46,11.56,.03Z"/><path class="cls-18" d="M117.4,130.32c-.43,.68-.6,1.49-1.08,2.15-.89,1.2-2.38,1.6-2.92,3.07-.56,1.54-.05,3.51,.56,4.94,.37,.86,.84,1.8,.55,2.69-.25,.78-1.15,1.39-1.12,2.26,.03,.83,.98,1.45,1.31,2.15,.86,1.79-1.42,3.69-.07,5.55,.75,1.03,2.01,1.29,3.17,1.36,3.33,.2,7.09,.62,10.33-.4,1.48-.47,1.82-1.67,1.9-3.18,.08-1.51-.22-3.04-.88-4.39-.24-.5-.64-1-.66-1.58-.01-.39,.13-.77,.2-1.15,.09-.52,.07-1.04-.03-1.56-.27-1.37-1.12-2.44-2.11-3.34-.67-.61-1.41-1.19-1.84-2.02-.42-.82-.31-1.62-.3-2.51,0-1.25-.41-2.46-1.18-3.42-1.33-1.66-4.43-2.83-5.83-.61Z"/><path class="cls-30" d="M77.11,182.15c1.36-1.24,1.2-3.41,1-5.06-.16-1.3-.42-2.61-.25-3.93,.21-1.7,1.12-2.71,2.48-3.56,1.42-.89,2.85-1.72,3.17-3.56,.39-2.26-1.14-4.29-.86-6.48,.16-1.26,.98-2.46,1.35-3.67,.31-.98,.5-2.02,.41-3.04-.22-2.4-2.2-3.84-3.14-5.88-.98-2.14-1.22-4.63-2.7-6.5-1.1-1.38-2.76-2.04-4.49-1.6-4.8,1.22-2.96,8.53-7.83,9.77-1.87,.48-3.3,.76-4.22,2.73-.44,.95-.61,2-.71,3.03-.06,.64-.08,1.29-.14,1.94-.03,.31-.04,.66-.1,.97-.21,1.08-.55,1.42-1.41,1.89-1.75,.95-3.63,1.51-4.63,3.48-.41,.81-.04,1.88-.25,2.74-.36,1.51-.84,.97-1.96,1.68-3.56,2.24,.71,6.86,2.49,8.61,4.17,4.1,15.96,11.79,21.79,6.46Z"/><path class="cls-30" d="M129.27,142.99c-.51,.63-.78,1.41-1.34,2-1.03,1.08-2.56,1.29-3.27,2.69-.74,1.46-.48,3.48-.04,4.97,.26,.9,.61,1.89,.21,2.74-.34,.74-1.31,1.24-1.39,2.11-.07,.82,.8,1.56,1.04,2.29,.63,1.88-1.86,3.49-.74,5.5,.62,1.11,1.84,1.53,2.98,1.74,3.28,.61,6.96,1.48,10.3,.86,1.53-.28,2.01-1.44,2.27-2.92,.26-1.49,.15-3.05-.33-4.47-.18-.53-.51-1.07-.46-1.65,.03-.39,.23-.75,.34-1.12,.15-.5,.2-1.03,.16-1.55-.1-1.4-.82-2.56-1.69-3.57-.59-.68-1.25-1.35-1.58-2.23-.32-.86-.11-1.65,0-2.53,.16-1.24-.11-2.49-.75-3.54-1.12-1.81-4.06-3.35-5.71-1.32Z"/><path class="cls-26" d="M113.29,152.21c.5-.8,.14-1.83-.18-2.6-.25-.61-.55-1.21-.65-1.88-.12-.86,.19-1.48,.75-2.09,.58-.63,1.17-1.25,1.08-2.19-.11-1.15-1.13-1.93-1.28-3.03-.09-.63,.15-1.34,.18-1.98,.02-.52-.02-1.05-.2-1.54-.43-1.13-1.59-1.55-2.32-2.42-.76-.9-1.21-2.08-2.19-2.78-.72-.52-1.63-.6-2.42-.14-2.19,1.28-.32,4.57-2.55,5.88-.86,.5-1.52,.84-1.71,1.93-.09,.53-.04,1.06,.05,1.58,.06,.32,.13,.64,.19,.96,.03,.15,.07,.33,.08,.48,.04,.55-.08,.77-.44,1.12-.73,.71-1.58,1.26-1.81,2.35-.09,.45,.23,.92,.24,1.37,.02,.79-.28,.59-.74,1.1-1.45,1.6,1.26,3.24,2.37,3.84,2.59,1.4,9.41,3.46,11.56,.03Z"/><path class="cls-26" d="M124.33,160.08c.63-.93,.23-2.18-.12-3.1-.28-.74-.61-1.46-.7-2.26-.11-1.02,.28-1.75,.97-2.46,.71-.73,1.44-1.44,1.37-2.56-.09-1.38-1.27-2.33-1.41-3.65-.08-.76,.23-1.59,.28-2.35,.04-.62,.01-1.25-.18-1.84-.46-1.37-1.83-1.91-2.67-2.96-.88-1.1-1.37-2.52-2.5-3.39-.84-.64-1.91-.77-2.87-.25-2.66,1.44-.56,5.43-3.25,6.89-1.04,.56-1.84,.94-2.1,2.23-.13,.62-.08,1.26,0,1.88,.05,.39,.13,.77,.19,1.15,.03,.18,.07,.39,.08,.58,.03,.66-.13,.91-.57,1.32-.9,.82-1.93,1.43-2.24,2.73-.13,.53,.24,1.1,.23,1.64,0,.94-.36,.7-.92,1.28-1.79,1.85,1.38,3.9,2.67,4.65,3.03,1.77,11.06,4.47,13.75,.47Z"/><path class="cls-26" d="M72.61,158.43c.63-.93,.23-2.18-.12-3.1-.28-.74-.61-1.46-.7-2.26-.11-1.02,.28-1.75,.97-2.46,.71-.73,1.44-1.44,1.37-2.56-.09-1.38-1.27-2.33-1.41-3.65-.08-.76,.23-1.59,.28-2.35,.04-.62,.01-1.25-.18-1.84-.46-1.37-1.83-1.91-2.67-2.96-.88-1.1-1.37-2.52-2.5-3.39-.84-.64-1.91-.77-2.87-.25-2.66,1.44-.56,5.43-3.25,6.89-1.04,.56-1.84,.94-2.1,2.23-.13,.62-.08,1.26,0,1.88,.05,.39,.13,.77,.19,1.15,.03,.18,.07,.39,.08,.58,.03,.66-.13,.91-.57,1.32-.9,.82-1.93,1.43-2.24,2.73-.13,.53,.24,1.1,.23,1.64,0,.94-.36,.7-.92,1.28-1.79,1.85,1.38,3.9,2.67,4.65,3.03,1.77,11.06,4.47,13.75,.47Z"/><path class="cls-18" d="M131.15,170.95c.63-.93,.23-2.18-.12-3.1-.28-.74-.61-1.46-.7-2.26-.11-1.02,.28-1.75,.97-2.46,.71-.73,1.44-1.44,1.37-2.56-.09-1.38-1.27-2.33-1.41-3.65-.08-.76,.23-1.59,.28-2.35,.04-.62,.01-1.25-.18-1.84-.46-1.37-1.83-1.91-2.67-2.96-.88-1.1-1.37-2.52-2.5-3.39-.84-.64-1.91-.77-2.87-.25-2.66,1.44-.56,5.43-3.25,6.89-1.04,.56-1.84,.94-2.1,2.23-.13,.62-.08,1.26,0,1.88,.05,.39,.13,.77,.19,1.15,.03,.18,.07,.39,.08,.58,.03,.66-.13,.91-.57,1.32-.9,.82-1.93,1.43-2.24,2.73-.13,.53,.24,1.1,.23,1.64,0,.94-.36,.7-.92,1.28-1.79,1.85,1.38,3.9,2.67,4.65,3.03,1.77,11.06,4.47,13.75,.47Z"/><path class="cls-18" d="M100.41,161.28c.42,.14,.82,.27,1.2,.41,4.09,1.46,9.16,3.42,13.28,.74,.88-.57,1.8-1.43,1.72-2.6-.07-1.04-.84-1.83-1.44-2.59-.62-.78-1.06-1.54-.72-2.58,.22-.68,.62-1.28,.87-1.95,.41-1.12,.5-2.35,.28-3.51-.11-.58-.29-1.15-.55-1.67-.36-.73-1.09-1.37-1.24-2.19-.12-.67,.12-1.42,.13-2.1,0-.7-.08-1.41-.25-2.09-.5-1.97-2.12-4.55-4.41-3.41-1.13,.57-1.8,1.7-2.44,2.77-.42,.7-.84,1.41-1.45,1.95-.7,.62-1.58,.95-2.32,1.5-.88,.64-1.34,1.48-1.4,2.59-.05,1.09,.27,2.19,.03,3.27-.35,1.59-2.04,1.73-2.89,2.88-.72,.97,.11,2.06-.42,3-.4,.71-1.36,.7-1.66,1.53-.15,.4-.11,.87,.03,1.27,.56,1.59,2.15,2.27,3.66,2.78Z"/><path class="cls-18" d="M79.57,165.73c.42,.14,.82,.27,1.2,.41,4.09,1.46,9.16,3.42,13.28,.74,.88-.57,1.8-1.43,1.72-2.6-.07-1.04-.84-1.83-1.44-2.59-.62-.78-1.06-1.54-.72-2.58,.22-.68,.62-1.28,.87-1.95,.41-1.12,.5-2.35,.28-3.51-.11-.58-.29-1.15-.55-1.67-.36-.73-1.09-1.37-1.24-2.19-.12-.67,.12-1.42,.13-2.1,0-.7-.08-1.41-.25-2.09-.5-1.97-2.12-4.55-4.41-3.41-1.13,.57-1.8,1.7-2.44,2.77-.42,.7-.84,1.41-1.45,1.95-.7,.62-1.58,.95-2.32,1.5-.88,.64-1.34,1.48-1.4,2.59-.05,1.09,.27,2.19,.03,3.27-.35,1.59-2.04,1.73-2.89,2.88-.72,.97,.11,2.06-.42,3-.4,.71-1.36,.7-1.66,1.53-.15,.4-.11,.87,.03,1.27,.56,1.59,2.15,2.27,3.66,2.78Z"/><path class="cls-30" d="M112.51,148.82c-.45,.67-.63,1.48-1.13,2.12-.91,1.18-2.42,1.54-2.99,3-.59,1.52-.13,3.51,.45,4.95,.35,.87,.79,1.82,.49,2.7-.27,.77-1.18,1.36-1.17,2.24,.01,.83,.95,1.47,1.27,2.17,.81,1.81-1.51,3.65-.19,5.54,.72,1.04,1.98,1.34,3.14,1.43,3.33,.28,7.08,.78,10.33-.17,1.49-.44,1.85-1.63,1.97-3.14,.12-1.51-.15-3.05-.78-4.41-.23-.51-.61-1.01-.62-1.59,0-.39,.15-.77,.22-1.15,.1-.52,.1-1.04,0-1.56-.24-1.38-1.07-2.46-2.04-3.38-.65-.62-1.38-1.22-1.79-2.06-.4-.83-.27-1.63-.25-2.51,.04-1.25-.35-2.47-1.1-3.45-1.29-1.69-4.37-2.92-5.81-.74Z"/><path class="cls-18" d="M86.17,138.11c-.59,.55-.96,1.29-1.59,1.8-1.16,.93-2.71,.94-3.6,2.22-.93,1.34-.94,3.38-.71,4.92,.14,.93,.35,1.96-.16,2.74-.44,.69-1.47,1.05-1.66,1.9-.18,.81,.58,1.65,.72,2.41,.37,1.95-2.32,3.2-1.48,5.35,.46,1.18,1.62,1.76,2.72,2.13,3.17,1.04,6.7,2.41,10.09,2.24,1.55-.08,2.18-1.15,2.65-2.59,.46-1.44,.56-3,.27-4.47-.11-.55-.36-1.13-.23-1.7,.09-.38,.33-.71,.48-1.07,.21-.48,.34-.99,.37-1.52,.08-1.4-.46-2.64-1.19-3.76-.49-.76-1.06-1.51-1.26-2.42-.2-.9,.11-1.65,.34-2.5,.33-1.21,.23-2.48-.27-3.61-.86-1.94-3.57-3.86-5.48-2.08Z"/><path class="cls-18" d="M102.86,149.7c-.45,.67-.65,1.47-1.15,2.11-.92,1.17-2.43,1.52-3.02,2.97-.61,1.52-.16,3.5,.41,4.95,.34,.87,.78,1.83,.46,2.71-.28,.77-1.2,1.35-1.19,2.23,0,.83,.94,1.48,1.25,2.19,.8,1.82-1.54,3.64-.24,5.54,.71,1.05,1.97,1.36,3.13,1.46,3.33,.31,7.07,.85,10.34-.07,1.5-.42,1.87-1.61,2-3.12,.13-1.51-.13-3.05-.74-4.42-.23-.51-.6-1.02-.61-1.6,0-.39,.16-.77,.23-1.15,.1-.52,.11-1.04,.02-1.56-.23-1.38-1.05-2.47-2-3.4-.65-.63-1.37-1.23-1.78-2.08-.4-.83-.26-1.63-.22-2.52,.05-1.25-.33-2.47-1.07-3.46-1.27-1.7-4.34-2.96-5.81-.8Z"/><path class="cls-26" d="M128.15,179.74c.63-.93,.23-2.18-.12-3.1-.28-.74-.61-1.46-.7-2.26-.11-1.02,.28-1.75,.97-2.46,.71-.73,1.44-1.44,1.37-2.56-.09-1.38-1.27-2.33-1.41-3.65-.08-.76,.23-1.59,.28-2.35,.04-.62,.01-1.25-.18-1.84-.46-1.37-1.83-1.91-2.67-2.96-.88-1.1-1.37-2.52-2.5-3.39-.84-.64-1.91-.77-2.87-.25-2.66,1.44-.56,5.43-3.25,6.89-1.04,.56-1.84,.94-2.1,2.23-.13,.62-.08,1.26,0,1.88,.05,.39,.13,.77,.19,1.15,.03,.18,.07,.39,.08,.58,.03,.66-.13,.91-.57,1.32-.9,.82-1.93,1.43-2.24,2.73-.13,.53,.24,1.1,.23,1.64,0,.94-.36,.7-.92,1.28-1.79,1.85,1.38,3.9,2.67,4.65,3.03,1.77,11.06,4.47,13.75,.47Z"/><path class="cls-18" d="M112.56,163.98c-.59,.55-.96,1.29-1.59,1.8-1.16,.93-2.71,.94-3.6,2.22-.93,1.34-.94,3.38-.71,4.92,.14,.93,.35,1.96-.16,2.74-.44,.69-1.47,1.05-1.66,1.9-.18,.81,.58,1.65,.72,2.41,.37,1.95-2.32,3.2-1.48,5.35,.46,1.18,1.62,1.76,2.72,2.13,3.17,1.04,6.7,2.41,10.09,2.24,1.55-.08,2.18-1.15,2.65-2.59,.46-1.44,.56-3,.27-4.47-.11-.55-.36-1.13-.23-1.7,.09-.38,.33-.71,.48-1.07,.21-.48,.34-.99,.37-1.52,.08-1.4-.46-2.64-1.19-3.76-.49-.76-1.06-1.51-1.26-2.42-.2-.9,.11-1.65,.34-2.5,.33-1.21,.23-2.48-.27-3.61-.86-1.94-3.57-3.86-5.48-2.08Z"/><path class="cls-30" d="M95.56,140.14c-.59,.55-.96,1.29-1.59,1.8-1.16,.93-2.71,.94-3.6,2.22-.93,1.34-.94,3.38-.71,4.92,.14,.93,.35,1.96-.16,2.74-.44,.69-1.47,1.05-1.66,1.9-.18,.81,.58,1.65,.72,2.41,.37,1.95-2.32,3.2-1.48,5.35,.46,1.18,1.62,1.76,2.72,2.13,3.17,1.04,6.7,2.41,10.09,2.24,1.55-.08,2.18-1.15,2.65-2.59,.46-1.44,.56-3,.27-4.47-.11-.55-.36-1.13-.23-1.7,.09-.38,.33-.71,.48-1.07,.21-.48,.34-.99,.37-1.52,.08-1.4-.46-2.64-1.19-3.76-.49-.76-1.06-1.51-1.26-2.42-.2-.9,.11-1.65,.34-2.5,.33-1.21,.23-2.48-.27-3.61-.86-1.94-3.57-3.86-5.48-2.08Z"/><path class="cls-18" d="M96.38,152.5c-.37,1.56-.64,2.94-2.02,3.9-1.08,.75-2.39,1.2-3.09,2.43-.77,1.36-.51,3.03-1.17,4.43-.43,.91-1.19,1.61-1.78,2.4-.48,.65-.91,1.35-1.27,2.08-.68,1.38-1.03,2.84-.84,4.37,.81,6.6,11.08,7.28,15.86,5.8,2.85-.88,2.24-3.52,1.44-5.79-.31-.89-.62-1.77-.93-2.66-.36-1.02-.8-2.09-.2-3.14,.62-1.08,1.45-1.68,1.49-3.04,.03-1.36-.61-2.44-1.07-3.65-.42-1.11,.09-1.65,.6-2.59,.26-.49,.41-1.03,.46-1.58,.24-2.34-1-5.44-3.27-6.19-2.35-.78-3.71,1.06-4.22,3.21Z"/><path class="cls-26" d="M83.87,151.32c-.59,.55-.96,1.29-1.59,1.8-1.16,.93-2.71,.94-3.6,2.22-.93,1.34-.94,3.38-.71,4.92,.14,.93,.35,1.96-.16,2.74-.44,.69-1.47,1.05-1.66,1.9-.18,.81,.58,1.65,.72,2.41,.37,1.95-2.32,3.2-1.48,5.35,.46,1.18,1.62,1.76,2.72,2.13,3.17,1.04,6.7,2.41,10.09,2.24,1.55-.08,2.18-1.15,2.65-2.59,.46-1.44,.56-3,.27-4.47-.11-.55-.36-1.13-.23-1.7,.09-.38,.33-.71,.48-1.07,.21-.48,.34-.99,.37-1.52,.08-1.4-.46-2.64-1.19-3.76-.49-.76-1.06-1.51-1.26-2.42-.2-.9,.11-1.65,.34-2.5,.33-1.21,.23-2.48-.27-3.61-.86-1.94-3.57-3.86-5.48-2.08Z"/><path class="cls-30" d="M113.59,192.68c.7-1.17,.16-2.8-.31-4.01-.37-.96-.81-1.92-.96-2.95-.19-1.33,.24-2.25,1.03-3.12,.81-.91,1.65-1.78,1.51-3.23-.18-1.78-1.65-3.08-1.89-4.8-.14-.98,.19-2.03,.21-3.01,.02-.8-.05-1.62-.32-2.38-.63-1.79-2.3-2.56-3.36-3.97-1.11-1.47-1.77-3.33-3.18-4.51-1.04-.87-2.33-1.1-3.45-.48-3.11,1.72-.37,6.98-3.52,8.72-1.21,.67-2.15,1.12-2.4,2.77-.12,.8-.03,1.62,.11,2.43,.09,.5,.2,1,.29,1.5,.04,.24,.1,.51,.12,.75,.07,.86-.1,1.17-.61,1.67-1.03,1.01-2.23,1.75-2.54,3.4-.13,.68,.34,1.44,.37,2.12,.05,1.21-.39,.88-1.04,1.6-2.04,2.29,1.86,5.11,3.45,6.15,3.72,2.44,13.49,6.37,16.5,1.35Z"/><path class="cls-18" d="M66.49,188.45c1.36-1.24,1.2-3.41,1-5.06-.16-1.3-.42-2.61-.25-3.93,.21-1.7,1.12-2.71,2.48-3.56,1.42-.89,2.85-1.72,3.17-3.56,.39-2.26-1.14-4.29-.86-6.48,.16-1.26,.98-2.46,1.35-3.67,.31-.98,.5-2.02,.41-3.04-.22-2.4-2.2-3.84-3.14-5.88-.98-2.14-1.22-4.63-2.7-6.5-1.1-1.38-2.76-2.04-4.49-1.6-4.8,1.22-2.96,8.53-7.83,9.77-1.87,.48-3.3,.76-4.22,2.73-.44,.95-.61,2-.71,3.03-.06,.64-.08,1.29-.14,1.94-.03,.31-.04,.66-.1,.97-.21,1.08-.55,1.42-1.41,1.89-1.75,.95-3.63,1.51-4.63,3.48-.41,.81-.04,1.88-.25,2.74-.36,1.51-.84,.97-1.96,1.68-3.56,2.24,.71,6.86,2.49,8.61,4.17,4.1,15.96,11.79,21.79,6.46Z"/><path class="cls-18" d="M104.03,198.22c.82-1.67-.11-3.61-.89-5.04-.62-1.13-1.33-2.24-1.65-3.52-.41-1.65,.07-2.93,1.04-4.25,1-1.37,2.05-2.7,1.68-4.51-.45-2.23-2.61-3.5-3.14-5.63-.3-1.22,.03-2.65-.06-3.9-.07-1.02-.26-2.05-.71-2.96-1.07-2.12-3.44-2.67-5.05-4.19-1.68-1.58-2.81-3.79-4.86-4.93-1.53-.84-3.32-.8-4.77,.28-4.04,3,.3,9-3.8,12.04-1.58,1.17-2.81,1.98-2.96,4.16-.07,1.05,.14,2.08,.43,3.07,.18,.62,.39,1.22,.57,1.84,.09,.29,.2,.62,.25,.93,.19,1.07,0,1.52-.64,2.29-1.29,1.56-2.85,2.81-3.07,5-.09,.9,.63,1.75,.75,2.61,.21,1.54-.43,1.22-1.23,2.31-2.52,3.45,3.13,6.03,5.42,6.95,5.37,2.15,19.16,4.62,22.69-2.57Z"/><path class="cls-26" d="M77.16,158.92c-.97,.81-1.61,1.93-2.65,2.67-1.9,1.35-4.32,1.21-5.83,3.13-1.57,2.01-1.77,5.2-1.55,7.63,.13,1.46,.37,3.1-.49,4.28-.75,1.03-2.39,1.5-2.76,2.82-.35,1.25,.76,2.64,.92,3.84,.41,3.09-3.9,4.79-2.78,8.23,.62,1.89,2.37,2.92,4.06,3.59,4.86,1.94,10.25,4.41,15.56,4.48,2.43,.03,3.51-1.6,4.36-3.8,.85-2.21,1.14-4.64,.82-6.98-.12-.87-.47-1.8-.21-2.68,.17-.59,.58-1.09,.85-1.62,.38-.73,.61-1.52,.71-2.34,.26-2.18-.49-4.18-1.53-6.01-.7-1.23-1.52-2.47-1.76-3.91-.23-1.42,.32-2.57,.76-3.88,.62-1.86,.58-3.86-.11-5.67-1.18-3.12-5.23-6.39-8.38-3.78Z"/></g><g><g><polygon class="cls-13" points="2.62 108.11 65.59 92.23 201.21 104.32 201.21 101.65 65.27 89.73 2.62 105 2.62 108.11"/><polygon class="cls-13" points="3.26 133.97 66.48 108.81 201.21 129.01 201.21 126.34 66.15 106.32 2.62 131.11 2.62 134.31 3.26 133.97"/><polygon class="cls-13" points=".18 250.4 70.87 184.19 195.03 233.57 195.03 236.24 71.19 186.69 .18 253.61 .18 250.4"/></g><g><rect class="cls-13" x="13.55" y="131.11" width=".79" height="102.58" transform="translate(-16.08 1.95) rotate(-5.07)"/><rect class="cls-13" x="28.7" y="123.3" width=".79" height="98.2" transform="translate(-12.75 2.64) rotate(-4.27)"/><rect class="cls-13" x="42.17" y="118.29" width=".79" height="91.72" transform="translate(-9.18 2.66) rotate(-3.23)"/><rect class="cls-13" x="52.85" y="113.69" width=".79" height="86.71" transform="translate(-7.32 2.67) rotate(-2.69)"/><rect class="cls-13" x="68.01" y="107.7" width=".79" height="78.03" transform="translate(-8.15 4.09) rotate(-3.23)"/><rect class="cls-13" x="85.99" y="110.98" width=".79" height="80.88" transform="translate(-4.21 2.48) rotate(-1.6)"/><rect class="cls-13" x="104.6" y="113.62" width=".79" height="85.46" transform="translate(-1.59 1.08) rotate(-.59)"/><rect class="cls-13" x="88.24" y="163.39" width="89.52" height=".79" transform="translate(-33.36 293.57) rotate(-88.88)"/><rect class="cls-13" x="100.27" y="167.83" width="97.76" height=".79" transform="translate(-25.06 310.36) rotate(-87.65)"/><rect class="cls-13" x="115.64" y="172.19" width="100.17" height=".79" transform="translate(-13.51 331.1) rotate(-87.65)"/><rect class="cls-13" x="132.85" y="177.32" width="103.6" height=".79" transform="translate(-5.26 349.79) rotate(-86.08)"/><rect class="cls-13" x="73.6" y="159.02" width="90.2" height=".79" transform="translate(-41.4 277.18) rotate(-89.66)"/><polygon class="cls-13" points="0 223.28 2.56 248.09 3.34 248.01 .07 216.3 0 223.28"/></g></g><g><g><path class="cls-6" d="M78.58,208.97s1.73,1.48,1.58,4.11-1.9,4.91-3.07,5.82-5.84,2.36-6.57,1.78-1.63-2.58-1.63-2.58c0,0-2.07-4.28,0-6.91,2.07-2.63,9.69-2.21,9.69-2.21Z"/><path class="cls-6" d="M97.34,206.8s2.12,.83,2.85,3.36c.73,2.53-.18,5.26-.98,6.5s-4.74,4.16-5.62,3.84c-.88-.31-2.39-1.9-2.39-1.9,0,0-3.37-3.36-2.27-6.52s8.42-5.28,8.42-5.28Z"/><path class="cls-21" d="M53.47,118.86s4.41,51.13,12.12,92.26c0,0,2.2,6.24,3.3,6.98s7.69,1.03,8.82-5.29c.65-3.61,1.89-6.46,1.52-9.76s-.28-16.47-.65-24.8c-.29-6.48,1.76-26.58,2.68-35.17,.05-.43,.67-.41,.7,.02,.6,8.86,2.04,30.05,2.76,37.72,0,0,4.25,25.83,4.69,30.71,.9,10.02,9.12,7.37,10.54-1.8,.31-2.02,3.34-23.04,2.96-35.94-.6-20.6,2.06-66.04,0-67.97-2.06-1.92-12.34-1.53-14.54-3.19-2.2-1.67-12.12-4.97-19.46-1.67-7.34,3.3-15.42,17.9-15.42,17.9Z"/><path class="cls-9" d="M77.91,127.67c-.17,0-.33-.11-.38-.28-1.07-3.47-.06-9.38-.01-9.63,.04-.22,.24-.37,.46-.32,.22,.04,.36,.24,.32,.46-.01,.06-1.03,5.97-.01,9.26,.06,.21-.05,.43-.26,.49-.04,.01-.08,.02-.12,.02Z"/><path class="cls-6" d="M40.41,61.26s2.28,26.91,4.26,31.56c1.98,4.65,8.79-3.96,8.79-3.96l5.2-23.79-10.26-8.01-7.99,4.2Z"/><path class="cls-6" d="M106.75,52.97s2.78,32.41-.9,37.77c-3.68,5.37-8.43,3.68-8.43,3.68,0,0-4.75-26.22-3.99-29.74,.77-3.53,11.02-16.34,12.09-14.35s1.23,2.64,1.23,2.64Z"/><path class="cls-19" d="M66.2,45.23s-18.08-3.14-23.03,4.3c-3.7,5.57-3.5,12.59-3.5,12.59l9.68,6.56s3.23,34.76-.36,44.44c-3.58,9.68,41.93,8.96,43.01,8.6s13.62-4.66,13.98-8.24-1.79-31.32-3.94-41.28c-2.15-9.97,6.43-19.59,6.43-19.59,0,0-4.64-14.81-13.6-12.99-8.96,1.82-14.69,9.76-28.67,5.61Z"/><path class="cls-6" d="M63.63,49.16s3.26-3.26,3.75-6.69c.49-3.43,1.14-5.71,1.14-5.71l.82-3.26,5.55-2.28,7.34,1.31s1.14,8.16,3.43,11.75c2.28,3.59,3.26,3.75,2.45,4.9-.82,1.14-8.81,4.24-13.05,3.75s-11.42-3.75-11.42-3.75Z"/><path class="cls-4" d="M69.61,31.21l-2.89,13.44s8.04-5.47,18.01-2.2c-2.07-6.63-2.79-11.24-2.79-11.24,0,0-10.24-.73-10.73-.08l-1.6,.08Z"/><path class="cls-14" d="M58.67,36.54c2.62-11.03,2.38-18.94,3.58-21.1,1.2-2.16-.83-6.71,1.38-9.59,2.21-2.88,7.61-6.47,12.1-5.75,4.49,.72,10.25-.72,14.08,9.83,3.84,10.55,3.88,15.5,5.18,20.93,1.3,5.44,3.18,9.65,3.21,11.22,.16,7.12-.5,17.28,1.05,20.64,1.56,3.36-11.24,28.79-30.18,20.88-18.94-7.91-10.99-13.22-13.01-18.27-.77-1.92-8.06-6.81-3.75-13.18,4.31-6.37,3.73-4.59,6.35-15.61Z"/><path class="cls-15" d="M66.73,62.55c-.06,0-.12-.01-.17-.04-.2-.1-.28-.33-.18-.53,3.52-7.28,1.22-41.33,1.2-41.67-.01-.22,.15-.41,.37-.42,.22-.02,.41,.15,.42,.37,.1,1.41,2.33,34.6-1.28,42.07-.07,.14-.21,.22-.36,.22Z"/><path class="cls-15" d="M77.44,9.49c-.2,0-.38-.16-.39-.36-.58-6.82-2.98-8.38-3-8.4-.18-.12-.24-.36-.13-.54,.11-.19,.35-.25,.54-.14,.11,.07,2.76,1.71,3.38,9.01,.02,.22-.14,.41-.36,.43h-.03Z"/><path class="cls-28" d="M49.35,69.08c-.2,0-.38-.16-.39-.36-.34-4.12-.84-10.62-.84-10.62l.79-.06s.5,6.51,.84,10.62c.02,.22-.14,.41-.36,.43h-.03Z"/><path class="cls-28" d="M101.24,66.43s-.02,0-.03,0c-.22-.02-.38-.21-.36-.42,.67-8.58-.7-17.75-.71-17.84-.03-.22,.12-.42,.33-.45,.21-.03,.42,.12,.45,.33,.01,.09,1.39,9.35,.72,18.02-.02,.21-.19,.36-.39,.36Z"/><path class="cls-9" d="M75.18,178.11c-.07,0-.13-.02-.19-.05-.19-.11-.26-.35-.15-.54,2.65-4.67,3.35-9.3,3.35-9.35,.03-.22,.24-.36,.45-.33,.22,.03,.37,.23,.33,.45-.03,.19-.73,4.81-3.45,9.62-.07,.13-.21,.2-.34,.2Z"/><path class="cls-9" d="M94.58,177.33s-.06,0-.09-.01c-2.8-.64-3.77-1.76-6.36-4.77-.39-.45-.81-.94-1.28-1.48-.14-.16-.13-.41,.04-.56,.16-.14,.41-.13,.56,.04,.47,.54,.9,1.03,1.29,1.48,2.6,3.02,3.39,3.93,5.93,4.51,.21,.05,.35,.26,.3,.47-.04,.18-.2,.31-.39,.31Z"/><path class="cls-9" d="M93.35,208.74c-.22,0-.39-.17-.4-.39-.09-6.57-4.58-18.85-4.63-18.97-.07-.21,.03-.43,.23-.51,.21-.07,.43,.03,.51,.23,.19,.51,4.58,12.53,4.67,19.24,0,.22-.17,.4-.39,.4h0Z"/><path class="cls-9" d="M83.06,156.19c-.22,0-.4-.18-.4-.4,0-3.75-.45-13.72-2.47-16.12-.67,.35-2.49,1.24-4.92,1.94-.21,.06-.43-.06-.49-.27s.06-.43,.27-.49c2.92-.85,5-2.01,5.02-2.02,.15-.08,.34-.06,.46,.05,2.88,2.63,2.91,16.32,2.91,16.9,0,.22-.18,.4-.4,.4Z"/><path class="cls-9" d="M72.34,207.2c-.17,0-.33-.11-.38-.29-.06-.21-.11-.48-.17-.81-.25-1.4-.72-4-3.27-9.34-3.14-6.58-4.38-10.87-4.39-10.91-.06-.21,.06-.43,.27-.49,.21-.06,.43,.06,.49,.27,.01,.04,1.24,4.27,4.35,10.79,2.59,5.43,3.08,8.1,3.34,9.54,.06,.31,.1,.55,.15,.74,.06,.21-.06,.43-.28,.49-.04,.01-.07,.01-.11,.01Z"/></g><path class="cls-28" d="M84.11,111.39c-.11,0-.22-.05-.3-.14-.14-.17-.12-.42,.05-.56,3.64-3.08,8.76-13.05,11.23-17.84l.32-.63c.1-.19,.34-.27,.53-.17,.19,.1,.27,.34,.17,.53l-.32,.63c-2.49,4.83-7.66,14.89-11.42,18.08-.07,.06-.17,.09-.26,.09Z"/><path class="cls-28" d="M60.9,109.77c-.21,0-.39-.17-.4-.38,0-.22,.16-.4,.38-.41,21.4-.75,30.24-21.97,30.33-22.19,.08-.2,.31-.3,.52-.22,.2,.08,.3,.31,.22,.51-.09,.22-9.12,21.91-31.04,22.68h-.01Z"/></g><g><g><path class="cls-12" d="M138.25,231.27s-.02,18.43-.46,22.67c-.44,4.23-.1,4.83-.11,5.3s1.03,1.44,1.62,1.68,1.52,.62,1.88,.04c.37-.58,1.21-1.12,1.44-1.62s-.35-6.46,.23-11.18,3.58-7.6,3.54-11.02c-.05-3.42-7.64-6.99-7.64-6.99l-.49,1.12Z"/><path class="cls-12" d="M139.68,256.19l-1.38-.27-.66,.21-.29,.62c-.24,.5-.61,.6-.29,1.51s.99,1.88,1.57,2.36,1.52,.73,1.85,.87,2.19-2.78,2.19-2.78l-2.98-2.51Z"/></g><g><path class="cls-5" d="M139.44,236.58c-.45,0-.83-.34-.9-.78-.57-3.83-.97-8.6-.83-12,.16-3.63,.25-3.47-.03-9.3-.28-5.83,.19-6.78,.98-9.77s1.89-3.47,1.1-6.15c-.79-2.68-.54-3.61-2.16-4.33s-2.09-.56-3.04,.86c-.15,.22-.26,.38-.35,.5-.51,.67-1.56,.35-1.65-.48-.14-1.27-.05-2.81,.74-4.21,1.8-3.18,1.15-3.1,1.22-5.58s.58-1.88,2.72-5.54c2.14-3.66,2.35-4.42,3.45-5.67,1.11-1.24,1.31-1.52,4.35-1.59s9.05,1.39,9.53,2.25,3.45,3.3,4.21,3.77,1.66,2.17,2.35,3.7,3.73,2.71,3.52,5.27c-.21,2.56,.07,4.01-1.66,4.59-1.73,.59-2.69,1.9-2.07,3.83s.62,5.6,.62,6.43,4.01,1.87,5.18,4.42c1.17,2.56,.48,3.73,3.32,7.95,2.83,4.21,3.37,6.88,3.8,10.02,.43,3.13,1.52,5.52,3.04,7.67s2.07,2.69,2.07,2.69c0,0,1.38,1.31,1.38,1.73,0,0,7.04,15.52,6.65,19.05s-3.92,16.97-5.88,18.01c0,0-15.53,7.49-19.33,7.05-2.72-.31-8.07-1.22-12.15-4.04-4.08-2.83-5.49-9.07-5.49-9.07,0,0-.38-4.59-.6-5.89s.37-6.6,.84-7.66-.35-6.01-.35-6.01c0,0-2.26-6.36-2.72-6.95-.46-.59-1.87-4.78-1.87-4.78Z"/><path class="cls-23" d="M139.77,198.58s12.3-4.33,19.75,1.64c0,0-15.55-2.68-19.75,1.43v-3.07Z"/><path class="cls-11" d="M139.77,194.65c-.18,0-.34-.12-.38-.3-.3-1.17-.38-2.24-.43-2.94-.02-.26-.04-.55-.06-.62h.01c-.3-.97,.47-7.46,.49-7.52,.06-.21,.27-.34,.48-.28,.21,.06,.34,.27,.28,.48-.22,.82-.6,6.29-.54,6.99,.08,.16,.1,.41,.13,.89,.05,.68,.13,1.71,.41,2.8,.05,.21-.07,.43-.28,.48-.03,0-.07,.01-.1,.01Z"/><path class="cls-11" d="M160.73,193.34c-.21,0-.38-.16-.39-.37l-.03-.42c-.08-1.44-.24-4.11-1.13-5.73-.11-.19-.04-.43,.16-.54,.19-.11,.43-.04,.54,.16,.98,1.78,1.14,4.57,1.23,6.07l.03,.41c.01,.22-.15,.41-.37,.42h-.03Z"/><path class="cls-11" d="M143.55,237.04c-.14,0-.27-.07-.34-.2-1.57-2.78-2.41-7.81-3.08-11.85-.41-2.47-.88-5.27-1.3-5.61-.17-.14-.19-.39-.06-.56s.39-.19,.56-.06c.62,.5,.96,2.44,1.58,6.09,.67,3.98,1.49,8.94,2.99,11.59,.11,.19,.04,.43-.15,.54-.06,.03-.13,.05-.19,.05Z"/><path class="cls-11" d="M160.13,230c-.09,0-.19-.03-.26-.1-1.01-.88-4.86-7.04-4.7-10.5,.11-2.44-2.23-4.81-5.2-7.81-.84-.85-1.7-1.72-2.59-2.67-.15-.16-.14-.41,.02-.56s.41-.14,.56,.02c.88,.94,1.74,1.81,2.57,2.65,3.1,3.14,5.56,5.61,5.43,8.4-.14,3.1,3.54,9.08,4.43,9.86,.16,.14,.18,.39,.04,.56-.08,.09-.19,.14-.3,.14Z"/><path class="cls-5" d="M170.49,273.12c-2.66,.24-2.61,4.67-2.85,7.4-.08,.97-.34,3.75,.84,4.18,.68,.25,1.11-.16,1.4-.77,0,1.89,.35,3.83,.49,5.62,.17,2.09,.16,4.24-.28,6.3-.05,.28-.12,.55-.19,.82-.32,1.19-.8,2.35-1.49,3.37-.41,.61-1.29,1.2-1.88,1.79-.18,.18-.33,.35-.44,.52-.03,.05-.06,.1-.08,.15-.12,.25,.04,.46,.32,.6,.2,.11,.46,.18,.72,.23,.38,.07,.75,.05,.9-.05,0,0,.01,0,.02,0h-.02c-.19,.15-.38,.28-.57,.39-2.64,1.57-6.22,1.28-8.71,3.25-.8,.64-.46,1.15,.15,1.56-.69-.12-1.37-.26-2.07-.32-.24-.02-.49-.03-.74-.02-.61,.02-1.86,.12-2.1,.83-.3,.89,1.35,1.84,1.94,2.21,1.84,1.11,4,1.85,6.16,2.42,.93,.25,1.86,.47,2.77,.66,3.76,.82,7.71-.04,10.95-2.05,.19-.12,.38-.25,.57-.38,1.64-1.13,3.08-2.56,4.17-4.24,.15-.23,.3-.47,.44-.72,.99-1.73,1.47-3.5,1.6-5.35,.08-1.15,.03-2.33-.11-3.54-.41-3.64-1.1-7.27-1.97-10.83-.45-1.83-.97-3.63-1.57-5.42,0,0-3.96-9-8.38-8.61Z"/><path class="cls-11" d="M180.47,307.58c.15-.23,.3-.47,.44-.72,.99-1.73,1.47-3.5,1.6-5.35-.69,.55-1.33,1.17-1.92,1.75-.7,.68-1.46,1.38-2.3,1.87-1.01,.6-2.12,.89-3.38,.53-1.88-.54-2.83-2.37-4.55-3.02-.86-.33-1.92-.11-2.9,.16-.25,.07-.5,.14-.74,.2-.14,.04-.26,.08-.39,.11,.2,.11,.46,.18,.72,.23,.38,.07,.75,.05,.9-.05,0,0,.01,0,.02,0h-.02c-.19,.15-.38,.28-.57,.39-2.64,1.57-6.22,1.28-8.71,3.25-.8,.64-.46,1.15,.15,1.56-.69-.12-1.37-.26-2.07-.32-.24-.02-.49-.03-.74-.02-.61,.02-1.86,.12-2.1,.83-.3,.89,1.35,1.84,1.94,2.21,1.84,1.11,4,1.85,6.16,2.42,.93,.25,1.86,.47,2.77,.66,3.76,.82,7.71-.04,10.95-2.05,.19-.12,.38-.25,.57-.38,1.64-1.13,3.08-2.56,4.17-4.24Z"/><path class="cls-11" d="M170.88,301.6c0,.15,.09,.29,.21,.36h.02c.12,.07,.25,.06,.37-.02,1.06-.7,2.15-1.5,2.94-2.6,.67-.93,1.08-2.05,1.48-3.13,.11-.29,.22-.59,.33-.87,.05-.13,.04-.26-.04-.36-.09-.11-.25-.17-.41-.15-.16,.02-.28,.12-.34,.27-.11,.28-.22,.57-.33,.86-.32,.85-.64,1.73-1.11,2.5-.72,1.19-1.84,2.03-2.93,2.75-.13,.09-.2,.22-.19,.37Z"/><path class="cls-11" d="M172.9,296.38c-.15,.22-.04,.44,.12,.54h.02c.18,.11,.43,.1,.57-.12,1.04-1.6,1.64-3.4,1.8-5.33,.01-.14-.04-.26-.15-.34-.12-.08-.3-.1-.44-.03-.14,.07-.23,.19-.24,.35-.14,1.76-.7,3.41-1.68,4.92Z"/><path class="cls-11" d="M171.79,279.11c.13-.23,.02-.46-.16-.56-.18-.1-.42-.09-.56,.14-.74,1.28-1.18,2.69-1.31,4.18-.01,.13,.03,.23,.1,.3s.16,.11,.26,.12c.21,.02,.45-.11,.48-.39,.12-1.34,.52-2.61,1.19-3.79Z"/></g></g></g></g></g></svg>