<?xml version="1.0" encoding="UTF-8"?><svg id="Layer_2" xmlns="http://www.w3.org/2000/svg" xmlns:xlink="http://www.w3.org/1999/xlink" viewBox="0 0 234.59 266.07"><defs><style>.cls-1{fill:url(#linear-gradient);}.cls-2{mask:url(#mask);}.cls-3{filter:url(#luminosity-noclip-2);}.cls-4{fill:#00aaeb;}.cls-5{fill:#009045;}.cls-6{fill:#693d3d;}.cls-7{fill:#ebf7f7;}.cls-8{fill:#f2ffc5;}.cls-9{fill:#ffad7d;}.cls-10,.cls-11,.cls-12{fill:#fffcfc;}.cls-13,.cls-14{fill:#fff;}.cls-15{fill:#fff2ee;}.cls-16{fill:#ffe9de;}.cls-17{fill:#848181;}.cls-18{fill:#b4b4b4;}.cls-19{fill:#b8724d;}.cls-20{fill:#b4cbfc;}.cls-21{fill:#666;}.cls-22{fill:#ab6b59;}.cls-23{fill:#bcbcbc;}.cls-24{fill:#b2b2b2;}.cls-25{fill:#aa8274;}.cls-26{fill:#ccc;}.cls-27{fill:#cc7452;}.cls-28{fill:#cc6652;}.cls-29{fill:#ad766a;}.cls-30{fill:#cadee3;}.cls-31{fill:#d3e8e8;}.cls-32{fill:#252730;}.cls-33{fill:#404041;}.cls-34{fill:#424242;}.cls-35{fill:#444;}.cls-36{fill:#1b75b8;}.cls-37{fill:#727272;}.cls-38{fill:#88c23f;}.cls-39{fill:#6d6d6d;}.cls-40{fill:#636363;}.cls-41{fill:#565656;}.cls-42{fill:#573737;}.cls-43{fill:#4a4747;}.cls-44{fill:#2a2e4a;}.cls-45{fill:#2d2d2d;}.cls-46{fill:#37b04a;}.cls-47{fill:#606060;}.cls-48{fill:#7a5f57;}.cls-11{opacity:.5;}.cls-14{opacity:.9;}.cls-12{opacity:.7;}</style><filter id="luminosity-noclip-2" x="-5250.82" y="-2287.67" width="6791.34" height="2881.84" color-interpolation-filters="sRGB" filterUnits="userSpaceOnUse"><feFlood flood-color="#fff" result="bg"/><feBlend in="SourceGraphic" in2="bg"/></filter><linearGradient id="linear-gradient" x1="104.75" y1="198.03" x2="104.75" y2="594.17" gradientTransform="matrix(1, 0, 0, 1, 0, 0)" gradientUnits="userSpaceOnUse"><stop offset="0" stop-color="#fff"/><stop offset="0" stop-color="#f5f5f5"/><stop offset="0" stop-color="#c7c7c7"/><stop offset=".01" stop-color="#9c9c9c"/><stop offset=".02" stop-color="#777"/><stop offset=".02" stop-color="#565656"/><stop offset=".03" stop-color="#3b3b3b"/><stop offset=".04" stop-color="#252525"/><stop offset=".04" stop-color="#141414"/><stop offset=".05" stop-color="#080808"/><stop offset=".07" stop-color="#010101"/><stop offset=".11" stop-color="#000"/></linearGradient><mask id="mask" x="-5250.82" y="-2287.67" width="6791.34" height="2881.84" maskUnits="userSpaceOnUse"><g class="cls-3"><rect class="cls-1" x="3.62" y="198.03" width="202.26" height="396.14" rx="12" ry="12"/></g></mask></defs><g id="New_components"><g class="cls-2"><g><path class="cls-43" d="M10.83,241.39c-1.09,0-1.98-.88-1.98-1.98v-78.25c0-1.09,.88-1.98,1.98-1.98s1.98,.88,1.98,1.98v78.25c0,1.09-.88,1.98-1.98,1.98Z"/><path class="cls-43" d="M22.04,233.64c-1.09,0-1.98-.88-1.98-1.98v-70.5c0-1.09,.88-1.98,1.98-1.98s1.98,.88,1.98,1.98v70.5c0,1.09-.88,1.98-1.98,1.98Z"/><g><g><g><polygon class="cls-18" points="176.33 187.09 6.17 187.09 7.61 142.55 182.73 142.55 176.33 187.09"/><g><path class="cls-26" d="M169.11,152.97c-2.98,1.66-5.74,3.58-9.11,4.29-3.25,.69-6.65,.57-9.92,.13-6.59-.87-12.9-3.18-19.38-4.59-3.12-.68-6.3-1.16-9.5-1.16-3.15,0-6.27,.45-9.38,.94-6.38,1.02-13.16,2.49-19.46,.25-3.04-1.08-5.6-3.22-8.63-4.32-3.05-1.11-6.33-.96-9.48-.55-6.6,.84-13.33,1.89-19.71,3.9-3.16,1-6.16,2.36-9.15,3.82-3.15,1.54-6.34,2.97-9.82,3.38-3.48,.41-7,0-10.46-.4-3.52-.41-7.03-.74-10.57-.88-2.54-.1-5.08-.12-7.63-.05,.04,.24,.07,.49,.09,.74,.89-.02,1.79-.04,2.68-.04,3.62,0,7.25,.16,10.86,.48,3.46,.31,6.9,.87,10.37,1.02,3.3,.14,6.55-.19,9.68-1.33,3.04-1.11,5.88-2.72,8.84-4.04,6.26-2.79,13-4.04,19.68-5.09,3.35-.53,6.76-1.21,10.17-1.05,1.82,.08,3.61,.46,5.29,1.23,1.41,.64,2.73,1.48,4.08,2.24,2.63,1.49,5.41,2.41,8.39,2.71,3.12,.31,6.26,.02,9.35-.42,6.52-.92,12.92-2.34,19.53-1.48,6.53,.85,12.79,3.11,19.21,4.53,6.01,1.33,12.76,2.19,18.58-.42,2.92-1.31,5.5-3.33,8.47-4.54,2.99-1.22,6.19-1.85,9.4-1.85l.1-.72c-4.36-.02-8.69,1.08-12.59,3.26Z"/><path class="cls-29" d="M182.6,143.43c-5.16,1.47-10.31,2.94-15.47,4.41-5.64,1.61-11.38,3.45-17.29,3.35-5.56-.1-10.91-1.89-16.33-2.99-2.69-.55-5.39-.89-8.13-.91-2.96-.02-5.9,.1-8.84-.43-4.1-.75-7.98-2.36-11.69-4.3h-1.55c3.47,1.89,7.07,3.54,10.87,4.53,2.73,.71,5.49,.97,8.3,.96,2.97,0,5.89,0,8.83,.49,5.49,.92,10.81,2.77,16.37,3.28,5.84,.53,11.51-.94,17.1-2.53,5.9-1.68,11.81-3.37,17.71-5.05l.11-.8Z"/><path class="cls-29" d="M163.65,142.55c-2.51,.75-4.98,1.65-7.5,2.41-1.79,.54-3.59,.86-5.45,.86-1.83,0-3.65-.23-5.47-.47-3.69-.49-7.35-1.18-10.98-2.05-.99-.24-1.98-.49-2.97-.76h-2.7c4.95,1.46,9.99,2.57,15.09,3.32,3.55,.52,7.2,1.06,10.75,.3,1.76-.38,3.46-1.01,5.17-1.61,1.72-.6,3.45-1.14,5.21-1.61,.55-.15,1.11-.28,1.66-.41h-2.82Z"/><path class="cls-26" d="M54.79,142.55h-.74c.08,.49-.07,1.03-.37,1.53-.55,.9-1.37,1.48-2.25,1.96-3.52,1.91-7.56,2.23-11.29,3.48-1.85,.62-3.46,1.59-5.16,2.55-1,.56-2.03,1.03-3.17,1.15-1.08,.12-2.17-.03-3.24-.12-4.63-.42-9.27-.84-13.9-1.26-2.43-.22-4.87-.44-7.3-.66,0,.25-.01,.49-.03,.74,7.26,.66,14.53,1.32,21.79,1.97,1.14,.1,2.28,.19,3.41-.03,.99-.2,1.92-.65,2.8-1.15,.94-.53,1.84-1.12,2.8-1.59,1.03-.5,2.11-.88,3.2-1.2,2.03-.6,4.11-.99,6.15-1.57,1.89-.53,3.98-1.2,5.55-2.47,.92-.74,1.89-2.08,1.78-3.33Z"/><path class="cls-26" d="M42.21,142.55c-.72,.3-1.5,.49-2.19,.72-2.71,.91-5.43,1.83-8.14,2.74-1.24,.42-2.47,.86-3.74,1.15-1.35,.3-2.71,.33-4.08,.27-2.79-.12-5.58-.37-8.36-.66-2.79-.29-5.57-.64-8.34-1.06,0,.25,0,.5,.02,.74,2.68,.4,5.36,.74,8.05,1.02,3.21,.33,6.47,.7,9.7,.71,3.12,.01,6.02-1.16,8.95-2.15,1.56-.52,3.11-1.05,4.67-1.57,1.38-.47,2.84-.84,4.16-1.46,.27-.13,.54-.28,.78-.46h-1.48Z"/><path class="cls-26" d="M92.48,160.55c-.76-2.92-3.54-4.53-6.08-5.41-1.97-.68-3.96-1.44-5.96-2.02-2.03-.59-4.18-.6-6.26-.38-3.47,.36-6.92,1.13-10.31,1.97-6.93,1.71-13.53,4.42-20.32,6.62-3.41,1.1-6.89,2.03-10.43,2.45-3.68,.44-7.38,.29-11.06-.04-3.67-.33-7.32-.83-11-1.08-1.35-.09-2.73-.19-4.11-.19,0,.25-.02,.5-.04,.75,.8,0,1.6,.04,2.38,.07,3.54,.16,7.07,.61,10.6,.98,3.42,.35,6.87,.63,10.31,.49,3.28-.14,6.52-.72,9.7-1.57,6.43-1.72,12.57-4.4,18.94-6.33,3.37-1.02,6.79-1.86,10.23-2.54,3.04-.6,6.2-1.23,9.3-.88,1.53,.18,9.59,2.7,11.49,4.37,1.05,.92,1.95,2.18,2.07,3.65,.13,1.49-.57,2.86-1.59,3.84-2.43,2.33-6.17,2.11-9.23,2.1-3.52-.02-7.03-.23-10.55-.32-3.46-.09-6.93-.07-10.37,.36-3.34,.41-6.61,1.24-9.86,2.1-3.32,.88-6.64,1.77-10.02,2.33-3.49,.58-7.01,.86-10.54,1-3.48,.13-6.96,.12-10.44,.08-3.19-.04-6.4-.04-9.58-.32-.98-.09-1.95-.2-2.92-.36v.74c2.35,.37,4.74,.51,7.11,.58,3.6,.1,7.21,.14,10.81,.12,7.29-.04,14.53-.59,21.64-2.38,3.49-.88,6.94-1.91,10.46-2.61,3.71-.74,7.47-.97,11.24-.94,3.75,.02,7.49,.26,11.23,.34,3.19,.07,6.86,.39,9.83-1.1,2.29-1.15,4.04-3.73,3.32-6.47Z"/><path class="cls-26" d="M163,177.25c-3.29,.14-6.46-.38-9.58-1.48-2.96-1.04-5.78-2-8.92-2.14-3.16-.14-6.38,.18-9.5-.54-3.09-.72-5.63-2.7-8.39-4.22-4.9-2.7-10.49-3.96-16.02-3.7-2.79,.13-5.56,.64-8.22,1.54-2.84,.96-5.45,2.46-8.15,3.77-2.98,1.44-6.05,2.36-9.32,2.66-3.16,.29-6.33,.11-9.48-.16-3.19-.27-6.38-.63-9.58-.73-3.28-.1-6.55,.13-9.8,.52-6.71,.81-13.36,2.12-20.07,2.94-9.78,1.19-19.62,1.83-29.46,1.92-.02,.24-.04,.49-.05,.73,8.29-.07,16.58-.53,24.83-1.39,6.59-.68,13.12-1.72,19.67-2.75,3.42-.54,6.85-1.01,10.3-1.19,3.25-.17,6.5,0,9.74,.28,6.18,.54,12.54,1.39,18.63-.27,2.9-.79,5.55-2.24,8.24-3.59,2.75-1.38,5.56-2.48,8.56-3.06,5.78-1.12,11.88-.46,17.32,1.88,2.84,1.22,5.31,3.13,8.09,4.46,2.74,1.31,5.65,1.56,8.62,1.58,3.28,.03,6.46,.03,9.62,1.06,2.91,.94,5.68,2.09,8.72,2.46,6.32,.76,12.65-.99,18.59-3.11,.25-.09,.5-.18,.75-.27l.12-.82c-4.94,1.82-10.02,3.39-15.26,3.61Z"/><path class="cls-26" d="M34.71,187.09h2.2c6.71-2.24,14.17-3.28,20.51,0h1.49c-7.35-4.55-16.43-2.9-24.19,0Z"/><path class="cls-29" d="M152.53,184.8c-3.98,.05-8.01,.08-11.92-.89-3.48-.86-6.75-2.42-10.16-3.5-1.84-.59-3.74-1.03-5.67-1.13-1.33-.06-3.56-.25-4.36,1.17-.06,.1-.07,.27,0,.37,2.62,3.65,6.72,4.84,10.69,6.27h2.13c-1.39-.57-2.82-1.05-4.23-1.56-2.9-1.05-5.9-2.3-7.85-4.9,.46-.54,1.33-.56,1.97-.6,.86-.06,1.73-.03,2.59,.06,1.7,.18,3.38,.64,5.01,1.18,3.25,1.07,6.38,2.53,9.7,3.35,7,1.74,14.22,.32,21.29,1.22,1.83,.23,3.64,.63,5.38,1.25h1.95c-5.08-2.39-11.01-2.36-16.51-2.3Z"/><path class="cls-29" d="M93.35,145.13c-2.72,.78-5.55,.25-8.21-.51-2.29-.65-4.53-1.5-6.83-2.07h-4.78c.8,.06,1.6,.14,2.4,.27,3.26,.51,6.33,1.78,9.51,2.65,2.94,.8,6.19,1.27,9.09,.04,1.23-.52,2.05-1.55,2.07-2.95h-.7c-.04,1.52-1.23,2.21-2.54,2.58Z"/><path class="cls-26" d="M84.06,158.11c-1.12-.44-2.35-.62-3.52-.8-1.14-.18-2.29-.31-3.45-.39-2.44-.16-4.9-.09-7.34,.21-5.28,.65-10.4,2.36-15.07,5.04-.42,.11-.72,.56-.75,1.06-.05,.89,.77,1.32,1.49,1.43,1.29,.2,2.64,.17,3.95,.22,1.4,.06,2.79,.1,4.19,.13,5.65,.12,11.34,.11,16.98-.33,1.82-.14,4.48-.3,5.61-2.1,1.18-1.87-.44-3.83-2.09-4.48Zm1.64,3.81c-.37,.87-1.33,1.31-2.15,1.54-2.19,.64-4.59,.58-6.85,.67-2.33,.09-4.66,.15-6.98,.17-2.65,.02-5.31,0-7.96-.08-1.3-.04-2.61-.09-3.91-.15-.64-.03-1.28-.05-1.91-.1-.26-.02-.55-.04-.8-.14-.19-.08-.33-.18-.42-.37-.4-.93,4.27-2.65,4.84-2.88,1.62-.67,3.28-1.24,4.97-1.69,3.38-.9,6.86-1.35,10.34-1.32,1.19,0,2.37,.07,3.55,.19,1.05,.11,2.09,.26,3.13,.45,.96,.18,1.99,.35,2.86,.85,.93,.53,1.8,1.69,1.3,2.85Z"/><path class="cls-26" d="M165.48,181.68c-5.71-.91-11.49,.11-17.22-.45-11.6-1.13-21.75-8.38-33.39-9.37-2.79-.24-5.61-.09-8.34,.6-2.61,.66-5.09,1.81-7.52,2.99-2.58,1.25-5.15,2.55-7.88,3.42-2.76,.88-5.62,1.35-8.5,1.55-11.58,.77-23.02-2.51-34.62-1.64-11.19,.84-21.98,4.41-32.5,8.33h2.1c8.54-3.13,17.22-5.94,26.2-7.15,5.68-.77,11.36-.72,17.06-.19,5.64,.52,11.25,1.35,16.92,1.48,5.47,.13,10.95-.49,16.07-2.6,5.18-2.14,10.01-5.32,15.64-5.99,11.58-1.37,22.05,5.51,32.96,8.28,2.69,.68,5.43,1.1,8.2,1.19,2.96,.1,5.91-.09,8.87-.09,4.9,0,10.14,.59,14.22,3.73,.52,.4,1.02,.85,1.47,1.33h.95c-2.74-3.17-6.7-4.78-10.69-5.42Z"/><path class="cls-29" d="M108.81,183.66c-4.02-.95-8.18,.29-11.84,2.02-.95,.45-1.87,.93-2.8,1.41h1.58c3.41-1.73,7.07-3.23,10.92-3,2.74,.16,4.99,1.36,7,3h1.15c-1.75-1.58-3.69-2.89-6-3.43Z"/><path class="cls-29" d="M110.67,158.41c.46-.28,.93-.54,1.42-.76,1.01-.47,2.08-.81,3.17-1.05,2.16-.48,4.39-.53,6.57-.32,4.94,.48,9.64,2.33,14.41,3.66,4.58,1.28,9.29,2.1,14.02,2.3,4.7,.2,9.44-.23,14-1.48,4.77-1.3,9.11-3.94,13.91-5.14,.91-.23,1.82-.39,2.75-.47l.11-.75c-4.82,.4-9.14,2.91-13.65,4.58-4.75,1.77-9.78,2.55-14.81,2.56-5.06,.01-10.11-.73-15.03-2.02-4.93-1.29-9.73-3.22-14.79-3.88-4.34-.57-9.04-.13-12.82,2.37-.57,.38-1.33,.91-1.01,1.73,.27,.7,1.11,.94,1.75,1.04,2.74,.43,5.48,.77,8.22,1.25,2.5,.44,5.05,.83,7.48,1.6,1.22,.39,2.36,.93,3.45,1.62,1.07,.69,2.11,1.44,3.27,1.96,2.11,.95,4.42,1.09,6.68,1.12,2.57,.04,5.08,.1,7.62,.54,4.92,.86,9.75,2.5,14.77,2.6,2.52,.05,5.02-.37,7.48-.89,2.67-.57,5.34-1.18,8.01-1.77l1.35-.3,.11-.78c-1.78,.39-3.56,.79-5.35,1.18-2.48,.55-4.97,1.17-7.48,1.54-5.03,.74-9.86-.37-14.75-1.48-2.31-.52-4.64-1.01-7-1.24-2.33-.22-4.67-.06-7-.25-1.19-.09-2.37-.29-3.5-.69-1.16-.41-2.2-1.1-3.23-1.78-1.99-1.32-4.04-2.15-6.33-2.66-2.46-.56-4.96-.99-7.45-1.4-1.27-.21-2.54-.4-3.81-.59-.58-.08-1.15-.16-1.73-.24-.51-.07-1.22-.06-1.65-.41-.68-.55,.43-1.1,.84-1.35Z"/><path class="cls-29" d="M157.61,164.02c-1.14,.03-3.5-.35-3.65,1.44-.05,.59,.27,.97,.76,1.19,.89,.41,1.93,.62,2.88,.83,3.71,.84,7.58,.86,11.3,.08,3.72-.78,7.14-2.63,10.77-3.71l.11-.8c-2.93,.85-5.69,2.23-8.6,3.15-3.39,1.07-6.96,1.42-10.47,1.05-1.81-.19-3.65-.56-5.38-1.16-.33-.12-.46-.09-.57-.45-.13-.43,.12-.64,.51-.78,.4-.14,.88-.09,1.29-.09,.97,0,1.93-.04,2.9-.11,3.53-.27,7.02-1.02,10.37-2.21,3.54-1.26,6.96-2.93,10.6-3.88l.11-.79c-3.71,.93-7.18,2.62-10.78,3.92-3.92,1.41-8.01,2.21-12.15,2.33Z"/></g></g><path class="cls-43" d="M184.68,236.76c-.1,.02-.21,.02-.31,.02-1.16,0-2.1-1-2.09-2.23l.39-91.08c0-1.22,.95-2.21,2.11-2.21,1.16,0,2.1,1,2.09,2.23l-.39,91.08c0,1.11-.79,2.03-1.8,2.18Z"/><path class="cls-43" d="M171.7,244.36c-.1,.02-.21,.02-.31,.02-1.16,0-2.1-1-2.09-2.23l.39-91.08c0-1.22,.95-2.21,2.11-2.21,1.16,0,2.1,1,2.09,2.23l-.39,91.08c0,1.11-.79,2.03-1.8,2.18Z"/><rect class="cls-43" x="0" y="139.61" width="188.54" height="5.87" rx="2.7" ry="2.7"/></g><g><ellipse class="cls-31" cx="165.28" cy="18.95" rx="20.06" ry="15.85" transform="translate(60.76 148.37) rotate(-57.62)"/><ellipse class="cls-10" cx="165.28" cy="18.95" rx="17.75" ry="14.02" transform="translate(60.76 148.37) rotate(-57.62)"/><path class="cls-34" d="M171.47,7.71l-6.82,12.33c-.28,.5,.48,.77,.76,.26l6.75-12.2c.28-.5-.4-.9-.68-.39Z"/><path class="cls-34" d="M160.33,13.73l4.35,6.22c.18,.25,.87-.13,.69-.38l-4.35-6.22c-.5-.52-.87,.13-.69,.38Z"/><path class="cls-31" d="M166,19.8c.05,.51-.3,1-.79,1.09-.48,.09-.92-.26-.97-.77-.05-.51,.3-1,.79-1.09,.48-.09,.92,.26,.97,.77Z"/><path class="cls-31" d="M172.18,4.31c-.08,.38-.44,.68-.82,.68s-.61-.31-.53-.68,.44-.68,.82-.68,.61,.31,.53,.68Z"/><path class="cls-31" d="M152.98,18.74c-.08,.38-.44,.68-.82,.68s-.61-.31-.53-.68c.08-.38,.44-.68,.82-.68s.61,.31,.53,.68Z"/><path class="cls-31" d="M178.87,20.03c-.08,.38-.44,.68-.82,.68s-.61-.31-.53-.68c.08-.38,.44-.68,.82-.68s.61,.31,.53,.68Z"/><path class="cls-31" d="M160.96,33.58c-.08,.38-.44,.68-.82,.68s-.61-.31-.53-.68,.44-.68,.82-.68,.61,.31,.53,.68Z"/></g><g><g><g><polygon class="cls-34" points="85.9 138.18 72.71 138.18 74.1 118.87 87.3 118.87 85.9 138.18"/><polygon class="cls-45" points="87.18 120.55 87.3 118.87 74.1 118.87 73.98 120.55 87.18 120.55"/><path class="cls-34" d="M137.11,119.17H24.25c-1.36,0-2.38-1.1-2.28-2.45l4.79-66.22c.1-1.35,1.28-2.45,2.63-2.45h112.87c1.36,0,2.38,1.1,2.28,2.45l-4.79,66.22c-.1,1.35-1.28,2.45-2.63,2.45Z"/><path class="cls-7" d="M137.96,115.91c.03-.13,.06-.27,.07-.4l4.63-63.43c.1-1.34-.92-2.43-2.28-2.43H31.22c-1.36,0-2.53,1.09-2.63,2.43l-4.63,63.43c-.01,.14,0,.27,0,.4h113.99Z"/><path class="cls-34" d="M120.89,105.87H24.53l-1.15,10.58c-.09,.84,.57,1.57,1.41,1.57H120.89v-12.15Z"/><path class="cls-10" d="M135.46,117.94h-17.59l5.11-68.27,17.42-.03c1.34,0,2.35,1.09,2.26,2.43l-4.59,63.43c-.1,1.34-1.26,2.43-2.61,2.43Z"/><path class="cls-34" d="M101.36,136.59H57.48c-.88,0-1.64,.71-1.7,1.58-.06,.87,.6,1.58,1.47,1.58h43.88c.88,0,1.64-.71,1.7-1.58,.06-.87-.6-1.58-1.47-1.58Z"/></g><g><path class="cls-34" d="M123.39,48.05h-20.63c-.57,0-1.01-.42-.97-.94l.29-4.35c.03-.52,.53-.94,1.1-.94h20.63c.57,0,1.01,.42,.97,.94l-.29,4.35c-.03,.52-.53,.94-1.1,.94Z"/><ellipse class="cls-10" cx="117.19" cy="44.94" rx="2.8" ry="2.49" transform="translate(-7.71 32.62) rotate(-15.35)"/><path class="cls-10" d="M112.8,44.94c-.04,.59-.6,1.07-1.26,1.07s-1.15-.48-1.11-1.07c.04-.59,.6-1.07,1.26-1.07s1.15,.48,1.11,1.07Z"/></g><path class="cls-38" d="M127.73,53.94c-.06,.65-.65,1.17-1.32,1.16s-1.16-.56-1.1-1.21c.06-.65,.65-1.17,1.32-1.16,.67,.02,1.16,.56,1.1,1.21Z"/><path class="cls-46" d="M127.19,59.89c-.06,.65-.65,1.17-1.32,1.16-.67-.02-1.16-.56-1.1-1.21,.06-.65,.65-1.17,1.32-1.16,.67,.02,1.16,.56,1.1,1.21Z"/><path class="cls-4" d="M126.65,65.84c-.06,.65-.65,1.17-1.32,1.16-.67-.02-1.16-.56-1.1-1.21,.06-.65,.65-1.17,1.32-1.16,.67,.02,1.16,.56,1.1,1.21Z"/><path class="cls-36" d="M126.11,71.79c-.06,.65-.65,1.17-1.32,1.16-.67-.02-1.16-.56-1.1-1.21,.06-.65,.65-1.17,1.32-1.16,.67,.02,1.16,.56,1.1,1.21Z"/><path class="cls-20" d="M78.03,111.36c-.09,.97-.97,1.74-1.96,1.72-.99-.02-1.73-.83-1.64-1.8,.09-.97,.97-1.74,1.96-1.72s1.73,.83,1.64,1.8Z"/><path class="cls-28" d="M69.38,111.51c-.09,.97-.97,1.74-1.96,1.72-.99-.02-1.73-.83-1.64-1.8,.09-.97,.97-1.74,1.96-1.72,.99,.02,1.73,.83,1.64,1.8Z"/><path class="cls-34" d="M138.97,53.52h-9.67c-.2,0-.2,.31,0,.31h9.67c.2,0,.2-.31,0-.31Z"/><path class="cls-34" d="M135.95,54.7h-6.7c-.2,0-.2,.31,0,.31h6.7c.2,0,.2-.31,0-.31Z"/><path class="cls-34" d="M138.4,59.11h-9.67c-.2,0-.2,.31,0,.31h9.67c.2,0,.2-.31,0-.31Z"/><path class="cls-34" d="M135.38,60.3h-6.7c-.2,0-.2,.31,0,.31h6.7c.2,0,.2-.31,0-.31Z"/><path class="cls-34" d="M137.86,65.06h-9.67c-.2,0-.2,.31,0,.31h9.67c.2,0,.2-.31,0-.31Z"/><path class="cls-34" d="M137.36,71.01h-9.67c-.2,0-.2,.31,0,.31h9.67c.2,0,.2-.31,0-.31Z"/><path class="cls-34" d="M134.34,72.2h-6.7c-.2,0-.2,.31,0,.31h6.7c.2,0,.2-.31,0-.31Z"/><path class="cls-11" d="M106.58,109.02c-.69,0-.69,1.07,0,1.07s.69-1.07,0-1.07Z"/><path class="cls-11" d="M106.33,111.45c-.69,0-.69,1.07,0,1.07s.69-1.07,0-1.07Z"/><path class="cls-11" d="M106.06,113.81c-.69,0-.69,1.07,0,1.07s.69-1.07,0-1.07Z"/></g><g><polygon class="cls-31" points="72.27 98.08 71.84 105.84 118.95 105.84 119.06 98.08 72.27 98.08"/><path class="cls-31" d="M53.56,105.71c.09-.24,.17-.49,.26-.73-.09,.3,.63-1.77,.71-1.99,1.34-3.76,2.57-7.57,3.64-11.42,.9-3.24,3.27-11.46,1.18-11.83-1.37-.24-2.73,7.83-3.19,10.24-.17,.87-1.98,10.73-2.85,14.68-.08,.35-.15,.7-.22,1.05h.48Z"/><path class="cls-31" d="M50.77,103.77c.1,.64,.19,1.29,.26,1.94h1.66c.09-1.1,.15-2.2,.17-3.31,.05-2-.04-4-.43-5.97-.14-.72-1.04-5.39-2.37-4.28-1.06,.89-.48,3.18-.35,4.34,.26,2.44,.69,4.85,1.06,7.28Z"/><path class="cls-31" d="M110.11,99.47c.2,0,.2-.31,0-.31h-36.82c-.2,0-.2,.31,0,.31h36.82Z"/><path class="cls-31" d="M68.38,88.56c-1.15,.67-2.22,1.48-3.26,2.31-1.61,1.29-3.11,2.71-4.49,4.24-2.84,3.15-5.07,6.74-6.8,10.6h1.38c.03-.07,.07-.13,.12-.19,.02-.02,.05-.04,.08-.06,.84-1.11,1.73-2.19,2.66-3.23,2.68-3,5.67-5.69,8.31-8.72,.71-.82,1.39-1.66,2.03-2.54,.18-.25,1.32-1.78,1.42-2.49,.1-.78-1.17-.07-1.45,.09Z"/><path class="cls-31" d="M34.64,105.71h1.5c-.37-.73-.76-1.46-1.17-2.17-.72-1.26-1.53-2.47-2.51-3.54-.36-.39-2.68-2.95-3.08-1.76-.32,.95,.9,2.15,1.41,2.82,1.08,1.42,2.25,2.75,3.4,4.11,.15,.18,.3,.36,.44,.54Z"/><path class="cls-31" d="M36.1,104.77c.11,.31,.22,.62,.33,.94h.3c-.06-.31-.13-.62-.19-.93,.06,.22-.27-1.33-.31-1.5-.59-2.84-1.25-5.66-2.04-8.44-.66-2.34-2.29-8.33-3.72-7.78-.94,.37,1.26,5.88,1.88,7.55,.22,.6,2.81,7.39,3.76,10.17Z"/><path class="cls-31" d="M40.25,88.52c-.23-.52-.75,.4-.87,.6-.46,.85-.82,1.75-1.15,2.66-.51,1.4-.91,2.85-1.18,4.31-.58,3.03-.61,6.1-.22,9.15,.02,.16,.04,.31,.06,.47h.72c.08-1.42,.27-2.84,.53-4.25,.53-2.86,1.37-5.66,1.86-8.53,.13-.78,.24-1.56,.3-2.34,.02-.23,.15-1.6-.06-2.08Z"/><path class="cls-31" d="M111.06,94.46h-25.05c-.76,0-1.37-.64-1.32-1.4l.61-9.35c.05-.69,.62-1.23,1.32-1.23h25.05c.76,0,1.37,.64,1.32,1.4l-.61,9.35c-.05,.69-.62,1.23-1.32,1.23Z"/><path class="cls-7" d="M109.73,93.07h-22c-.67,0-1.2-.51-1.16-1.12l.54-7.47c.04-.55,.55-.99,1.16-.99h22c.67,0,1.2,.51,1.16,1.12l-.54,7.47c-.04,.55-.55,.99-1.16,.99Z"/><g><path class="cls-31" d="M58.8,77.35c.08-.22,.16-.44,.23-.66-.08,.27,.57-1.59,.64-1.8,1.2-3.39,2.32-6.82,3.28-10.29,.81-2.92,2.95-10.33,1.06-10.66-1.23-.22-2.46,7.05-2.88,9.23-.15,.78-1.78,9.66-2.57,13.22-.07,.31-.13,.63-.2,.95h.43Z"/><path class="cls-31" d="M57.41,73.79c.09,.58,.17,1.16,.24,1.75h1.49c.08-.99,.13-1.98,.16-2.98,.04-1.8-.04-3.61-.39-5.38-.13-.65-.94-4.86-2.13-3.86-.95,.8-.43,2.86-.32,3.91,.24,2.2,.62,4.37,.96,6.56Z"/><path class="cls-31" d="M68.7,59.57c-.92,.77-1.75,1.65-2.54,2.55-1.23,1.39-2.35,2.87-3.34,4.44-2.04,3.22-3.49,6.75-4.44,10.44l1.23-.21c.02-.07,.04-.13,.08-.19,.02-.02,.04-.05,.06-.07,.58-1.12,1.21-2.21,1.87-3.27,1.92-3.06,4.18-5.91,6.06-9,.51-.84,.99-1.69,1.42-2.56,.13-.25,.91-1.78,.88-2.43-.03-.71-1.05,.11-1.28,.3Z"/><path class="cls-31" d="M49.78,62.56h-16.25c-.38,0-.75-.16-1.02-.44-.26-.28-.4-.66-.37-1.04l.4-6.06c.05-.73,.66-1.3,1.39-1.3h16.25c.38,0,.75,.16,1.02,.44,.26,.28,.4,.66,.37,1.04l-.4,6.06c-.05,.73-.66,1.3-1.39,1.3Zm-15.85-7.78c-.17,0-.31,.13-.32,.3l-.4,6.06c0,.12,.05,.2,.09,.24,.04,.04,.11,.1,.23,.1h16.25c.17,0,.31-.13,.32-.3l.4-6.06c0-.12-.05-.2-.09-.24-.04-.04-.11-.1-.23-.1h-16.25Z"/><g><path class="cls-15" d="M34.75,77.43s.05-.02,.07-.02h28.57c.15,0,.16-.2,.05-.24-.07-.15-.14-.31-.22-.45-.46-1.23-.94-2.45-1.46-3.66-.28-.66-.57-1.31-.86-1.96-.23-.51-.47-.98-.92-1.33-.94-.73-2.24-1.04-3.38-1.28-1.31-.28-5.02-.73-5.44-.82,.21-1.03,.44-2.05,.7-3.07,.06-.25-.11-.42-.3-.46-.56-.16-1.13-.27-1.71-.32-.6-.06-1.35,.12-1.92-.06-.19-.06-.33,.02-.4,.15-.09,.04-.15,.12-.17,.25l-.53,3.62c-.62,.15-1.23,.34-1.83,.56-.02-.03-2.22,.91-3.3,1.42-1.05,.5-2.06,.95-2.86,1.82-.78,.84-1.48,1.76-2.15,2.69-.37,.51-.7,1.05-1.04,1.59-.2,.31-.84,1.15-1.1,1.57h.23Z"/><path class="cls-36" d="M39.24,76.32c1.32,.11,2.63,.03,3.92-.27,1.4-.32,2.71-.9,4.1-1.25,1.33-.33,2.7-.43,4.06-.34,1.41,.09,2.78,.31,4.2,.19,2.16-.18,4.24-.87,6.03-2.06-.22-.5-.44-1-.66-1.5-.23-.51-.47-.98-.92-1.33-.12-.09-.25-.18-.38-.26-.29,.24-.56,.48-.82,.67-.82,.59-1.7,1.07-2.64,1.45-3.9,1.55-8.19,.5-12.22,1.26-1.8,.34-3.55,.86-5.35,.21-.26-.09-.52-.2-.77-.31-.39,.49-.77,.99-1.13,1.49-.32,.44-.61,.91-.91,1.37,1.15,.3,2.3,.57,3.5,.67Z"/><path class="cls-36" d="M63.43,77.17c-.07-.15-.14-.31-.22-.45-.3-.81-.62-1.61-.94-2.41-.24,.16-.48,.32-.74,.44-2.45,1.23-5.25,1.89-8,1.72-1.37-.08-2.7-.32-4.07-.22-1.36,.09-2.61,.55-3.89,.97-.2,.07-.4,.13-.6,.19h18.42c.15,0,.16-.2,.05-.24Z"/><path class="cls-36" d="M56.59,68.5c-1.31-.28-5.02-.73-5.44-.82,.08-.37,.16-.75,.24-1.12-.21,.02-.42,.03-.62,.05-1.27,.11-2.53,0-3.76-.27l-.21,1.44c-.62,.15-1.23,.34-1.83,.56-.02-.03-2.22,.91-3.3,1.42-.96,.45-1.89,.87-2.65,1.61,.17,.06,.34,.11,.51,.16,.83,.22,1.62,.07,2.45-.09,1.01-.19,2.01-.4,3.03-.54,2.09-.27,4.22-.07,6.32-.18,1.9-.1,3.74-.42,5.41-1.36,.33-.18,.64-.4,.94-.62-.36-.1-.73-.18-1.08-.25Z"/><path class="cls-10" d="M55.4,70.27c-.55-2.44-.87-3.83-.83-6.34,.03-1.78,.78-4.68-1.08-5.85-.17-.11-.42-.04-.52,.14-.17,.3-.24,.59-.22,.9-.08,1.08-.31,2.16-.26,3.25,.05,1.14,.49,2.13,.88,3.18,.74,1.98,.74,4.6,1.79,6.47,.22,.38,.33-1.33,.24-1.74Z"/><path class="cls-9" d="M53.47,53.5c-1.19-1.39-2.94-1.64-4.41-.55-1.34,.99-3.18,2.21-3.45,3.99-.16,1.05,.05,2.2,.13,3.25,.17,2.4,.45,4.6,2.08,6.19,.99,.96,2.29,.9,3.17,.05,1.17-1.13,1.93-2.59,2.49-4.1,1.08-2.87,2.25-6.17-.02-8.83Z"/><path class="cls-10" d="M55.88,54.3c-1.18-2.71-5.22-3.64-7.77-2.49-1.37,.62-2.38,1.88-3.09,3.17-.34,.63-.68,1.32-.83,2.02-.09,.4-.12,.83-.14,1.23-.02,.41,.12,1.01,.02,1.39-.41,1.48-.91,2.96-.67,4.5,.18,1.2,.72,2.37,1.04,3.54,.22,.81,.34,1.65,.5,2.48,.08,.39,.16,.79,.29,1.18,0,.03,.44,.92,.49,.74,.4-1.3,.64-2.66,.78-4.03,.09-1.41,.12-2.83-.02-4.25-.13-1.35-.04-2.71,.2-4.04,.2-1.13,.44-2.21,1.16-3.14,.65-.84,1.13-1.86,2-2.52,.58-.44,1.42-.25,1.78,.39,.04,.07,.07,.13,.11,.2,.31,.59,.59,1.2,.9,1.8,.54,1.04,1.13,2.05,1.75,3.04,0,.38-.04,.76-.09,1.14-.02,.13-.03,.26-.05,.39-.03,.93,.04,1.86,.09,2.79,.06,1.23,.08,2.46,.2,3.69,.15,1.59,.47,3.15,.75,4.72,.05-.04,.09-.1,.12-.17,.74-1.97,.83-4.08,.81-6.17-.02-2,.05-3.99,.13-5.99,.08-1.85,.31-3.87-.45-5.62Z"/><path class="cls-42" d="M52.5,59.88c-.35-.33-.58,.33-.64,.54-.06,.22-.12,.46-.1,.69,.01,.14,.09,.26,.26,.25,.18-.01,.3-.19,.36-.33,.12-.25,.37-.92,.12-1.15Z"/><path class="cls-42" d="M48.37,59.25c-.4-.26-.51,.43-.53,.64-.02,.23-.04,.47,.02,.69,.04,.14,.14,.24,.3,.21,.17-.04,.26-.23,.3-.38,.07-.27,.2-.97-.09-1.16Z"/><path class="cls-27" d="M50.49,60.25c-.02,.36-.04,.72-.07,1.08-.04,.42-.02,1.15-.53,1.33-.15,.05-.09,.3,.07,.24,.4-.14,.56-.45,.63-.86,.1-.59,.13-1.2,.16-1.79,0-.16-.25-.16-.25,0Z"/><path class="cls-27" d="M49.66,62.31l-.29-.04c-.07,0-.14,.02-.16,.09-.02,.06,.02,.15,.09,.16l.29,.04c.07,0,.14-.02,.16-.09,.02-.06-.02-.15-.09-.16Z"/><path class="cls-10" d="M50.84,64.11c-.84,0-1.69-.04-2.53-.09-.08,0-.12,.07-.1,.13,.05,.14,.46,.27,.58,.33,.26,.12,.54,.21,.84,.23,.3,.02,.57-.11,.83-.22,.11-.05,.78-.38,.38-.39Z"/><path class="cls-10" d="M53.75,58.95c-.02-.12-.1-.26-.13-.31-.17-.27-.44-.48-.74-.59-.25-.08-.54-.09-.78,.03-.11,.06-.25,.17-.29,.29-.07,.21,.09,.26,.25,.29,.29,.04,.57,.08,.86,.14,.26,.06,.45,.24,.7,.3,.14,.03,.16-.05,.14-.15Z"/><path class="cls-10" d="M49.57,57.9h0c-.19-.46-.86-.55-1.27-.47-.31,.06-.97,.28-.94,.68,.02,.2,.4,.15,.53,.14,.35-.02,.7,.02,1.05,.05,.24,.02,.78-.01,.63-.4Z"/><path class="cls-30" d="M55.89,61.01c-.48-.28-.86-.67-1.12-1.15-.08-.14-.3-.02-.22,.13,.29,.52,.7,.95,1.21,1.25,.14,.08,.27-.14,.13-.22Z"/><path class="cls-30" d="M46.79,57.99c-.49,.94-1.2,1.84-2.35,1.84-.16,0-.16,.25,0,.25,1.24,0,2.04-.94,2.57-1.96,.07-.14-.14-.27-.22-.13Z"/><path class="cls-30" d="M50.47,52.56c-.95-.02-1.66,.58-2.32,1.19-.12,.11,.06,.29,.18,.18,.61-.56,1.26-1.14,2.15-1.12,.16,0,.16-.25,0-.25Z"/><path class="cls-30" d="M55.17,56.53c0-.16-.26-.16-.25,0,.03,.46,.06,.91,.1,1.37-.29-.96-.66-1.89-1.11-2.79-.38-.75-.77-1.56-1.6-1.88-.15-.06-.22,.19-.07,.24,.86,.33,1.28,1.39,1.65,2.17,.42,.88,.74,1.79,1,2.73,.03,.09,.12,.11,.19,.07,.06,.1,.25,.08,.23-.06-.06-.62-.1-1.24-.14-1.86Z"/><path class="cls-30" d="M54.53,64.34c0-1.6,.21-3.21-.1-4.8-.03-.16-.27-.09-.24,.07,.32,1.64,.07,3.32,.09,4.98,.01,1.66,.14,3.32,.28,4.98,.01,.16,.27,.16,.25,0-.14-1.74-.27-3.48-.28-5.23Z"/><path class="cls-30" d="M45.88,66.19c-.32-1.51-.39-3.04-.19-4.58,.02-.16-.23-.16-.25,0-.19,1.56-.12,3.11,.2,4.65,.03,.16,.28,.09,.24-.07Z"/><path class="cls-9" d="M30.97,69.85c.17,.59,.9,.8,1.39,1.02,1.14,.51,2.32,.96,3.41,1.58,.29,.65,.42,1.36,.51,2.09,.12,.99,.21,1.99,.27,2.99h3.06s-.03-.04-.06-.06c0-.02,0-.04,0-.06-.29-1.21-.54-2.43-.75-3.66-.13-.77-.14-1.6-.35-2.37-.1-.35-.25-.86-.52-1.12-.27-.26-.76-.41-1.08-.61-1.47-.9-2.76-2.11-3.75-3.54-.23-.32-.72-.07-.63,.24-.01,.09,.03,.18,.08,.28,.3,.6,.56,1.03,.87,1.55,.07,.11,.9,1.1,.47,1.04-.02,0-.05,0-.07,0-.62-.38-1.07-1-1.45-1.65-.52-.89-.75-1.57-1.25-2.47-.12-.21-.33-.22-.51-.33-.22-.13-.27-.27-.37-.51-.17-.4-.86-.29-.68,.11,.02,.06,.05,.11,.07,.17-.14,.06-.24,.2-.16,.38,.42,1.09,.89,2.17,1.38,3.23,.01,.57,0,1.18,.14,1.7Z"/><path class="cls-9" d="M46.9,70.19c.54-.57,.69-.57,1.28-1.09,.3-.26,.74-.57,1.18-.74,.17-.07,.32,.13,.21,.28-.26,.33-.53,.75-.63,.88-.41,.53-.79,1.08-1.25,1.57-.33,.36,.2,.89,.54,.54,.05-.05,.09-.1,.14-.15,.06-.06,.14-.07,.22-.04,.13,.06,.28,.06,.41-.07,.1-.1,.19-.19,.29-.29,.05-.05,.13-.07,.2-.04,.06,.02,.12,.04,.18,.03,.11,.1,.26,.13,.41,.02,1.2-.81,2.43-1.56,3.7-2.25,.08-.05,.19-.02,.24,.06,.44,.72,1.65,3,2.02,3.73,.8,1.58,1.56,3.18,2.28,4.8h3.86c-1.38-2.3-4.65-8.75-5.28-9.8-.54-.91-1.31-2.23-2.52-2.28-1.02-.04-2.05,.45-3.02,.97-1.36,.48-2.7,1-4.03,1.55,0,0-.02,0-.03,.01-.07,.03-.14,.06-.21,.08,0,0-.01,0-.02,.01,0,0-.01,0-.02,0-.05,.03-.09,.07-.1,.13-.04,.13,.07,.23,.17,.29,.09,.06,.18,.09,.28,.12-.61,.51-1.12,1.17-1.66,1.74-.33,.36,.83,.29,1.16-.07Z"/><path class="cls-27" d="M34.57,70.46c-.48-.21-.97-.4-1.47-.54-.67-.19-1.12-.43-1.25-1.18-.14-.81,.05-1.71-.61-2.33-.11-.1-.27,.06-.16,.16,.79,.74,.25,1.98,.76,2.86,.16,.29,.42,.46,.72,.57,.63,.23,1.28,.38,1.9,.66,.13,.06,.25-.14,.11-.2Z"/><path class="cls-27" d="M51.76,67.73c-.97,.73-1.83,1.58-2.57,2.54-.1,.13,.12,.25,.22,.13,.71-.93,1.54-1.75,2.48-2.45,.13-.1,0-.32-.13-.22Z"/><path class="cls-27" d="M51.69,68.55c-.63,.47-1.23,.98-1.79,1.54-.12,.12,.06,.29,.18,.18,.54-.54,1.12-1.05,1.74-1.5,.13-.1,0-.32-.13-.22Z"/></g></g><g><path class="cls-22" d="M88.88,89.23c-.1-.2-.23-.51-.42-.75-.15-.24-.32-.43-.5-.53-.23-.22-.48-.27-.67,.11,0,.02-.01,.03-.02,.05-.34,.38-.13,1.01,0,1.43,.08,.23,.17,.46,.28,.68,.13,.35,.3,.69,.52,.94,.07,.08,.15,.14,.24,.19h.02c.13,.08,.28,.11,.42,.08,.25,0,.46-.18,.52-.45,.02-.1,.03-.2,.03-.31,.12-.46-.23-1.05-.43-1.44Z"/><path class="cls-22" d="M98.05,87s-.01-.05-.02-.08c-.05-.15-.16-.21-.3-.23-.34-.04-.49,.31-.59,.62-.06,.04-.11,.1-.14,.18-.05,.16-.17,.59-.24,1.04-.11,.43-.18,.91-.06,1.31,.06,.2,.28,.28,.46,.19,.04-.02,.07-.04,.1-.06,.05-.01,.11-.02,.17-.05,.86-.33,1.05-2.16,.62-2.92Z"/><path class="cls-22" d="M96.22,100.24c-.19-2.42-.28-4.84-.28-7.26,0-.06-.01-.1-.03-.14-.02-.09-.09-.16-.22-.18-.88-.12-1.75-.12-2.62,.05-.44,.09-.88,.27-1.32,.32-.3,.03-.61-.07-.87,.12-.07,.05-.11,.12-.13,.19-.08,.07-.12,.17-.1,.3,.46,2.42,.46,4.2,.4,6.66,0,.03,.2,.73,.21,.76-.05,.15,0,.34,.21,.39,1.5,.4,3.49,.17,4.72-.82,.16-.13,.13-.3,.02-.41Z"/><path class="cls-22" d="M96.96,85.4c-.28-1.04-.75-2.02-1.21-2.99-.01-.02-.02-.04-.03-.06-.02-.09-.09-.18-.22-.21-1.83-.47-3.84,.17-5.46,1.03-1.3,.69-2.48,2.05-2.16,3.57,0,.02,0,.05,0,.08,.22,1.89,.7,3.72,1.46,5.47,.66,1.51,1.84,3.26,3.49,3.83,1.55,.53,2.62-.49,3.33-1.88,.85-1.65,1-3.77,1.06-5.58,.03-1.09,.02-2.18-.26-3.24Z"/><path class="cls-8" d="M106.74,105.84c0-.06,0-.12-.03-.19-.41-.85-1.15-2.21-2.15-2.44-1.03-.24-2.19-.02-3.18-.43-.83-.35-4.26-1.66-4.56-2.16-.29-.49-.03-3.33-.48-3.33-1.71,.35-3.45,.5-5.2,.45-.04,0-.08,0-.11,.02-.13-.01-.27,.05-.3,.23-.12,.64-.15,2.31-.39,2.53-.86,.8-4.25,1.89-6.03,2.14-1,.14-1.95,.35-2.76,1-.73,.58-1.26,1.35-1.77,2.11-.02,0-.04,.03-.07,.07h27.03Z"/><path class="cls-32" d="M96.78,81.17c-.22-.09-.39-.26-.49-.47-.25-.52-.66-.98-1.16-1.29-1.53-.94-3.74-.98-5.26,0-.35,.22-.67,.5-.94,.81-.36,.43-.53,.98-.9,1.4-.32,.37-.77,.62-1.12,.96-.33,.31-.62,.66-.87,1.03-.5,.74-.83,1.58-.43,2.44,.26,.56,.72,.94,1.25,1.23,.14,.07,.25,.18,.33,.31,.2,.31,.4,.62,.58,.93,.24,.41,.52,1.11,1.04,1.25-.1-.64-.18-1.28-.29-1.92-.17-.94,1.09-1.65,1.47-2.4,.38-.75,.78-1.79,1.79-1.77,.51,.01,1.01,.22,1.51,.31,.34,.06,.7,.06,1.05,0,.33-.05,.71-.27,1.05-.17,.23,.07,.38,.14,.61,.17,.23,.02,.43,0,.51,.28,.18,.56,.48,.99,.52,1.6,.04,.6,.09,1.2,.11,1.81,.04,.04,.11,.05,.2,0,.49-.23,.44-.97,.51-1.43,.01-.09,.02-.18,.04-.27,.02-.19,.11-.37,.24-.51,.22-.25,.4-.55,.48-.73,.75-1.66-.33-3.02-1.81-3.6Z"/><path class="cls-32" d="M95.08,87.36c-.5-.01-.4,1.29-.19,1.51,.09,.1,.24,.11,.35,.02,.31-.27,.25-.93,.13-1.29-.05-.14-.17-.24-.29-.24Z"/><path class="cls-32" d="M90.92,87.69c-.49,.08-.16,1.34,.08,1.52,.11,.08,.26,.07,.35-.04,.26-.32,.08-.96-.1-1.29-.07-.13-.21-.21-.33-.19Z"/><path class="cls-32" d="M96.06,86.31c-.34-.61-1.26-1.07-1.8-.51-.2,.21-.23,.59,.06,.71,.24,.09,.48-.04,.71-.07,.28-.02,.57,.05,.83,.15,.14,.05,.27-.14,.19-.28Z"/><path class="cls-32" d="M91.71,85.95c-.2-.08-.46-.1-.62-.08-.41,.04-1.32,.43-1.07,.99,.15,.33,.51,.06,.72-.04,.23-.11,.41-.17,.67-.16,.16,0,.47,0,.56-.17,.14-.28-.02-.44-.26-.53Z"/><path class="cls-6" d="M93.76,88.12c-.03-.16-.28-.09-.24,.07,.15,.74,.39,1.79,.09,2.52-.06,.15,.18,.22,.24,.07,.32-.78,.07-1.85-.09-2.66Z"/><path class="cls-6" d="M93.18,90.39c-.1-.02-.2-.03-.31-.02-.07,0-.13,.05-.13,.13,0,.06,.06,.13,.13,.13,.08,0,.16,0,.24,.01,.16,.04,.23-.21,.07-.24Z"/><path class="cls-10" d="M94.77,91.91c-.87,.2-1.75,.34-2.64,.42-.09,0-.18,.09-.12,.19,.26,.42,.99,.62,1.34,.65,.65,.06,1.13-.53,1.52-.99,.02-.02,.03-.05,.03-.08,.06-.08,0-.23-.13-.2Z"/><path class="cls-32" d="M97.22,90.07c0-.09-.14-.19-.22-.09-.16,.2-.4,1.2-.61,1.71-.19,.48-.42,.98-.79,1.36-.18,.18-.56,.59-.8,.65-.31,.07-.31-.18-.44-.21-.32-.08-1.13-.1-1.38,.16-.22,.24-.36,.37-.7,.31-.31-.06-.85-.25-1.1-.42-1.66-1.12-1.71-2.44-2.19-2.49-.09,0-.13,.08-.12,.15-.03,.03-.04,.07-.02,.11,.5,1.28,1.14,2.52,2.07,3.54,.71,.78,1.9,1.46,3.09,1.4,.52-.02,.99-.33,1.39-.81,.38-.46,.74-.95,.98-1.49,.53-1.2,.72-2.52,.87-3.81,0-.03,0-.05-.01-.07Z"/></g><g><path class="cls-9" d="M44.94,94.31h0s-.04-.08-.07-.1c-.44-.56-.84-1.12-1.38-1.59-.52-.45-1.3-.73-1.72-1.25-.14-.17-.37,.04-.3,.22,0,.01,0,.02,0,.04-.14,2.1-.28,4.21-.42,6.31-.18-.05-.32,.23-.14,.35,.73,.49,1.54,.81,2.42,.91,.47,.05,.97,.08,1.27-.23,.1,.02,.22-.04,.22-.18-.02-1.41,.02-2.81,.13-4.22,.06-.07,.09-.18,.01-.27Z"/><path class="cls-36" d="M55.76,105.87c-.32-.95-.75-1.87-1.28-2.72-.35-.57-.66-1.21-1.18-1.66-.51-.44-5.93-1.71-7.14-1.88-2.47-.34-4.86-.46-7.34-.24-1.87,.17-4.33,.47-5.84,1.74-1.41,1.18-1.36,3.08-1.16,4.76h23.93Z"/><path class="cls-36" d="M49.75,102.75c.04-.78,.05-1.56,.11-2.34-1.53-.38-3.12-.72-3.71-.81-2.43-.34-4.78-.46-7.21-.25,.31,.53,.7,1,1.3,1.34,1.28,.71,2.84,1.06,4.29,1.16,1.44,.09,2.66,.26,3.93,1,.42,.25,.83,.51,1.24,.77,0-.3,.03-.59,.04-.88Z"/><path class="cls-41" d="M45.59,100.22l.2,.31c.33,.35,.66,.71,1,1.05,.17,.17,.47,.03,.44-.21-.05-.41-.07-.82-.08-1.23,.03,.15,.07,.3,.12,.45,.21,.62,.41,1.28,.67,1.89,.04,.09,.1,.16,.18,.22,.08,.05,.15,.11,.23,.16,.54,.35,1.06,1.2,1.61,1.53,.43-2.54,.51-5.83-.8-8.14-.33-.58-.48-1.31-.25-2.02,.07-.22-.07-.47,.03-.7,.12-.25-.06-.49,.02-.76,.34-1.26,.41-2.67,.44-3.96,.03-1.08,.07-2.64-.66-3.53-.58-.71-1.53-.67-2.03,.1-.29,.44-.41,.96-.54,1.46-.21,.78-.4,1.57-.57,2.36-.31,1.44-.57,2.9-.76,4.36-.12,.88-.21,1.77-.29,2.66-.05,.64-.25,1.49-.09,2.12,.17,.67,.77,1.32,1.14,1.89Z"/><path class="cls-9" d="M47.04,83.35c-.06-.11-.17-.11-.26-.06-1.13-.76-2.75-.67-4.02-.4-1.47,.31-2.59,1.43-3.16,2.79-.26,.62-.46,1.36-.34,2.03,.12,.67,.58,.91,.97,1.41,.38,.48,.33,1.15,.39,1.73,.04,.39,.1,.77,.16,1.16,.11,.7-.29,.88,.2,1.42,.67,1.08,2.2,2.57,3.55,2.54,1.61-.04,2.19-1.41,2.7-2.72,1.25-3.18,1.53-6.83-.2-9.9Z"/><path class="cls-27" d="M44.14,95.74c-1-.32-1.84-.95-2.44-1.81-.09-.13-.31,0-.22,.13,.64,.92,1.52,1.58,2.59,1.93,.16,.05,.22-.19,.07-.24Z"/><path class="cls-36" d="M45.68,100.62c.03-.45,.04-.9,.09-1.34,.07-.71,.19-1.38-.14-2.02-.03,0-.06,0-.09,.02-.02,0-.05,0-.08,0-1.4,.24-3.18,.13-4.41-.64-.01-.14-.19-.26-.32-.13-.12,.13-.19,.26-.23,.41-.02,.83-.09,1.67-.14,2.5-.03,.43,1.65,1.23,1.95,1.35,.51,.21,1.05,.34,1.61,.34,.18,0,.95-.18,1.41-.25,.11-.09,.23-.16,.34-.24Z"/><path class="cls-33" d="M45.99,81.45c-2.87-.69-5.56,.56-6.91,2.27-1.19,1.51-2.2,3.51-1.81,5.39,.27,1.3,.74,2.46,.48,3.81-.23,1.18-.71,2.31-1.09,3.45-.46,1.36-.81,2.79-.71,4.19,.02,.25,.13,.49,.32,.66,.19,.18,.41,.35,.66,.49,.65,.37,1.4,.55,2.04,.95,.71,.44,1.31,1.04,2.04,1.46,.26,.15,.52,.34,.8,.5,.2,.11,.44-.04,.42-.27-.05-.65-.24-1.3-.29-1.95-.07-.86,.15-1.71,.26-2.55,.11-.78,.14-1.57-.05-2.34-.21-.83,.21-1.68-.12-2.48-2.08-5.09-.9-4.79,.02-6.94,.18-.43,1.11-1.02,1.45-1.39,.49-.53,.94-1.09,1.29-1.7,.31-.55,.54-1.21,.64-1.85,.04-.26,.62,.12,.86,.34,.06-.39,.43-1.87-.29-2.04Z"/><path class="cls-33" d="M48.34,93.32c-.1,1.08-.08,2.14,.17,3.2,.28,1.2,.74,2.33,.81,3.58,.02,.38-.16,2.25-.02,3.54,.02,.16,.1,.31,.23,.4,.22,.17,.44,.35,.66,.53l.16-.07c.27-2.32,.52-4.67,.21-6.99-.16-1.17-.56-2.27-.77-3.42-.24-1.34-.03-2.67,.14-4,.25-2.04,.21-4.17-.77-6-.45-.84-1.1-1.57-1.89-2.07-.39-.25-.81-.44-1.26-.56-.26-.07-.73-.14-1-.13-.18,0-.54,.13-.29,.42,.35,.39,.35,.93,.55,1.4,.17,.42-.58,.88-.28,1.19,.74,.74,2.34,1.56,2.84,2.53,1.07,2.08,.71,4.24,.5,6.46Z"/><path class="cls-42" d="M47.02,89.35c.03-.31-.03-.66-.12-.78-.19-.27-.43,.15-.45,.3-.05,.28-.04,.57,0,.85,.02,.1,.11,.16,.21,.16,.23,0,.33-.25,.35-.53Z"/><path class="cls-42" d="M43.76,89.32c0-.19,0-.74-.25-.83-.21-.07-.42,.28-.43,.43-.03,.28,0,.49,.08,.76,.03,.1,.18,.2,.29,.19,.23-.02,.31-.27,.31-.56Z"/><path class="cls-27" d="M45.85,88.94c-.03-.16-.27-.09-.24,.07,.07,.39,.5,2.19-.08,2.4-.15,.05-.09,.3,.07,.24,.34-.12,.45-.4,.47-.74,.03-.64-.1-1.33-.21-1.96Z"/><path class="cls-27" d="M45.28,91.02c-.13,0-.26,.02-.39,.05-.16,.04-.09,.28,.07,.24,.11-.03,.21-.04,.32-.04,.16,0,.16-.25,0-.25Z"/><path class="cls-32" d="M46.74,87.13c-.18-.02-.41-.03-.55,.1-.11,.11-.14,.28-.04,.41,0,0,.01,.01,.02,.02,.09,.13,.28,.14,.45,.15,.21,0,.43,.03,.64,.08,.12,.03,.25,.09,.37,.04,.04-.01,.08-.04,.09-.09,.06-.42-.64-.67-.96-.71Z"/><path class="cls-32" d="M42.76,87.68c.16,.04,.38,.04,.44,.04,.27,0,1.08,.14,1.24-.11,.07-.11,.08-.25,0-.38v-.02c-.2-.28-.62-.18-.9-.13-.27,.05-.75,.15-.92,.37-.09,.12,0,.19,.13,.22Z"/><path class="cls-10" d="M45.95,92.7h-.02c-.42-.03-.83-.06-1.25-.07-.24,0-.58-.08-.79,.08-.05,.04-.07,.1-.04,.16,.31,.52,.97,.53,1.49,.54,.4,0,.72-.16,.74-.6,0-.09-.07-.12-.14-.1Z"/><path class="cls-9" d="M62.91,97c-.18-.71-.74-1.41-1.1-2.03-.05-.08-.1-.13-.17-.16-.12-.18-.33-.28-.56-.12-.46,.32-1,.62-1.34,1.07-.36,.5-.32,1.03-.27,1.61,.13,1.52,.22,3.04,.27,4.56,0,.1,.03,.17,.07,.24,.02,.39,.05,.77,.11,1.15,.02,.12,.07,.2,.14,.25-.06,.49,.72,.67,.87,.15,.47-1.6,.99-3.19,1.55-4.76,.22-.61,.58-1.3,.42-1.97Z"/><path class="cls-36" d="M62.29,105.87c-.28-1.24-.7-3.36-.81-3.56-.08-.16-.01-.14-.19-.07-.12,.05-.26,.2-.36,.27-.45,.35-.9,.7-1.41,.98-.45,.24-.87,.42-1.24,.72,.1,.56,.22,1.11,.36,1.66h3.65Z"/><path class="cls-47" d="M49.05,98.65c-.19-1.1-.73-2.16-.72-3.28,.02-2.17,.62-4.24,.28-6.42-.02-.16-.27-.09-.24,.07,.17,1.11,.13,2.21,.02,3.32-.11,1.08-.36,2.19-.31,3.28,.04,.94,.46,1.83,.65,2.75,.23,1.13,.29,2.27,.2,3.42-.01,.16,.24,.16,.25,0,.08-1.05,.04-2.1-.14-3.13Z"/><path class="cls-47" d="M47.15,96.31c0-.16-.25-.16-.25,0,0,1.11,.05,2.22,.17,3.33,.02,.16,.27,.16,.25,0-.12-1.11-.18-2.22-.17-3.33Z"/><path class="cls-47" d="M43.54,83.92c-.72,1.1-1.22,2.3-1.52,3.58-.04,.16,.21,.23,.24,.07,.29-1.26,.79-2.44,1.49-3.52,.09-.14-.13-.26-.22-.13Z"/><path class="cls-47" d="M41,84.84c-.87,1.49-1.09,3.03-1.09,4.73,0,.6-.05,1.2-.13,1.78,0-.53-.04-1.05-.11-1.57-.02-.16-.27-.16-.25,0,.12,.94,.14,1.88,.07,2.82,0,.04,.01,.08,.04,.1-.2,.88-.46,1.75-.73,2.62-.05,.16,.2,.22,.24,.07,.52-1.68,1.04-3.37,1.11-5.14,.04-.89-.03-1.78,.11-2.66,.15-.93,.49-1.81,.96-2.63,.08-.14-.14-.27-.22-.13Z"/><path class="cls-10" d="M60.19,101.14h-.01v-5.08h.01v-1.13h-.01v-.58c0-.41-.33-.74-.74-.74h-4.68c-.41,0-.74,.33-.74,.74v8.51c0,.41,.33,.74,.74,.74h4.68c.41,0,.74-.33,.74-.74v-.68h.01v-1.04Z"/><path class="cls-9" d="M62.01,98.13c-1.08-1.33-2.33-2.48-3.73-3.45-.47-.33-.91,.44-.45,.76,.31,.22,.18,.22,.47,.45-.43-.22-.53,.57-.11,.9,.2,.16,.14,.11,.33,.27-.21,.14-.07,.66,.15,.91,.64,.71,1.32,1.37,2.06,1.97,.44,.36,1.64-1.38,1.28-1.82Z"/><path class="cls-10" d="M60.2,94.58c-.44-.36-1.07,.27-.63,.63,.89,.72,1.66,1.7,1.62,2.9-.03,1.25-1.06,2.18-2.08,2.75-.5,.28-.05,1.04,.45,.76,1.23-.69,2.38-1.83,2.5-3.3,.13-1.51-.75-2.83-1.87-3.74Z"/><path class="cls-9" d="M61.04,101.63c.04-.07,0-.13-.05-.15h-.01s-.06-.02-.09,0c-1.19,.07-1.84,1.2-2.86,1.66-1.16,.53-2.48,.5-3.68,.91-.14,.05-.09,.27,.04,.25-.03,.08,.01,.17,.11,.16,.76-.06,1.52-.09,2.29-.07,.62,.01,1.35,.19,1.95,.09,.44-.07,.65-.44,.88-.78,.47-.67,.93-1.34,1.39-2.02,.01-.01,.03-.03,.03-.05Z"/><path class="cls-9" d="M60.93,95.27s.02,.03,.03,.04c.49,.2,.95,.46,1.44,.65-.24-.5-.53-.97-.9-1.38-.75-.83-1.85-1.27-2.81-1.8-.5-.27-.83,.55-.34,.82,.88,.48,1.92,.88,2.58,1.67Z"/><path class="cls-9" d="M52.97,105.87c.23-.41,.42-.79,.59-1.07,.11-.18,.3-.29,.51-.31,.55-.05,1.57-.09,1.94-.11,.67-.04,1.4-.18,2.03-.41,1.12-.41,2.12-1.48,2.91-2.34,.24-.25,.1-.58-.14-.71-.12-.12-.31-.18-.51-.06-.82,.51-1.67,1.18-2.6,1.47-.53,.17-1.08,.3-1.63,.39-.34,.05-1.15,.28-1.41-.05-.23-.29,.06-.61,.3-.77,.76-.4,.85-.37,1.51-.93,.43-.37,.42-1.49-.01-1.12-1,.85-2.13,1.42-3.33,1.92-.54,.23-1.05,.54-1.46,.96-.42,.44-.65,1.03-.98,1.53-.36,.54-.72,1.08-1.08,1.61h3.37Z"/><path class="cls-36" d="M52.91,105.87c-.19-.25-.37-.49-.55-.75-.37-.53-1.24-1.52-1.5-1.52,0,0-.76,1.33-1.29,2.27h3.34Z"/><path class="cls-27" d="M60.33,101.33c-.62,.97-1.48,1.72-2.52,2.21-.15,.07-.02,.29,.13,.22,1.08-.51,1.97-1.3,2.61-2.3,.09-.14-.13-.26-.22-.13Z"/><path class="cls-27" d="M60.72,97.4c-.58-.54-1.19-1.04-1.83-1.5-.13-.1-.26,.12-.13,.22,.62,.45,1.21,.94,1.78,1.46,.12,.11,.3-.07,.18-.18Z"/><path class="cls-27" d="M60.54,98.4c-.49-.51-1.04-.96-1.64-1.35-.14-.09-.26,.13-.13,.22,.58,.37,1.11,.81,1.59,1.31,.11,.12,.29-.06,.18-.18Z"/><path class="cls-6" d="M50.73,103.57c-.48,.68-.91,1.38-1.3,2.11-.09,.17,.17,.33,.26,.15,.39-.73,.83-1.43,1.3-2.11,.11-.16-.15-.32-.26-.15Z"/></g><g><path class="cls-31" d="M81.65,75.71h1.07c-.26-.52-.54-1.04-.83-1.54-.51-.89-1.09-1.75-1.79-2.51-.26-.28-1.9-2.1-2.19-1.25-.23,.67,.64,1.53,1.01,2.01,.77,1.01,1.6,1.95,2.42,2.92,.11,.13,.21,.25,.31,.38Z"/><path class="cls-31" d="M82.69,75.04c.08,.22,.16,.44,.23,.67h.22c-.05-.22-.09-.44-.14-.66,.04,.16-.2-.95-.22-1.07-.42-2.02-.89-4.02-1.45-6-.47-1.67-1.62-5.93-2.65-5.53-.67,.26,.89,4.18,1.33,5.37,.16,.43,2,5.26,2.67,7.23Z"/><path class="cls-31" d="M85.64,63.49c-.16-.37-.54,.28-.62,.43-.33,.6-.58,1.25-.82,1.89-.36,1-.64,2.02-.84,3.07-.41,2.15-.43,4.34-.16,6.51,.01,.11,.03,.22,.05,.33h.51c.06-1.01,.19-2.02,.38-3.02,.38-2.04,.98-4.02,1.32-6.07,.09-.55,.17-1.11,.22-1.66,.01-.16,.11-1.14-.04-1.48Z"/><path class="cls-31" d="M121.64,64.21h-21.97c-.46,0-.91-.19-1.23-.53-.32-.34-.48-.8-.45-1.26l.54-8.3c.06-.88,.8-1.58,1.68-1.58h22.19v1.07h-22.19c-.32,0-.59,.25-.61,.57l-.54,8.3c-.01,.17,.05,.33,.16,.46,.12,.13,.28,.19,.45,.19h21.97v1.07Z"/><g><path class="cls-33" d="M96.71,53.13c-.35-.85-1.15-1.31-2.02-1.42-.46-.53-1.09-.92-1.79-1.09-1.31-.31-2.42,.49-3.7,.49-.59,0-1.11-.09-1.68,.09-.51,.15-.97,.42-1.37,.77-.63,.54-1.19,1.37-1.17,2.2,0,.29-.33,.56-.44,.82-.14,.32-.17,.67-.16,1.02,.03,.72,.25,1.43,.24,2.16,0,.52-.26,1.08-.03,1.59,.17,.38,.55,.65,.86,.92,1.7,1.47,2.19,3.54,2.94,5.53,.21-.15,.53-.5,.77-.19,.04,.06,.29-3.47,.34-3.45,.05,.06-1.4-.1-1.3-.1,2.66,.14,2.75-3.52,3.63-5.22,.59-1.14,1.39-1.82,2.45-2.48,.26,.34,.52,.67,.79,.99,.16,.18,.46,.31,.67,.26,.07,0,.14-.03,.21-.11,.63-.82,1.18-1.72,.74-2.76Z"/><path class="cls-9" d="M93.64,65.71c-.52-.76-1.33-1.25-2.08-1.76-.94-.63-1.9-1.22-2.88-1.77v-.04c0-.14-.2-.16-.24-.05-.09,.03-.13,.17-.03,.23h.02c.04,2.2-.24,4.36-.84,6.46-.03,.1,.06,.16,.14,.15,.25,.85,.82,1.58,1.63,1.97,.74,.35,2.11,.73,2.88,.3,.08-.05,.07-.14,.02-.19,.34-1.75,.79-3.46,1.36-5.14h0s.05-.1,.01-.15Z"/><path class="cls-9" d="M95.53,53.74c.05-.05,.06-.15-.02-.2-2.42-1.35-6.13-1.28-7.69,1.31-.65,1.08-1.5,2.66-.72,3.86,.22,.33,.49,.62,.68,.97,.21,.39,.32,.83,.41,1.26,.15,.78,.22,1.57,.49,2.33,.02,.06,.07,.09,.13,.09,.57,1.26,1.84,2.3,3.08,2.96,1.55,.83,2.98,.75,3.82-.96,.41-.85,.53-1.83,.66-2.76,.15-1.04,.25-2.08,.26-3.13,.03-1.97-.27-3.93-1.09-5.73Z"/><path class="cls-33" d="M96.47,54.55c.07-.59,.04-.42,.02-.52-.83-3.38-5.63-2.53-7.96-.89-1.22,.86-2.18,2.2-2.52,3.65-.22,.96-.01,1.87,.44,2.67-.05,.11-.05,.24,.04,.35,.48,.56,.49,1.04,1.1,1.47,.35,.25,1.05,1.1,1.53,.93,.48-.17,.33-.87,.18-1.21-.34-.78-.47-1.65-.46-2.57,0-.37,.13-.78,.43-1.02,.34-.28,.8-.26,1.2-.39,.58-.18,.89-.6,1.14-1.11,.38-.78,.8-1.35,1.72-1.55,.97-.2,2.29,.47,2.88,1.24l.27-1.05Z"/><path class="cls-9" d="M89.54,62.2c-.14-.44-.38-.87-.55-1.17-.41-.7-1.23-1.51-2.03-.98-.87,.58,.04,1.89,.45,2.47,.32,.45,1.38,1.69,2,.99,.31-.35,.28-.83,.13-1.3Z"/><path class="cls-32" d="M96.36,57.93c-.19-.17-.68-.37-.95-.34-.37,.04-.47,.35-.41,.59,.07,.23,.62,.18,.83,.19,.15,.01,.34,.05,.49,.02,.26-.06,.2-.32,.04-.46Z"/><path class="cls-32" d="M93.14,57.9c-.14-.19-.4-.27-.65-.27-.54,0-1.19,.28-1.53,.67-.08,.09-.04,.2,.05,.25,.23,.13,.48,.02,.72-.03,.42-.08,.86-.06,1.27-.15,.27-.05,.27-.3,.14-.47Z"/><path class="cls-42" d="M92.51,59.93c-.01-.24-.09-.48-.23-.6-.16-.13-.38-.09-.46,.13-.11,.29-.03,.88,.16,1.09,.09,.1,.25,.23,.36,.1,.13-.15,.19-.44,.17-.71Z"/><path class="cls-42" d="M95.87,59.4c-.02-.11-.12-.35-.29-.35-.16,0-.22,.1-.28,.3-.06,.24-.04,.51,.02,.74,.05,.2,.22,.54,.43,.3,.19-.21,.16-.73,.13-.99Z"/><path class="cls-27" d="M95.33,61.76c-.03-.66-.13-1.31-.3-1.95-.04-.16-.28-.09-.24,.07,.11,.45,.2,.91,.25,1.37,.04,.38,.17,1.01-.19,1.27-.13,.1,0,.31,.13,.22,.34-.25,.37-.58,.35-.98Z"/><path class="cls-27" d="M94.61,62.24c-.19,0-.37,.02-.55,.07-.16,.04-.09,.29,.07,.24,.16-.05,.32-.07,.49-.06,.16,0,.16-.25,0-.25Z"/><path class="cls-10" d="M95.16,63.58c0-.07-.03-.11-.15-.09-.81,.14-1.62,.27-2.43,.39-.27,.04,.27,.37,.34,.41,.35,.21,.79,.39,1.22,.32,.27-.04,.48-.21,.64-.39,.04-.05,.37-.45,.39-.63Z"/><path class="cls-47" d="M95.64,54.21c-.1-.33-.27-.61-.48-.85,.02-.03,.02-.07,0-.11-.27-.58-.68-1.06-1.19-1.43-.13-.1-.26,.12-.13,.22,.36,.26,.65,.58,.88,.95-1-.68-2.51-.71-3.54-.16-.14,.08-.02,.29,.13,.22,1.32-.7,3.58-.39,4.08,1.23,.05,.15,.29,.09,.24-.07Z"/><path class="cls-47" d="M89.33,53.25c-1.18,.8-1.98,2.08-1.58,3.53,0,.02,.02,.04,.03,.05-.69,.49-.58,1.4-.36,2.13,.05,.16,.29,.09,.24-.07-.19-.64-.35-1.5,.34-1.91,.09-.05,.07-.17,0-.21,0-.02,0-.04,0-.06-.37-1.34,.38-2.51,1.46-3.25,.13-.09,0-.31-.13-.22Z"/><path class="cls-47" d="M86.9,55.73c-.7-.55-.82-1.45-.29-2.17,.1-.13-.12-.26-.22-.13-.59,.8-.45,1.86,.33,2.47,.13,.1,.31-.08,.18-.18Z"/><path class="cls-27" d="M87.62,60.6c-.16-.03-.23,.22-.07,.24,.2,.03,.38,.11,.54,.22-.12-.02-.25-.02-.37,0-.16,.02-.09,.27,.07,.24,.22-.03,.43,.02,.62,.13,.02,.01,.04,.02,.06,.02,.08,.14,.14,.29,.18,.45,.03,.16,.27,.09,.24-.07-.12-.63-.63-1.13-1.26-1.24Z"/><path class="cls-27" d="M93.15,66.7c-1.46-.46-2.7-1.36-3.57-2.62-.09-.13-.31,0-.22,.13,.91,1.31,2.2,2.26,3.72,2.73,.16,.05,.22-.2,.07-.24Z"/><path class="cls-12" d="M111.69,57.53v-.03c-.22-.73-1.27-.09-1.49,.29-.24,.42-.29,.92-.39,1.39-.09,.43-.25,.84-.46,1.23-.37,.71-.97,1.25-1.78,1.31-1.19,.09-2.28-.7-3.37,.12-.79,.59-1.08,1.63-.84,2.57,.01,.04,.04,.07,.08,.07-.07,.11,.1,.2,.17,.1,1.23-1.98,3.74-1.3,5.59-2,.71-.27,1.09-.84,1.31-1.55,.15-.51,.23-1.03,.33-1.56,.07-.36,.09-.72,.21-1.07,.09-.27,.7-.57,.66-.86Z"/><path class="cls-39" d="M103.31,77.09c-.04-1.29-.21-2.58-.53-3.83-.27-1.04-.61-1.98-1.56-2.58-.89-.56-1.97-.73-2.99-.92-1.48-.27-2.95-.54-4.43-.82-.07-.01-.12,.03-.14,.08-.01,0-.02,.02-.03,.04-.71,1.24-1.84,2.51-3.41,2.38-1.45-.12-2.48-1.28-3.34-2.35,0-.06-.04-.12-.11-.12-.04-.02-.09,0-.13,.03-2.38,.68-4.67,1.74-6.67,3.21-.86,.63-1.58,1.37-2.08,2.32-.49,.92-.78,1.92-1.05,2.92,.08,.02,.16,.05,.24,.07l.02-.06c4.39-.03,8.79-.06,13.18-.09,2.18-.02,13.05,.14,13.05-.03v-.02c.09-.04,.09-.19,0-.23Z"/><path class="cls-9" d="M93.2,74.68c-.08-.22-.4-.39-.64-.18l-.05,.04c-.65,.1-1.31,.2-1.97,.25-.47,.04-.95,.02-1.41,.1-.1-.05-.33-.08-.46,0-.95,.58-1.59,1.4-2.33,2.22-.06,.07-.09,.14-.1,.22h4.04c.82-.84,1.28-1.18,1.64-1.27,.05,0,1.03-.82,1.08-.83,.3-.05,.33-.35,.2-.55Z"/><path class="cls-21" d="M108.99,65.92c0-.1-1.25-.03-2.27-.1-1.24-.09-1.63-.15-2.29-.21-1.04-.11-1.9-.3-1.9-.28l-.37,8.25c-.04,.38,.28,.73,.7,.76l3.7,.32c.43,.03,.81-.25,.85-.63l1.58-8.09Z"/><path class="cls-10" d="M106.02,71.54c-.53-.7-.91-1.44-1.29-2.21-.66-1.31-1.56-2.51-2.22-3.82l-.05,1.14c1.05,1.37,1.03,3.24,2.14,4.6,.37,.45,.85,.8,1.27,1.19,.43,.4,.81,.86,1.15,1.32,.11,.15,.21,.3,.32,.45,.04-.07,.07-.15,.07-.24l.07-.36c-.38-.75-.94-1.4-1.46-2.08Z"/><path class="cls-10" d="M103.12,72.4c.28,.5,.74,.82,1.17,1.21,.31,.28,.57,.6,.82,.92l.98,.08c-.06-.08-.11-.16-.17-.24-.66-.9-1.6-1.55-2.32-2.4-.65-.78-.95-1.71-1.26-2.63l-.04,.81c.35,.72,.41,1.53,.81,2.25Z"/><path class="cls-10" d="M104.11,73.77c-.37-.33-.78-.63-1.07-1.03-.43-.6-.52-1.33-.75-2l-.13,2.84c-.04,.38,.28,.73,.7,.76l1.91,.16c-.21-.25-.42-.5-.67-.73Z"/><path class="cls-10" d="M94.48,68.92c0-.19-.12-.35-.28-.43-.1-.05-.2-.09-.3-.15-.12-.06-.36-.17-.56-.25-.19-.08-.4,.02-.47,.21-.09,.28-.2,.64-.24,.77-.21,.8-.85,1.5-1.38,2.12-1.06-.67-2.01-1.47-2.85-2.39-.21-.24-.42-.5-.61-.76,0,0-.01-.01-.02-.02-.02-.07-.1-.12-.18-.07-.52,.37-1.09,.72-1.6,1.12-.14,.11-.17,.3-.08,.45,.21,.36,.38,.76,.62,1.1,.43,.62,.95,1.18,1.52,1.67,.2,.17,1.4,1.28,1.66,1.14,.21-.11,1.7-1.79,1.59-1.91,.14,.15,1.72,1.76,1.78,1.69,1.07-1.22,1.47-2.72,1.39-4.33Z"/><path class="cls-9" d="M102.38,71.32c-1.19,0-2.39,.09-3.56,.29-.65,.11-1.28,.27-1.91,.45-.43,.13-.8,.39-1.25,.5-.57,.13-.13-.39,.05-.56,.4-.36,2.19-1.62,3.13-2.08,.32-.16,.57-.42,.71-.75h0c.1-.25-.18-.48-.42-.36-1.4,.73-2.8,1.53-4.16,2.37,.14-.14,.3-.31,.44-.5,.26-.36,.02-.85-.36-.59-1.15,.77-2.19,1.68-3.27,2.53-1.12,.89-2.33,1.63-3.46,2.51-.21,.16-.09,.52,.16,.57,.8,.17,1.62,.07,2.41,.21,.05,.09,.15,.15,.29,.14h.27c.06,0,.11,0,.16-.03,.87-.05,1.73-.1,2.55-.44,.8-.34,1.63-.56,2.41-.92,.64-.15,1.28-.26,1.94-.35,.76-.1,1.64-.08,2.15-.65,.04,0,.08-.02,.12-.03,.34-.08,.72-.19,1.01-.39,.16-.11,.33-.26,.41-.45,.08-.2-.02-.46,.1-.63,.12-.18,.36-.14,.41-.42,.04-.22-.09-.43-.33-.43Z"/><path class="cls-27" d="M101.66,71.94c-1.9,.02-3.77,.35-5.57,.97-.15,.05-.09,.3,.07,.24,1.78-.62,3.62-.94,5.5-.96,.16,0,.16-.25,0-.25Z"/><path class="cls-27" d="M100.42,72.98c-1.14,.13-2.27,.32-3.39,.57-.16,.03-.09,.28,.07,.24,1.1-.24,2.2-.43,3.32-.56,.16-.02,.16-.27,0-.25Z"/><path class="cls-24" d="M108.52,66.62c-.46-.29-1.13,.24-.66,.53,.94,.58,1.75,1.37,1.72,2.37-.03,1.04-1.11,1.83-2.19,2.33-.52,.24-.05,.87,.47,.62,1.29-.6,2.51-1.57,2.63-2.8,.13-1.25-.8-2.32-1.98-3.06Z"/><path class="cls-9" d="M114.03,77.56c-.48-1.93-.84-4.07-.91-6.04-.01-.33-.26-.22-.48-.11-.13-.02-.27,.03-.37,.17-.27,.41-.51,.83-.74,1.26-.13,.04-.28,.35-.27,.53,.09,1.46,.29,2.75,.51,4.19h2.26Z"/><path class="cls-9" d="M112.18,68.08s-2.09-.26-3.3-.44c-.22-.03-.5,.4-.4,.6-.38-.09-.73,.49-.35,.68h.02c-.15,.26-.06,.49,.18,.69,.09,.08,.13,.21,.1,.33-.18,.61,.26,.61,1.01,.95,.45,.2,.93,.34,1.41,.45,.23,.05,.39,.26,.38,.49-.02,.37-.02,.74,0,1.12,.04,.65,.07,1.34,.66,1.72,.26,.17,.51-.04,.55-.28,.07-.04,.72-2.06,.71-2.17-.07-.6,0-1.55,.17-2.84,.11-.79-.11-1.05-1.14-1.29Z"/><path class="cls-27" d="M112.28,68.98c-.84-.27-1.7-.48-2.56-.64-.16-.03-.23,.21-.07,.24,.87,.16,1.72,.38,2.56,.64,.16,.05,.22-.19,.07-.24Z"/><path class="cls-27" d="M111.73,69.71c-.77-.3-1.54-.55-2.34-.75-.16-.04-.23,.2-.07,.24,.8,.2,1.58,.45,2.34,.75,.15,.06,.22-.19,.07-.24Z"/><path class="cls-27" d="M111.9,70.42l-2.09-.69c-.15-.05-.22,.19-.07,.24,.7,.23,1.39,.46,2.09,.69,.15,.05,.22-.19,.07-.24Z"/><path class="cls-6" d="M102.52,65.33s.26-.22,1.68-.13c1.42,.09,2.95,.17,3.76,.32,.81,.15,1.17,.29,1.03,.41-.15,.12-2.21,.4-4.86-.05-1.02-.17-1.61-.54-1.61-.54Z"/></g><rect class="cls-31" x="120.43" y="55.17" width="1.06" height="8.07" rx=".49" ry=".49" transform="translate(11.96 -19.89) rotate(9.89)"/><rect class="cls-31" x="118.38" y="55.31" width="1.06" height="8.07" rx=".49" ry=".49" transform="translate(40.19 -47.72) rotate(27.15)"/></g><path class="cls-7" d="M111.15,102.45c-.12-.12-.32-.21-.49-.2-.18,0-.36,.07-.49,.2-.12,.14-.2,.3-.2,.49v.08c0,.18,.08,.36,.2,.49,.12,.12,.32,.21,.49,.2,.18,0,.36-.07,.49-.2,.12-.14,.2-.3,.2-.49v-.08c0-.18-.08-.36-.2-.49Z"/><path class="cls-7" d="M77.85,102.45c-.12-.12-.32-.21-.49-.2-.18,0-.36,.07-.49,.2-.12,.14-.2,.3-.2,.49v.08c0,.18,.08,.36,.2,.49,.12,.12,.32,.21,.49,.2,.18,0,.36-.07,.49-.2,.12-.14,.2-.3,.2-.49v-.08c0-.18-.08-.36-.2-.49Z"/></g><path class="cls-34" d="M71.78,105.99h0c-.07,0-.12-.07-.12-.14l4.11-56.76c0-.07,.07-.12,.14-.12,.07,0,.12,.07,.12,.14l-4.11,56.76c0,.07-.06,.12-.13,.12Z"/><path class="cls-34" d="M118.66,106h0c-.07,0-.12-.07-.12-.14l4.11-56.76c0-.07,.07-.12,.14-.12,.07,0,.12,.07,.12,.14l-4.11,56.76c0,.07-.06,.12-.13,.12Z"/><path class="cls-34" d="M120.77,77.61H26.77c-.07,0-.13-.06-.13-.13s.06-.13,.13-.13H120.77c.07,0,.13,.06,.13,.13s-.06,.13-.13,.13Z"/><path class="cls-34" d="M118.65,106H24.66c-.07,0-.13-.06-.13-.13s.06-.13,.13-.13H118.65c.07,0,.13,.06,.13,.13s-.06,.13-.13,.13Z"/></g><g><g><path class="cls-14" d="M66.22,99.6c-.45-1.46-2.27-1.68-3.57-1.77-1.64-.1-3.3,.11-4.88,.58-1.63,.49-3.18,1.24-4.58,2.21-1.39,.96-2.55,2.16-3.74,3.36-.62,.63-1.26,1.26-1.97,1.8-.67,.52-1.5,1.1-2.38,1.14-.94,.04-1.27-.81-1.9-1.32-.53-.43-1.19-.69-1.87-.77-3.56-.39-4.84,3.98-4.51,6.78,.45,3.77,3.43,7.21,6.66,9.07,0,0,.05-.6,.05-.62,0-.05-.16-.08-.27-.19-1.02-.97-1.41-2.44-2.12-3.66-.61-1.05-1.26-2.1-.62-3.29,.55-1.02,1.61-1.62,2.74-1.7,1.23-.09,2.49,.11,3.59-.56,.95-.58,1.58-1.53,2.23-2.41,.77-1.03,1.6-2.01,2.54-2.89,1.8-1.69,3.98-2.85,6.31-3.63,2.61-.87,5.34-1.32,8.05-1.75,.17-.03,.27-.24,.22-.39Z"/><path class="cls-23" d="M53.82,121.11l.08,.35c.1-1,.13-.37-3.51-.52-1.34-.05-4.9-.07-5.93-.1-6.76-.23-7.67-.59-8.44-.79l-2.11,20.17c-.05,.46,.29,.83,.75,.83l16.21,.49c.46,0,.88-.37,.92-.83l.21-1.49c1.61-.52,3.16-1.22,4.49-2.35,1.88-1.59,3.06-3.89,3.43-6.19,.7-4.4-2.09-8.34-6.1-9.55Zm3.66,9.55c-.28,1.75-1.26,3.46-2.71,4.61-.76,.6-1.62,1.04-2.51,1.37l1.3-12.95c2.67,1.15,4.42,3.8,3.92,6.96Z"/><path class="cls-34" d="M53.56,123.7s1.04,.54,1.35,.77c.87-.41,1.77-.77,2.69-1.06-1.03-1.05,.15,.1-1.31-.34l-1.52-.32c.1-1-.62-1.48-1.46-2.06,0,0-.35,.15-1.7,.26-.06,0-1.83,0-1.83,0,.56,.93,2.25,1.93,3.78,2.74Z"/><path class="cls-34" d="M57.29,127.71c.82,1.36,1.46,2.81,2.27,4.18l.06,.1c.13-.44,.24-.89,.31-1.34,.7-4.4-2.1-8.53-6.11-9.74l.02,.11c-.08,.68-.11,1.36-.19,2.05-.05,.42-.08,.63-.08,.63,1.79,.77,3.16,2.21,3.72,4.02Z"/><path class="cls-6" d="M52.26,136.98l-.09,1.15c-.01,.18,.27,.18,.29,0l.09-1.15c.01-.18-.27-.18-.29,0Z"/><path class="cls-6" d="M58.71,132.12c-.35,2.14-2.03,3.54-3.63,4.83-.14,.12,.06,.32,.2,.2,1.64-1.32,3.34-2.77,3.7-4.96,.03-.18-.25-.26-.28-.08Z"/><path class="cls-6" d="M44.67,122.7c-2.4-.05-4.41-.15-6.81-.47-.18-.02-.2,.26-.02,.29,2.32,.34,4.32,.48,6.81,.47,.18,0,.2-.28,.02-.29Z"/><path class="cls-6" d="M36.1,120.22c-.13-.11-.08-.33,.08-.37,.29-.08,1-.16,2.25-.16,2.61,0,8,.06,10.39,.35,2.39,.29,4.02,.38,4.66,.63,.64,.26,.83,.62-1.23,.91-3.81,.54-11.77-.23-14.23-.61-.73-.12-1.69-.56-1.92-.75Z"/></g><g><path class="cls-34" d="M79.53,204.66c-.25,0-.5-.03-.75-.1-1.51-.41-2.4-1.97-1.99-3.48l11.67-42.63c1.82-6.66,7.91-11.18,14.82-11l50.26,1.43c1.56,.04,2.8,1.35,2.75,2.91-.04,1.54-1.3,2.75-2.83,2.75-.03,0-.05,0-.08,0l-50.25-1.43c-4.28-.12-8.07,2.69-9.2,6.83l-11.67,42.63c-.34,1.26-1.49,2.09-2.73,2.09Z"/><path class="cls-43" d="M124.98,266.01c-.19,.04-.39,.06-.59,.06-1.57,0-2.83-1.28-2.82-2.85l.37-88.77c0-1.57,1.28-2.83,2.85-2.82,1.57,0,2.83,1.28,2.82,2.85l-.37,88.77c0,1.36-.97,2.5-2.25,2.76Z"/><path class="cls-17" d="M229.22,56.99l-64.68-2.24c-4.37-1.45-9.33,1.01-11.08,5.48l-52.86,135.32-28.52-.07c-1.27,0-2.37,1.03-2.46,2.3l-.47,6.94c-.09,1.27,.87,2.3,2.14,2.3,13.05,0,33.25,.07,46.3,.07h30.48c6.37,0,12.73,.61,19.1,.39,5.34-.18,11.06-.61,13.34-6.3l53.46-133.48c1.75-4.47-.38-9.27-4.75-10.72Z"/><g><path class="cls-40" d="M164.26,84.53c.11-1.27,.4-2.54,.96-3.68,.29-.59,.66-1.15,1.1-1.64,.22-.24,.45-.46,.7-.66,.12-.09,.24-.18,.37-.26,.21-.11,4.18,3.98,4.54,4.13-1.81,.94-4.46,3.3-2.1,10.58,.43,1.32,1.8,.13,1.89,1.51,.08,1.27-1.7-1.39-1.78-.12,0,.13-.02,.27-.05,.4l-.1,.28-.94,.09c-.22-.07-.49-.32-.67-.45-.43-.32-.83-.69-1.19-1.09-.7-.78-1.26-1.69-1.69-2.65-.89-2-1.22-4.25-1.04-6.43Z"/><path class="cls-40" d="M196.57,144.78c-.37-2.17-1.19-4.24-2.23-6.18-2.17-4.03-5.25-7.5-8.25-10.92-1.49-1.7-3.15-3.64-5.2-4.69-.72-.37-1.52-.39-2.08,.26-.2,.23-.33,.49-.4,.76l-.67,.84c-2.38,1.19-4.52,2.86-6.24,4.89-2.01,2.36-3.27,5.18-4.42,8.03-1.27,3.15-2.53,6.3-3.95,9.39-2.79,6.07-6.21,11.69-10.75,16.61-2.29,2.48-4.71,4.86-6.8,7.53-2.02,2.58-3.7,5.39-5.41,8.17-1.97,3.21-4.03,6.35-6.57,9.16-2.21,2.45-4.69,4.65-7.38,6.56-.25,.18-.56,.23-.86,.16-.53-.13-1.06-.3-1.59-.48-.17-.06-.25,.21-.08,.27,.6,.22,1.21,.39,1.82,.54-.05,.03-.09,.06-.14,.09-.15,.1,0,.35,.14,.24,.23-.16,.51-.22,.78-.17,4.31,.76,8.72,.08,12.98-.56,2.79-.43,5.65-.38,8.43-.96,3.67-.77,4.12-2.09,5.98-5.09,1.33-2.16,2.48-4.38,3.45-6.73,2.05-4.96,3.31-10.16,5.6-15.02,4.13-8.77,9.98-16.4,13.43-25.53,.91-2.41,2.05-5.05,5.08-4.33,2.54,.6,4.4,2.79,6.16,4.56,2.32,2.32,4.41,5.4,6.99,7.4,.59,.45,.59-.26,1.39-.37,.68-.1,.93-.7,.99-1.32,.1-1.03-.02-2.1-.19-3.12Z"/></g><path class="cls-43" d="M169.96,199.28H84.63c-.08,0-.14-.06-.14-.14s.06-.14,.14-.14h85.32c2.16,0,4.07-1.3,4.86-3.31L227.56,61.26c.03-.07,.11-.11,.18-.08,.07,.03,.11,.11,.08,.18l-52.74,134.42c-.83,2.12-2.84,3.49-5.12,3.49Z"/><path class="cls-9" d="M125.15,130.47c-.02-.18-.12-.35-.26-.48-.03-.25,.04-.64,.02-.78-.04-.37-.15-.72-.32-1.06-.36-.71-.96-1.29-1.59-1.78-1.57-1.22-3.3-2.28-4.95-3.4-.65-.44-1.28,.32-1.06,.91h-.01c-4.62,4.26-9.33,8.41-14.14,12.46-.4-.6-1.56-.2-1.36,.63,.39,1.63,1.71,2.76,3.11,3.63,1.32,.81,2.84,1.45,3.77,2.7-.06,.46,.32,1,.94,.85,3.15-.78,5.39-3.3,7.6-5.42l7.62-7.3c.42-.08,.77-.53,.62-.94Z"/><path class="cls-15" d="M139.33,163.34c-1.03-1.21-2.89-1.73-4.32-2.3-3.75-1.5-7.65-2.61-11.62-3.35-.27-.05-.48,.1-.57,.3-.1-.07-.24-.1-.39-.07-1.29,.32-2.59,.74-3.7,1.48-1.21,.8-4.18,3.53-4.84,3.69-1.17,.3-9.4,1.04-12.27,1.35-8.27,.9-16.53,1.85-24.77,2.95-5.09,.68-10.18,1.36-15.23,2.27-4.79,.86-9.47,1.71-13.6,4.45-7.66,5.09-6.27,14.89-3.98,22.65,.46,1.56,6.64,26.8,6.64,26.8-.03,0-.72,.97-.08,.99,.21,0,.42,.01,.63,.02,.13,.05,.27,.05,.39,.01,3.55,.11,7.09,.21,10.64,.32,1.89,.06,3.8,.15,5.64,.6,1.79,.44,3.48,1.16,5.17,1.88,.03,.07,.07,.14,.1,.21,.28,.57,1.13,.07,.86-.5-2.37-4.9-3.08-10.36-2.91-15.75,.08-2.51-.13-4.09-1.44-6.29-1.13-1.88-2.54-3.7-2.51-6,0-.81,.17-1.64,.62-2.31,1.49-2.21,7.32-2.22,9.72-2.55,3.81-.52,7.64-.86,11.44-1.45,7.24-1.12,14.18-3.58,21.37-4.96,3.56-.68,7.14-1.21,10.69-1.92,1.79-.35,3.58-.75,5.34-1.23,1.53-.42,3.15-.82,4.57-1.56,1.28-.67,2.12-1.71,2.45-3.13,.36-1.56,.44-3.13,.91-4.67,.48-1.56,1.16-3.05,2.03-4.43,.82-1.31,1.91-2.38,2.81-3.63,.85-1.18,1.24-2.68,.21-3.89Z"/><path class="cls-16" d="M139.33,163.34c-1.03-1.21-2.89-1.73-4.32-2.3-3.75-1.5-7.65-2.61-11.62-3.35-.27-.05-.48,.1-.57,.3-.1-.07-.24-.1-.39-.07-1.29,.32-2.59,.74-3.7,1.48-1.21,.8-4.18,3.53-4.84,3.69-1.17,.3-9.4,1.04-12.27,1.35-8.27,.9-16.53,1.85-24.77,2.95-5.09,.68-10.18,1.36-15.23,2.27-4.79,.86-9.47,1.71-13.6,4.45-7.66,5.09-6.27,14.89-3.98,22.65,.46,1.56,6.64,26.8,6.64,26.8-.03,0-.72,.97-.08,.99,.21,0,.42,.01,.63,.02,.13,.05,.27,.05,.39,.01,3.55,.11,7.09,.21,10.64,.32,1.89,.06,3.8,.15,5.64,.6,1.79,.44,3.48,1.16,5.17,1.88,.03,.07,.07,.14,.1,.21,.28,.57,1.13,.07,.86-.5-2.37-4.9-3.08-10.36-2.91-15.75,.08-2.51-.13-4.09-1.44-6.29-1.13-1.88-2.54-3.7-2.51-6,0-.81,.17-1.64,.62-2.31,1.49-2.21,7.32-2.22,9.72-2.55,3.81-.52,7.64-.86,11.44-1.45,7.24-1.12,14.18-3.58,21.37-4.96,3.56-.68,7.14-1.21,10.69-1.92,1.79-.35,3.58-.75,5.34-1.23,1.53-.42,3.15-.82,4.57-1.56,1.28-.67,2.12-1.71,2.45-3.13,.36-1.56,.44-3.13,.91-4.67,.48-1.56,1.16-3.05,2.03-4.43,.82-1.31,1.91-2.38,2.81-3.63,.85-1.18,1.24-2.68,.21-3.89Z"/><path class="cls-27" d="M124.13,131.69c-1.38-1.39-2.66-2.87-4.1-4.18-1.12-1.02-2.56-2.8-4.22-2.82-.12,0-.16,.12-.12,.2-.04,.04-.05,.1-.01,.16,.48,.67,5.9,6.61,7.3,7.63,.06,.04,.12,.01,.17-.02l.98-.76c.06-.05,.05-.15,0-.2Z"/><path class="cls-6" d="M139.91,171.88c.57-.54,1.12-1.1,1.63-1.69,.11-.12,.18-.25,.23-.38-.6,.71-1.22,1.4-1.86,2.06Z"/><path class="cls-33" d="M149.27,58.08c.43-1.87,1.06-3.51,2.26-5.06,.46-.59,.1-1.52-.51-1.86-.72-.41-1.48-.1-1.94,.49-.07,.09-.13,.17-.19,.26-.67-.27-.41-1.44-.83-.89-3.22,4.22-6.91,10.32-8.85,15.21-.93,2.35-1.68,5.6,.18,7.73,.81,.93,2.05,1.52,3.15,2.05,1.26,.6,2.57,1.1,3.91,1.49,.63,.18,2.54,.84,2.84,.46,1.61,1.12-1.01-.85-.82-.9,.8-.21,1.13-.95,.99-1.67-.37-1.99-.75-3.99-1.12-5.98-.35-1.9-.7-3.69-.35-5.61,.35-1.91,.85-3.81,1.28-5.7Z"/><path class="cls-16" d="M154.07,165.18c-2.7-1.62-5.69-2.72-8.81-3.2-.6-.09-1.2,.13-1.43,.7-10.68,1.58-10.91,5.22-21.35,7.96-11.29,1.12-32.41,2.1-43.58,4.12-4.91,.89-8.25,1.7-12.9,3.73-9.27,4.05-25.48,25.64-29.16,30.12-4.41,5.38-7.79,10.5-12.04,16.01,.11,.21-.4-.85-.21-.74,.07,.04,.13,.07,.2,.09,.22,.46,.7,.78,1.34,.58,2.59-.82,5.3-.24,7.94-.02,2.84,.24,5.58-.26,8.39-.56,5.09-.54,10.13,.63,15.2,.57,.45-.78,.94-1.54,1.44-2.29,.64-1.59,1.37-3.15,2.3-4.59,1.31-2.05,3.24-3.62,4.55-5.66,1.47-2.28,1.79-5.11,3.9-6.98,1.95-1.73,6.22-5.36,8.72-6.02,1.62-.43,51.55-2.12,55.55-3.17,3.11-.81,5.25-2.79,7.52-5.05,7.58-7.58,13-21.17,12.41-23.52,.66-.44,.91-1.54,.02-2.08Z"/><path class="cls-46" d="M138.68,94.6c-.13-.05-1.03-.64-1.51-.43-4.73,1.84-6.81,6.81-9.84,10.53-1.82,2.23-3.78,4.35-5.69,6.5-1.94,2.19-5.44,5.29-7.38,7.47-.05,.06-.06,.12-.05,.18,0,.08,.05,.16,.14,.2,1.34,.51,10.7,7.66,12.69,11.41,.1,.19,.35,.1,.39-.07,.8,.02,1.28-.73,1.58-1.4,.52-1.19,.92-2.44,1.37-3.65,.99-2.67,1.97-5.34,2.91-8.03,1.85-5.33,3.54-10.72,4.81-16.22,.33-1.45,.79-2.96,.88-4.45,.07-1.03,.71-1.63-.29-2.05Z"/><path class="cls-5" d="M124.62,124.74c-.39,.77,.95-.2,.52,.55l-.65,1.45s-.08,.04-.11,.09c-.19,.29-.26,.63-.23,.97-.1-.05-.21-.1-.32-.15-.26-.1-.37,.31-.11,.41,.69,.26,1.49,1.08,2.25,.52,.71-.52,1.01-1.02,1.09-1.82,.21-2.13,1.2-5.33,2.09-7.44-.24,.37-.49,.73-.75,1.09-.64,.89-2.03,3.63-3.77,4.33Z"/><path class="cls-5" d="M128.53,128.91c-2.51-4.28-5.95-7.97-9.96-10.89-.71-.51-1.93-1.7-2.78-1.52-.55,.12-4.23,3.35-4.55,4.55-.33,1.24,6.3,4.41,13.53,11.92,.43,.44,3.92-2.98,3.88-3.68,0-.12-.04-.25-.12-.38Z"/><path class="cls-16" d="M156.91,159.85c-.12-.03-.24-.05-.35-.04-10.55-2.23-21.02-4.85-31.38-7.85-.34-.1-.63-.05-.87,.08-.52,.01-.93,.39-1.13,.88-.89,2.3-1.79,4.59-2.68,6.89-.24,.61,31.55,10.77,32.65,10,2.14-1.49,3.52-5.7,4.61-8.48,.24-.61-.26-1.32-.84-1.48Z"/><path class="cls-25" d="M143.35,167.86c.15-.35,.29-.7,.43-1.05,.42-1.11,.81-2.24,1.24-3.35,.6-1.56,1.32-3.06,2.02-4.57-.71-.22-1.52-.44-2.11-.05-.13,.09-.04,.28,.08,.27-1.37,2.62-2.44,5.37-3.19,8.22,.51,.19,1.02,.36,1.54,.53Z"/><path class="cls-25" d="M127.18,154.54c-.48-.17-.97-.33-1.45-.49-.79,1.68-1.54,3.38-2.22,5.11-.21,.52-.42,1.03-.64,1.55,.51,.24,1.01,.46,1.54,.71,.35-.98,.66-1.79,1.08-2.75,.58-1.35,1.15-2.75,1.84-4.07-.05-.02-.1-.04-.15-.05Z"/><path class="cls-33" d="M181.4,77.61c-.37-1.55-1.21-3.43-2.76-2.75-.39-.68,.65-1.65,.57-1.84-1.26-2.88-5.22-3.18-7.73-1.63-1.38,.85-2.79,1.78-4.07,2.77-1.38,1.06-1.53,2.54-1.26,4.13,.45,2.61,1.59,5.23,4.1,6.39,1.59,.73,4.05,.63,5.73,.31,1.46-.27,3.12-.65,4.22-1.67,1.47-1.36,1.59-4.04,1.19-5.69Z"/><path class="cls-9" d="M174.19,96.46c-.17-.24-.43-.44-.67-.61,.04,.03,.29-.2,.32-.24-.59-.83-1.92-1.46-2.8-1.96-1.12-.65-2.3-1.21-3.5-1.68-2.28-.9-4.75-1.54-7.21-1.54-3.18,0-14.38,1.67-15.02,3.65-.66,2.05,1.78,4.16,3.3,5.07,1.77,1.06,3.81,1.84,5.77,2.47,2.21,.71,4.52,1.06,6.82,.73,2.01-.29,4.02-1.01,5.9-1.74,1.41-.54,2.79-1.2,3.99-2.14,1-.78,1.76-2.17,3.26-1.71-.03-.11-.09-.21-.15-.3Z"/><path class="cls-46" d="M186.09,100.28c-.39-2.89-2.58-5.93-5.45-6.37-1.86-.28-3.69-.59-5.55-.87-3.21-.48-6.43-.86-9.65-1.14-.27-.02-2.2,2.26-2.55,2.55-.92,.76-1.93,1.55-2.96,2.18-2.39,1.45-5.13,1.82-7.32,3.68-.26,.22-.52,.45-.83,.57-2.09,.75-1.5-4-1.36-4.97,.24-1.65,1.08-3.21,2-4.61-.81,0-1.61,0-2.42,0-.2,0-9.98,.9-14.06,3.6-.81,.48-1.49,1.19-1.99,2.06-.97,1.69-1.13,3.71-1.27,5.62-.25,3.45-.33,6.93-.87,10.34-.24,1.5-1.32,3.58-1.91,5.1-.77,1.98-1.71,3.91-2.24,5.97-1.03,4.03-1.32,8.14-1.74,12.26-.49,4.69-3.94,11.22-5.38,15.12-.67,1.83,.06,2.34,1.81,3.4,.44,.26,1.12,.33,1.6,.47,1.27,.35,2.53,.69,3.8,1.03,3.39,.92,6.79,1.83,10.18,2.77,3.6,1,7.28,2.13,10.99,2.87,3.3,.66,7.88,1.85,10.71-.57,.85-.72,1.63-1.53,2.37-2.36,2.16-2.41,4.06-5.05,5.82-7.76,4.99-7.67,8.92-16.09,11.67-24.82,.66-2.09,1.24-4.19,1.75-6.32,1.51-6.33,5.75-13.14,4.86-19.81Z"/><path class="cls-5" d="M150.76,92.7c-4.55-.04-8.52,.28-12.98,1.18-.18,.04-.67,.42-.49,.38,4.44-.89,8.95-1.32,13.47-1.28,.18,0,.18-.28,0-.28Z"/><path class="cls-19" d="M148.21,60.84h-.02c-.21,.12-.44,.66-.56,.86-1.07,1.75-2.99,7.73,.51,10.75,2.69,2.33,1.55,1.78,1.56,1.66,.03-.43,.03-.87,0-1.3-.05-.96-.21-1.92-.4-2.87-.34-1.63-.8-3.24-1.31-4.82-.06-.18-.3-.62-.26-.81,.25-1.13,.51-2.26,.76-3.39,.07-.29-.19-.13-.28-.07Z"/><path class="cls-5" d="M151.44,100.35c.44-3.9,2.41-9.35,2.85-10.75,.08-.26-1.82,.67-2.04,.83-1.78,1.22-6.99,8.46-8.79,12.47-.08,.18,0,.39,.21,.37,1.01-.07,7.67-1.92,7.78-2.92Z"/><path class="cls-9" d="M167.25,91.48c-1.04-7.01-.94-14.18,.32-21.16,.13-.74-.19-1.49-.94-1.73-.43-.24-.99-.29-1.38,0-2.16,1.65-4.33,3.3-6.49,4.95-1.04,.8-2.09,1.59-3.13,2.39-1,.77-2.03,1.51-2.82,2.51-.24,.3-.39,.66-.4,1.02-.16,.31-.2,.68-.14,1.05,1.03,5.67,1.48,11.12,1,14.57-.4,2.84,2.44,3.24,6.4,2.73,2.55-2.09,4.93-4.39,7.58-6.33Z"/><path class="cls-9" d="M176.01,51.26c-1-2.24-2.87-4.07-4.97-5.28-1.48-.85-3.1-1.46-4.78-1.8-2.26-.45-4.11-.69-6.19,.46-4.56,2.52-8.41,5.75-10.68,10.54-1.84,3.88-2.35,8.3-2.41,12.54-.06,4.17-.03,9.65,1.75,13.55,2.24,4.9,6.93,2.75,11.47,1.11,5.12-1.84,4.67-2.88,7.01-5.53,.44-.5,1.73-3.42,1.58-3.91,.51-2.57,3.33-3.78,4.16-6.26,.88-2.6,2.06-5.05,3.1-7.59,1.06-2.58,1.12-5.27-.03-7.83Z"/><path class="cls-32" d="M162.28,63.47c-.79,.04-1.28,1.76-1.41,2.42-.09,.46-.1,1.83,.66,1.54,.93-.35,1.37-2.14,1.41-3.08,.02-.42-.2-.9-.65-.87Z"/><path class="cls-32" d="M152.32,61.38c-.79,.04-1.28,1.76-1.41,2.42-.09,.46-.1,1.83,.66,1.54,.93-.35,1.37-2.14,1.41-3.08,.02-.42-.2-.9-.65-.87Z"/><path class="cls-27" d="M153.92,69.08c.15-.49,.31-.98,.48-1.47,.35-1.02,.74-2.02,1.16-3.01,.07-.18-.21-.26-.29-.08-.67,1.59-1.28,3.22-1.76,4.89-.32,1.12,.1,1.67,1.25,1.74,.19,.01,.19-.29,0-.3-.54-.03-1.12-.07-1.07-.99,.01-.23,.16-.55,.22-.78Z"/><path class="cls-27" d="M156.9,70.38l-1.42-.08c-.19-.01-.19,.29,0,.3l1.42,.08c.19,.01,.19-.29,0-.3Z"/><path class="cls-9" d="M172.06,65.61c-.86-.22-1.9,.11-2.6,.77-1.37,1.3-4.26,6.64-1.02,7.51,.45,.12,.89,.08,1.3-.07,1.36-.35,2.53-2.09,3.06-3.23,.5-1.08,1.02-2.63,.57-3.8-.26-.67-.74-1.05-1.3-1.19Z"/><path class="cls-33" d="M166.93,62.01c-.53-.94-1.42-1.73-2.39-2.2-.87-.42-2.34-.78-3.1,.04-.24,.26-.32,.61-.21,.91,.03,.57,.78,.77,1.32,.92,.44,.13,.88,.23,1.33,.31,.34,.08,.67,.15,1.01,.21,.56,.1,1.18,.27,1.75,.15,.16,.08,.39-.14,.28-.35Z"/><path class="cls-33" d="M156.14,58.38c-.01-.52-.59-.9-1.03-1.09-1.13-.49-2.68-.4-3.78,.13-.32,.15-1.19,.75-.63,1.11,.42,.27,5.14,1.37,5.42,.06,.02-.07,.03-.14,.02-.21Z"/><path class="cls-33" d="M181.75,54.72c-.82-2.77-2.22-5.33-4.69-7.01-7.79-5.3-20.1-5.46-27.14,1.23-.68,.64-1.3,1.34-1.87,2.08-1.5,1.93-2.61,4.09-3.72,6.24-1.06,2.07-2.16,4.06-2.88,6.29-.02,.06-.02,.12-.02,.17-.34,.28,.06,.89,.52,.66,.83-.41,1.8-.87,2.64-.25,.06,.05,.12,.07,.18,.08,.17,.11,.4,.14,.54-.04,.28-.34,1.49-.59,2.36-2.49,1.21-2.65,2.56-4.46,4.67-6.55,1.27-1.26,3.1-2.89,4.66-3.77,.47-.26,3.3-2.14,3.59-1.07,.12,.44-.15,.93-.24,1.36-.11,.54-.17,1.09-.19,1.64-.06,1.69,1.17,2.92,2,4.42,.65,1.19,2.96,2.94,3.68,4.11,1.87,3.02,2.43,12.03,2.7,13.19,.16,.68,.33,1.37,.7,1.97,1.4,2.31,5.2,1.86,7.43,1.23,1.17-.33,2.01-.76,2.48-1.9,.44-1.05-1.62,1.33-.9,.47,1.89-2.25,1.81-7.08,2.41-8.69,.55-1.46,1.13-2.89,1.45-4.42,.61-2.96,.49-6.06-.37-8.96Z"/><path class="cls-47" d="M177.55,77.09c-1.46-.29-2.53-1.7-3.23-2.92-.69-1.2-1.14-2.51-1.53-3.82-.06-.18-.34-.11-.29,.08,.45,1.49,.97,2.98,1.81,4.3,.61,.96,1.45,1.99,2.53,2.46-1.36,.7-3.17,1.31-4.66,.81-1.56-.52-2.41-2.08-3.15-3.43-.09-.17-.35-.02-.26,.15,.78,1.42,1.69,3.02,3.33,3.57,1.64,.55,3.59-.14,5.04-.91,.03-.01,.04-.03,.05-.05,.09,.03,.19,.05,.29,.07,.19,.04,.27-.25,.08-.29Z"/><path class="cls-47" d="M179.08,76.03c-1.3-.6-1.81-2.36-2.08-3.65-.04-.19-.33-.11-.29,.08,.29,1.36,.85,3.19,2.22,3.83,.17,.08,.33-.18,.15-.26Z"/><path class="cls-47" d="M160.29,47.45c-4.01,.15-7.06,3-9.55,5.87-2.66,3.07-4.88,6.5-6.61,10.17-.08,.17,.18,.32,.26,.15,1.64-3.49,3.73-6.76,6.22-9.71,2.49-2.95,5.57-6.03,9.68-6.18,.19,0,.19-.31,0-.3Z"/><path class="cls-47" d="M170.05,59.84c-.12-1.79-.09-3.59-.29-5.37-.27-2.39-1.36-6.4-4.44-6.28-.19,0-.19,.31,0,.3,1.8-.07,2.92,1.61,3.5,3.11,.57,1.48,.71,3.08,.78,4.65,.15,3.25,.34,6.44,.92,9.65,.03,.19,.32,.11,.29-.08-.36-1.98-.62-3.97-.76-5.97Z"/><path class="cls-9" d="M202.32,143.75c-.22-2.48-.94-4.81-1.67-7.11-.75-2.37-1.54-4.73-2.35-7.07-.88-2.54-1.79-5.07-2.69-7.59,.22-.68-.31-1.58-.9-1.06-1.85,1.62-3.76,3.11-5.74,4.46-1.61,1.09-3.71,1.96-4.62,4.1-.01,.03-.02,.06-.04,.1-.22,.23-.35,.61-.19,1.02,1.62,4.34,3.44,8.65,5.7,12.54,1.62,2.78,5.3,9.45,9.35,8.33,3.02-.83,3.37-5.15,3.15-7.7Z"/><path class="cls-27" d="M191.28,129.97c-1.21,.74-2.18,1.97-3.47,2.58-.94,.45-1.88,.26-2.48,1.14-.1,.15,.42,1.02,.42,1.02,0,0-.13-.22-.13-.23,.72-.24,5.1-1.68,5.52-2.12,.39-.41,.47-1.15,.63-1.67,.04-.12-.38-.79-.48-.73Z"/><path class="cls-47" d="M174.31,50.3c-.11-.16-.37,0-.26,.15,1.53,2.29,2.27,4.97,2.14,7.73,0,.19,.29,.19,.3,0,.14-2.8-.62-5.55-2.18-7.88Z"/><path class="cls-6" d="M159.5,82.57l-1.71,.74,1.71-.74Z"/><path class="cls-5" d="M133.02,102.9c-.24,0-.49,.55-.55,.74-.21,.65-.24,1.36-.33,2.04-.19,1.39-.27,2.78-.27,4.18,0,.05,.02,.08,.04,.1-.25,1.74-.48,3.5-1.1,5.15-1.39,3.69-3.06,7.28-3.97,11.14-.04,.18,.23,.25,.27,.08,.91-3.86,2.58-7.45,3.97-11.14,.71-1.88,.9-3.89,1.21-5.87,.17-1.11,.34-2.22,.52-3.33,.1-.62,.3-1.22,.41-1.84,.04-.27,.14-.81,.02-1.06-.07-.13-.14-.19-.21-.19Z"/><path class="cls-27" d="M161.73,81.69c-.21,.12-.42,.24-.63,.35-.49,.2-1.6,.53-1.67,.56-2.8,1.21-6.49,1.58-6.49,1.58-.16,0,.03,.77,.04,1.03,0,.13,1.69-.15,2.4-.41,.77-.28,1.53-.56,2.29-.86,1.22-.48,4.2-1.94,4.2-1.99,.17-.1,.02-.35-.15-.26Z"/><path class="cls-47" d="M179.41,77.35c-.02-.19-.32-.19-.3,0,.16,1.86-1.21,3.39-3.08,3.39-.19,0-.19,.3,0,.3,1.06,0,1.98-.45,2.6-1.17-.24,.74-.54,1.47-1.1,2.03-.75,.75-1.84,1.03-2.88,1.01-2.21-.06-4.44-1.53-4.45-3.91,0-.19-.3-.19-.3,0,0,2.46,2.22,4.05,4.52,4.2,1.04,.07,2.14-.15,2.98-.79,.97-.74,1.36-1.94,1.7-3.06,.02-.06,0-.1-.03-.14,.27-.55,.4-1.18,.34-1.85Z"/><path class="cls-5" d="M167.28,90.51c-4.72,3.19-11.34,7.26-16.31,10.04-.54,.3,4.7,7,5.5,6.22,.57-.56,1.13-1.12,1.69-1.69,1.55-1.59,10.62-11.13,11.07-12.8,.09-.35-1.43-1.69-1.95-1.78Z"/><path class="cls-27" d="M167.05,76.78c-1.06,2.33-3.13,3.9-5.41,4.95-1.3,.6-2.67,1.04-4.03,1.47-1.35,.42-2.71,.85-4.11,1.09-.19,.03-.11,.32,.08,.29,1.53-.26,3.02-.74,4.5-1.21,1.34-.42,2.68-.88,3.96-1.49,2.22-1.06,4.23-2.66,5.27-4.94,.08-.17-.18-.33-.26-.15Z"/><path class="cls-46" d="M196.43,118.63s-.07-.07-.11-.1c-2.18-4.39-4.36-8.79-6.54-13.18-1.9-3.84-3.98-10.09-8.14-11.05-.64-.15-1.78,.2-2.13,.58-.12,0,1.46-.27,1.32-.21-5.11,1.9-8.12,6.67-9.63,11.7-.84,2.79-1.56,5.85-1.02,8.76,.52,2.73,2.16,5.29,3.68,7.58,1.75,2.64,3.77,5.1,6.02,7.33,.45,.44,1.01,.33,1.37-.01,1.25-.1,2.42-.63,3.49-1.29,1.35-.84,2.63-1.8,3.91-2.74,2.55-1.85,5.05-3.76,7.51-5.74,.05-.03,.09-.07,.13-.1,.05-.04,.1-.08,.14-.11,.42-.34,.35-1.05,0-1.4Z"/><path class="cls-5" d="M194.35,119.46c-1.46-2.36-2.82-4.78-4.06-7.26-1.24-2.46-2.19-5.1-3.56-7.49-.67-1.18-1.5-2.26-2.17-3.43-.66-1.13-1.17-2.34-1.78-3.5-.47-.89-.99-1.82-1.8-2.45-.98-.76-2.3-.86-3.48-1.04-3.16-.49-6.34-.75-9.53-.8-.18,0-.18,.28,0,.28,2.8,.04,5.59,.25,8.36,.63,1.3,.18,2.9,.23,4.06,.88,1.05,.59,1.66,1.72,2.2,2.75,.58,1.12,1.09,2.29,1.72,3.39,.66,1.14,1.45,2.18,2.11,3.32,1.29,2.23,2.18,4.69,3.32,7,1.33,2.69,2.78,5.31,4.36,7.86,.1,.15,.34,.01,.24-.14Z"/><path class="cls-5" d="M200.02,121.94c0-.16-.05-.33-.15-.5-1.02-1.72-2.12-3.39-3.29-5.01-.31-.43-.82-.64-1.31-.45-.24,0-.49,.09-.72,.32-4.83,4.92-10.41,9.01-16.54,12.15-2.18-2.77-4.12-5.76-5.68-8.92-.94-1.91-1.71-3.94-1.89-6.07-.19-2.3,.32-4.58,.81-6.81,0-.01,0-.02,0-.04,0-.02,.01-.03,0-.05,0-.28-.22-.34-.45-.22-.56,.31-.72,1.46-.81,1.99-.19,1.06-.13,2.17-.06,3.24,.18,2.69,.76,5.2,1.92,7.64,1.57,3.33,3.6,6.47,5.89,9.37l-.04,.02c-.21,.11-.35,.25-.43,.41-.24,.3-.35,.68-.31,1.14,.06,.72,.6,1.33,1.02,1.89,.58,.76,1.2,1.5,1.86,2.19,.59,.62,1.25,1.48,2.12,1.69,.61,.15,1.11-.2,1.63-.47,.57-.29,1.13-.6,1.68-.91,1.11-.62,2.2-1.28,3.27-1.98,2.14-1.39,4.19-2.91,6.13-4.56,1.81-1.53,3.53-3.17,5.14-4.91,.34-.36,.35-.8,.19-1.15Z"/><path class="cls-5" d="M151.42,101.51c-1.59,3.7-3.18,7.4-4.77,11.11-1.49,3.47-3.31,6.96-4.16,10.66-.85,3.7-.86,7.55-1.57,11.28-.71,3.7-1.74,7.34-2.75,10.97-1.13,4.06-2.24,8.12-2.89,12.29-.03,.18,.25,.26,.27,.08,1.16-7.38,3.76-14.42,5.32-21.72,.37-1.72,.68-3.46,.9-5.21,.24-1.96,.35-3.93,.66-5.89,.61-3.89,2.37-7.44,3.91-11.02,1.78-4.13,3.55-8.26,5.33-12.4,.07-.17-.17-.31-.24-.14Z"/><path class="cls-25" d="M153.9,168.86c-3,.55-5.8,.05-8.69-.8-2.82-.83-5.62-1.69-8.42-2.59-2.79-.9-5.58-1.83-8.35-2.8-1.39-.48-2.77-.98-4.15-1.48-1.24-.45-2.54-.91-3.34-2.02-.11-.15-.35,0-.24,.14,1.1,1.53,3.12,2.01,4.8,2.62,2.33,.84,4.67,1.65,7.02,2.43,4.62,1.55,9.28,3.09,13.99,4.36,2.46,.66,4.93,.86,7.45,.41,.18-.03,.1-.31-.08-.27Z"/><path class="cls-5" d="M149.87,152.13c-2.67-2.72-4.99-5.75-6.92-9.04-.09-.16-.34-.01-.24,.14,1.93,3.31,4.27,6.37,6.96,9.1,.13,.13,.33-.07,.2-.2Z"/><path class="cls-5" d="M128.3,154.69c-1.64-2.1-2.6-4.63-2.77-7.29-.01-.18-.29-.18-.28,0,.17,2.74,1.16,5.33,2.85,7.49,.11,.14,.31-.06,.2-.2Z"/><path class="cls-5" d="M152.53,111.91c-.24-.22-.53-.35-.85-.35h-.07c-.17,0-.32,.03-.46,.1-.15,.05-.28,.13-.39,.25-.12,.11-.2,.24-.25,.39-.08,.14-.11,.3-.1,.46,.01,.31,.12,.63,.35,.85,.24,.22,.53,.35,.85,.35h.07c.17,0,.32-.03,.46-.1,.15-.05,.28-.13,.39-.25,.12-.11,.2-.24,.25-.39,.08-.14,.11-.3,.1-.46-.01-.31-.12-.63-.35-.85Z"/><path class="cls-5" d="M148.07,121.05c-1.55,0-1.55,2.41,0,2.41s1.55-2.41,0-2.41Z"/><path class="cls-5" d="M145.94,134.15c-.24-.22-.53-.35-.85-.35h-.07c-.17,0-.32,.03-.46,.1-.15,.05-.28,.13-.39,.25-.12,.11-.2,.24-.25,.39-.08,.14-.11,.3-.1,.46,.01,.31,.12,.63,.35,.85,.24,.22,.53,.35,.85,.35h.07c.17,0,.32-.03,.46-.1,.15-.05,.28-.13,.39-.25,.12-.11,.2-.24,.25-.39,.08-.14,.11-.3,.1-.46-.01-.31-.12-.63-.35-.85Z"/><path class="cls-5" d="M144.07,150.74c-3.57-8.38-5.69-17.34-6.26-26.43-.01-.18-.29-.18-.28,0,.57,9.14,2.71,18.14,6.3,26.57,.07,.17,.32,.02,.24-.14Z"/><path class="cls-34" d="M135.17,158.99c-.05-.14-.12-.26-.23-.36-.21-.2-.5-.34-.79-.33-.3,.01-.58,.11-.79,.33l-.03,.03c-.11,.1-.19,.22-.23,.36-.07,.13-.1,.28-.1,.43,0,.15,.03,.3,.1,.43,.05,.14,.12,.26,.23,.36,.21,.2,.5,.34,.79,.33,.3-.01,.58-.11,.79-.33l.03-.03c.11-.1,.19-.22,.23-.36,.07-.13,.1-.28,.1-.43,0-.15-.03-.3-.1-.43Z"/><path class="cls-34" d="M134.03,161.97c-.05-.14-.12-.26-.23-.36-.21-.2-.5-.34-.79-.33-.3,.01-.58,.11-.79,.33l-.03,.03c-.11,.1-.19,.22-.23,.36-.07,.13-.1,.28-.1,.43,0,.15,.03,.3,.1,.43,.05,.14,.12,.26,.23,.36,.21,.2,.5,.34,.79,.33,.3-.01,.58-.11,.79-.33l.03-.03c.11-.1,.19-.22,.23-.36,.07-.13,.1-.28,.1-.43,0-.15-.03-.3-.1-.43Z"/><path class="cls-25" d="M62,185.73c-5.6,9.92-11.2,19.85-16.43,29.98-1.47,2.86-2.92,5.73-4.32,8.62-.08,.16,.16,.31,.24,.14,4.98-10.25,10.45-20.26,16.02-30.2,1.57-2.81,3.15-5.61,4.74-8.41,.09-.16-.15-.3-.24-.14Z"/><path class="cls-25" d="M62.88,191.08c-.84,5.31-1.95,10.57-3.33,15.77-.05,.18,.23,.25,.27,.08,1.38-5.2,2.49-10.46,3.33-15.77,.03-.18-.24-.26-.27-.08Z"/><path class="cls-25" d="M112.58,171.23c-9.07,.58-18.12,1.29-27.13,2.53-3.11,.43-6.21,.91-9.3,1.48-2.93,.54-5.87,1.15-8.65,2.27-3.37,1.36-6.38,3.41-9.11,5.79,0,0-.02,0-.03,.01-.03,0-.06,.01-.09,.04-2.65,2.28-5.1,4.77-7.51,7.29-2.24,2.34-4.55,4.67-6.31,7.41h0c-.03,.05-.02,.1,0,.13,.11,.19,.16,.74,.4,.82,.21,.06,.58-.55,.72-.73,.49-.61,.98-1.22,1.47-1.83,.98-1.23,1.96-2.46,2.94-3.68,1.97-2.43,3.99-4.83,6.2-7.04,2.2-2.19,4.59-4.2,7.24-5.82,.83-.51,1.69-.98,2.57-1.41,2.65-1.29,5.49-2.04,8.37-2.62,2.97-.6,5.96-1.08,8.96-1.52,6.11-.9,12.25-1.54,18.4-2.05,3.64-.3,7.28-.55,10.92-.79,0,0,.02,0,.02,0,.12-.09,.05-.28-.1-.27Z"/><path class="cls-25" d="M57.46,222.82c1.21-1.69,2.62-3.13,4.19-4.49,.78-.67,1.58-1.37,2.14-2.24,.58-.91,.94-1.93,1.31-2.93,.76-2.05,1.69-4.05,3.02-5.8,.55-.73,1.07-1.49,1.64-2.21,0-.01-.02-.03-.03-.04-1.78,1.19-3.22,2.8-4.14,4.74-.51,1.07-.82,2.23-1.4,3.27-.59,1.05-1.48,1.84-2.41,2.58-1.79,1.4-3.52,2.78-5.01,4.51-1.51,1.76-2.78,3.69-3.77,5.78-.19,.41,.17,.8,.5,.78,.04,.01,.08,.02,.13,.03,.45,.03,.89,.09,1.33,.16,.76-1.42,1.57-2.82,2.51-4.13Z"/><path class="cls-9" d="M194.38,97.99c-.68-.82-.68-1.72-1.52-2.38-1.1-.86-2.34-1.55-3.72-1.41,.1-.19,.21-.38,.33-.57,.29-.43-.4-.84-.69-.41-1.66,2.47-1.28,5.79-1.2,8.63,.1,3.57,.29,7.14,.55,10.7,.51,6.99,1.3,13.95,2.24,20.89,.54,3.98,1.12,7.96,1.73,11.94,.04,.26,.26,.33,.46,.27,1.08,1.17,2.26,2.23,3.55,3.16,.7,.5,1.45,.91,2.16,1.39,.38,.26-.42,.34-.85,.35,.35,.23,1.55,1.1,1.77,1.03,4.93-1.61,4.58-9.45,2.8-18.88-1.44-5.74-7.63-28.74-7.6-34.69Z"/><path class="cls-9" d="M213.71,70.07c-.98,.1-1.73,.87-2.3,1.61-.28,.37-.53,.76-.81,1.14-.25,.35-.57,1.08-.91,1.31-.07,.05-.14,.1-.21,.14,.34-.74,.69-1.47,1.06-2.19,.74-1.46-2.34-.97-3.09,.49-.82,1.61-.69,1.47-1.38,3.14,.09-1.94-2.22-.39-2.67,1.28-.93,3.4-.74,2.92-1.41,5.08-.42,1.36-5.27,5.63-6.05,3.95-.1-.34-.07-.73,.14-1.11,.87-1.52,1.29-2.3,2.06-3.88,.52-1.25,1.05-2.52,1.24-3.87,.09-.62,.16-1.37-.05-1.98-.13-.39-1.15-.93-1.47-.33-2.32,4.34-4.31,8.59-6.98,12.73-1.36,2.11-3.23,4.18-3.47,6.77-.13,1.33,.01,2.7,.07,4.04l.18,4.42c0,.08,.02,.15,.05,.21-.11,.76,.95,1.53,1.72,.86,.63-.54,1.26-1.08,1.89-1.62l.84-.72c.17-.15,.35-.3,.52-.45l.1-.04c.51,.04,1.59-1.27,1.67-1.89,.63-4.59,3.59-6.05,6.36-9.11,.6-.58,1.22-1.15,1.85-1.7,1.73-1.5,3.69-2.7,4.76-4.8,.51-.99,.9-2.03,1.4-3.03,.54-1.08,1.14-2.12,1.78-3.14,1.28-2.05,2.99-4.62,4.42-6.56,.41-.55-.38-.87-1.3-.78Z"/><path class="cls-27" d="M211.57,75.22c-1.57-.07-2.87,.87-3.78,2.07-1.09,1.43-1.88,3.12-2.8,4.66-.5,.83-.99,1.68-1.54,2.48-.65,.96-1.52,1.41-2.52,1.92-1.8,.92-3.58,1.88-5.33,2.88-.16,.09-.02,.34,.14,.24,1.67-.96,3.37-1.88,5.09-2.76,.73-.37,1.54-.7,2.15-1.26,.59-.55,.99-1.3,1.42-1.98,.96-1.54,1.85-3.11,2.76-4.68,.96-1.65,2.32-3.39,4.42-3.29,.18,0,.18-.27,0-.28Z"/><path class="cls-27" d="M190.27,131.6c-.02-.18-.3-.18-.28,0,.39,3.88,.94,7.74,1.65,11.58,.03,.18,.31,.1,.27-.08-.7-3.81-1.25-7.65-1.64-11.51Z"/><path class="cls-9" d="M110.67,141.02c-.34-3.3-3.02-7.08-3.22-7.17-.28-.26-1.15-.21-1.83,.2-.37,.22-.79,.34-1.22,.4-3.26,.45-11.34,.6-13.48,.53-2.68-.08-19.74-1.7-22.1-3.69-.35-.38-5.8,5.14-4.95,5.66,1.33,.82,11.02,2.57,14.3,3.34,6.76,1.57,13.59,2.81,20.47,3.73,3.72,.5,10.17,1.08,12.14-.41,1.05-.8-.14-1.16-.1-1.17,.53-1.47,.03-1-.01-1.42Z"/><path class="cls-9" d="M68.98,131.44c-2.94-2.67-4.17-7.94-6.21-12.23-.92-1.94-1.68-3.99-3.75-4.98-.76-.37-1.2-.57-1.56-.71-.05-.02-.1-.04-.14-.05-.53-.19-.96-.26-2.21-.58-.91-.23-1.58-.38-2.18-.49-2.72-.62-3.28-.71-6.36-1.73-1.38-.46-1.15,1.65,.16,2.28,3.59,1.75,4.12,1.58,7.97,2.43-3.48,1.27-4.31,1.95-7.87,3-1.4,.41,.32,2.03,1.77,1.85,.78-.1,.49-.17,1.32-.42,.05,0,.1,0,.16,0,1.63-.17,1.64-.47,2.15-.24,.02,.13,.07,.27,.15,.41,.88,1.51,1.78,3,2.83,4.4,1.05,1.39,2.18,2.71,3.2,4.12,1.9,2.62,4.07,8.16,5.46,8.44,.17,.03,1.1-.13,2.01-.3,1.49-1.28,2.62-2.99,3.26-4.83-.17-.38-.08-.3-.17-.38Zm-10.79-7.74c-1.24-1.51-2.43-3.08-3.6-4.64h.06c1.37-.36,2.82,.2,3.57,1.4l.02,.02c.7,1.11,.47,2.28,.57,3.59-.23-.04-.45-.15-.62-.37Z"/><path class="cls-27" d="M54.23,118.68c-.38-.4-1.11-1.05-1.68-.64-.5,.36-.55,1.07-.3,1.59,.08,.16,.32,.02,.24-.14-.18-.39-.15-1.13,.35-1.27,.42-.12,.92,.37,1.19,.66,.13,.13,.33-.07,.2-.2Z"/><path class="cls-27" d="M61.28,121.27c-.76-1.73-2.05-3.37-3.28-4.8-.48-.55-1-1.05-1.68-1.34-.74-.32-1.57-.38-2.36-.49-1.68-.23-4.42-.79-4.85-2.76-.04-.18-.31-.08-.27,.09,.28,1.28,1.49,1.95,2.63,2.36,.75,.27,1.53,.46,2.32,.57,.84,.12,1.72,.17,2.5,.53,.81,.37,1.38,1.08,1.93,1.76,.58,.73,1.14,1.48,1.65,2.26,.96,1.44,2.46,3.84,.67,5.28-.14,.11,.02,.35,.16,.23,1.14-.91,1.12-2.45,.57-3.69Z"/><path class="cls-25" d="M138.21,174.65c-7.34-2.1-14.94-3.21-22.58-3.29-.18,0-.18,.28,0,.28,7.61,.08,15.18,1.18,22.5,3.28,.18,.05,.25-.22,.08-.27Z"/><path class="cls-34" d="M128.02,176.84l-6.16-2.98c-.16-.08-.31,.17-.14,.24,2.05,.99,4.11,1.99,6.16,2.98,.16,.08,.31-.17,.14-.24Z"/><path class="cls-35" d="M125.75,178.29c-.02-.18-.3-.18-.28,0,.12,1.1,.1,2.2-.06,3.29-.03,.18,.25,.26,.27,.08,.16-1.12,.19-2.24,.07-3.37Z"/><path class="cls-35" d="M126.92,178.78c-.02-.18-.31-.18-.28,0,.11,.87,.09,1.72-.06,2.58-.03,.18,.24,.25,.27,.08,.16-.88,.18-1.76,.07-2.66Z"/><path class="cls-43" d="M122.23,206.2c-.25,0-.51-.03-.76-.1-1.51-.42-2.39-1.98-1.97-3.49l11.67-41.86c1.83-6.55,7.92-11,14.82-10.82l50.26,1.4c1.56,.04,2.8,1.35,2.75,2.91-.04,1.56-1.35,2.79-2.91,2.75l-50.25-1.4c-4.29-.11-8.08,2.63-9.2,6.68l-11.67,41.86c-.35,1.25-1.49,2.07-2.73,2.07Z"/><g><path class="cls-48" d="M125.89,176.16c-.84-2.43-1.67-4.86-2.52-7.29-.69-2-.44-4.8-2.16-6.12-.63-.48-2.66,.15-3.33,.76-.56,.52-.62,1.43-.3,2.08,.42,.85,1.28,1.39,1.78,2.19,.52,.84,.87,1.78,1.4,2.62,.65,1.02,1.63,1.77,2.24,2.81,.65,1.12,.93,2.41,1.21,3.66,.14,.61,.97,.47,1.09-.04,.36,.02,.72-.26,.58-.69Z"/><path class="cls-48" d="M90.58,167.58c1.28-.09,2.43,.25,3.58,.77,.34,.15,.68,.29,1.01,.43,.83,.24,1.66,.5,2.48,.75,.08,.02,.16,.03,.24,.05,1.52,.27,3.06,.4,4.55,.84,.72,.21,1.4,.48,2.15,.63,.61,.12,1.22,.23,1.81,.44-.47-1.15-1.35-2.03-2.52-2.58-1.83-.86-3.81-1.58-5.75-2.14-1.9-.54-3.88-.86-5.86-.69-.88,.08-1.75,.25-2.59,.55-.58,.2-1.19,.44-1.36,1.09-.08,.08-.06,.26,.09,.24,.57-.07,1.13-.09,1.69-.08,.09-.16,.25-.28,.48-.29Z"/><path class="cls-48" d="M89.9,170.61c-.33-1.43-1.8-2.31-3.12-2.73-1.8-.57-3.76-.5-5.63-.49-4.47,.04-8.94,.4-13.34,1.18-.33,.06-.66,.09-.98,.09,2.69,.97,5.52,1.19,8.36,1.03,.43-.04,.87-.08,1.3-.11,.1,0,.19-.01,.29-.02,.16-.02,.31-.03,.47-.05,.08,0,.16,0,.22,.02,3.15-.12,6.31,.15,9.34,.96,.89,.24,2.33,.76,3.3,.35v-.08c.03-.13-.11-.21-.2-.16Z"/><path class="cls-48" d="M120.56,167.85c-.54-.67-2.1-.17-2.73,.03-2.78,.9-5.54,1.4-8.48,1.21-.16-.01-.19,.24-.04,.28,1.99,.54,4.04,.77,6.1,.63,1.54-.1,3.1-.37,4.45-1.13,.48-.12,1.13-.48,.7-1.02Z"/><path class="cls-10" d="M128.11,178.55c-.09-1.4-.22-2.83-.39-4.25-.28-2.28-.69-4.54-1.32-6.71-.58-2.02-1.35-3.98-2.19-5.91-1.55-3.55-3.1-6.67-6.19-9.18-4.62-3.75-9.47-5.57-15.26-6.5-3.65-.58-8.18-.89-11.88-.73-2.05,.09-4.09,.34-6.1,.77-.38,.08-.75,.17-1.12,.29-.72,.24-1.45,.58-2.22,.6-.13,0-.17-.15-.1-.24,.01-.02,.03-.03,.04-.05-1.36,.41-2.7,.93-4,1.59-3.35,1.68-6.59,3.78-9.01,6.65-2.85,3.4-4.08,7.47-2.19,10.9,1.71,3.11,5.49,3.97,8.45,3.35,.44-.09,.89-.16,1.33-.22,.08,0,.16-.01,.24-.03,4.59-.51,9.23,.85,13.45,2.58,.39,.16,.83,.03,1.16-.23,.23-.11,.43-.28,.54-.52,.64-1.33,.33-2.75-.59-3.73,.8,0,1.61,0,2.42,.02,.14,.18,.3,.35,.48,.51,.65,.55,1.41,.85,2.22,1.02,.03-.27,.22-.51,.57-.47,1.3,.12,2.62,.2,3.91,.37,.96,.13,2.29,.32,2.53,1.44,0,.02,0,.03,0,.05,1.24,.6,2.31,1.49,2.99,2.77,.56,1.05,1.82,.74,2.3-.05,.24-.24,.4-.57,.36-.91-.06-.62-.66-1.89-.9-2.44,0,0,1.68,.13,2.59,.3,2.33,.43,5.75-.19,7.75-1.31,.9-.51,1.64-1.23,2.46-1.86,.89-.68,1.16,1.91,1.28,2.35,.39,1.45,.97,2.83,1.44,4.24,.7,2.1,.66,4.13,1.02,6.27,.21,1.25,.76,2.42,1.39,3.53,.84,.86,1.7,.26,2.2-.61,.64-1.12,.41-2.42,.33-3.65Z"/><path class="cls-35" d="M81.07,146.78h.01c.22,.14,.42,.29,.65,.41,.2,.12,.41,.22,.63,.32,.12,.06,.23,.11,.35,.16l.06,.02c.46,.16,.91,.33,1.38,.47,.82,.24,1.65,.43,2.49,.57,.03,0,.07,.01,.11,.02h.07c.3,0,.61,.05,.91,.06,.65,.02,1.3,0,1.95-.03,2.42-.15,4.92-.79,7.38-1.41,1.98-.5,3.96-.99,5.97-1.31-3.42-.68-6.93-.97-10.41-.91-3.94,.06-7.85,.44-11.56,1.62l.03,.02Z"/><path class="cls-35" d="M127.52,177.06c.16,.05,.32,.08,.48,.11-.08-.95-.17-1.91-.29-2.87-.28-2.28-.69-4.54-1.32-6.71-.07-.25-.15-.5-.23-.75-1.17,.25-2.18,.94-2.63,2.23-.45,1.29,.11,2.43,.73,3.53,.19,.33,.36,.67,.52,1.02,.04,.08,.11,.25,.13,.3,.06,.15,.11,.3,.17,.45,.45,1.19,1.13,2.31,2.43,2.69Z"/><path class="cls-35" d="M99.98,169c1.1,.2,2.19,.53,3.17,1.05-.01-.11-.03-.23-.05-.35-.27-1.33-1.17-2.49-2.29-3.23-1.54-1.01-3.89-.98-4.86,.81-.2,.36-.3,.77-.33,1.18,1.4,.35,2.98,.28,4.36,.53Z"/><path class="cls-35" d="M89.84,163.8c-2.13-.33-4.34-.38-6.5-.52,.97-.77,1.94-1.58,2.59-2.65,.67-1.1,.99-2.4,.93-3.69-.13-2.44-1.71-4.58-3.94-5.53-.17-.07-.31,.17-.14,.24,2.22,.94,3.76,3.07,3.8,5.51,.05,2.76-1.69,4.54-3.72,6.14-.11,.08,0,.23,.1,.24,1.88,.14,3.75,.27,5.63,.41,1.79,.14,4.29,.61,4.48,2.83,.02,.18,.3,.18,.28,0-.16-1.83-1.88-2.72-3.52-2.98Z"/><path class="cls-35" d="M90.21,164.66c-.16-.08-.31,.17-.14,.24,.71,.33,1.7,.83,1.55,1.78-.03,.18,.25,.26,.27,.08,.17-1.1-.82-1.7-1.68-2.1Z"/><path class="cls-35" d="M106.65,169.68c-.13-.13-.33,.07-.2,.2,.76,.77,1.12,1.76,1.04,2.83-.01,.18,.27,.18,.28,0,.09-1.14-.32-2.22-1.12-3.03Z"/><path class="cls-35" d="M105.77,170.75c-.1-.15-.34-.01-.24,.14,.27,.43,.44,.9,.5,1.41,.02,.18,.3,.18,.28,0-.06-.56-.24-1.08-.54-1.55Z"/><path class="cls-35" d="M94.86,155.23c-1.64,2.66-2.43,5.73-2.28,8.85,0,.18,.29,.18,.28,0-.15-3.07,.62-6.09,2.24-8.71,.1-.16-.15-.3-.24-.14Z"/><path class="cls-35" d="M127.75,164.03c-1.23-4.04-3.85-8.49-8.37-11.34-5.6-3.53-10.88-4.54-12.08-4.59-2.06-.1-.73,4.05-.4,4.84,.24,.56,.63,1.23,.31,1.8-.5,.9-.71,1.63-1.15,2.61-.18,.48-.34,.97-.44,1.48-.15,.87-.23,1.75-.22,2.63,0,.53,.37,.99,.88,1.12,.28,.07,.54,.12,.69,.15,2.16,.47,3.63-.72,5.3-1.87,.94-.64,1.96-1.15,3.03-1.51,.49-.16,.96,.3,.82,.79-.3,1.02-.54,2.05-.72,3.1-.17,.99-.75,2.5-.19,3.44,.15,.25,.37,.46,.59,.65,.31,.26,.63,.5,.98,.71,.19,.11,.38,.22,.6,.26,.89,.15,1.97-.75,2.61-1.28,.54-.45,1-1,1.55-1.44,.37-.29,.76-.7,1.23-.86,1.2,.08,2.38,.3,3.54,.67,.57,.18,1.6-.83,1.44-1.35Z"/><path class="cls-35" d="M107.49,169.37c-.9-1.43-2.27-2.38-3.75-3.13-1.61-.82-3.39-1.71-5.2-1.88-.18-.02-.18,.27,0,.28,1.76,.17,3.5,1.05,5.06,1.85,1.44,.73,2.78,1.65,3.65,3.03,.1,.15,.34,.01,.24-.14Z"/><path class="cls-6" d="M116.22,166.34c-.35-.12-1.5,.23-1.78,.23-.23,0-1.64-.2-1.74,0-.09,.2,.63,.35,.74,.38,.54,.17,1.15,.37,1.75,.34,.26-.01,1.55-.39,1.11-.9-.02-.02-.04-.04-.08-.05Z"/><path class="cls-6" d="M109.29,164.31c-.1,.02-.85-3.1-1.32-2.89-.3,.13,.04,1.58,.12,1.83,.17,.56,.52,1.18,1.2,1.05Z"/><path class="cls-35" d="M109.93,167.85c.05-.47-.21-.59-.63-.56-.28,.02-.55,.09-.82,.16-.13,.03-.19,.02-.24,.14-.09,.22,.19,.48,.21,.7,.02,.19-.09,.33-.1,.5,0,.11-.06,.07,.06,.09,.18,.02,.38-.16,.59-.15,.28,0,.51,.36,.73,.1,.19-.23,.17-.56,.22-.83,0-.03,0-.05,.01-.08-.01-.02-.02-.04-.02-.08Z"/><path class="cls-6" d="M111.03,152.27c-1.29-.7-2.33-1.71-3.06-2.99-.09-.16-.34-.02-.24,.14,.49,.85,1.12,1.6,1.87,2.21-.17-.03-.34-.04-.52-.04-.11,0-.2,.16-.1,.24l.34,.28c.09,.08,.33,.21,.36,.33,.04,.22-.37,.57-.53,.71-.14,.12,.07,.32,.2,.2,.21-.19,.64-.59,.64-.91,0-.16-.1-.23-.21-.32-.09-.07-.18-.14-.27-.22,.01,0,.02,0,.04,0,.12,.02,.19-.09,.17-.18,.36,.29,.75,.55,1.17,.78,.16,.09,.3-.16,.14-.24Z"/><path class="cls-6" d="M126.77,163.4c-1.65-.43-3.24-1.05-4.74-1.86-.16-.09-.3,.16-.14,.24,.23,.12,.46,.24,.69,.35-.03,.05-.03,.11,.03,.15,.27,.23,.53,.47,.78,.72-.08,0-.16-.02-.23-.02-.1,0-.23-.03-.32,.04-.22,.18,.04,.61,.11,.8,.06,.17,.33,.1,.27-.08-.04-.12-.16-.35-.17-.5,.2-.03,.52,.06,.68,.09,.14,.02,.24-.13,.14-.24-.22-.24-.44-.46-.68-.68,1.13,.51,2.3,.93,3.5,1.24,.18,.05,.25-.23,.08-.27Z"/><path class="cls-6" d="M116.77,163.89c-1.11,.34-2.18,.74-3.23,1.22-.17,.08-.02,.32,.14,.24,1.03-.47,2.08-.86,3.17-1.19,.17-.05,.1-.33-.08-.27Z"/><path class="cls-6" d="M116.48,164.94c-.54,.01-1.07,.08-1.6,.21-.18,.04-.1,.32,.08,.27,.5-.12,1.01-.19,1.53-.2,.18,0,.18-.29,0-.28Z"/><path class="cls-6" d="M110.42,159.12c-.02-.18-.3-.18-.28,0,.13,1.17,.07,2.31-.2,3.46-.04,.18,.23,.25,.27,.08,.27-1.17,.35-2.34,.21-3.53Z"/><path class="cls-6" d="M109.73,161.25l-.25-.94c-.05-.18-.32-.1-.27,.08l.25,.94c.05,.18,.32,.1,.27-.08Z"/><path class="cls-35" d="M90.69,166.84c-.97-1.09-2.34-1.57-3.73-1.87-1.88-.4-3.81-.64-5.73-.8-3.56-.29-8.45,.38-10.76-3.03-.1-.15-.35,0-.24,.14,2.01,2.98,5.87,2.91,9.08,3.05,2.15,.09,4.3,.33,6.42,.69,1.72,.3,3.56,.65,4.77,2.01,.12,.14,.32-.06,.2-.2Z"/></g><g><path class="cls-6" d="M172.14,119.47c.06,.19,.14,.35,.22,.5l-.21-.68c-.03-.09-.03,.1,0,.19Z"/><path class="cls-5" d="M172.77,120.8c-.1-.33-.27-.57-.41-.84l.27,.86s0,.02,0,.03c.75,3.87,3.18,8.98,4.77,11.48,.68-1.66,.44-1.14,1.04-2.83-1.97-2.85-3.86-5.75-5.68-8.71Z"/></g><path class="cls-13" d="M157.98,74.66s-1.19-.02-3.16-.27c-1.97-.25-3.68-.91-3.68-.91,0,0,.68,2.03,2.94,2.52,2.25,.49,3.89-1.34,3.89-1.34Z"/></g></g><g><path class="cls-35" d="M16.99,139.59l-12.86,.02c-.73-.14-1.21-.85-1.07-1.58l4.79-24.47c.15-.81,.99-1.29,1.76-1.02l10.87,4.15c.64,.22,.16,1.15,.04,1.81l-1.94,20.02c-.14,.73-.85,1.21-1.58,1.07Z"/><path class="cls-37" d="M20.47,116.69l-10.87-4.15c-.78-.26-1.61,.22-1.76,1.02l-2.12,10.84c.36,3.13,1.9,13.24,2.11,15.2l9.15-.02c.73,.14,1.44-.34,1.58-1.07l1.94-20.02c.13-.66,.6-1.59-.04-1.81Z"/><path class="cls-35" d="M22.94,138.77l-12.5,.83c-.74,.12-1.43-.38-1.55-1.12l-3.91-24.41c-.13-.81,.49-1.55,1.31-1.56l12.76-.03c.67-.01,1.26,.47,1.36,1.14l3.65,23.61c.12,.74-.38,1.43-1.12,1.55Z"/><path class="cls-34" d="M24.08,138.23l-12.5,.83c-.74,.12-1.43-.38-1.55-1.12l-3.91-24.41c-.13-.81,.49-1.55,1.31-1.56l12.76-.03c.67-.01,1.26,.47,1.36,1.14l3.65,23.61c.12,.74-.38,1.43-1.12,1.55Z"/><rect class="cls-35" x="9.15" y="134" width="17.24" height="5.61" rx="2.59" ry="2.59"/><path class="cls-44" d="M7.8,113.16c-.03-.19-.31-.11-.28,.08,.88,5.97,1.76,11.93,2.64,17.9,.03,.19,.31,.11,.28-.08-.88-5.97-1.76-11.93-2.64-17.9Z"/><path class="cls-20" d="M20.33,117.64H9.87c-.23,0-.42-.17-.46-.39l-.34-2.11c-.05-.28,.17-.54,.46-.54h10.47c.23,0,.42,.17,.46,.39l.34,2.11c.05,.28-.17,.54-.46,.54Z"/></g></g></g></g></g></svg>