<?xml version="1.0" encoding="UTF-8"?><svg xmlns="http://www.w3.org/2000/svg" xmlns:xlink="http://www.w3.org/1999/xlink" viewBox="0 0 1146.58 877.43"><defs><style>.cls-1,.cls-2,.cls-3,.cls-4,.cls-5,.cls-6,.cls-7,.cls-8,.cls-9,.cls-10,.cls-11,.cls-12{fill:none;}.cls-2,.cls-3,.cls-4,.cls-5,.cls-13,.cls-14,.cls-6,.cls-7,.cls-8,.cls-9,.cls-10,.cls-11,.cls-12{stroke-miterlimit:10;}.cls-2,.cls-3,.cls-5,.cls-13,.cls-14,.cls-12{stroke:#4b4848;}.cls-2,.cls-11{stroke-width:3px;}.cls-15{fill:url(#linear-gradient);}.cls-16{clip-path:url(#clippath);}.cls-17{fill:#f7a489;}.cls-18{fill:#0476a8;}.cls-19{fill:#00abab;}.cls-20{fill:#f28d61;}.cls-21{fill:#e8b786;}.cls-22{fill:#fff;}.cls-23{fill:#f3865c;}.cls-24{fill:#803721;}.cls-25{fill:#995c4f;}.cls-26{fill:#b6ca95;}.cls-27{fill:#666;}.cls-28{fill:#332723;}.cls-29{fill:#ac512c;}.cls-30{fill:#c57160;}.cls-31{fill:#dd614b;}.cls-32{fill:#dd734e;}.cls-33{fill:#e27f63;}.cls-34{fill:#252730;}.cls-35{fill:#221f1f;}.cls-36{fill:#414141;}.cls-37{fill:#6f5651;}.cls-38{fill:#545454;}.cls-39{fill:#543237;}.cls-40{fill:#868383;}.cls-41,.cls-14{fill:#8a4d3f;}.cls-42{fill:gray;}.cls-43{fill:#26a7df;}.cls-44{fill:#2b2b2b;}.cls-45{fill:#2c294c;}.cls-46{fill:#485a7e;}.cls-47{fill:#354867;}.cls-48{fill:#383737;}.cls-49,.cls-13{fill:#4b4848;}.cls-50{fill:#5e5f5e;}.cls-3{opacity:.65;}.cls-3,.cls-5,.cls-13,.cls-12{stroke-width:2px;}.cls-4{stroke:#354867;}.cls-4,.cls-13,.cls-14{stroke-linecap:round;}.cls-51{clip-path:url(#clippath-1);}.cls-5{opacity:.37;}.cls-52{fill:url(#linear-gradient-2);}.cls-14{stroke-width:5px;}.cls-6{stroke:#485a7e;}.cls-7{stroke:#868383;}.cls-8{stroke:#545454;}.cls-9{stroke:#8a4d3f;}.cls-10{stroke:#e27f63;}.cls-53{isolation:isolate;}.cls-11{mix-blend-mode:multiply;opacity:.2;stroke:#324466;}.cls-12{opacity:.33;}</style><clipPath id="clippath"><rect class="cls-1" width="1142.66" height="789.4"/></clipPath><clipPath id="clippath-1"><rect class="cls-1" x="56.34" y="75.66" width="1062.46" height="721.62"/></clipPath><linearGradient id="linear-gradient" x1="182.27" y1="644.8" x2="1126.38" y2="644.8" gradientTransform="matrix(1, 0, 0, 1, 0, 0)" gradientUnits="userSpaceOnUse"><stop offset="0" stop-color="#cfd1d2"/><stop offset=".34" stop-color="#d7d9da"/><stop offset=".87" stop-color="#eff0f0"/><stop offset="1" stop-color="#f6f7f7"/></linearGradient><linearGradient id="linear-gradient-2" x1="289.25" y1="769.63" x2="548.1" y2="769.63" xlink:href="#linear-gradient"/></defs><g class="cls-53"><g id="Layer_2"><g id="Layer_1-2"><g class="cls-16"><path class="cls-42" d="M1034.25,479.06H355.22c-13.36,0-24.19-11.46-24.19-25.6V101.63c0-8.53,7.92-15.44,17.7-15.44,230.67,0,461.34,0,692.01,0,9.77,0,17.69,6.91,17.7,15.44,0,117.28,0,234.55,0,351.83,0,14.14-10.83,25.6-24.19,25.6Z"/><g class="cls-51"><g><path class="cls-31" d="M705.95,849.41c.1,.64,13.8,.42,13.77-.04-.27-4.97-1.23-27.76-1.84-34.05-.08-.86-.68-1.14-1.27-1.02-.19-.31-.49-.55-.9-.61-3.51-.55-11.84-3.13-12.37,2.77-.46,5.12,1.83,28.04,2.61,32.96Z"/><path class="cls-39" d="M703.66,839.7c0-.15,.05-.26,.07-.39-.15-1,.39-2.17,1.7-2.28,4.59-.37,9.19-.59,13.79-.5,.17,0,.31,.06,.46,.1,.71,0,1.39,.37,1.61,1.28,1.22,4.98-.09,10.37,2.22,15.11,1.25,2.58,3.61,4.57,3.89,7.6,.39,4.35-4.72,11.66-7.82,15.25-3.54,4.1-7.79-.91-9.61-3.61-2.32-3.45-4.96-6.98-5.67-11.14-1.15-6.82-.45-14.5-.63-21.42Z"/><path class="cls-45" d="M716.23,839.64c-2.3-.05-4.6,.01-6.9,.17-1.17,.08-1.16,1.9,.02,1.83,2.3-.13,4.59-.18,6.9-.17,1.18,0,1.15-1.81-.02-1.83Zm-.31,4.24c-2.17,.34-4.34,.59-6.53,.77-1.17,.1-1.15,1.91,.02,1.83,2.35-.17,4.69-.46,7.01-.84,1.16-.19,.64-1.94-.51-1.76Zm-7.04,8.03c2.53,.07,5.03-.23,7.46-.97,1.1-.34,.81-2.11-.33-1.79-2.29,.65-4.58,.99-6.97,.94-1.17-.02-1.34,1.79-.16,1.82Z"/><path class="cls-31" d="M614.62,844.43c.04,.65,13.68,1.8,13.71,1.34,.24-4.98,1.56-27.74,1.58-34.06,0-.86-.57-1.2-1.16-1.14-.16-.33-.43-.6-.84-.7-3.44-.9-11.47-4.31-12.59,1.51-.97,5.05-.99,28.08-.71,33.05Z"/><path class="cls-39" d="M584.36,861.27c5.34,.12,9.37-.06,14.62-.48,5-.4,8.49-2.6,14.17-3.27,4.41-.52,4.83,2,5.84,1.94,4.08-.22,8.17-.45,12.29-.7,.29-.02,2.09-.05,1.91-3.3-.2-5.2-.56-10.39-1.14-15.56-.46-2.58-2.78-2.12-4.42-2.08-3.83,.07-7.85,.82-11.78,.88-4.63,.07-2.33-.38-5.97,2.32-6.23,4.62-15.73,8.69-23.2,10.92-2.38,.71-8.53,2.19-10.17,4.51-4.29,6.05,3.44,4.72,7.85,4.82Z"/><path class="cls-45" d="M605.59,843.85c-.53,.31-1.06,.62-1.61,.93,1.15,1.49,2.35,2.94,3.69,4.27,.83,.83,2.2-.36,1.37-1.21-1.24-1.26-2.37-2.6-3.46-3.98Zm-5.47,2.91c1.09,1.56,2.28,3.05,3.59,4.44,.81,.86,2.18-.35,1.38-1.21-1.19-1.28-2.26-2.64-3.27-4.05-.56,.28-1.13,.55-1.7,.83Zm9.38-5.45c-.49,.36-1.01,.71-1.54,1.06,1.14,1.22,2.32,2.4,3.56,3.51,.87,.78,2.25-.41,1.38-1.21-1.18-1.08-2.3-2.21-3.4-3.36Z"/><path class="cls-27" d="M669.79,524.71s0-.07,.01-.1c.67-4.65-6.11-6.36-7.21-1.66-.39,1.68-.76,3.36-1.14,5.04,.03-.42,.06-.85,.1-1.27,.32-4.2-6.45-4.67-7.29-.67-.24,1.15-.45,2.3-.69,3.45-1.83-2.11-5.81-2.14-6.33,1.35-.33,2.24-.64,4.49-.96,6.74-1.94-.78-4.38-.15-4.79,2.49-.99,6.45-1.98,12.89-2.97,19.34,.25-4.89,.49-9.79,.74-14.68,.11-2.18-1.77-3.38-3.65-3.45,.03-.49,.06-.98,.09-1.47,.2-3.34-4.18-4.38-6.28-2.54-1.51-2.47-6.31-2.37-6.85,1.08-.89,5.74-1.68,11.49-2.41,17.25,.06-1.25,.1-2.5,.17-3.76,.23-4.7-7.05-4.35-7.31,.31-4.67,85.95-10.47,274.34-6.27,279.29,4.33,5.1,16.15,2.91,21.71,2.51,4.55-.33,8.87-.39,11.11-4.96,1.64-3.33,1.61-8.29,2.15-11.87,.9-5.95,1.78-11.9,2.65-17.85,6.21-42.87,11.45-85.87,15.71-128.98,4.7-47.63,8.21-95.36,10.55-143.16,.05-1.07-.29-1.87-.85-2.43Z"/><path class="cls-27" d="M655.23,524.9s-.01-.07-.02-.1c-.79-4.63,5.94-6.52,7.16-1.85,.44,1.67,.85,3.34,1.27,5.01-.04-.42-.09-.85-.13-1.27-.43-4.19,6.33-4.84,7.27-.86,.27,1.14,.51,2.29,.77,3.43,1.78-2.16,5.75-2.29,6.36,1.19,.39,2.23,.76,4.47,1.14,6.71,1.92-.83,4.37-.26,4.86,2.37,1.16,6.42,2.31,12.84,3.47,19.26-.37-4.89-.75-9.77-1.12-14.66-.17-2.17,1.68-3.43,3.56-3.54-.04-.49-.08-.97-.13-1.46-.29-3.34,4.07-4.49,6.21-2.71,1.44-2.5,6.25-2.53,6.87,.9,1.03,5.72,1.98,11.45,2.86,17.19-.09-1.25-.17-2.5-.26-3.75-.36-4.7,6.94-4.53,7.31,.12,6.9,85.8,17.58,273.98,13.51,279.03-4.2,5.21-16.06,3.33-21.64,3.07-4.55-.21-8.88-.16-11.23-4.67-1.72-3.29-19.24-115.13-24.61-158.11-5.94-47.49-10.68-95.12-14.26-142.84-.08-1.07,.25-1.88,.78-2.45Z"/><path class="cls-23" d="M888.8,385.41c-3.99,1.94-7.39,4.17-11.14,5.54,1.16-.87,2.26-1.83,3.16-3.01,1.24-1.61,4.09-5.62,3.46-7.85-.19-.66-1.05-.91-1.54-.41-2.09,2.12-3.42,4.8-5.64,6.9-1.25,1.19-2.58,2.23-4.01,3.09,1.46-1.36,2.98-3.06,2.86-4.97-.05-.8-.97-1.22-1.58-.65-2.36,2.19-6.17,5.53-9.79,6.52,.68-.95,1.53-3.2,.16-4-1.32-.77-3.14,1.45-4.1,2.04-.94,.58-3.27,1.61-3.42,1.73-.96,.5-11.92,11.7-12.82,12.31-6.65,2.64-1.3-.27-5.69,4.8-1.2,1.38,1.12,3.02,2.31,1.65,.62-.72,1.25-1.5,1.89-2.31-.26,.8,.29,1.62,1.01,1.84-.2,.48-.44,.93-.62,1.44-.47,1.34,1.06,2.44,2.19,1.64-.06,1.11,1.45,2.13,2.34,1.19,3.32-3.53,6.54-7.77,10.39-10.73,4.82-3.7,9.78-3.28,15.44-3.9,7.28-.81,12.59-5.01,16.9-10.74,.86-1.14-.49-2.75-1.76-2.13Z"/><path class="cls-23" d="M507.7,395.57c2.96,1.35,5.86,2.81,8.74,4.32-.51,.51-.96,1.05-1.37,1.59-4.59-2.39-9.33-4.33-14.33-5.78-.85-.25-1.7,.35-1.58,1.29,.13,1,4.36,3.5,6.56,4.54,2.57,1.22,15.53,11.05,18.13,12.4,2.46,1.28,4.37,2.41,6.98,3.26,3.23,1.06,16.25,12.5,19.1,14.32,.97,.61,10.32-5.26,10.04-5.9,.12-.2-15.15-15.55-15.16-15.82-.21-4.91-3.64-9.07-6.37-12.94-1.97-2.8-4.01-5.58-6.19-8.22-.97-1.17-1.58-2.23-3.17-2.21-.67,0-1.18,.37-1.29,1.05-.38,2.43,1.18,4.24,2.47,6.21,.45,.69,.97,1.33,1.46,1.99-.18-.15-.36-.3-.54-.45-6.74-5.63-13.73-10.69-22.26-13.12-1.46-.42-2.2,1.51-.85,2.19,5.62,2.82,10.84,6.15,15.69,9.98-.08-.03-.15-.06-.23-.09-.13-.05-.25-.06-.37-.07-6.56-3.97-14.23-9.27-21.73-9.67-1.17-.06-1.91,1.69-.81,2.11,4.53,1.74,7.83,3.68,11.73,5.48,2.84,1.3,5.67,2.72,8.34,4.37-.32,.21-.63,.44-.95,.66-5.97-3.52-12.88-7.61-19.7-7.75-.95-.02-2,1.42-1.02,1.91,2.25,1.13,5.88,3.08,8.67,4.35Z"/><path class="cls-49" d="M690.93,528.26c-2.02,.22-4.04,.36-6.07,.46,1.25-1.29,2.34-2.77,3.2-4.5,3.77-7.56-.25-17.28-1.96-24.91-.46-2.05-.92-4.1-1.38-6.16,.33-15.22,1.3-30.34,2.88-45.67,1.88-18.36,7.2-44.79-4.56-60.9-.95-1.29-2.19-2.31-3.57-3.01,2.9-1.1,5.72-2.31,8.23-3.94,7.91-5.16,2.93-17.33-6.41-15.21-10.37,2.35-20.4,4.25-31.05,3.02-4.74-.55-7.95,4.27-8.31,8.31-.05,.57-.1,1.14-.15,1.71-.39,4.35,2.03,6.83,5.12,7.61-6.08,9.27-7.03,21.38-8.8,32.04-.54,3.23,.62,5.89,2.53,7.71-8.2,31.21-8.42,64.03-.12,95.78,.18,.69,.45,1.3,.76,1.87-1.89,1.25-4.08,2.21-6.66,2.8-1.8,.41-3.15,1.19-4.12,2.2-1.52,.48-2.72,1.37-3.59,2.51-2.35,1.38-3.44,4.33-3.61,6.88-.02,.33-.04,.67-.07,1-.19,2.89,1.73,5.73,4.11,7.17,8.62,5.2,21.84,5.61,31.69,5.56,11.63-.06,23.15-2.2,34.13-5.97,8.28-2.84,7.68-17.43-2.21-16.35Z"/><path class="cls-18" d="M652.75,367.99c-1.39-.94,4.4-8.72,2.54-7.39-9.86,7.05-20.15,12.32-31.47,16.35-7.18,2.56-15.01,5.25-20.22,11.35-5.45,6.4-5.64,14.42-3.89,22.39,2.55,11.58,10.34,22.29,10.4,34.11,.14,28.02-.82,37.17-1.09,67.26-.2,21.91-3.07,60.71-1.84,74.81,14.66,7.53,32.43-.32,38.33-8.89,6.75-9.81,7.25-109.47,8.92-134.9l-1.68-75.1Z"/><path class="cls-18" d="M684.44,580.46c7.37,14.08,29.34,12.59,38.33,13.06,3.66,.19,1.53-54.47,0-91.26-.99-23.75,.97-51.94,6.75-74.94,.83-3.29,6.18,.44,6.76-2.87,3.77-21.58-.03-40.59-18.82-48.56-7.23-3.07-27.41-10.68-36.22-15.12-9.56-4.82-3.38,2.15-1.08,7.82,0,0,.84,48.4,.73,97.81-.12,51.94-1.08,105.23,3.55,114.08Z"/><path class="cls-49" d="M560.69,419.92c-1.02-2.23-3.53-5.8-5.86-7-2.58-1.33-6.97,3.35-8.66,5.18-1.51,1.63-2.98,3.29-4.46,4.94-.95,1.06-2.42,2.3-2.67,3.82-.41,2.45,1.95,4.49,4.1,6.04,.2,.85,1,1.49,1.99,1.4,.03,.02,.07,.05,.1,.07,1.27,.93,2.48-.16,2.62-1.4,.75-.53,1.43-1.15,2.09-1.93,.25-.3,.36-.62,.41-.94,.97-.82,1.88-1.7,2.73-2.7,.41-.48,.48-1.1,.37-1.67,1.3-1.42,2.52-2.89,3.39-4.68,.32,.39,.63,.77,.94,1.11,1.5,1.67,3.73-.45,2.91-2.24Z"/><path class="cls-49" d="M835.7,404.1c.4-.22,.83-.47,1.25-.73,.22,1.97,.88,3.77,1.63,5.54-.3,.5-.44,1.1-.21,1.69,.46,1.23,1.03,2.36,1.67,3.46-.06,.32-.07,.66,.07,1.03,.36,.96,.8,1.77,1.33,2.52-.29,1.22,.5,2.64,2,2.19,.04-.01,.08-.02,.12-.03,.9,.42,1.87,.08,2.34-.65,2.55-.74,5.45-1.88,5.88-4.32,.27-1.52-.69-3.17-1.24-4.49-.85-2.05-1.68-4.11-2.55-6.15-.98-2.29-3.56-8.17-6.43-7.78-2.6,.36-6.15,2.88-7.86,4.64-1.37,1.41,.01,4.16,1.99,3.09Z"/><path class="cls-18" d="M618.32,415.56c-.86,1.81-1.72,3.62-2.59,5.44,1.29-5.46,2.47-10.96,3.5-16.5,.71-3.81-4.87-6.93-6.76-2.85-.16,.35-.31,.7-.47,1.04-1.09-2.38-5.32-2.86-6.66-.26-1.05,2.04-2.08,4.1-3.11,6.16,2.49-6.02,5.16-11.97,8.04-17.81,2.08-4.23-4.26-7.97-6.36-3.72-8.69,17.63-15.78,35.97-20.86,54.97-2.56,9.59-4.69,19.32-6.19,29.13-.81,5.31-1.78,11.7,2.37,15.98,9.38,9.65,22.18-2.9,26.66-11.04,9.61-17.5,14.99-38.32,19.18-57.69,.84-3.87-4.86-6.83-6.76-2.85Z"/><path class="cls-18" d="M778.47,435.82c-5.77-8.08-12.06-15.8-18.68-23.2-10.4-11.62-25.92-26.59-36.51-33.62-.42,.8,1.64,3.37,1.38,4.21-.48,1.59-.82,3.23-1.12,4.87,1.35,1.12,2.71,2.22,4.04,3.36-1.36-1.02-2.73-2.02-4.11-3.03-.13,.73-.27,1.45-.4,2.18-1.2,6.53-1.39,13.05-1.18,19.68,.12,3.86-.97,6.94-2.78,9.27,10.61,12.46,22.4,24.7,35.68,33.78,7.67,5.25,24.76,10.66,28.77-2.19,1.78-5.69-1.98-10.95-5.1-15.32Z"/><path class="cls-18" d="M590.09,458.22c1.87-.55,3.45-2.47,2.73-4.54-3.06-8.7-22.98-26.95-30.81-35.87-1.39-1.59-3.76-1.21-5.21,0-4.58,3.83-10.25,8.65-14.27,13.39-1.29,1.52-1.71,3.1,1.5,6.7,13.65,15.34,21.39,37.67,35.22,49.23,4.18,3.49,6.9-2.7,4.34-6.69-.76-1.19-1.55-2.35-2.33-3.53,2.3,.02,4.58-1.83,3.66-4.52-.19-.55-.39-1.09-.58-1.63,2.15,.11,4.5-1.67,4.17-3.9,2.4-.12,4.46-2.95,3.17-5.61-.5-1.04-1.04-2.05-1.58-3.05Z"/><path class="cls-18" d="M779.31,447.94c-1.19,.75-2.39,1.48-3.58,2.25-3.98,2.57-4.06,9.34,1.19,7.89,17.38-4.81,47.74-27.39,66.51-35.71,4.41-1.95,4.69-3.57,4.14-5.48-1.7-5.99-4.87-12.72-7.45-18.1-.82-1.7-2.82-3.02-4.74-2.16-10.83,4.88-57.78,25.85-64.16,32.5-1.52,1.58,5.99,17.86,8.1,18.8Z"/><path class="cls-43" d="M654.43,442.92l-1.68-75.1c-1.04-.7,1.92-5.21,2.72-6.9-.08-.15-.17-.29-.28-.42-4.5,3.21-9.1,6.04-13.84,8.57-2.15,6.18-4.5,12.53-5.35,18.83-.5,3.7,10.81,54.26,17.87,67.08,.18-4.89,.36-9.01,.56-12.05Z"/><path class="cls-43" d="M696.69,383.66c-1.06-6.26-3.61-12.54-5.95-18.64-1.91-.94-3.79-1.94-5.65-2.98-1.44-.65-2.76-1.27-3.88-1.84-2.02-1.02-3.3-1.49-4.1-1.58,1.2,2,3.01,4.93,2.2,5.52l.02,2.13c.29,.59,.57,1.18,.8,1.75,0,0,.73,84.78,.77,85.35,8.19-11.27,16.42-66.02,15.8-69.7Z"/><path class="cls-23" d="M671.19,323.31c-6.34-1.02-12.69-1.93-19.06-2.67-.57-.07-1.08-.03-1.58,.04-3.27,.15-6.57,3.1-5.3,7.3,4.7,15.49,4.62,25.04,7.69,40.99,1.37,7.13,28.21,2.52,27.95-.38-1.02-11.08-3.22-29.09-5.04-40.09-.4-2.43-2.09-4.78-4.65-5.19Z"/><path class="cls-32" d="M661.19,358c2.38-2.37,5.8-3.37,7.98-5.97,2.46-2.93,2.68-9.79-2.75-8.67-.64,.13-1.06,.52-1.31,.99-2.34,.51-5.23,2.86-7.05,4.46-.35-.24-.78-.38-1.17-.33-2.19,.28-4.59,1.65-6.53,3.52,.65,4.17,1.25,8.36,1.89,12.55,.99-.02,1.99-.25,2.91-.69,2.66-1.29,4.03-3.85,6.04-5.86Z"/><path class="cls-23" d="M672.59,280.67c-4.3-4.62-11.42,.77-17.25,.68-6.89-.1-12.42-4.81-16.06,.85-4.53,4.82-8.77,9.84-8.92,16.76-.28,12.75,.53,33.74,6.57,44.82,4.78,8.76,11,11.56,15.67,11.11,7.79-.76,16.48-9.13,19.66-14.82,1.82-3.26,5.44-6.9,6.27-9.9,4.77-17.16,6.86-35.73-5.95-49.5Z"/><path class="cls-37" d="M673.61,278.13c-3.64-2.19-7.9-3.19-12.24-3.45-.49-.11-.97-.21-1.43-.29-3.01-.56-6.07-.64-9.04-1.42-2.89-.76-5.58-2.15-8.6-2.44-4.16-.4-8.06,1.22-10.74,4.41-3.88,4.62-5.76,12.94-.73,18.87,.75,.89,1.56,2.05,2.59,2.81,5.48,5.63,13.77,2.58,21.09,1.75,16.32-1.85,6.32,11.26,13.65,16.18,.71,.48,2.23,1,2.95,1.6,5.91,4.96,4.44,18.94,5.6,19.34,1.63,.56,4.32-8.44,4.98-10.35,4.38-12.54,4.47-22.91,4.05-27.93-.69-8.25-4.57-14.54-12.14-19.1Z"/><path class="cls-45" d="M655.62,318.07c.09,1.22-.47,2.26-1.25,2.32-.78,.06-1.49-.89-1.58-2.11-.09-1.22,.47-2.26,1.25-2.32,.78-.06,1.49,.89,1.58,2.11Z"/><path class="cls-37" d="M662.05,326.83c-4.1,3.49-8.17,6.19-14.51,6.95-4.7,.56-10.06-.45-14.1-3.22-.3-.21-.62-.34-.93-.42,1,5.19,2.42,9.97,4.43,13.64,4.78,8.76,11,11.56,15.67,11.11,4.87-.48,10.09-3.92,14.09-7.83,3.22-2.81,4.01-6.8,4.55-10.33,.6-3.9,1.53-9.58-2.09-12.44-2.61-2.07-4.94,.69-7.11,2.54Z"/><path class="cls-45" d="M637.91,318.36c.09,1.22-.47,2.26-1.25,2.32-.78,.06-1.49-.89-1.58-2.11-.09-1.22,.47-2.26,1.25-2.32,.78-.06,1.49,.89,1.58,2.11Z"/><path class="cls-32" d="M655.19,334.81c-5.08,1.69-10.04,1.82-15.87,.9-1.82-.29,.05,2.16,1.06,2.9,4.69,3.4,12.04,3.29,15.72-2.96,.28-.48-.34-1.02-.91-.83Z"/><path class="cls-22" d="M655.19,334.81c-4.99,1.66-9.87,1.8-15.58,.94,1.31,3.48,5.2,2.92,8.59,2.68,2.81-.2,6.19-.92,7.01-3.62,0,0-.02,0-.03,0Z"/><path class="cls-37" d="M662.42,310.01c-.76-.81-4.94-.52-7.13-.32-1.45,.13-5.78,.37-6.24,1.55-.5,1.29,.69,2.11,1.82,2.11,3.96-.02,7.92-.5,11.66-.75,.5-.03,.76-.51,.74-.92,0,0-.2-.96-.86-1.67Z"/><path class="cls-37" d="M638.44,311.5c-.5-1.16-4.84-1.25-6.29-1.33-.49-.03-1.09-.06-1.72-.07,.04,1.15,.1,2.31,.16,3.49,2.02,.09,4.06,.15,6.1,.09,1.13-.04,2.29-.89,1.75-2.17Z"/><path class="cls-32" d="M644.83,330.32c-1.57-.84-2.27-2.44-1.94-4.18,.22-1.15-1.54-1.5-1.79-.35-.54,2.54,.65,4.97,2.92,6.18,1.04,.56,1.85-1.09,.81-1.65Z"/><path class="cls-32" d="M675.12,315.92c-.77-.93-1.86-1.39-3.06-1.36-.69,.02-1.36,.19-1.98,.48-.62,.29-1.36,1.11-2.04,1.15-1.17,.06-1.19,1.88,0,1.83,.77-.03,1.49-.48,2.21-.91,.05,.24,.17,.47,.37,.62,.38,.29,.73,.4,1.16,.5,.85,.95,.48,3.5,.33,4.27-.07,.37,.07,.67,.29,.87-.12,.42-.23,.82-.33,1.2-.27,1.05,1.11,1.57,1.7,.71,1.77-2.61,3.74-6.47,1.35-9.37Z"/><path class="cls-43" d="M552.61,434.5c-2.37,0-2.37,3.68,0,3.68s2.37-3.68,0-3.68Z"/><path class="cls-43" d="M557.82,442.16c-2.37,0-2.37,3.68,0,3.68s2.37-3.68,0-3.68Z"/><path class="cls-43" d="M834.99,415.8c-2.37,0-2.37,3.68,0,3.68s2.37-3.68,0-3.68Z"/><path class="cls-43" d="M824.26,421.01c-2.37,0-2.37,3.68,0,3.68s2.37-3.68,0-3.68Z"/><path class="cls-43" d="M723.73,428.58c0-.36-.43-.71-.92-.69-6.69,.25-13.68-.05-20.38-.06-.69,0-.92,.25-.93,.62-.04,1.12-.04,2.22,.02,3.33,.02,.37,.41,.69,.92,.69,6.11-.02,12.22,.01,18.33-.05,3.69-.04,2.91-1.2,2.97-3.84Z"/><path class="cls-43" d="M610.92,393.34c-.29-1.14-2.06-.66-1.77,.49,2.77,10.97,4.42,21.14,2.73,32.43-1.45,9.71-2.49,19.35-3.11,29.16-.07,1.18,1.75,1.17,1.83,0,.72-10.85,2.22-21.47,3.56-32.25,1.27-10.28-.72-19.9-3.25-29.83Z"/><path class="cls-43" d="M722.21,418.17c-4.36-5.67-6.98-12.2-9.5-18.84-.41-1.09-2.17-.62-1.76,.48,2.58,6.86,5.28,13.63,9.82,19.47,.63,.81,2.08-.29,1.44-1.11Z"/><path class="cls-43" d="M780.48,444.13c-1.3-3.4-2.48-6.84-3.51-10.33-.33-1.12-2.09-.65-1.76,.49,1.03,3.49,2.2,6.93,3.51,10.33,.42,1.09,2.19,.62,1.77-.49Z"/><path class="cls-43" d="M587.12,441.91c-.66-.96-2.24-.05-1.57,.92,4.06,5.93,6.14,12.53,6.18,19.72,0,1.18,1.83,1.18,1.83,0-.01-7.47-2.19-14.49-6.44-20.64Z"/></g><circle class="cls-2" cx="477.1" cy="511.68" r="9.97"/><path class="cls-15" d="M358.35,604.5c-10.21,3.43-176.07,72.18-176.07,72.18l944.11,8.42-155.06-76.02-612.97-4.58Z"/><rect class="cls-49" x="182.27" y="676.68" width="794.59" height="23.07"/><path class="cls-50" d="M528.72,757.74c1.59-4.41,4.74-7.47,8.07-7.83,3.5-.38,6.56,2.31,7.7,6.77,4.1,24.48,8.2,48.96,12.3,73.44l-34.6-9.81,6.54-62.57Z"/><path class="cls-46" d="M887.73,728.18s54.47-8.88,53.72-9.26c-.01,0-.02-.02-.02-.02-.01-.01,2.29-5.66,7.53-8.63,2.35-1.33,23.83-4.53,12.02-2.63l112.33,49.97s-14.02,61.25-15.74,60.89c-.02,0-.04-.02-.04-.03-10.33-10.31-92.8,7.89-92.8,7.89-19.32,4.26-47.76,5.79-86.03-7.86l9.02-90.32Z"/><path class="cls-4" d="M944.83,728.18c-1.13,1.26-12.4,11.4-12.4,11.4l-37.19,11.27"/><path class="cls-30" d="M899.38,605.89c-6.92-10.68-5.72-22.78-3.1-31.83,7.52-25.92,25.78-26.04,28.77-25.4,7.9,1.67,14.26,19.44,13.77,30.87-.41,3.63-1.26,8.15-3.01,13.15-2.2,6.29-5.09,11.19-7.51,14.65-9.64-.48-19.28-.96-28.92-1.45Z"/><path class="cls-21" d="M995.17,562.63c-1.13,.38-30.43,16.53-30.43,16.53l-19.54,34.94s-16.91,13.9-16.91,11.27v-21.79c-2.07-1.9-6.88-5.82-14.28-7.51-7.41-1.7-13.47-.25-16.15,.56-16.77,21.93-19.16,39.23-19.16,50.91,0,1.13,11.65,46.21,11.65,46.21,8.28,1.25,24.47,2.55,43.2-3.76,21.83-7.36,35.05-20.98,40.57-27.43-1.13,4.13-2.25,8.27-3.38,12.4-.71,.26-3.29,1.3-4.88,4.13-1.39,2.46-1.22,4.82-1.13,5.64-.46,.9-1.26,2.8-1.13,5.26,.2,3.71,2.37,6.11,3.01,6.76-1.55,.52-4.23,1.66-6.76,4.13-3.35,3.28-4.49,7-4.88,8.64,4.18,8.32,15.08,27.17,37.57,40.57,29.56,17.62,58.95,13.78,67.25,12.4,18.91-33.31,37.82-66.62,56.73-99.93,1.38-9.46,6.46-51.56-21.41-89.79-17.94-24.61-40.89-35.74-51.85-40.2-16.03,10.02-32.06,20.04-48.09,30.06Z"/><rect class="cls-49" x="950.23" y="474.29" width="8.87" height="19.23" rx="1.23" ry="1.23"/><path class="cls-30" d="M959.11,446.17c-1.44,2.65-2.89,5.79-4.13,9.39-2.45,7.11-3.22,13.53-3.38,18.41,1.94,1.13,3.88,2.25,5.82,3.38-2.85,8.69-3.33,16.14-3.19,21.41,.23,8.84,.57,21.58,9.39,27.43,5.01,3.32,10.87,3.18,14.65,2.63,.15,3.3,.76,8.15,3.01,13.52,3.29,7.89,8.37,12.83,11.27,15.25,15.4-6.91,30.81-13.81,46.21-20.72l-6.76-37.59c-24.29-17.71-48.59-35.41-72.88-53.12Z"/><rect class="cls-41" x="663.58" y="724.92" width="21.55" height="30.2" rx="3" ry="3"/><rect class="cls-41" x="653.3" y="695.62" width="20.56" height="41.14" rx="2.86" ry="2.86" transform="translate(-162.71 196.08) rotate(-15)"/><path class="cls-49" d="M316.55,523.59c-16.42,12.64-22.79,25.18-25.55,34.4-9.74,32.58,10.38,74.64,9.02,75.03,0,0-.02,0-.02,0-.04-.15,106.21-31.7,105.21-31.2-1,.5-32.31-59.73-32.31-59.73l-18.29-14.4-38.07-4.1Z"/><path class="cls-8" d="M301.06,567.85c1.59-9.63,9.6-16.97,19.29-17.72,9.57-.73,18.53,5.16,21.66,14.28l9.14,64.87s-10.77,1.06-21.63,2.06c-17.08,1.57-19.4,2.83-22.19,1.69-4.71-1.92-13.45-10.85-6.26-65.18Z"/><polygon class="cls-49" points="362.14 529.97 365.89 538.05 356.63 535.58 362.14 529.97"/><polygon class="cls-38" points="356.63 542.09 362.14 529.97 353.2 526.81 356.63 542.09"/><path class="cls-29" d="M343.6,493.63c-.21-.53-14.68,4.02-18.96,5.38-2.01,4.53-3.73,9.2-5.9,13.65-.15,.31-.3,.61-.45,.92-.08,1.56-.06,3.16-.17,4.64,7.67,7.34,22.61,21.25,22.61,21.25h15.4c.13-2.84,.72-7.58,3.26-12.77,2.06-4.23,4.64-7.19,6.51-9.02,0,0-22.04-23.42-22.29-24.04Z"/><path class="cls-20" d="M173.01,528.42c-5.16,11.16-11.05,18.78-15.59,23.75-7.63,8.35-16.87,15.16-15.05,19.54,.55,1.33,1.93,1.95,2.65,2.25,1.92,.81,57.05,24.04,75.89-.1,.71-.91,1.22-1.7,1.5-2.15-2.24-1.55-10.1-7.37-13.15-18.41-3.49-12.62,1.86-22.81,3.01-24.88h-39.26Z"/><path class="cls-19" d="M64.62,700.95c1.53-21.18,7.35-58.52,31.93-95.8,10.06-15.25,21.02-27.1,30.81-36.07,10.04-5.01,25.78-11.22,45.83-12.77,35.92-2.78,63.13,11.16,74.01,17.56,6.33,9.78,13.02,21.59,19.16,35.42,7.26,16.35,11.94,31.5,15.03,44.33l12.77,8.27c.4,1.81,3.05,14.79-4.92,23.23-6.1,6.46-15,6.65-23.26,6.82-8.26,.17-14.94-1.56-19.16-3.01-4.05-14.72-10.1-32.73-12.4-30.43-1.13,1.13-4.88,32.68-4.88,32.68-18.14,7.37-45.76,16.19-80.4,18.41-35.9,2.3-65.33-3.37-84.53-8.64Z"/><ellipse class="cls-20" cx="207.57" cy="500.7" rx="21.23" ry="36.82" transform="translate(-89.89 47.59) rotate(-10.77)"/><path class="cls-50" d="M633.95,762.68c1.06-4.46,4.59-7.91,9.02-8.83,4.66-.97,9.51,1.05,12.17,5.07,11.71,22.48,23.41,44.96,35.12,67.44l-49.54-3.26-6.76-60.42Z"/><rect class="cls-41" x="757.93" y="567.89" width="32.36" height="57.48" rx="4.5" ry="4.5"/><path class="cls-43" d="M714.53,733.57c-4.1-5.81-9.98-15.84-12.55-29.51-4.35-23.15,3.64-41.62,6.92-48.26,8.61-12.49,25.21-32.96,52.74-48.89,39.69-22.97,78.1-22.59,93.78-21.55,6.27,9.74,12.75,22.15,17.47,37.19,14.21,45.31,3.3,85.41-2.82,103.13-51.85,2.63-103.69,5.26-155.54,7.89Z"/><path class="cls-17" d="M477.1,491.81v61.61c0,4.86-3.97,8.83-8.83,8.83h-8.08v11.61l-53.72-1.84v-60.68c0-4.86,3.97-8.83,8.83-8.83h31v-10.7c0-4.86,3.97-8.83,8.83-8.83h13.15c4.86,0,8.83,3.97,8.83,8.83Z"/><path class="cls-35" d="M481.23,486.36c-.95-6.5-5.04-10.4-6.25-11.48h0c.9-2.75,1.4-5.68,1.4-8.73,0-15.46-12.53-27.99-27.99-27.99-11.68,0-21.69,7.16-25.88,17.33-5.68,3.47-9.59,7.16-12.28,10.2,0,0-2.99,3.38-13.15,19.91,.17,7.28,1.23,17.62,5.26,29.3,4.72,13.68,11.57,23.59,16.53,29.68,1.14,1.1,5.64,5.19,12.77,5.64,7.26,.45,12.29-3.18,13.52-4.13,4.47-5.04,9.73-12,14.28-21.04,2.95-5.87,4.97-11.37,6.39-16.15,1.63,8.27,3.26,16.53,4.88,24.8l2.25-24.04,6.76-12.77c.73-1.63,2.23-5.54,1.5-10.52Z"/><rect class="cls-33" x="464.32" y="503.27" width="6.01" height="32.31" rx=".84" ry=".84" transform="translate(-72.65 76) rotate(-8.63)"/><line class="cls-10" x1="461.32" y1="528.44" x2="461.32" y2="558.5"/><line class="cls-2" x1="469.2" y1="511.68" x2="487.07" y2="511.68"/><path class="cls-47" d="M474.47,588.18l-9.5-.02-65.72-.15-12.68-.02,12.68-15.96c7.62-2.19,18.81-4.48,32.4-4.13,14.21,.36,25.68,3.48,33.32,6.2l1.39,.04,8.12,14.04Z"/><path class="cls-47" d="M406.47,582.92h54.85c10.02,.13,30.9,1.85,51.59,15.4,37.52,24.57,65.51-80.1,71.37-88.48,3.28-4.7,25.89,2.2,26.61,5.48-3.49,14.1-7.95,106.05-24.94,124.86-13,14.4-16.56,13.29-66.78,53.94,.74,7.04,1.79,18.35,3.01,32.31,1.41,16.15,2.63,32.31,1.88,32.31-1.5,0-231.05,6.76-231.05,6.76-1.76-.77-12.41-5.69-16.15-17.66-2.32-7.43-.81-13.84,0-16.53,12.52-37.2,20.52-67.56,25.55-88.66,4.3-18.04,5.58-25.71,11.65-34.19,19.64-27.43,64.15-27.92,92.42-25.55Z"/><line class="cls-11" x1="317.81" y1="632.13" x2="317.81" y2="738.08"/><path class="cls-52" d="M300.52,819.22l-11.27-78.14c.49-2.79,2.13-9.93,8.27-16.15,7.97-8.09,17.86-8.89,20.29-9.02,58.11-1,116.21-2,174.32-3.01,4.54,.25,15.24,1.48,24.8,9.39,3.83,3.17,6.47,6.58,8.27,9.39,7.64,31.56,15.28,63.12,22.92,94.67h-246.83l-.75-7.14Z"/><path class="cls-3" d="M298.65,747.09c-.18-4.94,1.17-7.91,2.63-9.77,2.95-3.76,9.02-6.39,9.02-6.39h0s187.09-2.25,188.6-2.25c14.67,0,22.06,15.57,27.43,22.17"/><line class="cls-11" x1="505.65" y1="605.83" x2="516.92" y2="683.23"/><path class="cls-41" d="M738.02,534.58s-8.91-4-10.99-2.43c-2.08,1.58-.9,21.79,.9,24.7,1.81,2.91,12.51,4.15,12.51,4.15,0,0-3.17-12.18-2.42-26.42Z"/><path class="cls-25" d="M805.76,491.45c-.38,0-65.14,1.43-66.07,2.37-.93,.93-3.26,41.6-3.08,45.99,.19,4.38,3.62,28.1,6.04,31.61,2.08,3,23.7,19.97,25,20.53,1.31,.56,10.19,.78,11.88-.34,1.68-1.12,24.5-17.32,26.18-22.46,.74-2.26,5.98-28.37,3.09-35.36-2.89-6.99-3.03-42.33-3.03-42.33Z"/><path class="cls-41" d="M808.19,534.58s8.9-4,10.98-2.43c2.08,1.58,.91,21.79-.9,24.7-1.8,2.91-12.51,4.15-12.51,4.15,0,0,3.17-12.18,2.42-26.42Z"/><path class="cls-25" d="M811.66,529.48c-.41-12.27,.04-26.18-6.83-36.21-6.88-10.02-44.39-9-54.89-3.88-10.5,5.11-13.66,14.12-16.07,26.19-.98,4.93-.59,12.22,.22,19.1,0,.19,0,.35,.02,.48,0,0,.06,.33,.14,.91,1.19,9.39,3.03,17.67,3.03,17.67,0,0,.07,.06,.17,.14,1.34,6.53,2.9,12.88,4.31,15.5,3.39,6.3,13.13,15.92,13.13,15.92,0,0,10.02-4.51,17.02-5.12,6.99-.61,21.41,7.99,21.41,7.99,0,0,10.34-12.55,13-21.62,.8-2.75,1.54-6.16,2.17-9.57,.41-.35,.82-.71,1.22-1.08,0,0,2.34-14.14,1.94-26.42Z"/><path class="cls-35" d="M729.91,499.29s1.57,44.58-.24,69.71c-1.82,25.13,19.65,27.09,35.72,28.71,16.06,1.63,33.83,18.2,33.83,18.2,0,0,21.71-29.89,6.55-54.9-15.16-25.03-75.86-61.72-75.86-61.72Z"/><path class="cls-35" d="M773.13,502.06s-6.67,20.54-7.49,31.63c-1.07,14.58-26.57-5.01-26.57-5.01,0,0-7.51-2.73-9.36-32.18-1.08-17.23,27.43-46.91,56.08-40.24,28.65,6.67-6.41,40.05-12.66,45.8Z"/><path class="cls-35" d="M770.52,551.88c6.36,15.98,17.18,28.06,20.09,47.14,2.92,19.08,15.62,16.31,12.69,28.37-2.94,12.07-8.14,14.19-4.55,25.28,3.59,11.09,10.76,13.21,10.76,13.21,0,0-2.26-7.72,19.14-11.52,23.26-4.13,39.66-20.48,24.9-43.16-9.13-14.02,12.06-8.8,8.8-34.67-1.82-14.46-14.35-20.64-18.26-40.54-3.91-19.89-3.71-62.51-43.93-77.58-49.2-18.42-35.99,77.49-29.63,93.48Z"/><path class="cls-44" d="M769.09,471.37s5.15-11.54,28.95-5.66c23.81,5.87,26.42,26.26,24.46,40.69-1.95,14.43,7.81,27.26,16.14,40.25,8.32,12.99,1.49,22.12-6.67,33.86-8.16,11.74,2.26,22.5,6.67,37.18,4.41,14.68-20.05,17.29-17.44,27.07,0,0-2.14-14.03,10.18-24.46,12.32-10.44-12.06-23.33-11.62-41.83,.46-18.5,16.9-20.85,11.62-34.84-5.29-14-17.37-24.15-17.53-46.96-.16-22.81-32.3-34.33-44.76-25.3Z"/><path class="cls-43" d="M899.72,594.52c.58-.4,.37-1.43-.33-1.55-.06-.01-.09,.08-.03,.1,.6,.11,.82,1.02,.3,1.37-.05,.04,0,.12,.05,.09h0Z"/><path class="cls-43" d="M858.37,595.43c20.56,22.78,31.19,44.59,36.87,59.24,8.21,21.17,18.85,48.61,6.01,62.36-9.42,10.09-27.12,8.12-34.94,6.76l-7.94-128.37Z"/><path class="cls-6" d="M859.02,605.89c5.93,11.51,13.64,29.88,16.69,53.67,2.81,21.98,.58,40.35-1.88,52.6"/><path class="cls-40" d="M656.91,825.66c-1.2-8.14-2.28-19.66-1.51-33.41,.49-8.75,1.59-28.51,7.55-40.83,13.27-27.46,57.36-31.94,114.21-37.02,21.39-1.91,51.57-3.42,88.08-1.22,17.28-2.57,25.34,2.28,28.93,5.32,5.88,4.97,9.88,13.58,8.74,68.82-.41,20.1-.69,30.13-1.44,32.41-6.11,18.57-57.36,30.32-244.56,5.94Z"/><path class="cls-12" d="M673.85,775.8c1.61-4.91,4.48-11.66,9.68-18.64,3.57-4.78,7.31-8.42,10.49-11.09,24.18-7.64,57.17-15.44,96.85-17.42,35.01-1.75,65.09,1.54,88.2,5.74,5.54,2.75,8.56,6.09,10.26,8.51,5.53,7.91,5.88,18.87,5.75,18.9-.02,0-.06-.15-.1-.29"/><circle class="cls-28" cx="149.69" cy="459.11" r="18.22"/><path class="cls-28" d="M223.54,477.33c0,2.05-.25,5.18-1.5,8.72-.65,1.87-3.5,9.94-9.17,12.32-.03,3.73,0,7.11,.15,7.59,.2,.6-1.6-3.1-3.33-6.92-5.25,.08-9.53-4.58-10.95-3.22-.85,.82-.38,3.55,4.51,11.26,11.03,14.13,6.34,33.16-5.26,39.45-9.39,5.09-23.52,1.95-31.93-9.01,.49,6.59-4.81,11.36-9.4,10.89-3.74-.38-7.32-4.28-7.51-9.39-.77,5.83-6.06,9.97-11.65,9.39-5.89-.6-10.33-6.26-9.4-12.4-1.88,2.63-3.75,5.26-5.64,7.89,.04-8.09,1.01-18.99,4.89-31.19,6.72-21.1,18.67-35.16,25.92-42.45,15.33-16.96,37.39-22.09,52.97-13.9,10.99,5.77,15.66,16.52,17.28,20.96Z"/><path class="cls-29" d="M382.35,493.2c-.67-4.32-9.05-10.38-9.44-10.69,0,0-.01-.01-.02-.03-8.39-17.55-27.89-25.7-43.56-18.22-15.68,7.49-21.6,27.79-13.22,45.35,1.91,4.01,4.41,7.52,7.31,10.48,1.8-.26,3.5-.69,5.07-1.72-.63-.35-1.09-.98-1.07-1.82,.05-2.54,.95-4.69,2.08-6.92,1.47-2.89,2.44-5.88,3.51-8.93,.66-1.87,2.98-1.82,3.91-.67,2.25-1.02,5.15-1.08,7.75-.59,5.93,1.12,12.87,6.12,14.05,12.28,.24,1.27-.54,2.19-1.49,2.54-.08,.06-.17,.12-.26,.17,.04,.06,.09,.11,.13,.17,.24,.15,.46,.34,.64,.6,1.76,2.43,3.91,4.55,5.65,7,.28,.4,.56,.8,.84,1.19,.63,.11,1.25,.19,1.87,.2,.2-.18,.41-.34,.61-.52,.01,0,.02-.02,.04-.02,1.29-.31,2.64-.75,4.02-1.37,5.23-2.37,8.16-6.1,9.37-7.86,.01-.02,.02-.04,.01-.06l-2.71-14.11s0-.05,.01-.07c1.54-2.14,4.02-5.81,4.88-6.38Z"/><path class="cls-35" d="M380.17,513.79c-1.21,1.75-4.14,5.51-9.4,7.89-1.14,.52-2.27,.91-3.35,1.21-.87,.23-5.11,1.24-9.29-1.2-5.48-3.2-5.98-9.46-6.01-9.99-3.59-2.01-7.18-4.02-10.77-6.03-5.26,12.9-10.09,17.61-14.39,17.61h0c-2.09-.38-4.92-1.21-7.48-3.26-12.81-10.26-11.43-44.97,8.11-56.68,11.5-6.89,24.97-3.22,29.3-1.84,.63,.5,3.27,2.7,3.48,6.1,.25,4.06-3.07,8.25-8.24,9.51,1.24,.45,5.04,2.01,7.26,6.01,2.51,4.52,2,10.36-1.25,15.02,.52,6.65,5.58,11.47,10.89,11.52,5.64,.06,9.08-5.28,9.28-5.59,.62,3.24,1.25,6.48,1.87,9.73Z"/><path class="cls-34" d="M371.27,485.79c-.08-.33-.07-.67,.18-.82,.68-.41,1.33,.8,1.43,1.23,.06,.26,.02,.59-.16,.79-.2,.21-.5,.17-.73,.02-.2-.13-.36-.33-.47-.55-.08-.15-.19-.41-.26-.68Z"/><path class="cls-28" d="M365.68,485.32c.17,.4,.73,.52,1.11,.39,.55-.18,1-.61,1.42-.99,.64-.57,1.26-1.16,1.9-1.73,.32-.29,.78-.56,.87-1,.04-.18-.01-.31-.16-.42-.63-.5-1.9,.28-2.48,.61-.82,.48-1.63,1.14-2.22,1.88-.18,.23-.43,.57-.49,.9-.02,.12-.01,.24,.04,.36Z"/><rect class="cls-28" x="372.84" y="499.14" width="6.57" height="5.14" rx=".71" ry=".71" transform="translate(-177.42 207.14) rotate(-25.12)"/><path class="cls-48" d="M356.63,542.09c.13-.38-3.42-8.09-3.42-8.09l-7.55,6.08,10.98,2Z"/><polygon class="cls-38" points="344.98 546.72 312.3 527.82 314.35 513.22 353.2 534.01 344.98 546.72"/><path class="cls-1" d="M357.67,543.47c5.23,4.16,11.97,10.4,18.27,19.19,6.91,9.64,10.8,18.85,13.02,25.52"/><rect class="cls-49" x="371.22" y="476.75" width="2.1" height="15.79" rx=".29" ry=".29"/><line class="cls-13" x1="349.38" y1="502.98" x2="371.54" y2="480.82"/><ellipse class="cls-24" cx="347.06" cy="509.34" rx="6.21" ry="7.5" transform="translate(-183.4 195.52) rotate(-25.12)"/><path class="cls-38" d="M357.82,545.49c2.56,2.38,4.24,5.48,4.78,8.94,.49,3.12,.35,6.69,2.83,9.06,1.2,1.14,2.66,1.18,4.05,1.92,1.28,.69,1.97,2.06,2.39,3.39,1.07,3.37,1.34,7.08,1.91,10.55,.16,.95,1.6,.55,1.45-.4l-1.01-6.16c-.26-1.58-.47-3.2-1-4.72-.43-1.23-1.05-2.44-2.04-3.31-1.19-1.04-2.7-1.05-4-1.83-3.31-1.99-2.6-6.93-3.36-10.15s-2.51-6.12-4.92-8.36c-.71-.66-1.77,.4-1.06,1.06h0Z"/><path class="cls-38" d="M360.15,545.87l.51,.75c.09,.17,.22,.32,.39,.42,.14,.13,.31,.22,.51,.27,.2,.06,.4,.07,.6,.03,.2,0,.39-.07,.56-.18l.3-.23c.19-.19,.31-.41,.39-.66l.05-.4c0-.27-.07-.52-.2-.76l-.51-.75c-.09-.17-.22-.32-.39-.42-.14-.13-.31-.22-.51-.27-.2-.06-.4-.07-.6-.03-.2,0-.39,.07-.56,.18l-.3,.23c-.19,.19-.31,.41-.39,.66l-.05,.4c0,.27,.07,.52,.2,.76h0Z"/><path class="cls-38" d="M367.93,553.64v-.16c0-1.93-3-1.93-3,0v.16c0,1.93,3,1.93,3,0v-.16c0-1.93-3-1.93-3,0v.16c0,1.93,3,1.93,3,0h0Z"/><path class="cls-38" d="M373.71,563.43v-.02c-.04-.05-.23-.28-.13-.16,.03,.04-.08-.11-.12-.16-.09-.1-.2-.18-.31-.24,0,0-.35-.15-.36-.15-.07-.02-.07,0-.21-.03-.25-.03-.3-.06-.6,.03-.13,.04-.25,.09-.37,.16s-.22,.15-.31,.24c0,0-.23,.29-.24,.31h0c-.03,.07-.06,.15-.08,.2-.02,.04-.06,.13-.08,.19,0,.02,0,.03-.01,.05-.01,.08-.05,.33-.05,.4h0s0,.03,0,.03c0,.15,.02,.3,.06,.44,.1,.39,.37,.74,.72,.94,.24,.14,.51,.21,.78,.21,.01,0,.39-.05,.4-.05h.01c.13-.04,.26-.1,.38-.16,.26-.15,.42-.33,.58-.58l.02-.03s.14-.32,.15-.36v-.02c.05-.14,.07-.31,.06-.46,0-.06-.02-.33-.07-.46-.03-.09-.11-.31-.2-.43-.07-.09-.17-.22-.24-.31l-.02-.02s-.02-.02-.04-.03c-.09-.07-.22-.17-.31-.24l-.02-.02s-.03-.01-.04-.02c-.37-.17-.42-.19-.84-.22-.21,0-.4,.04-.58,.13-.19,.06-.35,.16-.48,.31l-.23,.3c-.14,.23-.2,.49-.2,.76l-.06,.72c0,.21,.04,.4,.13,.58,.06,.19,.16,.35,.31,.48,.14,.15,.3,.25,.48,.31,.18,.09,.37,.14,.58,.13l.4-.05c.25-.07,.47-.2,.66-.39l.23-.3c.14-.23,.2-.49,.2-.76l.06-.72-1.5,1.5h.02l-.4-.05s.04,0,.06,.02l-.36-.15s.04,.02,.06,.04l-.3-.23s.05,.04,.06,.06l-.23-.3s.03,.05,.04,.08l-.15-.36s.01,.04,.02,.06l-.05-.4s0,.03,0,.05l.05-.4s0,.03-.01,.04l.15-.36s-.01,.02-.02,.03l.23-.3s-.02,.02-.03,.03l.3-.23s-.02,.01-.03,.02l.36-.15h-.02l.4-.05s0,0-.01,0l.4,.05h-.01l.36,.15h0l.3,.23h0l.23,.29v-.02l.14,.36s0-.02,0-.03l.05,.4s0-.04,0-.06l-.05,.4s0-.04,.02-.06l-.15,.36s0-.02,.01-.02l-.23,.3h0l-.3,.23h0l-.36,.15h0l-.4,.05h0l-.4-.05h0l-.36-.15h0l-.3-.23h0l-.23-.29s.01,.02,.02,.03c.09,.17,.22,.32,.39,.42,.14,.13,.31,.22,.51,.27,.2,.06,.4,.07,.6,.03,.2,0,.39-.07,.56-.18l.3-.23c.19-.19,.31-.41,.39-.66l.05-.4c0-.27-.07-.52-.2-.76h0Z"/><path class="cls-38" d="M376.44,572.43h-.5c-.21,0-.4,.04-.58,.13-.19,.06-.35,.16-.48,.31-.15,.14-.25,.3-.31,.48-.09,.18-.14,.37-.13,.58l.05,.4c.07,.25,.2,.47,.39,.66l.3,.23c.23,.14,.49,.2,.76,.2h.5c.21,0,.4-.04,.58-.13,.19-.06,.35-.16,.48-.31,.15-.14,.25-.3,.31-.48,.09-.18,.14-.37,.13-.58l-.05-.4c-.07-.25-.2-.47-.39-.66l-.3-.23c-.23-.14-.49-.2-.76-.2h0Z"/><rect class="cls-41" x="647.71" y="691.01" width="25.72" height="10.52" rx="1.46" ry="1.46" transform="translate(-283.71 867.99) rotate(-56.81)"/><path class="cls-36" d="M968.12,482.63c-1.13,0-9.02-37.84-9.02-37.84,13.69-14.04,34.34-18.41,52.22-11.08,18.46,7.57,30.49,26.2,30.06,46.63-2.13,10.96-4.26,21.91-6.39,32.87-1.45,1.98-8.04,10.56-19.54,12.23-11.45,1.66-23.21-4.18-30.06-14.9-5.26-3.31-10.52-6.62-15.78-9.94-2.3,1.14-4.89,.99-6.39-.38-2.12-1.95-2.16-6.48,1.13-9.35,1.25-2.74,2.5-5.49,3.76-8.23Z"/><path class="cls-21" d="M979.39,573.52c4.43-8.12,11.93-19.65,24.04-30.81,13.17-12.13,26.43-18.86,35.31-22.54,1.58,.86,4.77,2.88,7.14,6.76,3.2,5.24,2.82,10.45,2.63,12.14-8.41,6.51-19.29,13.85-32.68,20.54-13.56,6.77-26.1,11.09-36.44,13.9Z"/><path class="cls-9" d="M924.92,628.37c-5.89,1.15-9.94,3.28-12.58,5.05,0,0-5.45,3.65-17.1,21.25h0"/><path class="cls-49" d="M1030.86,822.61c-1.13-.38,27.8-113.46,27.8-113.46,11.02-34.42,39.72-52.35,61.24-46.96,15.58,3.9,24.07,19.2,26.67,24.42-.88,41.7-1.75,83.4-2.63,125.1l-113.08,10.89Z"/><path class="cls-7" d="M1050.02,795.93c0-1.5,23.29-90.54,23.29-90.54,8.56-16.6,25.17-26.15,41.16-24.11,13.75,1.75,22.23,11.45,24.58,14.34"/><line class="cls-14" x1="950.65" y1="476.02" x2="972.82" y2="488.14"/><rect class="cls-30" x="968.15" y="483.92" width="6.01" height="22.54" rx=".84" ry=".84" transform="translate(83.71 -137.89) rotate(8.49)"/><path class="cls-9" d="M993.67,567.89c7.92-6.73,18.13-14.23,30.81-21.04,8.02-4.31,15.65-7.61,22.54-10.14"/><circle class="cls-36" cx="961.74" cy="443.54" r="5.45"/><circle class="cls-36" cx="959.11" cy="448.98" r="5.45"/><circle class="cls-36" cx="957.04" cy="441.47" r="5.45"/><circle class="cls-36" cx="971.32" cy="435.46" r="8.08"/><circle class="cls-36" cx="964.55" cy="436.02" r="8.08"/><circle class="cls-36" cx="984.94" cy="430.2" r="8.08"/><circle class="cls-36" cx="976.86" cy="427.38" r="8.08"/><circle class="cls-36" cx="1000.25" cy="432.45" r="8.08"/><circle class="cls-36" cx="1010.77" cy="438.09" r="8.08"/><circle class="cls-36" cx="1022.1" cy="441.47" r="8.08"/><path class="cls-41" d="M666.11,697.41s3.74-12.17,16.06-16.45c12.32-4.28,32.98,13.53,4.64,49.34l-12.17,5.44-8.1-23.04-.43-15.29Z"/><path class="cls-30" d="M936.01,600.15s17.35-20.85,2.81-20.62c0,0-6.11,21.54-7.65,23.04,0,0,.79,1.5,4.85-2.43Z"/><path class="cls-17" d="M610.34,514.5s5.92-11.54,5.92-17.65-.15-20.6-7.17-30.35c-11.96-16.59-20.25,4.15-20.01,14.88,0,0,.85,5.96-2.68,.98-4.3-6.06-7.74-.04-2.44,9.27,3.61,6.35,4.79,7.52,4.49,13.06-.09,1.71-.88,3.67-.88,3.67,0,0,15.21,2.3,22.78,6.14Z"/></g><path class="cls-26" d="M148.31,601.9c18.48,4.66,30.35,15.56,35.57,21.04,11.13,15.75,27.27,38.16,47.43,64.62,55.74,73.16,69.74,84.74,66.64,97.39-5.27,21.49-58.67,38.54-252.87,26.74,.3-53.36,5.57-96.79,10.73-127.89,6.13-36.86,11.67-53.71,26.59-66.55,15.98-13.76,41.15-21.59,65.9-15.35Z"/><path class="cls-5" d="M78.87,665.75c6.39-10.05,17.24-36.01,41.51-41.09,37.7-7.9,85.15,23.41,104.44,80.99"/></g></g></g></g></svg>