<?xml version="1.0" encoding="UTF-8"?><svg id="Layer_2" xmlns="http://www.w3.org/2000/svg" xmlns:xlink="http://www.w3.org/1999/xlink" viewBox="0 0 1143.94 787.29"><defs><style>.cls-1{fill:none;}.cls-2{clip-path:url(#clippath);}.cls-3{fill:#f7a186;}.cls-4{fill:#020202;}.cls-5{fill:#009047;}.cls-6{fill:#f5f5f5;}.cls-7{fill:#fdd912;}.cls-8{fill:#e6595a;}.cls-9,.cls-10,.cls-11{fill:#fff;}.cls-12{fill:#f3865c;}.cls-13{fill:#f1f1f1;}.cls-14{fill:#ee805d;}.cls-15{fill:#99999a;}.cls-16{fill:#322110;}.cls-17{fill:#8e9093;}.cls-18{fill:#cdcfcf;}.cls-19{fill:#ac765a;}.cls-20{fill:#cfcfcf;}.cls-21{fill:#dcdcdc;}.cls-22{fill:#252730;}.cls-23{fill:#414141;}.cls-24{fill:#145f8e;}.cls-25{fill:#362d29;}.cls-26{fill:#1b75b7;}.cls-27{fill:#545454;}.cls-28{fill:#26a7df;}.cls-29{fill:#485a7e;}.cls-30{fill:#3a271f;}.cls-31{fill:#38af4a;}.cls-32{fill:#838080;}.cls-33{fill:#4b4848;}.cls-34{clip-path:url(#clippath-1);}.cls-10{opacity:.33;}.cls-11{opacity:.48;}</style><clipPath id="clippath"><rect class="cls-1" width="1143.94" height="787.29"/></clipPath><clipPath id="clippath-1"><rect class="cls-1" x="1.94" y="0" width="1145" height="793.76" transform="translate(1148.89 793.76) rotate(-180)"/></clipPath></defs><g id="Layer_1-2"><g class="cls-2"><g class="cls-34"><g><g><path class="cls-3" d="M406.99,295.72s-5.15-27.54-10.03-32.04c-4.89-4.5-11.06-2.57-16.59,.9-5.53,3.47-4.76,12.86-5.4,16.46-.64,3.6-.07,10.8,5.66,18.27,1.58,2.07,11.94,10.09,11.94,10.09l14.42-13.68Z"/><path class="cls-3" d="M628,298.96s24.21-1.08,34.62,10.62c10.42,11.7,15.73,54.14,19.59,78.06,3.86,23.92,11.66,92.22,11.66,92.22l-39.91-9.7s-23.74-73.26-24.12-75.19c-.39-1.93-.77-60.95,0-65.58,.77-4.63-1.83-30.43-1.83-30.43Z"/><path class="cls-3" d="M540.72,287.23s-21.63-1.01-35.88,5.51c-14.25,6.52-34.5,39.43-47.66,59.77-13.16,20.34-31.2,55.39-31.2,55.39l40.44,7.19s34.62-33.17,35.75-34.78c1.13-1.61,25.24-55.48,26.4-60.03,1.16-4.55,12.14-33.04,12.14-33.04Z"/><path class="cls-3" d="M475.62,449.52c.82,2.33,2.07,4.64,3.92,6.9,3.9,4.8-2.9,10.98,2.67,13.91,10.31,5.43,18.84,14.17,28.54,20.62,11,7.32,22.05,14.59,32.66,22.48,12.04,8.96,24.6,18.52,39.42,22.22,.51-1.79,3.31-36.99,3.88-38.75,4.21-13.1,4.36-26.79,12.12-38.43,9.41-14.12,15.29-12.07,22.71-27.41,9.74-20.12,16.53-41.2,20.29-62.85,3.16-18.07,4.2-36.54,3.1-55.18-.43-7.28-3.97-12.07-11.36-13.39-7.02-1.27-14.32-.79-21.53-.73-.51,.02-1.03,.02-1.54,.02-1.85,.02-3.56,.82-5.4,.71-8.05-.49-20.54-.22-27.95-3.69-9.77-4.6-20.26-7.51-31.08-8.58-.05,0-.09-.02-.14-.02-.48-.05-.96-.09-1.44-.12-12.28-1.05-26.12-.15-37.34,5.2-10.29,4.92-14.97,14.57-17.67,25.17-2.55,9.98-4.41,20.15-5.69,30.4-2.87,22.5-3.06,45.4-2.13,67.7,0,.14,.02,.29,.02,.43,.35,8.38-1.03,16.9-3.01,25.08-1.03,4.23,2.35,.69,.99,4.81-.68,2.04-4.71,1.68-4.06,3.5Z"/><path class="cls-26" d="M340.24,542.55c2.23-6.93,6.3-11.99,11.06-16.63,10.64-10.35,21.65-20.39,34.4-26.81,10.56-5.32,19.91-12.76,30.24-18.59,9.07-5.12,18.93-7.75,28.62-10.67,5-1.51,9.86-3.49,14.83-5.1,4.66-1.51,9.31-.01,13.97-1.15,3.65-.89,6.78-3.55,9.58-6.34,2.5-2.49,5.24-4.29,8.05-5.95,2.14,1,2.73,8.39,4.8,9.63,5.49,3.3,9.01,3.49,14.43,6.95,4.83,3.09,9.77,4.93,15.21,8.48,5.24,3.41,10.48,7.04,16.19,8.97,5.19,1.75,10.33,3.34,15.32,5.82,4.84,2.41,9.52,5.23,14.31,7.78,2.64,1.41,5.31,2.73,8.05,3.84,2.47,1,5.07,1.47,7.52,2.47,3.9,1.59,4.22,6.41,4.07,10.75-.26,7.82-2.07,15.74-3.24,23.41-1.24,8.14-2.49,16.28-3.73,24.42-.92,12.15-3.92,24.04-8.9,34.79-3.4,7.33-7.7,14.49-13.14,19.89-5.63,5.58-12.22,7.9-19.29,9.64-19.25,4.72-37.9,11.01-57.61,12.63-21.33,1.75-42.73,.45-64.09,1.12-20.14,.64-41.25,.74-58.79-12.47-5.97-4.5-10.86-11.65-12.16-20.04-.86-5.53,.01-10.92,1.87-15.88-8.15-5.22-4.93-14.67-5.66-25.81-.53-8.02-8.33-17.63-5.91-25.14Z"/><path class="cls-3" d="M653.28,467.84s3.94,13.17,8.08,31.17c4.14,18,27.1,84.1,27.1,84.1h20.45s-3.5-76.62-7.87-96.68c-4.37-20.06-16.45-55.79-16.45-55.79l-21.02,17.14-10.29,20.06Z"/><path class="cls-3" d="M463.88,402.79s-.74-10.56-7.18-27.87c-6.45-17.31-50.81-80.8-50.81-80.8l-16.46,2.16s19.76,76.86,26.7,96.18c6.94,19.32,18.84,36.42,28.55,37.23,9.7,.8,21.77-14.6,21.77-14.6l-2.55-12.3Z"/><path class="cls-30" d="M557.21,241.02c1.24,3.14,.29,3.6-.35,6-.45,1.69-.49,3.39-.09,5.1,.84,3.58,3.38,6.65,6.35,8.73,4.37,3.05,9.81,3.95,14.86,5.26,5.73,1.49,10.97,4.09,16.42,6.33,2.56,1.05,5.42,2.39,8.4,3.58,1.79,.04,3.59,.09,5.37,.32,5.07,.63,8.11,.37,12.66-2.28,2.86-1.67,4.49-4.31,7.13-6.22,3.72-2.69,6.94-3.7,8.85-8.64,.9-2.34,1.53-4.65,2.46-6.95,1.97-.4,4.2-.53,5.17-1.25,.94-.7,1.1-1.84,1.89-2.57,1.95-1.8,3.81-1.13,6.06-1.54,1.38-.25,3.03-.9,3.55-2.34,.72-2.02-1.28-3.8-1.69-5.64-.8-3.55,.8-7.25,.77-10.83-.05-6.71-7.45-15.08-11.49-20.06-.07-.24-.15-.48-.2-.72-.09-.38-.37-.54-.66-.55-.07-.14-.12-.28-.13-.39-.19-1.47-.57-2.9-1.3-4.2-1.83-3.27-5.56-4.1-8.19-6.5-2.76-2.52-4.43-6.08-7.52-8.26-.64-.45-1.31-.81-1.99-1.1,3.05-1.02,5.31-2.81,5.03-5.94-.09-1-1.31-2.17-1.53-3.31-.21-1.11,.11-2.26,.05-3.38-.08-1.35-.18-2.45-.86-3.66-1.68-3-5.16-4.13-8.3-4.84-6.36-1.45-14.88-1.77-15.46,6.64-.17,2.44-.75,5.43,0,7.9-2.82-1.29-5.68-1.87-8.83-1.25-5.6,1.1-12.05,4.29-15.96,8.89-.74,.14-1.49,.29-2.23,.48-5.33,1.38-6.94,2.98-8.84,8.04-1.41,3.76-2.48,6.83-5.51,9.56-1.6,1.43-2.34,2.68-2.73,4.82-.52,2.89-.53,5.94-.25,8.97-4.12,5.36-5.26,12.76-2.45,19.07,.43,.96,1.16,1.82,1.54,2.77Z"/><path class="cls-7" d="M620.62,277.57c.04-2.88-.3-7.48,1.71-9.78,2.07-2.36,4.27-.61,5.58,1.52,2.11,3.43,2.71,7.61,2.72,11.58,0,2.25,.02,4.53-.4,6.75-.2,1.06-.46,2.34-1.17,3.19-.49,.58-2.43,1.74-2.38,.11,.05-1.76,.27-3.53,.27-5.29,.03-1.11,.07-2.22,.06-3.33-.02-1.46-.07-2.91-.16-4.36-.04-.68,.01-1.64-.02-2.56-.12-1.06-.21-2.76-1.64-2.85-.51-.03-1.03,.24-1.3,.67-.2,.33-.26,.73-.3,1.11-.59,5.21,.19,10.79,.51,16.01,.01,.21,.02,.43-.05,.63-.13,.33-.48,.53-.83,.57-.74,.08-1.44-.46-1.78-1.12-.34-.67-.39-1.44-.44-2.18-.23-3.52-.44-7.05-.37-10.58v-.08Z"/><path class="cls-9" d="M625.88,266.86c-2.54,1.96-5.09-1.63-3.9-4,.64-1.25,2.3-1.98,3.55-1.33,.81,.43,1.29,1.32,1.45,2.23,.13,.74,.07,1.54-.32,2.19-.23,.39-.5,.69-.79,.92Z"/><g><path class="cls-29" d="M348.68,246.9c-.07,3.22,1.8,46.58,3,49.1,1.2,2.53,10.89,4.46,17.8,3.85,9.86-.87,13.75-3.24,15.01-4.82,1.26-1.58,3.1-44.91,3.33-47.72,.18-2.24-39.08-3.07-39.13-.41Z"/><path class="cls-29" d="M382.32,292.55c-7.18-.94-11.98-9.61-10.7-19.32,1.28-9.71,8.16-16.83,15.33-15.9,7.18,.94,11.98,9.61,10.7,19.32-.6,4.56-2.43,8.72-5.17,11.69-2.57,2.8-5.66,4.29-8.84,4.29-.44,0-.88-.03-1.32-.09Zm-6.35-18.74c-.94,7.19,2.23,13.78,6.92,14.4,2.16,.29,4.42-.72,6.36-2.82,2.13-2.32,3.57-5.62,4.05-9.3,.94-7.19-2.23-13.78-6.92-14.4-.24-.03-.48-.05-.72-.05-4.46,0-8.79,5.35-9.69,12.17Z"/><g><path class="cls-11" d="M325.23,187.58c.13,4.12,2.72,7.59,6.28,9.45,4.59,2.4,9.56,3.49,13.93,6.48,2.98,2.03,5.59,4.49,7.85,7.24-.03,0-.06-.02-.09-.03-2.84-.89-7.29-1.04-7.07,3.04,.31,5.77,8.27,6.79,11.72,9.79,5.09,4.43,7.45,12.22,10.18,18.17,.33,.73,1.43,.33,1.44-.39,.08-7.32-3.07-17.51-6.88-23.71-1.71-2.78-4.34-4.78-6.27-7.38-1.93-2.6-2.85-5.67-4.24-8.56-3.87-8.02-12.33-18.25-21.98-19.02-3.37-.27-4.96,1.65-4.86,4.91Z"/><path class="cls-11" d="M356.89,197.63c-.43,1.46,.63,2.9,1.63,4.05,2.91,3.36,4.91,6.45,6.81,10.51,3.04,6.51,8.55,2.33,6.25-3.29-1.83-4.48-5.96-13.06-11.69-13.17-.54-.01-1.09,.11-1.58,.35-.66,.32-1.21,.85-1.42,1.56Z"/></g></g><path class="cls-3" d="M407.89,299.56s-4.89-22.5-9.13-25.59c-4.24-3.09-8.23-4.89-10.29-3.34-2.06,1.54,1.29,3.99,1.8,7.59,.51,3.6-.85,18.07-.85,18.07,0,0,16.41,2.76,17.44,3.02l1.03,.26Z"/><path class="cls-24" d="M579.68,513.47c.31,0,.6-.18,.72-.49,.16-.39-.04-.84-.43-1-.07-.03-7.25-2.86-30.93-9.73-23.57-6.84-72.64-32.47-73.13-32.73-.38-.19-.85-.05-1.04,.33-.2,.38-.05,.84,.33,1.04,.49,.26,49.7,25.96,73.42,32.85,23.58,6.84,30.72,9.66,30.79,9.68,.09,.04,.19,.05,.28,.05Z"/><path class="cls-3" d="M688.47,583.11s3.09,13.23,5.4,15.93c2.31,2.7,22.95,4.63,31.44,4.44,8.49-.19,9.07,.39,10.03-2.12,.96-2.51-13.5-3.86-13.5-3.86,0,0,6.37-5.5,12.73-4.2,6.37,1.3,17.55,8.25,21.02,7.67,3.47-.58-1.74-9.26-5.59-11.77-3.86-2.51-15.07-8.29-21.23-8.68-6.16-.39-19.85,2.59-19.85,2.59l-10.99-6.25-9.45,6.25Z"/><path class="cls-14" d="M643.82,383.4c.26,0,.52-.13,.66-.38l9.46-15.82c.22-.37,.1-.84-.27-1.06-.36-.22-.84-.1-1.06,.27l-9.46,15.82c-.22,.37-.1,.84,.27,1.06,.12,.08,.26,.11,.4,.11Z"/><path class="cls-14" d="M561.26,362.7c.3,0,.58-.17,.71-.46l4.02-9.13c.17-.39,0-.85-.39-1.02-.39-.17-.84,0-1.02,.39l-4.02,9.13c-.17,.39,0,.85,.39,1.02,.1,.05,.21,.07,.31,.07Z"/><path class="cls-14" d="M490.96,340.96c.43,0,.77-.35,.77-.77v-9.26c0-.43-.35-.77-.77-.77-.43,0-.77,.35-.77,.77v9.26c0,.43,.35,.77,.77,.77Z"/><path class="cls-14" d="M462.36,394.5c.1,0,.19-.02,.29-.06,.39-.16,.59-.61,.43-1l-10.75-26.92c-.16-.39-.61-.59-1-.43-.39,.16-.59,.61-.43,1l10.75,26.92c.12,.3,.41,.49,.72,.49Z"/><g><path class="cls-33" d="M461.55,453.24c1.74,4.21,7.76,7.11,11.67,8.66,5.68,2.25,11.71,3.8,17.82,5.11,1.05,.23,2.11,.45,3.18,.66,5.22,1.08,10.46,2.07,15.52,3.26,1.82,.43,3.66,.86,5.48,1.31,10.69,2.61,21.33,5.49,31.71,9.13,.31,.09,.6,.2,.91,.31,6.79,2.41,13.46,5.15,19.94,8.32,7.36,3.58,14.23,5.4,21.45,6.28,4.58,.57,9.3,.77,14.38,.83,3.43,.03,6.94,.15,10.28,1,1.54,.4,4.64,2.39,6.16,2.07,4.17-.88,3.89-10.32,3.83-13.3-.03-1.39,0-2.75,.08-4.06,.22-4.26,.96-8.19,2.28-12.33,.22-.71,.46-1.43,.73-2.16,1.96-5.45,3.41-10.63,3.9-16.34,.05-.59,.12-1.16,.2-1.71,.76-4.92,2.81-9.32,3.83-14.24,.6-2.87,1.16-5.74,1.67-8.63h.02c.63-3.6,1.23-7.18,1.82-10.77,.77-4.72,1.51-9.44,2.13-14.18,.23-1.77,42.16-8.76,42.36-10.55,.29-2.65-8.81-58.93-10.06-61.51-2.27-4.72-5.52-22.6-21.47-29.01-3.52-1.42-19.37-3.42-20.12-3.48-4.84-.39-16.29,.66-20.72,1.03-.43,.04-1.72,10.38-.86,15.6-.53,3.51,.62,13.55,.69,11.02,.29-8.89,.86-17.78,1.71-26.63-.51,.02-1.03,.02-1.54,.02-.83,8.76-1.4,17.53-1.7,26.33-.08,2.58-.15,5.15-.19,7.73-1.5,1.74-6.22,6.76-10.76,11.51-4.46,4.68-8.78,9.09-9.69,9.88-1.06,.89-2.16,1.76-3.32,2.58v.02c-6.91,4.94-15.31,8.52-23.3,10.8-4.07,1.16-4.12,1.4-6.54-1.94-1.37-1.88-2.5-4.06-3.58-6.17-.39-.73-.76-1.45-1.13-2.16-.42-.77-3.61-8.1-7.05-15.99-1.99-4.56-4.06-9.32-5.73-13.12-1.88-4.26-2.07-9.07-.56-13.48,1.5-4.39,2.98-8.79,4.44-13.19,1.59-4.77,3.15-9.55,4.68-14.34-.05,0-.09-.02-.14-.02-.48-.05-.96-.09-1.44-.12-9.64-1.16-20.84,.31-24.32,1.02-9.03,1.85-15.38,2-23.91,10.68-6.1,2.82-9.81,10.85-14.5,16.92-3.6,4.67-9.35,11.82-12.42,17.85-1.62,3.19,24.09,8.55,21.04,10.43-1.99,5.28-2.64,10.86-3.94,16.33-.14,.69-.32,1.39-.51,2.08-1.27,4.64-3.53,8.95-5.06,13.5-.42,1.27-.79,2.55-1.06,3.87-1.44,6.93-1.94,13.89-4.06,20.62-.26,.86-.57,1.73-.89,2.58-.74,1.93-1.57,3.84-2.45,5.76-.26,.83-.49,1.68-.71,2.55-.59,2.39-1.06,4.77-1.57,7.16-.69,3.32-1.42,6.64-2.47,9.91-3.21,10.08-7.02,22.58-6.13,24.75Z"/><path class="cls-27" d="M595.16,383.35c4.4,5.17,10.88,7.67,16.28,11.53,7.08,5.06,8.69,12.38,11.73,20,2.13,5.34,5.46,10.65,11.37,12.19,.68,.17,1.34,.28,2.01,.34h.02c.63-3.6,1.23-7.18,1.82-10.77,.77-4.72,1.51-9.44,2.13-14.18-.34-.48-.69-.94-1.06-1.39-2.25-2.73-4.95-4.15-8.22-5.32-5.35-1.93-8.73-4.61-11.96-9.29-3.46-5.02-6.1-10.93-11.22-14.52-4.03-2.82-10.34-4.24-14.47-.77-4.04,3.41-1.2,8.92,1.59,12.19Z"/><path class="cls-27" d="M633.24,343.47c4.4,5.17,10.88,7.67,16.28,11.53,7.08,5.06,8.69,12.38,11.73,20,2.13,5.34,5.46,10.65,11.37,12.19,.46,.11,1.7,.31,2.67,.44,.69,.09,1.39,.12,2.09,.09l4.09-.2c.58,0,1.06-.52,.94-1.08-.71-3.23-1.05-6.54-1.54-9.8-.71-4.73-1.47-9.45-2.29-14.06-.34-.48-.69-.94-1.06-1.39-2.25-2.73-4.95-4.15-8.22-5.32-5.35-1.93-8.73-4.61-11.96-9.29-3.46-5.02-6.1-10.93-11.22-14.52-4.03-2.82-10.34-4.24-14.47-.77-4.04,3.41-1.2,8.92,1.59,12.19Z"/><path class="cls-27" d="M597.88,344.5c1.19,.29,2.38,.56,3.46,.94,6.02,2.16,10.79,6.64,13.72,12.25,1.74,3.33,3.36,7.42,7.28,8.66,2.64,.83,5.45,.05,7.6-1.61l.14-1.42c-3.13-4.29-6.97-14.26-10.84-19.02-3.1-3.81-5.2-8.13-9.07-11.17,.05-2.53,.11-5.05,.19-7.58-.51-.12-1.02-.22-1.53-.29-.02,.8-.05,1.6-.07,2.41-.1,3.52-1.47,6.87-3.87,9.44-2.02,2.17-4.54,4.82-7,7.39Z"/><path class="cls-27" d="M556.23,388.32c4.47,3.21,6.77,7.62,9.55,12.22,3.47,5.76,9.97,12.78,17.17,13.27,5.05,.34,9.27-3.55,7.84-8.73-1.16-4.2-4.92-6.79-8.16-9.3-3.97-3.07-7.48-6.62-9.29-11.39-1.99-5.26-.91-10.31,2.79-14.44,2.3-2.58,5.2-4.66,6.96-7.68,.96-1.67,1.54-3.46,1.77-5.29-6.91,4.94-15.31,8.52-23.3,10.8-4.07,1.16-4.12,1.4-6.54-1.94-1.37-1.88-2.5-4.06-3.58-6.17-3.19,3.24-5.71,7.21-6.45,11.56-1.53,9.04,4.98,12.64,11.23,17.11Z"/><path class="cls-27" d="M607.58,455.68c3.44,4.41,7.39,8.47,12.14,11.48,1.77,1.11,4.07,2.41,6.5,3.33,.22-.71,.46-1.43,.73-2.16,1.96-5.45,3.41-10.63,3.9-16.34,.05-.59,.12-1.16,.2-1.71-1.9-.89-3.5-1.84-3.89-2.11-2.96-2.18-5.11-5.06-6.67-8.38-2.58-5.45-3.95-11.67-8.19-16.17-5.6-5.94-16.4-5.63-17.82,3.72-1.53,10.14,7.28,20.94,13.1,28.35Z"/><path class="cls-27" d="M569.07,475.84c3.16,4.91,8.89,6.26,13.58,9.18,3.95,2.47,5.2,5.54,6.23,9.94,.11,.45,.22,.88,.34,1.31,4.58,.57,9.3,.77,14.38,.83,3.43,.03,6.94,.15,10.28,1,1.54,.4,4.64,2.39,6.16,2.07,4.17-.88,3.89-10.32,3.83-13.3-.03-1.39,0-2.75,.08-4.06-.73-1.02-1.57-1.99-2.55-2.89-4.91-4.54-11.14-4.55-17.39-5.37-5.05-.65-8.59-2.56-12.27-6.02-1.98-1.85-3.92-3.81-6.36-5.08-2.68-1.4-5.74-1.85-8.73-1.85-2.28-.02-6.14-.19-8.07,1.36-3.52,2.79-1.47,9.83,.49,12.87Z"/><path class="cls-27" d="M529.87,438.22c4.09,5.62,10.97,11.42,18.04,12.55,4.95,.79,8.73-2.27,13.53-2.62,3.86-.28,7.73,.54,11.59,.06,5.83-.71,10.85-4.64,9.77-11.02-1.23-7.35-7.89-10.91-14.1-13.56-4.49-1.91-8.29-4.46-12.48-6.77-3.77-3.92-8.16-7.1-13.76-7.89-7.14-1.02-13.33,2.96-15.89,9.61-2.59,6.74-.82,13.95,3.32,19.64Z"/><path class="cls-27" d="M498.01,450.09c4.21,5.71,9.71,10.34,13.84,16.09,1.37,1.91,2.48,3.92,3.36,6.05,10.69,2.61,21.33,5.49,31.71,9.13-1.82-3.73-2.36-7.5-2.84-11.65-.74-6.48-3.09-10.71-9.68-12.34-4.29-1.06-8.19-1.56-11.42-5-2.55-2.72-4.12-6.13-5.69-9.46-2.47-5.15-5.28-10.71-10.99-12.82-4.68-1.73-9.94-.39-12.01,4.46-2.33,5.45,.46,11.14,3.7,15.54Z"/><path class="cls-27" d="M487.25,307.95c-1.31,1.84,4.21,1.51,6.08,3.34,2.66,2.6,4.39,5.94,6.1,9.2,2.69,5.04,5.74,10.47,11.54,12.33,4.75,1.52,9.94-.05,11.8-4.98,2.09-5.54-.95-11.11-4.38-15.36-4.46-5.52-10.15-9.9-14.54-15.47-.73-.93-1.39-1.88-1.99-2.86,0,0-7.04,3.2-14.61,13.81Z"/><path class="cls-27" d="M461.55,453.24c1.74,4.21,7.76,7.11,11.67,8.66,5.68,2.25,11.71,3.8,17.82,5.11-.71-3.06-1.74-6.05-3.13-8.92-3.8-7.84-10.82-13.42-14.43-21.36-1.9-4.18-2.92-8.7-3.12-13.29-.06-1.6-.03-3.26-.22-4.86-.69,3.32-1.42,6.64-2.47,9.91-3.21,10.08-7.02,22.58-6.13,24.75Z"/><path class="cls-27" d="M475.77,400.54c.68,.8,1.31,1.71,1.84,2.85,2.22,4.74,2.9,11.02,6.77,14.84,1.31,1.3,2.72,1.77,4.49,1.23,3.75-1.16,5.83-4.4,10.12-4.68,4.92-.34,11.19,5.49,15.88,2.07,1.71-1.23,1.91-3.13,2.21-5.06,.63-4.17,2.76-5.57,5.57-8.22,3.26-3.07,4.24-7.04,1.71-10.99-3.06-4.74-8.98-5.62-14.12-6.36-10.05-1.45-21.4-3.8-29.35-10.18-.42,1.27-.79,2.55-1.06,3.87-1.44,6.93-1.94,13.89-4.06,20.62Z"/><path class="cls-27" d="M486.47,360.47c2.59,.66,5.28,.89,7.81,1.94,2.39,.99,4.55,2.44,6.62,3.98,5.72,4.27,14.23,12.75,22.11,8.58,9.97-5.29-5.88-13.76-9.23-16.73-3.68-3.25-6.87-6.95-9.53-11-3.01-4.58-9.09-6.04-13.76-3.17l-.09,.06c-1.99,5.28-2.64,10.86-3.94,16.33Z"/><path class="cls-27" d="M609.49,312.1c2.59,.66,4.36,.85,6.89,1.9,2.39,.99,4.55,2.44,6.62,3.98,5.72,4.27,14.23,12.75,22.11,8.58,9.97-5.29-5.88-13.76-9.23-16.73-6.16-5.43-10.9-4.26-14.09-11.72-3.52,.19-6.26,0-11.28,.82-1.49,5.27-1.09,8.53-1.02,13.17Z"/></g><path class="cls-3" d="M555.58,293.31s8.24,7.25,17.79,12.98c9.54,5.71,23.89,2.27,23.89,2.27l.37-1.06,.26-.74,.66-1.88,1.57-4.46,.17-.49,1.25-3.13h.02l5.97-14.88,1.05-2.61-40.66-30.07-12.34,44.09Z"/><path class="cls-3" d="M566.94,254.33c-.77,11.76-.25,16.05,5.99,26.43,7.41,12.38,20.55,20.4,31.26,14.97,12.62-6.42,15.46-11.31,19.95-20.83,3.1-6.6,5.54-15.2,7.72-24.83,.03-.12,.05-.23,.08-.35,.23-1.02,.45-2.02,.66-2.99,.12-.54,.23-1.08,.34-1.6,2.01-9.51,3.24-17.04,3.24-17.04,0,0-7.47-15.79-17.81-20.83-10.34-5.06-31.56-10.26-40.83-1.67-1.57,1.45-2.81,3.26-3.9,5.09-6.33,10.45-9.46,23.28-11.06,35.27-.2,1.54,4.46,6.8,4.37,8.38Z"/><path class="cls-22" d="M597.46,247.04c.26-1.11,.24-2.24-.62-2.76-2.29-1.39-4.46,2.69-4.82,4.14-.21,.86-.08,1.99,.55,2.66,.67,.72,1.69,.59,2.45,.08,.68-.45,1.2-1.11,1.58-1.84,.27-.52,.65-1.39,.86-2.28Z"/><path class="cls-22" d="M623.01,255.04c.26-1.11,.24-2.24-.62-2.76-2.29-1.39-4.46,2.69-4.82,4.14-.21,.86-.08,1.99,.55,2.66,.67,.72,1.69,.59,2.45,.08,.68-.45,1.2-1.11,1.58-1.84,.27-.52,.65-1.39,.86-2.28Z"/><path class="cls-9" d="M609.22,277.58s-2.91-.39-7.67-1.54c-4.77-1.16-8.78-3.25-8.78-3.25,0,0,1.12,5.18,6.52,7.01,5.4,1.83,9.93-2.22,9.93-2.22Z"/><path class="cls-30" d="M605.3,242.34c-.89,.67-2.24-.17-3.14-.45-1.3-.4-2.6-.79-3.91-1.15-3.02-.83-6.07-1.49-9.13-2.18-1.45-.33-.88-1.23,.08-1.68,.8-.37,1.72-.64,2.59-.77,1.72-.26,3.48-.18,5.21-.07,2.72,.17,5.41,.92,7.62,2.54,.45,.33,.89,.71,1.19,1.19,.39,.62,.47,1.35,.06,1.98-.15,.23-.36,.42-.57,.58Z"/><path class="cls-30" d="M618.66,246.13c.03,.28,.12,.54,.25,.79,.48,1,2.07,.86,2.99,1.02,1.34,.23,2.69,.48,4.01,.76,1.99,.42,3.97,.89,5.94,1.39,.03-.12,.05-.23,.08-.35,.23-1.02,.45-2.02,.66-2.99-1.1-.63-2.27-1.16-3.44-1.67-2.5-1.08-5.23-1.64-7.95-1.19-.56,.09-1.11,.23-1.6,.52-.62,.37-1.03,.99-.94,1.73Z"/><path class="cls-3" d="M565.5,252.83c.62,.52,3.53,2.21,3.98,.94,1.3-3.62,1.78-7.42,3.36-10.95,1.03-2.3,2.14-4.49,2.93-6.84,.25,.3,.5,.61,.75,.91-.22,.97,1.32,1.17,1.53,.21,.78-3.49-1.51-5.7-4.84-6.08-2.74-.31-5.4,.61-7.52,2.24-5.87,4.54-5.88,14.74-.19,19.57Z"/><path class="cls-14" d="M606.93,270.24c1.71,0,3.81-.24,4.47-1.31,.82-1.33,1.18-11.33,1.27-14.36,.01-.43-.32-.78-.75-.8h-.02c-.42,0-.76,.33-.77,.75-.18,6.04-.63,12.79-1.05,13.61-.26,.43-2.57,.67-4.76,.49-.41-.03-.8,.28-.83,.71-.03,.42,.28,.8,.71,.83,.44,.04,1.06,.07,1.74,.07Z"/><path class="cls-14" d="M573.7,278.47s0,6.82,1.36,10.15c1.36,3.35,3.35,4,5.79,7.33,2.44,3.35,5.72,4.38,10.35,5.93,4.24,1.42,4.61,3.26,7.36,2.99l1.57-4.46,.17-.49,1.25-3.13c-.35,.09-5.68,1.31-10.15-.19-4.64-1.54-10.17-7.45-12.75-10.54-2.56-3.09-4.95-7.59-4.95-7.59Z"/><path class="cls-30" d="M564.25,231.27c.19,1.36,.45,2.54,1.66,3.23,2.77,1.58,8.2-1.08,8.8,3.9,.04,.34,.21,.65,.57,.74,2.25,.6,3.28-.73,4.25-2.59,.9-1.73,1.93-3.25,2.84-4.9,.8-1.45,.62-3.07,.81-4.65,.42-3.59,2.49-5.62,5.57-7.23,.74-.39,1.49-.69,2.07-1.32,1.27-1.4,1.88-3.5,2.19-5.61,1.01,1.13,2.11,2.18,3.41,2.98,2.65,1.64,5.78,1.32,8.45,2.85,2.06,1.18,3.48,1.66,5.79,.68,2.44-1.03,5.37-3.26,8.11-1.62,2.11,1.26,2.09,4.27,3.36,6.04,3.3,4.6,10.78,6.7,16.92,6.2,.31,.55,1.25,.49,1.41-.16,1.01-.16,1.97-.38,2.85-.69,.93-.33,.53-1.82-.41-1.49-.77,.27-1.62,.44-2.5,.57-.86-9.78-8.08-17.34-15.59-23.11-9.28-7.13-21.36-9.42-32.93-8.43-11.29,.97-18.04,10.33-22.83,19.64-2.28,4.44-5.54,9.75-4.79,14.96Z"/><path class="cls-7" d="M563.32,265.35c.04-2.88-.3-7.48,1.71-9.78,2.07-2.36,4.27-.61,5.58,1.52,2.11,3.43,2.71,7.61,2.72,11.58,0,2.25,.02,4.53-.4,6.75-.2,1.06-.46,2.34-1.17,3.19-.49,.58-2.43,1.74-2.38,.11,.05-1.76,.27-3.53,.27-5.29,.03-1.11,.07-2.22,.06-3.33-.02-1.46-.07-2.91-.16-4.36-.04-.68,.01-1.64-.02-2.56-.12-1.06-.21-2.76-1.64-2.85-.51-.03-1.03,.24-1.3,.67-.2,.33-.26,.73-.3,1.11-.59,5.21,.19,10.79,.51,16.01,.01,.21,.02,.43-.05,.63-.13,.33-.48,.53-.83,.57-.74,.08-1.44-.46-1.78-1.12-.34-.67-.39-1.44-.44-2.18-.23-3.52-.44-7.05-.37-10.58v-.08Z"/><path class="cls-9" d="M568.59,254.63c-2.54,1.96-5.09-1.63-3.9-4,.64-1.25,2.3-1.98,3.55-1.33,.81,.43,1.29,1.32,1.45,2.23,.13,.74,.07,1.54-.32,2.19-.23,.39-.5,.69-.79,.92Z"/></g><g><path class="cls-31" d="M208.77,761.09c.03-.12,3.03-12.33,8.84-22.88,.52-.94,1.06-1.9,1.62-2.89,4.59-8.11,9.79-17.3,7.55-25.12-1.01-3.53-3.45-6.38-7.27-8.46-12.43-6.79-22.2,7.3-26.9,14.07-.82,1.19-1.85,2.66-2.2,2.97l2.78,3.58c.81-.63,1.59-1.73,3.14-3.96,6.31-9.1,13.23-16.93,21.01-12.68,2.75,1.5,4.41,3.37,5.08,5.73,1.71,6-3.2,14.67-7.14,21.64-.57,1-1.12,1.98-1.65,2.93-6.12,11.09-9.15,23.48-9.28,24l4.4,1.07Z"/><path class="cls-31" d="M70.1,730.12l1.1,38.86c.14,5.24,1.33,10.41,3.53,15.13,.09,.2,.18,.38,.27,.56,.23,.47,.45,.92,.69,1.37,.36,.68,.76,1.34,1.16,1.99,.62,1,1.25,1.99,1.89,2.98,2.22,3.44,4.61,6.81,7.16,10.06t.02,.02c3.32,3.78,7.01,7.19,10.98,10.29,2.36,1.83,4.82,3.56,7.36,5.18t.02,.02c.06,.05,.12,.08,.18,.12,.98,.62,1.98,1.22,2.99,1.81,0,0,0,.02,.02,.02,26.55,15.59,61.88,21.03,92.91,25.38,4.37,.62,8.91,1.12,13.59,1.54l3.37-112.77c.12-3.11-1.3-6.09-3.79-7.98-7.66-5.82-25.77-14.79-66.79-16.36-17.4-.66-31.33,.41-42.29,2.37-2.7,.48-5.21,1.01-7.55,1.6-11.62,2.85-19.03,6.71-23.19,10.03-2.36,1.89-3.7,4.76-3.63,7.78Z"/><path class="cls-19" d="M148.88,757.45c37.42,0,62.44-10.31,62.69-10.42,.39-.16,.57-.6,.4-.99-.16-.38-.6-.57-.99-.4-.25,.1-25.01,10.3-62.1,10.3h-.11c-37.15-.02-72.94-16.4-73.29-16.57-.38-.17-.83-.01-1,.37-.18,.38-.01,.83,.37,1,.36,.17,36.43,16.68,73.93,16.71h.11Z"/><path class="cls-19" d="M120.92,764.73h.02c.42,0,.75-.35,.74-.76,0-.41-.34-.75-.76-.75h0c-.06,0-3.97-.03-18.3-3.41-16.01-3.77-24.61-9.74-24.69-9.8-.34-.24-.81-.16-1.05,.18-.24,.34-.16,.81,.18,1.05,.36,.25,8.9,6.19,25.22,10.03,14.32,3.37,18.32,3.45,18.64,3.45Z"/><path class="cls-19" d="M175.96,765.99c.06,0,1.68-.01,12.17-1.26,10.55-1.26,23.3-6.29,23.43-6.34,.39-.15,.58-.59,.42-.98-.15-.39-.59-.58-.98-.42-.13,.05-12.7,5.01-23.05,6.25-10.26,1.22-11.93,1.25-12,1.25-.42,0-.75,.34-.75,.76,0,.42,.34,.75,.75,.75Z"/><path class="cls-19" d="M146.76,782.13c11.73,0,21.9-1.53,22.01-1.54,.41-.06,.7-.45,.63-.86-.06-.41-.44-.7-.86-.63-.12,.02-11.65,1.76-24.28,1.5-12.63-.25-20.34-1.49-20.42-1.5-.41-.06-.8,.21-.87,.62-.07,.41,.21,.8,.62,.87,.08,.01,7.88,1.27,20.63,1.52,.85,.02,1.69,.02,2.53,.02Z"/><path class="cls-23" d="M80.06,726.94c-.15,4.77,23.65,14.42,60.51,15.77,.5,.02,1.01,.03,1.53,.05,.6,.02,1.21,.03,1.81,.05,2.85,.06,5.66,.08,8.41,.05,1.01-.03,2.02-.05,3.02-.08,.26,0,.53-.02,.8-.03,1.04-.01,2.07-.06,3.1-.11,28.88-1.3,49.07-7.82,49.19-11.89,.11-4.02-17.34-11.49-44.83-14.56-1-.12-2.01-.23-3.04-.32-2.1-.21-4.23-.38-6.43-.54-1-.06-2.01-.12-3.04-.18-1.3-.06-2.63-.12-3.96-.17-.54-.03-1.09-.05-1.65-.06-.56-.02-1.12-.03-1.68-.03-3.72-.09-7.33-.09-10.83,0-1.06,.02-2.11,.06-3.14,.11-29.45,1.13-49.68,7.81-49.78,11.95Z"/><path class="cls-31" d="M74.82,757.23l4.4-1.07c-.13-.52-3.16-12.91-9.28-24-.52-.95-1.08-1.93-1.65-2.93-3.94-6.97-8.85-15.65-7.14-21.64,.67-2.35,2.33-4.23,5.08-5.73,7.78-4.25,14.7,3.58,21.01,12.68,1.55,2.23,2.33,3.34,3.14,3.96l2.77-3.59-1.38,1.79,1.4-1.78c-.36-.31-1.38-1.78-2.2-2.97-4.7-6.77-14.48-20.86-26.9-14.07-3.82,2.08-6.26,4.93-7.27,8.46-2.23,7.82,2.97,17.01,7.55,25.12,.56,.99,1.11,1.95,1.62,2.89,5.82,10.55,8.81,22.75,8.84,22.88Z"/></g><g><g><path class="cls-33" d="M1138.26,163.35h-305.59c-1.03,0-2.05,.21-3,.61h0c-2.88,1.22-4.74,4.06-4.7,7.19l4.99,391.62c.04,2.9,1.7,5.53,4.29,6.81l280.29,138.21c3.23,1.59,7.13,.74,9.39-2.06l223.52-276.2c2.28-2.81,2.29-6.83,.02-9.66l-203.21-253.63c-1.46-1.82-3.67-2.89-6.01-2.89Z"/><polygon class="cls-21" points="1143.92 167.23 829.85 167.23 829.85 573.5 1119.89 716.52 1351.18 430.72 1143.92 167.23"/><g><path class="cls-32" d="M849.95,545.94c.77,2.36,12.6,11.1,29.52,22.42,1.41,.93,2.86,1.9,4.34,2.88,25.31,16.76,59.97,38.12,86.4,52.98,1.48,.85,2.94,1.66,4.36,2.44,16.44,9.12,29.05,15.25,33.06,15.41,15.3,.61,199.46-11.67,204.89-15.23,5.43-3.56-277.63-269.1-279.89-269.19-2.12-.08-26.76-74.46-69.33-116.59-2.36-2.34-5.65-3.44-8.96-3.21-14.46,.98-33.41,5.47-38.13,16.38-5.77,13.37,31.05,283.42,33.74,291.71Z"/><path class="cls-33" d="M859.79,523.91s.07,0,.11,0c.42-.04,.72-.41,.67-.83l-24.81-240c-.04-.41-.41-.7-.83-.67-.42,.04-.72,.41-.67,.83l24.81,240c.04,.38,.35,.66,.72,.68Z"/></g><g><rect class="cls-6" x="848.17" y="183.74" width="47.81" height="31.06" rx="1.18" ry="1.18" transform="translate(1744.15 398.54) rotate(-180)"/><path class="cls-8" d="M848.17,183.74h47.81v8.58c0,.65-.53,1.18-1.18,1.18h-45.45c-.65,0-1.18-.53-1.18-1.18v-8.58h0Z" transform="translate(1744.15 377.24) rotate(-180)"/><rect class="cls-15" x="863.24" y="196.49" width="28.58" height="2.19" transform="translate(1755.07 395.18) rotate(-180)"/><rect class="cls-15" x="876.96" y="200.62" width="14.87" height="2.19" transform="translate(1768.78 403.44) rotate(-180)"/><rect class="cls-15" x="859.63" y="209.3" width="32.19" height="2.19" transform="translate(1751.46 420.8) rotate(-180)"/></g></g><g><path class="cls-33" d="M1096.35,338.4h-310.28c-1.04,0-2.07,.21-3.03,.61h0c-2.88,1.22-4.75,4.04-4.75,7.17l-.2,386.55c0,2.97,1.68,5.67,4.34,6.99l290.19,143.08c3.26,1.61,7.21,.74,9.49-2.08l223.43-276.1c2.3-2.84,2.31-6.91,.02-9.76l-203.14-253.54c-1.48-1.84-3.71-2.92-6.07-2.92Z"/><polygon class="cls-21" points="1097.7 342.63 783.62 342.63 783.62 748.9 1073.67 891.92 1304.96 606.11 1097.7 342.63"/><rect class="cls-13" x="875.8" y="367.4" width="129.36" height="94.63" transform="translate(1880.97 829.44) rotate(-180)"/><circle class="cls-17" cx="882.46" cy="372.9" r="2.17"/><circle class="cls-17" cx="999.03" cy="372.9" r="2.17"/><path class="cls-20" d="M887.42,394.14h104.4c.7,0,1.27-.57,1.27-1.27s-.57-1.27-1.27-1.27h-104.4c-.7,0-1.27,.57-1.27,1.27,0,.7,.57,1.27,1.27,1.27Z"/><path class="cls-20" d="M887.42,405.68h104.4c.7,0,1.27-.57,1.27-1.27s-.57-1.27-1.27-1.27h-104.4c-.7,0-1.27,.57-1.27,1.27,0,.7,.57,1.27,1.27,1.27Z"/><path class="cls-20" d="M887.42,417.21h104.4c.7,0,1.27-.57,1.27-1.27,0-.7-.57-1.27-1.27-1.27h-104.4c-.7,0-1.27,.57-1.27,1.27,0,.7,.57,1.27,1.27,1.27Z"/><path class="cls-20" d="M887.42,428.75h104.4c.7,0,1.27-.57,1.27-1.27,0-.7-.57-1.27-1.27-1.27h-104.4c-.7,0-1.27,.57-1.27,1.27,0,.7,.57,1.27,1.27,1.27Z"/><path class="cls-20" d="M887.42,440.28h104.4c.7,0,1.27-.57,1.27-1.27,0-.7-.57-1.27-1.27-1.27h-104.4c-.7,0-1.27,.57-1.27,1.27,0,.7,.57,1.27,1.27,1.27Z"/><g><path class="cls-20" d="M975.77,448.36c.7,0,1.27-.57,1.27-1.27v-60.18c0-.7-.57-1.27-1.27-1.27-.7,0-1.27,.57-1.27,1.27v60.18c0,.7,.57,1.27,1.27,1.27Z"/><path class="cls-20" d="M957.69,448.36c.7,0,1.27-.57,1.27-1.27v-60.18c0-.7-.57-1.27-1.27-1.27s-1.27,.57-1.27,1.27v60.18c0,.7,.57,1.27,1.27,1.27Z"/><path class="cls-20" d="M939.62,448.36c.7,0,1.27-.57,1.27-1.27v-60.18c0-.7-.57-1.27-1.27-1.27-.7,0-1.27,.57-1.27,1.27v60.18c0,.7,.57,1.27,1.27,1.27Z"/><path class="cls-20" d="M921.55,448.36c.7,0,1.27-.57,1.27-1.27v-60.18c0-.7-.57-1.27-1.27-1.27s-1.27,.57-1.27,1.27v60.18c0,.7,.57,1.27,1.27,1.27Z"/><path class="cls-20" d="M903.48,448.36c.7,0,1.27-.57,1.27-1.27v-60.18c0-.7-.57-1.27-1.27-1.27-.7,0-1.27,.57-1.27,1.27v60.18c0,.7,.57,1.27,1.27,1.27Z"/></g></g></g><g><path class="cls-31" d="M158.95,691.68c-3.84-13.99-3.09-28.85-.73-43.2,1.67-10.17,4.07-20.2,5.98-30.32,2.05-10.9,2.61-21.87,4.06-32.84,2.53-19.06,14.61-34.78,17.91-53.55,1.84-10.48,1.28-21.18,2.2-31.75,.74-8.43,2.59-16.62,5.97-24.41,6.09-14.02,16.85-27.27,30.48-34.86,5.07-2.83,13.14-4.11,16.16,2.25,3.06,6.44,1.18,15.63-.79,22.11-2.53,8.31-6.75,16.02-10.68,23.74-4.57,8.98-8.18,18.16-11.11,27.78-6.13,20.14-12.68,40.35-17.59,60.81-2.62,10.9-4.03,22.12-7.65,32.77-3.4,9.99-9.34,18.64-15.09,27.44-10.12,15.49-18.55,52.77-19.11,54.02Z"/><path class="cls-5" d="M147.7,742.29c1.04-.01,2.07-.06,3.1-.1,1.15-6.97,2.66-16.03,4.37-26.01,1.59-9.36,3.35-19.53,5.14-29.51,4.32-24.27,8.76-47.48,11.27-55.7,.92-3,2.14-6.91,3.58-11.48,7.99-25.35,22.87-72.54,25.78-98.74,3.31-29.63,13.08-39.24,13.17-39.34,.6-.56,.62-1.5,.05-2.09-.57-.59-1.53-.61-2.13-.04-.42,.4-10.65,10.26-14.09,41.16-2.88,25.92-17.7,72.94-25.66,98.19-1.44,4.59-2.67,8.5-3.58,11.51-2.52,8.29-6.9,31.04-11.19,54.94-1.84,10.41-3.69,21.05-5.36,30.8-1.72,10.17-3.26,19.4-4.43,26.42Z"/><path class="cls-31" d="M152.23,579.21c-1.43,2.7-3.07,5.23-4.98,7.52-2.09-3.53-.48-9.55,.09-13.8,1.82-13.54,6.91-26.49,8.06-40.13,1.16-13.74-1.17-27.51-.65-41.27,.51-13.78,2.86-27.39,4.45-41.06,1.61-13.83,1.56-27.25,.6-41.11-.9-13.05-.53-25.31,3.96-37.74,4.3-11.9,9.99-23.05,12.67-35.49,2.51-11.66,3.61-23.76,8.35-34.84,3.27-7.63,9.01-16.92,18.21-18.08,10.15-1.28,13.83,6.88,13.86,15.39,.04,14.17-.31,28.36-.47,42.53-.15,12.95,1.09,26.94-2.32,39.59-3.13,11.56-11.59,20.28-17.47,30.45-12.89,22.29-9.38,49.01-12.77,73.49-2.59,18.72-10.29,36.14-17.51,53.48-5.21,12.52-7.46,28.59-14.08,41.08Z"/><path class="cls-31" d="M100.27,292.4c2.3,8.29,5.36,16.35,7.48,24.7,2.3,9.15,3.56,18.52,4.32,27.91,1.5,18.18,1.15,36.48,2.98,54.64,3.29,32.68,16.55,62.89,24.73,94.45,.54,2.06,1.06,4.14,1.54,6.22,.23,.91,1.56,.83,1.81,0,.09-.28,.17-.58,.24-.86,9.17-31.29,5.39-63.87,0-95.55,.35-9.68,1.43-19.37,3.13-29.11,1.6-9.19,1.37-17.44-.89-26.5-2.52-10.1-4.23-20.2-5.17-30.57-1.53-16.86-1.75-33.85-4.68-50.56-1.43-8.21-3.52-16.34-6.68-24.09-2.51-6.19-5.6-13.11-10.35-17.97-3.02-3.09-8.17-6.19-12.25-3.04-2.01,1.56-2.63,4.08-3.22,6.4-1.1,4.34-2.02,8.75-2.92,13.13-3.49,17.02-4.76,33.88-.08,50.8Z"/><path class="cls-31" d="M49.08,366.06c2.49,14.27,10.56,25.87,16.43,38.82,6.46,14.26,10.44,29.48,16.96,43.73,8.99,19.61,18.7,38.91,29.42,57.67,.24,.43,.48,.85,.73,1.28,.39,.68,1.4,.49,1.65-.22,.2-.58,.39-1.16,.6-1.74,2.39-6.48,5.71-13.46,1.92-34.77-4.14-23.21-16.71-63.44-18.17-69.56-2.18-9.05-28.67-72.3-44.69-60.2-7.1,5.36-6.18,17.44-4.85,24.98Z"/><path class="cls-31" d="M6.06,409.02c10.82-12.88,25.87,.65,33.27,10.15,10.15,13.04,15.9,28.85,24.4,42.89,9.08,15.02,19.89,29.54,24.67,46.61,2.91,10.37,2.36,21.45,6.05,31.62,3.37,9.31,9.95,17.19,12.67,26.78,2.97,10.45,2.55,22,3.23,32.75,.41,6.53,1.19,13.03,1.66,19.55,.24,3.36,.42,6.73,.42,10.09,0,2.82,.37,6.95-.71,9.44-3.01-6.93-5.86-13.84-9.5-20.49-4.3-7.86-9.71-15.09-12.22-23.76-1.3-4.49-2.12-9.12-3.71-13.53-1.61-4.44-4.06-8.49-6.83-12.31-5.1-7.05-11.21-13.37-15.52-20.96-8.64-15.21-10.72-32.99-18.84-48.42-4.52-8.6-11.31-15.51-17.46-22.96-5.82-7.04-10.68-14.76-15.38-22.56-7.6-12.59-17.52-31.44-6.2-44.91Z"/><path class="cls-31" d="M22.2,574.57c.38,10.59,6.71,19.69,13.97,27.03,9.03,9.16,19.14,17.44,28.74,26.02,4.47,4,9.24,7.84,13.22,12.33,4.91,5.57,6.3,11.59,8.25,18.49,4,14.32,18.99,20.73,27.4,31.71,2.14,2.78,3.85,5.84,4.86,9.4,.24,.82,1.24,.71,1.54,.09,.05-.09,.08-.19,.09-.3,1.15-11.99-2.96-22.96-8.87-33.14-.92-3.18-2.08-6.31-3.37-9.42-2.52-6.1-5.06-12.3-8.31-18.06-3.22-5.69-7.45-10.4-11.9-15.15-4.61-4.93-8.73-10.19-12.49-15.77-5.95-8.82-11.15-18.12-17.43-26.73-5.38-7.35-12.14-16.29-21.04-19.65-9.88-3.74-15,4.19-14.67,13.14Z"/><path class="cls-5" d="M141.79,669.17c0,5.47,.05,10.9,.11,16.23,.15,10.43,.42,20.47,.76,29.75,.12,3.43,.26,6.74,.38,9.94,.14,2.85,.26,5.61,.39,8.26,.15,3.19,.3,6.22,.45,9.05,1.01-.03,2.02-.04,3.02-.07-.42-7.74-.85-16.9-1.21-26.99-1.48-40.96-1.8-96.96,4.91-133.32,.62-3.33,1.28-6.48,2.02-9.45,9.89-39.88,16.48-85.39,22.29-125.54,2.81-19.5,5.48-37.92,8.1-52.3,7.66-42.11,17.7-64.98,17.79-65.22,.33-.74-.01-1.62-.77-1.95-.77-.33-1.66,.01-1.99,.76-.11,.24-10.27,23.44-18,65.89-2.63,14.42-5.29,32.87-8.11,52.4-5.82,40.07-12.39,85.51-22.23,125.25-1.07,4.32-2.01,9.05-2.82,14.1-1.21,7.34-2.14,15.37-2.87,23.82-1.34,15.49-1.98,32.44-2.16,49.28-.03,3.37-.05,6.74-.05,10.1Z"/><path class="cls-5" d="M143.32,660.28h.04c.83-.02,1.49-.7,1.47-1.52-.02-.78-2.01-78.61-.06-106.76,1.67-24.04,.7-33.05-1.64-54.81-.45-4.16-.94-8.78-1.48-14.05l-.87-8.52c-3.36-32.6-8.44-81.87-7.93-123.96,.55-45.79-14.53-78.95-14.68-79.28-.34-.75-1.24-1.08-2-.74-.76,.34-1.1,1.22-.75,1.97,.15,.32,14.95,32.92,14.41,78.01-.51,42.26,4.58,91.63,7.95,124.3l.87,8.52c.54,5.28,1.03,9.91,1.48,14.07,2.32,21.58,3.28,30.52,1.63,54.3-1.96,28.29,.03,106.25,.05,107.04,.02,.81,.69,1.45,1.51,1.45Z"/><path class="cls-5" d="M143.26,686.25c.08,0,.15,0,.23-.02,.82-.13,1.39-.88,1.26-1.69-.05-.3-4.92-30.83-16.13-63.08-8.11-23.35-10.33-60.4-12.28-93.09-.73-12.2-1.42-23.73-2.37-33.32-1.12-11.37-4.59-20.12-9.83-33.36-1.64-4.15-3.5-8.84-5.51-14.18-11.13-29.6-25.75-70.14-25.9-70.55-.28-.77-1.14-1.18-1.93-.9-.79,.27-1.2,1.12-.92,1.9,.15,.41,14.78,40.97,25.91,70.58,2.02,5.36,3.88,10.07,5.53,14.23,5.15,13.01,8.56,21.61,9.64,32.57,.94,9.53,1.63,21.03,2.36,33.2,1.96,32.88,4.19,70.14,12.43,93.87,11.12,32,15.95,62.27,16,62.57,.12,.73,.76,1.26,1.49,1.26Z"/><path class="cls-5" d="M144.89,734.46c.2,0,.41-.04,.61-.13,.76-.33,1.1-1.21,.77-1.96-.32-.7-31.94-70.81-33.62-94.87-1.77-25.51-12-66.2-23.85-83.81-6.58-9.78-8.61-18.05-10.75-26.81-1.62-6.61-3.29-13.44-7.05-20.95-8.48-16.94-23.34-39.99-23.49-40.22-.45-.69-1.38-.9-2.09-.46-.7,.44-.91,1.36-.47,2.05,.15,.23,14.93,23.15,23.33,39.94,3.62,7.22,5.25,13.89,6.83,20.34,2.11,8.63,4.3,17.54,11.17,27.76,11.59,17.22,21.61,57.24,23.36,82.38,1.71,24.58,32.56,92.98,33.87,95.88,.25,.55,.8,.88,1.38,.88Z"/><path class="cls-5" d="M46.88,590.42c.21,.36,5.51,8.79,21.96,25.25,14.41,14.41,19.21,24.49,24.77,36.18,.72,1.54,1.48,3.1,2.25,4.71,2.07,4.25,4.47,8.33,7.02,12.65,3.82,6.49,7.72,13.13,10.89,20.94,1.63,4,3.08,8.3,4.21,13.06,.91,3.8,2.08,7.8,3.41,11.79,3.4,10.28,7.72,20.51,10.72,27.25,.5,.01,1.01,.03,1.53,.04,.6,.01,1.21,.03,1.81,.04-2.92-6.46-7.39-16.9-10.92-27.45-1.4-4.19-2.67-8.39-3.62-12.37-.24-.98-.48-1.93-.74-2.88-3.58-13.04-9.46-23.02-14.68-31.92-2.52-4.28-4.89-8.3-6.9-12.45-.79-1.59-1.53-3.15-2.25-4.69-5.68-11.93-10.57-22.23-25.35-37-16.16-16.16-21.49-24.64-21.55-24.71-.42-.7-1.36-.92-2.07-.49-.71,.42-.94,1.34-.5,2.03Z"/></g><g><path class="cls-33" d="M710.32,794.99c1.21,0,2.22-.96,2.26-2.19l3.59-102.59c.04-1.25-.93-2.3-2.18-2.34-1.27-.07-2.3,.94-2.34,2.18l-3.59,102.59c-.04,1.25,.93,2.3,2.18,2.34,.03,0,.05,0,.08,0Z"/><path class="cls-33" d="M617.45,742.33c1.21,0,2.22-.96,2.26-2.19l3.11-88.71c.04-1.25-.93-2.3-2.18-2.34-1.28-.04-2.3,.94-2.34,2.18l-3.11,88.71c-.04,1.25,.93,2.3,2.18,2.34,.03,0,.05,0,.08,0Z"/><path class="cls-32" d="M624.63,637.92c1.35,.24,2.73,.58,4.15,1.06,22.16,7.39,43.85,16.86,65.58,25.45,8.64,3.42,17.29,6.84,25.89,10.36,2.3,.94,9.74,2.6,11.15,4.88,.96,1.55-.55,15.68-.6,17.2-.05,1.52-23.48,1.91-27.87,.54-4.39-1.37-102.33-42.07-104.3-43.66-1.97-1.59-1.15-12.23-.57-14.23,.59-2.04,10.92-1.75,12.5-1.83,5.02-.24,9.42-.6,14.08,.24Z"/></g><path class="cls-33" d="M475.9,677.52v187.52c6.21,.06,12.42,.09,18.61,.12v-187.64h-18.61Z"/><path class="cls-32" d="M324.36,743.5c.86,2.33,13.04,10.59,30.39,21.22,1.45,.88,2.93,1.78,4.46,2.7,25.96,15.74,61.44,35.69,88.45,49.48,1.51,.79,3.01,1.54,4.46,2.27,16.8,8.46,29.63,14.08,33.65,14.08,15.32,0,198.83-19.64,204.12-23.41,5.29-3.78-14.35-89.12-16.61-89.12-2.27,0-351.48-274.9-351.48-274.9,0,0-37.56-6.04-42.81,7.55-5.23,13.59,42.35,281.95,45.37,290.12Z"/><path class="cls-33" d="M489,799.51s.04,0,.06,0l162.37-13.47c.42-.03,.72-.4,.69-.81-.03-.42-.39-.73-.81-.69l-162.37,13.47c-.42,.03-.72,.4-.69,.81,.03,.4,.36,.69,.75,.69Z"/><path class="cls-33" d="M344.96,721.1s.07,0,.11,0c.41-.06,.7-.44,.64-.86l-34.38-238.82c-.06-.41-.44-.69-.86-.64-.41,.06-.7,.44-.64,.86l34.38,238.82c.05,.38,.38,.65,.75,.65Z"/><path class="cls-33" d="M485.72,799.51c.27,0,.52-.14,.66-.39,.2-.36,.07-.82-.29-1.03l-141.3-78.72-17.88,20.86c-.27,.32-.23,.79,.08,1.07,.32,.27,.79,.23,1.06-.08l17.07-19.92,140.22,78.12c.12,.06,.24,.1,.37,.1Z"/><path class="cls-25" d="M465.12,659.12c4.46,10.77,14.33,18.68,23.2,25.74,9.36,7.43,19.33,14.06,29.63,20.13,10.68,6.3,21.69,11.99,32.82,17.45,10.35,5.04,20.71,10.3,31.34,14.73,.59,.27,1.18,.51,1.78,.76,5.98,2.45,12.04,4.12,18.4,5.24,6.4,1.13,12.87,2.11,18.68,5.2,5.44,2.88,10.41,7.05,15.97,9.64-3.01,5.54-4.67,12.05-6.27,18.09-1.66,6.21-4.44,12.13-5.47,18.49-.76,4.68-1.89,9.05-3.37,13.43v.02c-.48,1.37-.98,2.75-1.51,4.14-3.67,9.58-7.11,20.01-.29,29.05,3.1,4.09,7.3,7.25,11.25,10.45,3.49,2.81,7.05,5.56,10.77,8.07,.71-.06,1.4-.09,2.1-.14,13.58-.83,27.29-1.47,41.36-1.65,13.25-18.11,24.35-37.7,33.95-58,5.18-10.94,9.92-22.07,14.41-33.31,4.3-10.8,8.76-21.75,10.6-33.29,1.57-9.74,1.15-20.09-3.97-28.77-5.29-8.99-14.59-14.33-23.79-18.59-24.09-11.12-48.98-20.77-73.85-30.03-23.4-8.7-47.05-16.72-70.88-24.12,3.4-1.06,6.8-2.11,10.2-3.17,.94-.29,.53-1.74-.39-1.45-3.93,1.21-7.85,2.43-11.78,3.66-.18,.06-.36,.12-.54,.18-1.27-.39-2.54-.82-3.81-1.19-.94-.29-1.33,1.16-.41,1.45,.59,.18,1.18,.38,1.77,.56-2.69,.91-5.38,1.65-8.19,.83-7.1-2.08-13.96-4.43-21.27-5.74-13.23-2.39-26.84-2.76-40.18-1.03-9.38,1.22-19.59,3.22-27.02,9.5-2.75,2.33-4.7,5.14-5.82,8.2-1.81,4.83-1.6,10.3,.56,15.5Z"/><path class="cls-25" d="M345.91,643.72c3.02-.51,6.06-.98,9.08-1.43-1.65,.24,1.62,39.51,1.83,43.29,.74,12.97,4.82,20.8,12.48,32.13,7.96,11.77,17.69,17.64,29.45,24.54,13.34,7.82,88.87,50.84,95.55,53.23,5.77,2.05,11.69,4.09,16.74,7.63,3.25,2.28,5.6,5.01,7.64,8.38,1.33,2.19,2.63,4.14,4.64,5.77,2.61,2.11,5.48,3.79,7.94,6.13,2.52,2.39,4.74,5.06,6.81,7.84,4.37,5.89,8.25,12.16,12.28,18.28,3.28,4.98,6.33,10.41,9.86,15.3,27.87-1.01,54.6-3.4,81.85-5.08,.71-.06,1.4-.09,2.1-.14-7.9-16.75-14.89-34.29-22.32-51.57v-.02c-10.86-25.19-22.69-49.86-39.72-70.84-7.36-9.05-15.68-17.42-25.31-24.85-23.83-18.37-51.34-34.11-73.09-54.96-8.62-8.26-.85-8.84-12.04-11.9-2.36-.65-4.74-1.27-7.11-1.83-11.04-2.7-22.25-4.64-33.55-5.83-25.01-2.64-49.81-.92-74.54,2.73-.05-2.14-.11-4.29-.17-6.42-.03-.98-1.54-.98-1.51,0,.06,2.21,.12,4.43,.17,6.65-3.16,.48-6.3,.98-9.46,1.51-.95,.15-.54,1.62,.41,1.45Z"/><g><path class="cls-33" d="M447.66,816.9c1.51,.79,3.01,1.54,4.46,2.27l3.52-100.58c.05-1.25-.94-2.31-2.19-2.36-1.27-.03-2.3,.94-2.34,2.19l-3.44,98.48Z"/><path class="cls-33" d="M354.75,764.72c1.45,.88,2.93,1.78,4.46,2.7l3.07-87.62c.05-1.25-.94-2.31-2.19-2.36-1.27-.03-2.3,.94-2.34,2.19l-2.99,85.08Z"/><path class="cls-32" d="M364.08,666.28c1.35,.24,2.73,.58,4.15,1.06,22.16,7.39,43.85,16.86,65.58,25.45,8.64,3.42,17.29,6.84,25.89,10.36,2.3,.94,9.74,2.6,11.15,4.88,.96,1.55,.22,15.92-.6,17.2-.63,.97-25.05,2.08-27.13,1.38-1.96-.66-103.08-42.91-105.05-44.49-1.97-1.59-1.15-12.23-.57-14.23,.59-2.04,10.92-1.75,12.5-1.83,5.02-.24,9.42-.6,14.08,.24Z"/><path class="cls-33" d="M356.29,690.93c.29,0,.57-.17,.69-.45,.17-.38-.01-.83-.39-.99l-13.85-6c-.38-.17-.83,.01-.99,.39-.17,.38,.01,.83,.39,.99l13.85,6c.1,.04,.2,.06,.3,.06Z"/><path class="cls-33" d="M443.37,725.82c.4,0,.74-.32,.75-.72l.66-14.95h24.58c.42,0,.76-.34,.76-.76,0-.42-.34-.76-.76-.76h-26.02l-.72,16.39c-.02,.42,.3,.77,.72,.79,.01,0,.02,0,.03,0Z"/><path class="cls-33" d="M444.06,710.15c.3,0,.59-.18,.7-.48,.15-.39-.04-.83-.43-.98l-85.55-33.61c-.39-.15-.83,.04-.98,.43-.15,.39,.04,.83,.43,.98l85.55,33.61c.09,.04,.18,.05,.28,.05Z"/></g><path class="cls-33" d="M792.16,608.13v244.69c2.52-.29,5.04-.57,7.55-.89v-243.8h-7.55Z"/><polygon class="cls-33" points="1040.81 637.64 1040.81 647.46 336.44 674.78 105.34 610.83 105.34 600.02 1040.81 637.64"/><path class="cls-33" d="M105.34,608.13v213.36c2.36,1.83,4.82,3.56,7.36,5.18t.02,.02c.06,.05,.12,.08,.18,.12v-218.68h-7.55Z"/><polygon class="cls-18" points="1040.81 637.64 336.62 663.83 105.34 600.02 791.08 578.89 1040.81 637.64"/><g><path class="cls-33" d="M661.56,614.23l2.93,9.78c.8,2.66-1.19,5.33-3.97,5.33h0c-1.66,0-3.16-.99-3.81-2.52l-5.35-12.59h10.2Z"/><path class="cls-33" d="M476.98,619.58l2.93,9.78c.8,2.66-1.19,5.33-3.97,5.33h0c-1.66,0-3.16-.99-3.81-2.52l-5.35-12.59h10.2Z"/></g><polygon class="cls-32" points="677.9 617.11 677.9 622.45 454.6 629.34 397.17 603.91 397.17 599.21 677.9 617.11"/><polygon class="cls-33" points="397.17 599.21 454.23 623.6 677.9 617.11 621.53 592.66 397.17 599.21"/><path class="cls-33" d="M332.85,668.93v192.52c2.52,.14,5.04,.24,7.55,.35v-192.87h-7.55Z"/><path class="cls-33" d="M1033.25,645.32v99.31c.08-.09,.15-.2,.23-.29,2.57-3.2,5.01-6.5,7.33-9.86v-89.16h-7.55Z"/><path class="cls-32" d="M455.24,620.97c.29,0,.58-.17,.7-.46,.16-.39-.02-.83-.41-.99l-47.06-19.7c-.38-.16-.83,.02-.99,.4-.16,.39,.02,.83,.41,.99l47.06,19.7c.1,.04,.19,.06,.29,.06Z"/><path class="cls-32" d="M489.75,599.96h.03l66.32-2.24c.42-.01,.74-.36,.73-.78-.01-.42-.37-.7-.78-.73l-66.32,2.24c-.42,.01-.74,.36-.73,.78,.01,.41,.35,.73,.75,.73Z"/><path class="cls-32" d="M665.37,616.02c.29,0,.57-.17,.69-.45,.17-.38,0-.83-.38-1l-45.88-20.39c-.38-.17-.83,0-1,.38-.17,.38,0,.83,.38,1l45.88,20.39c.1,.04,.2,.06,.31,.06Z"/><path class="cls-4" d="M581.13,736.08c.16,0,.32-.05,.45-.15,.33-.25,.4-.72,.15-1.06-.11-.15-11.69-15.5-32.56-29.19-20.84-13.68-46.35-22.14-46.6-22.22-.4-.13-.82,.09-.95,.48-.13,.4,.09,.82,.48,.95,.25,.08,25.58,8.48,46.25,22.05,20.65,13.55,32.07,28.68,32.18,28.83,.15,.2,.38,.3,.61,.3Z"/><path class="cls-4" d="M636.77,753.45c.32,0,.62-.2,.72-.53,.07-.21,6.84-21.44,14.45-29.98,7.65-8.59,13.01-12.54,13.06-12.58,.34-.24,.41-.72,.16-1.05-.25-.34-.72-.41-1.06-.17-.22,.16-5.53,4.07-13.3,12.8-7.82,8.78-14.48,29.65-14.76,30.53-.13,.4,.09,.82,.49,.95,.08,.02,.15,.04,.23,.04Z"/><path class="cls-4" d="M648.6,736.08c.18,0,.36-.06,.51-.2l19.81-18.09c.31-.28,.33-.76,.05-1.07-.28-.31-.76-.33-1.07-.05l-19.81,18.09c-.31,.28-.33,.76-.05,1.07,.15,.16,.35,.25,.56,.25Z"/><path class="cls-33" d="M298.68,612.72v.07c0,2.38-1.85,4.36-4.23,4.52l-58.69,3.95c-.95,.06-1.91-.18-2.72-.68l-16.33-10.26c-1.32-.83-2.12-2.28-2.12-3.84v-1.41l84.08,7.66Z"/><path class="cls-32" d="M298.68,612.72l-24.11-11.29c-.7-.33-1.47-.47-2.24-.42l-57.73,4.05,20.08,11.96,64-4.3Z"/><polygon class="cls-9" points="287.9 612.09 268.6 602.65 218.12 605.93 235.12 615.62 287.9 612.09"/><g><path class="cls-25" d="M503.58,347.2c-.14-1.69,.68-10.12-.64-12.04-.71-1.04-.73-3.5-.25-4.67,1.71-4.17,1.35-3.45,1.62-5.78,.46-4.1-1.98-6.65-3.74-10.17-1.86-3.73-6.37-10.44-16.27-11.83-1.96-4.63-4.8-8.76-9.32-11.2-4.37-2.37-13.19-5.91-17.38-1.47-1.73,1.83-2.47,2.94-5.36,2.29-1.3-.29-2.55-1-3.95-1.25-4.13-.72-7.93-3.07-12.22-2.97-4.55,.1-8.39,2.3-11.08,5.71-8.28-2.6-17.73,29.77-16.94,30.78-.54,2.67-1.22,5.35-1.62,8.09-.74,5.08,1.63,9.79,1.5,14.93-.15,6.25-.72,12.34-.37,18.61,.34,6.07,.98,12.13,1.52,18.19,.11,1.18,1.91,1.21,1.8,.01-.22-2.45-.45-4.91-.68-7.36,5.23-.66,10.53-1.55,15.79-1.54,5.9,.02,11.56,1.77,17.21,3.32,9.26,2.54,18.89,4.88,28.52,3.41,2.41-.37,4.76-.97,7.05-1.83,3.37-1.26-2.35-.43,.87,.46,2.44,.68,4.19-.45,6.13-1.94,1.09-.83,2.04-1.77,3.28-2.36,1.11-.53,2.36-.23,3.42-.7,1.14-.5,1.63-1.15,2.16-2.26,.49-1.01,.68-2.11,.72-3.24,.04-1.18,2.93-4.27,3.53-5.53,1.11-2.3,1.93-4.77,2.27-7.32,.44-3.26,2.79-5.83,2.41-10.36Z"/><g><path class="cls-12" d="M545.78,570.22c.58-9.23,38.46-23.68,38.46-23.68l52.48,21.89,.99,16.75s-3.85,.13-10.25,.25c-2.24,.05-4.81,.08-7.63,.12-11.71,.13-23.43,.08-35.13-.21-9.57-.23-27.93,2.51-35.21-5.11-2.88-3.02-3.93-6.49-3.71-10.01Z"/><path class="cls-12" d="M633.1,568.08s22.35-2.21,29.83,1c7.49,3.21,13.28,18.77,15.03,21.15,1.75,2.37,2.22,10.33-1.49,11.23-3.71,.9-16.28-9.18-24.3-11.79-8.02-2.6-17.89-4.38-17.89-4.38l-8.48-12.27,7.29-4.94Z"/></g><path class="cls-28" d="M478.13,423.67s18.43,71.64,19.91,74.79c1.48,3.15,10.37,59.07,14.79,61.31,4.44,2.25,12.71,28.78,12.71,28.78,0,0,6.6,.18,15.3-.35,.07-.19,6.34-13.78,7.17-14.93,3.43-4.82,7.79-9.09,13.05-11.85,4.12-2.17,8.74-3.42,12.61-6.03,4.62-3.15,13.84-8.89,11.09-15.46-1.74-4.18-9.55-9.73-12.75-12.2-5.45-4.18-4.92-12.25-9.14-17.36-.26-.31-.52-.62-.79-.91-1.01-1.23-2.03-2.38-3.07-3.53-10.51-11.55-21.87-20.1-29.19-34.34-18.5-35.95-51.7-47.91-51.7-47.91Z"/><path class="cls-28" d="M334.83,505.87c-2.85,17.96-11.21,48.98,11.68,80.5,5.56,7.64,79.94,.56,81.12,0,1.18-.56,122.16,6.75,122.16,6.75,0,0-28.13-74.29-27.52-84.61,2.48-42.35-22.59-68.76-35.75-79.06-13.16-10.3-37.6-22.05-77.01-29.05-39.41-6.98-62.8,28.82-72.83,48.47-10.03,19.66,1.02,39.03-1.86,57Z"/><path class="cls-12" d="M544.96,586.88s20.19-9.84,28.32-9.43c8.13,.4,18.97,12.99,21.44,14.6,2.47,1.62,5.67,8.91,2.51,11.05-3.16,2.14-18.45-2.96-26.88-2.61-8.43,.35-18.3,2.11-18.3,2.11l-12.22-8.56,5.12-7.17Z"/><path class="cls-12" d="M416.11,361.57l-13.32,38.03s8.97,20.33,20.12,26.65c11.13,6.31,19.28-.92,19.28-.92l1.77-2.94,1.3-2.14,2.39-3.96,1.06-1.74,12.18-20.12-44.78-32.85Z"/><path class="cls-12" d="M410.42,362.55c-.06,1.79,5.84,7.33,5.9,9.15,.37,13.55-2.21,10.79,6.03,22.03,9.82,13.39,24.15,22.47,32.94,21.72,6.13-.53,17.25-11.45,25.67-30.53,1.77-4.01,5.07-11.24,7.57-19.98,.4-1.42,.8-2.81,1.18-4.12,1.77-6.29,3.1-11.08,3.1-11.08,0,0-10.2-32.8-22.57-37.48-12.39-4.69-37.26-8.4-46.98,2.45-1.64,1.83-2.87,4.03-3.93,6.25-6.14,12.64-8.35,27.69-8.92,41.6Z"/><path class="cls-22" d="M454.72,362.01c.26-1.28,.21-2.58-.79-3.16-2.67-1.54-5.06,3.22-5.43,4.89-.22,.99-.04,2.29,.7,3.04,.79,.81,1.96,.63,2.83,.03,.77-.53,1.36-1.31,1.77-2.16,.3-.61,.71-1.62,.93-2.65Z"/><path class="cls-22" d="M480.41,370.64c.3-1.27,.28-2.58-.71-3.18-2.63-1.61-5.14,3.09-5.56,4.75-.25,.99-.1,2.29,.62,3.06,.77,.83,1.94,.68,2.82,.1,.79-.51,1.39-1.28,1.82-2.11,.31-.6,.76-1.6,1-2.62Z"/><path class="cls-12" d="M414.32,368.1c.76,.53,4.28,2.15,4.66,.65,1.1-4.29,1.24-8.7,2.69-12.91,.94-2.74,1.97-5.38,2.63-8.15,.32,.32,.64,.64,.95,.96-.14,1.13,1.63,1.2,1.77,.07,.52-4.08-2.34-6.37-6.2-6.45-3.18-.06-6.13,1.27-8.38,3.37-6.24,5.82-5.16,17.52,1.87,22.44Z"/><path class="cls-14" d="M459.24,388.3c.09,.03,.18,.05,.28,.05,.56,.02,5.51,.13,6.34-2.59,.67-2.18,.93-12.15,.96-13.28,.01-.51-.39-.94-.9-.95-.51-.01-.94,.39-.95,.9-.07,3-.38,11.14-.88,12.79-.3,.98-2.86,1.35-4.5,1.29-.51-.02-.94,.38-.96,.89-.01,.41,.24,.77,.61,.91Z"/><path class="cls-14" d="M424.07,391.58c.02,.54,.7,8.96,1.83,12.71,1.12,3.86,6.59,4.67,9.15,9.29,2.56,4.62,5.46,6.12,9.58,6.58,.21,.02,.42,.03,.62,.09l2.39-3.96,1.06-1.74c-2.81-1.19-6.29-2.89-10.88-6.63-8.41-6.84-13.49-15.75-13.75-16.33Z"/><path class="cls-25" d="M459.82,349.14c-2-1.88-6.32-2.95-7.82-3.12-1.89-.21-3.79-.19-5.55,.32-.74,.22-2.08,.58-2.56,1.12-1.97,2.2,4.18,2.81,5.17,3.02,2.62,.55,4.94,1.86,7.46,2.65,1.36,.43,3.76,.38,4.24-1.34,.28-1.01-.15-1.89-.95-2.65Z"/><path class="cls-25" d="M478.65,361.32c2.49,.9,5.13,1.26,7.55,2.42,.34,.16,1.29,.73,2.34,1.2,.4-1.42,.8-2.81,1.18-4.12-.92-.92-2.01-1.71-3.16-2.4-2.42-1.46-5.26-2.27-8.09-2.06-3.67,.28-3.03,3.8,.17,4.97Z"/><path class="cls-28" d="M318.79,489.93c4.61,14.48-2.55,31.75,1.9,48.65,.67,2.56,1.6,5.1,2.89,7.63,.65,1.3,1.23,2.53,1.73,3.71,2.74,6.41,3.47,11.47,3.66,15.98,.23,4.88-.17,9.14,.72,13.84,.41,2.19,1.1,4.48,2.24,6.98,12.52,27.25,29.44,8.64,29.44,8.64,0,0,49.24-48.24,50.51-53.69,1.29-5.45-22.55-102.98-22.55-102.98l10.02-39.17s-45.47,3.79-60.28,15.66c-2.43,1.94-4.74,4.8-6.9,8.31-.72,1.18-1.43,2.43-2.11,3.74-9.75,18.62-15.41,49.71-11.27,62.72Z"/><path class="cls-12" d="M552.06,602.61s-75.81,12.52-103.05,13.17c-17.95,.43-30.66-7.13-33.97-9-9.99-5.57-38.24-22.6-38.24-22.6l53.27-22.79,16.04,7.84,100.97,18.13,5,15.26Z"/><path class="cls-12" d="M442.47,424.55s1.65,11.25,2.38,18.06c.73,6.82,1.73,10.78,1.61,17.29-.12,6.51,3.59,22.59,3.59,22.59,0,0-17.02-21.86-27.77-35.23-10.75-13.37-19.51-47.66-19.51-47.66,0,0,10.72,12.98,14.1,14.92,24.04,13.8,25.59,10.03,25.59,10.03Z"/><path class="cls-5" d="M428.45,554.56c.25,.09,.54,.07,.78-.07,.44-.26,.59-.83,.33-1.27-.18-.31-18.23-30.85-26.25-41.22-2.55-3.3-5.53-9.12-8.99-15.87-7.33-14.32-16.45-32.14-27.5-37.31-15.83-7.41-34.74-9.93-34.93-9.95-.51-.07-.97,.29-1.04,.8-.07,.51,.29,.97,.8,1.04,.19,.03,18.82,2.5,34.39,9.79,10.47,4.9,19.44,22.41,26.64,36.48,3.49,6.83,6.51,12.72,9.17,16.16,7.95,10.28,25.94,40.72,26.12,41.03,.11,.19,.29,.33,.48,.4Z"/><path class="cls-5" d="M543.47,571.5c.22,.08,.46,.08,.69-.03,.47-.21,.68-.76,.47-1.22-.23-.52-23.07-51.64-26.99-64.02-3.87-12.2,1.59-38.33,1.64-38.59,.11-.5-.23-.97-.71-1.1-.5-.11-.99,.21-1.1,.71-.23,1.09-5.61,26.87-1.6,39.53,3.96,12.48,26.13,62.11,27.07,64.22,.11,.24,.3,.41,.53,.49Z"/><path class="cls-5" d="M463.15,505.17c-.32-.26-31.82-25.98-47.64-40.1-14.51-12.96-30.37-34.09-29.77-37.13,.08-.41,.36-.74,.66-.84,1.19-.79,6.49-10.63,10.92-19.69,.22-.46,.79-.65,1.24-.42,.46,.22,.65,.78,.42,1.24-3.35,6.84-9.03,18.05-11.38,20.23,.82,3.17,14.1,21.8,29.14,35.23,13.59,12.13,38.8,32.86,45.76,38.56-.83-6.17-2.98-22.73-2.99-29.45,0-4.84,2.93-16.05,5.28-25.06,1.44-5.53,3.08-11.8,2.94-12.74-.48-1.43-9.23-7.48-17.07-12.26-.44-.27-.57-.84-.31-1.27,.27-.44,.84-.57,1.27-.31,5.21,3.18,17.38,10.86,17.91,13.45,.24,1.15-.62,4.64-2.96,13.59-2.33,8.9-5.22,19.99-5.22,24.59,0,8.03,3.26,31.29,3.29,31.53l.33,2.34-1.83-1.49Zm-76.05-76.37s.07-.03,.1-.04c-.03,.02-.07,.03-.1,.04Z"/><path class="cls-9" d="M475.34,385.46c-2.54-1.05-4.44-3.18-5.36-6-.9-2.77-.74-5.88,.45-8.76h0c2.48-6,8.72-9.2,13.9-7,5.18,2.14,7.38,8.77,4.9,14.77-1.19,2.88-3.27,5.2-5.87,6.53-2.51,1.28-5.2,1.5-7.64,.62-.13-.05-.26-.1-.39-.15Zm-3.2-14.06h0c-1.02,2.47-1.17,5.13-.4,7.49,.75,2.3,2.28,4.03,4.31,4.87,2.02,.82,4.33,.69,6.48-.41,2.2-1.13,3.98-3.11,5-5.59,2.09-5.06,.34-10.6-3.9-12.36-.1-.04-.2-.08-.3-.12-4.18-1.51-9.14,1.17-11.18,6.11Z"/><path class="cls-9" d="M449.47,376.14c-5.19-2.14-7.38-8.77-4.9-14.77,2.48-6,8.64-9.19,13.9-7,2.54,1.05,4.44,3.18,5.36,6,.9,2.77,.74,5.88-.45,8.76-1.19,2.88-3.27,5.2-5.87,6.53-2.51,1.28-5.2,1.5-7.64,.62-.13-.05-.26-.1-.39-.15Zm-3.2-14.06c-2.09,5.06-.34,10.6,3.9,12.36,2,.82,4.33,.69,6.48-.41,2.2-1.13,3.98-3.11,5-5.59,1.02-2.47,1.17-5.13,.4-7.49-.75-2.3-2.28-4.03-4.31-4.87-.1-.04-.2-.08-.3-.12-4.18-1.51-9.14,1.17-11.18,6.11Z"/><rect class="cls-9" x="466.13" y="365.01" width="1.85" height="9.01" transform="translate(-38.86 683.74) rotate(-70.19)"/><path class="cls-9" d="M445.52,361.7c.34,.12,.74,.04,.99-.24,.35-.38,.32-.96-.06-1.31l-16-14.7c-.38-.35-.96-.32-1.31,.06-.35,.38-.32,.96,.06,1.31l16,14.7c.09,.09,.2,.15,.31,.19Z"/><path class="cls-25" d="M486.68,329.44c-3.59-4.87-5.36-16.24-10.17-19.62-3.75-2.63-5.54-4.51-9.45-5.74-.06-.18-28.04-1.02-33.93,1.79-2.54,.56-4.22,5.2-6.74,5.84-.58,.15-3.42-.56-3.25-.09-4.07,1.39-5.04,4.86-7.55,8.48-2.95,4.25-4.14,9.49-4.86,14.69-.57,4.11-.51,6.29,1.05,9.68-.71-.22-1.45-.32-2.35-.31-1.09,.01-1.11,1.88-.01,1.86,3.25-.04,5.94,2.89,8.44,4.76,.49,.36,1.42,1.37,2.2,1.18,2.17-.53,3.45-5.35,4.03-7.28,1.52-5.11,2.78-9.94,5.26-14.65,1.42-2.69,2.99-5.28,4.56-7.88,1.22,.55,2.4,1.32,3.63,1.81,1.81,.74,3.72,1.05,5.64,1.06,1.97,.01,3.84-.41,5.77-.77,2.49-.45,4.58-.78,6.87,.62,1.38,.85,2.25,1.76,3.34,2.98,2.5,2.78,4.21,4.2,7.84,4.81,3.77,.63,7.48,.33,11.12-.66,.61,.81,1.43,1.53,2.26,2.2,2.34,1.88,4.21,3.85,6.3,6.02,1.51,1.57,5.31,9.21,6.97,10.53,.56,.44-.91-7.64-.87-8.28,.3-5.2-3.29-9.25-6.09-13.05Z"/><path class="cls-25" d="M477.21,394.93s.45,11.07-3.17,16.72c0,0-3.25,9.6-8.96,12.02,0,0-5.75,6.66-16.38,5.52,0,0-14.8-.67-17.61-8.95,0,0-14.8-6.19-15.75-20.65,0,0-4.73-8.78-2.52-17.3,2.21-8.52,5.03-31.52,5.03-31.52l5.4-5.75-.96,24.49s10.47,3.09,13.28,7.31c2.81,4.22,9.61,5.58,12.84,9.32,0,0,11.17,2.1,16.67,5.44,0,0,9.01-.48,12.13,3.35Z"/><path class="cls-9" d="M461.45,397.25s-3.45-.27-8.7-2.33c-6-2.36-9.84-4.37-9.84-4.37,0,0,.91,6.03,6.98,8.52,6.07,2.5,11.57-1.82,11.57-1.82Z"/></g><g><path class="cls-9" d="M367.81,589c0,3.61-5.22,43.84-6.62,46.65-1.4,2.81-10.23,5.26-17.97,4.41-11.05-1.21-13.19-4.61-14.57-6.42-1.38-1.81-5.49-44.25-4.49-47.26,1-3.01,11.71-6.7,27.28-5.1,15.02,1.55,16.36,4.72,16.35,7.71Z"/><path class="cls-9" d="M321.08,622.13c-2.85-2.5-4.7-6.05-5.22-10.01h0c-1.09-8.28,4.06-15.8,11.47-16.78,7.42-.97,14.33,4.97,15.42,13.25,.52,3.96-.35,7.87-2.46,11.01-2.17,3.24-5.37,5.29-9.02,5.77-.54,.07-1.08,.11-1.62,.11-3.09,0-6.08-1.16-8.58-3.35Zm6.84-22.29c-4.94,.65-8.33,5.9-7.57,11.7h0c.38,2.86,1.69,5.42,3.71,7.19,1.93,1.7,4.29,2.46,6.62,2.15,2.33-.31,4.41-1.65,5.84-3.79,1.49-2.23,2.11-5.04,1.73-7.9-.71-5.4-4.78-9.41-9.33-9.41-.33,0-.67,.02-1.01,.07Z"/><path class="cls-16" d="M364.54,587.11c0-1.46-7.44-4.22-18.39-4.22-10.95,0-18.88,2.76-18.88,4.22,0,1.46,7.18,4.22,18.13,4.22,10.95,0,19.14-2.76,19.14-4.22Z"/><g><path class="cls-10" d="M302.36,532.47c.12,4.03,2.66,7.43,6.15,9.25,4.49,2.35,9.36,3.42,13.63,6.34,2.91,1.99,5.47,4.39,7.68,7.09-.03,0-.05-.02-.08-.03-2.78-.87-7.13-1.01-6.92,2.98,.3,5.64,8.09,6.65,11.47,9.58,4.99,4.34,7.29,11.96,9.97,17.79,.33,.71,1.4,.32,1.41-.38,.08-7.17-3-17.14-6.74-23.21-1.67-2.72-4.25-4.67-6.13-7.22-1.89-2.54-2.79-5.55-4.15-8.37-3.79-7.85-12.07-17.86-21.52-18.61-3.3-.26-4.86,1.61-4.76,4.81Z"/><path class="cls-10" d="M333.35,542.3c-.43,1.43,.62,2.84,1.59,3.96,2.85,3.29,4.81,6.31,6.66,10.29,2.97,6.37,8.37,2.28,6.12-3.22-1.8-4.39-5.83-12.78-11.44-12.89-.53-.01-1.07,.11-1.55,.34-.65,.31-1.18,.84-1.39,1.52Z"/></g></g><g><rect class="cls-6" x="804.32" y="358.9" width="47.81" height="31.06" rx="1.18" ry="1.18" transform="translate(1656.46 748.87) rotate(-180)"/><path class="cls-8" d="M804.32,358.9h47.81v8.58c0,.65-.53,1.18-1.18,1.18h-45.45c-.65,0-1.18-.53-1.18-1.18v-8.58h0Z" transform="translate(1656.46 727.56) rotate(-180)"/><rect class="cls-15" x="808.49" y="371.66" width="39.49" height="2.19" transform="translate(1656.46 745.51) rotate(-180)"/><rect class="cls-15" x="826.59" y="375.79" width="21.39" height="2.19" transform="translate(1674.57 753.77) rotate(-180)"/><rect class="cls-15" x="808.49" y="384.47" width="39.49" height="2.19" transform="translate(1656.46 771.13) rotate(-180)"/></g><g><path class="cls-32" d="M642.92,596.96l-4.43-4.25c-1.07-1.03-1.57-2.52-1.34-3.99l31.5-196.6c.34-2.15,2.17-3.75,4.35-3.81l283.07-8.04c.85-.02,1.69,.19,2.42,.62l10.08,5.91-325.64,210.15Z"/><path class="cls-33" d="M922.41,583.12l-279.5,13.84,33.79-202.01,291.86-8.14-41.94,192.75c-.44,2-2.16,3.46-4.2,3.56Z"/><path class="cls-33" d="M771.72,627.22h39.38l9.06-96.76h-39.38l-9.06,96.76Zm14.92-19.36l3.75-42.56c.27-3.05,2.84-5.33,5.85-5.33,.17,0,.33,0,.5,.01,3.22,.29,5.6,3.13,5.32,6.34l-3.75,42.58c-.29,3.22-3.13,5.59-6.34,5.3-3.22-.27-5.6-3.11-5.32-6.34Z"/><polygon class="cls-33" points="865.46 633.38 827.19 616.88 718.12 621.36 745.31 637.4 865.46 633.38"/><path class="cls-32" d="M775.48,587.85c.39,0,.71-.29,.75-.68l5.24-55.95h37.86l-5.12,54.7c-.04,.42,.27,.78,.68,.82,.41,.03,.78-.27,.82-.68l5.2-55.52c.02-.21-.05-.42-.19-.58-.14-.16-.35-.25-.56-.25h-39.38c-.39,0-.72,.3-.75,.68l-5.3,56.63c-.04,.42,.27,.78,.68,.82,.02,0,.05,0,.07,0Z"/><path class="cls-32" d="M745.3,554.78s.02,0,.03,0l33.2-1.47c.42-.02,.74-.37,.72-.79-.02-.42-.4-.78-.79-.72l-32.28,1.43,7.03-46.3,100.45-3.68-7.84,45.94-27.62,1.03c-.42,.02-.74,.37-.73,.78,.01,.42,.36,.71,.78,.73l28.23-1.05c.36-.01,.66-.28,.72-.63l8.1-47.46c.04-.22-.03-.45-.18-.62-.15-.17-.36-.26-.6-.26l-102.01,3.73c-.36,.01-.67,.28-.72,.64l-7.26,47.83c-.03,.22,.03,.45,.18,.62,.14,.16,.35,.25,.56,.25Z"/><path class="cls-32" d="M896.27,402.2h.03l54.75-1.89c.42-.01,.74-.36,.73-.78-.01-.41-.36-.72-.78-.73l-54.75,1.89c-.42,.01-.74,.36-.73,.78,.01,.41,.35,.73,.75,.73Z"/><path class="cls-32" d="M894.76,409.75h.03l54.75-1.89c.42-.01,.74-.36,.73-.78-.01-.42-.37-.68-.78-.73l-54.75,1.89c-.42,.01-.74,.36-.73,.78,.01,.41,.35,.73,.75,.73Z"/><path class="cls-32" d="M893.25,417.3h.03l54.75-1.89c.42-.01,.74-.36,.73-.78-.01-.41-.38-.72-.78-.73l-54.75,1.89c-.42,.01-.74,.36-.73,.78,.01,.41,.35,.73,.75,.73Z"/><path class="cls-32" d="M891.74,424.85h.03l54.75-1.89c.42-.01,.74-.36,.73-.78-.01-.42-.38-.68-.78-.73l-54.75,1.89c-.42,.01-.74,.36-.73,.78,.01,.41,.35,.73,.75,.73Z"/><path class="cls-32" d="M888.71,439.96h.03l54.75-1.89c.42-.01,.74-.36,.73-.78-.01-.42-.36-.69-.78-.73l-54.75,1.89c-.42,.01-.74,.36-.73,.78,.01,.41,.35,.73,.75,.73Z"/><path class="cls-32" d="M887.2,447.51h.03l54.75-1.89c.42-.01,.74-.36,.73-.78-.01-.41-.37-.72-.78-.73l-54.75,1.89c-.42,.01-.74,.36-.73,.78,.01,.41,.35,.73,.75,.73Z"/><path class="cls-32" d="M890.23,432.41h.03l54.75-1.89c.42-.01,.74-.36,.73-.78-.01-.41-.39-.72-.78-.73l-54.75,1.89c-.42,.01-.74,.36-.73,.78,.01,.41,.35,.73,.75,.73Z"/><path class="cls-32" d="M875.18,574.11c-1.24-1.41-1.77-3.28-1.45-5.14,.49-2.86,2.95-5.04,5.85-5.17l30.77-1.39c1.87-.1,3.68,.68,4.93,2.08,1.25,1.41,1.79,3.29,1.48,5.14l-.05,.28h0c-.48,2.9-2.97,5.08-5.91,5.19l-30.73,1.11c-.08,0-.15,0-.23,0-1.79,0-3.48-.76-4.67-2.12Zm40.09-4.71c.23-1.41-.17-2.83-1.12-3.89-.95-1.07-2.31-1.63-3.73-1.58l-30.77,1.39c-2.2,.1-4.06,1.75-4.43,3.91-.24,1.4,.16,2.82,1.1,3.89,.94,1.07,2.29,1.68,3.71,1.6l30.73-1.11c2.22-.08,4.1-1.73,4.47-3.93l.05-.28Z"/><path class="cls-32" d="M682.8,412.5c-.15-.17-.21-.39-.18-.61l1.42-8.99c.06-.36,.36-.63,.73-.64l50.72-1.1c.22-.01,.47,.1,.61,.29,.15,.19,.2,.43,.13,.66l-2.57,9.43c-.09,.32-.38,.55-.72,.56l-49.57,.67h-.01c-.22,0-.43-.09-.57-.26Zm51.71-9.81l-49.08,1.07-1.18,7.49,48.1-.65,2.15-7.9Z"/></g></g></g></g></g></svg>