<?xml version="1.0" encoding="UTF-8"?><svg xmlns="http://www.w3.org/2000/svg" xmlns:xlink="http://www.w3.org/1999/xlink" viewBox="0 0 1142 794.09"><defs><style>.cls-1,.cls-2,.cls-3,.cls-4,.cls-5,.cls-6{fill:none;}.cls-2,.cls-7,.cls-8,.cls-9,.cls-10,.cls-11,.cls-12,.cls-13,.cls-14,.cls-3,.cls-4,.cls-15,.cls-16,.cls-5,.cls-6{stroke-miterlimit:10;}.cls-2,.cls-16{stroke:#5b5a5a;stroke-width:6px;}.cls-17{clip-path:url(#clippath);}.cls-7,.cls-11,.cls-3{stroke:#000;}.cls-18{fill:#f2f2f2;}.cls-19{fill:#005587;}.cls-20{fill:#046596;}.cls-21{fill:#00abab;}.cls-22{fill:#0076a8;}.cls-23{fill:#009245;}.cls-24{fill:#6b3939;}.cls-25{fill:#f2835e;}.cls-26{fill:#f27b61;}.cls-27{fill:#e3e48d;}.cls-28{fill:#edeeef;}.cls-29{fill:#ede0da;}.cls-30,.cls-8,.cls-11,.cls-12,.cls-31{fill:#fff;}.cls-32{fill:#ffd791;}.cls-33{fill:#fea689;}.cls-34{fill:#b3b3b3;}.cls-35{fill:#666;}.cls-36{fill:#324366;}.cls-37{fill:#333;}.cls-38{fill:#8e4129;}.cls-39,.cls-40{fill:#8cc63f;}.cls-41{fill:#b2afad;}.cls-42{fill:#c4d600;}.cls-43{fill:#de684e;}.cls-44{fill:#ad512d;}.cls-45{fill:#d2e7f7;}.cls-46{fill:#daf7ff;}.cls-47{fill:#252730;}.cls-48{fill:#355389;}.cls-49{fill:#71a699;}.cls-50{fill:#878484;}.cls-51{fill:#86bc25;}.cls-52{fill:gray;}.cls-53{fill:#5b6d92;}.cls-54{fill:#26a7df;}.cls-55{fill:#63666a;}.cls-56{fill:#4a4747;}.cls-57{fill:#485a7e;}.cls-58{fill:#47586a;}.cls-59{fill:#354867;}.cls-60{fill:#4c4f51;}.cls-61{fill:#797a7a;}.cls-8,.cls-9,.cls-14{stroke:#97999b;}.cls-8,.cls-9,.cls-14,.cls-15{stroke-width:.25px;}.cls-62{clip-path:url(#clippath-1);}.cls-63{clip-path:url(#clippath-4);}.cls-64{clip-path:url(#clippath-3);}.cls-9,.cls-15{fill:#97999b;}.cls-10{stroke:#a67c52;}.cls-10,.cls-13{fill:#8c6239;}.cls-12,.cls-15{stroke:#fff;}.cls-13{stroke:#8c6239;}.cls-65{fill:#0097a9;opacity:.19;}.cls-66{mix-blend-mode:screen;}.cls-4{stroke:#324366;}.cls-67{opacity:.2;}.cls-68{opacity:.35;}.cls-15{opacity:.26;}.cls-69{isolation:isolate;}.cls-16{fill:#797a7b;}.cls-5{opacity:.41;stroke:#ccc;stroke-width:5px;}.cls-70{fill:#6fc2b4;}.cls-70,.cls-40{opacity:.4;}.cls-31{opacity:.39;}.cls-71{fill:#9dd4cf;opacity:.38;}.cls-6{stroke:#e6e6e6;stroke-width:.5px;}</style><clipPath id="clippath"><rect class="cls-1" width="1142" height="790"/></clipPath><clipPath id="clippath-1"><path class="cls-59" d="M498.3,258.28h-166.72l-.98,56.49-29.36-56.49h-47.12c-14.35,0-25.99-11.63-25.99-25.99V50.99c0-14.35,11.63-25.99,25.99-25.99h244.19c14.35,0,25.99,11.63,25.99,25.99V232.29c0,14.35-11.63,25.99-25.99,25.99Z"/></clipPath><clipPath id="clippath-3"><rect class="cls-1" x="794.54" y="49.68" width="101.31" height="209.36" rx="12" ry="12"/></clipPath><clipPath id="clippath-4"><path class="cls-61" d="M893.11,792.9H258.68c-24.6,0-44.54-19.94-44.54-44.54V358.9c0-24.6,19.94-44.54,44.54-44.54H893.11c24.6,0,44.54,19.94,44.54,44.54v389.46c0,24.6-19.94,44.54-44.54,44.54Z"/></clipPath></defs><g class="cls-69"><g id="Layer_2"><g id="Layer_1-2"><g class="cls-17"><g><g><path class="cls-59" d="M498.3,258.28h-166.72l-.98,56.49-29.36-56.49h-47.12c-14.35,0-25.99-11.63-25.99-25.99V50.99c0-14.35,11.63-25.99,25.99-25.99h244.19c14.35,0,25.99,11.63,25.99,25.99V232.29c0,14.35-11.63,25.99-25.99,25.99Z"/><g class="cls-62"><path class="cls-22" d="M500.85,282.98c-3.61,8.02-159.5,7.71-164.72,0-5.22-7.71-1.79-141.11-2.32-169.7-.53-28.6,165.85-23.67,166.33-4.24,.48,19.43,4.32,165.92,.71,173.95Z"/><path class="cls-56" d="M339.24,112.66c-.16,0-.32-.09-.4-.24-.12-.22-.04-.51,.18-.63,.16-.09,15.92-8.74,38.58-11.64,23.29-2.98,60.64-2.27,81.88,.09,21.34,2.37,35.62,8.31,35.77,8.37,.24,.1,.35,.37,.25,.61-.1,.23-.37,.34-.61,.25-.14-.06-14.31-5.94-35.51-8.3-21.19-2.35-58.43-3.06-81.66-.09-22.49,2.87-38.09,11.44-38.25,11.53-.07,.04-.15,.06-.23,.06Z"/><path class="cls-33" d="M296.07,153.77l-18.51,3.47s.46,27.08,0,30.32c-.46,3.24,29.85,0,29.85,0l-11.34-33.79Z"/><path class="cls-44" d="M285.93,168.69c0-5.43-4.33-18.03-8.38-31.6-5.35-17.94-12.26-41.2-12.26-41.2l-13.88,2.79s4.17,81.24,10.65,86.57c6.48,5.32,30.09,3.54,30.09,3.54l-6.2-20.09Z"/><path class="cls-44" d="M271.78,78.21c-.75-1.77-3.03-4.37-5.29-4.21,0-.97-1.07-1.95-1.63-2.62-1.96-2.35-4.17-4.79-7.05-6.01-2.3-.96-4.73-.48-5.26,2.25-.33,1.75,.13,3.77,.34,5.51,0,.09,.03,.19,.04,.3-.24,.05-.49,.08-.73,.13-1.16-3.42-2.08-6.91-2.67-10.5-.29-1.73-.12-7.39-2.59-7.91-1.45-.31-2.18,2.44-2.21,3.55-.05,1.68,.41,3.32,.64,4.98,.51,3.67,1.43,7.27,2.44,10.84-.13,.04-.25,.08-.37,.12-1.56-3.4-2.71-6.85-3.72-10.47-.44-1.56-.92-4.22-2.78-4.74-1.17-.33-1.45,.12-1.64,1.22-.34,1.97,.56,4.49,1.17,6.36,.95,3,2.08,5.94,3.23,8.89l-3.51-6.78c-.6-1.17-1.69-3.98-3.49-2.83-.06,.04-.1,.07-.15,.11-.84,.71-.61,2.24-.43,3.17,.53,2.67,2.04,5.02,3.19,7.43,1.68,3.53,12.08,22.62,12.08,22.62,0,0,.02,0,.05,0,.48,.13,4.61,1.22,7.6,.9,2.1-.22,5.15-.36,6.79-1.84,.08-.07,.19-.2,.31-.37,1.88-2.58,7.62-15.43,5.63-20.11Zm-8.23,5.2s-3.92-6.16-5.28-11.22c-.17-.61-.78-2.08-1.04-3.23,.89,.78,1.35,1.88,2.16,2.73,.58,.61,1.3,1.1,2.01,1.56,1.43,.92,2.97,1.56,4.58,2.03,0,.06,0,.11,0,.18,.25,1.64,1.44,3.51,2.33,5.13-2.83,1.49-4.78,2.83-4.78,2.83Z"/><path d="M452.82,68.39c-.38-2.6-1.5-4.37-1.22-7.15,.21-2.13,.71-4.06,.5-6.22-.32-3.27-1.67-6.21-3.44-8.81-.06-2.06-.9-4.01-2.43-5.3-.99-.83-1.95-.96-3.07-1.45-2.16-.97-2.02-2.15-3.5-3.49-2.63-2.35-5.97-1.87-9.06-2.28-1.83-.24-3.5-1.35-5.28-1.91-1.6-.51-3.26-.81-4.91-.99-7.59-.82-14.95,1.92-20.49,7.73-1.91,2.02-3.66,4.4-4.9,6.99-.61,1.28-.82,2.35-.98,3.76-.16,1.45,0,2.78-.77,4.11-.36,.62-.86,1.13-1.26,1.72-1.5,2.19-2.33,4.84-2.37,7.59-.02,1.46,.27,2.72,.56,4.13,.53,2.45,.1,4.38-.32,6.76-.44,2.44-.13,4.43,1.29,6.41l.03,.03c-.03,.13,0,.25,.07,.39,.2,.35,.41,.68,.64,1.02,1.04,1.67,2.21,3.19,3.45,4.61,.63,1.21,1.15,2.53,1.45,4.12,.14,.74,1.17,.42,1.03-.32-.11-.55-.24-1.08-.39-1.62,.1,.09,.19,.18,.29,.26,.9,.84,1.82,1.62,2.8,2.33,2.75,2.08,5.77,3.67,8.95,4.76,5.16,1.79,10.76,2.27,16.39,1.39,1.86-.29,3.79-.66,5.73-1.15,3.52-.86,7.05-2.09,10.22-3.93,1.06-.59,2.07-1.26,3.03-2.01,.7-.54,1.37-1.11,2-1.73,2.18-2.12,2.9-4.22,2.87-7.3,0-.8,.06-1.49,.19-2.14,.22-1.02,.62-1.93,1.2-2.96,.46-.8,.86-1.64,1.17-2.52,.53-1.56,.78-3.19,.54-4.84Z"/><path d="M454.17,121.81c-.33-1.47-1.37-2.81-1.82-4.29-.31-.99-.48-1.36-1.21-2.12-1.74-1.82-1.36-3.71-1.56-6.04-.16-1.8-.82-3.16-1.56-4.49-.7-1.29-1.48-2.55-1.92-4.14-.09-.32-.2-.73-.34-1.19-.19-.65-.4-1.39-.64-2.15-.03-.1-.06-.19-.08-.3-.27-.84-.54-1.68-.8-2.4-.07-.23-.16-.44-.23-.64-.09-.25-.19-.48-.27-.68-.22-.52-.47-.68-.76-.72-.15-.03-.31-.02-.49,0-.41,.02-.87,.03-1.38-.49-.21-.21-.47-.17-.65-.02-.2,.17-.29,.47-.06,.71h0c.11,.12,.2,.23,.31,.33-.02,0-.03,0-.05,0-.09,0-.18,0-.27,.02-1.26,.06-2.49,.19-3.71,.44-1.58,.31-3.13,.77-4.63,1.41-1.58,.68-3.05,1.7-4.74,2.11-2.08,.5-4.4,.51-6.54,.63-6.25,.34-11.97-2.1-17.65-4.47-.63-.26-1.26-.52-1.88-.77-.21-.09-.43-.18-.64-.26,.19-.13,.38-.26,.56-.38,.02-.02,.05-.03,.06-.05,.43-.29,.19-.9-.19-.93h0c-.09-.02-.2,0-.31,.07-.55,.37-1.12,.76-1.68,1.18-.09,.06-.19,.14-.29,.21-.32,.25-.65,.51-.96,.79-.14,.12-.27,.24-.41,.36-.17,.17-.34,.33-.51,.51-1.05,1.09-1.87,2.35-2.19,3.85-.08,.42-.13,.84-.15,1.27-.06,1.1,.06,2.22,.04,3.32-.05,2.59-.9,4.16-2.8,5.83-2.35,2.06-3.54,3.3-3.85,6.44-.23,2.34-1.82,3.05-2.81,4.89-.56,1.05-.97,2.83-.83,4.02,.04,.3,.12,.51,.25,.67,.44,.56,1.37,.39,2.15,.34,1.53-.1,2.02-.19,2.7,1.2,.02,.02,.03,.05,.04,.06,.31,.66,1.12,.95,1.85,.88,1.28-.14,2.31-.94,3.55-1.22,1.77-.38,3.88,.1,5.44,.95,.18,.09,.33,.2,.48,.31,1.31,1.01,1.67,2.64,3.47,2.83,.14,.02,.28,.03,.42,.04,3.71,.36,7.65-.02,11.38-.04,3.84,0,7.78,.24,11.61-.14,3.51-.34,6.35-2.54,9.88-2.55h.28c1,.03,2.02,.17,3.04,.2,.68,.04,1.35,.03,2.02-.08,1.86-.3,3.22-1.61,5.15-1.67,.55-.02,1.15,0,1.74,0,1.4,0,2.83-.1,3.81-1.16,.08-.09,.17-.19,.24-.3,.49-.67,.59-1.44,.41-2.23Z"/><path class="cls-44" d="M404.99,101.78s.17,11.92-1.32,17.22c-1.49,5.3-5.79,14.24-5.79,14.24l23.77,67.09,22.09-65.77s-4.97-11.42-5.96-17.72c-.99-6.29-1.16-19.7-1.16-19.7l-31.62,4.64Z"/><path class="cls-38" d="M404.94,106.81s.55,4.15,2.86,6.06c2.32,1.9,12.68,7.86,16.65,5.88,3.96-1.99,6.55-3.64,8.15-4.64,1.61-.99,4.31-7.32,4.31-7.32,0,0-3.03-5.43-5.19-5.1-2.15,.33-15.23,3.31-20.94,3.64-5.71,.33-5.85,1.48-5.85,1.48Z"/><path class="cls-44" d="M396.17,60.03c-.19,.69-.31,1.39-.37,2.11-.75,9.25,.68,17.01,2.48,26.08,1.58,7.93,2.32,14.07,7.95,19.87,4.69,4.83,10.64,8.28,17.47,7.12,6.71-1.14,12.42-6.16,15.5-11.93,4.6-8.61,4.76-16.76,5.34-26.37,.43-7.27,1.19-17.3-3.3-23.59-5.85-8.19-21.66-8.86-30.52-6.55-6.53,1.71-12.67,6.4-14.54,13.27Z"/><path class="cls-47" d="M431.21,80.56c-.5-.16-.96-.43-1.28-.84-.14-.18-.24-.4-.19-.62,.09-.41,.64-.37,1.06-.31,.72,.1,1.31-.72,2.04-.7,.77,.02,1.55,.81,2.3,.75,.5-.04,1.09,.28,.66,.78-.33,.39-.84,.64-1.3,.85-.19,.09-.38,.18-.58,.22-.75,.16-1.54,.16-2.3,0-.14-.03-.28-.07-.41-.11Z"/><path class="cls-47" d="M411.06,80.81c.5-.16,.96-.43,1.28-.84,.14-.18,.24-.4,.19-.62-.09-.41-.64-.37-1.06-.31-.72,.1-.78-.97-1.51-.95-.77,.02-2.08,1.06-2.83,1-.5-.04-1.09,.28-.66,.78,.33,.39,.84,.64,1.3,.85,.19,.09,.38,.18,.58,.22,.75,.16,1.54,.16,2.3,0,.14-.03,.28-.07,.41-.11Z"/><path class="cls-30" d="M413.97,97.97s2.36,.69,7.24,.69,8.1-1.06,8.1-1.06c0,0-1.42,3.98-7.05,4.33-5.63,.35-8.29-3.96-8.29-3.96Z"/><path d="M420.8,93.81c-.19,0-.37-.12-.44-.32-.08-.24,.05-.5,.29-.59,1.23-.41,3.23-1.41,3.33-2.34,.13-1.23-1.32-8.14-1.9-10.69-.06-.25,.1-.5,.35-.55,.26-.05,.5,.1,.55,.35,.21,.96,2.08,9.39,1.91,10.99-.19,1.82-3.57,2.99-3.96,3.12-.05,.02-.1,.02-.15,.02Z"/><path d="M415.1,72.01c-.28-.29-.69-.55-1.09-.72-2.21-.93-4.76-.72-7.02-.05-.68,.2-5.21,1.73-3.14,2.87,.99,.54,2.29,.29,3.34,.07,1.38-.29,2.76-.44,4.18-.33,1.04,.08,2.2,.31,3.2-.09,1.19-.48,1.08-1.18,.53-1.75Z"/><path d="M428.18,72.01c.28-.29,.69-.55,1.09-.72,2.21-.93,4.76-.72,7.02-.05,.68,.2,5.21,1.73,3.14,2.87-.99,.54-2.29,.29-3.34,.07-1.38-.29-2.76-.44-4.18-.33-1.04,.08-2.2,.31-3.2-.09-1.19-.48-1.08-1.18-.53-1.75Z"/><path class="cls-44" d="M442.9,77.62s3.73-2.65,5.71,.75c1.99,3.39-.8,9.62-3.23,12-2.43,2.38-4.55,3.23-4.97,2.98-.41-.25,2.48-15.73,2.48-15.73Z"/><path class="cls-44" d="M398.75,77.62s-3.73-2.65-5.71,.75c-1.99,3.39,.8,9.62,3.23,12,2.43,2.38,4.55,3.23,4.97,2.98,.41-.25-2.48-15.73-2.48-15.73Z"/><path d="M443.35,54.97c-3.48-7.11-9.92-10.99-17.77-11.02-4.75-.03-9.63,.59-14.27,1.57-3.74,.78-7.48,2.07-10.4,4.62-3.02,2.64-4.13,6.11-5,9.9-1.05,4.63-1.96,9.27-1.53,14.01-.05-.03-.08-.06-.14-.07-.57-.26-1.08,.6-.5,.86,.88,.39,1.36,1.11,1.86,1.8,.23,.33,.48,.66,.78,.92,.18,.16,.36,.3,.58,.4,.68,.32,1.22,.13,1.77-.36,.02-.02,.05-.04,.06-.06,2.05-1.9,1.14-5.96,.8-8.32-.69-4.66-.5-10.36,4.31-12.57,2.85-1.31,4.91-3.67,7.44-5.38,2.39-.68,4.94-.71,7.48-.26,1.8,.33,3.21,.63,5.06,.43,2.24-.23,4.18-.39,6.38,.27,2.86,.84,7.87,2.15,8.9,5.27,.39,1.2,.54,2.53,.95,3.76,.5,1.44,1.04,2.88,1.58,4.31,.15,2.05,.3,4.12,.44,6.17,.15,1.91-.22,4.78,.7,6.65,.14,.27,.3,.52,.49,.74,.2,.23,.65,.17,.79-.1,.13-.26,.25-.52,.37-.79,.15-.32,.28-.65,.41-.98,2.62-6.85,1.62-15.32-1.55-21.77Z"/><path class="cls-21" d="M491.66,134.25c-1.49-1.74-34.8-9.21-47.79-12.07-1.95-.43-3.89,.3-5.09,1.73,1.61,.98,2.75,2.78,2.31,5.12-1.25,6.63-2.65,15.75-6.65,22.07-.19,1.18-.88,2.3-2.24,3.1-.12,.07-.25,.15-.38,.22-2.73,2.69-6.33,4.3-11.19,4-.11,0-.22-.02-.33-.03-4.01,.36-7.88-.6-10.62-4.09-.73-.93-1.21-2.03-1.31-3.13-.4-.7-.75-1.44-1.04-2.23-1.15-3.13-1.32-6.44-1.94-9.68-.83-4.37-2.38-8.57-3.18-12.95-.2-1.11-.05-2.11,.34-2.95-1.14-1.18-2.83-1.81-4.57-1.53-6.49,1.04-17.35,2.97-20.79,4.71-5.02,2.53-30.55,4.32-33.32,12.03-2.25,6.24,1.27,56.37,5.58,72.31,3.69,13.62,5.06,21.88,3.79,34.84-1.09,11.1,4.01,26.64,6.49,33.39,.75,2.03,2.66,3.37,4.82,3.39l108.52,1.14c.91,0,1.78-.22,2.56-.65-1.02,3.36-1.29,4.64,.07,.67,.1-.3,.24-.62,.37-.94,.49-.34,.93-.76,1.29-1.27,1.34-1.9,3.22-4.87,4.62-8.22,11.55-15.66,33.94-39.07,33.46-48.34-.62-11.73-21.92-88.5-23.77-90.66Z"/><path class="cls-21" d="M379.36,125.69s-17.56,3.79-18.14,3.86c-5.27,.64-10.36,1.16-15.12,3.67-3.15,1.66-6.09,3.7-9.28,5.26-4.69,2.3-10.03,2.16-14.57,4.29-3.97,1.87-7.16,5.48-11.65,6.12-6.48,.93-16.89,3.24-17.82,4.86s6.94,46.28,8.33,47.67,9.95-2.78,14.58-1.39c4.63,1.39,3.47,3.7,11.8,2.89,8.33-.81,8.56,.04,16.66,3.2,8.1,3.16,10.88,7.79,21.06,4.32,10.18-3.47,13.65-8.1,13.65-9.49s.5-75.28,.5-75.28Z"/><path d="M256.93,89.76c-.08,0-.17-.02-.24-.07-.22-.13-.29-.42-.15-.64,0-.01,.79-1.29,1.95-2.9,1.23-1.72,4.05-2.68,4.16-2.72,.24-.08,.5,.05,.59,.29,.08,.24-.05,.5-.29,.59-.03,0-2.65,.9-3.7,2.38-1.13,1.59-1.9,2.83-1.91,2.85-.09,.14-.24,.22-.39,.22Z"/><rect class="cls-34" x="355.74" y="181.31" width="124.04" height="82.79" rx="1" ry="1"/><path class="cls-30" d="M417.76,219.61c-5.73,0-11.83-1.47-11.83-4.19s6.1-4.19,11.83-4.19,11.83,1.47,11.83,4.19-6.1,4.19-11.83,4.19Zm0-7.46c-6.43,0-10.9,1.72-10.9,3.27s4.48,3.27,10.9,3.27,10.91-1.72,10.91-3.27-4.48-3.27-10.91-3.27Z"/><path class="cls-47" d="M307.4,199.13c-.23,0-.42-.17-.46-.4-.02-.13-1.89-13.31-2.58-22.25-.68-8.87-4.8-22.44-4.84-22.58-.07-.24,.06-.5,.31-.58,.24-.07,.5,.06,.58,.31,.04,.14,4.19,13.81,4.88,22.78,.69,8.91,2.55,22.05,2.57,22.19,.04,.25-.14,.49-.39,.52-.02,0-.04,0-.07,0Z"/><path class="cls-47" d="M339.42,173.9c-.17,0-.34-.1-.42-.27l-12.83-27.77c-.11-.23,0-.51,.23-.61,.23-.11,.51,0,.61,.23l12.83,27.77c.11,.23,0,.51-.23,.61-.06,.03-.13,.04-.19,.04Z"/><g><rect class="cls-11" x="261.65" y="72.63" width="84.07" height="117.55"/><g id="_"><path class="cls-40" d="M293.6,160.02v-.22l-.04-.26-.08-.65c-.01-.07-.02-.14-.03-.21-.04-.2-.08-.4-.13-.6v-.06l-.14-.48-.04-.13-.23-.67-.11-.26-.27-.61-.06-.12s0-.03-.02-.04c-.23-.45-.48-.88-.77-1.29-.06-.08-.12-.16-.18-.24l-.13-.18-.18-.22-.15-.18,.03,.12-.03-.12-.05-.06-.02-.03-.19-.21-.18-.2s-.01-.02-.02-.03c-.36-.37-.74-.71-1.14-1.03-.45-.35-.93-.67-1.44-.95-.17-.09-.35-.18-.52-.26l-.33-.15-.37-.15-.15-.06-.03-.02-.12-.04-.13-.05h-.04l-.35-.13-.13-.04c-.2-.05-.39-.11-.59-.16-.7-.17-1.4-.26-2.12-.28-.03,0-.07,0-.1,0h-.54l-.28,.02c-.13,0-.27,0-.4,.03-.32,.04-.64,.09-.97,.13l-.38,.08-.07,.02s-.02,0-.03,0c-.42,.09-.83,.22-1.24,.36-.2,.07-.39,.15-.58,.23h-.02c-.22,.11-.45,.21-.67,.32-.01,0-.02,.02-.03,.04-.04,.01-.07,.02-.11,.03-.04,.02-.08,.05-.12,.07-.03,.01-.05,.03-.08,.04h0s-.04,.02-.06,.03c-.23,.14-.47,.28-.7,.43-.21,.14-.4,.29-.6,.43l-.09,.07-.08,.07-.3,.25c-.09,.08-.19,.16-.28,.25-.26,.27-.52,.54-.79,.81h0l-.41,.5-.3,.4c-.1,.15-.2,.29-.29,.44-.12,.19-.23,.39-.34,.59l-.2,.39-.1,.21-.3,.71h0l-.13,.37c-.05,.16-.11,.32-.16,.49-.04,.13-.07,.26-.1,.39,0,.02-.01,.04-.02,.06-.04,.21-.09,.41-.13,.62-.03,.15-.05,.3-.07,.46l-.04,.32v.07s-.02,.09-.02,.13c-.01,.2-.03,.39-.04,.59v.67s0,.07,0,.1c0,.06,0,.12,.01,.17,0-.04,0-.07,0-.11,0,.04,0,.07,0,.11h0l.02,.37v.13l.03,.13,.08,.64v.08h.01l.02,.11,.02,.11v.07l.11,.43c.13,.57,.32,1.11,.55,1.65,.09,.2,.18,.4,.27,.59l.15,.29,.13,.24,.1,.16,.33,.52,.09,.13h0l.07,.11,.02,.03c.09,.12,.18,.25,.27,.37,.21,.25,.42,.49,.63,.74l.14,.14h0l.08,.08s.04,.04,.06,.06c.38,.38,.79,.73,1.23,1.05,.13,.1,.27,.19,.41,.28l.39,.25,.13,.08,.14,.08,.07,.04,.34,.18,.08,.04,.09,.05,.05-.05h0l-.05,.05,.75,.33c.13,.05,.26,.1,.39,.15,.22,.07,.45,.14,.67,.21l.56,.14s.02,0,.03,.01c.66,.14,1.33,.23,2.01,.25h.64c.17,0,.34-.02,.5-.03,.1,0,.19-.02,.29-.03l.31-.04,.36-.05,.09-.02,.37-.07,.16-.04,.19-.05,.47-.13,.15-.05,.16-.05,.09-.03v0l.31-.11h.02l.27-.12,.08-.04,.14-.06,.11-.05h0l.11-.05c.06-.03,.12-.05,.18-.08,.27-.14,.53-.28,.8-.43,.02-.01,.04-.04,.06-.05,.04-.02,.08-.04,.12-.06l.04-.03,.2-.13,.13-.08,.06-.04,.26-.18,.11-.08h0l.55-.44,.34-.31,.16-.15,.07-.06,.03-.03,.22-.22h0s.06-.06,.09-.09c.08-.09,.17-.18,.25-.28,.18-.23,.36-.46,.55-.69l.42-.61,.15-.24,.09-.15,.04-.07,.03-.05,.05-.08,.08-.15,.21-.41,.1-.21s-.01,0-.02,0c0,0,.01,0,.02,0l.12-.28,.13-.33c.03-.09,.07-.17,.1-.26,.08-.25,.16-.51,.23-.76h0l.23-1.09,.04-.28,.07-.59c0-.06,0-.12,0-.18,0-.12,.02-.24,.02-.36v-.89Z"/><path class="cls-51" d="M328.18,132.77l-.03-.52v-.06l-.06-.68c-.07-.56-.14-1.13-.22-1.69-.03-.18-.05-.36-.09-.54-.11-.52-.22-1.04-.33-1.56l-.03-.15-.34-1.26-.1-.34c-.2-.59-.41-1.17-.61-1.76l-.28-.67c-.24-.53-.47-1.07-.71-1.6l-.16-.3s-.02-.08-.04-.11c-.59-1.18-1.26-2.3-2.02-3.38-.15-.21-.31-.42-.47-.63l-.34-.46-.46-.59-.4-.47,.09,.32-.09-.32-.12-.15-.06-.07-.49-.55-.47-.51s-.04-.05-.06-.07c-.93-.96-1.92-1.86-2.98-2.68-1.19-.92-2.44-1.75-3.76-2.47-.44-.24-.9-.46-1.35-.69l-.86-.4-.96-.4-.4-.15-.09-.04-.31-.11-.34-.13-.09-.03-.92-.31-.34-.1c-.51-.14-1.02-.29-1.54-.41-1.82-.43-3.66-.68-5.53-.73-.09,0-.17-.02-.26-.03h-1.35l-.06,.03-.74,.03c-.35,.02-.7,.02-1.04,.07-.84,.1-1.69,.23-2.53,.34l-.98,.2-.19,.04s-.06,0-.09,.01c-1.1,.25-2.17,.57-3.23,.95-.51,.18-1.01,.4-1.52,.6-.01,0-.03,0-.04,.01-.58,.27-1.17,.55-1.75,.82-.04,.02-.06,.06-.09,.1-.1,.03-.2,.05-.29,.09-.11,.05-.2,.12-.31,.18-.07,.04-.13,.07-.2,.1h0c-.05,.02-.1,.04-.15,.07-.61,.37-1.23,.73-1.83,1.13-.54,.36-1.05,.75-1.57,1.13l-.24,.19-.22,.18-.8,.66c-.24,.22-.49,.42-.72,.65-.69,.7-1.37,1.41-2.05,2.12,0,.01,.02,.02,.03,.03,0,0-.02-.02-.03-.03l-1.07,1.3-.77,1.05c-.26,.38-.53,.76-.77,1.15-.31,.5-.6,1.02-.9,1.53l-.53,1.01-.27,.56-.79,1.85s0,.02-.01,.03l-.34,.95c-.14,.42-.28,.84-.41,1.27-.1,.33-.18,.67-.27,1.01-.02,.05-.04,.09-.05,.14-.12,.54-.24,1.08-.35,1.62-.08,.4-.13,.8-.19,1.19l-.11,.83v.18c-.03,.12-.05,.23-.05,.35-.04,.51-.07,1.02-.1,1.53v.34l-.03,.22v1.2c0,.09,.02,.17,.03,.26,.01,.15,.02,.3,.03,.46,0-.1,.01-.19,.02-.29,0,.1-.01,.19-.02,.29h0l.06,.96,.03,.34,.03,.34,.22,1.66,.03,.22v.03l.06,.25,.06,.28,.03,.18,.25,1.14c.35,1.48,.83,2.91,1.43,4.31,.22,.52,.48,1.03,.72,1.55l.4,.77,.34,.62,.25,.43,.86,1.36,.23,.34,.02,.03,.18,.26,.06,.09c.24,.32,.46,.65,.72,.96,.54,.65,1.1,1.29,1.66,1.93l.37,.37h0l.21,.22c.05,.05,.1,.11,.15,.16,1,1,2.08,1.91,3.22,2.74,.35,.26,.72,.49,1.08,.74,.34,.21,.68,.43,1.02,.64l.34,.2,.37,.21,.18,.1,.9,.48,.21,.1,.25,.12,.12-.12s.03-.02,.05-.03c-.02,0-.04,.02-.05,.03l-.12,.12,1.97,.86c.34,.13,.67,.27,1.02,.38,.58,.19,1.17,.36,1.75,.54l1.47,.37s.06,.02,.09,.03c1.73,.38,3.48,.59,5.24,.65v.03h1.67v-.03c.44-.02,.88-.04,1.32-.07,.25-.02,.5-.05,.75-.08l.8-.09,.95-.13,.25-.05,.96-.18,.42-.09,.49-.12,1.23-.33,.4-.13,.43-.12,.25-.09v0l.8-.28,.06-.02h0l.72-.28,.21-.09,.37-.15,.28-.13h.02l.28-.13c.15-.07,.31-.13,.46-.21,.7-.37,1.4-.74,2.09-1.12,.06-.03,.11-.1,.17-.14,.1-.06,.2-.1,.31-.15l.11-.07,.53-.34,.34-.22,.16-.11c.22-.16,.44-.31,.67-.47l.28-.21s-.03,0-.04,0c.01,0,.02,0,.04,0l1.44-1.15,.89-.8,.41-.39,.17-.17,.09-.09,.57-.58h0c.08-.08,.15-.15,.23-.23,.22-.24,.44-.47,.65-.72,.48-.59,.95-1.19,1.43-1.79,.36-.53,.72-1.06,1.09-1.59l.39-.62,.23-.4,.11-.19,.08-.14,.12-.22,.21-.38,.54-1.07,.26-.56s-.03,0-.05,0c.02,0,.03,0,.05,0l.31-.74,.34-.86c.09-.23,.18-.45,.25-.69,.21-.66,.41-1.33,.61-1.99h0l.61-2.84,.1-.73,.17-1.55c0-.15,0-.31,0-.46,.02-.32,.04-.63,.06-.95,0-.53,0-1.05,0-1.58l-.04-.73Z"/><path class="cls-70" d="M326.85,108.01v-.22l-.04-.26-.08-.65c-.01-.07-.02-.14-.03-.21-.04-.2-.08-.4-.13-.6v-.06l-.14-.48-.04-.13-.23-.67-.11-.26-.27-.61-.06-.12s0-.03-.02-.04c-.23-.45-.48-.88-.77-1.29-.06-.08-.12-.16-.18-.24l-.13-.18-.18-.22-.15-.18,.03,.12-.03-.12-.05-.06-.02-.03-.19-.21-.18-.2s-.01-.02-.02-.03c-.36-.37-.74-.71-1.14-1.03-.45-.35-.93-.67-1.44-.95-.17-.09-.35-.18-.52-.26l-.33-.15-.37-.15-.15-.06-.03-.02-.12-.04-.13-.05h-.04l-.35-.13-.13-.04c-.2-.05-.39-.11-.59-.16-.7-.17-1.4-.26-2.12-.28-.03,0-.07,0-.1,0h-.54l-.28,.02c-.13,0-.27,0-.4,.03-.32,.04-.64,.09-.97,.13l-.38,.08-.07,.02s-.02,0-.03,0c-.42,.09-.83,.22-1.24,.36-.2,.07-.39,.15-.58,.23h-.02c-.22,.11-.45,.21-.67,.32-.01,0-.02,.02-.03,.04-.04,.01-.07,.02-.11,.03-.04,.02-.08,.05-.12,.07-.03,.01-.05,.03-.08,.04h0s-.04,.02-.06,.03c-.23,.14-.47,.28-.7,.43-.21,.14-.4,.29-.6,.43l-.09,.07-.08,.07-.3,.25c-.09,.08-.19,.16-.28,.25-.26,.27-.52,.54-.79,.81h0l-.41,.5-.3,.4c-.1,.15-.2,.29-.29,.44-.12,.19-.23,.39-.34,.59l-.2,.39-.1,.21-.3,.71h0l-.13,.37c-.05,.16-.11,.32-.16,.49-.04,.13-.07,.26-.1,.39,0,.02-.01,.04-.02,.06-.04,.21-.09,.41-.13,.62-.03,.15-.05,.3-.07,.46l-.04,.32v.07s-.02,.09-.02,.13c-.01,.2-.03,.39-.04,.59v.67s0,.07,0,.1c0,.06,0,.12,.01,.17,0-.04,0-.07,0-.11,0,.04,0,.07,0,.11h0l.02,.37v.13l.03,.13,.08,.64v.08h.01l.02,.11,.02,.11v.07l.11,.43c.13,.57,.32,1.11,.55,1.65,.09,.2,.18,.4,.27,.59l.15,.29,.13,.24,.1,.16,.33,.52,.09,.13h0l.07,.11,.02,.03c.09,.12,.18,.25,.27,.37,.21,.25,.42,.49,.63,.74l.14,.14h0l.08,.08s.04,.04,.06,.06c.38,.38,.79,.73,1.23,1.05,.13,.1,.27,.19,.41,.28l.39,.25,.13,.08,.14,.08,.07,.04,.34,.18,.08,.04,.09,.05,.05-.05h0l-.05,.05,.75,.33c.13,.05,.26,.1,.39,.15,.22,.07,.45,.14,.67,.21l.56,.14s.02,0,.03,.01c.66,.14,1.33,.23,2.01,.25h.64c.17,0,.34-.02,.5-.03,.1,0,.19-.02,.29-.03l.31-.04,.36-.05,.09-.02,.37-.07,.16-.04,.19-.05,.47-.13,.15-.05,.16-.05,.09-.03v0l.31-.11h.02l.27-.12,.08-.04,.14-.06,.11-.05h0l.11-.05c.06-.03,.12-.05,.18-.08,.27-.14,.53-.28,.8-.43,.02-.01,.04-.04,.06-.05,.04-.02,.08-.04,.12-.06l.04-.03,.2-.13,.13-.08,.06-.04,.26-.18,.11-.08h0l.55-.44,.34-.31,.16-.15,.07-.06,.03-.03,.22-.22h0s.06-.06,.09-.09c.08-.09,.17-.18,.25-.28,.18-.23,.36-.46,.55-.69l.42-.61,.15-.24,.09-.15,.04-.07,.03-.05,.05-.08,.08-.15,.21-.41,.1-.21s-.01,0-.02,0c0,0,.01,0,.02,0l.12-.28,.13-.33c.03-.09,.07-.17,.1-.26,.08-.25,.16-.51,.23-.76h0l.23-1.09,.04-.28,.07-.59c0-.06,0-.12,0-.18,0-.12,.02-.24,.02-.36v-.89Z"/></g></g><g><g><g><path class="cls-23" d="M315.58,243.38c-4.23-3.35-10.94-1.9-11.99-5.17-.47-1.47,.58-2.93,.86-3.3,1.69-2.18,5.55-2.69,9.56-.91-2.29-10.13-5.19-12.78-7.51-13.2-2.65-.49-5.71,1.69-9.63,0-1.66-.71-1.79-1.4-1.81-1.6-.13-1.21,2.04-2.42,3.47-2.88,2.59-.84,5.02,.05,6.14,.57-1.29-2.35-3.43-5.28-6.84-6.39-6.36-2.06-13.07,3.49-14.38,1.76-.72-.95,.92-3.37,2.09-4.55,2.77-2.79,6.56-2.28,7.01-2.22-.68-.64-6.19-5.65-13.8-4.38-5.16,.86-11.15,4.58-11.82,9.31-.54,3.84,2.66,6.79,.83,9.68-.97,1.52-2.68,2-2.97,2.08-2.6,.68-4.36-1.18-6.88-2.04-4.8-1.64-10.96,.83-14.55,4.54-.57,.59-4.43,4.71-4.42,10.77,0,4.54,1.7,9.24,3.04,9.19,.92-.03,.86-2.48,3.27-6.75,1.33-2.36,3.03-5.29,5.29-5.32,.96-.01,2.03,.51,2.63,1.28,3.08,3.91-6.93,12.6-4.72,19.91,.33,1.09,1,2.29,2.24,3.5-6.61,16.33-11.98,33.37-15.96,50.87-4.85,21.27-7.67,43.18-8.41,65.21l3.06,.12c.48-21.78,3.02-43.51,7.58-64.65,3.72-17.28,8.8-34.17,15.12-50.39,1.48,1.07,3.49,2.12,6.28,3.07-.33-1.87-.62-5.3,1.09-8.78,.34-.69,2.75-5.6,5.92-5.41,1.11,.07,1.93,.73,2.27,1.04,4,3.74-2.64,12.91,.74,18.79,1.06,1.85,3.59,4.2,10.6,4.9-1.05-3.61-.87-6.49-.61-8.2,.3-1.98,.7-4.57,2.43-5.27,1.16-.47,2.73-.02,3.73,.84,3.8,3.23-1.56,11.35,1.87,15.87,1.17,1.53,3.65,3.05,9.5,2.71-.17-.34-2.37-4.93,.13-8.73,.83-1.26,2.81-3.4,4.51-2.95,2.47,.66,1.33,6,4.5,9.01,1.51,1.43,4.51,2.84,11.2,1.44,1.39-3.31,2.5-7.64,.7-11.31-2.24-4.55-7.88-5.92-7.38-8.11,.33-1.44,3.02-1.96,4.11-2.07,3.34-.31,5.62,2.06,5.93,2.39,.54-8.49-1.6-12.37-4.01-14.28Zm-46.71-2.46c-2.06-.35-3.37-8.43-1.33-9.58,1.2-.68,3.95,.84,4.77,3.2,1.13,3.27-1.99,6.62-3.44,6.37Zm9.11-22.8c-1.24,.4-2.99-.82-3.67-2.25-1.41-2.99,1.68-7.32,3.32-7.13,1.14,.14,1.68,2.47,1.83,3.12,.53,2.27,.23,5.71-1.48,6.25Zm10.63,7.42c.39-1.11,3.8-.76,4.1-.73,2.97,.3,6.35,1.94,6.19,3.18-.13,1.07-2.89,1.88-5.17,1.53-2.93-.45-5.51-2.89-5.13-3.98Zm4.81,31.54c-1.58,1.33-7.15-1.55-9.78-5.99-1.4-2.36-2.55-6.16-1.23-7.22,1.51-1.21,6.07,1.33,8.64,4.68,2.19,2.86,3.76,7.36,2.37,8.52Zm4.79-11.02c-2.2-.36-3.98-3.35-3.6-4.81,.39-1.48,2.97-1.31,3.2-1.3,2.25,.15,4.7,2.03,4.48,3.68-.19,1.42-2.36,2.71-4.08,2.43Z"/><path class="cls-23" d="M223.68,234.87c6.84-1.3,10.09-10.95,10.63-12.52,2.43-7.2,.78-14.21-.21-14.3-.82-.07-.88,4.76-4.77,7.48-1.04,.73-3.28,1.95-4.23,1.19-1.39-1.12,1.44-5.35,2.54-12.18,.61-3.78,.47-7,.23-9.23-1.16-1.59-3.33-4.1-6.81-6.02-2.14-1.18-4.14-1.79-5.66-2.13,.4,4.69,.26,8.56,.04,11.33-.64,8-2.15,8.95-2.7,9.21-1.77,.85-4.62,.03-5.76-1.76-1.66-2.6,1.28-5.72,2.11-11.33,.44-2.95,.34-6.96-1.7-12.01-1.29-1.58-3.33-3.72-6.3-5.6-2.4-1.52-4.65-2.41-6.39-2.94,.33,1.26,.68,3.12,.64,5.38-.01,.97-.12,7.65-2.74,8.35-1.4,.37-2.97-1.27-3.12-1.44-1.71-1.84-1.35-4.18-1.64-7.78-.16-1.95-.53-4.65-1.51-7.87-1.74-.53-4.3-1.07-7.38-.88-1.55,.1-2.91,.36-4.03,.67,.94,.37,2.36,1.1,3.56,2.52,2.17,2.58,2.95,6.71,1.62,7.66-1.32,.95-4.64-1.29-6.42-2.92-3.13-2.86-2.88-5.09-5.15-6.87-1.58-1.23-4.41-2.27-9.89-.94-2.39,7.61-1.19,10.93,.29,12.56,2.84,3.14,8.26,1.8,9.71,5.18,.68,1.58,.25,3.66-.87,4.64-1.82,1.6-6.06,.84-9.94-2.9-3.92,6.15-3.9,9.6-2.81,11.66,3.51,6.67,20.22,2.62,22.38,8.88,.55,1.59,.02,3.45-.96,4.49-2.6,2.75-9.78,1.22-18.27-4.07,.18,2.69,.56,6.6,1.41,11.31,.52,2.88,.79,4.33,1.34,4.99,4.17,5.01,17.58-2.12,19.81,1.57,1,1.65-.91,4.33-1.2,4.72-2.48,3.36-7.95,4.44-13.7,2.32,1.26,3.92,3.45,8.22,7.47,9.84,7.14,2.88,15.93-4.36,18.34-1.44,1.21,1.46-.15,4.32-.26,4.55-1.75,3.6-6.45,3.88-6.72,3.89,.96,.77,4.74,3.61,10.2,3.36,1.41-.06,7.13-.32,9.72-4.18,2.97-4.42-.88-9.5,2.25-14.14,2.58,8.17,4.85,16.46,6.72,24.85,2.72,12.07,4.69,24.33,5.89,36.67,2.45,24.68,1.77,49.68-1.9,74.11l3.02,.53c3.46-24.77,3.89-50.04,1.16-74.91-1.33-12.44-3.45-24.77-6.32-36.89-2.05-8.73-4.5-17.35-7.31-25.83,.54-.5,1.29-1.08,2.29-1.55,4.96-2.35,8.39,1.66,13.3,.72Zm-9.28-12.48c.67-1.32,4.09-.91,6.26-.05,.34,.14,3.66,1.49,3.5,2.9-.16,1.41-3.76,2.87-6.52,1.74-2.18-.89-3.84-3.4-3.24-4.59Zm-26.58,2.32c-1.26,.41-3.44-1.72-3.98-4.01-.28-1.17-.36-3.38,.91-4.04,1.07-.56,2.6,.25,3.4,1.12,1.95,2.13,1.18,6.44-.33,6.93Zm9.98-36.73c.75,.18,1.06,1.29,1.48,2.88,.63,2.41,1.52,7.9-.34,8.7-1.5,.65-4.85-1.73-5.38-4.79-.61-3.55,2.71-7.15,4.24-6.79Zm2.19,52.92c-2.25,1.23-5.98-.96-7.6-3.63-2.64-4.37-.38-11.25,2.44-11.82,2.53-.52,5.96,3.93,6.77,8.09,.07,.36,1.09,5.89-1.61,7.36Z"/></g><path class="cls-23" d="M210.65,349.51c-.85-8.71-2.26-17.31-4.11-25.68-2.43-10.85-5.71-21.27-9.7-31.02,4.73-3.74,9.06-8.1,9.43-14.01,.05-.81,.3-5.97-3.3-9.81-3.11-3.32-7.35-3.79-9.16-3.97-9.04-.88-13.5,5.56-16.77,3.46-3.69-2.37,1.51-10.91-3.32-16.57-3.24-3.8-9.38-4.39-13.56-3.53-4.22,.87-6.89,3.31-8.52,4.83-8.36,7.82-9.3,19.42-9.45,23.5,5.93-3.06,11.51-3.67,13.98-1.22,.19,.19,2.06,2.04,1.65,4.13-.29,1.49-1.6,2.36-2.18,2.74-3.03,1.97-5.51,.22-8.92,1.51-1.25,.47-2.94,1.48-4.57,3.89,.14,2.78,.47,5.91,1.1,9.3,.81,4.34,1.93,8.13,3.08,11.3,3.87-1.03,8.41-1.98,13.51-2.57,4.71-.55,9.01-.69,12.77-.61,.12-3.02,.82-17.63,5.27-18.41,1.19-.21,2.29,.65,2.71,.97,3.06,2.38,3.47,8.09,1.16,14.39,2.79-1.17,6.8-3.13,11.1-6.31,.79-.58,1.6-1.18,2.4-1.79,3.8,9.73,6.88,20.07,9.1,30.78,1.69,8.22,2.94,16.62,3.64,25.11,.71,8.48,.92,17.02,.62,25.49l3.06,.36c.17-8.76-.17-17.57-1.03-26.27Zm-46.18-86.59c-.91,2.42-5.29,2.35-6.05,2.34-1.35-.02-4.01-.06-4.7-1.65-.56-1.28,.44-2.94,1.32-3.8,2.43-2.37,7.52-2.07,9.07,.39,.05,.07,.86,1.4,.36,2.72Zm9.71,21.42c-.93,4.32-5.63,8.55-7.14,7.68-1.95-1.13,.42-11.32,4.06-11.95,.81-.14,2.02,.14,2.7,.94,.85,1.02,.55,2.52,.38,3.33Zm7.89-6.64c-.92,1.57-4.99,.92-5.34-.29-.33-1.14,2.34-3.82,4.15-2.99,1.13,.52,1.75,2.32,1.19,3.28Z"/></g><rect class="cls-35" x="195.6" y="322.54" width="48.37" height="70.46"/></g><line class="cls-5" x1="276.21" y1="60.69" x2="369.02" y2="60.69"/><rect class="cls-71" x="285.12" y="48.4" width="67.7" height="9.26"/><rect class="cls-65" x="285.12" y="37.7" width="67.7" height="9.26"/></g></g><g><g><path class="cls-54" d="M869.61,258.77h-205.55l-.17,52.03-19.84-52.03h-7.92c-14.35,0-25.99-11.63-25.99-25.99V59.9c0-14.35,11.63-25.99,25.99-25.99h233.49c14.35,0,25.99,11.63,25.99,25.99V232.78c0,14.35-11.63,25.99-25.99,25.99Z"/><line class="cls-12" x1="868.52" y1="43" x2="871.34" y2="254"/><line class="cls-12" x1="839.86" y1="43" x2="842.67" y2="254"/><line class="cls-12" x1="811.19" y1="43" x2="814" y2="254"/><line class="cls-12" x1="782.52" y1="43" x2="785.33" y2="254"/><line class="cls-12" x1="753.85" y1="43" x2="756.67" y2="254"/><line class="cls-12" x1="725.18" y1="43" x2="728" y2="254"/><line class="cls-12" x1="696.52" y1="43" x2="699.33" y2="254"/><line class="cls-12" x1="666.37" y1="43" x2="669.15" y2="251.25"/><line class="cls-12" x1="631.97" y1="43" x2="634.78" y2="254"/></g><g class="cls-64"><g><polygon class="cls-53" points="990.46 393.18 849.89 393.18 857.79 53.89 998.36 53.89 990.46 393.18"/><polygon class="cls-30" points="993.2 107.71 860.53 107.71 861.79 57.29 994.46 57.29 993.2 107.71"/><polygon class="cls-30" points="991.66 161.45 859 161.45 860.26 111.03 992.92 111.03 991.66 161.45"/><path class="cls-32" d="M913.77,86.94c0,11.47-7.61,20.76-23.69,20.76-12.12,0-20.18-9.29-20.18-20.76,0-2.93,.76-5.73,2.1-8.26,.15-.29,.31-.57,.47-.85,1.21-2.05,2.8-3.91,4.67-5.52h31.14c1.43,1.53,2.6,3.29,3.48,5.22,.14,.29,.27,.58,.39,.88,1.06,2.61,1.62,5.49,1.62,8.53Z"/><polygon class="cls-45" points="868.43 120.62 869.42 133.38 864.15 160.7 879.84 160.7 876.99 133.75 878.63 120.62 868.43 120.62"/><polygon class="cls-53" points="932.82 151.07 981.51 151.07 983.6 143.78 934.91 143.78 932.82 151.07"/><path class="cls-30" d="M877.53,78.9c-1.84-.07-3.69-.1-5.54-.21,.15-.29,.31-.57,.47-.85,1.68,.11,3.39,.12,5.06,.18,.56,.03,.56,.9,0,.88Z"/><path class="cls-30" d="M888.94,77.91h-5.05c-.56,0-.57,.88,0,.88h5.05c.56,0,.57-.88,0-.88Z"/><path class="cls-30" d="M900.46,77.93c-1.86-.05-3.73-.1-5.59-.16-.56-.02-.56,.86,0,.88,1.86,.05,3.73,.1,5.59,.16,.56,.02,.56-.86,0-.88Z"/><path class="cls-30" d="M912.15,78.41c-1.82-.03-3.62-.05-5.44-.09-.56,0-.56-.89,0-.88,1.68,.04,3.37,.06,5.05,.09,.14,.29,.27,.58,.39,.88Z"/><polygon class="cls-26" points="945.83 107.71 946.53 87.82 985.72 87.82 985.32 107.71 945.83 107.71"/></g></g><g><path class="cls-27" d="M702.61,258.07c-1.77-20.39-.74-44.62-1.34-55.44-.79-14.12,159.6-14.84,160.25-5.25,.49,7.15,3.45,38.01,3.53,60.61"/><path class="cls-33" d="M672.75,159.94l-17.78,3.7s.96,26.08,.57,29.21,28.77-.57,28.77-.57l-11.57-32.34Z"/><path class="cls-33" d="M663.27,174.51c-.1-5.23-4.52-17.29-8.68-30.3-5.5-17.18-12.59-39.47-12.59-39.47l-13.33,2.95s5.55,78.21,11.9,83.22c6.35,5.01,29.06,2.84,29.06,2.84l-6.36-19.24Z"/><path class="cls-33" d="M647.92,87.58c-.76-1.69-3-4.15-5.17-3.96-.03-.94-1.07-1.86-1.62-2.49-1.94-2.23-4.1-4.54-6.91-5.66-2.23-.88-4.57-.37-5.02,2.27-.29,1.69,.2,3.63,.43,5.3,.01,.09,.03,.19,.04,.28-.23,.05-.47,.09-.7,.14-1.18-3.28-2.14-6.62-2.77-10.07-.31-1.66-.26-7.12-2.65-7.57-1.41-.28-2.05,2.4-2.06,3.47-.01,1.62,.46,3.19,.71,4.79,.56,3.53,1.51,6.98,2.56,10.4-.12,.04-.24,.09-.35,.12-1.57-3.24-2.74-6.55-3.78-10.02-.45-1.49-.96-4.05-2.77-4.51-1.13-.3-1.4,.14-1.56,1.21-.29,1.91,.63,4.32,1.24,6.11,.98,2.87,2.12,5.69,3.28,8.5l-3.51-6.47c-.6-1.11-1.71-3.8-3.42-2.66-.05,.04-.1,.07-.14,.11-.8,.7-.55,2.17-.35,3.06,.56,2.56,2.06,4.8,3.22,7.1,1.68,3.37,12.07,21.57,12.07,21.57,0,0,.02,0,.04,0,.47,.12,4.47,1.09,7.34,.72,2.02-.25,4.95-.45,6.51-1.9,.08-.07,.18-.2,.29-.36,1.76-2.52,7.05-15.01,5.04-19.48Zm-7.83,5.17s-3.89-5.86-5.3-10.71c-.17-.59-.79-1.99-1.06-3.09,.87,.73,1.34,1.79,2.13,2.59,.57,.58,1.27,1.04,1.97,1.46,1.39,.86,2.89,1.45,4.45,1.87,.01,.06,0,.11,.01,.17,.27,1.57,1.46,3.35,2.35,4.9-2.7,1.49-4.55,2.82-4.55,2.82Z"/><path class="cls-33" d="M776.74,107.77s.39,11.48-.95,16.62c-1.34,5.13-5.31,13.83-5.31,13.83l24.17,64.2,20.05-63.8s-5-10.91-6.08-16.96c-1.08-6.04-1.49-18.96-1.49-18.96l-30.39,5.07Z"/><path class="cls-25" d="M776.78,112.62s.61,3.99,2.88,5.78c2.27,1.79,12.37,7.34,16.16,5.35,3.78-1.99,6.24-3.63,7.77-4.62,1.53-.99,4.01-7.14,4.01-7.14,0,0-3.03-5.17-5.09-4.81-2.07,.36-14.62,3.48-20.11,3.91-5.5,.43-5.6,1.54-5.6,1.54Z"/><path class="cls-33" d="M767.45,67.71c-.17,.67-.28,1.35-.32,2.04-.55,8.93,.98,16.38,2.89,25.08,1.67,7.61,2.5,13.52,8.03,19,4.61,4.56,10.41,7.78,16.97,6.53,6.45-1.23,11.85-6.18,14.71-11.79,4.27-8.39,4.27-16.24,4.64-25.52,.28-7.02,.82-16.7-3.63-22.67-5.79-7.78-21.04-8.13-29.53-5.73-6.26,1.77-12.09,6.41-13.76,13.06Z"/><path class="cls-47" d="M801.6,86.82c-.48-.15-.94-.39-1.25-.78-.13-.17-.24-.38-.2-.6,.08-.4,.61-.37,1.01-.32,.7,.08,1.25-.72,1.96-.71,.74,0,1.51,.75,2.23,.68,.48-.05,3.56-.73,3.16-.24-.31,.38-3.31,1.62-3.74,1.82-.18,.09-.36,.18-.56,.22-.72,.17-1.48,.18-2.21,.03-.13-.03-.27-.06-.4-.1Z"/><path class="cls-47" d="M782.19,87.45c.48-.17,.92-.43,1.21-.83,.13-.18,.22-.39,.17-.6-.09-.4-.62-.35-1.02-.28-.7,.11-.77-.92-1.47-.89-.74,.03-1.98,1.06-2.71,1.02-.48-.03-2.76-.55-2.34-.07,.33,.36,2.54,1.44,2.99,1.63,.18,.08,.37,.16,.57,.2,.73,.14,1.49,.12,2.21-.05,.13-.03,.27-.07,.4-.12Z"/><path class="cls-25" d="M785.2,107.75s2.29,.62,6.99,.53,7.79-1.17,7.79-1.17c0,0-1.29,3.86-6.71,4.3-5.42,.44-8.06-3.66-8.06-3.66Z"/><path class="cls-25" d="M791.82,99.79c-.19,0-.36-.11-.43-.3-.08-.23,.04-.49,.27-.57,1.18-.42,3.09-1.42,3.16-2.32,.1-1.19-1.43-7.82-2.03-10.27-.06-.24,.09-.48,.33-.54,.25-.05,.48,.09,.54,.33,.22,.92,2.18,9.01,2.05,10.56-.15,1.75-3.38,2.95-3.75,3.08-.05,.02-.09,.02-.14,.03Z"/><path d="M785.92,78.89c-.28-.28-.67-.51-1.07-.67-2.15-.85-4.61-.6-6.76,.08-.65,.21-4.98,1.77-2.97,2.83,.97,.51,2.22,.24,3.22,0,1.33-.31,2.65-.48,4.02-.4,1,.06,2.13,.26,3.09-.15,1.13-.48,1.02-1.16,.48-1.69Z"/><path d="M798.52,78.64c.27-.29,.65-.54,1.04-.71,2.11-.94,4.58-.78,6.76-.18,.66,.18,5.05,1.57,3.08,2.71-.94,.54-2.2,.32-3.21,.13-1.34-.26-2.67-.37-4.03-.24-1,.09-2.12,.34-3.09-.03-1.15-.44-1.06-1.11-.54-1.67Z"/><path class="cls-33" d="M812.82,83.77s3.54-2.62,5.52,.61c1.98,3.23-.59,9.29-2.88,11.63-2.29,2.34-4.33,3.2-4.73,2.97-.4-.23,2.1-15.2,2.1-15.2Z"/><path class="cls-33" d="M770.27,84.61s-3.64-2.48-5.49,.83c-1.85,3.31,.95,9.26,3.34,11.51,2.38,2.25,4.45,3.02,4.84,2.78,.39-.25-2.69-15.11-2.69-15.11Z"/><path d="M812.82,61.94c-3.49-6.78-9.77-10.4-17.34-10.29-4.58,.06-9.27,.75-13.73,1.79-3.59,.82-7.17,2.14-9.94,4.65-2.86,2.6-3.86,5.97-4.63,9.64-.92,4.48-1.72,8.97-1.21,13.53-.05-.03-.08-.05-.14-.07-.56-.24-1.03,.6-.47,.84,.85,.36,1.33,1.04,1.83,1.7,.23,.32,.48,.62,.77,.87,.17,.15,.35,.28,.57,.37,.67,.3,.96,10.34,1.47,9.86,.02-.02,.27-10.28,.29-10.3,1.94-1.87,.98-5.77,.61-8.03-.75-4.47-.68-9.97,3.92-12.2,2.72-1.31-8.39,4.02-5.98,2.32,2.29-.71-1.59,7.4,.87,7.79,1.74,.29,32.92-13.76,34.7-13.98,2.15-.27,4.87,10.66,6.99,11.25,2.77,.76-3.65-10.72-2.6-7.73,.4,1.15,.57,2.43,.99,3.6,.51,1.38,1.05,2.75,1.61,4.13,.18,1.98,.36,3.96,.55,5.94,.18,1.83,.61,16.37,1.54,18.15,.14,.26-.44-11.27-.25-11.06,.2,.22,.63,.15,.76-.11,.12-.25,.23-.5,.34-.77,.14-.31,.26-.63,.37-.95,2.39-6.65,1.27-14.79-1.9-20.95Z"/><path class="cls-55" d="M845.78,260.74l-104.6,.96c-2.08,.02-12.44-3.51-11.6-14.23,.98-12.52-.5-20.45-4.31-33.5-4.46-15.28-8.79-63.52-6.75-69.57,2.53-7.49,27.1-9.69,31.89-12.23,3.28-1.74,13.72-3.81,19.95-4.93,2.67-.48,5.23,1.25,5.78,3.9,1.43,6.87,37.19,14.94,39.86,22.64,2.31,6.68-21.49,37.71-19.48,43.92,.02,.06-8.42-17.81-8.4-17.74,1.53,4.66,8.19,4.52,9.56-.19,2.27-7.79,4.89-17.25,6.01-23.06,1.65-8.55,3.79-19.7,5-26.03,.52-2.73,3.16-4.51,5.89-3.97,12.56,2.51,54.11,16.11,55.58,17.76,1.82,2.05,14.51,68.6,15.33,79.89,.82,11.29-33.26,24.11-37.18,36.38"/><path class="cls-55" d="M752.49,131.3s-16.85,3.98-17.41,4.06c-5.07,.72-9.96,1.31-14.5,3.83-3,1.66-5.8,3.68-8.85,5.25-4.47,2.3-9.63,2.27-13.96,4.41-3.79,1.88-6.79,5.41-11.11,6.12-6.23,1.01-16.22,3.44-17.08,5.02s7.57,44.47,8.93,45.78c1.36,1.31,9.54-2.86,14.02-1.61,4.49,1.25,3.42,3.5,11.43,2.56,8.01-.94,8.25-.12,16.12,2.77,7.87,2.89,10.63,7.3,20.38,3.76,9.75-3.54,13-8.06,12.98-9.4-.03-1.34-.95-72.55-.95-72.55Z"/><path class="cls-25" d="M633.83,99c-.08,0-.16-.02-.23-.06-.21-.12-.28-.4-.16-.61,0-.01,.74-1.25,1.82-2.83,1.15-1.68,3.85-2.66,3.96-2.7,.23-.08,.49,.04,.57,.27,.08,.23-.04,.49-.27,.57-.03,0-2.54,.92-3.52,2.36-1.06,1.55-1.78,2.77-1.79,2.78-.08,.14-.23,.22-.38,.22Z"/><rect class="cls-7" x="731.31" y="158.9" width="155.2" height="84.39" rx="1" ry="1" transform="translate(.24 -.97) rotate(.07)"/><path d="M791.28,221.08c-5.53,.11-11.43-1.19-11.48-3.82-.05-2.62,5.79-4.16,11.32-4.27,5.53-.11,11.43,1.19,11.48,3.82s-5.79,4.16-11.32,4.27Zm-.14-7.19c-6.19,.12-10.48,1.87-10.45,3.36s4.38,3.06,10.57,2.94c6.19-.12,10.48-1.87,10.45-3.36-.03-1.49-4.38-3.06-10.57-2.94Z"/><path class="cls-47" d="M719.48,205.98c-.21,0-.41-.15-.45-.36-.05-.27-5.13-27.6-6.04-39.97-.9-12.22-3.17-17.09-3.2-17.14-.11-.22-.01-.49,.21-.59,.22-.11,.49-.01,.59,.21,.1,.2,2.37,5.04,3.28,17.46,.9,12.32,5.97,39.59,6.02,39.87,.04,.24-.11,.48-.36,.52-.02,0-.05,0-.07,0Z"/><path class="cls-47" d="M684.54,203.43c-.22,0-.41-.15-.45-.37-.02-.13-2.07-12.79-2.9-21.39-.83-8.53-5.05-21.54-5.09-21.67-.08-.23,.05-.49,.29-.56,.23-.08,.49,.05,.56,.29,.04,.13,4.3,13.22,5.13,21.86,.83,8.57,2.88,21.2,2.9,21.33,.04,.24-.13,.47-.37,.51-.02,0-.04,0-.06,0Z"/><path class="cls-47" d="M714.91,178.52c-.17,0-.33-.09-.41-.25l-12.89-26.52c-.11-.22-.01-.49,.21-.6,.22-.11,.49-.02,.6,.21l12.89,26.52c.11,.22,.01,.49-.21,.6-.06,.03-.12,.04-.19,.04Z"/><g><rect class="cls-11" x="639.16" y="81.59" width="81.04" height="113.31" transform="translate(-2.58 13.38) rotate(-1.13)"/><path class="cls-40" d="M695.59,128.37l-.13,.15-.02,.02-.17,.2-.4,.52c-.04,.06-.08,.11-.12,.17-.11,.17-.22,.34-.33,.51l-.03,.05-.25,.43-.07,.12-.31,.64-.11,.26-.24,.63-.04,.12s-.02,.03-.02,.04c-.16,.48-.28,.97-.37,1.46-.02,.1-.03,.2-.04,.3l-.03,.22-.03,.28-.02,.24,.06-.11-.06,.11v.11l-.03,.28v.27s-.01,.02-.01,.03c0,.51,.02,1.02,.08,1.53,.07,.57,.18,1.13,.35,1.69,.05,.19,.12,.37,.18,.55l.13,.34,.15,.37,.07,.15v.04l.07,.11,.06,.13,.02,.03,.17,.33,.06,.12c.1,.18,.2,.35,.31,.53,.37,.61,.81,1.17,1.3,1.69,.02,.02,.04,.05,.06,.08l.37,.37h.02l.21,.2c.1,.09,.19,.18,.3,.26,.26,.2,.52,.39,.78,.59l.32,.21,.06,.04s.02,.01,.03,.02c.36,.23,.74,.43,1.13,.62,.19,.09,.38,.17,.57,.25h.02c.23,.09,.46,.18,.7,.26,.01,0,.03,0,.05,0,.03,.02,.07,.04,.1,.05,.04,.02,.09,.02,.13,.03,.03,0,.05,.02,.08,.03h0s.04,.02,.06,.02c.27,.06,.53,.14,.8,.19,.24,.05,.49,.08,.73,.12l.12,.02h.11l.39,.05c.12,0,.25,.02,.37,.02,.38,0,.75-.01,1.13-.02,0,0,0-.01,0-.02,0,0,0,0,0,.02l.64-.06,.49-.07c.17-.03,.35-.06,.52-.1,.22-.05,.44-.11,.66-.17l.42-.13,.23-.08,.71-.28h.01l.35-.17c.15-.08,.3-.15,.45-.23,.12-.06,.23-.13,.34-.2,.02,0,.04-.02,.05-.03,.18-.11,.36-.23,.53-.34,.13-.09,.25-.18,.37-.27l.26-.19,.05-.05s.07-.05,.11-.08c.15-.13,.29-.26,.44-.39l.09-.09,.07-.05,.32-.32s.04-.05,.06-.08c.04-.04,.08-.09,.11-.13-.03,.02-.06,.05-.08,.07,.03-.02,.06-.05,.08-.07h0l.24-.28,.08-.1,.08-.1,.39-.51,.05-.07h0l.05-.09,.06-.09,.04-.06,.24-.38c.31-.49,.56-1.01,.78-1.55,.08-.2,.15-.41,.23-.61l.1-.32,.08-.26,.05-.18,.14-.6,.03-.15h0l.02-.13v-.04c.03-.15,.06-.3,.07-.45,.03-.32,.05-.65,.07-.97v-.2h0v-.11s0-.05,0-.08c0-.54-.05-1.08-.13-1.61-.03-.16-.06-.33-.09-.49l-.1-.45-.04-.15-.04-.16-.02-.08-.11-.37-.03-.09-.03-.1h0l-.3-.77c-.06-.13-.11-.26-.17-.38-.11-.21-.22-.41-.33-.62l-.3-.5s0-.02-.02-.03c-.37-.57-.78-1.1-1.24-1.59h0l-.45-.46h0c-.13-.11-.25-.22-.38-.33-.07-.06-.15-.12-.22-.18l-.24-.19-.29-.22-.08-.05-.31-.21-.14-.09-.17-.1-.42-.24-.14-.07-.15-.08-.09-.04-.07,.07,.07-.07-.29-.14h-.02l-.27-.13-.08-.03-.14-.06-.11-.04h0l-.11-.04c-.06-.02-.12-.05-.18-.07-.29-.09-.58-.18-.87-.26-.03,0-.06,0-.08,0-.04-.01-.08-.03-.12-.04h-.05l-.23-.06-.15-.03h-.08l-.31-.07-.13-.02h0l-.7-.08-.46-.02h-.66s-.08,0-.12,0c-.12,0-.25,0-.37,.02-.29,.03-.58,.07-.87,.1l-.72,.14-.27,.06-.17,.05-.08,.02-.06,.02-.09,.03-.16,.05-.44,.14-.22,.08h0l-.28,.11-.32,.14c-.09,.04-.17,.07-.25,.12-.24,.12-.47,.25-.7,.37h0l-.93,.6-.23,.17-.46,.37s-.08,.08-.13,.12c-.09,.08-.18,.16-.27,.24l-.43,.43-.19,.21Z"/><path class="cls-51" d="M659.32,123.86l-.32,.36-.04,.04-.4,.48c-.32,.41-.63,.82-.95,1.23-.1,.14-.2,.27-.29,.41-.27,.41-.53,.81-.79,1.22l-.07,.12-.6,1.03-.16,.28c-.25,.51-.49,1.02-.74,1.53l-.26,.61-.58,1.49-.09,.3s-.04,.06-.05,.1c-.38,1.14-.67,2.3-.88,3.49-.04,.23-.07,.47-.1,.7l-.08,.52-.08,.67-.05,.56,.15-.26-.15,.26-.02,.17v.08l-.04,.67-.02,.63s0,.06,0,.08c-.02,1.22,.04,2.44,.19,3.65,.17,1.36,.44,2.7,.83,4.02,.13,.44,.29,.88,.43,1.32l.3,.81,.36,.88,.16,.36,.03,.08,.13,.27,.14,.3,.04,.08,.4,.79,.15,.28c.24,.42,.47,.85,.73,1.26,.89,1.45,1.92,2.8,3.1,4.04,.05,.06,.1,.12,.15,.18l.87,.87,.06,.02,.5,.46c.24,.21,.46,.43,.71,.63,.61,.48,1.24,.94,1.85,1.41l.76,.51,.15,.09s.04,.04,.07,.05c.87,.55,1.77,1.04,2.7,1.47,.45,.21,.91,.4,1.36,.59,.01,0,.02,.02,.04,.02,.55,.2,1.11,.4,1.66,.6,.03,.01,.08,0,.12,0,.08,.04,.16,.1,.24,.13,.1,.04,.21,.05,.32,.08,.07,.02,.13,.04,.2,.06h0s.1,.04,.15,.05c.64,.15,1.27,.32,1.91,.45,.58,.12,1.16,.19,1.74,.28l.28,.04,.25,.03,.94,.09c.29,.02,.59,.05,.88,.05,.9,0,1.79-.03,2.69-.04,0-.01,0-.03,0-.04,0,.01,0,.02,0,.04l1.53-.15,1.17-.18c.41-.08,.83-.15,1.23-.24,.53-.12,1.05-.27,1.57-.41l.99-.31,.54-.19,1.7-.68s.02,0,.02-.01l.83-.4c.36-.18,.73-.36,1.08-.56,.28-.15,.55-.32,.82-.48,.04-.02,.09-.04,.12-.06,.42-.27,.85-.54,1.27-.82,.3-.21,.59-.43,.89-.65l.61-.46,.12-.11c.08-.07,.17-.13,.25-.2,.35-.31,.7-.62,1.05-.92l.22-.22,.16-.12,.77-.77c.05-.06,.1-.12,.15-.18,.09-.11,.18-.21,.27-.31-.07,.06-.13,.12-.2,.17,.07-.06,.13-.12,.2-.17h0l.58-.66,.2-.24,.2-.24,.93-1.21,.12-.16,.02-.02,.12-.2,.15-.22,.09-.14,.57-.89c.73-1.18,1.34-2.42,1.86-3.7,.19-.48,.36-.97,.54-1.46l.24-.75,.18-.61,.11-.44,.32-1.43,.07-.36v-.04l.05-.28,.02-.1c.05-.36,.12-.72,.16-1.08,.07-.77,.12-1.54,.18-2.31v-.48h0v-.27c0-.07,.01-.13,.01-.2,0-1.29-.11-2.57-.31-3.84-.06-.39-.14-.78-.22-1.17l-.24-1.07-.09-.35-.1-.38-.05-.18-.27-.89-.07-.2-.08-.24h-.16s-.03-.01-.05-.02c.02,0,.03,.01,.05,.02h.16l-.71-1.83c-.14-.3-.26-.61-.41-.9-.25-.5-.52-.99-.78-1.48l-.71-1.19s-.02-.05-.04-.07c-.87-1.36-1.86-2.62-2.97-3.8l.02-.02-1.07-1.07h-.02c-.3-.25-.59-.53-.9-.79-.17-.15-.36-.29-.53-.43l-.58-.46-.7-.52-.19-.13-.74-.5-.33-.21-.4-.24-1.01-.58-.34-.17-.36-.2-.22-.1-.16,.16,.16-.16-.7-.34-.05-.03h0l-.64-.28-.19-.07-.33-.14-.27-.1h-.02l-.26-.11c-.14-.05-.29-.12-.43-.16-.69-.21-1.38-.42-2.07-.63-.06-.02-.14,0-.2-.02-.1-.03-.2-.06-.3-.1l-.12-.03-.56-.12-.36-.07-.18-.03-.73-.13-.32-.05s.02,.02,.02,.03c0,0-.01-.02-.02-.03l-1.67-.19-1.09-.06-.52-.02h-1.07c-.1,0-.2,0-.3,0-.29,.01-.59,.02-.88,.05-.69,.07-1.38,.16-2.08,.24-.58,.11-1.15,.22-1.73,.33l-.65,.15-.4,.11-.19,.05-.14,.04-.22,.06-.38,.11-1.04,.34-.53,.19,.03,.03-.03-.03-.68,.27-.77,.33c-.2,.09-.41,.18-.61,.28-.56,.29-1.12,.59-1.68,.89h0l-2.22,1.44-.54,.41-1.11,.89c-.1,.1-.2,.2-.31,.29-.22,.19-.43,.38-.65,.57l-1.02,1.02-.45,.5Z"/><path class="cls-70" d="M649.89,111.34l-.13,.15-.02,.02-.17,.2-.4,.52c-.04,.06-.08,.11-.12,.17-.11,.17-.22,.34-.33,.51l-.03,.05-.25,.43-.07,.12-.31,.64-.11,.26-.24,.63-.04,.12s-.02,.03-.02,.04c-.16,.48-.28,.97-.37,1.46-.02,.1-.03,.2-.04,.3l-.03,.22-.03,.28-.02,.24,.06-.11-.06,.11v.11l-.03,.28v.27s-.01,.02-.01,.03c0,.51,.02,1.02,.08,1.53,.07,.57,.18,1.13,.35,1.69,.05,.19,.12,.37,.18,.55l.13,.34,.15,.37,.07,.15v.04l.07,.11,.06,.13,.02,.03,.17,.33,.06,.12c.1,.18,.2,.35,.31,.53,.37,.61,.81,1.17,1.3,1.69,.02,.02,.04,.05,.06,.08l.37,.37h.02l.21,.2c.1,.09,.19,.18,.3,.26,.26,.2,.52,.39,.78,.59l.32,.21,.06,.04s.02,.01,.03,.02c.36,.23,.74,.43,1.13,.62,.19,.09,.38,.17,.57,.25h.02c.23,.09,.46,.18,.7,.26,.01,0,.03,0,.05,0,.03,.02,.07,.04,.1,.05,.04,.02,.09,.02,.13,.03,.03,0,.05,.02,.08,.03h0s.04,.02,.06,.02c.27,.06,.53,.14,.8,.19,.24,.05,.49,.08,.73,.12l.12,.02h.11l.39,.05c.12,0,.25,.02,.37,.02,.38,0,.75-.01,1.13-.02,0,0,0-.01,0-.02,0,0,0,0,0,.02l.64-.06,.49-.07c.17-.03,.35-.06,.52-.1,.22-.05,.44-.11,.66-.17l.42-.13,.23-.08,.71-.28h.01l.35-.17c.15-.08,.3-.15,.45-.23,.12-.06,.23-.13,.34-.2,.02,0,.04-.02,.05-.03,.18-.11,.36-.23,.53-.34,.13-.09,.25-.18,.37-.27l.26-.19,.05-.05s.07-.05,.11-.08c.15-.13,.29-.26,.44-.39l.09-.09,.07-.05,.32-.32s.04-.05,.06-.08c.04-.04,.08-.09,.11-.13-.03,.02-.06,.05-.08,.07,.03-.02,.06-.05,.08-.07h0l.24-.28,.08-.1,.08-.1,.39-.51,.05-.07h0l.05-.09,.06-.09,.04-.06,.24-.38c.31-.49,.56-1.01,.78-1.55,.08-.2,.15-.41,.23-.61l.1-.32,.08-.26,.05-.18,.14-.6,.03-.15h0l.02-.13v-.04c.03-.15,.06-.3,.07-.45,.03-.32,.05-.65,.07-.97v-.2h0v-.11s0-.05,0-.08c0-.54-.05-1.08-.13-1.61-.03-.16-.06-.33-.09-.49l-.1-.45-.04-.15-.04-.16-.02-.08-.11-.37-.03-.09-.03-.1h0l-.3-.77c-.06-.13-.11-.26-.17-.38-.11-.21-.22-.41-.33-.62l-.3-.5s0-.02-.02-.03c-.37-.57-.78-1.1-1.24-1.59h0l-.45-.46h0c-.13-.11-.25-.22-.38-.33-.07-.06-.15-.12-.22-.18l-.24-.19-.29-.22-.08-.05-.31-.21-.14-.09-.17-.1-.42-.24-.14-.07-.15-.08-.09-.04-.07,.07,.07-.07-.29-.14h-.02l-.27-.13-.08-.03-.14-.06-.11-.04h0l-.11-.04c-.06-.02-.12-.05-.18-.07-.29-.09-.58-.18-.87-.26-.03,0-.06,0-.08,0-.04-.01-.08-.03-.12-.04h-.05l-.23-.06-.15-.03h-.08l-.31-.07-.13-.02h0l-.7-.08-.46-.02h-.66s-.08,0-.12,0c-.12,0-.25,0-.37,.02-.29,.03-.58,.07-.87,.1l-.72,.14-.27,.06-.17,.05-.08,.02-.06,.02-.09,.03-.16,.05-.44,.14-.22,.08h0l-.28,.11-.32,.14c-.09,.04-.17,.07-.25,.12-.24,.12-.47,.25-.7,.37h0l-.93,.6-.23,.17-.46,.37s-.08,.08-.13,.12c-.09,.08-.18,.16-.27,.24l-.43,.43-.19,.21Z"/></g><path class="cls-3" d="M849.73,181c-5.13-16.65-9.06-32.55-9.06-32.55"/><rect class="cls-14" x="735.02" y="162.92" width="147.76" height="74.74" transform="translate(.24 -.97) rotate(.07)"/><rect class="cls-15" x="777.66" y="191.07" width="54.75" height="34.54" transform="translate(.25 -.96) rotate(.07)"/><rect class="cls-9" x="801.82" y="207.54" width="7.08" height="50.6" transform="translate(5.03 -16.74) rotate(1.19)"/><rect class="cls-8" x="802.15" y="205.77" width="7.19" height="1.21" transform="translate(4.48 -16.75) rotate(1.19)"/></g></g><g><path class="cls-61" d="M893.11,792.9H258.68c-24.6,0-44.54-19.94-44.54-44.54V358.9c0-24.6,19.94-44.54,44.54-44.54H893.11c24.6,0,44.54,19.94,44.54,44.54v389.46c0,24.6-19.94,44.54-44.54,44.54Z"/><g class="cls-63"><g><rect class="cls-28" x="202.24" y="581.2" width="737.59" height="212.88" rx="34.07" ry="34.07"/><g><rect class="cls-30" x="14.61" y="301.15" width="928.33" height="364.18"/><g><path class="cls-46" d="M256.66,586.2l5.11,9.66c.31,.59,.93,.96,1.6,.96h7.23c1,0,1.81-.81,1.81-1.81v-48.28c0-1,.81-1.81,1.81-1.81h7.96c1,0,1.81-.81,1.81-1.81v-10.04c0-1-.81-1.81-1.81-1.81h-.89c-1,0-1.81-.81-1.81-1.81h0c0-1,.81-1.81,1.81-1.81h63.14c1,0,1.81,.81,1.81,1.81h0c0,1-.81,1.81-1.81,1.81h-.89c-1,0-1.81,.81-1.81,1.81v10.04c0,1,.81,1.81,1.81,1.81h7.96c1,0,1.81,.81,1.81,1.81v48.28c0,1,.81,1.81,1.81,1.81h11.77c1,0,1.81,.81,1.81,1.81v25.14c0,1.39,1.5,2.26,2.7,1.57l11.78-6.73c.56-.32,.91-.92,.91-1.57V307.57c0-1-.81-1.81-1.81-1.81H207.34c-1,0-1.81,.81-1.81,1.81v278.81c0,1.89,2.52,2.51,3.41,.85l.55-1.03c.31-.59,.93-.96,1.6-.96h43.98c.67,0,1.28,.37,1.6,.96Z"/><polygon class="cls-46" points="450.09 629.59 450.09 591.82 448.23 591.82 448.23 587.65 454.22 587.65 471.67 571.36 489.12 587.65 495.13 587.65 495.13 591.82 493.27 591.82 493.27 606.29 536.08 599.94 536.08 589.41 548.74 589.41 548.74 598.06 568.52 595.13 568.52 305.77 389.96 305.77 389.96 614.73 395.54 611.54 450.09 629.59"/><polygon class="cls-46" points="603.46 618.43 603.46 551.18 627.65 554.7 627.65 530.66 625.37 530.66 625.37 527.81 640.37 527.81 640.37 504.16 678.95 504.16 678.95 527.81 693.96 527.81 693.96 530.66 691.68 530.66 691.68 564 699.12 565.08 699.12 596.62 738.3 587.03 738.3 557.44 747.45 557.44 752.95 552.31 752.95 305.77 574.39 305.77 574.39 594.26 576.28 593.98 603.46 618.43"/><polygon class="cls-46" points="791.5 557.44 801.12 557.44 801.12 571.65 821.31 566.71 821.31 566.7 867.75 566.7 867.75 554.2 901.99 547.25 901.99 566.7 908.79 566.7 908.79 530.33 937.37 530.33 937.37 305.77 758.81 305.77 758.81 546.83 769.48 536.88 791.5 557.44"/><g class="cls-66"><polygon class="cls-60" points="199.67 378.83 21.11 545.51 21.11 571.77 199.67 405.09 199.67 378.83"/><polygon class="cls-60" points="199.67 552.06 104.21 641.16 199.67 641.16 199.67 552.06"/><polygon class="cls-60" points="277.94 305.77 205.54 373.35 205.54 399.61 306.07 305.77 277.94 305.77"/><polygon class="cls-60" points="384.09 379.9 205.54 546.58 205.54 641.16 260.03 641.16 384.09 525.35 384.09 379.9"/><polygon class="cls-60" points="384.09 576.92 315.28 641.16 362.02 641.16 384.09 620.56 384.09 576.92"/><polygon class="cls-60" points="384.09 305.77 336.02 305.77 205.54 427.57 205.54 514.84 384.09 348.16 384.09 305.77"/><polygon class="cls-60" points="389.96 305.77 389.96 342.68 429.51 305.77 389.96 305.77"/><polygon class="cls-60" points="568.52 305.77 463.51 305.77 389.96 374.42 389.96 519.87 568.52 353.19 568.52 305.77"/><polygon class="cls-60" points="568.52 404.76 389.96 571.44 389.96 615.08 568.52 448.4 568.52 404.76"/><polygon class="cls-60" points="568.52 587.24 510.76 641.16 568.52 641.16 568.52 587.24"/><polygon class="cls-60" points="752.95 520.87 752.95 415.08 574.39 581.77 574.39 641.16 624.08 641.16 752.95 520.87"/><polygon class="cls-60" points="752.95 551.28 656.66 641.16 676.5 641.16 752.95 569.8 752.95 551.28"/><polygon class="cls-60" points="674.57 305.77 574.39 399.29 574.39 442.92 721.32 305.77 674.57 305.77"/><polygon class="cls-60" points="574.39 305.77 574.39 347.71 619.33 305.77 574.39 305.77"/><polygon class="cls-60" points="937.37 305.77 870.05 305.77 758.81 409.61 758.81 515.39 937.37 348.71 937.37 305.77"/><polygon class="cls-60" points="937.37 379.12 758.81 545.81 758.81 564.32 937.37 397.64 937.37 379.12"/></g></g></g><g><path class="cls-56" d="M466.38,752.58c-.79,0-1.45-.64-1.48-1.44l-2.35-67.78c-.03-.83,.61-1.52,1.43-1.55,.83-.05,1.5,.62,1.53,1.44l2.35,67.78c.03,.83-.61,1.52-1.43,1.55-.02,0-.04,0-.05,0Z"/><path class="cls-56" d="M527.12,717.78c-.79,0-1.45-.64-1.48-1.44l-2.03-58.61c-.03-.83,.61-1.52,1.43-1.55,.84-.03,1.5,.62,1.53,1.44l2.03,58.61c.03,.83-.61,1.52-1.43,1.55-.02,0-.04,0-.05,0Z"/><path class="cls-50" d="M522.42,648.81c-.88,.16-1.78,.39-2.71,.7-14.5,4.88-28.68,11.14-42.89,16.81-5.65,2.26-11.31,4.52-16.93,6.84-1.5,.62-6.37,1.72-7.29,3.23-.63,1.03,.36,10.36,.39,11.36,.03,1,15.36,1.26,18.23,.36,2.87-.9,66.93-27.79,68.22-28.84,1.29-1.05,.75-8.08,.37-9.4-.39-1.35-7.14-1.16-8.18-1.21-3.28-.16-6.16-.39-9.21,.16Z"/></g><path class="cls-56" d="M619.71,674.97v119.04c-4.06,.04-8.12,.06-12.17,.08v-119.12h12.17Z"/><path class="cls-50" d="M718.83,718.56c-.56,1.54-8.53,7-19.88,14.02-.95,.58-1.92,1.18-2.91,1.79-16.98,10.4-40.19,23.58-57.85,32.69-.99,.52-1.97,1.02-2.91,1.5-10.99,5.59-19.38,9.3-22.01,9.3-10.02,0-130.06-12.97-133.51-15.47-3.46-2.49,9.39-58.88,10.87-58.88s229.9-181.62,229.9-181.62c0,0,24.57-3.99,28,4.99,3.42,8.98-27.7,186.28-29.68,191.68Z"/><path class="cls-56" d="M611.14,755.57s-.03,0-.04,0l-106.21-8.9c-.27-.02-.47-.26-.45-.54,.02-.27,.26-.48,.53-.46l106.21,8.9c.27,.02,.47,.26,.45,.54-.02,.26-.24,.46-.49,.46Z"/><path class="cls-56" d="M705.35,703.76s-.05,0-.07,0c-.27-.04-.46-.29-.42-.57l22.49-157.78c.04-.27,.28-.45,.56-.42,.27,.04,.46,.29,.42,.57l-22.49,157.78c-.04,.25-.25,.43-.49,.43Z"/><path class="cls-56" d="M613.28,755.57c-.17,0-.34-.09-.43-.26-.13-.24-.05-.54,.19-.68l92.42-52.01,11.69,13.78c.18,.21,.15,.52-.05,.7-.21,.18-.52,.15-.7-.05l-11.17-13.16-91.72,51.61c-.08,.04-.16,.06-.24,.06Z"/><path d="M627.13,652.58c-.73-2.03-2.01-3.88-3.8-5.42-4.86-4.15-11.54-5.47-17.67-6.28-8.72-1.15-17.63-.9-26.28,.68-4.78,.87-9.27,2.41-13.91,3.79-1.84,.54-3.6,.05-5.35-.55,.39-.12,.77-.25,1.16-.37,.6-.19,.35-1.15-.27-.96-.83,.25-1.66,.53-2.49,.79-.12-.04-.24-.08-.36-.12-2.57-.81-5.14-1.62-7.71-2.41-.6-.19-.87,.77-.26,.96,2.22,.7,4.45,1.4,6.67,2.1-15.59,4.89-31.06,10.19-46.36,15.94-16.26,6.12-32.54,12.49-48.3,19.84-6.02,2.81-12.1,6.35-15.56,12.28-3.35,5.74-3.63,12.57-2.6,19.01,1.21,7.62,4.12,14.86,6.94,21.99,2.93,7.42,6.04,14.78,9.43,22,6.28,13.41,11.64,26.26,20.3,38.22,9.18,.12,23.5-.76,32.39-.22,1.69-1.24,3.36-2.52,4.99-3.84,2.59-2.12,5.33-4.2,7.36-6.91,4.47-5.97,2.21-12.86-.19-19.19-.35-.92-.67-1.83-.99-2.73h0c-.97-2.9-1.71-5.79-2.2-8.88-.67-4.2-2.49-8.11-3.58-12.21-1.05-3.99-2.13-8.29-4.1-11.95,3.64-1.71,6.89-4.46,10.44-6.37,3.8-2.04,8.03-2.68,12.22-3.43,4.16-.74,8.12-1.85,12.03-3.46,.4-.16,.78-.32,1.17-.5,6.96-2.92,13.73-6.4,20.5-9.73,7.28-3.6,14.48-7.36,21.47-11.53,6.74-4.01,13.26-8.39,19.38-13.3,5.8-4.66,12.26-9.89,15.17-17,1.41-3.43,1.55-7.05,.37-10.24Z"/><path d="M705,651.68c-2.06-.35-4.12-.68-6.18-1,.03-1.47,.07-2.93,.11-4.39,.02-.65-.97-.65-.99,0-.04,1.41-.08,2.82-.11,4.24-16.17-2.41-32.4-3.55-48.76-1.81-7.39,.79-14.72,2.07-21.94,3.85-1.55,.37-3.11,.78-4.65,1.21-7.32,2.03-2.23,2.4-7.87,7.86-14.23,13.78-32.22,24.18-47.81,36.31-6.3,4.91-11.75,10.44-16.56,16.42-11.14,13.86-18.88,30.16-25.98,46.8h0c-4.86,11.43-3.26,21.31-8.42,32.38,8.42-5.24-7.53-.37-7.07-.33,17.82,1.11,40.61,.18,58.84,.85,2.31-3.23,1.27-2.19,3.42-5.48,2.64-4.04,5.18-8.18,8.03-12.07,1.35-1.84,2.81-3.6,4.46-5.18,1.61-1.55,3.49-2.65,5.2-4.05,1.31-1.08,2.16-2.37,3.03-3.81,1.33-2.23,2.88-4.03,5-5.54,3.3-2.34,7.17-3.68,10.95-5.04,4.37-1.58,53.77-30,62.5-35.17,7.7-4.56,14.06-8.44,19.27-16.22,5.01-7.48,7.68-12.65,8.16-21.23,.14-2.49,2.27-28.44,1.2-28.6,1.98,.3,3.96,.61,5.94,.95,.62,.11,.89-.86,.27-.96Z"/><g><path class="cls-50" d="M692.85,667.54c-.88,.16-1.78,.39-2.71,.7-14.5,4.88-28.68,11.14-42.89,16.81-5.65,2.26-11.31,4.52-16.93,6.84-1.5,.62-6.37,1.72-7.29,3.23-.63,1.03-.15,10.52,.39,11.36,.41,.64,16.38,1.38,17.74,.91,1.28-.44,67.42-28.35,68.71-29.4,1.29-1.05,.75-8.08,.37-9.4-.39-1.35-7.14-1.16-8.18-1.21-3.28-.16-6.16-.39-9.21,.16Z"/><path class="cls-56" d="M697.94,683.83c-.19,0-.37-.11-.45-.3-.11-.25,0-.55,.26-.66l9.06-3.97c.25-.11,.54,0,.65,.26,.11,.25,0,.55-.26,.66l-9.06,3.97c-.06,.03-.13,.04-.2,.04Z"/><path class="cls-56" d="M640.99,706.88c-.26,0-.48-.21-.49-.48l-.43-9.88h-16.08c-.27,0-.49-.22-.49-.5s.22-.5,.49-.5h17.02l.47,10.83c.01,.28-.2,.51-.47,.52h-.02Z"/><path class="cls-56" d="M640.53,696.52c-.2,0-.38-.12-.46-.32-.1-.26,.03-.55,.28-.65l55.96-22.2c.25-.1,.54,.03,.64,.28,.1,.26-.03,.55-.28,.65l-55.96,22.2c-.06,.02-.12,.03-.18,.03Z"/></g><polygon class="cls-56" points="250.21 648.63 250.21 655.11 710.93 673.16 862.08 630.91 862.08 623.76 250.21 648.63"/><path d="M682.03,418.5c-.1-.22-.23-.43-.39-.64-.44-.58-1.03-1.03-1.54-1.54-2.01-2.03-1.48-5.57-3.12-7.91-.57-.82-1.26-1.51-2.03-2.09-1.12-2.45-2.5-4.77-4.19-6.88-2.16-2.7-5.15-3.52-8.56-3.2-2.68,.25-4.17-.13-6.27-1.8-1.17-.93-2.3-1.76-3.74-2.21-2.55-.79-5.2-.38-7.63,.56-5.47-1.28-11.81-.76-15.59,3.67-1.95,2.29-2.44,4.81-2.19,7.74,.19,2.25-.08,3.4-1.57,5.07-.34,.38-.72,.75-1.03,1.15-.92,1.18-1.55,2.56-1.83,4.04-.75,3.97,1.71,7.47,2.32,11.29,.6,3.72,.47,7.68,2.12,11.14,1.56,3.26,4.63,5.17,7.65,6.89,3.18,1.81,6.5,3.34,9.79,4.94,4.28,2.09,8.3,4.39,12.06,7.34,2.57,2.01,5.18,3.88,8.5,3.92-.13,.28-.25,.58-.35,.9-.2,.61,.72,.96,.93,.35,.88-2.67,2.87-4.27,4.19-6.66,1.55-2.82,3.08-5.79,4.29-8.77,1.2-2.95,1.79-6.08,3.12-8.98,1.3-2.85,3.07-5.58,4.27-8.51,1.13-2.77,2.15-6.92,.79-9.8Z"/><polygon class="cls-33" points="665.03 445.43 665.93 483.07 652.46 496.16 637.72 484.15 637.03 472.42 636.57 464.74 636.39 461.6 665.03 445.43"/><path class="cls-33" d="M630.14,413.22s-7.25,16.87-5.22,33.23c1.89,15.19,11.72,20.51,21.16,20.08,9.45-.43,16.53-11.61,19.84-23.26,3.71-13.03,8.51-28.98-7.01-35.78-15.52-6.81-28.78,5.73-28.78,5.73Z"/><path class="cls-33" d="M641.44,470.67l-18.77,8.37s12.68,23.32,27.66,23.52c14.98,.2,33.92-14.55,33.92-14.55l-24.53-17.34h-18.28Z"/><path class="cls-19" d="M720.63,516.54c-6.17-6.49-15.11-36.09-20.05-36.09s-25.86-.93-25.86-.93c0,0-9.78,5.19-21.19,4.57-.2,2.86-2.62,5.07-5.48,5.15-.04,0-.08,0-.11,0,.47,3.04-3.22,9.43-7.19,9.43-2.61,0-2.32-4.44-3.01-6.32-1.7-1.39-2.29-3.83-1.74-5.94-1.67-.91-2.84-2.51-2.84-4.69,0-1.25,.52-2.55,1.36-3.58-3.05-1.69-4.9-3.08-4.9-3.08,0,0-24.91-5.06-26.39-4.39-1.48,.66-29.39,53.72-33.34,66.44-3.95,12.72-.99,25.7-4.69,38.67-3.7,12.97-7.16,53.64-7.16,53.64l148.44,2.74s4.45-20.46,4.69-32.18c.16-7.49,1.52-12.54,2.1-19.2,.03-.33,.06-.67,.08-1.02,.26-3.49,.28-7.46-.21-12.46-1.48-15.22,13.66-44.27,7.48-50.75Z"/><path class="cls-47" d="M636.7,427.33s-.05-.05-.08-.07c-.14-.11-.31-.16-.48-.2-.88-.22-1.79-.27-2.68-.4-.47-.07-1.03-.23-1.51-.16-.37,.05-.68,.44-.41,.79,1.12,1.44,3.06,1.59,4.65,.97,.24-.1,.59-.26,.64-.55,.02-.14-.03-.28-.13-.38Z"/><path class="cls-47" d="M652.08,427.56c.63-.41,1.47-.28,2.17-.18,.76,.1,1.52,.12,2.27,.25,.39,.06,1.22,.5,.65,.94-.67,.52-2.37,.87-3.46,.62-.45-.1-2.62-.98-1.63-1.63Z"/><path class="cls-25" d="M661.57,464.83c-1.19,2.31-6.71,2.24-9.39,4.64-2.69,2.4-8.92,3.51-12.02,3.48-1.04-.01-2.15-.24-3.13-.53l-.45-7.68s4.93,3.03,13.23,.15c8.31-2.87,12.23-6.27,12.23-6.27,0,0,.73,3.9-.47,6.21Z"/><path class="cls-24" d="M635.54,419.71c-1.31,.05-2.63,.28-3.86,.72-.7,.25-1.6,.73-1.44,1.62,.22,1.18,6.01,.83,7.73,.87,.7,.02,2.37,.02,2.58-.88,.11-.49-.32-1.12-.66-1.42-.9-.78-2.42-.92-3.55-.93-.27,0-.53,0-.8,.01Z"/><path class="cls-24" d="M654.55,420.18c-1.26-.09-2.97-.08-4.03,.7-.4,.3-.93,.96-.85,1.51,.15,1.02,2.01,1.18,2.79,1.22,1.91,.11,8.32,1.05,8.67-.24,.26-.98-.71-1.6-1.46-1.94-1.33-.6-2.78-.98-4.23-1.16-.3-.04-.59-.07-.89-.09Z"/><path d="M672.85,426.68c-.67-2.93-1.44-5.89-2.81-8.58-2.38-4.68-6.87-9.55-11.66-11.76-2.77-1.28-5.97-1.77-8.94-2.33-3.04-.58-6.13-.94-9.23-.68-2.29,.19-4.64,.77-6.6,2.02-2.35,1.51-2.86,3.71-4.45,5.78,0-.02,0-.04-.01-.07-.04-.64-1.02-.47-.97,.17,.45,6.37,8.8,.54,11.16-.52,1.92-.86,3.09-.91,5.04-.33,1.17,.34,2.38,.3,3.57,.15,1.66-.21,3.3-.51,4.93-.85,1.45-.3,3.07-.71,4.53-.22,2.62,.89,2.58,3.88,4.6,5.26,.6,.41,1.34,.46,1.97,.79,1.63,.84,2.06,2.15,2.35,3.84,.46,2.69,.32,5.51,.07,8.21-.04,.38,.36,.67,.7,.5,2.9-1.39,3.22,3.51,3.72,4.9,.33,.91,.77,1.53,1.49,2.17,.24,.22,.65,.05,.75-.23,1.01-2.74,.43-5.45-.21-8.22Z"/><path class="cls-33" d="M673.35,431.23c-.7-1.58-1.92-2.92-3.56-3.59-1.99-.81-3.95-.26-4.57,1.97-.17,.61,.75,.97,.93,.35,.23-.1,.46-.19,.7-.29-.26,1.58-.3,3.17-.42,4.79-.17,2.5-1.06,4.81-1.42,7.26-.13,.86,2.03,.8,2.53,.69,4.67-1,7.76-6.8,5.82-11.18Z"/><path class="cls-25" d="M641.39,425.6c-1.22,1.63-2.43,3.27-3.65,4.9-.84,1.13-2.12,2.35-2.63,3.69-.84,2.21,1.26,4.82,2.43,6.52,.36,.53,1.12-.11,.76-.64-.71-1.03-1.67-2.25-2.02-3.49-.63-2.2,.32-2.9,1.43-4.38,1.5-2.01,2.99-4.02,4.49-6.03,.38-.51-.43-1.09-.81-.58Z"/><path class="cls-25" d="M634.21,443.29s1.98,.61,6.29,.51c4.68-.11,6.89-.98,6.89-.98,0,0-1.23,4.42-7.12,4.76-4.47,.25-6.05-4.28-6.05-4.28Z"/><polygon class="cls-41" points="250.21 648.63 710.81 665.92 862.08 623.76 413.55 609.81 250.21 648.63"/><path class="cls-56" d="M613.96,775.36c-.26,0-.48-.21-.49-.48l-.68-19.79c0-.28,.2-.51,.48-.52,.27,0,.5,.21,.51,.48l.68,19.79c0,.28-.2,.51-.48,.52h-.02Z"/><path class="cls-36" d="M569.98,543.51c-.08,0-.15-.02-.22-.05-.24-.13-.34-.43-.22-.67l32.44-64.03c.13-.24,.42-.34,.66-.22,.24,.13,.34,.43,.22,.67l-32.44,64.03c-.09,.17-.26,.27-.44,.27Z"/><g><polygon class="cls-57" points="404.16 602.85 404.34 641.73 421.73 644.34 433.49 641.03 437.49 602.53 416.37 599.88 404.16 602.85"/><path class="cls-43" d="M411.7,605.05l-1.99-.28-.06-1.02-1.36-26.04c-.04-.54,.39-1.02,.93-1.05,.54-.03,1.01,.39,1.04,.94l1.38,26.42,.06,1.02Z"/><path class="cls-49" d="M428.38,574.84l-4.23,27.72-1.13,7.39,.16-2.48,.21-3.29-1.46-.27,.26-1.71,4.27-27.96c.13-.93,.69-1.59,1.22-1.41,.52,.16,.84,1.06,.7,2.01Z"/><path class="cls-29" d="M415.72,605.61l-1.98-.27-.03-1-.56-17.74c-.03-.54,.41-1.01,.95-1.03,.54-.02,1,.42,1.01,.97l.57,18.07,.03,1Z"/><path class="cls-36" d="M422.23,642.78c-.02,.27-.26,.48-.52,.47h0c-.28-.02-.48-.26-.45-.53l1.71-31.53,.07-1.25,.08-1.42,.1-1.88-1.46-.2-6.02-.83-1.98-.27-2.04-.28-1.99-.28-4.07-.57c-.27-.04-.46-.29-.42-.56,.03-.28,.27-.46,.55-.43l3.88,.54,1.99,.28,2.07,.29,1.98,.27,6.26,.86,1.73,.25,.23,.03,.33,.05v.3l-.04,.53-.39,7.15-1.57,29.02Z"/><path class="cls-36" d="M436.58,603.62l-3.57,.86-8.83,2.13-.24,.06-.12,.03c-.05,0-.1,.01-.15,0-.21-.02-.39-.17-.45-.39-.06-.26,.1-.53,.37-.6h.07l.81-.21,9.09-2.19,2.78-.67c.26-.06,.54,.1,.6,.37,.07,.27-.1,.54-.36,.6Z"/></g><g><path class="cls-30" d="M745.71,610.66c0,2.39,3.41,28.97,4.33,30.82,.92,1.86,6.69,3.47,11.75,2.91,7.23-.8,8.63-3.05,9.53-4.24,.9-1.19,3.59-29.23,2.93-31.22-.66-1.99-7.66-4.43-17.85-3.37-9.82,1.02-10.7,3.12-10.7,5.1Z"/><path class="cls-30" d="M770.66,634.76c-.35,0-.71-.02-1.06-.07-2.39-.32-4.48-1.67-5.9-3.81-1.38-2.08-1.95-4.66-1.61-7.28,.71-5.47,5.23-9.39,10.08-8.75,4.85,.64,8.21,5.62,7.5,11.09h0c-.34,2.61-1.55,4.96-3.41,6.61-1.63,1.45-3.59,2.21-5.61,2.21Zm.48-16.98c-2.97,0-5.64,2.65-6.1,6.22-.25,1.89,.16,3.75,1.13,5.22,.94,1.41,2.29,2.3,3.82,2.51,1.53,.2,3.07-.3,4.33-1.42,1.32-1.17,2.18-2.86,2.43-4.75h0c.5-3.83-1.72-7.3-4.95-7.73-.22-.03-.44-.04-.66-.04Z"/><path class="cls-24" d="M747.85,609.41c0-.96,4.87-2.79,12.03-2.79s12.35,1.82,12.35,2.79-4.7,2.79-11.86,2.79-12.52-1.82-12.52-2.79Z"/></g><g><path class="cls-56" d="M689.3,630.84v.04c0,1.58,1.21,2.88,2.76,2.99l38.39,2.61c.62,.04,1.25-.12,1.78-.45l10.68-6.78c.86-.55,1.39-1.51,1.39-2.53v-.93l-55,5.06Z"/><path class="cls-50" d="M689.3,630.84l15.77-7.46c.46-.22,.96-.31,1.46-.28l37.76,2.68-13.13,7.9-41.86-2.84Z"/><polygon class="cls-30" points="696.35 630.42 708.98 624.19 741.99 626.35 730.88 632.75 696.35 630.42"/></g><g><path class="cls-33" d="M531.84,466.11l-15.81-3.21s-8.36,21.64-9.77,24.06c-1.41,2.42,23.7,9.62,23.7,9.62l1.89-30.47Z"/><path class="cls-33" d="M518.99,474.68c1.75-4.31,2.37-15.71,3.53-27.79,1.53-15.96,3.55-36.65,3.55-36.65l-11.92-2.26s-22.88,65.83-19.45,72.15,22.74,12.51,22.74,12.51l1.55-17.95Z"/><path class="cls-33" d="M536.92,398.3c-.03-1.65-.99-4.44-2.84-5.05,.31-.77-.22-1.9-.45-2.6-.8-2.5-1.76-5.15-3.66-7.04-1.51-1.5-3.6-1.91-4.9,.09-.83,1.28-1.11,3.03-1.5,4.48-.02,.08-.04,.16-.07,.25-.21-.04-.42-.09-.62-.13,.19-3.09,.58-6.16,1.27-9.19,.33-1.47,2.29-5.9,.49-7.11-1.05-.72-2.51,1.24-2.9,2.11-.58,1.32-.75,2.77-1.1,4.16-.78,3.08-1.21,6.23-1.55,9.39-.11-.01-.23-.01-.33-.02-.15-3.2,.05-6.31,.42-9.51,.16-1.37,.63-3.65-.68-4.66-.82-.64-1.19-.37-1.69,.44-.91,1.45-1,3.75-1.12,5.42-.21,2.69-.26,5.39-.3,8.1l-.6-6.52c-.1-1.12-.06-3.71-1.86-3.37-.06,.01-.1,.03-.15,.04-.9,.29-1.21,1.58-1.36,2.38-.44,2.29,0,4.64,.14,6.93,.19,3.34,2.3,21.85,2.3,21.85,0,0,.01,0,.03,.02,.34,.26,3.27,2.46,5.74,3.16,1.74,.5,4.2,1.37,5.99,.73,.09-.03,.22-.1,.36-.2,2.32-1.44,11.02-9.79,10.95-14.15Zm-8.21,1.48s-1.12-6.15-.57-10.61c.06-.54,.05-1.9,.22-2.9,.45,.9,.47,1.93,.83,2.86,.27,.67,.67,1.29,1.09,1.88,.84,1.19,1.85,2.2,2.98,3.09-.01,.05-.04,.09-.05,.14-.33,1.38,.02,3.25,.2,4.82-2.73,.27-4.7,.71-4.7,.71Z"/><path class="cls-19" d="M607.01,470.66s-15.16-2.65-15.64-2.78c-4.39-1.19-8.59-2.42-13.19-1.96-3.03,.3-6.02,.97-9.06,1.19-4.46,.31-8.66-1.52-12.95-1.29-3.75,.21-7.45,2.04-11.22,1.1-5.44-1.35-14.45-2.87-15.71-1.89s-9.41,38.98-8.75,40.53c.65,1.55,8.79,1,12.02,3.6,3.23,2.59,1.56,4.06,8.44,6.1,6.87,2.04,6.78,2.79,12.19,7.91,5.41,5.12,6.12,9.69,15.32,10.22,9.2,.53,13.45-2.03,13.9-3.13s24.66-59.59,24.66-59.59Z"/><path class="cls-47" d="M559.77,496.06c-.14-.06-.24-.19-.25-.35l-1.24-26.18c0-.22,.16-.4,.38-.42,.22,0,.4,.16,.42,.38l1.24,26.18c0,.22-.16,.4-.38,.42-.06,0-.12,0-.17-.03Z"/></g><g><rect class="cls-11" x="528.2" y="389.68" width="71.68" height="100.22"/><g id="_-2"><path class="cls-40" d="M556.97,418.14l.09,.16v.02l.14,.2,.34,.49c.04,.05,.08,.1,.12,.15,.12,.14,.24,.29,.35,.43l.03,.04,.31,.34,.08,.09,.47,.45,.19,.16,.48,.38,.1,.07s.02,.02,.03,.03c.37,.27,.76,.51,1.17,.72,.08,.04,.16,.08,.25,.12l.18,.09,.24,.11,.2,.08-.08-.09,.08,.09,.06,.03h.03l.24,.1,.23,.08s.02,0,.03,.01c.44,.15,.9,.27,1.36,.35,.52,.1,1.04,.15,1.57,.16,.18,0,.35,0,.53,0l.33-.02,.36-.03,.15-.02h.03l.11-.02,.12-.02h.03l.34-.06,.12-.02c.18-.04,.36-.08,.54-.12,.63-.16,1.25-.38,1.83-.67,.03-.01,.06-.02,.08-.03l.42-.22v-.02l.24-.13c.1-.06,.21-.12,.31-.19,.24-.17,.49-.34,.73-.51l.27-.22,.05-.04s.02-.01,.03-.02c.3-.25,.58-.53,.85-.82,.13-.14,.25-.29,.37-.43h.01c.14-.19,.27-.37,.41-.55,0-.01,0-.03,.01-.04,.02-.02,.05-.05,.07-.07,.03-.03,.04-.07,.07-.11,.01-.02,.03-.04,.05-.06h0s.02-.03,.03-.05c.13-.21,.26-.43,.39-.64,.11-.2,.2-.4,.3-.6l.05-.1,.04-.09,.14-.33c.04-.11,.09-.21,.12-.32,.1-.33,.2-.66,.29-.99h0l.12-.58,.07-.45c.02-.16,.04-.32,.05-.48,.02-.21,.02-.41,.03-.62v-.62l-.06-.7h0l-.05-.36c-.03-.15-.05-.31-.08-.46-.02-.12-.05-.24-.08-.36,0-.02,0-.04,0-.05-.05-.19-.1-.37-.15-.56-.04-.13-.09-.27-.13-.4l-.1-.28-.03-.06s-.03-.08-.04-.12c-.07-.16-.14-.33-.22-.49l-.05-.11-.03-.07-.19-.37s-.03-.05-.05-.08c-.03-.05-.06-.09-.08-.14,.01,.03,.03,.06,.04,.09-.01-.03-.03-.06-.04-.09h0l-.17-.29-.06-.1-.06-.1-.34-.48-.04-.06h0l-.06-.08-.06-.08-.04-.05-.26-.31c-.35-.4-.73-.77-1.14-1.11-.15-.13-.31-.24-.47-.37l-.25-.17-.2-.14-.15-.09-.48-.28-.12-.07h-.01l-.1-.06-.03-.02c-.13-.06-.25-.13-.38-.18-.27-.11-.55-.22-.83-.33l-.17-.06h0l-.1-.03s-.05-.02-.07-.03c-.47-.15-.95-.26-1.44-.33-.15-.02-.3-.04-.45-.06l-.42-.04h-.29l-.07-.02h-.53l-.02,.06v0l.02-.06-.75,.05c-.13,.01-.25,.02-.38,.04-.21,.03-.42,.08-.63,.11l-.52,.12s-.02,0-.03,0c-.6,.16-1.17,.38-1.73,.65h0l-.52,.26h0c-.13,.09-.27,.16-.4,.24-.07,.05-.15,.1-.22,.15l-.23,.16-.27,.19-.07,.06-.27,.21-.12,.1-.13,.12-.33,.3-.1,.11-.11,.11-.06,.07,.04,.08-.04-.08-.2,.22-.02,.02h0l-.18,.2-.05,.06-.09,.11-.07,.09h0l-.07,.09s-.08,.09-.11,.14c-.16,.23-.31,.46-.47,.69-.01,.02-.02,.05-.03,.07-.02,.03-.05,.06-.07,.1l-.02,.04-.11,.19-.07,.12-.03,.06-.13,.25-.05,.11h0l-.26,.59-.15,.39-.07,.19-.03,.08v.04l-.1,.27h0s-.02,.07-.03,.11c-.03,.11-.06,.22-.08,.33-.05,.26-.1,.52-.15,.79l-.08,.67-.02,.26v.38l-.02,.15v.42l.02,.22h0l.02,.28,.03,.32c.01,.08,.02,.17,.03,.25,.04,.24,.09,.48,.13,.72h0l.27,.98,.09,.24,.2,.51s.05,.1,.07,.15c.05,.1,.09,.2,.13,.3l.26,.49,.13,.22Z"/><path class="cls-51" d="M540.43,454.83l.25,.41,.03,.05,.34,.52c.3,.43,.59,.85,.89,1.28,.1,.13,.2,.27,.3,.4,.31,.38,.62,.75,.93,1.12l.09,.1,.81,.88,.22,.23c.41,.39,.82,.78,1.23,1.17l.51,.43,1.25,1,.26,.18s.05,.05,.08,.08c.98,.7,2,1.34,3.07,1.89,.21,.11,.43,.21,.64,.31l.47,.23,.62,.28,.52,.22-.21-.22,.21,.22,.16,.07,.08,.03,.63,.24,.6,.21s.05,.02,.08,.03c1.16,.39,2.34,.69,3.55,.92,1.35,.25,2.72,.4,4.09,.42,.46,0,.93,0,1.39-.01l.87-.04,.94-.08,.39-.05h.09l.3-.05,.33-.04h.09l.88-.16,.31-.06c.47-.1,.95-.2,1.42-.32,1.66-.42,3.26-.99,4.79-1.74,.07-.03,.15-.06,.22-.09l1.1-.57,.04-.05,.59-.34c.27-.16,.55-.31,.81-.49,.64-.44,1.27-.9,1.91-1.35l.71-.58,.13-.11s.05-.03,.07-.05c.79-.66,1.52-1.38,2.22-2.13,.34-.36,.65-.75,.98-1.12,.01,0,.02-.02,.03-.03,.36-.47,.72-.94,1.07-1.41,.02-.03,.02-.08,.03-.11,.07-.06,.14-.12,.19-.19,.07-.09,.11-.19,.17-.28,.04-.06,.08-.11,.12-.17h0s.07-.08,.09-.12c.34-.56,.69-1.11,1.01-1.69,.28-.51,.53-1.05,.79-1.58l.12-.25,.1-.24,.37-.87c.1-.28,.22-.55,.31-.83,.26-.86,.52-1.72,.77-2.58-.01,0-.02,0-.03-.01,.01,0,.02,0,.03,.01l.32-1.5,.19-1.17c.05-.42,.11-.83,.14-1.25,.04-.54,.06-1.08,.08-1.62v-1.61l-.15-1.83s0-.02,0-.03l-.13-.92c-.07-.4-.13-.8-.2-1.2-.06-.31-.14-.62-.21-.93,0-.05,0-.09-.02-.14-.13-.49-.26-.97-.4-1.46-.1-.35-.23-.7-.35-1.05l-.26-.73-.07-.15c-.04-.1-.07-.2-.11-.3-.19-.43-.38-.86-.56-1.29l-.14-.28-.07-.19-.51-.97c-.04-.07-.09-.13-.13-.2-.07-.12-.15-.24-.22-.36,.03,.08,.07,.16,.1,.25-.03-.08-.07-.16-.1-.25h0l-.45-.75-.17-.26-.17-.26-.88-1.26-.12-.16v-.03l-.17-.17-.16-.21-.1-.13-.68-.82c-.91-1.05-1.91-2.01-2.98-2.89-.4-.33-.82-.64-1.24-.95l-.65-.45-.53-.36-.39-.24-1.27-.74-.33-.18-.03-.02-.25-.13-.09-.05c-.33-.16-.65-.33-.98-.47-.72-.3-1.44-.58-2.16-.87l-.46-.15h0l-.26-.09c-.06-.02-.12-.05-.19-.07-1.23-.39-2.49-.67-3.77-.87-.39-.06-.79-.1-1.19-.14l-1.1-.09-.37-.02-.39-.02h-.19l-.93-.02h-.47l-.05,.16s-.02,.03-.03,.04c.01-.01,.02-.03,.03-.04l.05-.15-1.96,.13c-.33,.04-.66,.06-.99,.12-.55,.09-1.1,.2-1.65,.3l-1.35,.32s-.06,0-.08,.01c-1.56,.42-3.07,.99-4.52,1.69v-.02l-1.36,.7v.02c-.34,.2-.69,.4-1.03,.61-.2,.12-.38,.25-.57,.38l-.61,.41-.71,.51-.18,.15-.7,.55-.3,.26-.35,.31-.86,.79-.27,.27-.29,.28-.16,.18,.11,.2-.11-.2-.53,.57-.04,.04h0l-.46,.53-.13,.16-.24,.28-.18,.22h-.01l-.17,.23c-.1,.12-.2,.24-.28,.36-.41,.6-.82,1.19-1.22,1.79-.04,.05-.04,.13-.08,.19-.05,.09-.12,.17-.18,.25l-.06,.1-.29,.5-.18,.32-.08,.16-.34,.66-.14,.29s.03,0,.04-.01c-.01,0-.02,0-.04,.01l-.68,1.54-.38,1.03-.17,.49-.07,.21-.03,.11-.22,.71h0c-.03,.09-.06,.19-.09,.28-.08,.29-.16,.57-.22,.86-.14,.68-.27,1.37-.4,2.06-.07,.58-.14,1.17-.21,1.75l-.05,.67-.02,.42v.35l-.02,.23v1.49l.03,.56,.04-.02-.04,.02,.06,.73,.09,.84c.03,.22,.05,.45,.08,.66,.11,.62,.23,1.25,.35,1.87h0l.7,2.56,.23,.64,.51,1.33c.06,.13,.13,.25,.19,.38,.12,.26,.23,.53,.35,.8l.67,1.28,.34,.58Z"/><path class="cls-70" d="M551.96,474.35l.09,.16v.02l.14,.2,.34,.49c.04,.05,.08,.1,.12,.15,.12,.14,.24,.29,.35,.43l.03,.04,.31,.34,.08,.09,.47,.45,.19,.16,.48,.38,.1,.07s.02,.02,.03,.03c.37,.27,.76,.51,1.17,.72,.08,.04,.16,.08,.25,.12l.18,.09,.24,.11,.2,.08-.08-.09,.08,.09,.06,.03h.03l.24,.1,.23,.08s.02,0,.03,.01c.44,.15,.9,.27,1.36,.35,.52,.1,1.04,.15,1.57,.16,.18,0,.35,0,.53,0l.33-.02,.36-.03,.15-.02h.03l.11-.02,.12-.02h.03l.34-.06,.12-.02c.18-.04,.36-.08,.54-.12,.63-.16,1.25-.38,1.83-.67,.03-.01,.06-.02,.08-.03l.42-.22v-.02l.24-.13c.1-.06,.21-.12,.31-.19,.24-.17,.49-.34,.73-.51l.27-.22,.05-.04s.02-.01,.03-.02c.3-.25,.58-.53,.85-.82,.13-.14,.25-.29,.37-.43h.01c.14-.19,.27-.37,.41-.55,0-.01,0-.03,.01-.04,.02-.02,.05-.05,.07-.07,.03-.03,.04-.07,.07-.11,.01-.02,.03-.04,.05-.06h0s.02-.03,.03-.05c.13-.21,.26-.43,.39-.64,.11-.2,.2-.4,.3-.6l.05-.1,.04-.09,.14-.33c.04-.11,.09-.21,.12-.32,.1-.33,.2-.66,.29-.99h0l.12-.58,.07-.45c.02-.16,.04-.32,.05-.48,.02-.21,.02-.41,.03-.62v-.62l-.06-.7h0l-.05-.36c-.03-.15-.05-.31-.08-.46-.02-.12-.05-.24-.08-.36,0-.02,0-.04,0-.05-.05-.19-.1-.37-.15-.56-.04-.13-.09-.27-.13-.4l-.1-.28-.03-.06s-.03-.08-.04-.12c-.07-.16-.14-.33-.22-.49l-.05-.11-.03-.07-.19-.37s-.03-.05-.05-.08c-.03-.05-.06-.09-.08-.14,.01,.03,.03,.06,.04,.09-.01-.03-.03-.06-.04-.09h0l-.17-.29-.06-.1-.06-.1-.34-.48-.04-.06h0l-.06-.08-.06-.08-.04-.05-.26-.31c-.35-.4-.73-.77-1.14-1.11-.15-.13-.31-.24-.47-.37l-.25-.17-.2-.14-.15-.09-.48-.28-.12-.07h-.01l-.1-.06-.03-.02c-.13-.06-.25-.13-.38-.18-.27-.11-.55-.22-.83-.33l-.17-.06h0l-.1-.03s-.05-.02-.07-.03c-.47-.15-.95-.26-1.44-.33-.15-.02-.3-.04-.45-.06l-.42-.04h-.29l-.07-.02h-.53l-.02,.06v0l.02-.06-.75,.05c-.13,.01-.25,.02-.38,.04-.21,.03-.42,.08-.63,.11l-.52,.12s-.02,0-.03,0c-.6,.16-1.17,.38-1.73,.65h0l-.52,.26h0c-.13,.09-.27,.16-.4,.24-.07,.05-.15,.1-.22,.15l-.23,.16-.27,.19-.07,.06-.27,.21-.12,.1-.13,.12-.33,.3-.1,.11-.11,.11-.06,.07,.04,.08-.04-.08-.2,.22-.02,.02h0l-.18,.2-.05,.06-.09,.11-.07,.09h0l-.07,.09s-.08,.09-.11,.14c-.16,.23-.31,.46-.47,.69-.01,.02-.02,.05-.03,.07-.02,.03-.05,.06-.07,.1l-.02,.04-.11,.19-.07,.12-.03,.06-.13,.25-.05,.11h0l-.26,.59-.15,.39-.07,.19-.03,.08v.04l-.1,.27h0s-.02,.07-.03,.11c-.03,.11-.06,.22-.08,.33-.05,.26-.1,.52-.15,.79l-.08,.67-.02,.26v.38l-.02,.15v.42l.02,.22h0l.02,.28,.03,.32c.01,.08,.02,.17,.03,.25,.04,.24,.09,.48,.13,.72h0l.27,.98,.09,.24,.2,.51s.05,.1,.07,.15c.05,.1,.09,.2,.13,.3l.26,.49,.13,.22Z"/><path class="cls-70" d="M576.93,454l.09,.16v.02l.14,.2,.34,.49c.04,.05,.08,.1,.12,.15,.12,.14,.24,.29,.35,.43l.03,.04,.31,.34,.08,.09,.47,.45,.19,.16,.48,.38,.1,.07s.02,.02,.03,.03c.37,.27,.76,.51,1.17,.72,.08,.04,.16,.08,.25,.12l.18,.09,.24,.11,.2,.08-.08-.09,.08,.09,.06,.03h.03l.24,.1,.23,.08s.02,0,.03,.01c.44,.15,.9,.27,1.36,.35,.52,.1,1.04,.15,1.57,.16,.18,0,.35,0,.53,0l.33-.02,.36-.03,.15-.02h.03l.11-.02,.12-.02h.03l.34-.06,.12-.02c.18-.04,.36-.08,.54-.12,.63-.16,1.25-.38,1.83-.67,.03-.01,.06-.02,.08-.03l.42-.22v-.02l.24-.13c.1-.06,.21-.12,.31-.19,.24-.17,.49-.34,.73-.51l.27-.22,.05-.04s.02-.01,.03-.02c.3-.25,.58-.53,.85-.82,.13-.14,.25-.29,.37-.43h.01c.14-.19,.27-.37,.41-.55,0-.01,0-.03,.01-.04,.02-.02,.05-.05,.07-.07,.03-.03,.04-.07,.07-.11,.01-.02,.03-.04,.05-.06h0s.02-.03,.03-.05c.13-.21,.26-.43,.39-.64,.11-.2,.2-.4,.3-.6l.05-.1,.04-.09,.14-.33c.04-.11,.09-.21,.12-.32,.1-.33,.2-.66,.29-.99h0l.12-.58,.07-.45c.02-.16,.04-.32,.05-.48,.02-.21,.02-.41,.03-.62v-.62l-.06-.7h0l-.05-.36c-.03-.15-.05-.31-.08-.46-.02-.12-.05-.24-.08-.36,0-.02,0-.04,0-.05-.05-.19-.1-.37-.15-.56-.04-.13-.09-.27-.13-.4l-.1-.28-.03-.06s-.03-.08-.04-.12c-.07-.16-.14-.33-.22-.49l-.05-.11-.03-.07-.19-.37s-.03-.05-.05-.08c-.03-.05-.06-.09-.08-.14,.01,.03,.03,.06,.04,.09-.01-.03-.03-.06-.04-.09h0l-.17-.29-.06-.1-.06-.1-.34-.48-.04-.06h0l-.06-.08-.06-.08-.04-.05-.26-.31c-.35-.4-.73-.77-1.14-1.11-.15-.13-.31-.24-.47-.37l-.25-.17-.2-.14-.15-.09-.48-.28-.12-.07h-.01l-.1-.06-.03-.02c-.13-.06-.25-.13-.38-.18-.27-.11-.55-.22-.83-.33l-.17-.06h0l-.1-.03s-.05-.02-.07-.03c-.47-.15-.95-.26-1.44-.33-.15-.02-.3-.04-.45-.06l-.42-.04h-.29l-.07-.02h-.53l-.02,.06v0l.02-.06-.75,.05c-.13,.01-.25,.02-.38,.04-.21,.03-.42,.08-.63,.11l-.52,.12s-.02,0-.03,0c-.6,.16-1.17,.38-1.73,.65h0l-.52,.26h0c-.13,.09-.27,.16-.4,.24-.07,.05-.15,.1-.22,.15l-.23,.16-.27,.19-.07,.06-.27,.21-.12,.1-.13,.12-.33,.3-.1,.11-.11,.11-.06,.07,.04,.08-.04-.08-.2,.22-.02,.02h0l-.18,.2-.05,.06-.09,.11-.07,.09h0l-.07,.09s-.08,.09-.11,.14c-.16,.23-.31,.46-.47,.69-.01,.02-.02,.05-.03,.07-.02,.03-.05,.06-.07,.1l-.02,.04-.11,.19-.07,.12-.03,.06-.13,.25-.05,.11h0l-.26,.59-.15,.39-.07,.19-.03,.08v.04l-.1,.27h0s-.02,.07-.03,.11c-.03,.11-.06,.22-.08,.33-.05,.26-.1,.52-.15,.79l-.08,.67-.02,.26v.38l-.02,.15v.42l.02,.22h0l.02,.28,.03,.32c.01,.08,.02,.17,.03,.25,.04,.24,.09,.48,.13,.72h0l.27,.98,.09,.24,.2,.51s.05,.1,.07,.15c.05,.1,.09,.2,.13,.3l.26,.49,.13,.22Z"/></g></g><g><rect class="cls-37" x="539.79" y="482.4" width="5.51" height="2.75" transform="translate(1085.08 967.56) rotate(180)"/><g><path d="M537.29,465.19h10.42c4.78,0,8.72,3.85,8.72,8.63,0,4.77-3.87,8.64-8.64,8.64h-10.5c-4.77,0-8.64-3.87-8.64-8.64h0c0-4.77,3.87-8.64,8.64-8.64Z"/><rect class="cls-6" x="532.48" y="469.64" width="20.82" height="8.37" rx="3.8" ry="3.8"/></g></g><g class="cls-68"><g><polygon class="cls-52" points="666.21 639.88 666.24 645.69 678.63 646.41 678.59 639.09 666.21 639.88"/><path class="cls-52" d="M664.72,644.43l1.52,1.27-.03-5.81-1.34,.88c-.49,.32-.79,.87-.78,1.46v.87c0,.51,.24,1,.63,1.33Z"/><rect class="cls-52" x="662.72" y="641.78" width="1.64" height="1.74" transform="translate(24.07 1309.25) rotate(-90.27)"/><path class="cls-52" d="M662.66,641.83c.2,0,.37,.37,.37,.82,0,.45-.16,.82-.37,.82-.2,0-.37-.37-.37-.82,0-.45,.16-.82,.37-.82Z"/><rect class="cls-52" x="678.61" y="638.42" width="2.85" height="8.65" rx=".62" ry=".62" transform="translate(-3.06 3.26) rotate(-.27)"/><polygon class="cls-52" points="677.85 646.37 677.82 639.14 669.4 639.68 669.43 645.88 677.85 646.37"/></g></g><g><polygon class="cls-48" points="666.21 638.13 666.24 643.94 678.63 644.66 678.59 637.34 666.21 638.13"/><path class="cls-18" d="M664.72,642.68l1.52,1.27-.03-5.81-1.34,.88c-.49,.32-.79,.87-.78,1.46v.87c0,.51,.24,1,.63,1.33Z"/><rect class="cls-18" x="662.72" y="640.03" width="1.64" height="1.74" transform="translate(25.81 1307.5) rotate(-90.27)"/><path class="cls-48" d="M662.66,640.08c.2,0,.37,.37,.37,.82,0,.45-.16,.82-.37,.82-.2,0-.37-.37-.37-.82,0-.45,.16-.82,.37-.82Z"/><rect class="cls-18" x="678.61" y="636.67" width="2.85" height="8.65" rx=".62" ry=".62" transform="translate(-3.06 3.26) rotate(-.27)"/><polygon class="cls-39" points="677.85 644.62 677.82 637.39 669.4 637.93 669.43 644.13 677.85 644.62"/></g><g class="cls-68"><g><polygon class="cls-52" points="649.94 649.69 649.08 655.43 661.21 658.05 662.3 650.81 649.94 649.69"/><path class="cls-52" d="M647.77,653.95l1.31,1.49,.87-5.75-1.46,.67c-.54,.24-.91,.74-1,1.32l-.13,.86c-.08,.51,.08,1.02,.41,1.41Z"/><rect class="cls-52" x="646.05" y="651.14" width="1.64" height="1.74" transform="translate(-94.28 1194.47) rotate(-81.43)"/><path class="cls-52" d="M646.14,651.07c.2,.03,.31,.42,.24,.87-.07,.45-.29,.79-.49,.76-.2-.03-.31-.42-.24-.87,.07-.45,.29-.79,.49-.76Z"/><rect class="cls-52" x="658.84" y="653.22" width="8.65" height="2.85" rx=".62" ry=".62" transform="translate(-83.02 1212.81) rotate(-81.43)"/><polygon class="cls-52" points="660.45 657.88 661.53 650.74 653.13 649.98 652.2 656.11 660.45 657.88"/></g></g><g><polygon class="cls-48" points="650.21 647.96 649.35 653.7 661.48 656.32 662.57 649.08 650.21 647.96"/><path class="cls-18" d="M648.04,652.22l1.31,1.49,.87-5.75-1.46,.67c-.54,.24-.91,.74-1,1.32l-.13,.86c-.08,.51,.08,1.02,.41,1.41Z"/><rect class="cls-18" x="646.32" y="649.41" width="1.64" height="1.74" transform="translate(-92.34 1193.26) rotate(-81.43)"/><path class="cls-48" d="M646.41,649.34c.2,.03,.31,.42,.24,.87-.07,.45-.29,.79-.49,.76-.2-.03-.31-.42-.24-.87,.07-.45,.29-.79,.49-.76Z"/><rect class="cls-18" x="659.11" y="651.49" width="8.65" height="2.85" rx=".62" ry=".62" transform="translate(-81.08 1211.61) rotate(-81.43)"/><polygon class="cls-23" points="660.72 656.16 661.79 649.01 653.39 648.25 652.47 654.38 660.72 656.16"/></g><path class="cls-39" d="M661.95,639.86c-2.43-.12-3.39,.65-5.48,1.57-1.38,.61-2.8,.35-4.28,.44-1.31,.09-2.53,.41-3.75,.9-1.47,.6-.83,3.02,.66,2.41,2.36-.97,4.58-.53,6.99-.97,.85-.15,1.47-.45,2.21-.88,1.28-.73,2.13-1.06,3.64-.98,1.61,.08,1.6-2.42,0-2.5h0Z"/><path class="cls-23" d="M646.02,649.25c-.52-.43-1.16-1.15-1.9-1.2-.66-.05-1.01,.43-1.61,.49-1.21,.13-2.21-.97-3.26-1.37-.61-.23-3.28-.15-3.46-.6-.58-1.48-3-.84-2.41,.66,1.05,2.67,3.51,1.56,5.6,2.62,1.84,.93,3.76,1.79,5.6,.5h-1.26c.34,.18,.65,.4,.93,.66,1.23,1.02,3.01-.74,1.77-1.77h0Z"/><rect x="610.04" y="637.5" width="45.62" height="3.18" rx="1.44" ry="1.44" transform="translate(1496.26 891) rotate(150.98)"/><path class="cls-13" d="M651.38,628.21c-.29-.4-.32-.92-.09-1.36,.64-1.17,1.94-3.36,2.73-3.22,1.08,.18,.72,.28,.72,.28l1.07,.75s.08,.07,.12,.11l.91,1.17,.79,1.07c.21,.28,.1,.69-.23,.83l-4.38,1.88c-.24,.1-.51,.03-.66-.18l-.97-1.33Z"/><rect class="cls-10" x="649.81" y="628.68" width="2.44" height=".67" rx=".3" ry=".3" transform="translate(870.25 -249.3) rotate(60)"/><path class="cls-33" d="M724.26,523.59s10.25,35.64,9.86,40.31c-.39,4.67-28.6,22.53-28.6,22.53l-20.52-50.96,39.26-11.88Z"/><path class="cls-33" d="M734.24,563.08s4.16,20.14,.29,27.07c-4.23,7.59-83.13,35.75-83.13,35.75l-2.7-12.66,60.02-52.28,25.51,2.13Z"/><path class="cls-33" d="M653.2,613.18s-13.74-.67-19.08,2.29-8.48,15.02-9.6,16.93c-1.13,1.91-.87,7.88,1.97,8.27,2.84,.39,11.45-8.1,17.23-10.65,5.79-2.56,12.18-4.17,12.18-4.17l6.23-10.26-8.93-2.4Z"/><path class="cls-4" d="M671.84,504.41l1.73,8.3c1.73,8.3,10.29,21.45,10.29,21.45"/><polygon class="cls-30" points="619.1 640.34 514.99 635.85 548.04 619.08 643.45 622.28 619.1 640.34"/><g class="cls-67"><path class="cls-52" d="M561.95,632.6l8.14-.98c1.32-.16,2.63-.32,3.95-.47,.35-.04,1.22,.07,1.5-.07,.24,.09,.27-.03,.1-.36,.02-.44-.04-.5-.16-.18-.19,.14-.44,.82-.54,1.01-.5,.93,0,1.83,.9,2.2,4.46,1.83,8.54-1.3,12.97-1.34,1.93-.02,1.93-3.02,0-3-2.17,.02-4.17,.68-6.22,1.27s-3.96,.99-5.95,.18l.9,2.2c.73-1.36,1.64-2.84,.24-4.14-1.16-1.08-2.79-.88-4.23-.71l-11.59,1.39c-1.89,.23-1.92,3.23,0,3h0Z"/></g><polyline class="cls-20" points="666.04 465.84 683.86 479.74 640.08 500.64 640.76 498.67"/><polyline class="cls-20" points="618.79 472.95 636.75 467.78 640.08 500.64 640.08 500.64"/><g><polygon class="cls-58" points="350.4 525.31 349.61 523.74 294.39 551.67 294.49 551.87 336.11 634.92 340.96 635.15 297.23 552.47 350.4 525.31"/><path class="cls-30" d="M330.01,630.71h44.57c3.66,0,6.62,2.97,6.62,6.62v1.36c0,.71-.58,1.29-1.29,1.29h-55.24c-.71,0-1.29-.58-1.29-1.29v-1.36c0-3.66,2.97-6.62,6.62-6.62Z"/><path class="cls-42" d="M381.46,536.62c-3.55-12.17-16.16-19.36-28.49-16.09-12.32,3.27-19.72,15.76-16.77,28.09l45.26-12Z"/></g><line class="cls-2" x1="409.99" y1="661.37" x2="409.99" y2="794.07"/><line class="cls-2" x1="253.6" y1="649.69" x2="253.6" y2="794.07"/><polyline class="cls-2" points="858.33 792.9 858.33 792.9 858.33 627.77 858.33 792.9"/><polyline class="cls-16" points="713.6 792.9 713.6 668.6 713.6 792.9"/><circle class="cls-31" cx="636.84" cy="514.3" r="2.49"/><circle class="cls-31" cx="634.35" cy="530.97" r="2.49"/><g><path class="cls-50" d="M643.01,625.26l2.9-2.81c.7-.68,1.03-1.67,.88-2.64l-20.61-129.89c-.23-1.42-1.42-2.48-2.84-2.52l-185.15-5.31c-.56-.02-1.1,.13-1.58,.41l-6.59,3.91,213,138.84Z"/><path d="M460.19,616.12l182.82,9.15-22.1-133.47-190.9-5.38,27.43,127.34c.28,1.32,1.41,2.29,2.75,2.35Z"/><path class="cls-56" d="M552.83,581.33h-25.76l5.93,63.93h25.76l-5.93-63.93Zm-7.31,55.32c-2.1,.19-3.96-1.38-4.15-3.5l-2.45-28.13c-.19-2.13,1.37-4,3.48-4.19,.11,0,.22,0,.33,0,1.97,0,3.65,1.51,3.82,3.52l2.45,28.12c.19,2.14-1.37,4.01-3.48,4.19Z"/><polygon class="cls-56" points="497.45 649.32 522.48 638.42 593.82 641.38 576.04 651.98 497.45 649.32"/><path class="cls-50" d="M556.3,619.24c-.25,0-.47-.19-.49-.45l-3.43-36.96h-24.76l3.35,36.14c.03,.27-.17,.52-.45,.54-.27,.02-.51-.18-.54-.45l-3.4-36.68c-.01-.14,.03-.28,.13-.38,.09-.1,.23-.16,.37-.16h25.76c.26,0,.47,.2,.49,.45l3.47,37.41c.02,.27-.17,.52-.45,.54-.02,0-.03,0-.05,0Z"/><path class="cls-50" d="M576.04,597.39h-.02l-21.71-.97c-.27-.01-.48-.25-.47-.52,.01-.27,.26-.52,.52-.48l21.11,.94-4.6-30.59-65.71-2.43,5.13,30.35,18.07,.68c.27,.01,.49,.24,.48,.52,0,.27-.24,.47-.51,.48l-18.47-.69c-.23,0-.43-.18-.47-.42l-5.3-31.36c-.03-.15,.02-.3,.12-.41,.1-.11,.23-.17,.39-.17l66.72,2.47c.24,0,.44,.19,.47,.42l4.75,31.6c.02,.15-.02,.3-.12,.41-.09,.11-.23,.17-.37,.17Z"/><path class="cls-50" d="M477.29,496.59h-.02l-35.81-1.25c-.27,0-.49-.24-.48-.52,0-.27,.24-.47,.51-.48l35.81,1.25c.27,0,.49,.24,.48,.52,0,.27-.23,.48-.49,.48Z"/><path class="cls-50" d="M478.28,501.58h-.02l-35.81-1.25c-.27,0-.49-.24-.48-.52,0-.27,.24-.45,.51-.48l35.81,1.25c.27,0,.49,.24,.48,.52,0,.27-.23,.48-.49,.48Z"/><path class="cls-50" d="M479.27,506.57h-.02l-35.81-1.25c-.27,0-.49-.24-.48-.52,0-.27,.25-.47,.51-.48l35.81,1.25c.27,0,.49,.24,.48,.52,0,.27-.23,.48-.49,.48Z"/><path class="cls-50" d="M480.26,511.56h-.02l-35.81-1.25c-.27,0-.49-.24-.48-.52,0-.27,.25-.45,.51-.48l35.81,1.25c.27,0,.49,.24,.48,.52,0,.27-.23,.48-.49,.48Z"/><path class="cls-50" d="M482.23,521.53h-.02l-35.81-1.25c-.27,0-.49-.24-.48-.52,0-.27,.24-.45,.51-.48l35.81,1.25c.27,0,.49,.24,.48,.52,0,.27-.23,.48-.49,.48Z"/><path class="cls-50" d="M483.22,526.52h-.02l-35.81-1.25c-.27,0-.49-.24-.48-.52,0-.27,.24-.48,.51-.48l35.81,1.25c.27,0,.49,.24,.48,.52,0,.27-.23,.48-.49,.48Z"/><path class="cls-50" d="M481.25,516.54h-.02l-35.81-1.25c-.27,0-.49-.24-.48-.52,0-.27,.25-.48,.51-.48l35.81,1.25c.27,0,.49,.24,.48,.52,0,.27-.23,.48-.49,.48Z"/><path class="cls-50" d="M488.03,611.56s-.1,0-.15,0l-20.1-.73c-1.92-.07-3.55-1.51-3.86-3.43h0l-.03-.18c-.2-1.23,.15-2.47,.97-3.4,.82-.93,2-1.44,3.22-1.38l20.13,.92c1.9,.09,3.51,1.52,3.83,3.41,.21,1.22-.14,2.46-.95,3.39-.78,.89-1.88,1.4-3.06,1.4Zm-23.14-4.33c.24,1.45,1.47,2.54,2.92,2.59l20.1,.73c.93,.05,1.81-.35,2.43-1.06,.61-.71,.88-1.64,.72-2.57-.24-1.43-1.46-2.52-2.9-2.59l-20.13-.92c-.93-.03-1.82,.34-2.44,1.04-.62,.71-.89,1.64-.73,2.57l.03,.18Z"/><path class="cls-50" d="M616.55,503.56h0l-32.42-.44c-.22,0-.41-.15-.47-.37l-1.68-6.23c-.04-.15,0-.31,.09-.44,.1-.12,.25-.2,.4-.19l33.17,.73c.24,0,.44,.18,.48,.42l.93,5.94c.02,.15-.02,.29-.11,.4-.09,.11-.23,.17-.37,.17Zm-32.04-1.44l31.46,.43-.77-4.95-32.1-.71,1.41,5.22Z"/></g></g></g></g></g></g></g></g></g></svg>