<?xml version="1.0" encoding="UTF-8"?><svg id="Layer_2" xmlns="http://www.w3.org/2000/svg" xmlns:xlink="http://www.w3.org/1999/xlink" viewBox="0 0 1393.29 941.92"><defs><style>.cls-1{fill:none;}.cls-2{clip-path:url(#clippath);}.cls-3{fill:#f7a186;}.cls-4{fill:#020202;}.cls-5{fill:#009047;}.cls-6{fill:#f5f5f5;}.cls-7{fill:#fdd912;}.cls-8{fill:#e6595a;}.cls-9,.cls-10,.cls-11{fill:#fff;}.cls-12{fill:#f3865c;}.cls-13{fill:#f1f1f1;}.cls-14{fill:#ee805d;}.cls-15{fill:#99999a;}.cls-16{fill:#322110;}.cls-17{fill:#8e9093;}.cls-18{fill:#cdcfcf;}.cls-19{fill:#ac765a;}.cls-20{fill:#cfcfcf;}.cls-21{fill:#dcdcdc;}.cls-22{fill:#dfab7f;}.cls-23{fill:#252730;}.cls-24{fill:#414141;}.cls-25{fill:#145f8e;}.cls-26{fill:#362d29;}.cls-27{fill:#1b75b7;}.cls-28{fill:#545454;}.cls-29{fill:#26a7df;}.cls-30{fill:#485a7e;}.cls-31{fill:#3a271f;}.cls-32{fill:#38af4a;}.cls-33{fill:#838080;}.cls-34{fill:#4b4848;}.cls-35{clip-path:url(#clippath-1);}.cls-10{opacity:.33;}.cls-11{opacity:.48;}</style><clipPath id="clippath"><rect class="cls-1" x="42.1" width="1143.94" height="787.29"/></clipPath><clipPath id="clippath-1"><rect class="cls-1" x="0" y="174.11" width="1239.58" height="619.65" transform="translate(1239.58 967.87) rotate(-180)"/></clipPath></defs><g id="Layer_1-2"><g class="cls-2"><g class="cls-35"><g><g><path class="cls-3" d="M496.84,375.87s-4.89-26.15-9.53-30.42c-4.64-4.27-10.5-2.44-15.75,.85-5.25,3.3-4.52,12.21-5.13,15.63-.61,3.42-.06,10.26,5.37,17.34,1.5,1.96,11.34,9.58,11.34,9.58l13.69-12.99Z"/><path class="cls-3" d="M706.68,378.95s22.98-1.03,32.87,10.08c9.89,11.11,14.94,51.4,18.6,74.11,3.66,22.71,11.07,87.56,11.07,87.56l-37.9-9.21s-22.54-69.56-22.9-71.39c-.37-1.83-.73-57.87,0-62.26,.73-4.4-1.74-28.89-1.74-28.89Z"/><path class="cls-3" d="M623.81,367.81s-20.54-.96-34.06,5.23c-13.53,6.19-32.76,37.44-45.25,56.75-12.49,19.31-29.62,52.59-29.62,52.59l38.4,6.82s32.87-31.5,33.94-33.02c1.07-1.53,23.97-52.68,25.07-57,1.1-4.32,11.52-31.37,11.52-31.37Z"/><path class="cls-3" d="M562,521.89c.78,2.21,1.96,4.41,3.72,6.55,3.71,4.56-2.75,10.42,2.54,13.2,9.79,5.15,17.89,13.45,27.09,19.58,10.45,6.95,20.94,13.85,31.01,21.35,11.43,8.51,23.35,17.58,37.43,21.09,.48-1.7,3.14-35.12,3.69-36.79,4-12.44,4.14-25.44,11.51-36.48,8.94-13.41,14.52-11.46,21.57-26.02,9.24-19.1,15.69-39.12,19.27-59.67,3-17.16,3.98-34.69,2.94-52.39-.41-6.92-3.77-11.46-10.78-12.72-6.67-1.2-13.6-.75-20.44-.69-.48,.01-.98,.01-1.47,.01-1.76,.01-3.38,.78-5.12,.67-7.65-.47-19.5-.21-26.54-3.5-9.27-4.37-19.24-7.13-29.51-8.15-.04,0-.09-.01-.13-.01-.45-.04-.91-.09-1.36-.12-11.66-1-24.8-.15-35.45,4.94-9.77,4.67-14.21,13.83-16.77,23.9-2.42,9.48-4.19,19.13-5.41,28.86-2.73,21.36-2.9,43.1-2.02,64.27,0,.13,.01,.28,.01,.41,.34,7.96-.98,16.04-2.86,23.81-.98,4.01,2.23,.66,.94,4.57-.64,1.93-4.47,1.6-3.85,3.33Z"/><path class="cls-27" d="M433.47,610.21c2.11-6.58,5.98-11.39,10.5-15.79,10.1-9.83,20.56-19.36,32.66-25.45,10.03-5.05,18.91-12.12,28.71-17.65,8.62-4.87,17.97-7.36,27.17-10.13,4.75-1.43,9.37-3.32,14.08-4.84,4.42-1.43,8.84-.01,13.26-1.09,3.46-.84,6.44-3.37,9.1-6.02,2.37-2.37,4.97-4.08,7.64-5.65,2.03,.95,2.6,7.96,4.56,9.15,5.21,3.13,8.55,3.31,13.7,6.6,4.58,2.93,9.27,4.69,14.44,8.05,4.97,3.24,9.95,6.69,15.37,8.51,4.93,1.66,9.81,3.17,14.55,5.52,4.6,2.29,9.04,4.96,13.59,7.39,2.51,1.34,5.04,2.59,7.65,3.65,2.34,.95,4.81,1.4,7.14,2.34,3.71,1.51,4,6.08,3.86,10.21-.25,7.42-1.97,14.94-3.08,22.23-1.18,7.73-2.36,15.46-3.54,23.18-.87,11.54-3.72,22.82-8.45,33.03-3.23,6.96-7.31,13.76-12.48,18.88-5.34,5.3-11.6,7.5-18.32,9.15-18.27,4.48-35.98,10.46-54.69,11.99-20.25,1.66-40.57,.42-60.85,1.06-19.12,.6-39.17,.71-55.82-11.84-5.67-4.27-10.31-11.06-11.55-19.03-.81-5.25,.01-10.37,1.78-15.08-7.74-4.95-4.68-13.93-5.38-24.51-.5-7.62-7.91-16.74-5.61-23.87Z"/><path class="cls-3" d="M730.68,539.29s3.74,12.51,7.68,29.6c3.94,17.09,25.73,79.85,25.73,79.85h19.41s-3.32-72.74-7.47-91.79c-4.15-19.05-15.62-52.97-15.62-52.97l-19.96,16.27-9.77,19.05Z"/><path class="cls-3" d="M550.85,477.53s-.7-10.02-6.82-26.46c-6.12-16.44-48.24-76.71-48.24-76.71l-15.63,2.05s18.76,72.97,25.35,91.32c6.59,18.35,17.89,34.58,27.1,35.34,9.21,.76,20.67-13.86,20.67-13.86l-2.42-11.68Z"/><path class="cls-31" d="M639.47,323.94c1.18,2.98,.27,3.41-.33,5.7-.43,1.6-.47,3.22-.09,4.85,.8,3.4,3.21,6.32,6.03,8.29,4.15,2.9,9.32,3.75,14.11,4.99,5.44,1.41,10.42,3.88,15.59,6.01,2.43,1,5.14,2.27,7.98,3.4,1.7,.04,3.41,.09,5.1,.3,4.82,.6,7.7,.35,12.02-2.17,2.72-1.59,4.26-4.09,6.77-5.91,3.53-2.55,6.59-3.51,8.4-8.21,.86-2.22,1.45-4.42,2.34-6.6,1.87-.38,3.99-.5,4.91-1.19,.9-.67,1.04-1.75,1.79-2.44,1.85-1.71,3.62-1.08,5.75-1.46,1.31-.24,2.88-.86,3.37-2.23,.69-1.92-1.21-3.61-1.6-5.35-.76-3.37,.76-6.89,.74-10.28-.05-6.37-7.07-14.32-10.9-19.05-.07-.23-.14-.45-.19-.69-.08-.36-.35-.51-.63-.52-.06-.13-.11-.26-.12-.37-.18-1.4-.54-2.76-1.23-3.99-1.74-3.1-5.28-3.9-7.78-6.17-2.62-2.39-4.2-5.77-7.14-7.84-.61-.43-1.24-.77-1.89-1.04,2.9-.97,5.05-2.66,4.78-5.64-.09-.95-1.24-2.06-1.45-3.14-.2-1.05,.11-2.15,.04-3.21-.08-1.28-.17-2.32-.82-3.48-1.6-2.85-4.9-3.92-7.88-4.6-6.04-1.37-14.13-1.68-14.68,6.3-.16,2.31-.71,5.16,0,7.5-2.68-1.22-5.39-1.78-8.38-1.19-5.32,1.05-11.44,4.08-15.16,8.44-.71,.13-1.41,.28-2.12,.46-5.06,1.31-6.59,2.83-8.39,7.63-1.34,3.57-2.35,6.49-5.23,9.07-1.52,1.36-2.22,2.54-2.59,4.58-.49,2.74-.5,5.64-.24,8.51-3.91,5.09-4.99,12.11-2.32,18.1,.4,.91,1.1,1.73,1.46,2.63Z"/><path class="cls-7" d="M699.67,358.64c.04-2.73-.29-7.1,1.63-9.28,1.97-2.24,4.06-.58,5.3,1.44,2,3.26,2.58,7.22,2.58,10.99,0,2.14,.02,4.3-.38,6.41-.19,1-.43,2.22-1.11,3.03-.46,.55-2.3,1.65-2.26,.11,.05-1.67,.26-3.35,.26-5.02,.03-1.05,.07-2.11,.05-3.16-.01-1.38-.06-2.76-.15-4.14-.04-.64,.01-1.55-.02-2.43-.12-1.01-.2-2.62-1.56-2.7-.49-.03-.98,.22-1.23,.64-.19,.31-.25,.69-.29,1.06-.56,4.95,.18,10.25,.49,15.2,.01,.2,.02,.41-.05,.6-.12,.31-.45,.5-.78,.54-.71,.08-1.37-.43-1.69-1.07-.32-.63-.37-1.36-.42-2.07-.22-3.34-.42-6.69-.36-10.04v-.08Z"/><path class="cls-9" d="M704.66,348.47c-2.41,1.86-4.84-1.55-3.7-3.8,.6-1.19,2.18-1.88,3.37-1.26,.77,.4,1.23,1.26,1.38,2.11,.12,.7,.06,1.46-.3,2.08-.22,.37-.47,.66-.75,.87Z"/><g><path class="cls-30" d="M441.47,329.52c-.06,3.05,1.71,44.22,2.85,46.62,1.14,2.4,10.34,4.23,16.9,3.65,9.36-.83,13.06-3.07,14.25-4.58,1.19-1.5,2.95-42.64,3.16-45.31,.17-2.13-37.1-2.92-37.15-.39Z"/><path class="cls-30" d="M473.41,372.86c-6.81-.9-11.37-9.12-10.16-18.34,1.21-9.22,7.75-15.98,14.55-15.09,6.81,.9,11.37,9.12,10.16,18.34-.57,4.33-2.31,8.28-4.91,11.1-2.44,2.66-5.38,4.07-8.39,4.07-.42,0-.84-.03-1.26-.08Zm-6.03-17.8c-.9,6.82,2.11,13.08,6.57,13.67,2.05,.27,4.2-.68,6.04-2.68,2.02-2.2,3.39-5.33,3.84-8.83,.9-6.82-2.11-13.08-6.57-13.67-.23-.03-.45-.04-.68-.04-4.23,0-8.35,5.08-9.2,11.55Z"/><g><path class="cls-11" d="M419.22,273.2c.12,3.91,2.58,7.21,5.96,8.98,4.36,2.28,9.08,3.31,13.22,6.15,2.83,1.93,5.3,4.26,7.45,6.87-.03,0-.05-.02-.08-.03-2.7-.84-6.92-.98-6.71,2.89,.29,5.47,7.85,6.45,11.12,9.29,4.84,4.21,7.07,11.6,9.67,17.25,.32,.69,1.36,.31,1.36-.37,.07-6.95-2.91-16.63-6.54-22.51-1.62-2.64-4.12-4.53-5.95-7-1.83-2.47-2.7-5.38-4.03-8.12-3.68-7.62-11.71-17.32-20.87-18.05-3.2-.26-4.71,1.57-4.62,4.66Z"/><path class="cls-11" d="M449.27,282.74c-.41,1.38,.6,2.75,1.54,3.84,2.77,3.19,4.66,6.12,6.46,9.98,2.89,6.18,8.12,2.22,5.94-3.12-1.74-4.26-5.66-12.4-11.09-12.5-.51,0-1.04,.11-1.5,.33-.63,.3-1.14,.81-1.34,1.48Z"/></g></g><path class="cls-3" d="M497.69,379.51s-4.64-21.37-8.67-24.3c-4.03-2.93-7.81-4.64-9.77-3.17-1.95,1.47,1.22,3.78,1.71,7.2,.49,3.42-.81,17.16-.81,17.16,0,0,15.58,2.62,16.56,2.86l.98,.24Z"/><path class="cls-25" d="M660.8,582.6c.29,0,.57-.17,.68-.46,.15-.37-.03-.8-.41-.95-.07-.03-6.88-2.71-29.37-9.24-22.38-6.5-68.96-30.83-69.43-31.08-.36-.18-.8-.05-.99,.31-.19,.36-.05,.8,.31,.99,.47,.24,47.19,24.65,69.7,31.19,22.38,6.5,29.17,9.17,29.24,9.2,.09,.03,.18,.05,.27,.05Z"/><path class="cls-3" d="M764.09,648.73s2.93,12.56,5.13,15.13c2.2,2.56,21.79,4.4,29.85,4.21,8.06-.18,8.61,.37,9.52-2.01,.92-2.38-12.82-3.66-12.82-3.66,0,0,6.04-5.22,12.09-3.99,6.04,1.24,16.66,7.83,19.96,7.28,3.3-.55-1.65-8.79-5.31-11.17-3.66-2.38-14.31-7.87-20.16-8.24-5.85-.37-18.85,2.45-18.85,2.45l-10.44-5.93-8.97,5.93Z"/><path class="cls-14" d="M721.7,459.11c.25,0,.49-.13,.63-.36l8.99-15.02c.21-.35,.1-.8-.25-1-.34-.21-.8-.1-1,.25l-8.98,15.02c-.21,.35-.1,.8,.25,1,.12,.07,.25,.1,.38,.1Z"/><path class="cls-14" d="M643.31,439.46c.28,0,.55-.16,.67-.44l3.82-8.67c.16-.37,0-.8-.37-.97-.37-.17-.8,0-.97,.37l-3.82,8.67c-.16,.37,0,.8,.37,.97,.1,.04,.2,.06,.3,.06Z"/><path class="cls-14" d="M576.56,418.82c.4,0,.73-.33,.73-.73v-8.79c0-.4-.33-.73-.73-.73-.4,0-.73,.33-.73,.73v8.79c0,.4,.33,.73,.73,.73Z"/><path class="cls-14" d="M549.41,469.65c.09,0,.18-.02,.27-.05,.37-.15,.56-.58,.41-.95l-10.2-25.56c-.15-.37-.58-.56-.95-.41-.37,.15-.56,.58-.41,.95l10.2,25.56c.11,.29,.39,.46,.68,.46Z"/><g><path class="cls-34" d="M548.64,525.42c1.66,4,7.37,6.75,11.08,8.22,5.39,2.14,11.12,3.6,16.92,4.85,1,.22,2.01,.42,3.02,.63,4.95,1.03,9.93,1.96,14.74,3.09,1.73,.41,3.47,.82,5.2,1.25,10.15,2.48,20.25,5.22,30.11,8.67,.29,.09,.57,.19,.86,.29,6.45,2.29,12.78,4.89,18.93,7.9,6.99,3.4,13.51,5.13,20.36,5.96,4.35,.54,8.83,.73,13.65,.79,3.25,.03,6.59,.15,9.76,.95,1.47,.38,4.41,2.27,5.85,1.96,3.96-.84,3.69-9.8,3.63-12.63-.03-1.32,0-2.61,.07-3.85,.21-4.04,.91-7.78,2.17-11.71,.21-.67,.44-1.36,.69-2.05,1.86-5.17,3.24-10.09,3.71-15.51,.04-.56,.12-1.1,.19-1.63,.72-4.67,2.67-8.85,3.63-13.52,.57-2.72,1.1-5.45,1.58-8.19h.01c.6-3.41,1.17-6.81,1.73-10.23,.73-4.48,1.44-8.97,2.02-13.46,.22-1.68,40.03-8.32,40.22-10.02,.28-2.52-8.36-55.95-9.55-58.4-2.15-4.48-5.24-21.46-20.39-27.55-3.34-1.34-18.39-3.25-19.1-3.31-4.59-.37-15.47,.62-19.67,.98-.41,.03-1.63,9.86-.82,14.81-.5,3.33,.58,12.87,.66,10.47,.28-8.44,.82-16.88,1.63-25.29-.48,.01-.98,.01-1.47,.01-.79,8.32-1.33,16.64-1.61,24.99-.07,2.45-.15,4.89-.18,7.34-1.42,1.66-5.9,6.42-10.21,10.93-4.23,4.44-8.34,8.63-9.2,9.38-1.01,.85-2.05,1.67-3.15,2.45h0c-6.56,4.7-14.53,8.1-22.12,10.27-3.87,1.1-3.91,1.33-6.21-1.85-1.3-1.79-2.37-3.85-3.4-5.86-.37-.69-.72-1.38-1.07-2.05-.4-.73-3.43-7.69-6.7-15.18-1.89-4.33-3.85-8.85-5.44-12.46-1.78-4.05-1.97-8.61-.54-12.8,1.43-4.17,2.83-8.35,4.22-12.53,1.51-4.53,2.99-9.07,4.44-13.61-.04,0-.09-.01-.13-.01-.45-.04-.91-.09-1.36-.12-9.15-1.1-19.79,.29-23.09,.97-8.57,1.75-14.6,1.9-22.7,10.14-5.79,2.68-9.32,10.3-13.77,16.07-3.42,4.43-8.88,11.22-11.79,16.95-1.54,3.03,22.87,8.11,19.97,9.9-1.89,5.01-2.51,10.31-3.74,15.5-.13,.66-.31,1.32-.48,1.98-1.2,4.41-3.35,8.5-4.81,12.82-.4,1.2-.75,2.42-1.01,3.68-1.36,6.58-1.85,13.19-3.85,19.57-.25,.82-.54,1.64-.85,2.45-.7,1.83-1.49,3.65-2.33,5.46-.25,.79-.47,1.6-.67,2.42-.56,2.27-1.01,4.53-1.49,6.8-.66,3.15-1.35,6.3-2.34,9.41-3.05,9.57-6.67,21.43-5.82,23.5Z"/><path class="cls-28" d="M675.5,459.07c4.18,4.91,10.33,7.28,15.46,10.94,6.72,4.81,8.25,11.75,11.13,18.99,2.02,5.07,5.19,10.11,10.8,11.57,.64,.16,1.27,.26,1.9,.32h.01c.6-3.41,1.17-6.81,1.73-10.23,.73-4.48,1.44-8.97,2.02-13.46-.32-.45-.66-.89-1.01-1.32-2.14-2.59-4.7-3.94-7.81-5.05-5.08-1.83-8.29-4.38-11.35-8.82-3.28-4.76-5.79-10.37-10.65-13.79-3.82-2.68-9.82-4.03-13.74-.73-3.84,3.24-1.14,8.47,1.51,11.57Z"/><path class="cls-28" d="M711.65,421.21c4.18,4.91,10.33,7.28,15.46,10.94,6.72,4.81,8.25,11.75,11.13,18.99,2.02,5.07,5.19,10.11,10.8,11.57,.43,.11,1.62,.29,2.54,.42,.66,.09,1.32,.12,1.98,.08l3.89-.19c.55,0,1.01-.49,.89-1.03-.67-3.07-.99-6.2-1.46-9.31-.67-4.49-1.4-8.97-2.17-13.35-.32-.45-.66-.89-1.01-1.32-2.14-2.59-4.7-3.94-7.81-5.05-5.08-1.83-8.29-4.38-11.35-8.82-3.28-4.76-5.79-10.37-10.65-13.79-3.82-2.68-9.82-4.03-13.74-.73-3.84,3.24-1.14,8.47,1.51,11.57Z"/><path class="cls-28" d="M678.07,422.18c1.13,.28,2.26,.53,3.28,.89,5.71,2.05,10.24,6.3,13.02,11.63,1.66,3.16,3.19,7.05,6.92,8.22,2.5,.79,5.18,.05,7.21-1.52l.13-1.35c-2.97-4.08-6.61-13.54-10.29-18.06-2.94-3.62-4.94-7.72-8.61-10.61,.04-2.4,.1-4.79,.18-7.19-.48-.12-.97-.21-1.45-.28-.02,.76-.05,1.52-.07,2.28-.09,3.34-1.4,6.52-3.68,8.96-1.92,2.06-4.31,4.58-6.64,7.02Z"/><path class="cls-28" d="M638.53,463.79c4.25,3.05,6.43,7.24,9.07,11.6,3.3,5.46,9.46,12.13,16.31,12.6,4.79,.32,8.8-3.37,7.44-8.29-1.1-3.98-4.67-6.45-7.75-8.83-3.76-2.92-7.11-6.29-8.82-10.81-1.89-5-.86-9.79,2.65-13.71,2.18-2.45,4.94-4.42,6.61-7.3,.91-1.58,1.47-3.28,1.68-5.03-6.56,4.69-14.53,8.09-22.12,10.26-3.87,1.1-3.91,1.33-6.21-1.85-1.3-1.79-2.37-3.85-3.4-5.86-3.03,3.08-5.42,6.84-6.12,10.97-1.45,8.59,4.73,12,10.67,16.25Z"/><path class="cls-28" d="M687.29,527.74c3.27,4.19,7.02,8.04,11.53,10.9,1.68,1.05,3.87,2.29,6.17,3.16,.21-.67,.44-1.36,.69-2.05,1.86-5.17,3.24-10.09,3.71-15.51,.04-.56,.12-1.1,.19-1.63-1.8-.85-3.33-1.74-3.69-2.01-2.81-2.07-4.85-4.81-6.33-7.96-2.45-5.17-3.75-11.08-7.78-15.35-5.32-5.64-15.57-5.35-16.92,3.53-1.45,9.63,6.92,19.88,12.44,26.91Z"/><path class="cls-28" d="M650.72,546.88c3,4.66,8.44,5.95,12.89,8.72,3.75,2.34,4.94,5.26,5.92,9.43,.1,.42,.21,.84,.32,1.25,4.35,.54,8.83,.73,13.65,.79,3.25,.03,6.59,.15,9.76,.95,1.47,.38,4.41,2.27,5.85,1.96,3.96-.84,3.69-9.8,3.63-12.63-.03-1.32,0-2.61,.07-3.85-.69-.97-1.49-1.89-2.42-2.74-4.66-4.31-10.58-4.32-16.51-5.1-4.79-.62-8.16-2.43-11.65-5.71-1.88-1.76-3.72-3.62-6.04-4.82-2.55-1.33-5.45-1.76-8.29-1.76-2.17-.01-5.83-.18-7.66,1.29-3.34,2.65-1.39,9.33,.47,12.22Z"/><path class="cls-28" d="M613.51,511.17c3.88,5.33,10.42,10.84,17.13,11.91,4.7,.75,8.29-2.15,12.85-2.49,3.66-.26,7.34,.51,11,.06,5.54-.67,10.3-4.41,9.27-10.46-1.17-6.97-7.49-10.36-13.39-12.88-4.26-1.82-7.87-4.23-11.85-6.43-3.57-3.72-7.75-6.74-13.07-7.49-6.78-.97-12.66,2.81-15.09,9.13-2.46,6.4-.78,13.24,3.15,18.65Z"/><path class="cls-28" d="M583.26,522.43c4,5.42,9.21,9.82,13.14,15.28,1.3,1.82,2.36,3.72,3.19,5.74,10.15,2.48,20.25,5.22,30.11,8.67-1.73-3.55-2.24-7.12-2.7-11.06-.7-6.15-2.93-10.17-9.19-11.72-4.07-1.01-7.78-1.48-10.84-4.75-2.42-2.58-3.91-5.82-5.41-8.98-2.34-4.89-5.01-10.17-10.43-12.17-4.44-1.64-9.43-.37-11.4,4.23-2.21,5.17,.44,10.58,3.52,14.75Z"/><path class="cls-28" d="M573.04,387.48c-1.25,1.75,4,1.44,5.77,3.17,2.53,2.47,4.16,5.64,5.8,8.73,2.56,4.79,5.45,9.94,10.96,11.7,4.51,1.44,9.44-.05,11.2-4.73,1.98-5.26-.9-10.55-4.16-14.58-4.23-5.24-9.64-9.4-13.8-14.69-.69-.88-1.32-1.78-1.89-2.71,0,0-6.69,3.03-13.87,13.11Z"/><path class="cls-28" d="M548.64,525.42c1.66,4,7.37,6.75,11.08,8.22,5.39,2.14,11.12,3.6,16.92,4.85-.67-2.9-1.66-5.74-2.97-8.47-3.6-7.44-10.27-12.75-13.7-20.28-1.8-3.97-2.77-8.26-2.96-12.61-.06-1.52-.03-3.09-.2-4.62-.66,3.15-1.35,6.3-2.34,9.41-3.05,9.57-6.67,21.43-5.82,23.5Z"/><path class="cls-28" d="M562.14,475.39c.64,.76,1.25,1.63,1.74,2.71,2.11,4.5,2.75,10.46,6.43,14.09,1.25,1.23,2.58,1.68,4.26,1.17,3.56-1.1,5.54-4.18,9.61-4.44,4.67-.32,10.62,5.22,15.08,1.96,1.63-1.17,1.82-2.97,2.1-4.81,.6-3.96,2.62-5.29,5.29-7.81,3.09-2.92,4.03-6.68,1.63-10.43-2.9-4.5-8.53-5.33-13.41-6.04-9.54-1.38-20.32-3.6-27.87-9.67-.4,1.2-.75,2.42-1.01,3.68-1.36,6.58-1.85,13.19-3.85,19.57Z"/><path class="cls-28" d="M572.3,437.34c2.46,.63,5.01,.85,7.41,1.85,2.27,.94,4.32,2.31,6.29,3.78,5.44,4.06,13.51,12.1,20.99,8.15,9.46-5.03-5.58-13.07-8.76-15.88-3.49-3.08-6.52-6.6-9.05-10.44-2.86-4.35-8.63-5.74-13.06-3.01l-.09,.05c-1.89,5.01-2.51,10.31-3.74,15.5Z"/><path class="cls-28" d="M689.1,391.42c2.46,.63,4.14,.81,6.55,1.8,2.27,.94,4.32,2.31,6.29,3.78,5.44,4.06,13.51,12.1,20.99,8.15,9.46-5.03-5.58-13.07-8.76-15.88-5.85-5.16-10.35-4.04-13.38-11.13-3.34,.18-5.94,0-10.71,.78-1.41,5.01-1.03,8.1-.97,12.5Z"/></g><path class="cls-3" d="M637.92,373.58s7.82,6.89,16.89,12.32c9.05,5.42,22.68,2.15,22.68,2.15l.35-1.01,.25-.7,.63-1.79,1.49-4.23,.16-.47,1.19-2.97h.01l5.67-14.12,1-2.48-38.6-28.55-11.72,41.86Z"/><path class="cls-3" d="M648.7,336.58c-.73,11.16-.23,15.24,5.68,25.1,7.03,11.75,19.51,19.37,29.68,14.21,11.98-6.09,14.68-10.74,18.94-19.78,2.94-6.27,5.26-14.43,7.33-23.57,.03-.12,.04-.22,.07-.34,.22-.97,.42-1.92,.63-2.84,.12-.51,.22-1.03,.32-1.52,1.9-9.02,3.08-16.17,3.08-16.17,0,0-7.09-14.99-16.91-19.78-9.82-4.81-29.96-9.74-38.77-1.58-1.49,1.38-2.67,3.09-3.71,4.83-6.01,9.92-8.98,22.11-10.5,33.49-.19,1.47,4.23,6.46,4.15,7.96Z"/><path class="cls-23" d="M677.68,329.65c.24-1.05,.22-2.13-.59-2.62-2.17-1.32-4.24,2.56-4.57,3.93-.2,.82-.08,1.89,.52,2.52,.64,.68,1.6,.56,2.33,.08,.65-.42,1.14-1.06,1.5-1.75,.26-.49,.62-1.32,.82-2.17Z"/><path class="cls-23" d="M701.94,337.25c.24-1.05,.22-2.13-.59-2.62-2.17-1.32-4.24,2.56-4.57,3.93-.2,.82-.08,1.89,.52,2.52,.64,.68,1.6,.56,2.33,.08,.65-.42,1.14-1.06,1.5-1.75,.26-.49,.62-1.32,.82-2.17Z"/><path class="cls-9" d="M688.84,358.65s-2.76-.37-7.29-1.47c-4.53-1.1-8.33-3.08-8.33-3.08,0,0,1.06,4.91,6.19,6.65,5.13,1.74,9.43-2.11,9.43-2.11Z"/><path class="cls-31" d="M685.12,325.19c-.84,.64-2.13-.16-2.98-.43-1.23-.38-2.47-.75-3.71-1.09-2.86-.79-5.77-1.41-8.66-2.07-1.38-.31-.84-1.17,.08-1.59,.76-.35,1.63-.61,2.46-.73,1.63-.24,3.3-.17,4.94-.07,2.58,.16,5.13,.87,7.24,2.42,.43,.32,.85,.67,1.13,1.13,.37,.59,.45,1.28,.06,1.88-.14,.22-.34,.4-.55,.55Z"/><path class="cls-31" d="M697.81,328.78c.03,.26,.12,.51,.23,.75,.45,.95,1.96,.82,2.84,.97,1.27,.22,2.55,.45,3.81,.72,1.89,.4,3.77,.85,5.64,1.32,.03-.12,.04-.22,.07-.34,.22-.97,.42-1.92,.63-2.84-1.04-.6-2.15-1.1-3.27-1.58-2.37-1.03-4.97-1.55-7.55-1.13-.53,.09-1.05,.22-1.52,.5-.59,.35-.98,.94-.89,1.64Z"/><path class="cls-3" d="M647.33,335.15c.58,.5,3.35,2.1,3.78,.89,1.23-3.44,1.69-7.05,3.19-10.4,.98-2.18,2.03-4.26,2.78-6.49,.24,.29,.47,.58,.71,.86-.2,.92,1.25,1.11,1.45,.2,.74-3.31-1.44-5.41-4.6-5.77-2.61-.29-5.13,.58-7.14,2.13-5.57,4.31-5.58,13.99-.18,18.58Z"/><path class="cls-14" d="M686.67,351.68c1.62,0,3.62-.22,4.24-1.24,.78-1.26,1.12-10.76,1.21-13.64,.01-.4-.31-.74-.71-.76h-.02c-.39,0-.72,.31-.73,.71-.17,5.74-.59,12.14-1,12.92-.25,.4-2.44,.64-4.52,.47-.39-.03-.76,.27-.79,.67-.03,.4,.27,.76,.67,.79,.42,.03,1.01,.07,1.65,.07Z"/><path class="cls-14" d="M655.12,359.49s0,6.48,1.29,9.64c1.29,3.18,3.18,3.79,5.49,6.96,2.31,3.18,5.44,4.16,9.83,5.63,4.03,1.35,4.38,3.09,6.99,2.84l1.49-4.23,.16-.47,1.19-2.97c-.34,.09-5.39,1.25-9.64-.18-4.41-1.47-9.65-7.08-12.1-10.01-2.43-2.93-4.7-7.21-4.7-7.21Z"/><path class="cls-31" d="M646.15,314.68c.18,1.29,.42,2.41,1.57,3.07,2.63,1.5,7.79-1.03,8.35,3.71,.04,.32,.2,.61,.54,.71,2.14,.57,3.11-.69,4.03-2.46,.86-1.64,1.83-3.08,2.7-4.65,.76-1.38,.59-2.91,.77-4.42,.39-3.41,2.36-5.33,5.29-6.86,.71-.37,1.41-.65,1.96-1.26,1.21-1.33,1.78-3.32,2.08-5.33,.96,1.08,2,2.07,3.24,2.83,2.52,1.56,5.49,1.25,8.03,2.71,1.96,1.12,3.3,1.57,5.5,.65,2.32-.98,5.09-3.09,7.7-1.54,2,1.19,1.98,4.05,3.19,5.74,3.13,4.37,10.24,6.36,16.06,5.88,.29,.52,1.19,.47,1.33-.16,.96-.15,1.87-.36,2.7-.66,.88-.31,.5-1.73-.39-1.41-.73,.26-1.54,.42-2.37,.54-.82-9.29-7.67-16.46-14.8-21.94-8.82-6.77-20.28-8.95-31.26-8-10.72,.92-17.13,9.81-21.67,18.65-2.17,4.22-5.26,9.26-4.55,14.21Z"/><path class="cls-7" d="M645.27,347.03c.04-2.73-.29-7.1,1.63-9.28,1.97-2.24,4.06-.58,5.3,1.44,2,3.26,2.58,7.22,2.58,10.99,0,2.14,.02,4.3-.38,6.41-.19,1-.43,2.22-1.11,3.03-.46,.55-2.3,1.65-2.26,.11,.05-1.67,.26-3.35,.26-5.02,.03-1.05,.07-2.11,.05-3.16-.01-1.38-.06-2.76-.15-4.14-.04-.64,.01-1.55-.02-2.43-.12-1.01-.2-2.62-1.56-2.7-.49-.03-.98,.22-1.23,.64-.19,.31-.25,.69-.29,1.06-.56,4.95,.18,10.25,.49,15.2,.01,.2,.02,.41-.05,.6-.12,.31-.45,.5-.78,.54-.71,.08-1.37-.43-1.69-1.07-.32-.63-.37-1.36-.42-2.07-.22-3.34-.42-6.69-.36-10.04v-.08Z"/><path class="cls-9" d="M650.26,336.86c-2.41,1.86-4.84-1.55-3.7-3.8,.6-1.19,2.18-1.88,3.37-1.26,.77,.41,1.23,1.26,1.38,2.11,.12,.7,.06,1.46-.3,2.08-.22,.37-.47,.66-.75,.87Z"/></g><g><path class="cls-32" d="M308.64,741.75c.03-.12,2.87-11.71,8.4-21.72,.49-.89,1.01-1.81,1.54-2.74,4.35-7.7,9.29-16.42,7.17-23.85-.96-3.35-3.28-6.05-6.9-8.03-11.8-6.44-21.08,6.93-25.54,13.36-.78,1.13-1.75,2.53-2.09,2.82l2.64,3.4c.77-.59,1.51-1.64,2.99-3.76,6-8.64,12.56-16.07,19.95-12.04,2.61,1.43,4.19,3.2,4.82,5.44,1.63,5.69-3.03,13.93-6.78,20.55-.54,.95-1.07,1.88-1.56,2.78-5.81,10.53-8.69,22.29-8.81,22.78l4.18,1.01Z"/><path class="cls-32" d="M176.98,712.35l1.05,36.9c.13,4.98,1.26,9.88,3.36,14.37,.09,.19,.17,.36,.26,.53,.22,.44,.43,.87,.66,1.31,.34,.65,.72,1.28,1.1,1.89,.59,.95,1.19,1.89,1.79,2.83,2.11,3.27,4.37,6.47,6.8,9.55t.01,.01c3.16,3.59,6.65,6.83,10.43,9.77,2.24,1.74,4.57,3.38,6.98,4.92t.01,.01c.06,.04,.11,.07,.17,.11,.93,.59,1.88,1.16,2.84,1.72,0,0,0,.01,.01,.01,25.21,14.8,58.75,19.96,88.21,24.09,4.14,.59,8.46,1.06,12.91,1.46l3.2-107.07c.11-2.95-1.23-5.78-3.6-7.57-7.27-5.52-24.47-14.04-63.41-15.53-16.52-.63-29.74,.39-40.15,2.25-2.57,.46-4.95,.96-7.17,1.52-11.03,2.71-18.07,6.37-22.01,9.52-2.24,1.79-3.51,4.52-3.44,7.39Z"/><path class="cls-19" d="M251.78,738.3c35.53,0,59.28-9.79,59.52-9.89,.37-.15,.54-.57,.38-.94-.15-.36-.57-.54-.94-.38-.23,.1-23.75,9.78-58.96,9.78h-.1c-35.27-.02-69.25-15.57-69.59-15.73-.36-.17-.79,0-.95,.35-.17,.36-.01,.79,.35,.95,.34,.16,34.59,15.84,70.19,15.86h.11Z"/><path class="cls-19" d="M225.23,745.21h.02c.39,0,.71-.33,.71-.72,0-.39-.32-.71-.72-.71h0c-.05,0-3.77-.03-17.37-3.23-15.2-3.58-23.36-9.25-23.44-9.3-.32-.23-.77-.15-1,.17-.23,.32-.15,.77,.17,1,.34,.24,8.45,5.88,23.94,9.53,13.6,3.2,17.39,3.27,17.7,3.27Z"/><path class="cls-19" d="M277.49,746.41c.06,0,1.59-.01,11.56-1.2,10.02-1.19,22.12-5.97,22.24-6.02,.37-.15,.55-.56,.4-.93-.15-.37-.56-.55-.93-.4-.12,.05-12.06,4.76-21.88,5.93-9.74,1.16-11.33,1.19-11.39,1.19-.39,0-.71,.33-.71,.72,0,.39,.32,.71,.72,.71Z"/><path class="cls-19" d="M249.77,761.73c11.14,0,20.79-1.45,20.9-1.47,.39-.06,.66-.43,.6-.82-.06-.39-.42-.67-.82-.6-.11,.02-11.06,1.67-23.06,1.43-11.99-.24-19.31-1.41-19.39-1.43-.39-.06-.76,.2-.82,.59-.06,.39,.2,.76,.59,.82,.07,.01,7.48,1.21,19.59,1.44,.81,.02,1.61,.02,2.4,.02Z"/><path class="cls-19" d="M216.78,775.33c.33,0,.62-.22,.7-.56,.09-.39-.15-.77-.54-.86l-9.32-2.15c-9.15-2.11-15.13-4.49-15.19-4.51-.37-.15-.78,.03-.93,.4-.15,.37,.03,.79,.4,.93,.06,.02,6.13,2.44,15.4,4.57l9.32,2.15c.05,.01,.11,.02,.16,.02Z"/><path class="cls-19" d="M270.56,776.28h.02c.08,0,7.99-.25,13.45-.96,5.51-.72,6.94-1.21,7-1.23,.37-.13,.57-.54,.44-.91-.13-.37-.54-.57-.91-.44,0,0-1.43,.47-6.7,1.16-5.4,.7-13.23,.95-13.31,.95-.4,.01-.71,.34-.7,.74,.01,.39,.33,.7,.72,.7Z"/><path class="cls-19" d="M257.75,799.54c4.08,0,9.1-.08,14.99-.32,17.65-.71,33.74-5.96,33.9-6.01,.38-.12,.58-.53,.46-.91-.12-.38-.53-.58-.91-.46-.16,.05-16.06,5.24-33.5,5.94-17.5,.7-27.31,0-27.41,0-.39-.04-.74,.27-.77,.66-.03,.39,.27,.74,.66,.77,.07,0,4.46,.32,12.58,.32Z"/><path class="cls-19" d="M209.44,794.44c.99,.63,1.99,1.25,3.01,1.84,0,0,0,.01,.01,.01,10.2,1.32,17.8,1.98,17.88,1.98h.06c.37,0,.69-.27,.72-.65,.03-.4-.26-.75-.65-.77-.11-.01-9.29-.8-21.04-2.41Z"/><path class="cls-24" d="M186.44,709.33c-.14,4.53,22.46,13.7,57.45,14.97,.47,.01,.96,.03,1.45,.04,.57,.01,1.15,.03,1.72,.04,2.71,.06,5.38,.07,7.99,.04,.96-.03,1.92-.04,2.87-.07,.24,0,.5-.01,.76-.03,.99-.01,1.96-.06,2.94-.1,27.42-1.23,46.59-7.43,46.71-11.29,.1-3.81-16.46-10.91-42.56-13.82-.95-.11-1.91-.22-2.88-.3-1.99-.2-4.02-.36-6.11-.52-.95-.06-1.91-.11-2.88-.17-1.23-.06-2.5-.11-3.76-.16-.52-.03-1.03-.04-1.56-.06-.53-.01-1.06-.03-1.59-.03-3.53-.09-6.96-.09-10.28,0-1,.01-2.01,.06-2.98,.1-27.96,1.08-47.17,7.41-47.27,11.34Z"/><path class="cls-32" d="M181.47,738.09l4.18-1.01c-.12-.5-3-12.25-8.81-22.79-.5-.9-1.02-1.83-1.56-2.78-3.74-6.62-8.4-14.86-6.78-20.55,.64-2.23,2.22-4.01,4.82-5.44,7.39-4.03,13.95,3.4,19.95,12.04,1.47,2.12,2.21,3.17,2.98,3.76l2.63-3.41-1.31,1.7,1.33-1.69c-.34-.29-1.31-1.69-2.09-2.82-4.46-6.43-13.75-19.81-25.54-13.36-3.62,1.98-5.94,4.68-6.9,8.03-2.12,7.43,2.82,16.15,7.17,23.85,.53,.94,1.05,1.86,1.54,2.74,5.52,10.01,8.37,21.6,8.4,21.72Z"/></g><g><g><path class="cls-34" d="M1191.13,250.2h-290.14c-.98,0-1.95,.2-2.85,.58h0c-2.74,1.16-4.5,3.86-4.46,6.83l4.74,371.82c.04,2.75,1.61,5.25,4.08,6.46l266.12,131.22c3.06,1.51,6.77,.7,8.91-1.96l212.22-262.24c2.16-2.67,2.17-6.49,.02-9.17l-192.93-240.8c-1.39-1.73-3.49-2.74-5.7-2.74Z"/><polygon class="cls-21" points="1196.51 253.87 898.31 253.87 898.31 639.61 1173.69 775.39 1393.29 504.04 1196.51 253.87"/><g><path class="cls-33" d="M917.4,613.43c.73,2.24,11.96,10.54,28.02,21.29,1.34,.89,2.71,1.8,4.12,2.73,24.03,15.92,56.94,36.19,82.03,50.3,1.4,.8,2.79,1.58,4.14,2.32,15.61,8.66,27.58,14.48,31.39,14.63,14.53,.58,189.37-11.08,194.53-14.46,5.16-3.38-263.59-255.49-265.74-255.57-2.01-.08-25.4-70.7-65.83-110.69-2.24-2.22-5.36-3.26-8.51-3.05-13.73,.93-31.72,5.19-36.2,15.55-5.47,12.7,29.48,269.09,32.03,276.96Z"/><path class="cls-34" d="M926.74,592.52s.07,0,.1,0c.39-.04,.68-.39,.64-.79l-23.55-227.87c-.04-.39-.39-.67-.79-.64-.39,.04-.68,.39-.64,.79l23.55,227.87c.04,.36,.33,.63,.68,.64Z"/></g><g><rect class="cls-6" x="915.71" y="269.55" width="45.39" height="29.49" rx="1.18" ry="1.18" transform="translate(1876.81 568.59) rotate(-180)"/><path class="cls-8" d="M915.71,269.55h45.39v8.08c0,.65-.53,1.18-1.18,1.18h-43.03c-.65,0-1.18-.53-1.18-1.18v-8.08h0Z" transform="translate(1876.81 548.36) rotate(-180)"/><rect class="cls-15" x="930.02" y="281.66" width="27.14" height="2.08" transform="translate(1887.18 565.4) rotate(-180)"/><rect class="cls-15" x="943.04" y="285.58" width="14.12" height="2.08" transform="translate(1900.2 573.24) rotate(-180)"/><rect class="cls-15" x="926.59" y="293.82" width="30.56" height="2.08" transform="translate(1883.75 589.73) rotate(-180)"/></g></g><g><path class="cls-34" d="M1151.34,416.39h-294.59c-.99,0-1.97,.2-2.88,.58h0c-2.73,1.16-4.51,3.84-4.51,6.8l-.19,367.01c0,2.82,1.6,5.39,4.12,6.63l275.51,135.85c3.1,1.53,6.84,.71,9.01-1.98l212.14-262.14c2.19-2.7,2.2-6.56,.02-9.27l-192.87-240.72c-1.4-1.75-3.52-2.77-5.77-2.77Z"/><polygon class="cls-21" points="1152.62 420.4 854.42 420.4 854.42 806.14 1129.8 941.92 1349.4 670.57 1152.62 420.4"/><rect class="cls-13" x="941.95" y="443.93" width="122.82" height="89.85" transform="translate(2006.71 977.7) rotate(-180)"/><circle class="cls-17" cx="948.27" cy="449.15" r="2.06"/><circle class="cls-17" cx="1058.94" cy="449.15" r="2.06"/><path class="cls-20" d="M952.98,469.31h99.12c.67,0,1.21-.54,1.21-1.21s-.54-1.21-1.21-1.21h-99.12c-.67,0-1.21,.54-1.21,1.21,0,.67,.54,1.21,1.21,1.21Z"/><path class="cls-20" d="M952.98,480.27h99.12c.67,0,1.21-.54,1.21-1.21s-.54-1.21-1.21-1.21h-99.12c-.67,0-1.21,.54-1.21,1.21,0,.67,.54,1.21,1.21,1.21Z"/><path class="cls-20" d="M952.98,491.22h99.12c.67,0,1.21-.54,1.21-1.21,0-.67-.54-1.21-1.21-1.21h-99.12c-.67,0-1.21,.54-1.21,1.21,0,.67,.54,1.21,1.21,1.21Z"/><path class="cls-20" d="M952.98,502.17h99.12c.67,0,1.21-.54,1.21-1.21,0-.67-.54-1.21-1.21-1.21h-99.12c-.67,0-1.21,.54-1.21,1.21,0,.67,.54,1.21,1.21,1.21Z"/><path class="cls-20" d="M952.98,513.12h99.12c.67,0,1.21-.54,1.21-1.21,0-.67-.54-1.21-1.21-1.21h-99.12c-.67,0-1.21,.54-1.21,1.21,0,.67,.54,1.21,1.21,1.21Z"/><g><path class="cls-20" d="M1036.85,520.79c.67,0,1.21-.54,1.21-1.21v-57.13c0-.67-.54-1.21-1.21-1.21-.67,0-1.21,.54-1.21,1.21v57.13c0,.67,.54,1.21,1.21,1.21Z"/><path class="cls-20" d="M1019.69,520.79c.67,0,1.21-.54,1.21-1.21v-57.13c0-.67-.54-1.21-1.21-1.21s-1.21,.54-1.21,1.21v57.13c0,.67,.54,1.21,1.21,1.21Z"/><path class="cls-20" d="M1002.54,520.79c.67,0,1.21-.54,1.21-1.21v-57.13c0-.67-.54-1.21-1.21-1.21-.67,0-1.21,.54-1.21,1.21v57.13c0,.67,.54,1.21,1.21,1.21Z"/><path class="cls-20" d="M985.38,520.79c.67,0,1.21-.54,1.21-1.21v-57.13c0-.67-.54-1.21-1.21-1.21s-1.21,.54-1.21,1.21v57.13c0,.67,.54,1.21,1.21,1.21Z"/><path class="cls-20" d="M968.22,520.79c.67,0,1.21-.54,1.21-1.21v-57.13c0-.67-.54-1.21-1.21-1.21-.67,0-1.21,.54-1.21,1.21v57.13c0,.67,.54,1.21,1.21,1.21Z"/></g></g></g><g><path class="cls-32" d="M261.34,675.86c-3.64-13.29-2.93-27.39-.69-41.01,1.59-9.65,3.86-19.18,5.68-28.79,1.95-10.35,2.48-20.76,3.86-31.18,2.4-18.1,13.87-33.03,17-50.84,1.75-9.95,1.22-20.11,2.09-30.14,.7-8,2.46-15.78,5.67-23.18,5.78-13.31,16-25.89,28.94-33.1,4.82-2.68,12.47-3.91,15.34,2.14,2.9,6.12,1.13,14.84-.75,21-2.4,7.89-6.41,15.21-10.14,22.54-4.34,8.53-7.77,17.24-10.55,26.37-5.82,19.12-12.04,38.31-16.7,57.74-2.48,10.35-3.82,21-7.27,31.11-3.23,9.49-8.87,17.7-14.32,26.05-9.61,14.71-17.62,50.1-18.15,51.29Z"/><path class="cls-5" d="M250.66,723.9c.99-.01,1.96-.06,2.94-.1,1.09-6.61,2.52-15.22,4.14-24.69,1.51-8.88,3.18-18.54,4.88-28.02,4.1-23.04,8.32-45.08,10.7-52.88,.87-2.85,2.04-6.56,3.4-10.9,7.59-24.07,21.71-68.87,24.48-93.75,3.14-28.13,12.42-37.26,12.51-37.36,.57-.54,.59-1.42,.04-1.99-.54-.56-1.45-.58-2.02-.04-.4,.38-10.11,9.74-13.38,39.08-2.74,24.61-16.81,69.25-24.36,93.23-1.36,4.36-2.54,8.07-3.4,10.93-2.4,7.87-6.55,29.47-10.63,52.16-1.75,9.89-3.5,19.98-5.09,29.25-1.63,9.66-3.1,18.42-4.2,25.09Z"/><path class="cls-32" d="M254.96,569.07c-1.36,2.56-2.91,4.96-4.73,7.14-1.99-3.36-.46-9.07,.08-13.1,1.73-12.86,6.56-25.15,7.65-38.11,1.1-13.05-1.11-26.12-.62-39.18,.49-13.08,2.71-26,4.22-38.99,1.53-13.13,1.48-25.87,.57-39.03-.86-12.39-.5-24.03,3.76-35.83,4.08-11.29,9.48-21.89,12.03-33.69,2.39-11.07,3.43-22.56,7.93-33.08,3.1-7.25,8.55-16.06,17.29-17.16,9.63-1.21,13.13,6.53,13.16,14.61,.03,13.46-.3,26.92-.45,40.38-.14,12.3,1.04,25.58-2.21,37.59-2.97,10.98-11,19.25-16.59,28.91-12.23,21.17-8.9,46.54-12.12,69.77-2.46,17.78-9.77,34.31-16.62,50.78-4.95,11.88-7.08,27.15-13.37,39Z"/><path class="cls-32" d="M205.63,296.76c2.18,7.87,5.09,15.53,7.1,23.45,2.18,8.69,3.38,17.58,4.1,26.5,1.42,17.26,1.09,34.63,2.83,51.88,3.13,31.02,15.72,59.71,23.48,89.67,.52,1.96,1,3.93,1.46,5.91,.21,.86,1.48,.79,1.72,0,.09-.27,.16-.55,.23-.82,8.7-29.71,5.12-60.64,0-90.72,.33-9.19,1.36-18.39,2.97-27.64,1.52-8.73,1.3-16.56-.85-25.16-2.39-9.59-4.02-19.18-4.9-29.02-1.45-16.01-1.66-32.14-4.45-48-1.36-7.8-3.34-15.51-6.34-22.87-2.38-5.88-5.32-12.45-9.82-17.06-2.87-2.93-7.76-5.88-11.63-2.89-1.91,1.48-2.5,3.88-3.05,6.08-1.05,4.12-1.92,8.31-2.77,12.47-3.31,16.16-4.52,32.17-.07,48.23Z"/><path class="cls-32" d="M157.03,366.69c2.37,13.55,10.02,24.57,15.6,36.86,6.14,13.54,9.91,27.99,16.1,41.52,8.53,18.61,17.75,36.95,27.94,54.76,.23,.41,.46,.8,.69,1.21,.37,.65,1.33,.47,1.56-.21,.19-.55,.37-1.1,.57-1.65,2.27-6.15,5.42-12.78,1.82-33.01-3.93-22.04-15.86-60.23-17.25-66.04-2.07-8.59-27.22-68.65-42.43-57.15-6.74,5.09-5.87,16.56-4.6,23.72Z"/><path class="cls-32" d="M116.18,407.49c10.28-12.23,24.56,.62,31.59,9.64,9.64,12.38,15.1,27.39,23.16,40.73,8.62,14.26,18.88,28.05,23.42,44.25,2.76,9.85,2.24,20.36,5.74,30.02,3.2,8.84,9.45,16.33,12.03,25.42,2.82,9.92,2.43,20.89,3.07,31.1,.39,6.2,1.13,12.37,1.58,18.56,.23,3.19,.4,6.39,.39,9.58,0,2.68,.35,6.6-.67,8.96-2.86-6.58-5.56-13.14-9.02-19.46-4.08-7.46-9.22-14.32-11.6-22.55-1.24-4.26-2.01-8.66-3.53-12.84-1.53-4.22-3.85-8.06-6.48-11.69-4.84-6.69-10.64-12.69-14.73-19.9-8.2-14.44-10.18-31.32-17.88-45.97-4.29-8.16-10.74-14.73-16.58-21.79-5.53-6.69-10.14-14.01-14.61-21.41-7.21-11.95-16.63-29.85-5.89-42.64Z"/><path class="cls-32" d="M131.51,564.67c.36,10.05,6.37,18.7,13.27,25.67,8.58,8.7,18.17,16.56,27.29,24.71,4.24,3.79,8.78,7.45,12.55,11.7,4.66,5.29,5.98,11,7.83,17.56,3.8,13.59,18.03,19.69,26.01,30.11,2.04,2.64,3.66,5.54,4.62,8.93,.23,.78,1.18,.68,1.46,.08,.04-.08,.07-.18,.09-.28,1.09-11.38-2.81-21.8-8.42-31.46-.87-3.02-1.98-5.99-3.2-8.94-2.39-5.8-4.8-11.68-7.89-17.15-3.05-5.4-7.07-9.87-11.3-14.38-4.37-4.68-8.29-9.67-11.86-14.98-5.65-8.38-10.58-17.2-16.55-25.38-5.11-6.98-11.53-15.47-19.98-18.66-9.38-3.55-14.24,3.98-13.92,12.48Z"/><path class="cls-5" d="M245.05,654.48c0,5.19,.04,10.35,.1,15.41,.14,9.9,.4,19.43,.72,28.25,.11,3.26,.24,6.4,.36,9.43,.13,2.71,.24,5.33,.37,7.84,.14,3.03,.29,5.91,.43,8.59,.96-.03,1.92-.04,2.87-.07-.4-7.35-.8-16.05-1.15-25.62-1.41-38.89-1.71-92.06,4.66-126.58,.59-3.16,1.22-6.15,1.92-8.97,9.39-37.86,15.65-81.07,21.17-119.19,2.67-18.52,5.21-36,7.69-49.65,7.27-39.98,16.81-61.69,16.89-61.92,.32-.71-.01-1.54-.73-1.85-.73-.31-1.58,.01-1.89,.72-.1,.23-9.75,22.25-17.09,62.55-2.5,13.69-5.02,31.21-7.7,49.75-5.52,38.05-11.76,81.18-21.11,118.92-1.02,4.1-1.91,8.59-2.68,13.38-1.15,6.97-2.04,14.6-2.72,22.62-1.28,14.71-1.88,30.8-2.05,46.79-.03,3.2-.04,6.4-.04,9.59Z"/><path class="cls-5" d="M246.5,646.04h.04c.79-.02,1.42-.67,1.4-1.45-.02-.74-1.91-74.64-.06-101.36,1.58-22.82,.66-31.37-1.56-52.04-.42-3.95-.9-8.33-1.41-13.34l-.83-8.09c-3.19-30.95-8.01-77.73-7.53-117.69,.52-43.48-13.79-74.96-13.94-75.27-.33-.71-1.18-1.02-1.9-.7-.72,.32-1.04,1.16-.71,1.87,.14,.31,14.19,31.25,13.68,74.07-.48,40.12,4.35,87,7.54,118.01l.83,8.09c.51,5.01,.98,9.4,1.41,13.36,2.2,20.49,3.12,28.98,1.55,51.55-1.86,26.86,.03,100.88,.05,101.62,.02,.77,.66,1.37,1.43,1.37Z"/><path class="cls-5" d="M246.45,670.7c.07,0,.15,0,.22-.02,.78-.12,1.32-.84,1.2-1.61-.05-.29-4.67-29.27-15.31-59.89-7.7-22.17-9.8-57.34-11.66-88.38-.69-11.59-1.35-22.53-2.25-31.63-1.07-10.79-4.36-19.1-9.34-31.67-1.56-3.94-3.33-8.4-5.23-13.46-10.57-28.1-24.45-66.59-24.59-66.98-.26-.73-1.09-1.12-1.83-.86-.75,.26-1.14,1.07-.87,1.8,.14,.39,14.03,38.9,24.6,67.01,1.91,5.09,3.69,9.56,5.25,13.51,4.89,12.35,8.13,20.52,9.16,30.92,.89,9.05,1.55,19.96,2.24,31.52,1.86,31.22,3.98,66.6,11.81,89.13,10.56,30.39,15.14,59.12,15.19,59.41,.11,.7,.72,1.19,1.42,1.19Z"/><path class="cls-5" d="M247.99,716.47c.19,0,.39-.04,.58-.12,.72-.32,1.05-1.15,.73-1.86-.3-.67-30.33-67.23-31.92-90.07-1.68-24.22-11.4-62.85-22.65-79.57-6.25-9.28-8.17-17.14-10.21-25.46-1.54-6.27-3.12-12.76-6.7-19.9-8.05-16.08-22.16-37.97-22.3-38.19-.43-.66-1.31-.85-1.98-.43-.67,.42-.87,1.29-.44,1.95,.14,.22,14.17,21.98,22.15,37.92,3.43,6.86,4.98,13.19,6.48,19.31,2.01,8.19,4.08,16.66,10.6,26.35,11,16.35,20.52,54.34,22.18,78.21,1.62,23.34,30.91,88.27,32.16,91.03,.24,.52,.76,.84,1.31,.84Z"/><path class="cls-5" d="M154.94,579.71c.2,.34,5.23,8.35,20.85,23.97,13.68,13.68,18.24,23.25,23.52,34.35,.69,1.47,1.41,2.95,2.14,4.47,1.96,4.03,4.24,7.91,6.67,12.01,3.63,6.16,7.33,12.47,10.34,19.88,1.55,3.79,2.93,7.88,4,12.4,.86,3.61,1.98,7.4,3.24,11.2,3.23,9.76,7.33,19.47,10.18,25.88,.47,.01,.96,.03,1.45,.04,.57,.01,1.15,.03,1.72,.04-2.77-6.13-7.01-16.05-10.37-26.06-1.33-3.98-2.54-7.97-3.44-11.75-.23-.93-.46-1.83-.7-2.74-3.4-12.38-8.98-21.86-13.94-30.3-2.39-4.06-4.65-7.88-6.55-11.82-.75-1.51-1.45-2.99-2.14-4.46-5.39-11.32-10.04-21.11-24.06-35.13-15.34-15.34-20.41-23.39-20.46-23.47-.4-.66-1.29-.87-1.96-.47-.67,.39-.89,1.27-.47,1.93Z"/></g><g><path class="cls-34" d="M784.83,849.89c1.15,0,2.11-.91,2.15-2.08l3.41-97.4c.04-1.19-.89-2.18-2.07-2.23-1.2-.07-2.18,.89-2.23,2.07l-3.41,97.4c-.04,1.19,.89,2.18,2.07,2.23,.03,0,.05,0,.08,0Z"/><path class="cls-34" d="M696.66,799.89c1.15,0,2.11-.91,2.15-2.08l2.95-84.22c.04-1.19-.89-2.18-2.07-2.23-1.22-.04-2.18,.89-2.23,2.07l-2.95,84.22c-.04,1.19,.89,2.18,2.07,2.23,.03,0,.05,0,.08,0Z"/><path class="cls-33" d="M703.48,700.76c1.28,.23,2.59,.55,3.94,1,21.04,7.02,41.63,16.01,62.26,24.16,8.21,3.24,16.41,6.49,24.58,9.83,2.18,.89,9.25,2.47,10.59,4.64,.91,1.47-.52,14.89-.57,16.33-.05,1.44-22.29,1.81-26.46,.52-4.17-1.3-97.16-39.94-99.03-41.45-1.87-1.51-1.09-11.61-.54-13.51,.56-1.94,10.37-1.66,11.87-1.74,4.77-.23,8.94-.57,13.37,.22Z"/></g><path class="cls-34" d="M562.27,738.36v178.04c5.89,.06,11.79,.09,17.67,.11v-178.15h-17.67Z"/><path class="cls-33" d="M418.39,801c.82,2.21,12.38,10.05,28.85,20.15,1.38,.83,2.78,1.69,4.23,2.57,24.65,14.94,58.34,33.89,83.98,46.98,1.43,.75,2.85,1.46,4.23,2.15,15.95,8.03,28.14,13.37,31.95,13.37,14.54,0,188.78-18.64,193.8-22.23,5.02-3.59-13.62-84.61-15.77-84.61-2.15,0-333.71-261-333.71-261,0,0-35.66-5.74-40.64,7.17-4.96,12.91,40.21,267.7,43.08,275.45Z"/><path class="cls-34" d="M574.7,854.19s.04,0,.06,0l154.16-12.79c.39-.03,.69-.38,.65-.77-.03-.39-.37-.69-.77-.66l-154.16,12.79c-.39,.03-.69,.38-.65,.77,.03,.38,.34,.66,.71,.66Z"/><path class="cls-34" d="M437.95,779.73s.07,0,.1,0c.39-.06,.66-.42,.61-.81l-32.64-226.74c-.06-.39-.41-.65-.81-.61-.39,.06-.66,.42-.61,.81l32.64,226.74c.05,.36,.36,.61,.71,.61Z"/><path class="cls-34" d="M571.59,854.19c.25,0,.5-.13,.63-.37,.19-.35,.07-.78-.28-.97l-134.15-74.74-16.97,19.81c-.26,.3-.22,.75,.08,1.01,.3,.26,.75,.22,1.01-.08l16.21-18.91,133.13,74.17c.11,.06,.23,.09,.35,.09Z"/><path class="cls-26" d="M552.03,720.9c4.23,10.22,13.61,17.74,22.03,24.44,8.89,7.06,18.36,13.35,28.14,19.12,10.14,5.98,20.59,11.39,31.16,16.56,9.82,4.79,19.66,9.78,29.76,13.98,.56,.26,1.12,.49,1.69,.72,5.68,2.32,11.43,3.91,17.47,4.98,6.08,1.08,12.22,2.01,17.74,4.93,5.16,2.74,9.88,6.7,15.16,9.15-2.85,5.26-4.43,11.44-5.95,17.18-1.58,5.89-4.22,11.52-5.19,17.55-.72,4.45-1.79,8.59-3.2,12.75h0c-.46,1.32-.93,2.62-1.43,3.94-3.48,9.09-6.75,19-.27,27.58,2.94,3.89,6.93,6.88,10.68,9.92,3.31,2.67,6.7,5.28,10.22,7.66,.67-.06,1.33-.09,1.99-.13,12.89-.79,25.91-1.39,39.26-1.56,12.58-17.19,23.12-35.79,32.24-55.07,4.92-10.38,9.42-20.95,13.68-31.62,4.09-10.25,8.32-20.65,10.07-31.61,1.49-9.25,1.09-19.07-3.77-27.32-5.02-8.53-13.85-13.61-22.59-17.65-22.87-10.55-46.51-19.72-70.11-28.51-22.21-8.26-44.67-15.88-67.3-22.9,3.23-1,6.45-2.01,9.68-3.01,.89-.27,.5-1.65-.37-1.38-3.73,1.15-7.46,2.31-11.19,3.47-.17,.06-.34,.11-.52,.17-1.2-.37-2.41-.77-3.61-1.13-.89-.27-1.26,1.1-.39,1.38,.56,.17,1.12,.36,1.68,.53-2.55,.86-5.11,1.56-7.77,.79-6.74-1.98-13.25-4.2-20.19-5.45-12.56-2.27-25.48-2.62-38.15-.98-8.91,1.16-18.6,3.05-25.66,9.02-2.61,2.21-4.46,4.88-5.52,7.79-1.72,4.59-1.52,9.78,.53,14.71Z"/><path class="cls-26" d="M438.85,706.27c2.87-.49,5.75-.93,8.62-1.36-1.56,.23,1.53,37.51,1.74,41.1,.7,12.32,4.57,19.75,11.85,30.5,7.56,11.17,16.79,16.75,27.96,23.3,12.66,7.43,84.38,48.27,90.72,50.54,5.48,1.95,11.1,3.89,15.89,7.24,3.08,2.17,5.32,4.76,7.26,7.96,1.26,2.08,2.5,3.93,4.4,5.48,2.48,2.01,5.21,3.6,7.54,5.82,2.4,2.27,4.5,4.8,6.47,7.44,4.14,5.59,7.83,11.54,11.66,17.35,3.11,4.73,6.01,9.88,9.36,14.53,26.46-.96,51.84-3.23,77.71-4.82,.67-.06,1.33-.09,1.99-.13-7.5-15.9-14.14-32.55-21.2-48.96h0c-10.31-23.93-21.54-47.35-37.72-67.27-6.98-8.59-14.89-16.53-24.03-23.59-22.63-17.44-48.74-32.38-69.39-52.19-8.19-7.84-.8-8.39-11.43-11.3-2.24-.62-4.5-1.2-6.75-1.74-10.48-2.57-21.12-4.4-31.85-5.54-23.75-2.51-47.3-.87-70.77,2.6-.04-2.04-.1-4.07-.16-6.09-.03-.93-1.46-.93-1.43,0,.06,2.09,.11,4.2,.16,6.31-3,.46-5.98,.93-8.98,1.43-.9,.14-.52,1.53,.39,1.38Z"/><g><path class="cls-34" d="M535.45,870.7c1.43,.75,2.85,1.46,4.23,2.15l3.34-95.49c.04-1.19-.89-2.19-2.08-2.24-1.2-.03-2.18,.89-2.22,2.08l-3.27,93.5Z"/><path class="cls-34" d="M447.24,821.15c1.38,.83,2.78,1.69,4.23,2.57l2.91-83.19c.04-1.19-.89-2.19-2.08-2.24-1.2-.03-2.18,.89-2.22,2.08l-2.84,80.78Z"/><path class="cls-33" d="M456.1,727.69c1.28,.23,2.59,.55,3.94,1,21.04,7.02,41.63,16.01,62.26,24.16,8.21,3.24,16.41,6.49,24.58,9.83,2.18,.89,9.25,2.47,10.59,4.64,.91,1.47,.21,15.12-.57,16.33-.6,.92-23.78,1.98-25.75,1.31-1.86-.63-97.86-40.74-99.73-42.24-1.87-1.51-1.09-11.61-.54-13.51,.56-1.94,10.37-1.66,11.87-1.74,4.77-.23,8.94-.57,13.37,.22Z"/><path class="cls-34" d="M448.71,751.09c.28,0,.54-.16,.66-.43,.16-.36,0-.79-.37-.94l-13.15-5.7c-.36-.16-.79,0-.94,.37-.16,.36,0,.79,.37,.94l13.15,5.7c.09,.04,.19,.06,.28,.06Z"/><path class="cls-34" d="M531.38,784.22c.38,0,.7-.3,.72-.68l.63-14.19h23.33c.4,0,.72-.32,.72-.72,0-.4-.32-.72-.72-.72h-24.71l-.69,15.56c-.02,.4,.29,.73,.68,.75,.01,0,.02,0,.03,0Z"/><path class="cls-34" d="M532.04,769.34c.29,0,.56-.17,.67-.46,.14-.37-.04-.78-.41-.93l-81.22-31.91c-.37-.14-.78,.04-.93,.41-.14,.37,.04,.78,.41,.93l81.22,31.91c.09,.03,.17,.05,.26,.05Z"/></g><path class="cls-34" d="M862.53,672.48v232.32c2.39-.27,4.79-.54,7.17-.85v-231.47h-7.17Z"/><polygon class="cls-34" points="1098.61 700.5 1098.61 709.82 429.86 735.76 210.45 675.05 210.45 664.78 1098.61 700.5"/><path class="cls-34" d="M210.45,672.48v202.58c2.24,1.74,4.57,3.38,6.98,4.92t.01,.01c.06,.04,.11,.07,.17,.11v-207.62h-7.17Z"/><polygon class="cls-18" points="1098.61 700.5 430.03 725.36 210.45 664.78 861.51 644.72 1098.61 700.5"/><g><path class="cls-34" d="M738.54,678.27l2.78,9.28c.76,2.52-1.13,5.06-3.77,5.06h0c-1.58,0-3-.94-3.62-2.4l-5.08-11.95h9.68Z"/><path class="cls-34" d="M563.29,683.35l2.78,9.28c.76,2.52-1.13,5.06-3.77,5.06h0c-1.58,0-3-.94-3.62-2.4l-5.08-11.95h9.68Z"/></g><polygon class="cls-33" points="754.05 681.01 754.05 686.07 542.05 692.62 487.52 668.48 487.52 664.01 754.05 681.01"/><polygon class="cls-34" points="487.52 664.01 541.69 687.17 754.05 681.01 700.53 657.79 487.52 664.01"/><path class="cls-34" d="M426.45,730.2v182.79c2.39,.13,4.79,.23,7.17,.33v-183.11h-7.17Z"/><path class="cls-34" d="M1091.43,707.79v94.29c.07-.09,.14-.19,.21-.27,2.44-3.04,4.76-6.17,6.96-9.36v-84.65h-7.17Z"/><path class="cls-34" d="M570.61,882.63c.38,0,.7-.31,.72-.69l.98-28.44c.01-.4-.3-.73-.69-.74-.39,0-.73,.3-.74,.69l-.98,28.44c-.01,.4,.3,.73,.69,.74h.03Z"/><path class="cls-33" d="M542.65,684.67c.28,0,.55-.17,.66-.44,.15-.37-.02-.79-.39-.94l-44.68-18.7c-.36-.15-.78,.02-.94,.38-.15,.37,.02,.79,.39,.94l44.68,18.7c.09,.04,.18,.06,.28,.06Z"/><path class="cls-33" d="M575.42,664.73h.03l62.96-2.13c.4-.01,.71-.35,.69-.74-.01-.4-.35-.66-.74-.69l-62.96,2.13c-.4,.01-.71,.35-.69,.74,.01,.39,.33,.69,.72,.69Z"/><path class="cls-33" d="M742.15,679.97c.28,0,.54-.16,.66-.43,.16-.36,0-.79-.36-.95l-43.56-19.36c-.36-.16-.79,0-.95,.36-.16,.36,0,.79,.36,.95l43.56,19.36c.09,.04,.19,.06,.29,.06Z"/><path class="cls-4" d="M662.18,793.96c.15,0,.3-.05,.43-.14,.32-.24,.38-.69,.15-1-.11-.15-11.1-14.71-30.91-27.72-19.79-12.99-44-21.02-44.25-21.1-.38-.13-.78,.08-.91,.46-.12,.38,.08,.78,.46,.9,.24,.08,24.28,8.05,43.91,20.94,19.6,12.87,30.44,27.23,30.55,27.37,.14,.19,.36,.29,.58,.29Z"/><path class="cls-22" d="M720.37,908.43c.11,0,.22-.03,.32-.08,.35-.18,.5-.61,.32-.96l-20.99-41.52c-.18-.35-.61-.49-.96-.32-.35,.18-.5,.61-.32,.96l20.99,41.52c.13,.25,.38,.39,.64,.39Z"/><path class="cls-4" d="M715,810.45c.3,0,.59-.19,.68-.5,.06-.2,6.49-20.36,13.72-28.47,7.26-8.15,12.35-11.91,12.4-11.94,.32-.23,.39-.68,.16-1-.23-.32-.68-.39-1-.16-.21,.15-5.25,3.87-12.62,12.15-7.43,8.34-13.75,28.15-14.01,28.99-.12,.38,.09,.78,.47,.9,.07,.02,.14,.03,.22,.03Z"/><path class="cls-4" d="M726.23,793.96c.17,0,.35-.06,.48-.19l18.81-17.18c.29-.27,.31-.72,.05-1.01-.27-.29-.72-.31-1.01-.05l-18.81,17.18c-.29,.27-.31,.72-.05,1.01,.14,.16,.34,.23,.53,.23Z"/><path class="cls-34" d="M394.01,676.84v.06c0,2.26-1.75,4.14-4.01,4.29l-55.72,3.75c-.91,.06-1.81-.17-2.58-.65l-15.51-9.74c-1.25-.79-2.01-2.16-2.01-3.64v-1.34l79.83,7.27Z"/><path class="cls-33" d="M394.01,676.84l-22.89-10.72c-.66-.31-1.4-.45-2.13-.4l-54.81,3.85,19.06,11.36,60.77-4.09Z"/><polygon class="cls-9" points="383.77 676.24 365.45 667.28 317.52 670.39 333.66 679.59 383.77 676.24"/><g><path class="cls-26" d="M588.55,424.74c-.13-1.6,.65-9.61-.6-11.43-.68-.99-.7-3.32-.24-4.43,1.63-3.96,1.29-3.27,1.54-5.49,.44-3.89-1.88-6.32-3.55-9.65-1.77-3.54-6.05-9.91-15.44-11.24-1.86-4.4-4.56-8.31-8.85-10.63-4.15-2.25-12.52-5.61-16.5-1.39-1.64,1.74-2.35,2.79-5.09,2.18-1.23-.28-2.42-.95-3.75-1.18-3.92-.68-7.53-2.91-11.6-2.82-4.32,.1-7.97,2.18-10.52,5.42-7.86-2.47-16.83,28.27-16.08,29.22-.51,2.53-1.16,5.08-1.54,7.68-.71,4.83,1.54,9.3,1.43,14.17-.14,5.93-.69,11.72-.35,17.67,.32,5.77,.93,11.52,1.44,17.27,.1,1.12,1.81,1.15,1.71,.01-.21-2.33-.43-4.66-.64-6.99,4.97-.63,9.99-1.48,14.99-1.46,5.6,.02,10.97,1.68,16.34,3.15,8.79,2.41,17.94,4.63,27.08,3.24,2.29-.35,4.52-.93,6.69-1.74,3.2-1.19-2.24-.41,.83,.44,2.32,.64,3.98-.43,5.82-1.84,1.03-.79,1.94-1.68,3.12-2.24,1.05-.5,2.24-.22,3.24-.66,1.08-.48,1.55-1.09,2.05-2.14,.46-.96,.65-2.01,.69-3.07,.04-1.12,2.78-4.05,3.35-5.25,1.05-2.18,1.83-4.53,2.16-6.95,.42-3.1,2.65-5.53,2.29-9.84Z"/><g><path class="cls-12" d="M628.61,636.49c.55-8.77,36.51-22.48,36.51-22.48l49.82,20.78,.94,15.9s-3.65,.12-9.73,.23c-2.13,.04-4.57,.07-7.24,.11-11.12,.12-22.24,.07-33.36-.2-9.09-.22-26.52,2.38-33.43-4.85-2.73-2.86-3.73-6.16-3.52-9.51Z"/><path class="cls-12" d="M711.52,634.46s21.22-2.1,28.33,.95c7.11,3.04,12.61,17.82,14.27,20.08,1.66,2.25,2.11,9.81-1.41,10.66-3.52,.86-15.45-8.72-23.07-11.19-7.62-2.47-16.98-4.16-16.98-4.16l-8.05-11.65,6.92-4.69Z"/></g><path class="cls-29" d="M564.38,497.35s17.49,68.02,18.9,71.01c1.41,2.99,9.85,56.08,14.05,58.21,4.21,2.13,12.07,27.32,12.07,27.32,0,0,6.27,.17,14.53-.33,.07-.18,6.02-13.08,6.8-14.18,3.25-4.58,7.4-8.63,12.39-11.25,3.91-2.06,8.3-3.25,11.97-5.73,4.38-2.99,13.14-8.44,10.53-14.68-1.65-3.97-9.07-9.24-12.1-11.58-5.18-3.97-4.68-11.63-8.68-16.49-.25-.29-.5-.59-.75-.87-.96-1.17-1.93-2.26-2.92-3.35-9.97-10.96-20.77-19.09-27.71-32.6-17.57-34.13-49.09-45.49-49.09-45.49Z"/><path class="cls-29" d="M428.33,575.39c-2.71,17.05-10.65,46.5,11.09,76.42,5.28,7.26,75.9,.53,77.02,0,1.12-.53,115.98,6.41,115.98,6.41,0,0-26.7-70.53-26.13-80.33,2.35-40.21-21.45-65.28-33.94-75.06-12.49-9.78-35.7-20.94-73.11-27.58-37.42-6.63-59.63,27.37-69.14,46.02-9.52,18.67,.97,37.06-1.76,54.12Z"/><path class="cls-12" d="M627.83,652.31s19.17-9.34,26.89-8.95c7.72,.38,18.01,12.33,20.36,13.87,2.34,1.54,5.39,8.46,2.38,10.49-3,2.03-17.52-2.81-25.52-2.48-8,.33-17.37,2.01-17.37,2.01l-11.6-8.12,4.86-6.8Z"/><path class="cls-12" d="M505.49,438.39l-12.65,36.11s8.52,19.3,19.11,25.3c10.57,5.99,18.3-.87,18.3-.87l1.68-2.79,1.24-2.04,2.27-3.76,1.01-1.65,11.57-19.11-42.51-31.19Z"/><path class="cls-12" d="M500.1,439.32c-.06,1.7,5.54,6.96,5.6,8.68,.35,12.87-2.1,10.25,5.73,20.92,9.33,12.71,22.93,21.34,31.27,20.62,5.82-.5,16.38-10.87,24.38-28.98,1.68-3.81,4.81-10.67,7.19-18.97,.38-1.35,.76-2.66,1.12-3.91,1.68-5.97,2.95-10.52,2.95-10.52,0,0-9.68-31.14-21.43-35.59-11.77-4.45-35.37-7.97-44.6,2.32-1.56,1.73-2.72,3.82-3.73,5.93-5.83,12.01-7.93,26.29-8.47,39.5Z"/><path class="cls-23" d="M542.16,438.8c.25-1.21,.2-2.45-.75-3-2.53-1.46-4.81,3.05-5.16,4.65-.21,.94-.04,2.17,.66,2.89,.75,.77,1.86,.6,2.68,.03,.74-.51,1.29-1.25,1.68-2.05,.28-.58,.68-1.54,.88-2.52Z"/><path class="cls-23" d="M566.55,447c.28-1.21,.26-2.45-.67-3.02-2.49-1.53-4.88,2.93-5.27,4.51-.23,.94-.1,2.17,.59,2.9,.73,.79,1.84,.64,2.68,.1,.75-.49,1.32-1.21,1.73-2,.29-.57,.72-1.52,.94-2.49Z"/><path class="cls-12" d="M503.8,444.59c.72,.51,4.06,2.05,4.43,.62,1.05-4.07,1.18-8.26,2.55-12.26,.89-2.6,1.87-5.1,2.5-7.74,.3,.3,.6,.61,.9,.91-.14,1.08,1.55,1.14,1.69,.07,.49-3.88-2.22-6.05-5.88-6.12-3.02-.06-5.82,1.21-7.96,3.2-5.93,5.53-4.9,16.63,1.77,21.31Z"/><path class="cls-14" d="M546.44,463.77c.08,.03,.17,.05,.26,.05,.53,.02,5.23,.13,6.02-2.46,.63-2.07,.88-11.54,.91-12.61,.01-.48-.37-.89-.86-.9-.49-.01-.89,.37-.9,.85-.07,2.85-.36,10.58-.83,12.14-.28,.93-2.72,1.28-4.27,1.22-.48-.02-.89,.36-.91,.84-.01,.39,.23,.73,.58,.86Z"/><path class="cls-14" d="M513.05,466.88c.02,.51,.67,8.51,1.74,12.07,1.07,3.67,6.26,4.44,8.69,8.82,2.43,4.39,5.19,5.81,9.1,6.24,.2,.02,.4,.03,.59,.08l2.27-3.76,1.01-1.65c-2.67-1.13-5.97-2.75-10.33-6.3-7.98-6.49-12.81-14.95-13.06-15.51Z"/><path class="cls-26" d="M547,426.59c-1.89-1.79-6-2.8-7.42-2.96-1.8-.2-3.6-.18-5.27,.3-.7,.21-1.97,.55-2.43,1.06-1.87,2.09,3.96,2.67,4.91,2.86,2.49,.52,4.69,1.77,7.09,2.52,1.29,.41,3.57,.36,4.02-1.27,.27-.96-.14-1.8-.9-2.51Z"/><path class="cls-26" d="M564.87,438.15c2.36,.85,4.87,1.2,7.17,2.29,.32,.15,1.22,.69,2.22,1.14,.38-1.35,.76-2.66,1.12-3.91-.87-.87-1.91-1.62-3-2.28-2.3-1.38-4.99-2.16-7.68-1.96-3.48,.27-2.88,3.61,.16,4.72Z"/><path class="cls-29" d="M413.1,560.25c4.38,13.75-2.42,30.15,1.8,46.19,.64,2.43,1.52,4.84,2.75,7.24,.62,1.23,1.17,2.4,1.64,3.52,2.6,6.09,3.3,10.89,3.47,15.17,.22,4.63-.16,8.68,.68,13.14,.39,2.08,1.04,4.26,2.13,6.63,11.88,25.87,27.95,8.2,27.95,8.2,0,0,46.75-45.8,47.96-50.98,1.23-5.17-21.41-97.78-21.41-97.78l9.51-37.18s-43.17,3.6-57.24,14.86c-2.3,1.84-4.5,4.56-6.55,7.89-.68,1.12-1.35,2.31-2.01,3.55-9.26,17.68-14.63,47.19-10.7,59.54Z"/><path class="cls-12" d="M634.57,667.24s-71.98,11.88-97.84,12.5c-17.04,.4-29.11-6.77-32.26-8.54-9.48-5.29-36.31-21.46-36.31-21.46l50.57-21.64,15.23,7.44,95.86,17.21,4.74,14.48Z"/><path class="cls-12" d="M530.52,498.18s1.57,10.68,2.26,17.15c.69,6.47,1.65,10.23,1.53,16.42-.11,6.18,3.41,21.45,3.41,21.45,0,0-16.16-20.75-26.37-33.45-10.21-12.7-18.52-45.25-18.52-45.25,0,0,10.18,12.32,13.39,14.17,22.83,13.1,24.3,9.52,24.3,9.52Z"/><path class="cls-5" d="M517.21,621.62c.24,.09,.51,.07,.74-.07,.42-.25,.56-.79,.31-1.2-.17-.29-17.31-29.29-24.92-39.14-2.42-3.13-5.25-8.66-8.53-15.07-6.96-13.59-15.62-30.51-26.11-35.42-15.03-7.04-32.98-9.42-33.17-9.45-.48-.06-.92,.28-.98,.76-.06,.48,.27,.93,.76,.98,.18,.02,17.86,2.37,32.65,9.3,9.94,4.66,18.45,21.28,25.29,34.63,3.32,6.48,6.18,12.08,8.71,15.34,7.55,9.76,24.63,38.66,24.8,38.95,.11,.18,.27,.31,.46,.38Z"/><path class="cls-5" d="M626.42,637.7c.21,.07,.44,.07,.66-.02,.44-.2,.64-.72,.44-1.16-.22-.49-21.9-49.03-25.63-60.78-3.67-11.58,1.51-36.39,1.56-36.64,.1-.47-.21-.92-.68-1.04-.47-.1-.94,.2-1.04,.68-.22,1.04-5.33,25.51-1.52,37.53,3.76,11.85,24.81,58.97,25.7,60.97,.1,.23,.29,.39,.5,.47Z"/><path class="cls-5" d="M550.16,574.73c-.3-.24-30.21-24.67-45.23-38.08-13.78-12.31-28.83-32.37-28.26-35.25,.08-.39,.34-.71,.63-.8,1.13-.75,6.16-10.1,10.37-18.69,.21-.44,.75-.62,1.17-.4,.44,.21,.62,.74,.4,1.17-3.18,6.49-8.58,17.14-10.81,19.21,.78,3.01,13.39,20.7,27.66,33.45,12.9,11.52,36.83,31.2,43.44,36.61-.79-5.86-2.83-21.58-2.84-27.96,0-4.6,2.78-15.24,5.01-23.79,1.37-5.25,2.93-11.2,2.8-12.09-.45-1.36-8.77-7.1-16.21-11.64-.41-.25-.54-.79-.29-1.21,.25-.42,.8-.54,1.21-.29,4.95,3.02,16.5,10.31,17.01,12.77,.22,1.09-.59,4.41-2.81,12.91-2.21,8.45-4.96,18.98-4.95,23.35,0,7.63,3.09,29.71,3.12,29.93l.31,2.22-1.74-1.42Zm-72.21-72.51s.06-.02,.09-.04c-.03,.02-.06,.03-.09,.04Z"/><path class="cls-9" d="M561.74,461.07c-2.41-.99-4.21-3.02-5.09-5.7-.85-2.63-.7-5.59,.43-8.32h0c2.35-5.7,8.28-8.73,13.2-6.64,4.92,2.03,7.01,8.32,4.66,14.02-1.13,2.74-3.11,4.94-5.57,6.2-2.38,1.22-4.94,1.42-7.26,.59-.12-.04-.25-.09-.37-.14Zm-3.03-13.35h0c-.97,2.35-1.11,4.87-.38,7.11,.71,2.18,2.16,3.82,4.09,4.62,1.92,.78,4.11,.66,6.16-.39,2.09-1.07,3.78-2.95,4.75-5.3,1.98-4.8,.32-10.07-3.71-11.73-.1-.04-.19-.08-.29-.11-3.97-1.43-8.68,1.12-10.62,5.8Z"/><path class="cls-9" d="M537.17,452.22c-4.92-2.03-7.01-8.32-4.66-14.02,2.35-5.7,8.2-8.72,13.2-6.64,2.41,1,4.21,3.02,5.09,5.7,.85,2.63,.7,5.59-.43,8.32-1.13,2.74-3.11,4.94-5.57,6.2-2.38,1.22-4.94,1.42-7.26,.59-.12-.04-.25-.09-.37-.14Zm-3.04-13.35c-1.98,4.8-.32,10.07,3.71,11.73,1.9,.78,4.11,.66,6.16-.39,2.09-1.07,3.78-2.96,4.75-5.31,.97-2.35,1.11-4.87,.38-7.11-.71-2.18-2.16-3.82-4.09-4.62-.1-.04-.19-.08-.29-.11-3.97-1.43-8.68,1.11-10.62,5.8Z"/><rect class="cls-9" x="552.99" y="441.66" width="1.76" height="8.55" transform="translate(-53.36 815.94) rotate(-70.19)"/><path class="cls-9" d="M533.42,438.51c.32,.12,.7,.04,.94-.23,.33-.36,.3-.91-.05-1.24l-15.2-13.95c-.36-.33-.91-.3-1.24,.05-.33,.36-.3,.91,.05,1.24l15.2,13.95c.09,.08,.19,.14,.3,.18Z"/><path class="cls-26" d="M572.5,407.89c-3.4-4.63-5.09-15.41-9.66-18.62-3.56-2.5-5.26-4.28-8.98-5.45-.05-.17-26.62-.97-32.22,1.7-2.41,.53-4,4.94-6.4,5.55-.55,.14-3.25-.53-3.09-.08-3.87,1.32-4.78,4.61-7.17,8.05-2.81,4.04-3.93,9.01-4.61,13.95-.54,3.9-.49,5.97,1,9.19-.67-.21-1.37-.3-2.23-.29-1.04,.01-1.05,1.78-.01,1.77,3.08-.03,5.64,2.75,8.01,4.52,.46,.35,1.34,1.3,2.09,1.12,2.06-.51,3.28-5.08,3.82-6.91,1.44-4.85,2.64-9.44,4.99-13.91,1.35-2.56,2.84-5.02,4.33-7.48,1.16,.53,2.28,1.25,3.44,1.72,1.72,.7,3.53,1,5.36,1.01,1.87,.01,3.64-.39,5.48-.73,2.36-.43,4.35-.74,6.52,.59,1.31,.8,2.13,1.67,3.17,2.83,2.37,2.64,3.99,3.99,7.44,4.57,3.57,.6,7.1,.31,10.55-.62,.58,.77,1.36,1.45,2.15,2.09,2.22,1.78,4,3.66,5.98,5.71,1.44,1.49,5.04,8.74,6.62,10,.53,.42-.86-7.25-.83-7.86,.29-4.93-3.13-8.78-5.78-12.39Z"/><path class="cls-26" d="M563.51,470.06s.43,10.51-3.01,15.87c0,0-3.09,9.12-8.5,11.41,0,0-5.46,6.32-15.55,5.25,0,0-14.06-.64-16.72-8.5,0,0-14.05-5.88-14.95-19.6,0,0-4.49-8.33-2.4-16.42,2.1-8.09,4.78-29.93,4.78-29.93l5.12-5.46-.91,23.25s9.94,2.93,12.61,6.94c2.67,4,9.13,5.3,12.19,8.85,0,0,10.61,1.99,15.82,5.17,0,0,8.55-.45,11.51,3.18Z"/><path class="cls-9" d="M548.55,472.27s-3.27-.25-8.26-2.21c-5.7-2.24-9.35-4.15-9.35-4.15,0,0,.86,5.72,6.62,8.09,5.76,2.37,10.99-1.73,10.99-1.73Z"/></g><g><path class="cls-9" d="M459.64,654.32c0,3.43-4.95,41.63-6.29,44.29-1.33,2.67-9.71,4.99-17.06,4.19-10.49-1.15-12.52-4.38-13.83-6.1-1.31-1.71-5.21-42.01-4.26-44.87,.95-2.86,11.11-6.36,25.9-4.84,14.26,1.47,15.53,4.48,15.53,7.32Z"/><path class="cls-9" d="M415.28,685.78c-2.7-2.37-4.46-5.74-4.95-9.5h0c-1.03-7.86,3.85-15.01,10.89-15.93,7.05-.92,13.6,4.72,14.64,12.58,.49,3.76-.33,7.47-2.33,10.46-2.06,3.08-5.1,5.02-8.56,5.47-.51,.07-1.03,.1-1.54,.1-2.93,0-5.78-1.1-8.15-3.18Zm6.5-21.16c-4.69,.62-7.91,5.6-7.19,11.11h0c.36,2.72,1.61,5.14,3.53,6.83,1.84,1.61,4.07,2.33,6.29,2.05,2.22-.29,4.19-1.57,5.54-3.6,1.42-2.12,2-4.78,1.64-7.51-.67-5.13-4.54-8.93-8.85-8.93-.32,0-.64,.02-.96,.06Z"/><path class="cls-16" d="M456.54,652.52c0-1.39-7.06-4-17.46-4-10.4,0-17.92,2.62-17.92,4,0,1.39,6.82,4,17.21,4,10.4,0,18.17-2.62,18.17-4Z"/><g><path class="cls-10" d="M397.5,600.65c.12,3.83,2.53,7.05,5.84,8.79,4.27,2.23,8.89,3.24,12.94,6.02,2.77,1.89,5.19,4.17,7.29,6.73-.03,0-.05-.02-.08-.03-2.64-.82-6.77-.96-6.57,2.82,.29,5.36,7.68,6.31,10.89,9.1,4.73,4.12,6.92,11.35,9.46,16.89,.31,.68,1.33,.3,1.34-.36,.07-6.81-2.85-16.28-6.4-22.04-1.59-2.58-4.03-4.44-5.82-6.85-1.79-2.41-2.65-5.27-3.94-7.95-3.6-7.46-11.46-16.96-20.43-17.67-3.13-.25-4.61,1.53-4.52,4.57Z"/><path class="cls-10" d="M426.93,609.98c-.4,1.35,.59,2.69,1.51,3.76,2.71,3.13,4.57,5.99,6.33,9.77,2.82,6.05,7.95,2.17,5.81-3.05-1.7-4.17-5.54-12.13-10.86-12.24-.5,0-1.02,.1-1.47,.32-.62,.3-1.12,.79-1.32,1.45Z"/></g></g><g><rect class="cls-6" x="874.08" y="435.86" width="45.39" height="29.49" rx="1.18" ry="1.18" transform="translate(1793.55 901.21) rotate(-180)"/><path class="cls-8" d="M874.08,435.86h45.39v8.08c0,.65-.53,1.18-1.18,1.18h-43.03c-.65,0-1.18-.53-1.18-1.18v-8.08h0Z" transform="translate(1793.55 880.98) rotate(-180)"/><rect class="cls-15" x="878.03" y="447.97" width="37.5" height="2.08" transform="translate(1793.56 898.01) rotate(-180)"/><rect class="cls-15" x="895.22" y="451.89" width="20.31" height="2.08" transform="translate(1810.75 905.86) rotate(-180)"/><rect class="cls-15" x="878.03" y="460.13" width="37.5" height="2.08" transform="translate(1793.56 922.34) rotate(-180)"/></g><g><path class="cls-33" d="M720.83,661.88l-4.21-4.03c-1.02-.98-1.5-2.39-1.27-3.79l29.91-186.66c.33-2.04,2.06-3.56,4.13-3.62l268.75-7.63c.81-.02,1.6,.18,2.3,.59l9.57,5.61-309.18,199.53Z"/><path class="cls-34" d="M986.2,648.73l-265.36,13.14,32.08-191.8,277.1-7.73-39.82,183c-.41,1.9-2.05,3.29-3.99,3.38Z"/><path class="cls-34" d="M843.12,690.61h37.39l8.6-91.87h-37.39l-8.6,91.87Zm14.17-18.38l3.56-40.41c.26-2.9,2.7-5.06,5.55-5.06,.16,0,.32,0,.47,.01,3.05,.27,5.32,2.97,5.05,6.02l-3.56,40.43c-.27,3.05-2.97,5.31-6.02,5.03-3.05-.26-5.32-2.95-5.05-6.02Z"/><polygon class="cls-34" points="932.13 696.45 895.79 680.78 792.24 685.04 818.05 700.27 932.13 696.45"/><path class="cls-33" d="M846.69,653.23c.37,0,.68-.28,.71-.65l4.98-53.12h35.95l-4.86,51.93c-.04,.39,.25,.74,.65,.78,.39,.03,.74-.25,.78-.65l4.94-52.72c.02-.2-.05-.4-.18-.55-.14-.15-.33-.23-.53-.23h-37.39c-.37,0-.68,.28-.71,.65l-5.04,53.77c-.04,.39,.25,.74,.65,.78,.02,0,.04,0,.07,0Z"/><path class="cls-33" d="M818.04,621.83s.02,0,.03,0l31.52-1.39c.4-.02,.7-.35,.68-.75-.02-.39-.38-.74-.75-.68l-30.65,1.36,6.68-43.96,95.37-3.49-7.44,43.62-26.22,.97c-.4,.02-.7,.35-.69,.74,.01,.39,.35,.67,.74,.69l26.8-1c.34-.01,.62-.26,.68-.6l7.69-45.06c.04-.21-.03-.43-.17-.59-.14-.16-.34-.25-.57-.25l-96.85,3.55c-.34,.01-.63,.27-.68,.61l-6.9,45.41c-.03,.21,.03,.43,.18,.59,.14,.15,.33,.24,.53,.24Z"/><path class="cls-33" d="M961.37,476.96h.03l51.98-1.79c.4-.01,.71-.35,.69-.74-.01-.39-.34-.68-.74-.69l-51.98,1.79c-.4,.01-.71,.35-.69,.74,.01,.39,.33,.69,.72,.69Z"/><path class="cls-33" d="M959.94,484.13h.03l51.98-1.79c.4-.01,.71-.35,.69-.74-.01-.39-.35-.65-.74-.69l-51.98,1.79c-.4,.01-.71,.35-.69,.74,.01,.39,.33,.69,.72,.69Z"/><path class="cls-33" d="M958.51,491.3h.03l51.98-1.79c.4-.01,.71-.35,.69-.74-.01-.39-.36-.68-.74-.69l-51.98,1.79c-.4,.01-.71,.35-.69,.74,.01,.39,.33,.69,.72,.69Z"/><path class="cls-33" d="M957.07,498.47h.03l51.98-1.79c.4-.01,.71-.35,.69-.74-.01-.39-.36-.65-.74-.69l-51.98,1.79c-.4,.01-.71,.35-.69,.74,.01,.39,.33,.69,.72,.69Z"/><path class="cls-33" d="M954.2,512.81h.03l51.98-1.79c.4-.01,.71-.35,.69-.74-.01-.39-.34-.65-.74-.69l-51.98,1.79c-.4,.01-.71,.35-.69,.74,.01,.39,.33,.69,.72,.69Z"/><path class="cls-33" d="M952.77,519.98h.03l51.98-1.79c.4-.01,.71-.35,.69-.74-.01-.39-.35-.69-.74-.69l-51.98,1.79c-.4,.01-.71,.35-.69,.74,.01,.39,.33,.69,.72,.69Z"/><path class="cls-33" d="M955.64,505.64h.03l51.98-1.79c.4-.01,.71-.35,.69-.74-.01-.39-.37-.68-.74-.69l-51.98,1.79c-.4,.01-.71,.35-.69,.74,.01,.39,.33,.69,.72,.69Z"/><path class="cls-33" d="M941.36,640.18c-1.17-1.34-1.68-3.12-1.38-4.88,.46-2.72,2.8-4.78,5.55-4.91l29.22-1.32c1.78-.1,3.49,.64,4.68,1.98,1.19,1.34,1.7,3.12,1.41,4.88l-.04,.26h0c-.46,2.75-2.82,4.83-5.61,4.93l-29.17,1.06c-.07,0-.14,0-.22,0-1.7,0-3.31-.73-4.43-2.01Zm38.06-4.47c.22-1.34-.17-2.68-1.06-3.7-.9-1.01-2.19-1.55-3.54-1.5l-29.22,1.32c-2.09,.09-3.85,1.66-4.2,3.72-.23,1.33,.15,2.68,1.04,3.69,.89,1.01,2.17,1.6,3.52,1.52l29.17-1.06c2.11-.08,3.9-1.64,4.24-3.73l.04-.26Z"/><path class="cls-33" d="M758.7,486.74c-.14-.16-.2-.37-.17-.58l1.35-8.54c.05-.34,.35-.6,.69-.61l48.15-1.05c.21-.01,.44,.1,.58,.28,.14,.18,.19,.41,.13,.63l-2.44,8.95c-.08,.31-.36,.52-.68,.53l-47.06,.64h0c-.21,0-.41-.09-.54-.25Zm49.1-9.32l-46.59,1.01-1.12,7.11,45.67-.62,2.05-7.5Z"/></g></g></g></g></g></svg>