<?xml version="1.0" encoding="UTF-8"?><svg id="Layer_2" xmlns="http://www.w3.org/2000/svg" xmlns:xlink="http://www.w3.org/1999/xlink" viewBox="0 0 1140.8 792.04"><defs><style>.cls-1{fill:none;}.cls-2{fill:url(#linear-gradient);}.cls-3{clip-path:url(#clippath);}.cls-4{fill:#f9debf;}.cls-5{fill:#f8f2f2;}.cls-6{fill:#017c33;}.cls-7{fill:#f69b7a;}.cls-8{fill:#e4c1ab;}.cls-9,.cls-10{fill:#fff;}.cls-11{fill:#fcd1b3;}.cls-12{fill:#fde0ce;}.cls-13{fill:#fdebe0;}.cls-14{fill:#663330;}.cls-15{fill:#989898;}.cls-16{fill:#804341;}.cls-17{fill:#009a44;}.cls-18{fill:#b56d56;}.cls-19{fill:#9e5a49;}.cls-20{fill:#bbb;}.cls-21{fill:#c6b6b3;}.cls-22{fill:#e2c39f;}.cls-23{fill:#e2b290;}.cls-24{fill:#d77a57;}.cls-25{fill:#25354c;}.cls-26{fill:#1e2144;}.cls-27{fill:#10100f;}.cls-28{fill:#1b88ad;}.cls-29{fill:#362823;}.cls-30{fill:#452f27;}.cls-31{fill:#545454;}.cls-32{fill:#542a26;}.cls-33{fill:#543d35;}.cls-34{fill:#868383;}.cls-35{fill:#26a7df;}.cls-36{fill:#485a7e;}.cls-37{fill:#354867;}.cls-38{fill:#36b24a;}.cls-39{fill:#3a1a19;}.cls-40{fill:#2c9947;}.cls-41{fill:#776984;}.cls-42{fill:#4f4f4f;}.cls-43{fill:url(#linear-gradient-3);}.cls-44{fill:url(#linear-gradient-4);}.cls-45{fill:url(#linear-gradient-2);}.cls-46{fill:url(#linear-gradient-5);}.cls-10{opacity:.48;}</style><clipPath id="clippath"><rect class="cls-1" width="1140.8" height="792.04"/></clipPath><linearGradient id="linear-gradient" x1="471.27" y1="502.86" x2="681.17" y2="502.86" gradientTransform="matrix(1, 0, 0, 1, 0, 0)" gradientUnits="userSpaceOnUse"><stop offset="0" stop-color="#cfd1d2"/><stop offset=".34" stop-color="#d7d9da"/><stop offset=".87" stop-color="#eff0f0"/><stop offset="1" stop-color="#f6f7f7"/></linearGradient><linearGradient id="linear-gradient-2" x1="279.71" y1="496.34" x2="864.33" y2="496.34" xlink:href="#linear-gradient"/><linearGradient id="linear-gradient-3" x1="26.3" y1="469.45" x2="158.02" y2="469.45" xlink:href="#linear-gradient"/><linearGradient id="linear-gradient-4" x1="24.24" y1="535.27" x2="180.23" y2="535.27" xlink:href="#linear-gradient"/><linearGradient id="linear-gradient-5" x1="325.11" y1="429.82" x2="434.27" y2="429.82" gradientTransform="translate(759.38 859.65) rotate(180)" xlink:href="#linear-gradient"/></defs><g id="Layer_1-2"><g class="cls-3"><g><path class="cls-7" d="M328.56,346.94c4.4-4.7,4.99-9.92,4.99-9.92l1.68,3.89c.98,2.26,.95,4.82-.06,7.07-2.03,4.5-5.49,9.33-5.49,9.33l-1.12-10.37Z"/><path class="cls-8" d="M113.3,449.95s13.51,16.94,14.17,26.23c0,0,1.48-13.61-14.17-26.23Z"/><path class="cls-40" d="M955.48,389.64s-15.78,13.17-31.07,41.79c-15.29,28.62-70.42,34.19-70.42,34.19l-1.36,.44s-1.01,.71,0,.78c1.01,.06,8.34-1.42,10.66-1.8,2.09-.35,37.5-4.88,57.32-25.37,3.18-3.29,5.71-7.15,7.72-11.26,4.19-8.56,14.96-28.57,27.93-37.13,0,0,5.19-4.36-.78-1.63Z"/><g><g><path class="cls-15" d="M10,722.33c.15,27.09,28.14,30.31,49.05,28.79,26.73-1.94,53.41-10.25,80.37-6.84,27.03,3.42,51.79,13.86,79.46,13.76,27.84-.1,55.3-6.09,83.06-7.62,56.38-3.1,112.65,5.23,169.04,2.91,55.15-2.27,109.34-13.9,164.31-18.11,27.5-2.1,54.86-1.87,82.29,1.11,27.37,2.97,54.5,7.82,81.9,10.6,27.51,2.79,54.7,2.33,82.21-.15,27.3-2.46,54.56-6.1,82.02-6.2,13.88-.05,28.3,1.9,42.85,3.98,5.93,1.24,11.86,2.49,17.83,3.72,16.03,3.3,32.54,5.87,48.95,5.06,13.15-.65,27.68-2.6,38.12-11.36,9.19-7.71,12.96-20.18,6.85-31.09-6.37-11.38-19.8-16.08-31.55-19.65-60.84-18.45-128.08-6.78-190.01,.16-8.18-.64-16.38-1.73-24.61-3.43-19.21-3.98-38.17-8.97-57.72-11.09-21.77-2.36-43.72-1.1-65.48,.74-42.66,3.61-85.02,6.65-127.88,5.51-36.93-.98-73.74-4.35-110.23-10-1.46-1.01-3.28-1.67-5.45-1.79-2.68-.14-5.37-.28-8.06-.42-1.51-.26-3.01-.49-4.52-.75-1.84-.32-3.53-.19-5.04,.26-57.12-2.94-114.48-5.13-171.45,1-30.67,3.3-60.77,10.35-91.41,13.76-30.97,3.44-61.3,.03-92.11-3.29-26.7-2.88-53.71-4.85-80.28,.3-20.63,4-42.64,16.3-42.51,40.13Z"/><g><ellipse class="cls-42" cx="1029.05" cy="241.34" rx="30.98" ry="4.43"/><path class="cls-20" d="M1024.67,243.55h-10.97c-13.82,0-25.03-7.79-25.03-17.39v-38.36c0-2.67,1.92-4.95,4.56-5.41,17.31-2.99,34.61-2.99,51.92,0,2.63,.46,4.56,2.74,4.56,5.41v38.36c0,9.6-11.21,17.39-25.03,17.39Z"/><g><g><path class="cls-17" d="M1030.01,77.84c0,13.84-12.9,25.07-12.9,25.07,0,0-12.9-11.22-12.9-25.07s5.77-25.07,12.9-25.07,12.9,11.22,12.9,25.07Z"/><path class="cls-17" d="M1077.87,90.9c-10.13,16.07-35.5,18.29-35.5,18.29,0,0-8.94-23.84,1.19-39.91,10.13-16.07,26.03-24.26,35.5-18.29,9.48,5.97,8.94,23.84-1.19,39.91Z"/><path class="cls-17" d="M1071.48,147.72c-11.45,7.54-32.19,8.62-32.19,8.62,0,0,2.63-14.84,12.39-24.46,9.77-9.62,25.97-16.41,31.64-10.65,5.67,5.75-.49,19.03-11.84,26.5Z"/><path class="cls-17" d="M977.61,106.29c8.56,10.71,27.94,18.16,27.94,18.16,0,0,2.1-14.92-4.2-27.1-6.3-12.17-19.61-23.64-26.79-19.92-7.18,3.71-5.43,18.25,3.05,28.87Z"/><path class="cls-17" d="M957.63,140.53c9.43,9.96,29.37,15.74,29.37,15.74,0,0,.84-15.05-6.47-26.65-7.31-11.6-21.53-21.91-28.37-17.6-6.84,4.3-3.88,18.64,5.47,28.51Z"/></g><g><path class="cls-6" d="M1021.6,185.22l-.54-.04c.86-13.01,3.78-27.15,8.67-42.04,3.91-11.9,9.09-24.3,15.38-36.86,10.72-21.37,21.12-35.98,21.22-36.12l.44,.31c-.1,.14-10.48,14.72-21.18,36.06-6.28,12.53-11.45,24.9-15.35,36.78-4.88,14.84-7.78,28.94-8.64,41.9Z"/><rect class="cls-6" x="1017.84" y="74.33" width=".54" height="111.68" transform="translate(-2.69 23.14) rotate(-1.3)"/><path class="cls-6" d="M1023.83,185.17l-.52-.12c.29-1.26,.62-2.49,.97-3.67,2.79-9.31,7.87-17.8,15.08-25.25,10.76-11.11,22.67-16.02,22.79-16.06l.2,.5c-.12,.05-11.93,4.92-22.6,15.94-7.15,7.38-12.18,15.8-14.95,25.03-.35,1.17-.68,2.39-.96,3.63Z"/><path class="cls-6" d="M1013.43,185.44c-.04-1.53-.1-3.13-.16-4.89-.93-23.38-3.67-42.25-8.14-56.09-5.88-18.22-12.76-21.1-12.83-21.13l.19-.5c.29,.11,7.17,2.95,13.15,21.47,4.48,13.88,7.23,32.8,8.17,56.23,.07,1.77,.12,3.37,.16,4.9l-.54,.02Z"/><path class="cls-6" d="M1000.25,185.19c-.33-1.2-.69-2.42-1.08-3.64-2.75-8.57-6.92-17.02-12.4-25.12-8.4-12.44-17.05-19.75-17.13-19.82l.35-.41c.09,.07,8.78,7.43,17.23,19.94,5.5,8.14,9.69,16.64,12.46,25.26,.39,1.23,.76,2.46,1.09,3.67l-.52,.14Z"/></g></g><path class="cls-42" d="M1046.65,185.46c0,1.37-12.3,2.49-27.47,2.49s-27.47-1.11-27.47-2.49,12.3-4.29,27.47-4.29,27.47,2.92,27.47,4.29Z"/></g><polygon class="cls-29" points="560 683.61 543.17 686.54 534 643.44 552.48 640.5 560 683.61"/><path class="cls-37" d="M539.61,707.5c1.07-3.56,2.13-6.81,3.12-10.92,.39-1.63,.91-2.9,.42-6.95-.83-2.59-2.33-8.21-2.66-9.56-.32-1.35,.34-1.54,2.31-2.15,4.73-1.48,9.24-2.84,13.99-4.26,.06-.02,.37-.04,.42-.03,1.23-.1,1.72,1.17,2.2,2.56,1.94,5.67,1.45,3.93,3.12,9.68,2.27,7.8,1.11,7.68-.49,11.11-.85,1.81-1.64,3.68-2.24,6.05-.87,3.44-1.49,7.48-2.36,10.27-1.99,6.36-11.38,8.18-15.13,7.8-6.65-.68-3.66-10.39-2.7-13.6Z"/><path class="cls-9" d="M538.97,709.88c3.62-3.51,7.45-6.83,7.67-12.19,.28-6.61-1.23-13.61-2.98-20-.28,.09-.54,.17-.82,.25-.38,.12-.7,.22-.99,.32,1.44,5.35,2.46,10.8,2.81,16.34,.25,3.9-.31,6.92-3.06,9.86-.49,.53-1,1.04-1.51,1.56-.15,.5-.3,1-.46,1.51-.18,.6-.43,1.42-.67,2.36Zm14.65-15.55c-1.07,5.49-.08,10.62,2.85,15.37,.64,1.03,2.21,0,1.57-1.04-1.86-3.02-2.98-6.26-3.01-9.83-.02-2.74,.94-5.19,1.15-7.87,.43-5.73-1.97-10.9-1.3-16.7-.65,.2-1.3,.39-1.95,.59-.51,6.62,1.99,12.83,.7,19.48Z"/><path class="cls-9" d="M544.39,682.1c2.75-.65,5.48-1.42,8.17-2.29,1.15-.37,1.74,1.42,.58,1.79-2.69,.87-5.42,1.63-8.17,2.29-1.17,.28-1.76-1.51-.58-1.79Z"/><path class="cls-9" d="M545.88,686.63c2.67-.57,5.28-1.3,7.86-2.18,1.15-.39,1.73,1.4,.58,1.79-2.58,.88-5.2,1.61-7.86,2.18-1.17,.25-1.77-1.54-.58-1.79Z"/><path class="cls-9" d="M555.45,713.6c1.69-3.02,2.03-10.42,3.01-13.72,1.04-3.49,2.86-6.31,5.15-9.65,.65,3.67-.31,4.22-1.54,6.86-.85,1.82-1.64,3.68-2.24,6.05-.87,3.44-1.49,7.48-2.36,10.27-1.99,6.36-11.38,8.18-15.13,7.8-1.74-.18-2.81-.98-3.44-2.12,4.68,.6,14.07-1.05,16.55-5.48Z"/><path class="cls-42" d="M483.03,698.83l34.05-126.63c.68-2.51,3.26-4,5.76-3.32,2.51,.68,4,3.26,3.32,5.77l-7.34,27.29h102.36l-5.03-25.07c-.51-2.55,1.14-5.03,3.69-5.54,2.54-.51,5.03,1.14,5.54,3.69l25.44,126.92c2.48,1.42,4.17,4.06,4.17,7.12,0,4.55-3.69,8.23-8.23,8.23s-8.23-3.69-8.23-8.23c0-2.49,1.13-4.7,2.88-6.21l-16.98-84.68h-109.98l-22.3,82.94c1.37,1.58,2.15,3.68,2,5.93-.29,4.54-4.21,7.98-8.75,7.68-4.54-.29-7.98-4.21-7.68-8.75,.22-3.32,2.38-6.04,5.3-7.15Z"/><polygon class="cls-29" points="583.37 705.12 566.46 702.69 571.09 658.87 589.57 661.8 583.37 705.12"/><path class="cls-2" d="M478.27,469.6c4.39-24.78,19.76-51.76,35.45-61.17,3.87-2.32,4.23-3.97,7.88-4.85,10.91-4.4,23.54-5.88,36.64-5.93,28.41-.1,65.86-2.64,88.62,17.06,.83,.72,1.61,1.45,2.37,2.19,13.73,11.64,23.93,37.52,27.83,59.51,4.29,24.22,5.02,47.05,3.14,62.42-2.17,17.72-3.01,36.86-17.83,49.28-14.75,12.36-36.33,16.66-54.76,18.73-19.6,2.2-47.55,1.42-69.89,.17-4.53-.13-8.61-.36-12-.75-18.43-2.07-26.35-8.7-34.82-16-14.65-12.62-16.98-40.62-19.15-58.34-1.88-15.37,2.24-38.11,6.53-62.33Z"/><path class="cls-34" d="M522.44,519.87c1.84-2.66,5.39-1.82,6.68,.22,1.28-1.35,3.32-1,4.75,.17,.03-.09,.06-.18,.1-.27,1.75-4.58,7.97-2.78,7.26,2-.18,1.23-.34,2.45-.5,3.68,1.35-1.88,4.55-1.83,6.06-.25,.72-.27,1.52-.34,2.28-.18-.15-.48-.29-.9-.38-1.16-1.54-4.62,5.67-6.54,7.26-2l1.04,2.97c.36-2.96,3.87-4.39,5.97-2.78,1.93-1.13,4.8-.75,5.57,2.01,.24-.08,.49-.14,.75-.17,.4-3.39,4.52-4.75,6.89-1.63,.14,.19,.27,.38,.41,.57,.68-2.92,5.1-4.18,6.93-1.08,1,1.7,1.91,3.43,2.76,5.18,.02-1.95,.22-3.88,.71-5.79,.81-3.17,5.69-3.66,7-.81,1.86-2.12,5.68-2.19,6.52,1.19,.81-3.62,6.7-3.36,7.36,.65,1.94-2.27,6.66-1.5,6.7,2.36,0,.52,.01,1.05,.02,1.57,1.24,.42,2.27,1.46,2.54,3.08,.03-4.69,12.07-5.86,12.21-1.07,.5,17.81-3.75,36.99-7.12,54.57-3.3,17.2-18.47,94.18-21.34,100.48-1.91,4.2-4.21,4.35-8.47,4.07-9.17-.6-19.17-4.46-28.13-6.54-1.69-.39-2.65-2.01-2.76-3.63-.15-2.18-.24-4.36-.31-6.54-6.93,.99-13.71,2.46-20.48,4.41-1.88,.54-4.2-.66-4.63-2.63-6.27-28.53-12.53-57.05-18.8-85.58-5.26-23.92-9.74-45.58,5.18-67.07Z"/><path class="cls-37" d="M516.58,366.16c1.58-13.21,9.44-21.51,20.15-29.04,6-4.21,12.85-10.52,19.88-12.89,6.8-2.29,16-.62,23.05-.56,.06,0,.1,.03,.15,.03,.48-.23,6.55-.84,7.16-.55,21.11,10.1,40.63,13.64,48.54,37.2,3.94,11.72,.4,25.58-.89,37.53-1.51,13.92-1.6,37.43-5.78,50.84-.64,4.75-1.95,9.25-6.65,11.76-6.82,3.64-16.58,2.43-24,2.17-18.9-.68-64.6,8.46-67.87,2.47-1.27-.88-9.23-39.32-9.65-42.34-2.5-18.29-6.3-38.16-4.09-56.62Z"/><path class="cls-42" d="M695.7,696.95l34.05-126.63c.68-2.51,3.26-4,5.77-3.32,2.51,.68,4,3.26,3.32,5.77l-7.34,27.29h102.36l-5.03-25.07c-.51-2.55,1.14-5.03,3.69-5.54,2.54-.51,5.03,1.14,5.54,3.69l25.44,126.92c2.48,1.42,4.17,4.06,4.17,7.12,0,4.55-3.69,8.23-8.23,8.23s-8.23-3.69-8.23-8.23c0-2.49,1.13-4.7,2.88-6.21l-16.98-84.68h-109.98l-22.3,82.94c1.37,1.58,2.15,3.68,2,5.93-.29,4.54-4.21,7.98-8.75,7.68-4.54-.29-7.98-4.21-7.68-8.75,.22-3.32,2.38-6.04,5.3-7.15Z"/><path class="cls-34" d="M690.95,467.71c4.39-24.78,19.76-51.76,35.45-61.17,3.87-2.32,4.23-3.97,7.88-4.85,10.91-4.4,23.54-5.88,36.64-5.93,28.41-.1,65.86-2.64,88.62,17.06,.83,.72,1.61,1.45,2.37,2.19,13.73,11.64,23.93,37.52,27.83,59.51,4.29,24.22,5.02,47.05,3.14,62.42-2.17,17.72-3.01,36.86-17.83,49.28-14.75,12.36-36.33,16.66-54.76,18.73-19.6,2.2-47.55,1.42-69.89,.17-4.53-.13-8.61-.36-12-.75-18.43-2.07-26.35-8.7-34.82-16-14.65-12.62-16.98-40.62-19.15-58.34-1.88-15.37,2.24-38.11,6.53-62.33Z"/><path class="cls-20" d="M423.02,726.7c.29,4.54,4.21,7.98,8.75,7.68,4.54-.29,7.98-4.21,7.68-8.75-.29-4.54-4.21-7.98-8.75-7.68-4.54,.29-7.98,4.21-7.68,8.75Z"/><path class="cls-20" d="M383.43,727.02c-.29,4.54-4.21,7.98-8.75,7.68-4.54-.29-7.98-4.21-7.68-8.75,.29-4.54,4.21-7.98,8.75-7.68,4.54,.29,7.98,4.21,7.68,8.75Z"/><g><rect class="cls-42" x="320.29" y="596.57" width="118.34" height="16.23"/><path class="cls-42" d="M296.13,703.75c-.31-.02-.61-.07-.92-.15-2.51-.67-4-3.26-3.32-5.77l35.22-131c.68-2.51,3.26-4,5.77-3.32,2.51,.67,4,3.26,3.32,5.77l-35.22,131c-.59,2.2-2.65,3.62-4.84,3.47Z"/><path class="cls-42" d="M457.46,708.28c.31,0,.62-.03,.93-.09,2.55-.51,4.2-2.99,3.69-5.54l-26.66-133c-.51-2.55-3-4.2-5.54-3.69-2.55,.51-4.2,2.99-3.69,5.54l26.66,133c.45,2.24,2.41,3.78,4.61,3.78Z"/><path class="cls-42" d="M304.19,701.68c-.29,4.54-4.21,7.98-8.75,7.68-4.54-.29-7.98-4.21-7.68-8.75,.29-4.54,4.21-7.98,8.75-7.68,4.54,.29,7.98,4.21,7.68,8.75Z"/><circle class="cls-42" cx="458.09" cy="704.75" r="8.23"/><path class="cls-34" d="M276.98,463.03c4.39-24.78,19.76-51.76,35.45-61.17,3.87-2.32,7.62-3.87,11.28-4.76,10.91-4.4,23.54-5.88,36.64-5.93,28.41-.1,63.52-.45,86.28,19.25,.83,.72,1.61,1.45,2.37,2.19,13.73,11.64,26.27,35.33,30.17,57.31,4.29,24.22,5.02,47.05,3.14,62.42-2.17,17.72-3.01,36.86-17.83,49.28-14.75,12.36-36.33,16.66-54.76,18.73-19.6,2.2-47.55,1.42-69.89,.17-4.53-.13-8.61-.36-12-.75-18.43-2.07-26.35-8.7-34.82-16-14.65-12.62-16.98-40.62-19.15-58.34-1.88-15.37-1.15-38.21,3.14-62.42Z"/><path class="cls-29" d="M341.74,553.54c9.37,1.44,6.91,22.18,12.34,14.42,17.57-25.09,40.78-22.27,60.15,4.34,4.79,6.59,2.94-7.54,11.24-6.8,7.66,.68,12.73-7.05,15.36-13.17,3.34-7.76,3.94-16.24,4.57-24.57,.83-11.01,1.63-22.03,2.45-33.04,.63-8.47-12.55-8.4-13.17,0-1.02,13.72-.96,28.13-3.21,41.78-.32-.92-.93-1.82-1.94-2.6-1.34-1.05-2.79-1.96-4.29-2.8-.67-1.53-2.02-2.77-4.23-3.24-1.9-.41-3.81-.79-5.72-1.17-3.25-1.18-6.52-2.26-9.62-3.44-8.6-3.28-16.9-6.25-26.2-6.43-8.95-.17-20.24-.81-28.86,1.77-1.91,.57-3.5,1.45-4.89,2.52-2.72-3.13-5.02-6.62-6.63-10.28-2.24-5.08-11.11-3.77-12.04,1.57-2.9,16.66-6.99,37.81,14.69,41.14Zm77.19-6.73c-2.04-1.43-4.16-2.75-6.32-3.99,3.5,.69,7.01,1.38,10.51,2.08,2.86,.56,5.88-1.08,7.47-3.41-.5,2.75-1.34,6.98-3.02,8.08-3.76,2.45-5.8-.76-8.64-2.75Z"/><path class="cls-4" d="M409.28,690.66c1.67-3.23,6.57-.42,4.9,2.81-1.43,2.77,12.32,7.65,14.37,8.83,1.71,.99,15.09,10.97,17.92,6.94-.13-.96,.23-1.96,1.34-2.58,.13-.07,.53-.27,.39-.22-3.39,1.34,6.44,1.28,6.02,3.69-1.96,11.29-20.21,2.24-26.32-1.6-6.25-3.92-24.51-6.51-18.62-17.88Z"/><path class="cls-29" d="M412.1,679.83c4.77,2.86,8.39,4.1,14.26,3.71,1.26-.08,3.46-.11,5.38-.54,.12,2.56,.63,5.13,1.3,6.85,1.49,3.86,4.24,6.32,7.31,8.39,3.47,2.35,14.4,10.59,13.87,11.66-1.25,2.54-7.09,2.8-10.98,2.59-5.66-.31-14.51-7.25-18.89-9.57-2.2-1.17-11.4-4.45-12.85-5.33-4-2.41-3.15-3.8-2.71-6.82,.53-3.57,2.28-7.34,3.29-10.94Z"/><path class="cls-4" d="M427.61,692.14c1.91,.1,4.36,.29,6.3-.45-.3-.54-.57-1.1-.81-1.7-1.67,.61-3.95,.34-5.49,.27-1.21-.06-1.21,1.82,0,1.88Zm-1.24-4c1.83,.09,4.14,.26,6.04-.37-.14-.59-.26-1.21-.37-1.86-1.68,.71-4.08,.43-5.67,.35-1.21-.06-1.21,1.82,0,1.88Z"/><path class="cls-4" d="M353.3,694.94c-1.09-3.47-6.4-1.55-5.31,1.92,.93,2.98-13.46,5.4-15.68,6.21-1.85,.67-16.76,8.19-18.85,3.74,.29-.92,.11-1.97-.88-2.77-.12-.09-.48-.36-.35-.28,3.11,1.91-6.56,.15-6.57,2.6-.02,11.46,19.52,5.7,26.2,2.98,6.83-2.78,25.26-2.18,21.43-14.39Z"/><path class="cls-29" d="M352.4,683.79c-5.19,2-8.98,2.59-14.69,1.19-1.22-.3-3.39-.7-5.21-1.47-.56,2.5-1.51,4.94-2.46,6.52-2.14,3.55-5.27,5.49-8.65,7-3.83,1.71-16.01,7.94-15.68,9.08,.79,2.72,6.5,3.98,10.37,4.45,5.63,.67,15.54-4.64,20.26-6.16,2.37-.77,12-2.41,13.58-3.03,4.36-1.68,3.76-3.2,3.84-6.25,.1-3.6-.98-7.63-1.35-11.34Z"/><path class="cls-41" d="M335.32,691.38c-1.52-.19-3.82-.32-5.36-1.21-.34,.55-.71,1.05-1.09,1.53,1.78,1.06,4.22,1.3,6.13,1.53,1.2,.15,1.53-1.7,.33-1.85Zm1.91-3.73c-1.58-.2-4-.34-5.53-1.32-.21,.62-.44,1.21-.68,1.77,1.76,.95,4.06,1.19,5.89,1.41,1.2,.15,1.53-1.7,.33-1.85Z"/><path class="cls-29" d="M383.43,519.58c-2.06-3.4,1.68-7.1,4.45-5.94,.04-.37,.14-.73,.3-1.07-.14-.22-.27-.43-.41-.65-.96-1.53-.71-3.14,.11-4.32-.02-.03-.04-.07-.06-.1-2.4-4.07,3.06-8.53,6.01-4.54,.23,.32,.46,.64,.7,.96,.57-.45,1.27-.75,1.98-.87-.06-.12-.12-.23-.19-.35-2.05-3.72,4.16-7.23,6.49-3.69,.22,.34,.44,.68,.67,1.02,.64-1.86,2.8-3.1,4.66-2.6,.71-2.69,4.82-4.25,6.71-1.44,.09,.13,.17,.26,.26,.39,1.51-.86,3.63-.79,5.04,.78,.39,.44,.75,.9,1.14,1.34-.35-.62-.71-1.24-1.06-1.86-2.37-4.16,3.62-8.74,6.01-4.54,7.65,13.44,15.32,26.87,22.55,40.53,7.33,13.85,11.93,25.43,9.41,41.24-5.27,33.11-9.23,67.59-15.9,100.45-1.43,7.06-1,13.09-5.25,12.2-6.74-1.41-31.62-3.94-32.15-8.31-.78-6.4,13.05-90.26,9.33-105.92-1.59-6.69-23.1-40.02-30.8-52.72Z"/><path class="cls-29" d="M352.01,573.48c-4.6,15.43,5.1,101.69,3.96,108.03-.78,4.33-22.08,5.58-27.68,6.98-2.82,.71-2.9-1.43-3.94-8.57-4.81-33.18-12.92-73.99-16.33-107.34-1.63-15.93,3.61-27.23,11.71-40.65,7.99-13.24,16.4-26.22,24.79-39.2,2.62-4.06,8.34,.85,5.74,4.87-.39,.6-.77,1.2-1.16,1.8,.41-.42,.8-.86,1.22-1.27,1.49-1.48,3.62-1.43,5.07-.49,.1-.13,.19-.25,.28-.38,2.05-2.7,6.06-.91,6.62,1.81,1.89-.39,3.97,.97,4.51,2.86,.24-.33,.48-.66,.72-.98,2.53-3.4,8.53,.44,6.27,4.05-.07,.11-.14,.23-.21,.34,.71,.16,1.38,.5,1.93,.98,.25-.3,.5-.61,.75-.92,3.17-3.82,8.37,.94,5.74,4.87-.02,.03-.04,.07-.06,.1,.75,1.23,.91,2.84-.14,4.32-.15,.21-.3,.42-.44,.63,.14,.34,.22,.71,.24,1.08,2.84-1,6.36,2.9,4.11,6.18-8.41,12.25-31.75,44.31-33.71,50.9Z"/><path class="cls-11" d="M353.52,258.88c8.72-8.23,22.77-7.85,32.35-1.44,1.83-2,4.98-2.6,6.77,.33,9.29,15.24,8.41,40.48-1.27,55.59-4.29,6.7-11.67,14.08-19.92,13.54-8.65-.57-15.09-10.06-19.15-17.08-7.96-13.77-11.73-38.71,1.22-50.94Z"/><path class="cls-11" d="M361.93,307.44c.26,1.18,.52,2.36,.78,3.54,1.38-.28,3,.31,3.43,1.91,.02,.07,.03,.14,.05,.2,.85-.28,1.83-.2,2.58,.29,1.21-1.24,3.48-1.2,4.45,.46,.37-.43,.79-.81,1.35-1.09,.49-.24,.97-.33,1.44-.32v-.02c.48-2.59,3.41-2.41,4.84-.9,.06-1.07,.14-2.13,.19-3.2,.19-3.61,5.84-3.64,5.65,0-.53,9.89-.44,20.29-1.99,30.08-1.03,6.49-6.62,6.02-12.28,6.3-7.52,.38-11.34,.65-12.88-7.15-1.9-9.64-2.77-19.54-3.17-29.35-.13-3.15,4.85-3.88,5.55-.75Z"/><path class="cls-29" d="M361.69,296.08c0,1.36-.63,2.47-1.41,2.47s-1.41-1.11-1.41-2.47,.63-2.47,1.41-2.47,1.41,1.11,1.41,2.47Z"/><path class="cls-29" d="M387.45,296.78c0,1.36-.63,2.47-1.41,2.47s-1.41-1.11-1.41-2.47,.63-2.47,1.41-2.47,1.41,1.11,1.41,2.47Z"/><path class="cls-35" d="M307.22,390.56c1.88-13.81,7.22-25.64,18.4-34.31,7.82-6.07,16.92-10.12,25.4-15.12,.17-.6,.53-1.31,1.08-2.2,1.71-2.77,3.64-6.55,7.09-7.01,2.81-.38,10.08,1.22,12.27,2.08,.34,.13,.76,.91,.89,1.14,.26-.93,1.01-1.25,2.13-1.53,1.87-.48,4.01-.44,5.93-.65,1.83-.2,4.18-.81,5.99-.13,2.28,.86,4.18,3.5,5.81,5.83,21.06,9.76,43.63,19.3,52.55,42.16,7.43,19.04,7.36,43.51,7.51,64.89,.06,9.08,2.09,15.68,1.61,24.21-.11,1.98-1.21,3.3-2.61,3.98-.13,2.64-2.12,4.38-4.69,4.6-6.59,.56-13.18,.99-19.78,1.36-.27,1.62-.57,3.23-.92,4.85-1.25,5.66-8.6,3.56-9.24-1.25-.14-1.02-.29-2.03-.43-3.05-10.1,.41-20.22,.59-30.34,.51-4.74-.04-9.48-.14-14.21-.28,0,.1,.02,.2,.02,.3,.42,6.06-8.93,5.99-9.41,0-.02-.23-.04-.45-.06-.68-2.55-.11-5.09-.19-7.64-.34-8.81-.5-19.46,.14-27.95-2.37-2.18-.64-3.7-1.52-4.69-2.53-11.32-6.91-16.41-18.9-17.2-32.14-1.01-16.89,.21-35.54,2.5-52.32Z"/><path class="cls-11" d="M341.46,291.28c.28-2.12,1.63-4.29,4.03-4.09,2.36,.19,3.92,2.56,5.04,4.39,.55,.9,.23,1.74-.39,2.27,.76,1.04,1.47,2.12,2.12,3.23,.07,.1,.16,.16,.23,.28,.14,.27,.28,.54,.41,.81,.35,.69,.24,1.34-.08,1.85,.08,.26,.17,.52,.2,.8,.15,1.31-1.32,2.02-2.38,1.81-4.77-.91-9.84-6.3-9.18-11.36Z"/><path class="cls-11" d="M402.12,293.16c-.28-2.12-1.63-4.29-4.03-4.09-2.36,.19-3.92,2.56-5.04,4.39-.55,.9-.23,1.74,.39,2.27-.76,1.04-1.47,2.12-2.12,3.23-.07,.1-.16,.16-.23,.28-.14,.27-.28,.54-.41,.81-.35,.69-.24,1.34,.08,1.85-.08,.26-.17,.52-.2,.8-.15,1.31,1.32,2.02,2.38,1.81,4.77-.91,9.84-6.3,9.18-11.36Z"/><path class="cls-30" d="M343.61,267.76c.05-.42,1.68-9.62,3.66-13.13,3.04-5.4,9.24-8.99,15-9.92,6.75-1.09,12.98-1.99,17.76-.92,6.02,1.34,30.72,9.78,19.73,45.07-.87,2.8-7.3-5.96-15.13-7.54-1.93-.39-16-6.99-26.27-7.39-.06,0-.08-.07-.14-.07-12.18-1.14-7.9,12.19-8.11,13.82-.47,3.59-2.97,3.88-3.88,1.65-3.06-7.53-3.17-16.67-2.62-21.56Z"/><path class="cls-23" d="M347.67,292.7c-.02,1.06,.33,1.99,1.07,2.76,.84,.88-.49,2.21-1.33,1.33-1.07-1.12-1.64-2.53-1.62-4.09,.02-1.21,1.9-1.21,1.88,0Z"/><path class="cls-23" d="M396.68,295.32c.02,1.06-.33,1.99-1.07,2.76-.84,.88,.49,2.21,1.33,1.33,1.07-1.12,1.64-2.53,1.62-4.09-.02-1.21-1.9-1.21-1.88,0Z"/><path class="cls-23" d="M369.3,310.73c1.06,.33,2.15,.44,3.27,.33,.6-.26,1.69,.12,1.6-2.64,.24-.94-.23-2.44-.32-3.41-.22-2.25-.44-4.51-.67-6.76-.12-1.2,1.76-1.2,1.88,0,.24,2.43,.48,4.86,.72,7.28,.15,1.54,.56,3.32,.06,4.83-1.03,3.1-4.49,2.81-7.04,2.18-1.18-.29-.68-2.11,.5-1.81Z"/><path class="cls-23" d="M366.57,315.73s.16-.13,.19-.15c.18-.18,.42-.1,.74-.06,5.12,.66,6.42,.39,10.33,.04,.03,0,.06,0,.08,0,.06-.01,.11-.02,.16-.02,.06,0,.11,.02,.16,.04,.02,0,.05,.01,.07,.02,.04,.02,.07,.04,.1,.07,.3,.21,.45,.63,.14,.99-1.45,1.7-4.01,2.78-6.54,2.57-1.86-.16-4.49-1-5.52-2.68-.15-.25-.13-.6,.08-.81Z"/><path class="cls-30" d="M356.8,287.16c3.28,.09,7.21,.13,9.86,1.48,.95,.48,.88,1.66,0,1.83-.13,.06-.37,.09-.55,.06-3.7-.46-7.3,0-10.99-.02-1.03,0-2.61-.04-2.43-1.49,.22-1.79,2.89-1.9,4.12-1.86Z"/><path class="cls-30" d="M389,287.75c-3.28,.09-6.76,.07-9.86,1.48-.97,.44-.88,1.66,0,1.83,.13,.06,.37,.09,.55,.06,3.7-.46,7.3,0,10.99-.02,1.03,0,2.61-.04,2.43-1.49-.22-1.79-2.89-1.9-4.12-1.86Z"/><path class="cls-27" d="M432.51,614.42c1.4-9.49,2.95-18.96,4.64-28.41,1.78-9.93,3.72-19.8,3.29-29.94-.05-1.21,1.83-1.21,1.88,0,.39,9.08-1.1,17.95-2.71,26.85-1.7,9.42-3.3,18.86-4.74,28.32-3.01,19.81-5.37,39.71-7.13,59.66-.11,1.2-1.99,1.21-1.88,0,1.67-18.89,3.87-37.73,6.65-56.49Z"/><path class="cls-27" d="M320.97,569.57c2.29,28.8,6.1,57.44,11.43,85.83,.22,1.19-1.62,1.56-1.85,.37-5.33-28.39-9.14-57.04-11.43-85.83-.09-1.19,1.75-1.58,1.85-.37Z"/><path class="cls-28" d="M374.88,336.05c2.58,2.54,5.32,4.89,8.3,6.96,1.65,1.15,3.76,3.25,5.94,1.45,1-.82,1.68-3.25,2.27-4.4,.55-1.08,2.17-.13,1.63,.95-1.37,2.7-2.77,7.51-6.69,6.16-4.62-1.59-9.39-6.44-12.78-9.78-.86-.85,.47-2.18,1.33-1.33Z"/><path class="cls-28" d="M353.37,340.61c2.48,2.2,6.91,6.68,10.38,5.58,3.33-1.05,5.46-6.07,7.06-9.06,.38-.7,1.2-.52,1.56-.02,.37,0,.73,.18,.82,.67,2.35,12.27,3.83,23.95,2.31,36.44-.74,6.11-1.74,12.29-1.4,18.47,.35,6.46,2.24,12.62,4.18,18.75,1.7,5.37,3.47,10.74,4.25,16.34,.79,5.64-.02,11.05-.42,16.68-.79,11.27,5.98,22.51,2.33,33.58-.38,1.15-2.2,.65-1.81-.5,1.99-6.03,.56-11.93-.83-17.94-1.25-5.42-1.97-10.47-1.49-16.05,.53-6.29,1.13-12.15-.13-18.42-1.12-5.55-3.03-10.89-4.69-16.28-3.33-10.88-3.6-20.72-2.2-31.98,1.6-12.82,.66-24.59-1.67-37.2-1.78,3.51-4.53,8.82-8.27,9.02-3.99,.22-8.57-4.31-11.31-6.74-.91-.8,.43-2.13,1.33-1.33Z"/><path class="cls-28" d="M422.35,386.65c-.88-8.96,6.1-11.67,9.96-18.57,.59-1.06,2.22-.11,1.63,.95-1.63,2.92-4.04,4.96-6.25,7.43-4.47,5-3.68,10.34-2.05,16.35,1.05,3.88,2.02,7.77,2.12,11.81,.11,4.52-.87,8.95-1.53,13.39-1.52,10.17,1.13,19.7,1.14,29.83,0,4.54-1,8.94-1.44,13.44-.48,4.98,.06,9.97,.61,14.92,.13,1.2-1.75,1.19-1.88,0-.55-4.96-1.07-9.93-.61-14.92,.44-4.8,1.52-9.48,1.43-14.33-.17-10-2.62-19.4-1.07-29.44,.92-5.94,2-11.65,.98-17.67-.75-4.44-2.6-8.69-3.04-13.18Z"/><path class="cls-28" d="M320.01,368.46c-.59-1.06,1.03-2.01,1.63-.95,2.18,3.88,5.82,6.53,8.22,10.24,2.33,3.6,2.58,7.58,2.05,11.75-.71,5.6-2.3,10.84-.84,16.48,1.22,4.72,3.9,8.93,5.65,13.45,3.87,9.96-.45,20.15,1.08,30.43,.92,6.18,3.89,10.53,7.5,15.4,2.73,3.68,4.79,7.42,4.85,12.09,.01,1.21-1.87,1.21-1.88,0-.07-6.01-4.02-10.16-7.31-14.76-2.67-3.75-4.35-7.79-5.03-12.34-.02-.13-.03-.26-.05-.39-3.56-.15-8.66-.43-11.23,2.24-.84,.87-2.17-.46-1.33-1.33,2.94-3.05,8.32-2.95,12.37-2.8-.68-9.45,2.77-18.92-.78-28.04-3.17-8.14-7.37-14.57-6.04-23.66,.87-5.97,2.86-12.02-.63-17.57-2.35-3.74-6.03-6.35-8.22-10.24Z"/><path class="cls-28" d="M336.85,383.35c.44,4.13,.96,8.24,1.53,12.36,.47,3.41,.54,7.39,1.82,10.64,2.03,5.19,7.89,5.45,12.74,4.91,5.17-.58,10.08-1.83,11.84-7.24,2.33-7.18-.13-15.82-.24-23.19,0-.15-.03-.29-.09-.4-.09-.37-.37-.67-.86-.63-8.64,.59-17.27,1.33-25.88,2.24-.72,.08-1,.79-.85,1.31Zm25.85-1.6c.05,1.57,.15,3.14,.27,4.7-3.49,.98-8.18,.5-11.75,.83-3.96,.37-7.91,.81-11.85,1.28-.19-1.58-.4-3.17-.57-4.75,7.96-.82,15.93-1.51,23.91-2.07Zm-23.11,8.67c4.46-.53,8.93-1.02,13.41-1.42,3.02-.27,7.04,.09,10.12-.64,.23,2.78,.47,5.56,.55,8.35,.09,3.19,0,7.49-2.47,9.92-1.7,1.67-4.66,2.17-6.93,2.55-3.46,.57-7.52,.95-10.39-1.33-2.42-1.93-2.52-4.53-2.94-7.4-.49-3.33-.94-6.67-1.36-10.02Z"/><path class="cls-26" d="M470.14,488.14c2.71-.21,5.41-.47,8.12-.76,1.2-.13,1.19,1.75,0,1.88-2.7,.29-5.41,.55-8.12,.76-1.21,.1-1.2-1.79,0-1.88Z"/><path class="cls-26" d="M403.11,494.65c1.25-1.48,2.63-2.82,4.14-4.03,.94-.75,2.28,.57,1.33,1.33-1.51,1.21-2.89,2.56-4.14,4.03-.78,.93-2.11-.41-1.33-1.33Z"/></g><path class="cls-18" d="M534.6,250.79c5.49-7.19,15.58-7.9,25.17-8.04,1.15-.43,2.51-.49,3.54-.1,12.49,4.77,18.98,16.11,18.37,28.43-.33,6.81-1.1,23.11-13.46,34.16-3.44,3.08-10.9,4.64-15.49,5.84-10.66,2.76-16.96-5.28-17.81-9.7-1.26-6.58-2.04-11.92-2.79-18.54-.63-5.51-1.54-11.39-1.14-17.03,.33-4.66,.57-11.07,3.6-15.04Z"/><rect class="cls-18" x="556.69" y="279.56" width="25.45" height="52.09" transform="translate(-36.45 80.77) rotate(-7.86)"/><polygon class="cls-36" points="648.52 704.63 665.38 707.35 674 664.14 655.49 661.43 648.52 704.63"/><path class="cls-29" d="M532.89,277.67c.05,1.36,.71,2.45,1.49,2.42,.78-.03,1.37-1.15,1.33-2.52-.05-1.36-.71-2.45-1.49-2.42-.78,.03-1.37,1.15-1.33,2.52Z"/><path class="cls-29" d="M545.92,269.21c4.04-1.14,10.14-2.38,12.9,1.67,.45,.66-.23,1.48-1.03,1.4-4.62-.44-6.85-.5-10.96-.37-.47,.02-1.26-.22-1.49-.49-.8-.95-.33-1.95,.57-2.21Z"/><path class="cls-29" d="M530.92,268.97c1.64-.01,3.21,.14,4.49,.35,.92,.15,1.5,1.09,.81,2.13-.2,.3-.95,.66-1.42,.66-1.29,0-2.54,.04-3.77,.13-.07-1.09-.1-2.19-.11-3.27Z"/><path class="cls-19" d="M539.27,294.94c3.87-.19,8.42-.28,12.42-.31,1.05,0,1.26,.49,1.08,1.23-.79,3.27-3.68,4.9-7.01,5.02-3.42,.13-6.06-1.88-7.15-4.24-.2-.44-.63-1.64,.67-1.7Z"/><path class="cls-9" d="M545.42,297.23c-2.69-.01-4.92-.86-6.32-2.29,.08-.01,.15-.03,.25-.03,3.78-.13,8.03-.27,12.21-.28-1.18,1.63-3.54,2.61-6.14,2.6Z"/><path class="cls-37" d="M550.55,329.13c.88-3.69,2.35-7.44,4.78-10.41,2.11-2.58,4.23-2.49,7.39-2.01,2.57,.39,6.18,.72,7.41,3.35,.08,.18,.14,.38,.21,.56,.45-2.47,1.54-2.77,4.52-3.22,2.67-.41,6.64-1.67,9.22-.32,2.64,1.39,3.58,5.27,4.69,7.77,.48,1.1-1.14,2.06-1.63,.95-.2-.46-.39-.94-.59-1.44,.31,1.19,.57,2.4,.73,3.65,.08,.61-.27,1.08-.78,1.15,.26,.58,.39,1.19,.43,2.03,.05,1.1-1.49,1.19-1.81,.29-.05,.18-.09,.37-.14,.55-.17,.7-1.08,.89-1.57,.42-.03-.03-.05-.06-.08-.09-.33,.13-.73,.1-1.01-.19-.16-.17-.26-.35-.39-.52,.01,.49-.32,.88-.73,.99,.03,.41,.03,.81,.07,1.22,.11,1.04-1.7,1.3-1.85,.25-.12-.89-.31-1.75-.49-2.61-.02,.28-.02,.56-.03,.84,0,.05,0,.1,.01,.14,0,.05-.02,.08-.02,.13-.03,.67-.08,1.34-.08,2.01,0,1.07-1.55,1.27-1.85,.25-.1-.33-.19-.67-.29-1-.24,.25-.63,.38-.97,.32-.62-.11-.97-.44-1.19-.87-.03,.15-.05,.3-.09,.45-.05,.17-.13,.3-.24,.4-.01,.09-.03,.17-.04,.26-.14,.99-1.63,.81-1.81-.06-.23,.8-1.52,1.05-1.76,.18-.38-.09-.7-.37-.72-.87-.02-.43-.05-.85-.08-1.27,0,.03-.02,.06-.03,.09-.03,.1-.08,.18-.13,.25,.06,.83,.09,1.67,.03,2.52-.03,.42-.33,.72-.68,.85-.12,.24-.27,.48-.49,.7-.45,.45-1.15,.31-1.48-.19-.12-.18-.21-.35-.32-.53-.18,0-.36-.01-.51-.09-.18-.08-.34-.19-.49-.31-.06,.2-.13,.39-.24,.58-.42,.75-1.46,.5-1.72-.22-.25-.7-.44-1.42-.65-2.13,.08,.68,.16,1.35,.24,2.03,.12,1.05-1.66,1.29-1.85,.25-.09-.48-.18-.96-.27-1.44-.34,.73-1.67,.54-1.8-.45-.09-.67-.17-1.34-.26-2.01-.29,1.06-1.76,.77-1.85-.26-.12-1.43-.23-2.86-.35-4.28-.02,.07-.04,.13-.06,.2-.38,1-1.75,.83-1.85-.25-.02-.23-.02-.45-.03-.68-.02,.02-.04,.04-.07,.05-.11,.38-.21,.76-.32,1.14-.24,.87-1.31,.81-1.71,.24-.21,.46-.43,.92-.64,1.38-.45,1-1.96,.27-1.72-.72Z"/><path class="cls-29" d="M619.43,721.83s0-.02-.01-.03c-.28-1.16,21.46-11.76,23.46-13.69,.74-.72,1.43-1.53,2.06-2.47,.77-1.16,1.56-2.82,2.19-4.63,.32-.91,1.3-1.43,2.22-1.11,1.32,.46,2.63,.77,3.47,1.02,4.86,1.41,8.35,1.29,12.59,.11,1.1-.31,2.2,.48,2.24,1.62,.17,4.86,.29,13.22,.26,13.67,.36,4.23-3.82,3.85-7.51,5.25-2.34,.89-3.99-1.06-6.25-.65-2.78,.5-4.65,3.9-6.77,4.66-6.8,2.43-28.53,7.9-28.01-3.55,0-.07,.04-.13,.06-.2Z"/><path class="cls-20" d="M431.08,728.77c.31-.02,.61-.07,.92-.15,2.51-.67,4-3.26,3.32-5.77l-57.36-208.73c-.68-2.51-3.26-4-5.76-3.32-2.51,.67-4,3.26-3.32,5.76l57.36,208.73c.59,2.2,2.65,3.62,4.84,3.47Z"/><path class="cls-13" d="M650.16,707.21c-1.51-.26-3.8-.49-5.3-1.44-.36,.54-.75,1.02-1.16,1.48,1.74,1.14,4.16,1.48,6.05,1.8,1.19,.2,1.6-1.64,.41-1.84Zm2.07-3.64c-1.57-.27-3.98-.51-5.47-1.56-.24,.61-.49,1.19-.76,1.73,1.72,1.03,4.01,1.36,5.82,1.66,1.19,.2,1.6-1.64,.41-1.84Z"/><path class="cls-20" d="M375.36,729.09c-.31-.02-.61-.07-.92-.15-2.51-.67-4-3.26-3.32-5.77l54.78-200.1c.68-2.51,3.26-4,5.77-3.32,2.51,.67,4,3.26,3.32,5.76l-54.78,200.1c-.59,2.2-2.65,3.62-4.84,3.47Z"/><path class="cls-13" d="M619.34,722.74c15.87,4.07,33.25-2.12,48.53-7.56,0,.68,0,1.13,0,1.22,.36,4.23-3.82,3.85-7.51,5.25-2.34,.89-3.99-1.06-6.25-.65-2.78,.5-4.65,3.9-6.77,4.66-6.67,2.39-27.7,7.69-28-2.92Z"/><path class="cls-4" d="M639.3,671.27c3.98-19.98,21.01-116.64,34-137.62,9.02-14.58,19.04-14.4,30.88-26.49,12.5-12.75,24.61-26.25,40.06-35.51,6.23-3.74,12.39,5.73,6.15,9.47-.67,.4-1.31,.86-1.97,1.28,2.46,.32,4.68,2,5.36,4.11,.7-.64,1.41-1.28,2.11-1.92,5.29-4.82,13.59,2.44,8.35,7.6-2.13,2.1-4.21,4.24-6.3,6.38,2.88,.56,5.17,3.21,4.83,6.06,4.04,.9,5.47,7.5,1.67,10.49h0c2.64,1.78,3.91,5.32,.9,8.03-12.26,11.04-48.34,42.37-56.1,51.35-5.54,22.24-21.54,103.29-24.46,107.08-2.7,3.51-6.12,2.98-10.21,2.78-7.25-.35-19.4-1.09-26.63-1.7-3.23-.27-5.88-.79-7.38-2.9-1.38-1.93-1.78-5.79-1.24-8.5Z"/><rect class="cls-36" x="746.69" y="660.12" width="19.26" height="43.76" transform="translate(1727.72 987.81) rotate(155.43)"/><path class="cls-29" d="M733.44,727.26s-.01-.02-.02-.03c-.65-1,16.43-18.14,17.68-20.62,.47-.92,.85-1.92,1.13-3.01,.37-1.46,.58-3.46,.55-5.53-.01-.75,.61-1.35,1.36-1.34,1.53,.03,3.03-.12,3.99-.17,5.26-.27,8.58-1.62,12.38-4.34,.7-.5,1.68-.2,2,.61,1.72,4.43,4.8,12.89,4.92,13.34,1.73,3.88-2.35,4.89-5.38,7.42-1.92,1.61-4.12,.31-6.12,1.43-2.46,1.39-3.11,5.21-4.87,6.62-5.62,4.52-24.37,16.81-27.63,5.82-.02-.07,0-.14,0-.21Z"/><path class="cls-13" d="M757.68,703.39c-1.51,.25-3.75,.78-5.48,.37-.17,.62-.38,1.21-.61,1.78,2.01,.51,4.42,.03,6.31-.29,1.19-.2,.98-2.07-.22-1.87Zm.76-4.12c-1.57,.26-3.93,.82-5.68,.31-.03,.66-.08,1.29-.15,1.89,1.96,.41,4.23-.03,6.04-.33,1.19-.2,.98-2.07-.22-1.87Z"/><path class="cls-25" d="M554.42,326.25c1.44,1.55,8.06,9.13,10.37,7.45,1.01-.73,1.59-4.29,1.99-5.48,.71-2.09,1.37-4.19,2.01-6.31,.22-.73,1.03-.8,1.5-.46,.28-.1,.58-.08,.83,.07,.28-.67,1.27-.99,1.64-.17,1.44,3.24,3.37,6.22,5.51,9.04,.64,.84,2.06,2.23,3.31,1.68,.55-.24,1.54-1.88,1.92-2.37,1.27-1.65,2.41-3.37,3.5-5.15,.63-1.03,2.26-.09,1.63,.95-1.42,2.33-2.97,4.56-4.69,6.68-1.13,1.39-2.28,2.96-4.23,2.15-1.61-.67-2.71-2.51-3.68-3.86-1.47-2.04-2.83-4.12-3.98-6.33,2.24,10.33-.35,20.62-2.26,30.88-2.56,13.71-1.23,26.61,2.06,40.08,2.88,11.81,7.62,24.08,7.62,36.36,0,6.19-1.79,12.2-2.34,18.33-.66,7.37-.11,14.7,1.4,21.93,.25,1.18-1.57,1.69-1.82,.5-1.24-5.92-1.9-11.92-1.73-17.98,.19-6.54,1.85-12.78,2.43-19.25,1.19-13.18-4.29-26.77-7.38-39.4-2.76-11.31-4.67-22.85-3.14-34.49,1.62-12.32,6.07-24.63,3.19-37.04-.84,2.7-1.71,5.38-2.68,8.04-.53,1.45-.93,3.42-2.69,3.8-1.79,.39-3.57-1.24-4.86-2.21-2.45-1.83-4.68-3.9-6.76-6.14-.82-.89,.5-2.22,1.33-1.33Z"/><path class="cls-13" d="M733.65,728.15c16.33-1.35,30.72-12.89,43.38-23.03,.23,.64,.38,1.06,.4,1.16,1.73,3.87-2.35,4.89-5.38,7.42-1.92,1.61-4.12,.31-6.12,1.43-2.46,1.39-3.11,5.21-4.87,6.62-5.52,4.44-23.65,16.33-27.42,6.41Z"/><path class="cls-4" d="M770.77,496.58l1.81-25.62c1.69-2.78,4.44-3.54,6.93-3.01,.52-3.26,1.1-6.5,2.18-9.62,2.62-7.53,10.14-11.62,17.9-11.56,1.87,.02,3.51,.38,4.93,1.02-.03-.07-.06-.14-.09-.21-3.26-7.83,9.4-11.5,12.63-3.75,10.55,25.32,29.29,54.84,17.95,82.76-9.98,24.57-52.22,33.54-77.07,50.02,8.26,25.02,18.11,64.79,26.3,88.45,2.81,8.12,2.97,5.81-6.18,10.05-12.36,5.73-35.78,8.21-38.19,8.86-3.62,.98-4.92-4.02-6.04-7.79-5.83-19.52-7.12-26.79-12.74-46.37-5.43-18.89-17.08-45.32-16.74-65.11,.41-24.07,57.55-53.54,66.42-68.13Z"/><path class="cls-16" d="M686.5,362.5c1.69-10.23,10.97-16.51,12.56-26.27,1.43-8.84-.72-17.08,4.65-24.93,2.72-3.97,9.25-.21,6.5,3.8-4.54,6.64-2.61,14.19-3.53,21.67-.02,.2-.06,.38-.09,.58,.79-.45,1.75-.58,2.67-.43,.07-.46,.15-.92,.22-1.38,.64-3.93,6.56-3.29,7.31,.18,2.09-.45,4.79,1.07,5.01,3.63,.02,.23,.04,.46,.06,.7,1.22,.51,2.18,1.6,2.23,3.29,.09,3.17-.51,5.44-1.92,8.25-.66,1.32-1.73,1.87-2.83,1.88-.92,5.2-1.85,10.39-2.77,15.59-.45,2.56-3.31,3.07-5.31,2.32-.19,1.18-.38,2.37-.58,3.56-.48,2.95-4.04,3.33-6.04,1.83-.28,.95-.89,1.61-1.66,2-.26,.94-.96,1.72-1.85,2.2,4.3,2.21,9.67,3.21,13.88,4.36,4.67,1.27,2.82,4.58-1.86,3.3-7.01-1.91-16.8-3.46-21.97-9.06-4.93-5.35-5.8-10.27-4.68-17.06Z"/><path class="cls-16" d="M703.07,296.53c-2.4-10.78-8.82-18.43-5.8-29.99,2.32-8.84,8.18-15.37,16.22-19.45,4.33-2.19,7.07,4.82,2.78,7-5.99,3.04-10.08,8.26-11.63,14.27,1.66-.23,3.41,.4,3.97,2.24,.42,1.39,.76,2.78,1.07,4.18,.16,.6,.33,1.2,.49,1.81,.73,.35,1.35,.98,1.71,1.99,.85,2.37,1.72,4.73,2.61,7.09,1.73-1.11,4.31-.87,5.49,1.64,1.8,3.83,3.59,7.67,5.39,11.5-.66-4.09,5.75-5.41,7.26-1.62,5.28,13.22,10.42,26.44,14.11,40.2,.63,2.36-.45,4.79-3.09,5.13-.91,.12-1.71,.07-2.42-.1-1.46,.54-3.18,.3-4.23-1.23-.65-.95-1.24-1.95-1.8-2.98-.27,.67-.74,1.22-1.32,1.62,0,.91-.03,1.82-.09,2.74-.25,3.6-4.78,3.74-6.74,1.64-.15-.16-.27-.32-.41-.48,.02,.05,.03,.09,.05,.14,1.32,3.9-3.27,6.62-6.11,4.05-.81,.22-1.68,.23-2.48-.13-7.86-3.5-13.97-9.72-16.76-17.97-4-11.83,4.25-21.95,1.72-33.28Z"/><path class="cls-36" d="M710.83,362.12c.42-5.79,9.98-29.23,42.85-36.54,21.13-4.7,41.63-1.88,56.33,5.47,9.05,4.52,10.81,14.61,12.43,25.11,.34,1.16-3.23,20.11-1.71,32.42,2.44,19.7,15.61,72.85,2.77,77.24-4.62,5.23-32.75,10.55-32.89,9.97-2.31,1.99-40.42,1.73-42.03-2.35-1.79-1.91-2.94-12.82-7.53-25.88-4.32-12.29-12.04-26.46-15.62-37.56-3.14-9.71-5.39-16.91-5.71-17.97-3.6-11.98-13.32-23.31-8.89-29.9Z"/><path class="cls-7" d="M814.03,370.1c3.45,.27,15.87-8.99,17.68-4.72,6.38,15.02,12.15,30.51,15.31,46.9,1.7,8.79,7.27,30.82-2.25,35.89-9.2,4.9-14.83-14.93-17.27-21.7-6.1-16.92-11.32-34.31-16.46-51.64-.64-2.15,.97-4.88,2.99-4.73Z"/><path class="cls-20" d="M727.75,528.36c2.5-.67,2.05-8.18,2.73-5.67l53.72,193.91c2.93,1.11,5.11,3.83,5.32,7.16,.29,4.54-3.15,8.46-7.68,8.75-4.54,.29-8.46-3.15-8.75-7.68-.15-2.24,.63-4.33,1.99-5.91l-52.83-191.99c-.67-2.51,3,2.11,5.51,1.44Z"/><path class="cls-20" d="M716.43,714.71l56.16-203.79c.68-2.51,3.26-4,5.77-3.32,2.51,.68,4,3.26,3.32,5.77l-56.12,203.66c1.36,1.58,2.13,3.67,1.99,5.91-.29,4.54-4.21,7.98-8.75,7.68-4.54-.29-7.98-4.21-7.68-8.75,.22-3.33,2.39-6.05,5.32-7.16Z"/><path class="cls-7" d="M702.4,261.88c4.02-8.1,13.8-10.72,23.18-12.68,1.04-.64,2.37-.96,3.46-.77,13.17,2.31,21.69,12.21,23.44,24.42,.97,6.75,3.32,22.9-6.72,36.1-2.79,3.67-9.82,6.63-14.1,8.68-9.94,4.74-17.66-1.96-19.32-6.13-2.49-6.22-4.26-11.31-6.26-17.67-1.66-5.29-3.68-10.89-4.35-16.5-.56-4.64-1.54-10.98,.67-15.45Z"/><rect class="cls-7" x="734.28" y="283.02" width="25.45" height="52.09" transform="translate(-59.77 257.54) rotate(-18.82)"/><path class="cls-19" d="M537.66,286.35c.08-2.09,.17-4.18,.26-6.27,.05-1.21,1.93-1.21,1.88,0-.1,2.38-.51,4.98-.3,7.36,.05,.61,.2,1.72,.81,2.05,.32,.18,1.13,.1,1.5,.13,1.25,.1,2.5,.2,3.76,.3,1.2,.09,1.21,1.97,0,1.88-1.74-.13-3.54-.15-5.26-.42-1.03-.16-1.76-.35-2.28-1.33-.59-1.1-.42-2.5-.37-3.69Z"/><path class="cls-29" d="M526.64,252.63c-.08-.03-.16-.06-.24-.1-7.67-4.36,1.92-11.04,6.47-11.74,.14-.02,.31-.05,.5-.09,.1-.52,.38-1.03,.61-1.64,2.4-6.33,18.64-5.86,20.88-2.52,4.85-3.8,21.27,2.19,26.33,7.36,5.9,6.04,6.73,13.75,6.75,14.1,.31,5.29-.75,10.3-2,15.41-1.16,4.76-1.89,10-3.74,14.54-1.22,2.99-3.68,4.49-6.95,4.58-2.66,.07-3.07-1.37-3.67-3.82-.52-2.09-.37-4.37-.9-6.41-.58-2.24-1.63-4.77-4.35-4.92-.56-.03-1.57,.56-2.15,.48-2.16-.31-2.72-2.78-3.01-4.55-.21-1.3-.22-2.62-.24-3.94-.1-.89-.15-1.81-.16-2.73-.06-.51-.11-1.03-.23-1.53-.42-1.73-1.29-3.05-2.41-4.06-.86-.56-1.71-1.1-2.58-1.61-1.59-.68-3.38-1.04-5.16-1.13-5.05-.26-10.13,.68-15.18,.75-.05,0-.08-.02-.12-.02-5.67,.9-10.49,.47-9.9-4,.09-.7,.66-1.57,1.44-2.41Z"/><path class="cls-18" d="M563.03,278.04c2.87-2.01,6.66-1.03,8.58,1.8,1.92,2.84,1.73,6.65-.12,9.46-1.81,2.74-5.65,4.79-7.97,1.33-1.39-2.08-1.87-5.7-.74-8.2-1.14-1.14-1.45-3.18,.25-4.38Z"/><path class="cls-19" d="M567.04,279.99c2.82,2.44,3.04,6.51,.49,9.24-.82,.88-2.24-.35-1.41-1.24,1.86-1.99,1.74-4.8-.32-6.58-.92-.79,.32-2.21,1.24-1.41Z"/><path class="cls-45" d="M279.8,505.27v-18.18c-.01-.11-.04-.22-.04-.33,0-15.42,130.86-27.92,292.28-27.92s289.7,12.26,292.22,27.47h.06v19.76h-.06c-.78,15.35-131.32,27.78-292.27,27.78s-292.28-12.5-292.28-27.92c0-.22,.03-.44,.09-.66Z"/><path class="cls-20" d="M572,516.38c143.37,0,291.67-10.79,291.67-28.86,0-.52-.47-.94-1.05-.94s-1.05,.42-1.05,.94c0,13.03-116.35,26.98-289.56,26.98s-289.56-13.95-289.56-26.98c0-.52-.47-.94-1.05-.94s-1.05,.42-1.05,.94c0,18.07,148.3,28.86,291.67,28.86Z"/><path class="cls-36" d="M738.46,323.62c3.15-.69,23.9-7.05,27.06-7.7,1.04-.21,12.09,36.04,10.32,36.65-1.4,.49-22.55-11.67-25.49-4.56-.38,.92-1.66,1.31-2.5,.99-.61,.99-2.28,.96-2.87,.03-.51,.74-1.75,.67-2.48,.07-.64-.03-1.27-.33-1.5-.99-.1-.27-.19-.55-.29-.82-.13-.37-.09-.72,.05-1.02-.1-.74-.21-1.48-.35-2.22-.11-.57,.12-1.03,.47-1.38,0-.2,0-.39,0-.59,0-.15,.04-.28,.09-.41-.18-.69-.36-1.39-.54-2.08-.26-.23-.46-.54-.5-.97-.06-.59-.12-1.19-.2-1.79-.38,.08-.78-.05-.88-.49-.63-2.67-1.73-7.88-2.23-10.58-.2-1.06,.45-1.83,1.85-2.14Z"/><path class="cls-7" d="M600.42,477.91c3.88-3.23,8.12-6.1,13.21-6.89,5.52-.86,10.3,1.68,15.53,1.5,16.38-18.4,37.63-39.59,51.45-62.93,7.78-13.15,14.01-27.15,21.72-40.35,1.83-3.14,6.71-.3,4.88,2.85-.07,.12-.14,.25-.21,.38,.38,.25,.72,.58,.97,.97,.71-1.07,1.43-2.13,2.17-3.18,2.07-2.93,6.64-.39,4.88,2.85-1.34,2.48-2.69,4.95-4.03,7.43,2.23-3.35,4.46-6.7,6.69-10.05,2-3.01,6.64-.36,4.88,2.85-1.32,2.4-2.68,4.77-4.05,7.13,1.09,.72,1.67,2.13,.84,3.64-.12,.22-.25,.43-.37,.64,.3,.54,.39,1.19,.2,1.87,.83-1.24,1.68-2.47,2.48-3.74,1.95-3.05,6.84-.22,4.88,2.85-7.98,12.48-30.77,42.07-35.01,46.74-4.58,5.06-12.9,14.46-17.88,19.29-10.86,10.53-24.24,17.73-37.42,25.29-.23,2.06-.68,4.15-2.08,5.51-.48,.46-4.91,3.2-7.17,3.6-4.27,.74-9.83,1.46-13.77-.65-.84-.45-.43-1.74,.47-1.75,.6,0,6.48-1.18,9.85-1.48-.03-.04-10.5-.52-14.48,.03-3.53,.49-5.74,.5-8.6-1.75-.75-.59-.72-2.07,0-2.66Z"/><path class="cls-36" d="M705.13,358.46c8.79-9.83,13.47-15.29,24.39-22.66,3.02-2.04,5.79,7.64,2.8,9.67-2.71,1.83-5.46,7.72-7.69,14.1,0,0,0,.01,0,.02,.1,2.28,.19,4.56,.29,6.83,.62,0,1.27,.26,1.69,.86,1.43,2.02,2.33,4.19,2.75,6.4,1.09,.04,2.21,.93,1.9,2.32-.31,1.42-.68,2.8-1.09,4.18,2.25-1.19,5.54,1.22,3.82,3.81-4.07,6.1-12.55,23.1-17.73,23.26-4.89,.15-25.05-16.42-27.8-19.45-2.35-2.59,12.63-24.82,16.66-29.33Z"/><path class="cls-36" d="M788.84,325.29c13.23,1.96,24.88,5.44,34.61,15.49,9.69,10.02,18.13,21.68,22.76,34.88,.58,1.67-.43,3.32-1.64,4.25-7.78,5.93-24.88,12.69-34.23,13.88-2.48,.32,1.41-6.25,1.81-8.37,.08-.41,.16-.82,.23-1.23,.45-2.36-14.8-50.07-25.44-51.64-4.54-.67-2.61-7.93,1.9-7.26Z"/><path class="cls-16" d="M698.58,268.03c.61-1.25,1.36-2.36,2.22-3.32-.49-.52-.72-1.31-.34-2.19,1.11-2.57,2.41-5.07,4.34-7.13,1.8-1.92,4.09-3.36,6.05-5.15,.13-1.2,.78-2.34,2.16-2.99,17.52-8.24,39.26-8.93,49.9,10.08,5.14,9.17,4.67,20.3,8.24,30.06,4.29,11.73,21.67,25.38,18.96,35.89-.23,.9-6.47,.94-9.75,.62-4.4-.44-8.59,.8-12.83,1.09-3.42,.23-5.99,.64-9.28-.76-7.09-3.04-10.48-10.33-12.38-17.33-1.35-4.98,.52-10.47-.57-15.51-.88-4.07-2.1-8.21-6.46-10-1.79-.74-6.71,.17-8.57-.73-2.8-1.35-4.18-3.59-5.83-6.11-4.49-6.83-18.1-16.5-23.47-6.1-1.11,2.15-3.46,1.78-2.39-.41Z"/><path class="cls-22" d="M713.8,542.63c.82-.89,2.15,.44,1.33,1.33-14.18,15.35-6.86,35.41-2.43,53.1,.29,1.17-1.52,1.68-1.81,.5-4.64-18.5-11.85-38.95,2.91-54.93Z"/><path class="cls-29" d="M723.4,285.77c.3,1.33,1.17,2.27,1.93,2.09,.76-.17,1.13-1.39,.83-2.72-.3-1.33-1.17-2.27-1.93-2.09-.76,.17-1.13,1.39-.83,2.72Z"/><path class="cls-29" d="M705.83,288.59c.3,1.33,1.17,2.27,1.93,2.09,.76-.17,1.13-1.39,.83-2.72-.3-1.33-1.17-2.27-1.93-2.09-.76,.17-1.13,1.39-.83,2.72Z"/><path class="cls-16" d="M717.01,277.81c3.75-1.89,10.7-4.2,14.19-.75,.57,.56,.06,1.65-.74,1.57-4.21-.43-8,.38-12.03,1.65-.45,.14-1.28,.02-1.55-.2-.96-.79-.69-1.86,.14-2.28Z"/><path class="cls-7" d="M735.49,282.34c2.43-2.52,6.34-2.28,8.77,.13,2.43,2.42,2.96,6.2,1.68,9.31-1.26,3.03-4.64,5.77-7.57,2.82-1.76-1.78-2.92-5.24-2.29-7.91-1.33-.9-2.03-2.85-.58-4.35Z"/><path class="cls-16" d="M702.25,280.42c1.61-.32,3.18-.47,4.47-.51,.93-.03,1.68,.79,1.2,1.94-.14,.33-.8,.83-1.27,.92-1.26,.24-2.49,.52-3.68,.85-.28-1.06-.51-2.13-.73-3.19Z"/><path class="cls-24" d="M712.6,287.68c.32,2.57,.8,5.13,1.54,7.61,.41,1.37,.84,2.72,2.37,3.13,1.39,.37,2.95,.19,4.37,.04,1.2-.13,1.14,1.76-.05,1.88-2.47,.26-5.84,.49-7.44-1.86-1.85-2.73-2.21-7.19-2.61-10.36-.15-1.19,1.68-1.65,1.83-.45Z"/><path class="cls-24" d="M738.55,283.26c3.23,1.85,4.22,5.81,2.24,8.98-.64,1.02-2.27,.08-1.62-.95,1.44-2.31,.8-5.04-1.57-6.4-1.05-.6-.1-2.23,.95-1.62Z"/><path class="cls-24" d="M715.38,304.33c3.76-.93,8.21-1.88,12.13-2.67,1.03-.21,1.33,.24,1.29,1-.15,3.36-2.68,5.51-5.93,6.27-3.33,.77-6.31-.69-7.83-2.8-.28-.39-.93-1.49,.33-1.8Z"/><path class="cls-9" d="M721.86,306.02c-2.64,.61-5.04-.19-6.69-1.59,.08-.03,.14-.07,.24-.09,3.71-.91,8.07-1.85,11.96-2.63-.85,2.25-2.95,3.72-5.51,4.32Z"/><path class="cls-29" d="M550.67,278.24c.05,1.36,.71,2.45,1.49,2.42,.78-.03,1.37-1.15,1.33-2.52-.05-1.36-.71-2.45-1.49-2.42-.78,.03-1.37,1.15-1.33,2.52Z"/><path class="cls-14" d="M725.21,259.94c4.25,3.02,7.75,6.81,10.41,11.29,.62,1.04-1.01,1.99-1.63,.95-2.49-4.2-5.75-7.79-9.74-10.62-.98-.7-.04-2.33,.95-1.63Z"/><path class="cls-14" d="M734.59,258.86c3.1,2.34,4.95,5.62,6.71,9.01,.56,1.07-1.07,2.03-1.62,.95-1.58-3.05-3.23-6.22-6.03-8.33-.95-.72-.02-2.36,.95-1.63Z"/><path class="cls-14" d="M698.82,349.82c2.57-4.43,5.54-9.84,5.89-15.04,.08-1.2,1.96-1.21,1.88,0-.37,5.54-3.41,11.27-6.15,15.99-.61,1.05-2.23,.1-1.63-.95Z"/><path class="cls-14" d="M757.27,309.19c1.81,3.08,4.6,5.3,8.02,6.35,1.15,.35,.66,2.17-.5,1.81-3.88-1.19-7.09-3.72-9.14-7.22-.61-1.05,1.01-2,1.62-.95Z"/><path class="cls-14" d="M769.88,310.62c3.58,3.04,8.3,2.53,12.63,1.95,1.18-.16,1.7,1.65,.5,1.81-5.11,.69-10.29,1.11-14.46-2.43-.93-.78,.41-2.11,1.33-1.33Z"/><path class="cls-37" d="M740.03,330.17c2.86-.03,5.64-.34,8.36-.9-.81-1.87-1.66-3.72-2.5-5.57-.5-1.09,1.12-2.05,1.63-.95,.94,2.06,1.81,4.09,2.64,6.13,3.35-.85,6.6-2.11,9.74-3.8,1.07-.57,2.02,1.05,.95,1.63-3.21,1.72-6.54,3.03-9.98,3.92,3.28,8.39,5.48,16.78,5.72,26.2,.17,6.58-.04,13.33,1.72,19.74,1.91,6.96,6.82,12.41,9.61,18.98,2.08,4.89,3.28,10.13,3.58,15.44,.42,7.62,.24,13.97,4.05,20.93,2.75,5.03,6.81,9.45,8.9,14.82,2.21,5.68,.15,11.19,.81,17.01,.14,1.2-1.75,1.19-1.88,0-.36-3.17,.23-6.18,.37-9.33,.17-3.85-.79-6.99-2.71-10.31-2.88-5-6.55-9.46-8.87-14.79-2.28-5.24-2.37-10.18-2.47-15.8-.13-6.98-1.62-13.7-4.77-19.96-2.56-5.08-6.2-9.5-7.98-14.96-1.69-5.16-1.98-10.67-2.12-16.06-.17-6.42-.07-12.86-1.51-19.17-.97-4.25-2.47-8.33-4.16-12.35-2.97,.64-6,1-9.11,1.04-1.21,.01-1.21-1.87,0-1.88Z"/><path class="cls-37" d="M745.28,326.47v.16c0,2.42-3.76,2.43-3.76,0v-.16c0-2.42,3.76-2.43,3.76,0Z"/><path class="cls-37" d="M721.38,354.39c.14-1.19,2.02-1.2,1.88,0-1.42,12.38-1.45,24.78-.1,37.16,.13,1.2-1.75,1.19-1.88,0-1.35-12.38-1.32-24.78,.1-37.16Z"/><path class="cls-37" d="M801.07,339.3c.13-1.19,2.02-1.2,1.88,0-1.35,12.03,3.59,22.81,8.72,33.36,.53,1.08-1.09,2.04-1.63,.95-5.26-10.82-10.36-21.98-8.98-34.31Z"/><path class="cls-7" d="M753.84,466.33c.29-.64,.7-1.25,1.19-1.83-.1-.63,.08-1.3,.69-1.8,3.77-3.08,7.75-7.8,12.94-7.95,5.47-.15,10.15,1.77,15.2,2.34,17.06-8.41,33.57-17.82,49.51-28.22,2-1.3,12.56,19.17,11.17,20.01-8.34,5.03-17.96,7.41-27.22,10.19-8.14,2.44-16.33,4.61-24.64,6.3-2.46,1.7-4.91,3.67-7.78,4.37-3.79,.91-7.17-.58-10.85-1.25-5.88-1.07-9.35,2.23-14.71,2.02-2.2-.09-3.94-.61-5.39-2.33-.43-.51-.35-1.31-.1-1.86Z"/><g><rect class="cls-42" x="903.95" y="617.98" width="81.87" height="16.23" transform="translate(62.46 -85.34) rotate(5.35)"/><rect class="cls-42" x="985.15" y="616.37" width="96.34" height="16.23" transform="translate(-70.31 134.86) rotate(-7.22)"/><path class="cls-42" d="M962.89,735.78c-.31-.02-.61-.07-.92-.15-2.51-.67-4-3.26-3.32-5.76l35.22-131c.68-2.51,3.26-4,5.76-3.32,2.51,.67,4,3.26,3.32,5.76l-35.22,131c-.59,2.2-2.65,3.62-4.84,3.47Z"/><path class="cls-42" d="M1102.58,732.79c.31,0,.62-.03,.93-.09,2.55-.51,4.2-2.99,3.69-5.54l-26.66-133c-.51-2.55-3-4.2-5.54-3.69-2.55,.51-4.2,2.99-3.69,5.54l26.66,133c.45,2.24,2.41,3.78,4.61,3.78Z"/><path class="cls-42" d="M877.77,738.67c-.31-.02-.61-.07-.92-.15-2.51-.67-4-3.26-3.32-5.77l35.22-130.99c.68-2.51,3.26-4,5.77-3.32,2.51,.67,4,3.26,3.32,5.76l-35.22,130.99c-.59,2.2-2.65,3.62-4.84,3.47Z"/><path class="cls-34" d="M1015.95,459.32c-.24-3.11-2.21-5.07-4.55-5.89-1.27-.72-2.82-1.05-4.61-.68-68.27,14-113.74,34.11-127,142.02-.17,1.39,29.36,12.95,32.7,13.17,23.43,1.6,9.03-3.3,32.33-5.92,18.43-2.07,39.9-4.92,54.66-17.29,14.82-12.42,14.68-34.01,16.24-51.79,2.16-24.51,2.13-49.11,.22-73.63Z"/><path class="cls-34" d="M1115.46,464.08c-3.31-19.73-17.96-32.97-37.01-37.68-36.97-9.16-74.01,10.28-92.37,42.36-3.84,6.71,2.36,12.93,8.24,12.65-3.21,5.58-5.93,11.46-8.14,17.5-2.38,6.51,3.34,10.65,8.84,10.23-4.13,5.96,1.16,11.56,7,11.92-2.5,3.35-4.95,6.74-7.34,10.18-5.43,7.82,7.12,17.66,13.3,10.26,.63-.76,1.24-1.53,1.87-2.28,3.17,3.3,8.69,4.6,12.22,.51,7.92-9.18,15.65-18.53,23.19-28.02,2.65,4.34,9.27,6.65,13.53,2.18,5.99-6.29,11.56-12.91,16.76-19.81,1.26,.94,2.5,1.53,3.7,1.84,1.26,6.15,8.85,10.73,13.87,4.66,1.57-1.9,3.57-4.63,5.56-7.8-1.27,10.53-3.68,21.01-6.2,30.99-2.67,10.57,13.66,15.08,16.33,4.5,5.11-20.21,10.14-43.33,6.64-64.22Z"/><path class="cls-42" d="M1032.77,593.09c-18.73-3.67-39.02-1.53-58.26-1.63-1.34-1.99-3.53-3.41-6.64-3.44-21.07-.21-42.14-.42-63.21-.63-.07,0-.12,.02-.19,.02,.55-1.58,1.11-3.17,1.66-4.75,3.6-10.31-12.76-14.75-16.33-4.5-4.4,12.59-12.92,28.33,3.41,35.65,14.47,6.48,114.77,19.42,140.07,1.12,5.32-3.85,7.33-20.3-.5-21.83Z"/><path class="cls-42" d="M970.96,733.71c-.29,4.54-4.21,7.98-8.75,7.68-4.54-.29-7.98-4.21-7.68-8.75,.29-4.54,4.21-7.98,8.75-7.68,4.54,.29,7.98,4.21,7.68,8.75Z"/><path class="cls-42" d="M886.74,732.06c-.29,4.54-4.21,7.98-8.75,7.68-4.54-.29-7.98-4.21-7.68-8.75,.29-4.54,4.21-7.98,8.75-7.68,4.54,.29,7.98,4.21,7.68,8.75Z"/><circle class="cls-42" cx="1103.22" cy="729.26" r="8.23" transform="translate(-192.54 993.69) rotate(-45)"/><rect class="cls-21" x="935.5" y="678.64" width="19.26" height="43.76" transform="translate(-154.76 283.1) rotate(-15.76)"/><path class="cls-38" d="M963.16,728.73l-.72-12.8c.09-.59,.13-1.84-.19-2.19-.82-.91-2.41-.7-4.09-.79-8.01-.43-12.05,3.16-19.92-.62-.44-.21-.95-.14-1.67,.33-6.62,4.28-12.95,8.9-20.23,11.94-4.9,2.04-10.69,3.95-15.81,6.43-2.07,1.01-4.02,4.9-1.94,6.98,1.22,1.22,32.79,.23,38.91-1.63,2.44-.74,4.12-2.84,6.43-1.69,1.11,.56,.88,1.35,2.38,1.78,2.69,.76,13.73,0,15.15-1.28,1.47-1.31,1.44-4.73,1.7-6.45Z"/><path class="cls-5" d="M937.85,716.4c-1.41-.55-2.81-1.15-4.21-1.73,0-.03,0-.06,0-.1-.66,.44-1.33,.88-1.99,1.31,.03,.01,.06,.02,.08,.03-.02,1.37-.04,2.75-.07,4.12-.03,1.21,1.83,1.35,1.88,.13,0-.1,0-.2,.01-.3,0-.01,0-.02,0-.03,.03-1.05,.04-2.1,.06-3.15,1.21,.49,2.41,1.01,3.62,1.49,1.13,.44,1.75-1.34,.63-1.77Zm-7.12,4.5c-1.4-.55-2.79-1.14-4.18-1.72-.66,.41-1.33,.81-2,1.21l.07,.03c-.02,1.37-.04,2.75-.07,4.12-.03,1.21,1.83,1.35,1.88,.13,0-.1,0-.2,.01-.3,0-.01,0-.02,0-.03,.03-1.05,.04-2.1,.06-3.15,1.21,.49,2.41,1.01,3.62,1.48,1.13,.44,1.75-1.34,.63-1.77Z"/><path class="cls-5" d="M962.11,730.23c-20.78,4.26-43.11,4.52-64.29,4.55-.27,1.17-.13,2.38,.75,3.26,1.22,1.22,32.79,.23,38.91-1.63,2.44-.74,4.12-2.84,6.43-1.69,1.11,.56,.88,1.35,2.37,1.78,2.69,.76,13.73,0,15.15-1.28,1.14-1.02,1.38-3.29,1.55-5.06-.28,0-.57,.03-.87,.09Z"/><path class="cls-29" d="M892.9,573.52c5.65-18.35,79.3-39.99,80.5-46.57,.87-4.78-.09-10.48-.14-15.34-.06-5.6,7.95-6.01,9.23-1.26,.47-.61,1-1.2,1.65-1.75,5.89-4.88,17-6.64,26.27-7.38,1.21-.64,2.62-.7,3.88-.26,1.53-.09,2.98-.15,4.29-.21,1.16-.05,2.21-.02,3.2,.04,.71-.07,1.43,0,2.1,.22,4.87,.8,7.19,3.23,7.8,6.6,.92-4.01,7.69-5.09,9.17-.15,4.21,14.04,9.35,31.94,4.16,46.4-4.22,11.74-14.83,19.7-25.97,24.31-15.9,6.57-33.71,9.33-50.36,13.33-7.77,1.86-15.54,3.73-23.31,5.6,6.32,22.75,15.85,61.33,22.04,84.11,2.11,7.78,3.92,10.98-4.23,14.43-1.36,.58-29.52,9.75-35.14,11.44-1.47,.44-6.19,.67-7.96-3.96l-16.51-66.28c-2.83-11.35-5.66-22.69-8.48-34.04-2.2-8.88-4.97-20.18-2.18-29.26Z"/><rect class="cls-21" x="828.09" y="672.48" width="19.26" height="43.76" transform="translate(398.24 -301.01) rotate(26.52)"/><path class="cls-38" d="M847.04,718.33l-.72-12.8c.09-.59,.13-1.84-.19-2.19-.82-.91-2.41-.7-4.09-.79-8.01-.43-12.05,3.16-19.92-.62-.44-.21-.95-.14-1.67,.33-6.62,4.28-12.95,8.9-20.23,11.94-4.9,2.04-10.69,3.95-15.81,6.43-2.07,1.01-4.02,4.9-1.94,6.98,1.22,1.22,32.79,.23,38.91-1.63,2.44-.74,4.12-2.84,6.43-1.69,1.11,.56,.88,1.35,2.37,1.78,2.69,.76,13.73,0,15.15-1.28,1.47-1.31,1.44-4.73,1.7-6.45Z"/><path class="cls-5" d="M821.74,706.01c-1.41-.55-2.81-1.15-4.21-1.73v-.1c-.66,.44-1.32,.88-1.99,1.31l.08,.03c-.02,1.37-.04,2.75-.07,4.12-.03,1.21,1.83,1.35,1.88,.13,0-.1,0-.2,.01-.3,0-.01,0-.02,0-.03,.03-1.05,.04-2.1,.06-3.15,1.21,.49,2.41,1.01,3.62,1.48,1.13,.44,1.75-1.34,.63-1.77Zm-7.12,4.5c-1.4-.55-2.79-1.14-4.18-1.72-.66,.41-1.33,.81-2,1.21l.07,.03c-.02,1.37-.04,2.75-.07,4.12-.03,1.21,1.83,1.35,1.88,.13,0-.1,0-.2,.01-.3,0-.01,0-.02,0-.03,.03-1.05,.04-2.1,.06-3.15,1.21,.49,2.41,1.01,3.62,1.49,1.13,.44,1.75-1.34,.63-1.78Z"/><path class="cls-5" d="M845.99,719.84c-20.78,4.26-43.11,4.52-64.29,4.55-.27,1.17-.13,2.38,.75,3.26,1.22,1.22,32.79,.23,38.91-1.63,2.44-.74,4.12-2.84,6.43-1.69,1.11,.56,.88,1.35,2.38,1.78,2.69,.76,13.73,0,15.15-1.28,1.14-1.02,1.38-3.29,1.55-5.06-.28,0-.57,.03-.87,.09Z"/><path class="cls-7" d="M936.47,337.93c-1.34,.94-2.65,1.97-3.98,2.93,1.33,.84,2.02,2.38,1.19,4.03-2.15,4.28-9.25,7.67-13.27,10.28-3.67,2.39-7.55,4.87-12.14,3.63-4.06-1.09-5.49-4.1-7.16-7.5-3.15-6.42-5.88-13.06-8.47-19.7-2.15-5.53-4.69-11.36-5.89-17.3-.99-4.91-2.57-11.61-.77-16.54,3.56-9.77,14.58-13.05,24.5-15.96,4.11-1.21,6.41,4.39,2.83,5.97,.27,.57,.38,1.2,.23,1.83-.08,.35-.18,.7-.26,1.05,2.35-1.02,4.95,.97,4.78,3.61-.01,.19-.06,.39-.08,.59,2.17-.45,4.42,1.83,4.08,3.93-.24,1.51-.53,3-.84,4.48,1.48-.35,2.97,0,3.9,1.21,2.28,2.98,2.45,7.7,3.24,11.25,.27,1.22,.5,2.44,.76,3.66,2.53-.44,5.17,1.73,3.8,4.51-.54,1.1-1.04,2.21-1.54,3.33,2.05,.24,3.52,2.93,2.39,4.63-.04,.07-.09,.13-.14,.19,3.26-.92,6.07,3.61,2.84,5.89Z"/><rect class="cls-7" x="928.24" y="320.02" width="30.87" height="56.27" transform="translate(-37.89 567.87) rotate(-32.87)"/><path class="cls-7" d="M898.97,340.68c-1.82,1.76-6.62,2.04-7.93-.27-1.05-1.84-.59-4.6-.63-6.62-.06-3.11-.12-6.22-.19-9.32-.02-1.15,1.85-1.19,1.87-.04l.08,4.05c.55-.36,1.49-.16,1.48,.66,0,.42,0,.83-.02,1.25,.25,.13,.45,.36,.49,.7,.04,.33,.05,.65,.08,.98,.55-.18,1.27,.07,1.27,.78,0,.95,.05,1.91,.07,2.87,.53-.13,1.16,.13,1.18,.8,0,.12,.01,.23,.02,.34,.18-.01,.37,.01,.53,.09,.23,.08,.43,.25,.53,.52l.15,.29c.44,.05,.82,.34,.76,.83-.02,.19-.06,.33-.1,.47,.17,.06,.32,.17,.41,.39l.08,.17c.17,.36,.18,.77-.14,1.08Z"/><path class="cls-29" d="M892.85,324.14c.45,1.29,1.42,2.12,2.15,1.86,.73-.26,.96-1.51,.51-2.8-.45-1.29-1.42-2.12-2.15-1.86-.74,.26-.96,1.51-.51,2.8Z"/><path class="cls-29" d="M892.82,314.76c-1.65,.29-3.71,.95-5.45,2.15,.29,1.28,.6,2.26,.94,3.46,2.76-1.42,6.55-3.22,7.27-3.9,.31-.29,.37-.72,.19-1.05-.32-.61-1.06-.99-2.96-.66Z"/><path class="cls-9" d="M902.91,341.73c-1.61,.78-3.31,1.67-5.02,2.68,.78,1.78,1.59,3.55,2.43,5.3,.26-.1,.54-.18,.78-.3,2.35-1.21,4.15-4.34,4.02-6.6-.07-1.11-.64-1.84-2.22-1.08Z"/><path class="cls-7" d="M800.41,472.75c.3-.63,.73-1.23,1.23-1.8-.08-.63,.11-1.3,.73-1.78,3.84-2.99,7.93-7.62,13.12-7.64,5.47-.02,10.11,2.01,15.14,2.7,17.24-3.9,25.24-3.43,46.65-8.84,2.31-.58,4.15,13.21-5.18,15.76-8.2,2.25-25.06-.32-33.41,1.18-2.5,1.64-4.43,3.95-7.32,4.57-3.81,.82-7.15-.75-10.82-1.5-5.85-1.21-9.4,2.01-14.76,1.67-2.2-.14-3.92-.7-5.33-2.45-.42-.52-.32-1.32-.05-1.86Z"/><path class="cls-9" d="M833.67,491.99c.88-5.41,1.72-8.92,2.21-15.18,.04-.47,.04-.91-.82-1.01-5.2-.62-19.95-1.89-22.29-2.14-.64-.07-1.79-.35-2.19,1.15-.62,2.33-2.45,13.02-2.7,15.09-.14,1.14,.28,.95,2.06,1.18,7.42,.93,14.58,1.73,22.4,2.42,.38,.03,1.07,.08,1.33-1.5Z"/><path class="cls-29" d="M885.8,295.58c6.57-16.56,29.39-24.16,45.54-18.68,21.59,7.32,21.31,28.11,21.68,49.73-.29,2.06-1.32,3.5-2.96,3.71-5.94,.77-10.53,3.58-16.6,1.87-5.09-1.43-7.4-5.65-10.94-9.27-4.53-4.63-5.97-4.68-12.4-6.82-1-.33-2.32-.35-3.17-1.02-6.75-5.42-5.6-16.91-20.97-14.8-2.29,.32-.38-4.23-.19-4.72Z"/><path class="cls-7" d="M905.47,322.06c1.53-5.57,5.15-10.74,11.7-8.73,2.27,.69,3.9,2.64,4.64,4.84,.75,2.25,1.33,6.11-.27,8.08-1.53,1.88-4.18-.8-2.66-2.66-.07,.09-1.93-1.93-3.75-2.03-3.74-.21-5.21-1.46-6.03,1.51-.64,2.33-4.27,1.34-3.63-1Z"/><path class="cls-29" d="M894.54,300.85c-2.28-.83,1.66-5.28,3.01-3.28,3.65,5.37,13.89,13.51,12.75,15.65-2.46,4.62,2.11,12.5,4.55,16.4,2.11,3.37,4.74,6.4,6.76,9.84,3.07,5.24,4.08,10.45,3.5,16.28,.21,1.33-1.86,4.99-10.98,6.93-8.2,1.75-11.97-5.31-10-6.47,12.3-7.2,3.36-20.9,.6-31.17-2.51-9.33-6.3-22.76-10.18-24.17Z"/><path class="cls-24" d="M915.76,317.61c-.92-.58-1.85-.35-2.84-.1-1.17,.3-.54,2.07,.63,1.77,.82-.21,1.22-.24,1.72,.48,.28,.4,.44,.86,.53,1.33,.21,1.05,0,2.12-.61,3.01-.68,.99,.75,2.22,1.44,1.22,1.14-1.65,1.48-3.71,.72-5.6-.32-.81-.84-1.63-1.59-2.1Z"/><path class="cls-29" d="M822.17,675.6c5.68-21.19,12.15-42.15,19.56-62.79,6.8-18.95,13.82-38.75,25.45-55.38,10.5-15,25.74-19.43,42.55-24.61,20.9-6.44,42.03-12.11,62.38-20.2,2.73-1.09,4.51,1.17,4.51,3.5,2.43,.25,4.69,1.07,6.6,2.75,1.34,1.17,1.26,3.1,.59,4.56-.57,1.24-1.62,2.23-2.93,3.03,1.05,1.69,.97,4.08-1.22,5.14-6.48,3.14-13.05,5.95-19.74,8.47-.28,.16-.55,.34-.82,.5-.15,.19-.31,.37-.51,.54-1.78,1.56-2.67,2.1-4.94,2.78-1.3,.39-2.37,.12-3.16-.5-1.1,.36-2.2,.7-3.3,1.05-6.78,7.25-14.51,13.32-22.41,19.3-3.05,2.31-7.64,5.3-12.16,8.7-2.9,3.35-5.78,6.71-8.63,10.1,.12,.57,.1,1.22-.17,1.94-6.87,18.5-13.73,36.99-20.6,55.49-3.43,9.25-6.87,18.5-10.3,27.74-2.3,6.19-3.96,9.54-6.94,18.4-.87,2.59-2.65,5.77-6.03,4.75-11.72-3.55-23.44-7.1-35.16-10.64-1.96-.59-3.17-2.62-2.63-4.63Z"/><path class="cls-29" d="M821.07,475.91c6.87-12.56,13.4-25.29,19.59-38.21,1.04-2.18,4.51-.7,3.46,1.49-6.19,12.91-12.71,25.65-19.59,38.21-1.15,2.1-4.62,.64-3.46-1.49Z"/><path class="cls-31" d="M936.36,367.03c.69-2.16,3.61-3.93,5.17-5.4,2.55-2.4,5.07-4.82,7.69-7.15,2.32-2.07,7.83-8.19,11.38-7.94,2.65,.19,5.12,3.52,6.87,6.39,26.78,19.84,45.21,47.73,59.25,77.67,13.52,28.82,37.44,86.46,9.21,100.34-1.19,.59-12.11,3.26-17.95,3.61-12.06,.72-24.44-.73-36.08-3.97-7.84-2.18-16.26-4.74-19.93-12.67-5-10.82-6.22-24.82-8.9-36.4-5.7-24.63-12.65-49.38-15.4-74.56-1.14-10.5-1.01-21.36,1.82-31.32-1.92-2.7-4.01-5.9-3.14-8.6Z"/><path class="cls-7" d="M814.55,477.62c.09-5.35,2.95-12.45,8.62-13.91,2.01-.52,3.84-.16,5.63,.48,1.98-1.27,4.15-1.95,6.61-.89,2.95,1.27,4.72,4.27,7.18,6.14,3.25,.23,6.13-.22,9.5-.88,2.38-.47,2.78,3.28,.41,3.74-.8,.16-1.6,.31-2.4,.45,1.87,.37,3.74,.74,5.62,1.1,2.35,.51,1.8,4.19-.6,3.72-.22-.05-.43-.08-.65-.12,0,.34-.11,.67-.27,.97,.04,.04,.1,.07,.14,.12,1.46-.3,2.92-.59,4.36-.88,2.37-.47,2.77,3.27,.41,3.74-5.97,1.19-11.98,2.34-18.03,3.02-5.03,.57-9.97-.16-14.92,.48-6.33,.82-11.75,.98-11.62-7.27Z"/><path class="cls-31" d="M848.05,471.06c-.14-2.65,1.44-4.76,4.09-5.24,13.47-2.43,26.93-3.54,40.5-5.09,7.77-.89,33.01-20.17,35.74-24.1,15.44-22.18,9.3-44.81,20.22-69.46,2.45-5.53,11.11-1.84,8.65,3.72-6.17,13.94-12.69,33.06-8.94,29.37,.02-.02,.03-.05,.05-.07,0,0,3.94-2.24,5.31-1.58,.52-.84,1.03-1.69,1.55-2.53,2.67-4.34,10.89,13.09,10.34,14.24,2.26,.76,12.22,13.34,10.37,18.83-2.39,7.1-5.77,13.79-10.47,19.65-2.24,2.8-5.14,5.05-7.35,7.84-2.38,3-24.75,27.59-37.16,32.37-7.82,3.01-53.7,1.9-58.96,.03-2.95-1.05-8.33-.27-10.19-1.73-4.87-3.81-3.47-10.81-3.76-16.27Z"/><path class="cls-27" d="M900.48,564.35c4.08-5.47,10.11-8.92,16.31-11.5,17.6-7.31,36.38-12.42,54.46-18.45,1.15-.38,1.65,1.43,.5,1.82-15.92,5.31-31.9,10.47-47.76,15.95-6.87,2.37-14.04,5.11-19.34,10.28-6.27,6.12-8.2,14.61-8.82,23.05-.09,1.2-1.97,1.21-1.88,0,.55-7.43,1.98-15.05,6.54-21.15Z"/><path class="cls-27" d="M933.72,590.15c.69-5.01,2.47-10.09,6.28-13.6,4.79-4.4,12.27-5.89,18.28-7.79,15.36-4.88,30.97-8.93,46.75-12.22,1.18-.25,1.69,1.57,.5,1.81-14.03,2.92-27.92,6.44-41.62,10.62-6.64,2.02-14.55,3.61-20.47,7.32-6.17,3.87-8,11.42-8.19,18.25-.39,14.57,4.71,29.24,8.88,43.02,4.21,13.89,8.83,27.64,13.45,41.39,.39,1.15-1.43,1.64-1.82,.5-5.2-15.47-10.39-30.95-15-46.61-3.97-13.48-9-28.46-7.04-42.71Z"/><path class="cls-31" d="M864.09,454.2c10.34-5.92,16.79-16.55,27.25-22.51,6.94-3.95,12.2-7.24,16.69-14.1,3.07-4.69,5.34-9.87,8.04-14.77,6.38-11.58,14.47-21.93,23.94-31.13,4.35-4.22,11.01,2.42,6.65,6.65-2.13,2.07-4.19,4.21-6.16,6.4,3.1,.47,5.78,3.56,3.47,6.78-17,23.74-4.52,69.01-2.99,63.86l-38.16,5.51c-2.35,1.65-4.73,3.28-7.14,4.86-.83,.55-1.72,.72-2.58,.66-2.59,1.69-5.34,3.05-8.33,3.91-3.09,.89-5.33-1.28-5.72-3.89-.31,.22-.61,.44-.92,.66-1.55,1.07-3.04,1.04-4.24,.4-.22,.26-.44,.52-.66,.78-1.89,2.22-4.4,1.82-6.07,.29-2.82,2.02-5.49,4.25-7.94,6.83-2.67,2.81-6.61,1.02-7.86-2.08-4.17-10.28,5.32-14.86,12.71-19.1Z"/><path class="cls-40" d="M941.48,374.86c8.87-3.93,18.69-11.94,23.06-20.67,.54-1.08,2.17-.13,1.63,.95-4.5,8.97-14.63,17.31-23.74,21.34-1.1,.49-2.06-1.14-.95-1.63Z"/><path class="cls-40" d="M959.25,369.75c1.69,4.5,2.69,9.12,3.07,13.91,.1,1.21-1.79,1.2-1.88,0-.37-4.62-1.38-9.07-3-13.41-.43-1.14,1.39-1.63,1.81-.5Z"/><path class="cls-40" d="M956.9,469.31c9.68-10.38,15.69-24.32,18.57-38.11,3.09-14.79,1.39-30.78-8.72-42.59-.78-.92,.54-2.25,1.33-1.33,9.74,11.37,12.19,26.46,9.86,40.94-2.46,15.27-9.09,31.05-19.71,42.43-.83,.89-2.16-.45-1.33-1.33Z"/><path class="cls-40" d="M857.37,480.83v.24c0,2.42-3.76,2.43-3.76,0v-.24c0-2.42,3.76-2.43,3.76,0Z"/><path class="cls-34" d="M1114.29,476.26c-.24-3.11-2.21-5.07-4.55-5.89-1.27-.72-2.82-1.05-4.61-.68-68.27,14-111.83,69.79-140.44,133.3-2.37,5.27-7.54,20.49-4.2,20.72,23.43,1.6,59.27-.67,82.58-3.29,18.43-2.07,40.01-6.37,54.76-18.73,14.82-12.42,14.68-34.01,16.24-51.79,2.16-24.51,2.13-49.11,.22-73.63Z"/><path class="cls-42" d="M1044.16,502.57c-33.09,31.76-58.41,70.98-73.74,114.21-.41,1.14,1.38,1.73,1.79,.59,15.22-42.92,40.36-81.86,73.22-113.4,.87-.84-.39-2.24-1.26-1.4Z"/><path class="cls-42" d="M1108.76,463.93c-43.26,30.37-79.58,70.32-105.69,116.28-7.21,12.7-13.61,25.84-19.23,39.32-.47,1.12,1.32,1.7,1.79,.59,20.14-48.34,50.96-92.01,89.77-127.18,10.95-9.92,22.53-19.13,34.62-27.62,.99-.7-.28-2.08-1.26-1.4Z"/><path class="cls-31" d="M929.52,464.02c.74-.72,1.71-1.7,2.77-2.83-1.51-.96-2.4-2.87-1.28-4.95,.56-1.04,1.15-2.05,1.76-3.05,.43-.8,.84-1.6,1.24-2.4-1.8-.16-3.44-1.59-3.37-3.89-1.54-.64-2.6-2.15-1.87-4.22,1.42-3.99,2.76-8.9,4.55-13.62-1.46-.65-2.55-2.19-2.2-4.32,2.12-12.7,.58-26.84,13.18-34.33,2.6-1.54,5.76,.74,5.7,3.38,.03,.07,.05,.13,.08,.2,.93,2.41-.71,4.08-2.7,4.45-.21,.11-.42,.21-.64,.27,.05,.38,.06,.77,0,1.18-.35,2.39-.76,4.76-1.2,7.12,1.27,.78,2.08,2.24,1.56,4.05-.3,1.03-.61,2.04-.92,3.07,1.76,.67,3.11,2.6,2.47,4.56-.56,1.72-1.14,3.42-1.72,5.13,.35,.18,.69,.4,1.05,.67,4.23,3.27,2.66,10.51-.47,17.73,1.19,.69,2.07,2.05,2.08,3.37,.03,2.71-.93,5.59-2.42,8.43,.52,.96,.6,2.19-.1,3.55-.08,.16-.16,.31-.24,.47,2.17,.59,3.79,2.78,2.15,5.24-1.09,1.63,8.56-1.2,7.53,.46,2.29,.53-25.97,21.58-24.21,18.14,.53-1.03,1.15-7.24,1.7-8.25-.86-.75-1.38-1.87-1.17-3.25-3.11,.45-6.14-3.6-3.3-6.36Z"/></g><g><rect class="cls-42" x="154.12" y="606.36" width="81.87" height="16.23" transform="translate(446.54 1208.1) rotate(174.65)"/><rect class="cls-42" x="58.46" y="604.75" width="96.34" height="16.23" transform="translate(135.37 1234.27) rotate(-172.78)"/><path class="cls-42" d="M177.05,724.16c.31-.02,.61-.07,.92-.15,2.51-.67,4-3.26,3.32-5.76l-35.22-131c-.68-2.51-3.26-4-5.77-3.32-2.51,.67-4,3.26-3.32,5.76l35.22,131c.59,2.2,2.65,3.62,4.84,3.47Z"/><path class="cls-42" d="M37.36,721.17c-.31,0-.62-.03-.93-.09-2.55-.51-4.2-2.99-3.69-5.54l26.66-133c.51-2.55,3-4.2,5.54-3.69,2.55,.51,4.2,2.99,3.69,5.54l-26.66,133c-.45,2.24-2.41,3.78-4.61,3.78Z"/><path class="cls-42" d="M262.17,727.05c.31-.02,.61-.07,.92-.15,2.51-.67,4-3.26,3.32-5.77l-35.22-130.99c-.68-2.51-3.26-4-5.76-3.32-2.51,.67-4,3.26-3.32,5.76l35.22,130.99c.59,2.2,2.65,3.62,4.84,3.47Z"/><path class="cls-20" d="M123.99,447.7c.24-3.11,2.21-5.07,4.55-5.89,1.27-.72,2.82-1.05,4.61-.68,68.27,14,113.74,34.12,127,142.02,.17,1.39-29.36,12.95-32.7,13.17-23.43,1.6-9.03-3.3-32.33-5.92-18.43-2.07-39.9-4.92-54.66-17.29-14.82-12.42-14.68-34.01-16.24-51.79-2.16-24.51-2.13-49.11-.22-73.63Z"/><path class="cls-43" d="M27.46,449.4c3.31-19.73,17.96-32.97,37.01-37.68,36.97-9.16,74.01,10.28,92.37,42.36,3.84,6.71-2.36,12.93-8.24,12.65,3.21,5.58,5.93,11.46,8.14,17.5,2.38,6.51-3.34,10.65-8.84,10.23,4.13,5.96-1.16,11.56-7,11.92,2.5,3.35,4.95,6.74,7.34,10.18,5.43,7.82-7.12,17.66-13.3,10.26-.63-.76-1.24-1.53-1.87-2.28-3.17,3.3-8.69,4.6-12.22,.51-7.92-9.18-15.65-18.53-23.19-28.02-2.65,4.34-9.27,6.65-13.53,2.18-5.99-6.29-11.56-12.91-16.76-19.81-1.26,.94-2.5,1.53-3.7,1.84-1.26,6.15-8.85,10.73-13.87,4.66-1.57-1.9-3.57-4.63-5.56-7.8,1.27,10.53,3.68,21.01,6.2,30.99,2.67,10.57-13.66,15.08-16.33,4.5-5.11-20.21-10.14-43.33-6.64-64.22Z"/><path class="cls-20" d="M107.18,581.47c18.73-3.67,39.02-1.53,58.26-1.63,1.34-1.99,3.53-3.41,6.64-3.44,21.07-.21,42.14-.42,63.21-.63,.07,0,.12,.02,.19,.02-.55-1.58-1.1-3.17-1.66-4.75-3.6-10.31,12.76-14.75,16.33-4.5,4.4,12.59,12.92,28.33-3.41,35.65-14.47,6.48-114.77,19.42-140.07,1.12-5.32-3.85-7.33-20.3,.5-21.83Z"/><path class="cls-7" d="M296.67,371.75c4.33-5.46,10.64-8.56,15.59-13.39,5.23-6.7,8.86-28.06,17.64-24.11,3.43,.81,7.16,3.51,6.22,4.57-4.34,4.93-2.44-.94-5.41,4.18-1.31,2.25,.09,1.72-.06,4.41-.2,3.69-.36,7.48-2.1,10.84-1.4,2.71-3.19,4.4-5.78,5.94-5.57,3.32-9.83,5.95-14.2,10.83-1.12,1.25-2.76,.2-2.92-1.11-.4-.23-.71-.6-.85-1.05-.61,.54-1.19,1.11-1.82,1.64-.92,.77-1.93,.52-2.49-.14-.26,0-.51-.06-.74-.18-.31,.29-.68,.43-1.05,.42-1.4,.89-3.28-1.28-2.04-2.86Z"/><rect class="cls-12" x="336.91" y="686.16" width="19.26" height="43.76" transform="translate(972.79 1186.81) rotate(153.48)"/><path class="cls-42" d="M337.22,732.01l.72-12.8c-.09-.59-.13-1.84,.19-2.19,.82-.91,2.41-.7,4.09-.79,8.01-.43,12.05,3.16,19.92-.62,.44-.21,.95-.14,1.67,.33,6.62,4.28,12.95,8.9,20.23,11.94,4.9,2.04,10.69,3.95,15.81,6.43,2.07,1.01,4.02,4.9,1.94,6.98-1.22,1.22-32.79,.23-38.91-1.63-2.44-.74-4.12-2.84-6.43-1.69-1.11,.56-.88,1.35-2.38,1.78-2.69,.76-13.73,0-15.15-1.28-1.47-1.31-1.44-4.73-1.7-6.45Z"/><path class="cls-37" d="M115.38,481.56c.7-7.17,12-7.24,11.29,0-.13,1.37-.27,2.74-.41,4.11,2.61-.19,5.37,1.14,5.93,4.01,.21,1.08,.46,2.16,.68,3.23,.07-3.28,2.94-5.88,5.78-6.03,1.48-1.28,3.57-1.86,5.46-1.3,1.49-1.4,3.72-2.1,5.8-1.5,.58-.51,1.24-.92,1.95-1.19,1.53-1.02,3.49-1.42,5.25-.79,1.5-2.53,4.69-4.12,7.64-2.18,8.09,5.31,16.06,10.79,23.93,16.41,1.21,.05,2.45,.53,3.56,1.65,.18,.18,.35,.36,.53,.54,.46-4.23,6.69-15.06,10.36-11.05,13.34,14.6,77.93,63.13,84.12,68.6,6.79,6,10.7,13.58,14.44,21.69,18.98,41.18,32.87,72,51.81,113.2,1.79,3.9-.33,8.32-4.88,8.5-9.88,.39-9.35,.55-19.24,.94-5.78,.23-12.24,1.48-16.94-2.77-4.48-4.05-46.34-99.23-57.25-106.49-11.29-7.53-110.7-24.59-121.72-32.44-25.36-18.05-20.77-49.85-18.1-77.15Z"/><path class="cls-7" d="M151.58,287.74c-10.78-4.35,2.01-2.17,1.96-2.24-8.01-10.87,3.83-5.18,5.68-6.08-.84-.88,5.76,8.41,4.88,7.55-2.21-2.16-.45-5.09,2.08-5.52-.17-1.24-.36-2.47-.51-3.71-.44-3.61-1.85-8.11-.69-11.68,.47-1.46,1.76-2.27,3.27-2.44-.79-1.3-1.55-2.6-2.28-3.95-1.02-1.87,.34-4.77,2.54-5.07-.09-.18-.2-.35-.28-.53-1.04-2.43,.75-5.17,3.31-5-.2-.3-.4-.6-.6-.9-.35-.55-.46-1.18-.39-1.81-3.9-.3-3.59-6.35,.68-6.57,10.32-.55,21.81-1.13,28.42,6.89,3.34,4.05,4.08,10.89,4.78,15.85,.84,6,.4,12.35,.21,18.28-.23,7.12-.58,14.29-1.42,21.4-.44,3.76-.79,7.07-4.25,9.46-3.92,2.7-8.4,1.65-12.66,.62-4.66-1.12-12.48-1.95-15.93-5.27-1.33-1.28-1.19-2.96-.22-4.19-1.57-.46-13.53,.29-15.11-.15-3.8-1.07-6.84-14.71-3.46-14.93Z"/><rect class="cls-7" x="145.47" y="297.01" width="30.87" height="43.76" transform="translate(275.72 657.11) rotate(-171.98)"/><rect class="cls-12" x="268.51" y="631.56" width="18.85" height="43.76" transform="translate(520.09 1320.97) rotate(-176.9)"/><path class="cls-37" d="M200.1,503.36c1.92-1.02,3.76-2.42,5.37-3.91l.04-.02c2.69-.01,4.98-1.25,6.6-3.11,.96,.42,1.74,.72,2.17,.81,18.62,3.5,81.24,23.61,88.14,38.67,3.36,7.34,3.32,15.38,3.49,23.38,.22,10.33-.87,67.78-2.07,88.9-.12,2.02-1.63,3.78-3.76,3.76-6.76-.06-28.38-6.98-30.92-9.27-1.95-1.77-2.08-4.16-2.33-6.55-.71-6.61-4.09-80.89-5.96-81.56-9.77-3.46-25.73-12.41-35.67-15.32-2.05-.6-2.8-2.35-2.61-4-3.84-1.8-7.66-3.65-11.45-5.57-1.96-.99-2.21-3.08-1.45-4.73-.94-.46-1.89-.9-2.82-1.37-3.21-1.62-6.29-11.99-9.83-13.11-1.31-.41-1.76-2.85-1.74-5.87,1.66,.02,3.34-.34,4.82-1.13Z"/><path class="cls-42" d="M260.4,680.64l4.69-11.92c.12-.58,.53-1.77,.94-1.98,1.09-.56,2.5,.19,4.1,.7,7.65,2.41,10.67,7.39,19.36,6.62,.49-.04,.94,.21,1.45,.9,4.69,6.34,8.98,12.89,14.73,18.31,3.86,3.64,8.61,7.46,12.53,11.59,1.59,1.67,2.04,6-.65,7.22-1.57,.71-30.76-11.34-35.83-15.24-2.02-1.55-2.86-4.11-5.42-3.85-1.24,.13-1.3,.95-2.85,.83-2.79-.23-12.85-4.85-13.73-6.54-.91-1.74,.32-4.93,.68-6.64Z"/><path class="cls-7" d="M201.21,290.52l.02-.18c.02-.23,.13-.39,.26-.5-.09-.11-.17-.24-.25-.41-.23-.44,.04-.84,.44-1.03l.04-.32c0-.29,.14-.51,.33-.67,.13-.13,.29-.21,.47-.26-.03-.11-.06-.22-.09-.33-.2-.64,.31-1.09,.85-1.15-.3-.92-.58-1.84-.89-2.73-.23-.67,.36-1.15,.94-1.16-.08-.32-.17-.63-.25-.95-.08-.34,.04-.62,.23-.82-.14-.39-.28-.78-.43-1.17-.29-.77,.53-1.27,1.17-1.11l-1.27-3.84c-.36-1.09,1.42-1.67,1.78-.58,.98,2.95,1.95,5.9,2.93,8.85,.63,1.92,1.99,4.36,1.61,6.45-.47,2.61-5.09,3.95-7.39,2.89-.41-.19-.53-.58-.49-.97Z"/><path class="cls-4" d="M363.15,721.46c1.22-.47,2.41-.99,3.62-1.49,.02,1.05,.03,2.1,.06,3.15,0,.01,0,.02,0,.03,0,.1,0,.2,.01,.3,.04,1.21,1.91,1.07,1.88-.13-.04-1.37-.05-2.75-.07-4.12l.08-.03c-.66-.44-1.32-.88-1.99-1.31,0,.03,0,.06,0,.1-1.4,.57-2.8,1.18-4.21,1.73-1.13,.44-.5,2.22,.63,1.77Zm7.12,4.5c1.22-.47,2.41-.99,3.62-1.48,.02,1.05,.03,2.1,.06,3.15,0,.01,0,.02,0,.03,0,.1,0,.2,.01,.3,.04,1.21,1.91,1.07,1.88-.13-.04-1.37-.05-2.75-.07-4.12l.07-.03c-.67-.4-1.34-.8-2-1.21-1.39,.57-2.78,1.17-4.18,1.72-1.13,.44-.5,2.22,.63,1.77Z"/><path class="cls-4" d="M338.27,733.51c20.78,4.26,43.11,4.52,64.29,4.55,.27,1.17,.13,2.38-.75,3.26-1.22,1.22-32.79,.23-38.91-1.63-2.44-.74-4.12-2.84-6.43-1.69-1.11,.56-.88,1.35-2.38,1.78-2.69,.76-13.73,0-15.15-1.28-1.14-1.02-1.38-3.29-1.55-5.06,.28,0,.57,.03,.87,.09Z"/><path class="cls-4" d="M288.39,680.02c1.31-.02,2.61-.1,3.91-.14-.34,.99-.7,1.98-1.04,2.98,0,0-.01,.01-.01,.02-.03,.1-.06,.19-.09,.29-.38,1.15,1.42,1.67,1.81,.53,.44-1.3,.9-2.59,1.35-3.89h.09c-.47-.64-.94-1.28-1.41-1.92l-.03,.09c-1.52,.05-3.03,.13-4.55,.16-1.21,.02-1.24,1.91-.03,1.88Zm5.12,6.68c1.31-.02,2.61-.1,3.91-.14-.34,.99-.7,1.98-1.04,2.98,0,0-.01,.01-.01,.02-.03,.1-.06,.19-.09,.29-.38,1.15,1.42,1.67,1.81,.53,.44-1.3,.9-2.59,1.35-3.89h.07c-.49-.61-.98-1.22-1.46-1.83-1.51,.05-3.01,.13-4.52,.16-1.21,.02-1.24,1.91-.03,1.88Z"/><path class="cls-4" d="M260.87,682.72c18.02,11.19,38.88,19.16,58.75,26.52-.16,1.19-.7,2.27-1.83,2.8-1.57,.72-30.84-11.13-35.94-15-2.03-1.54-2.88-4.09-5.45-3.81-1.24,.14-1.3,.96-2.84,.84-2.79-.21-12.88-4.76-13.77-6.45-.71-1.35-.15-3.56,.3-5.29,.26,.1,.53,.22,.79,.38Z"/><path class="cls-25" d="M266.93,549.51c0,18.51,.36,37.02,1.04,55.52,.05,1.21-1.84,1.21-1.88,0-.69-18.5-1.03-37.01-1.04-55.52,0-1.21,1.88-1.21,1.88,0Z"/><path class="cls-25" d="M268.76,545.41c2.96-3.06,6.16-5.84,9.57-8.38,.97-.72,1.91,.91,.95,1.63-3.29,2.44-6.35,5.14-9.19,8.08-.84,.87-2.17-.46-1.33-1.33Z"/><path class="cls-25" d="M187.01,518.45c25.54,6.81,50.47,15.61,74.63,26.31,1.11,.49,.15,2.11-.95,1.63-24.01-10.64-48.81-19.36-74.18-26.12-1.17-.31-.67-2.13,.5-1.81Z"/><path class="cls-25" d="M293.02,649.34c2.57,.93,5.16,1.77,7.83,2.37,2.48,.56,4.76,1.84,5.81-1.68,.29-.98-.07-2.62-.09-3.65-.16-6.39-.33-12.78-.49-19.18-.32-12.48-.64-24.96-.96-37.44-.03-1.21,1.85-1.21,1.88,0,.41,16.13,.83,32.26,1.24,48.4,.1,3.89,.54,7.98,.3,11.87-.05,.83-.05,1.69-.33,2.45,4.3,5.89,7.13,12.92,10.37,19.43l10.54,21.14c.54,1.08-1.08,2.04-1.63,.95-3.51-7.05-7.02-14.1-10.53-21.14-3.15-6.32-5.93-13.14-10.03-18.93-3.53,2.02-11.4-1.69-14.41-2.77-1.13-.41-.64-2.23,.5-1.81Z"/><path class="cls-12" d="M90.96,350.82c4.03-13.79,19.93-19.63,31.89-22.62,5.35-1.34,10.15-2.29,15.18-2.17,.64-2.46,1.59-4.83,3.19-6.8,2.65-3.28,5.68-2.12,9.5-1.35,4.12,.83,9.34,2.56,13.44,3.93,2.33,.78,2.49,3.82,3.23,6.21,.03-.63,.05-1.26,.1-1.88,.27-3.18,.69-3.51,3.77-4.25,1.77-.43,4.99-1.79,6.53-.26,.84,.83,1.17,2.68,1.56,3.7,.72,1.86,1.43,3.71,2.15,5.57,7.3,4.51,20.52,8.85,34.39,20.06,6.85,5.53,14.13,16.29,19.58,23.04,4.62,5.72,9.15,11.53,13.59,17.39,2.89-1.76,48.82-28.2,53.64-31.14,1.62-.99,2.33-1.96,4.12-.59,5.13,3.94,9.14,11.73,11.17,15.37,.76,1.36-3.89,5.11-4.93,5.8-6.27,4.16-50.66,61.17-70.36,60.02-7.31-.43-14.86-7.6-21.29-15.37-1.73,9.78-3.39,19.58-3.86,28.76-.67,13.08-1.04,20.52-6.74,32.25-.58,3.73-.26,7.39-1.26,11.04-.45,1.65-50.72,5.97-69.04,4.28-12.78-1.18-28.71,1.95-27.53-10.28,.66-6.92,2.28-10.26,2.28-20.61,0-3.56-9.34-39.05-14.09-57.61-3.93-15.36-14.81-46.7-10.2-62.47Z"/><path class="cls-44" d="M25.66,464.63c.24-3.11,2.21-5.07,4.55-5.89,1.27-.72,2.82-1.05,4.61-.68,68.27,14,122.46,66.79,138.44,134.59,.32,1.36,.21,2.58-.15,3.65,.32,.7,.55,1.48,.61,2.37,.12,1.69,.25,3.39,.37,5.08,.27,3.72,8.71,8.1,5.37,8.32-23.43,1.6-59.27-.67-82.58-3.29-18.43-2.07-40.01-6.37-54.76-18.73-14.82-12.42-14.68-34.01-16.24-51.79-2.16-24.51-2.13-49.11-.22-73.63Z"/><path class="cls-29" d="M202.1,273.19c0,1.36-.63,2.47-1.41,2.47s-1.41-1.11-1.41-2.47,.63-2.47,1.41-2.47,1.41,1.11,1.41,2.47Z"/><path class="cls-32" d="M198.68,265.25c1.6-.5,3.88-.67,5.98-.4,.1,1.15,.17,2.3,.21,3.46-3.1,0-6.91,0-7.86-.27-.41-.12-.66-.47-.65-.85,0-.68,.49-1.37,2.32-1.94Z"/><path class="cls-24" d="M198.34,293.79c1.78,.19,3.67,.47,5.62,.86-.15,1.94-.32,3.88-.53,5.81-.28-.01-.57,.01-.84-.03-2.62-.36-5.36-2.71-5.98-4.88-.31-1.07-.01-1.95,1.73-1.76Z"/><path class="cls-9" d="M198.34,293.79c1.78,.19,3.67,.47,5.62,.86-.07,.87-.16,1.73-.24,2.6-1.24,.02-2.7-.43-3.65-.88-1.06-.51-1.91-1.44-2.08-2.58,.11,0,.21,0,.34,.01Z"/><path class="cls-24" d="M180.82,273.96c.67-.85,1.62-.95,2.65-1.04,1.21-.11,1.2,1.77,0,1.88-.84,.08-1.23,.18-1.46,1.02-.13,.47-.13,.95-.06,1.43,.15,1.06,.71,2,1.58,2.63,.97,.7,.03,2.34-.95,1.63-1.62-1.18-2.63-3-2.54-5.04,.04-.87,.25-1.82,.8-2.51Z"/><path class="cls-37" d="M137.5,489.14c18.68,.85,37.16-1.42,55.76-2.82,3.79-.28,13.84-1.24,17.73-.48,1.95,.38,1.32,9.37,2.67,12.78,.89,2.25-2.75,3.23-3.63,1-.13-.32-.23-.63-.34-.94-.15,.12-.3,.23-.48,.3,0,.01,0,.03,0,.04,.03,1.65-2.06,2.45-3.21,1.33-1-.19-1.99-.37-2.99-.56-3.6,.39-7.19,.71-10.8,.94-.18,.74-.74,1.38-1.73,1.42-10.57,.36-21.14,.37-31.71,.21-.32,.4-.77,.67-1.36,.64-2.8-.14-5.51-.43-8.27-.84h-.03c-.17-.03-.33-.04-.5-.07-.34-.05-.59-.2-.8-.39-.85-.11-1.69-.23-2.54-.34-.48,.75-1.59,1.04-2.46,.67,.64,1.1,1.39,2.01,2.3,2.55,2.09,1.22,.2,4.47-1.9,3.25-4.78-2.79-6.38-11.39-7.52-16.31-.26-1.14,.55-2.44,1.81-2.38Z"/><path class="cls-7" d="M109.25,478.4c.18,.16,.37,.32,.55,.48-.52-1.21,.36-2.35,1.46-2.53,.39-1.14,1.97-1.74,3.13-.79,.86,.7,1.69,1.43,2.55,2.14-.25-.41-.51-.82-.73-1.25-1.12-2.14,2.12-4.05,3.25-1.9,4.02,7.67,12.06,11.07,17.32,17.63,5.2,6.5,6.55,16.38,7.26,24.43,.22,2.44,.74,6.04-2.72,6.07-.86,0-1.22-.29-1.63-.72-1.72,1.59-3.8,2.59-6.35,1.74-4.08-1.36-4.34-6.32-5.77-9.72-2.75-6.52-7.65-10.53-11.65-16.06-3.97-5.49-3.66-12.03-9.33-16.87-1.85-1.58,.83-4.23,2.66-2.66Z"/><path class="cls-12" d="M53.52,430.87c1.27-3.52,26.13-63.08,29.88-71.37,3.64-8.05,10.24-19.84,19.09-23.09,.36-.13,.76-.19,1.18-.2,4.79-2.28,8.89,5.28,4.09,8.48-.51,.34-1.02,.68-1.53,1.02-1.03,.69-2.08,.87-3.04,.7-2.86,1.79-5.39,5.13-7.54,8.91,.62-.19,1.27-.21,1.9-.11,1.56-2.62,3.33-4.88,5.4-6.42,2.54-1.89,6.11,.19,6.91,2.81l.15,.49c.77,2.51-.91,4.99-3.26,5.78-2.5,3.11-4.28,10.27-5.48,13.27-.28,.71-.54,1.44-.81,2.15,.2,.28,.37,.58,.5,.91,.75-.99,1.56-1.95,2.45-2.89,2.67-2.81,6.61-1.02,7.86,2.08,1.13,2.78,1.5,5.77,1.44,8.82,1.43-.03,2.82,.51,3.71,1.53,3.01-1.39,7.74,1.11,6.85,5.5-1.58,7.8-20.83,33.35-22.8,41.73-.01,.06-.03,.13-.04,.19,6.21,7.57,28.24,40.73,27.01,44.55-.69,2.17-3.8,3.51-5.56,4.58-1.1,.67-4.62,3.44-8.44,4.79-4.57,1.62-4.72,.41-7.12-.78-3.37-1.67-55.25-46.69-52.82-53.42Z"/><path class="cls-24" d="M137.42,499.08c2.19,6.85,3.27,13.82,3.27,21.01,0,1.21-1.88,1.21-1.88,0,0-7.02-1.07-13.83-3.2-20.51-.37-1.16,1.45-1.65,1.81-.5Z"/><path class="cls-24" d="M131.2,502.08c2.78,5.48,4.27,11.32,4.43,17.47,.03,1.21-1.85,1.21-1.88,0-.16-5.83-1.54-11.32-4.18-16.52-.55-1.08,1.08-2.03,1.62-.95Z"/><path class="cls-25" d="M142.37,499.07c12.06-.3,23.54-.34,35.5-2.02,1.34-.19,2.69-.36,4.04-.51-.17-2.42-.07-4.89-.98-7.22-.44-1.13,1.38-1.62,1.81-.5,.87,2.23,.85,4.16,.95,6.54,.01,.35,.06,.67,.09,.99,9.22-.96,18.5-1.33,27.68-2.68,1.18-.17,1.7,1.64,.5,1.81-9.23,1.35-18.54,1.81-27.82,2.74,.7,2.34,2.1,4.01,3.79,6.27,2.71,3.63,3.71,7.82,3.16,12.29-.14,1.19-2.03,1.2-1.88,0,.38-3.1,.08-6.19-1.39-9-1.14-2.19-3.1-3.71-4.4-5.76-.73-1.14-1.09-2.35-1.3-3.58-1.82,.2-3.63,.41-5.44,.67-11.54,1.63-22.67,1.55-34.31,1.85-1.21,.03-1.21-1.85,0-1.88Z"/><path class="cls-42" d="M168.99,722.09c.29,4.54,4.21,7.98,8.75,7.68,4.54-.29,7.98-4.21,7.68-8.75-.29-4.54-4.21-7.98-8.75-7.68-4.54,.29-7.98,4.21-7.68,8.75Z"/><circle class="cls-42" cx="36.73" cy="717.64" r="8.23"/><path class="cls-42" d="M253.45,722.19c.29,4.54,4.21,7.98,8.75,7.68,4.54-.29,7.98-4.21,7.68-8.75-.29-4.54-4.21-7.98-8.75-7.68-4.54,.29-7.98,4.21-7.68,8.75Z"/><path class="cls-25" d="M177.1,490.46c2.42,0,2.43,3.76,0,3.76s-2.43-3.76,0-3.76Z"/><path class="cls-20" d="M100.35,488.98c31.46,33.37,54.8,73.81,67.95,117.74,.35,1.16-1.47,1.66-1.81,.5-13.06-43.63-36.23-83.77-67.47-116.91-.83-.88,.5-2.21,1.33-1.33Z"/><path class="cls-20" d="M34.47,443.91c41.69,32.5,75.96,74.21,99.74,121.42,6.57,13.04,12.3,26.49,17.24,40.23,.41,1.14-1.41,1.63-1.81,.5-17.69-49.29-46.3-94.44-83.3-131.51-10.44-10.46-21.54-20.23-33.2-29.32-.95-.74,.39-2.07,1.33-1.33Z"/><path class="cls-8" d="M298.72,366.01c3.95,3.45,7.31,7.43,10.07,11.88,.64,1.03-.99,1.98-1.62,.95-2.68-4.32-5.95-8.15-9.77-11.5-.91-.8,.42-2.13,1.33-1.33Z"/><path class="cls-8" d="M171.91,373.01c-1.19-6.94-3.56-13.61-4.55-20.6-.98-6.89-1.03-13.81-.34-20.73,.12-1.19,2-1.21,1.88,0-.75,7.6-.62,15.22,.67,22.76,1.15,6.72,3.51,13.19,4.44,19.95,1.88,13.62-3.76,26.49-4.99,39.88-1.22,13.41,5.58,25.29,5.58,38.49,0,6.88-1.91,13.58-1.79,20.48,.09,5,.82,9.94,1.8,14.83-.17-.04-.33-.07-.5-.1-.48-.06-.95-.02-1.42,.06-.73-3.71-1.32-7.45-1.6-11.23-.52-7.07,.88-13.69,1.46-20.68,1.14-13.78-6.45-26.39-5.55-40.21,.94-14.44,7.4-28.28,4.89-42.91Z"/><path class="cls-33" d="M174.75,376.75c-2.28-13.91-8.08-31.96-9.24-37.7-1.21-1.04-2.46-2.02-3.68-3.08-.66-.57-1.18-.87-1.18-1.77,0-1.3,1.62-2.91,2.3-3.94,1.02-1.55,2.08-2.96,3.5-4.17,.51-.43,1.13-.21,1.44,.2,.35-.07,.72,.03,.98,.4,1.74,2.5,3.47,5.01,5.21,7.51,.23,.33,.14,.87-.15,1.14l-4.28,4.06c4.75,10.48,10.58,24.99,13.05,36.23,3.24,14.72,6.62,37.77,6.09,53.72-.32,9.54-3.66,17.48-4.41,16.71-2.91-2.97-5.19-9.05-6.15-14.96-3.21-19.83-2.26-46.82-3.49-54.36Z"/></g><path class="cls-37" d="M612.93,403.42c3.18,1.5,6.5,3.32,9.91,5.11-1.98-1.32-3.95-2.64-5.9-4-2.95-2.04-.33-6.75,2.85-4.88,1.33,.78,2.64,1.57,3.95,2.37,.86-.62,2.05-.83,3.11-.27,.49,.25,.92,.56,1.39,.84-2.63-4.18-4.9-8.46-6.32-12.84-.95-2.92,2.72-4.38,4.72-2.75,3.77,3.09,1.99-3.43-1.95-10.34-1.54-2.71,2.25-5.88,4.43-3.42,1.98,2.23,3.73,4.56,5.33,6.99-1.97-4.42-3.94-8.85-5.91-13.27-1.49-3.35,2.68-5.76,4.88-2.85,1.07,1.42,2.06,2.89,3,4.37,.14-.33,.35-.62,.63-.85-4-5.64-8.84-10.69-14.49-15.14-1.83-1.44-.83-3.57,.86-4.35-4.42-2.89-9.04-5.49-13.6-8.06-3.17-1.78-.32-6.66,2.85-4.88,13.33,7.5,26.43,15.42,34.89,28.58,7.81,12.14,11.65,26.86,14.24,40.92,1.81,9.87-1.1,34.49-12.02,38.84-13.96,5.56-28.33-7.45-39.04-14.47-2.39-1.57,1.72-17.65,3.86-18.01-1.5-.92-3-1.83-4.5-2.75-3.15-1.92-.4-6.41,2.85-4.88Z"/><path class="cls-37" d="M487.45,413.06c4.79-30.06,10.59-64.23,62.75-86.29,3.32-1.41,6.15,3.37,2.85,4.88-13.83,6.31-26.66,17.08-35.95,29.75,.93,.27,1.77,1.08,2.13,2.03,.93,.56,1.56,1.63,1.25,3.04v.03c.22,.08,.44,.18,.64,.31,1.59-.73,3.85,.66,4.03,2.61,1.18-.28,2.53,.08,3.07,1.28,.83,1.84,1.21,3.74,1.31,5.67,.43,.61,.66,1.4,.48,2.3-.16,.81-.35,1.61-.52,2.42,.59,.34,1.04,.86,1.34,1.62,1.84,4.69-1.9,11.51-4.04,16.08,.57-.41,1.15-.78,1.72-1.11,.17-.14,.36-.28,.53-.42,.8-1.01,1.6-2.03,2.37-3.09,.94-1.29,2.42-1.45,3.6-.98,.1-.06,.19-.12,.28-.17,2.44-1.4,5.3,1.41,3.86,3.86-.66,1.13-1.36,2.22-2.06,3.29-.1,1.27-.57,2.73-1.34,4.27,2.31-.96-4.39,31.65-6.18,34.09-6.22,8.49-18.34,17.9-29.64,15.06-12.44-3.13-14.1-30.32-12.47-40.54Z"/><path class="cls-18" d="M540.14,365.46c.09,.23,.19,.47,.28,.71-.02-.28,0-.57,.06-.84-1.64-1.71-.69-4.67,1.92-4.8,1.18-.06,2.35-.07,3.5,0,.15-.2,.38-.33,.72-.31,4.37,.35,8.53,1.37,11.03,5.28,2.49,3.9,3.53,9.37,6.72,12.43,.26,.09,5.97,2.53,13.67,5.8-1.47,4.38-2.87,8.77-4.22,13.18-8.74-5.16-15.35-9.24-15.44-9.33-3.6-3.46-9.07-2.67-12.4-6.75-3.43-4.2-5.65-9.88-7.66-14.86-.45-1.12,1.37-1.61,1.81-.5Z"/><path class="cls-18" d="M539.33,358.11c8.49-.49,19.63,2.3,20.13,12.48,.06,1.21-1.82,1.21-1.88,0-.17-3.39-1.91-5.94-4.41-7.68-1.25,4.12-4.3,11.82-7.53,6.6-.8,.65-1.84,.98-2.9,.65-.36-.11-.63-.32-.87-.56-2.81-.12-5.18-1.94-5.27-5.14-1.21,0-2.32-.68-2.55-2.13-.47-3.03,3.02-4.09,5.29-4.22Z"/><path class="cls-18" d="M493.54,351.09c.64-2.96,2.7-6.13,5.89-7.32,.04-.01,.08-.02,.12-.03,.37-.14,.76-.26,1.18-.33,1.5-.25,2.93,0,4.25,.56,1.14,.38,2.24,.9,3.25,1.42,7.59,3.88,8.32,21.17,7.46,29.79-.68,6.81-.2,16.45-.14,23.29,0,.76-.79,1.12-1.42,.81-.49-.24-.68-.43-.86-.76-.03,.05-.05,.11-.09,.15-.12,.64-.23,1.27-.37,1.91-.22,1.03-1.92,.81-1.85-.25,0-.11,.01-.21,.02-.32-.24,.42-.77,.46-1.18,.22v.03c-.22,.67-.83,.79-1.29,.55-.51,.25-1.27,.08-1.37-.55-.01-.09-.01-.18-.02-.26-.43,.12-.95-.04-1.14-.45-.54,.08-1.18-.31-1.15-.92,.01-.29,.01-.59,.03-.88-.56,.22-1.32-.05-1.3-.83,.15-6.3,.33-12.7-1-18.89-.56-2.62-1.45-5.04-2.5-7.46-2.11-1.69-3.08-4.12-3.93-6.61-1.39-4.03-3.5-8.58-2.57-12.86Z"/><path class="cls-18" d="M496.08,346.25c.31-.25,.8-.26,1.16-.03,.88,.09,1.9,.39,2.93,.8,.28-.31,.71-.49,1.11-.19,.12,.09,.24,.19,.36,.29-.02-.05-.04-.09-.06-.14-.41-.98,.94-1.41,1.57-.92,.16,.13,.3,.26,.46,.39,.14-.18,.36-.3,.58-.35,.24-.46,.81-.76,1.29-.39,.06,.05,.12,.1,.18,.15,.07-.09,.15-.17,.25-.23-1.61-.5-3.36-.55-4.9-.02-1.15,.39-1.64-1.42-.5-1.81,4.78-1.64,10.96,1.14,12.31,6.17,.26,.96,.43,2.37,.07,3.48,.19,.5-.23,1.01-.72,1.15-.18,.16-.39,.29-.64,.39-1.93,.75-2.89-1.68-4.8-1.35-2.76,.47-4.55,1.34-7.39,0-1.74-.83-4.76-2.67-4.85-4.88-.07-1.57,.58-2.29,1.6-2.49Z"/><path class="cls-18" d="M512.92,363.86l.05-2.09c-1.58-2.76-3.84-6.4-3.18-9.23,.39-1.66,1.69-2.38,3.25-1.55,2.39,1.28,4.4,6.14,4.98,8.72,1.04,4.58-2.16,8.55-2.53,13-.1,1.2-1.98,1.21-1.88,0,.04-.49,.12-.98,.22-1.46-.5,.05-1.04-.24-1.02-.89v-.37s-.02-.08-.02-.13c0-2,.06-4,.14-6Z"/><path class="cls-37" d="M500.81,396.27c-.04-.54,.48-1.04,1.04-1-.18-.26-.37-.49-.54-.76-.63-1.05,.95-1.94,1.62-.95,.02,.03,.05,.05,.07,.08,.3-.1,.64-.05,.87,.24,1.4,1.77,3.34,2.85,5.48,3.59,.62,.15,1.26,.25,1.91,.3,.78,.05,1.57,.03,2.34-.03,.46-.03,1.88-.4,3.08-.6,.04-.19,.08-.38,.18-.58,.14-.27,.5-.49,.81-.47,1.16,.1,1.82,.83,1.47,2.01-.07,.25-.27,.45-.5,.57-.16,.14-.37,.21-.62,.19-.37,.08-.74,.16-1.11,.23,.75,.12,1.49,.24,2.19,.37,1.03,.19,.81,1.97-.25,1.85-1.17-.13-2.39-.26-3.62-.41,.21,.05,.41,.11,.62,.16,1.18,.3,.68,2.04-.5,1.81-1.34-.26-2.85-.45-4.37-.69,.31,.67-.21,1.68-1.05,1.34-.08-.03-.14-.07-.22-.11h0s-.07-.03-.1-.05c-1.76-.77-3.35-1.73-4.83-2.83-1.62-.75-3.02-1.81-3.95-3.42-.18-.3-.15-.6-.03-.85Z"/><path class="cls-25" d="M582.33,382.5c1.86,1.15,2.66,2.08,4.68,1.66,.96-.2,1.82-1.05,2.68-1.42,2.37-1.01,4.74-1.39,7.31-1.01,4.81,.71,8.71,3.86,11.96,7.27,4.91,5.15,10.71,7.38,16.87,10.52-1.89-9.08-3.15-18.28-3.56-27.55-.17-3.69-.42-7.73,1.17-11.18,1.64-3.57,5.15-5.8,8.1-8.19,.93-.75,2.27,.57,1.33,1.33-3.13,2.53-6.87,4.87-8.19,8.89-1.26,3.85-.6,8.72-.33,12.69,.56,8.46,1.82,16.83,3.62,25.11,5.38,.22,10.52,1.46,15.41,3.74,1.1,.51,.14,2.13-.95,1.63-3.39-1.58-6.9-2.6-10.53-3.12,4.34,2.53,8.54,5.3,12.58,8.29,.96,.71,.02,2.35-.95,1.63-5.08-3.77-10.38-7.2-15.94-10.21-.48,.21-1.11,.09-1.25-.57,0-.04-.01-.07-.02-.11-5.2-2.67-11.24-4.54-15.63-8.44-5.16-4.59-9.81-11.44-17.81-9.73-2.35,.5-4.22,2.98-6.51,3.08-1.69,.08-3.69-1.89-4.98-2.69-1.03-.64-.08-2.27,.95-1.63Z"/><path class="cls-25" d="M516.81,398.45c.03-1.21,1.91-1.21,1.88,0-.06,2.67-1.49,6.83,.35,8.7,1.69,1.71,3.06,2.53,4.02,4.89,2.31,5.69,1.48,13.2,1.03,19.14-.09,1.2-1.97,1.21-1.88,0,.5-6.59,1.99-17.48-3.71-22.06-1.34-1.07-2.27-1.06-2.63-2.7-.49-2.27,.88-5.66,.93-7.98Z"/><path class="cls-25" d="M577.47,396.3c3.25,1.79,6.78,3.86,8.28,7.45,2.19,5.25-.86,11.12,3.14,15.89,3.31,3.94,9.04,6.26,13.53,8.52,5.88,2.96,11.91,5.59,18.06,7.96,1.12,.43,.63,2.25-.5,1.82-10.08-3.88-21.72-8.08-30.21-14.9-2.57-2.06-4.37-4.52-4.92-7.81-.58-3.48,.55-7.16-.85-10.49-1.4-3.35-4.42-5.12-7.48-6.81-1.06-.58-.11-2.21,.95-1.63Z"/><rect class="cls-46" x="325.11" y="388.42" width="109.16" height="82.81" rx="9.56" ry="9.56" transform="translate(759.38 859.65) rotate(-180)"/><circle class="cls-9" cx="379.53" cy="428.49" r="6.59"/><path class="cls-37" d="M556.58,721.52c2.12-3.06,4.14-5.82,6.35-9.41,.88-1.43,1.76-2.47,2.55-6.48,0-2.72,.32-8.52,.44-9.92,.11-1.39,.8-1.36,2.86-1.33,4.95,.06,9.67,.16,14.62,.28,.06,0,.37,.08,.41,.1,1.2,.29,1.27,1.65,1.29,3.12,.09,5.99,.16,4.19-.03,10.17-.26,8.12-1.32,7.65-3.91,10.41-1.37,1.46-2.7,2.99-4,5.06-1.89,3.01-3.73,6.65-5.43,9.03-3.87,5.43-13.35,4.26-16.81,2.73-6.12-2.71-.26-11.01,1.65-13.76Z"/><path class="cls-9" d="M555.23,723.58c4.52-2.22,9.19-4.18,11.07-9.22,2.31-6.2,3.05-13.33,3.36-19.94-.29,0-.57-.01-.86-.01-.4,0-.73,0-1.04,0-.28,5.54-1.01,11.03-2.39,16.41-.97,3.79-2.44,6.49-5.97,8.43-.63,.35-1.28,.68-1.92,1.02-.3,.43-.6,.85-.9,1.29-.35,.51-.84,1.21-1.37,2.04Zm18.75-10.24c-2.72,4.89-3.36,10.08-2.06,15.5,.28,1.18,2.1,.68,1.82-.5-.83-3.44-.9-6.88,.18-10.28,.83-2.61,2.5-4.64,3.53-7.13,2.19-5.31,1.5-10.97,3.93-16.28-.68-.02-1.36-.03-2.03-.05-2.54,6.14-2.08,12.82-5.37,18.74Z"/><path class="cls-9" d="M569,698.84c2.82,.23,5.64,.35,8.48,.36,1.21,0,1.21,1.89,0,1.88-2.83,0-5.65-.13-8.48-.36-1.2-.1-1.21-1.98,0-1.88Z"/><path class="cls-9" d="M569.01,703.62c2.71,.28,5.43,.4,8.15,.36,1.21-.02,1.21,1.86,0,1.88-2.73,.04-5.44-.08-8.15-.36-1.19-.12-1.21-2.01,0-1.88Z"/><path class="cls-9" d="M569.75,732.22c2.54-2.35,5.16-9.28,7.12-12.12,2.07-3,4.68-5.11,7.88-7.58-.51,3.69-1.6,3.92-3.59,6.04-1.37,1.46-2.7,2.99-4,5.06-1.89,3.01-3.73,6.65-5.43,9.03-3.87,5.43-13.35,4.26-16.81,2.73-1.6-.71-2.37-1.81-2.61-3.08,4.26,2.02,13.71,3.36,17.44-.08Z"/><path class="cls-42" d="M563.28,567.83c-.25-9.04-2.26-19.81,1.82-28.24,.53-1.09,2.15-.14,1.63,.95-2.46,5.1-2.04,10.68-1.88,16.18,.15,5.25,.3,10.5,.45,15.74,.29,10.5,.54,20.99,.7,31.49,.33,20.99,.27,41.99-.56,62.97-.05,1.21-1.93,1.21-1.88,0,.88-22.22,.89-44.45,.5-66.68-.19-10.81-.47-21.61-.77-32.42Z"/><path class="cls-42" d="M531.8,554.05c4.22,26.55,8.44,53.1,12.66,79.66,.19,1.18-1.63,1.7-1.81,.5-4.22-26.55-8.44-53.1-12.66-79.66-.19-1.18,1.62-1.69,1.82-.5Z"/><path class="cls-42" d="M596.29,553.98c.14-1.19,2.03-1.2,1.88,0-2.82,23.32-5.64,46.63-8.46,69.95-.14,1.19-2.03,1.2-1.88,0,2.82-23.32,5.64-46.63,8.46-69.95Z"/><path class="cls-42" d="M518.4,532.57c35.45,.16,70.9,.16,106.35,0,1.21,0,1.25,1.88,.03,1.88-35.45,.17-70.9,.17-106.35,0-1.21,0-1.25-1.89-.03-1.88Z"/><path class="cls-25" d="M492.28,406.84c1.62-1.26,3.52-1.86,5.24-2.91,3.39-2.06,3.03-5.84,3.48-9.36,.15-1.19,2.04-1.2,1.88,0-.38,2.95-.02,7.54-2.44,9.74-3.79,3.46-10.06,3.48-10.39,10.02-.06,1.21-1.94,1.21-1.88,0,.16-3.14,1.63-5.57,4.1-7.5Z"/></g><g><path class="cls-32" d="M148.42,299.03s35.26-3.04,48.32-55.1c0,0,3.56-19.94-5.55-24.06s-36.43-7.05-51.11,15.87c-13.19,20.6-12.4,26.38,8.34,63.29Z"/><path class="cls-39" d="M201.86,250.48s2.04-23.28-5.93-25.03l.6,19.32,5.33,5.72Z"/><path class="cls-39" d="M156.93,269.58s23.12-14.97,32.17-36c0,0-21.13,30.31-32.17,36Z"/><path class="cls-39" d="M136.1,265.2s34.36-13.5,52.99-40.36c0,0-37.1,36-52.99,40.36Z"/><path class="cls-39" d="M149.19,286.76s31.17-19.79,44.36-49.7c0,0-29.58,42.39-44.36,49.7Z"/></g></g><g><path class="cls-36" d="M362.26,323.61c.04,2.12-1.18,30.63-1.97,32.3-.79,1.66-7.16,2.93-11.7,2.53-6.49-.57-9.05-2.13-9.87-3.17-.83-1.04-2.04-29.54-2.19-31.39-.12-1.47,25.7-2.02,25.74-.27Z"/><path class="cls-36" d="M339.26,353.69c-2.09,0-4.12-.98-5.81-2.82-1.8-1.96-3.01-4.69-3.4-7.69-.84-6.39,2.32-12.08,7.04-12.7,4.72-.62,9.24,4.07,10.08,10.46,.84,6.39-2.32,12.08-7.04,12.7-.29,.04-.58,.06-.87,.06Zm-1.32-20.39c-.16,0-.31,.01-.47,.03-3.09,.41-5.17,4.74-4.55,9.47,.32,2.42,1.26,4.59,2.66,6.11,1.27,1.38,2.76,2.05,4.18,1.86,3.09-.41,5.17-4.74,4.55-9.47-.59-4.49-3.44-8-6.37-8Z"/></g><g><path class="cls-34" d="M422.06,447.74c.04,2.12-1.18,30.63-1.97,32.3-.79,1.66-7.16,2.93-11.7,2.53-6.49-.57-9.05-2.13-9.87-3.17-.83-1.04-2.04-29.54-2.19-31.39-.12-1.47,25.7-2.02,25.74-.27Z"/><path class="cls-34" d="M399.06,477.82c-2.09,0-4.12-.98-5.81-2.82-1.8-1.96-3.01-4.69-3.4-7.69-.84-6.39,2.32-12.08,7.04-12.7,4.72-.62,9.24,4.07,10.08,10.46,.84,6.39-2.32,12.08-7.04,12.7-.29,.04-.58,.06-.87,.06Zm-1.32-20.39c-.16,0-.31,.01-.47,.03-3.09,.41-5.17,4.74-4.55,9.47,.32,2.42,1.26,4.59,2.66,6.11,1.27,1.38,2.76,2.05,4.18,1.86,3.09-.41,5.17-4.74,4.55-9.47-.59-4.49-3.44-8-6.37-8Z"/></g><g><path class="cls-42" d="M691.03,449.93c-.04,2.12,1.18,30.63,1.97,32.3,.79,1.66,7.16,2.93,11.7,2.53,6.49-.57,9.05-2.13,9.87-3.17s2.04-29.54,2.19-31.39c.12-1.47-25.7-2.02-25.74-.27Z"/><path class="cls-42" d="M713.16,479.96c-4.72-.62-7.88-6.32-7.04-12.7,.84-6.38,5.37-11.07,10.08-10.46,4.72,.62,7.88,6.32,7.04,12.7-.39,3-1.6,5.73-3.4,7.69-1.69,1.84-3.73,2.82-5.81,2.82-.29,0-.58-.02-.87-.06Zm-4.18-12.33c-.62,4.73,1.46,9.06,4.55,9.47,1.42,.19,2.91-.47,4.18-1.86,1.4-1.52,2.35-3.7,2.66-6.11,.62-4.73-1.47-9.06-4.55-9.47-.16-.02-.31-.03-.47-.03-2.93,0-5.78,3.52-6.37,8Z"/></g><path class="cls-8" d="M93.31,349.2s19.69,20.72,14.51,60.58c0,0,.77,2.36,1.59,0,.82-2.36,6.7-33.8-14.7-61.9,0,0-3.52-1.31-1.4,1.32Z"/><path class="cls-8" d="M223.75,423.85s5.37-31.03,2.08-44.77c0,0,.86-1.93,1.45,0,0,0,2.49,23.49-2.58,45.91l-.96-1.15Z"/><path class="cls-8" d="M140.38,324.41s5.16,4.12,16.71,7.66c0,0,6.47,1.1,5.41,1.93,0,0-13.39-.58-22.12-9.59Z"/><path class="cls-8" d="M183.85,329.27s-2.85,2.53-7.93,4.72c0,0,.61,.43-.15,1.14,0,0,7.07-2.94,8.07-5.86Z"/><path class="cls-8" d="M100.45,431.63s-6.4-2.56-17.27,0c0,0-.93-.62,0-1.14,.93-.52,13.3-2.34,17.59,0l-.31,1.15Z"/><g><path class="cls-10" d="M387.44,422.7c.06,2.05,1.36,3.79,3.13,4.72,2.29,1.2,4.77,1.74,6.95,3.23,1.49,1.02,2.79,2.24,3.92,3.61-.01,0-.03-.01-.04-.02-1.42-.44-3.64-.52-3.53,1.52,.15,2.88,4.13,3.39,5.85,4.89,2.54,2.21,3.72,6.1,5.08,9.07,.17,.36,.71,.16,.72-.19,.04-3.66-1.53-8.74-3.44-11.84-.85-1.39-2.17-2.38-3.13-3.68-.96-1.3-1.42-2.83-2.12-4.27-1.93-4.01-6.16-9.11-10.97-9.49-1.68-.13-2.48,.82-2.43,2.45Z"/><path class="cls-10" d="M403.25,427.72c-.22,.73,.31,1.45,.81,2.02,1.45,1.68,2.45,3.22,3.4,5.25,1.52,3.25,4.27,1.17,3.12-1.64-.92-2.24-2.98-6.52-5.83-6.57-.27,0-.55,.06-.79,.17-.33,.16-.6,.43-.71,.78Z"/></g><g><path class="cls-10" d="M684.78,425.63c.06,2.05,1.36,3.79,3.13,4.72,2.29,1.2,4.77,1.74,6.95,3.23,1.49,1.02,2.79,2.24,3.92,3.61-.01,0-.03-.01-.04-.02-1.42-.44-3.64-.52-3.53,1.52,.15,2.88,4.13,3.39,5.85,4.89,2.54,2.21,3.72,6.1,5.08,9.07,.17,.36,.71,.16,.72-.19,.04-3.66-1.53-8.74-3.44-11.84-.85-1.39-2.17-2.38-3.13-3.68-.96-1.3-1.42-2.83-2.12-4.27-1.93-4.01-6.16-9.11-10.97-9.49-1.68-.13-2.48,.82-2.43,2.45Z"/><path class="cls-10" d="M700.58,430.64c-.22,.73,.31,1.45,.81,2.02,1.45,1.68,2.45,3.22,3.4,5.25,1.52,3.25,4.27,1.17,3.12-1.64-.92-2.24-2.98-6.52-5.83-6.57-.27,0-.55,.06-.79,.17-.33,.16-.6,.43-.71,.78Z"/></g></g></g></g></svg>