<?xml version="1.0" encoding="UTF-8"?><svg id="Layer_2" xmlns="http://www.w3.org/2000/svg" xmlns:xlink="http://www.w3.org/1999/xlink" viewBox="0 0 1170.07 829.69"><defs><style>.cls-1{fill:none;}.cls-2{clip-path:url(#clippath);}.cls-3{fill:#f7a186;}.cls-4{fill:#0476a8;}.cls-5{fill:#017c33;}.cls-6{fill:#eeeceb;}.cls-7{fill:#ed7b61;}.cls-8{fill:#fff;}.cls-9{fill:#ee805d;}.cls-10{fill:#e2e3e4;}.cls-11{fill:#f0cfb6;}.cls-12{fill:#b7b9bb;}.cls-13{fill:#332723;}.cls-14{fill:#324466;}.cls-15{fill:#cee3f2;}.cls-16{fill:#d29b76;}.cls-17{fill:#d4c8c3;}.cls-18{fill:#dcab87;}.cls-19{fill:#252730;}.cls-20{fill:#414141;}.cls-21{fill:#362d29;}.cls-22{fill:#a2a4a7;}.cls-23{fill:#26a7df;}.cls-24{fill:#2aa4dc;}.cls-25{fill:#5c6d8e;}.cls-26{fill:#354867;}.cls-27{fill:#38af4a;}.cls-28{fill:#4b4848;}.cls-29{clip-path:url(#clippath-1);}</style><clipPath id="clippath"><rect class="cls-1" width="1141.48" height="788"/></clipPath><clipPath id="clippath-1"><rect class="cls-1" x=".1" y="163" width="1169.96" height="618.35"/></clipPath></defs><g id="Layer_1-2"><g class="cls-2"><g class="cls-29"><g><g><path class="cls-12" d="M937.85,788.46c0,7.52-19.15,14.55-52.62,20.62-7.53,1.36-15.79,2.68-24.72,3.94-20.02,2.83-43.43,5.37-69.58,7.57-3.78,.32-7.61,.64-11.51,.93-14.11,1.11-28.97,2.12-44.46,3.02-16.91,.98-34.59,1.83-52.92,2.55-18.98,.75-38.66,1.35-58.89,1.78-3.26,.07-6.54,.12-9.83,.19-12.22,.22-24.64,.39-37.23,.49-10.42,.1-20.94,.14-31.56,.14-6.66,0-13.27-.01-19.83-.06-23.17-.11-45.82-.44-67.76-.97-3.39-.08-6.76-.17-10.11-.26-28.11-.75-55.03-1.82-80.35-3.16-10.82-.58-21.35-1.21-31.56-1.89-18.7-1.23-36.32-2.64-52.71-4.19-19.64-1.83-37.51-3.87-53.29-6.1-21.9-3.08-39.8-6.49-52.86-10.14-2.46-.69-4.75-1.39-6.86-2.09-11.67-3.9-17.97-8.06-17.97-12.36,0-7.21,17.65-13.98,48.68-19.88,6.4-1.22,13.37-2.4,20.88-3.54,24.13-3.65,53.77-6.88,87.65-9.56,16.82-1.32,34.68-2.51,53.43-3.54,20.97-1.15,43.05-2.12,66.02-2.87,6.08-.19,12.22-.37,18.42-.54,18.65-.5,37.84-.86,57.46-1.08,4.1-.03,8.22-.07,12.37-.1,9.39-.07,18.84-.11,28.39-.11,14.93,0,29.66,.08,44.17,.25,13.33,.17,26.46,.39,39.34,.68,9.02,.21,17.91,.44,26.68,.71,4.25,.12,8.47,.26,12.65,.4,22.67,.79,44.43,1.78,65.08,2.95,14.09,.8,27.68,1.69,40.67,2.68,13.93,1.04,27.18,2.18,39.67,3.4,3.75,.36,7.42,.74,11.01,1.12,24.13,2.54,45.08,5.42,62.23,8.56,5.49,1,10.58,2.03,15.26,3.08,23.48,5.29,36.58,11.17,36.58,17.38Z"/><g><path class="cls-10" d="M901.27,771.08c-1.99,2.71-3.84,5.54-5.39,8.63-4.21,8.38-6.95,17.33-9.71,26.19-.32,1.04-.63,2.09-.94,3.18-7.53,1.36-15.79,2.68-24.72,3.94,.77-1.28,1.52-2.55,2.27-3.83,5.5-9.48,10.54-19.21,15.94-28.75,2.35-4.15,4.72-8.37,7.29-12.44,5.49,1,10.58,2.03,15.26,3.08Z"/><path class="cls-10" d="M823.78,759.44c-1.74,4.55-4.23,8.93-6.58,13.21-5.59,10.2-11.19,20.39-16.76,30.59l-8.85,16.15c-.22,.4-.44,.8-.65,1.21-3.78,.32-7.61,.64-11.51,.93,1.99-3.09,3.93-6.22,5.76-9.39,4.46-7.76,8.2-15.84,11.92-23.92,4.69-10.2,9.47-20.48,15.67-29.9,3.75,.36,7.42,.74,11.01,1.12Z"/><path class="cls-10" d="M773.11,754.91c-.43,3.37-1.08,6.7-2.21,9.89-4.55,12.72-15.29,22.16-22.56,33.41-5.37,8.31-8.35,17.85-13.37,26.33-16.91,.98-34.59,1.83-52.92,2.55,1.42-1.43,2.85-2.83,4.28-4.22,8.93-8.77,16.45-17.37,20.5-29.08,2.14-6.19,4.34-12.08,7.89-17.7,3.5-5.52,7.48-10.81,11.48-16.02,2.01-2.62,4.07-5.24,6.24-7.84,14.09,.8,27.68,1.69,40.67,2.68Z"/><path class="cls-10" d="M667.36,749.28c-1.93,4.41-4.09,8.77-6.32,13.08-6.14,11.86-12.43,23.67-18.64,35.49-5.18,9.86-10.93,22.03-19.26,31.02-3.26,.07-6.54,.12-9.83,.19,1-1.47,1.96-2.97,2.89-4.49,9.36-15.39,15.33-32.3,22.84-48.49,3.98-8.57,8.44-16.95,13.92-24.78,.58-.82,1.15-1.62,1.74-2.43,4.25,.12,8.47,.26,12.65,.4Z"/><path class="cls-10" d="M628.03,748.17c-3.41,6.58-7.94,12.71-12.65,18.37-10.42,12.56-21.9,24.22-27.82,39.43-2.67,6.87-4.81,13.97-8.99,20.23-.77,1.15-1.59,2.28-2.49,3.36-10.42,.1-20.94,.14-31.56,.14-6.66,0-13.27-.01-19.83-.06,4.12-4.06,8.18-8.2,11.86-12.61,6.07-7.26,11.2-15.15,16.31-23.02,10.68-16.48,22.47-32.09,35.83-46.52,13.33,.17,26.46,.39,39.34,.68Z"/><path class="cls-10" d="M516.13,747.35c-2.42,3.3-4.93,6.55-7.47,9.77-15.2,19.23-31.65,37.58-43.89,58.7-2.35,4.05-4.93,8.49-7.85,12.85-3.39-.08-6.76-.17-10.11-.26,1.67-1.47,3.23-3.05,4.66-4.81,3.91-4.79,6.89-10.16,9.98-15.41,6.76-11.49,14.27-22.57,22.09-33.43,6.61-9.17,13.27-18.35,20.22-27.29,4.1-.03,8.22-.07,12.37-.1Z"/><path class="cls-10" d="M446.3,748.53c-12.09,10.28-23.82,20.93-35.14,31.95-11.08,10.77-21.46,22.1-32.15,33.2-3.91,4.05-8.06,8.03-12.54,11.56-10.82-.58-21.35-1.21-31.56-1.89,4.07-5.76,8.2-11.49,13.02-16.73,5.56-6.09,12.13-10.95,19.15-15.47,8.44-5.44,16.37-10.85,23.37-17.91,6.6-6.62,13-12.01,21.69-16.08,5.47-2.57,10.73-5.09,15.75-8.09,6.08-.19,12.22-.37,18.42-.54Z"/><path class="cls-10" d="M361.87,751.95c-6.17,6.71-12.09,13.69-19.26,19.53-7.6,6.17-16.26,11-24.61,16.19-8.75,5.44-16.79,11.57-24.07,18.66-4.13,4.02-7.84,8.52-11.73,12.83-19.64-1.83-37.51-3.87-53.29-6.1,13.31-6.65,26.99-12.68,39.68-20.38,8.22-4.99,16.01-10.71,22.64-17.54,6.07-6.26,10.61-13.87,17.21-19.66,16.82-1.32,34.68-2.51,53.43-3.54Z"/><path class="cls-10" d="M220.78,765.04c-.61,.49-1.2,.98-1.79,1.48-7.98,6.73-15.98,13.47-23.98,20.2-4,3.37-8,6.74-12,10.11-2.32,1.96-4.6,4.08-6.97,6.08-2.46-.69-4.75-1.39-6.86-2.09,7.1-7.24,13.84-14.8,20.72-21.98,3.31-3.44,6.63-6.87,9.99-10.27,6.4-1.22,13.37-2.4,20.88-3.54Z"/></g></g><g><path class="cls-20" d="M842.57,675.7s-6.12,71.48-6.13,71.74c-.1,1.55-.44,3.86-2.17,4.39-1.4,.43-3.42,.32-4.61-1.09-1.65-1.96-.92-5.69-.84-8.02l.33-9.9c.33-9.63,.48-53.25,.48-53.25l12.94-3.87Z"/><path class="cls-20" d="M1043.36,675.46s.5,71.71,.5,71.97c-.02,1.56,.14,3.88,1.82,4.53,1.37,.53,3.39,.56,4.69-.77,1.8-1.84,1.36-5.61,1.46-7.94,.15-3.3,.29-6.6,.44-9.9,.43-9.62,3.7-53.13,3.7-53.13l-12.6-4.75Z"/><polygon class="cls-23" points="1058.77 720.36 822.37 720.36 835.65 183.93 1072.05 183.93 1058.77 720.36"/><g><path class="cls-14" d="M1054.24,714.57h-225.58l1.09-24.65c.02-.38,.36-.68,.77-.67,.41,.02,.72,.34,.71,.72l-1.03,23.21h222.6l7.15-352.04-221.54-2.07c-.2,5.89-1.64,48-1.64,49.59,0,.38-.33,.69-.74,.69s-.74-.31-.74-.69c0-1.73,1.59-48.33,1.66-50.31l.02-.68,224.48,2.09v.7l-7.2,354.1Z"/><path class="cls-14" d="M1058.77,424.28h-51.23c-.41,0-.74-.31-.74-.69s.33-.69,.74-.69h51.23c.41,0,.74,.31,.74,.69s-.33,.69-.74,.69Z"/><path class="cls-14" d="M1058.77,483.24h-51.23c-.41,0-.74-.31-.74-.69s.33-.69,.74-.69h51.23c.41,0,.74,.31,.74,.69s-.33,.69-.74,.69Z"/><path class="cls-14" d="M1054.51,661.63h-51.23c-.41,0-.74-.31-.74-.69s.33-.69,.74-.69h51.23c.41,0,.74,.31,.74,.69s-.33,.69-.74,.69Z"/><path class="cls-14" d="M1054.51,610.01h-51.23c-.41,0-.74-.31-.74-.69s.33-.69,.74-.69h51.23c.41,0,.74,.31,.74,.69s-.33,.69-.74,.69Z"/><path class="cls-14" d="M971.29,370.52h-44.11c-2.1,0-3.81-1.61-3.81-3.58s1.71-3.58,3.81-3.58h44.11c2.1,0,3.81,1.61,3.81,3.58s-1.71,3.58-3.81,3.58Zm-44.11-5.78c-1.29,0-2.34,.98-2.34,2.2s1.05,2.2,2.34,2.2h44.11c1.29,0,2.34-.98,2.34-2.2s-1.05-2.2-2.34-2.2h-44.11Z"/></g><polygon class="cls-8" points="1063.37 269.02 840.26 269.02 842.39 189.3 1065.49 189.3 1063.37 269.02"/><polygon class="cls-8" points="1060.78 353.99 837.68 353.99 839.8 274.28 1062.91 274.28 1060.78 353.99"/><path class="cls-24" d="M929.8,236.19c0,18.13-12.79,32.82-39.84,32.82-20.38,0-33.94-14.69-33.94-32.82,0-4.63,1.28-9.06,3.53-13.05,.25-.46,.52-.9,.8-1.35,2.04-3.25,4.71-6.19,7.85-8.73h52.37c2.41,2.41,4.37,5.2,5.86,8.25,.24,.46,.46,.92,.65,1.39,1.79,4.12,2.73,8.68,2.73,13.48Z"/><polygon class="cls-15" points="935.26 231.96 936.92 243.75 928.07 269.02 954.44 269.02 949.65 244.1 952.41 231.96 935.26 231.96"/><polygon class="cls-11" points="920.87 353.99 1039.46 353.99 1042.25 344.68 923.65 344.68 920.87 353.99"/><polygon class="cls-27" points="964.77 344.68 1046.66 344.68 1048.81 337.57 966.93 337.57 964.77 344.68"/><polygon class="cls-25" points="961.82 337.57 1043.71 337.57 1047.23 326.04 965.34 326.04 961.82 337.57"/><path class="cls-8" d="M868.85,223.46c-3.1-.11-6.21-.15-9.31-.33,.25-.46,.52-.9,.8-1.35,2.83,.18,5.7,.19,8.51,.29,.94,.04,.94,1.43,0,1.39Z"/><path class="cls-8" d="M888.04,221.9h-8.49c-.95,0-.95,1.39,0,1.39h8.49c.95,0,.95-1.39,0-1.39Z"/><path class="cls-8" d="M907.41,221.93c-3.14-.08-6.27-.16-9.41-.25-.95-.02-.95,1.36,0,1.39,3.14,.08,6.27,.16,9.41,.25,.95,.02,.95-1.36,0-1.39Z"/><path class="cls-8" d="M927.07,222.7c-3.05-.04-6.09-.08-9.15-.14-.94-.01-.94-1.4,0-1.39,2.83,.06,5.67,.1,8.5,.14,.24,.46,.46,.92,.65,1.39Z"/><polygon class="cls-7" points="983.71 269.02 984.88 237.57 1050.79 237.57 1050.12 269.02 983.71 269.02"/></g><g><path class="cls-13" d="M100.83,660.58s-28.77,82.25-28.87,82.55c-.59,1.8-1.68,4.42-3.87,4.58-1.78,.13-4.11-.54-5.08-2.52-1.34-2.74,.64-6.92,1.44-9.64,1.13-3.84,2.26-7.69,3.38-11.53,3.29-11.21,16.64-62.36,16.64-62.36l16.35-1.08Z"/><path class="cls-13" d="M861.14,655.56s16.14,85.25,16.2,85.55c.39,1.84,.74,4.64-1.1,5.75-1.5,.91-3.89,1.36-5.74,.05-2.57-1.82-2.92-6.38-3.59-9.13-.94-3.89-1.89-7.78-2.83-11.66-2.75-11.34-16.78-62.33-16.78-62.33l13.85-8.24Z"/><path class="cls-5" d="M112.43,531.9s13.6-133.25,29.5-137.72c10.27-2.89,312.49-3.62,541.32-1.93,125.31,.92,198.1,.46,209.15,5.39,9.71,4.33,2.36,27.54-.51,56.1-3.7,36.75-9.71,77.99-9.71,77.99l-2.04,97.24-792.27,10.29,24.55-107.36Z"/><path class="cls-5" d="M63.03,602.27H909.41l-11.29,89.96c-.32,2.53-2.6,4.44-5.31,4.44H60.57c-3.13,0-5.58-2.51-5.33-5.44l7.79-88.96Z"/><path class="cls-5" d="M63.03,602.27s6.11-93.21,12.65-100.73c2.87-3.3,38.31-2.84,42.27,3.64,3.97,6.47-13.33,115.3-13.33,115.3l-41.59-18.2Z"/><path class="cls-5" d="M865.39,602.27s8.94-59.95,15.96-95.48c2.01-10.17,35.16-6.17,38.16-1.39,6.54,10.4-12.53,115.07-12.53,115.07l-41.59-18.2Z"/><path class="cls-28" d="M109.21,602.97c-.4,0-.74-.31-.74-.69,0-.38,.33-.7,.73-.7l758.52-5.11h0c.4,0,.74,.31,.74,.69,0,.38-.33,.7-.73,.7l-758.52,5.11h0Z"/><path class="cls-28" d="M100.6,691.53s-.04,0-.06,0c-.4-.03-.71-.37-.67-.75l14.26-164.8c.03-.38,.37-.65,.8-.63,.41,.03,.71,.37,.67,.75l-14.26,164.8c-.03,.36-.35,.64-.73,.64Z"/><path class="cls-28" d="M857.94,696.03s-.07,0-.1,0c-.4-.05-.69-.4-.63-.78l26.12-183.4c.05-.38,.43-.67,.83-.59,.4,.05,.69,.4,.63,.78l-26.12,183.4c-.05,.35-.37,.6-.73,.6Z"/><path class="cls-28" d="M860.96,671.01H102.43c-.41,0-.74-.31-.74-.69s.33-.69,.74-.69H860.96c.41,0,.74,.31,.74,.69s-.33,.69-.74,.69Z"/></g><g><polygon class="cls-22" points="689.87 341.95 333.96 341.95 353.01 178.92 708.92 178.92 689.87 341.95"/><polygon class="cls-8" points="699.79 186.67 697.65 204.57 696.12 217.43 688.56 280.87 682.1 334.99 342.68 334.99 348.52 285.96 354.04 239.77 360.37 186.67 699.79 186.67"/><path class="cls-6" d="M443.13,186.67c-4.4,5.54-7.66,11.72-10.79,17.97-6.46,12.89-13.77,28.02-29.07,33.38-8.44,2.95-16.38,.49-24.82-.96-7.66-1.3-14.96-.26-22.3,2.01-.71,.22-1.42,.44-2.11,.69l-5.52,46.2c.34-.21,.69-.42,1.03-.61,13.87-7.88,29.57-12.38,43.78-19.67,12.2-6.26,23.86-14.28,31.56-25.36,8.97-12.93,10.27-28.87,18.12-42.27,2.39-4.08,5.36-7.85,8.66-11.38h-8.56Z"/><path class="cls-6" d="M596.97,186.67c-3.01,.86-6.02,1.75-9.02,2.65-12.16,3.66-24.26,7.8-35.46,13.62-11.55,5.99-21.09,13.82-29.66,23.21-8.22,9-16.19,17.66-27.52,23.28-11.44,5.66-23.61,9.48-32.33,18.95-8.29,8.99-14.14,19.39-23.67,27.44-9.84,8.3-21.53,12.99-33.06,18.77-9.05,4.55-18.34,11.21-21.74,20.39h99.89c.5-.5,1-1,1.49-1.5,9.36-9.56,17.78-19.99,28.32-28.47,5.11-4.09,10.68-7.7,16.85-10.25,6.88-2.84,14.43-4.06,19.86-9.31,4.91-4.73,7.7-10.99,10.92-16.76,3.16-5.66,7.02-10.88,11.79-15.44,4.66-4.47,10.06-8.28,15.94-11.22,6.12-3.05,12.76-5.01,18.98-7.89,6.99-3.26,12.23-7.73,15.57-14.44,2.92-5.91,4.66-12.31,8.77-17.67,5.45-7.13,13.4-11.89,21.9-15.36h-57.82Z"/><path class="cls-8" d="M606.22,199.73c-7.61-1.8-21.17,3.17-26.08,4.9-10.56,3.72-19.75,9.83-26.37,18.48-2.03,2.66-3.79,6.41-1.67,9.01,1.36,1.67,3.82,2.11,6.06,2.19,6.98,.26,13.81-1.75,20.34-4.06,11.25-3.99,22.53-9.27,29.88-18.22,2.25-2.74,4.11-6.57,2.2-9.54-.93-1.44-2.46-2.31-4.36-2.76Z"/><path class="cls-8" d="M554.37,245.45c-5.88,.52-14.07,4.49-18.12,8.43-3.03,2.94-7.19,14.11,.81,13.84,9.14-.3,16.89-7.94,20.84-15.09,.78-1.42,1.47-3.02,1.13-4.59-.47-2.16-2.29-2.79-4.65-2.58Z"/><path class="cls-8" d="M494.91,297.46c-1.66-1.01-3.27-1.49-4.29-3.3-.78-1.39-.93-2.98-1.09-4.52-.25-2.29-.22-4.78-1.37-6.88-2.44-4.45-7.96-3.82-12.15-2.18-8.74,3.42-16.35,8.98-23.3,15.23-3.96,2.57-7.82,5.27-11.53,8.16-3.68,2.87-10.26,7.38-7.52,12.71,2.49,4.85,11.47,3.18,15.81,2.35,4.18-.8,8.3-1.99,12.57-2.31,4.22-.32,8.46,.32,12.68-.07,6.96-.64,12.84-4.47,18.04-8.6,3.53-2.8,7.36-7.43,2.15-10.59Z"/><path class="cls-6" d="M673.56,224.44c-5.68,5.37-11.5,10.6-18.12,14.93-6.17,4.02-12.84,7.35-19.63,10.36-13.65,6.06-27.95,10.82-41.22,17.65-13.53,6.95-24.5,16.11-32.55,28.55-5.16,7.96-9.4,16.44-15.14,24.07-4.22,5.6-9.21,10.63-14.8,15h13.99c2.44-3.16,3.41-7.53,5.22-11,7.19-13.69,19.27-24.43,31.64-34.03,6.94-5.38,13.99-10.74,21.4-15.52,7.41-4.77,15.41-8.56,23.49-12.18,8.06-3.59,16.2-7.03,23.92-11.24,7.45-4.05,14.45-8.82,21.12-13.93,7.5-5.74,14.58-11.94,21.59-18.2,.55-.49,1.09-.97,1.65-1.46l1.53-12.86c-9.02,5.33-16.56,12.75-24.1,19.87Z"/><path class="cls-6" d="M684.98,284.05c-9.71,9.21-19.24,18.6-28.86,27.9-5.24,5.06-10.3,10.88-16.48,14.96-6.04,3.97-13.59,5.2-20.7,6.38-4.16,.69-8.34,1.22-12.54,1.6-.49,.04-.96,.08-1.45,.11h77.16l6.46-54.12c-1.25,1.03-2.46,2.11-3.59,3.18Z"/><path class="cls-6" d="M637.36,288.61c-.21-.96-.63-1.85-1.33-2.63-1.53-1.7-4.02-2.31-6.38-2.58-17.98-2.03-35.86,12.13-45.96,24.74-2.27,2.83-4.39,6.04-4.42,9.58,0,.76,.1,1.56,.55,2.19,1.58,2.22,5.21,.68,7.56-.82,5.89-3.75,12.76-6.14,19.83-6.91,6.49-.71,13.47-.16,19.11-3.26,5.03-2.77,7.97-7.96,9.97-13.11,.88-2.28,1.57-4.92,1.07-7.21Z"/><path class="cls-6" d="M657.05,260.4c-2.57,.6-4.86,2.32-6.37,4.42-2.35,3.29-6.04,13.86,.56,15.57,2.11,.55,4.2-.84,5.8-2.23,2.47-2.15,4.69-4.55,6.63-7.14,1.08-1.44,2.1-3.04,2.17-4.8,.14-3.22-3.21-5.95-6.64-6.03-.73-.02-1.45,.06-2.15,.22Z"/><path class="cls-6" d="M518.22,198.58c-1.59-3.43-6.5-4.64-10.65-5.07-7.75-.8-15.56-1.07-23.35-.79-5.07,.18-10.46,.7-14.48,3.61-3.68,2.66-5.59,6.87-7.95,10.63-3.45,5.51-42.79,46-19.07,47.4,4.4,.26,8.44-2.21,11.73-4.96,10.1-8.44,16.76-20.53,28.42-26.95,10.79-5.93,25.17-6.6,33.14-15.64,1.81-2.06,3.22-4.76,2.52-7.35-.08-.31-.19-.6-.32-.87Z"/><path class="cls-6" d="M430.21,265.7c-.71-.76-1.87-1.12-2.96-1.32-11.91-2.15-21.89,7.84-24.21,18.02-.36,1.56-.5,3.35,.55,4.61,1.3,1.56,3.79,1.57,5.86,1.21,10.17-1.77,18.86-9.57,21.21-19.04,.24-.99,.41-2.08-.08-2.98-.1-.19-.22-.35-.37-.5Z"/><path class="cls-6" d="M398.65,202.22c-.67-.13-1.4-.03-2.08,.12-4.7,1.02-10.19,4.18-12.55,8.22-1.3,2.23-.99,5.51,1.37,6.75,1.62,.85,3.65,.51,5.37-.13,4.72-1.76,8.44-5.72,9.7-10.34,.43-1.58,.38-3.63-1.15-4.4-.21-.1-.43-.17-.65-.22Z"/></g><g><path class="cls-11" d="M788.11,356.89c-19.64-13.08-45.86-11.36-67.52-4.12-.88,.29-1.72,.56-2.63,.79-3.79,.99-12.55,2.46-12.55,2.46,0,0-1.7-8.36-1.6-7.8,.05,.3-.9-8.64-4.39-8.11-1.59,.24-3,1.87-4.06,2.88-1.03,.98-1.98,2.03-2.86,3.12-7.47-.78-14.95-.51-22.36,.81-1.1-1.12-2.28-2.16-3.55-3.1-.95-.71-2.38-1.91-3.71-1.3-1.12,.51-1.23,1.85-1.31,2.87-.14,1.82,.02,3.63,.38,5.41-1.23,5.04-5.27,12.16-4.84,17.18,.42,4.95,6,8.21,9.76,11.84-.52,4.42-1.65,9.86,1.31,13.74,2,2.62,5.28,4.12,8.58,5.02,9.05,2.45,18.38,3.34,27.75,3.74,23.44,.99,46.97,1.09,70.43,1.59,6.52,.14,13.03,.33,19.55,.42,3.24,.05,6.67-.1,9.19-1.96,.2,.31,3.11,2.08,3.09,1.59-.95-20.9-5.06-38.03-18.65-47.08Z"/><path class="cls-11" d="M700.09,397.06c-.89-4.23-6.3-6.63-9.94-8.37-5.27-2.53-10.9-4.21-16.72-5.16-.07-.42-.57-.82-1.11-.57-3.82,1.71-6.05,2.15-6.05,2.15,0,0-1.99,6.94-6.68,9.38-3.49,1.82-7.3,3.06-10.65,5.1-3.47,2.11-5.94,5.45-7.07,9.18-.38,1.25-.29,2.68,.28,3.86,.81,1.68,2.78,2.26,4.6,1.86,2.3-.51,3.75-2.37,5.34-3.86,1.49-1.41,3.45-2.22,5.32-3.1,1.63-.77,3.31-1.47,4.98-2.17,2.79-1.18,5.59-2.33,8.4-3.46,.21-.09,.64-.17,.81-.32,0,0-.3,.28-1.53,1.18-3.52,2.59-10.01,6.07-10.95,10.6-.52,2.51,.79,5.3,3.7,5.67,5.04,.65,10.14-5.47,13.79-7.79,5.43-3.45,11.92-5.12,17.94-7.4,3.25-1.23,6.34-3.02,5.55-6.77Z"/><path class="cls-11" d="M806.77,403.97c.06-1.63-2.38-13.4-4.45-13.5-2.03-.09-2.48,2.82-4.38,3.37-.57,.16-1.14,.33-1.71,.49-.21-1.13-.44-2.25-.68-3.36-.19-.87-1.61-.5-1.42,.37,.24,1.13,.47,2.27,.68,3.4-1.7,.49-3.4,.98-5.1,1.47-.9,.26-.52,1.6,.39,1.34,1.64-.47,3.29-.95,4.93-1.42,.4,2.79-.85,13.56-1.37,17.11-1.07,7.23-2.44,14.68-5.98,21.25-3.51,6.5-9.21,12.42-15.22,16.95-2.9,2.18-5.91,4.24-8.63,6.61-2.56,2.23-6.31,5.11-6.73,8.61-.57,4.78,8.34,3.89,10.94,2.86,6.35-2.54,11.19-8.41,15.64-13.14,10.06-10.67,17-19.38,19.86-31.52,1.92-8.14,2.98-13.8,3.25-20.9Z"/><path class="cls-28" d="M672.6,360.18c-1.44-1.1-2.88-1.43-4.69-1.06-1.11,.23-.75,1.39,.28,1.39,1.28,0,2.54,.29,3.66,.87,.84,.43,1.48-.63,.74-1.2Z"/><path class="cls-28" d="M688.03,360.18c1.44-1.1,2.88-1.43,4.69-1.06,1.11,.23,.75,1.39-.28,1.39-1.28,0-2.54,.29-3.66,.87-.84,.43-1.48-.63-.74-1.2Z"/><path class="cls-18" d="M692.58,380.4c-6.44,3.94-17.09,3.9-23.52-.04-.8-.49-1.54,.71-.75,1.2,6.88,4.22,18.11,4.27,25.01,.04,.79-.49,.05-1.69-.75-1.2Z"/><path class="cls-16" d="M665.93,346.97c-.38-.71-1.17-2.55-2.32-1.54-.45,.4-.37,1.07-.34,1.59,.03,.7,.11,1.4,.21,2.1,.07,.49,.55,.58,.93,.42,.27,.03,.56-.04,.85-.13,.5-.16,1.03-.29,1.19-.83,.17-.57-.26-1.13-.52-1.62Z"/><path class="cls-16" d="M700.72,344.71c-.09-.59-.22-1.24-.94-1.38-.69-.14-1.1,.39-1.43,.86-.41,.57-2.58,2.81-1.06,3.17,.05,.05,.1,.1,.16,.13,.9,.37,1.76,.48,2.74,.33,.34-.05,.5-.39,.54-.67,.11-.82,.1-1.62-.02-2.44Z"/><path class="cls-28" d="M681.42,364.79c-1.08-.3-3.34-.4-3.94,.55-.21,.33-.18,.76,.19,1.08,.38,.33,.91,.65,1.36,.9,.38,.21,.75,.33,1.19,.19,.84-.27,2.96-2.16,1.29-2.7-.03,0-.06-.02-.09-.03Z"/><path class="cls-16" d="M684.18,368.72c-.53,.52-1.09,1.09-1.9,1.14-.94,.06-1.67-.53-2-1.32-.14-.5-.83-.79-1.19-.38-.18,.1-.29,.28-.28,.5-.25,.49-.55,.92-1.17,1.09-.73,.19-1.41-.03-1.99-.44-.76-.53-1.5,.67-.74,1.2,.89,.62,2.05,.86,3.13,.58,.69-.18,1.18-.56,1.56-1.03,.52,.59,1.2,1.03,2.08,1.16,1.48,.21,2.58-.57,3.56-1.52,.66-.64-.38-1.62-1.04-.98Z"/><path class="cls-18" d="M794.32,398.34c-.1-.88-1.57-.89-1.48,0,.15,1.33,.3,2.65,.44,3.98,.1,.88,1.57,.89,1.48,0-.15-1.33-.29-2.65-.44-3.98Z"/><path class="cls-18" d="M710.24,392.62c-1.36,3.56-4.72,5.83-7.9,7.91-.77,.51-.04,1.71,.75,1.2,3.53-2.31,7.07-4.8,8.58-8.74,.32-.84-1.1-1.2-1.42-.37Z"/><path class="cls-18" d="M705.96,358.28c-.17-.88-1.59-.51-1.42,.37,.58,3.1,1.01,6.21,1.27,9.35,.07,.88,1.55,.89,1.48,0-.27-3.26-.72-6.5-1.32-9.72Z"/><path class="cls-18" d="M748.17,377.61c.64-.65-.4-1.64-1.04-.98-3.24,3.29-4.54,8.5-5.16,12.82-.65,4.49,.04,8.87,2.67,12.71,.51,.75,1.79,.05,1.27-.7-2.68-3.9-3.16-8.39-2.32-12.9,.69-3.68,1.81-8.15,4.57-10.95Z"/><path class="cls-18" d="M684.31,393.67c-4.05,1.79-7.93,3.85-11.64,6.18-.79,.49-.05,1.7,.74,1.2,3.72-2.33,7.6-4.39,11.64-6.18,.86-.38,.11-1.58-.75-1.2Z"/><path class="cls-8" d="M670.39,365.93c-3.89,.26-7.91,.27-11.81,.23-.95,0-.95,1.38,0,1.39,3.91,.04,7.91,.03,11.81-.23,.94-.06,.95-1.45,0-1.39Z"/><path class="cls-8" d="M670.07,368.73c-2.03,.69-4.08,1.4-6.13,2.04-1.84,.58-3.9,.82-5.6,1.73-.83,.44-.08,1.64,.74,1.2,1.77-.93,3.97-1.16,5.88-1.78,1.84-.6,3.68-1.23,5.5-1.85,.89-.3,.5-1.64-.39-1.34Z"/><path class="cls-8" d="M699.71,363.76c-2.35,.32-4.71,.65-7.09,.93-1.64,.19-3.38,.68-5.01,.66-.95-.01-.95,1.37,0,1.39,1.91,.03,3.87-.54,5.78-.75,2.26-.25,4.47-.59,6.71-.89,.94-.13,.54-1.46-.39-1.34Z"/><path class="cls-8" d="M701.33,370.35c-2.15-.75-4.72-.99-6.96-1.48-1.72-.37-3.49-.62-5.21-.95-.93-.18-1.32,1.16-.39,1.34,1.71,.33,3.5,.59,5.21,.95,2.24,.47,4.82,.73,6.96,1.48,.89,.31,1.28-1.03,.39-1.34Z"/></g><g><polygon class="cls-3" points="718.77 587.98 712.38 602.46 710.76 602.35 701.92 601.74 669.19 599.46 683.7 580.74 709.56 586.08 716.85 587.58 718.77 587.98"/><path class="cls-3" d="M758.31,573.66c-1.53,4.43-15.95,20.66-18.86,24.81-2.89,4.16-9.61,11.56-15.64,10.25-3.62-.78-9.18-3.95-13.04-6.37-2.58-1.61-4.43-2.89-4.43-2.89l1.46-9.77,.1-.67,.25-.04,8.71-1.42,.29-.04s3.63-.12,8.78-1.91c5.14-1.78,17.49-11.18,22.61-13.78,5.12-2.58,11.3-2.62,9.77,1.82Z"/><path class="cls-8" d="M758.31,573.66c-1.53,4.43-15.95,20.66-18.86,24.81-2.89,4.16-9.61,11.56-15.64,10.25-3.62-.78-9.18-3.95-13.04-6.37l-4.74-.33-1.55-.1-2.55-.18,5.87-12.04,.35-.71,1.42-2.91,2.33,.49,1.45,.29,3.51,.72,.29-.04s3.63-.12,8.78-1.91c5.14-1.78,17.49-11.18,22.61-13.78,5.12-2.58,11.3-2.62,9.77,1.82Z"/><path class="cls-10" d="M713.34,586.85c-2.11,5.17-4.69,10.18-7.32,15.16l-1.55-.1c2.66-5.05,5.27-10.11,7.42-15.36l1.45,.29Z"/></g><g><polygon class="cls-3" points="577.43 744.77 560.96 747.24 560.23 745.9 557.14 740.31 541.06 711.09 565.63 712.89 575.29 738.99 576.78 743.01 577.43 744.77"/><path class="cls-3" d="M611.12,768.93c-4.81,1.1-27.08-1.94-32.36-2.09-5.28-.15-15.49-1.65-17.47-7.16-1.18-3.3-1.22-9.42-1.06-13.78,.09-2.93,.28-5.06,.28-5.06l2.27-.93,8-3.29,2.38,2.52,3.63,3.87,.21,.22s2.02,2.86,6.33,6.03c4.31,3.18,19.3,8.14,24.33,10.89,5.02,2.75,8.29,7.67,3.47,8.77Z"/><path class="cls-8" d="M611.12,768.93c-4.81,1.1-27.08-1.94-32.36-2.09-5.28-.15-15.49-1.65-17.47-7.16-1.18-3.3-1.22-9.42-1.06-13.78l-1.22-2.22-.75-1.37-1.11-2,5.64-.4,10.37-.76,2.14-.15,.8,2.16,.5,1.35,.19,.51,.21,.22s2.02,2.86,6.33,6.03c4.31,3.18,19.3,8.14,24.33,10.89,5.02,2.75,8.29,7.67,3.47,8.77Z"/><path class="cls-10" d="M576.59,742.5c-5.84,.62-11.72,1.01-17.59,1.18l-.75-1.37c5.98-.14,11.92-.51,17.84-1.15l.5,1.35Z"/></g><path class="cls-3" d="M378.82,465.55s13.69,10.74,20.83,19.06c7.13,8.32,27.05,27.61,27.05,27.61l-18.94,12.19s-32.22-12.72-40.58-20.58c-8.36-7.86-18.69-27.52-18.69-27.52l17.95-14.34,12.38,3.57Z"/><path class="cls-3" d="M309.64,436.26s31.45,41.08,34.97,44.01c3.51,2.93,34.22-14.72,34.22-14.72l-28.77-45.58-40.41,16.29Z"/><path class="cls-26" d="M296.31,363.75s21.44,3.55,36.56,25.74c15.13,22.2,30.15,41.62,29.83,42.66-.32,1.04-27.89,13.53-27.89,13.53l-38.51-81.93Z"/><path class="cls-28" d="M693.87,582.84s-18.29,24.63-24.68,26.49c-6.39,1.85-12.29-6.94-36.39-.46-24.1,6.46-64.19,.05-83.38-2.09-19.18-2.12-2.7,.87-36.64,.41-33.94-.47-55.59-12.49-109.2-18.04-53.63-5.55-77.24-21.27-91.49-26.82-14.27-5.56-30.01-35.61-24.6-39.32,5.42-3.7,69.43-13.9,69.43-13.9,0,0,10.51,1.76,26.53,4.55,9.21,1.61,20.23,3.54,32.14,5.69h.01c39.4,7.06,88.42,16.3,112.9,22.63,44.77,11.56,165.36,40.85,165.36,40.85Z"/><path class="cls-3" d="M415.6,519.36l-7.84,5.05s-12.76-5.04-24.3-10.74c9.21,1.61,20.23,3.54,32.14,5.69Z"/><path class="cls-28" d="M204.86,552.16s15.74,50.87,42.79,67.98c27.05,17.11,66.41,5.09,106.25,12.95,39.84,7.86,54.11-.92,68.86,0,14.76,.92,27.05,.46,27.05,.46,0,0,5.41,30.98,23.12,42.08,17.71,11.1,22.14,17.57,29.02,32.83,6.89,15.26,14.76,7.86,21.64,17.11,5.86,7.87,17.21,10.04,26.68,8.39,1.72-.3,21.44-4.97,21.53-4.7,0,0-13.28-43.01-33.45-79.54-20.17-36.53-34.92-76.76-51.16-87.4-16.23-10.64-40.83-6.48-87.56-10.18-46.73-3.7-94.87-26.36-94.87-26.36l-99.92,26.36Z"/><path class="cls-26" d="M366.78,496.81c-3.73-5.4-11.74-20.21-12.81-26.65-1.14-6.8-9.09-26.4-11.32-31.93-5.48-13.54-9.85-28.4-14.99-40.84-2.52-6.08-4.07-12.64-7.96-18.15-3.21-4.55-7.76-8.05-12.77-10.73-12.01-6.43-26.19-9.61-39.32-13.5,.02-.1,.03-.2,.05-.3,.18-.87-1.24-1.25-1.42-.37-.02,.11-.03,.21-.05,.32-.6,.09-.79,.96-.21,1.28-1.74,11.54,3.28,22.49,8.43,32.78,6.24,12.43,12.49,24.86,18.81,37.26,12.99,25.51,32.07,59.83,46.73,84.52,.86,1.45,1.82,4.31,3.62,5.07,1.85,.78,5.1-.97,6.76-1.56,5.21-1.85,11.15-3.87,15.58-7.1,3.87-2.83,3.37-6.5,.89-10.09Z"/><path class="cls-8" d="M237.84,517.18c1.4,5.98,2.28,11.88,5.13,17.45,2.13,4.18,4.88,8.11,6.99,12.3,5.03-.55,10-1.42,14.8-2.95,12.77-4.06,18.12-5.53,35.71-6.88,5.33-.41,21.33-9.91,23.73-10.09,5.39-.4,18.09-7.18,22.32-8.67,2.69-.95,10.87-6.96,10.87-6.96,0-5.87-13.6-21.27-15.37-26.87-2.58-8.2-6.52-15.35-10.82-22.84-4.38-7.62-6.97-15.35-8.33-23.9-1.23-7.67-1.8-15.47-3.84-23.02-.87-3.2-2-6.35-3.54-9.33-1.87-3.62-4.75-6.61-6.73-10.14-2.24-3.99-2.2-8.4-3.35-12.68-.89-3.31-2.41-6.48-4.45-9.31-3.89-5.38-9.37-9.19-15.82-11.45-4.5-1.58-9.29-2.54-13.54-4.71-4.14-2.12-7.13-5.44-10.55-8.39-2.6-2.24-5.5-4.28-9.01-5.01-4.83-1-12.89,1.24-14.97-4.6-.13-.37-.48-.5-.81-.46-.12-.4,.63,2.87-1.07-.45l-14.26,6.94s-24.56,30.94-22.23,39.57c1.84,6.8,1.74,13.88,2.61,20.82,.84,6.74,3.05,12.96,5.86,19.19,2.72,6.03,5.5,11.98,7.19,18.36,1.76,6.69,2.67,13.54,3.63,20.36,1.73,12.29,3.9,24.37,10.72,35.18,3.8,6.02,7.49,11.61,9.11,18.55Z"/><path class="cls-21" d="M313.93,296.93c-.58-1.08-1.39-2.07-2.43-2.95-.3-.25-.62-.51-.79-.85-.4-.82,.18-1.73,.55-2.56,1.31-2.96-.44-7.24-.36-10.43,.08-2.91-1.57-4.69-2.96-7.16-1.47-2.62-1.26-6.14-3.44-8.34-1.61-1.63-3.72-2.88-6.09-2.03-1.13,.41-2.23,1.17-3.2,2.08-1.55-3.26-3.78-6.16-7.31-7.87-3.42-1.65-10.3-4.11-13.54-.96-1.34,1.3-1.91,2.09-4.16,1.64-1.01-.2-1.99-.7-3.09-.86-3.22-.49-6.19-2.13-9.53-2.04-3.54,.09-6.53,1.66-8.61,4.08-6.46-1.8-11.62,.17-14.39,6.21-1.25,2.74-2.36,5.51-1.88,8.53,.27,1.69,.84,3.43,1.6,4.98,.33,.67,.99,1.38,1.61,2.08-.41,1.89-.93,3.78-1.23,5.72-.56,3.59,1.31,6.91,1.24,10.54-.09,4.42-.51,8.72-.2,13.15,.29,4.29,.82,8.56,1.27,12.84,.09,.84,1.49,.84,1.4,0-.18-1.73-.38-3.46-.56-5.2,4.07-.49,8.19-1.15,12.29-1.16,4.6-.01,9.01,1.2,13.42,2.27,7.22,1.75,14.74,3.36,22.23,2.28,1.88-.27,3.7-.71,5.48-1.33,2.62-.9,4.52-.33,7.04,.28,1.91,.47,3.26-.34,4.77-1.4,.84-.59,1.58-1.26,2.54-1.68,.86-.38,1.83-.17,2.66-.51,.89-.36,1.26-.82,1.67-1.6,.37-.72,.52-1.5,.55-2.29,.03-.84,2.26-3.03,2.73-3.92,.85-1.63,1.48-3.38,1.73-5.18,.33-2.31,0-4.48-1.03-6.39Z"/><path class="cls-3" d="M277.33,339.17l-1.12,2.16-7.68,14.91-2.9,6.29-.41,.88s-13.21,2.08-21.49-3.34c-8.29-5.43-13.4-14.5-13.4-14.5l8.59-35.58,38.41,29.18Z"/><path class="cls-3" d="M305.4,296.94s-1.12,6.43-2.94,14.54c-.28,1.26-.59,2.58-.91,3.92-1.99,8.34-4.61,17.57-7.45,23.27-4.08,8.12-7.62,15.56-17.84,18.76-10.34,3.23-21.27-4.53-28-15.08-5.65-8.87-6.4-12.97-5.7-23,.08-1.34-4.15-5.83-3.96-7.15,1.46-10.23,4.3-21.19,10.04-30.1,.99-1.57,2.11-3.11,3.54-4.35,8.42-7.33,27.68-2.9,37.06,1.42,9.38,4.31,16.16,17.78,16.16,17.78Z"/><path class="cls-19" d="M270.25,313.12c.23-.94,.22-1.91-.56-2.36-2.07-1.19-4.05,2.3-4.37,3.53-.19,.73-.08,1.7,.49,2.27,.61,.61,1.53,.5,2.23,.07,.62-.38,1.09-.95,1.43-1.57,.24-.44,.59-1.19,.78-1.95Z"/><path class="cls-19" d="M294.29,318.5c.23-.94,.22-1.91-.56-2.36-2.07-1.19-4.05,2.3-4.37,3.53-.19,.73-.08,1.7,.49,2.27,.61,.61,1.53,.5,2.23,.07,.62-.38,1.09-.95,1.43-1.57,.24-.44,.59-1.19,.78-1.95Z"/><path class="cls-9" d="M280.93,340.34s-2.64-.33-6.97-1.32c-4.33-.99-7.97-2.77-7.97-2.77,0,0,1.01,4.42,5.92,5.98,4.9,1.56,9.02-1.89,9.02-1.89Z"/><path class="cls-9" d="M277.88,336.03c-.34,0-.55-.01-.6-.02-.41-.03-.71-.36-.68-.74,.03-.38,.41-.68,.79-.64,.06,0,5.98,.34,6.67-3.27,.78-4.09-1.48-12.57-1.51-12.66-.1-.37,.14-.75,.53-.84,.4-.1,.8,.13,.9,.5,.1,.36,2.36,8.86,1.53,13.24-.78,4.07-5.84,4.43-7.62,4.43Z"/><path class="cls-9" d="M267.8,357.79l-2.17,4.74c-3.56-.75-8.36-1.96-11.81-3.62-6.12-2.95-4.19-6.15-7.1-9.32-2.93-3.19-3.67-16.18-3.67-16.18,0,0,2.61,10.12,13.03,18.15,6.95,5.37,11.72,6.24,11.72,6.24Z"/><path class="cls-21" d="M273.64,304.34c-.07-.03-.14-.05-.2-.07-2.61-.88-5.72-1.38-8.47-.96-.53,.08-1.07,.21-1.52,.49-1.18,.74-1.06,2.26,.21,2.83,.69,.31,1.48,.34,2.22,.5,.98,.22,1.95,.44,2.93,.67,1.67,.39,3.33,.8,4.99,1.23,.94,.24,2.72,.75,3.57,.09,2.58-1.84-2.06-4.15-3.73-4.77Z"/><path class="cls-21" d="M302.46,311.48c-.28,1.26-.59,2.58-.91,3.92-.11-.03-.21-.05-.32-.08-.97-.22-1.95-.45-2.93-.67-1.67-.37-3.35-.72-5.03-1.07-.95-.18-2.79-.5-3.22-1.46-1.39-2.74,3.87-2.79,5.64-2.63,.08,.01,.15,.03,.21,.03,2.2,.28,4.55,.91,6.55,1.96Z"/><path class="cls-21" d="M301.28,288.57c-2.99-3.43-6.33-6.35-10.32-8.71-3.11-1.84-6.27-3.12-9.5-3.98-.05-.13-.14-.25-.33-.33-.36-.15-.72-.27-1.08-.41,.1-.32-.02-.68-.46-.77-1.89-.41-3.78-.65-5.67-.77-.1-.2-.29-.35-.59-.37-5.36-.2-10.82-.25-15.66,1.76-2.1,.41-4.19,.86-6.27,1.32-.47,.11-.57,.52-.44,.85-3.35,1-6.38,2.55-8.44,5.12-2.42,3.02-3.37,6.72-3.94,10.39-.45,2.91-.39,4.44,.92,6.83-.59-.15-1.2-.22-1.94-.21-.9,.01-.9,1.33,0,1.32,2.68-.04,4.92,2.02,6.99,3.32,.4,.25,1.18,.96,1.82,.82,1.78-.39,2.82-3.8,3.29-5.16,1.23-3.61,2.24-7.04,4.27-10.37,1.16-1.91,2.44-3.75,3.72-5.58,1.01,.39,1.99,.92,3,1.27,1.5,.51,3.07,.72,4.66,.73,1.63,0,3.17-.31,4.76-.57,2.05-.33,3.78-.57,5.68,.41,1.15,.59,1.86,1.23,2.77,2.09,2.07,1.95,3.49,2.95,6.5,3.36,3.11,.43,6.18,.2,9.17-.51,.51,.57,1.19,1.08,1.88,1.54,1.94,1.32,3.49,2.7,5.23,4.22,1.26,1.1,2.62,1.21,3.99,2.13,.46,.31,1.03-.12,1.05-.57,.22-3.67-2.77-6.52-5.09-9.19Z"/><path class="cls-26" d="M300.8,535.94c-4.67-5.68-8.82-11.72-12.32-18.11-3.37-6.14-5.86-12.61-8.76-18.94-2.7-5.89-6.04-11.3-10.39-16.24-4.69-5.34-10.01-10.16-14.59-15.59-9.3-11.02-16.09-23.66-22.81-36.16-3.62-6.74-7.22-13.55-8.92-20.98-1.69-7.41-1.72-15.07-2.02-22.61-.32-8.25-.65-16.49-.97-24.74-.19-4.88,.93-17.41,.93-17.41,0,0-55.07,27.17-62.22,35.87-6.79,8.26-9.76,17.91-8.34,28.3,1.64,11.93,7.75,22.59,12.57,33.56,2.42,5.5,4.56,11.17,5.56,17.07,1,5.89,.09,11.95,1.36,17.8,1.3,6,5.27,11.19,7.67,16.82,2.41,5.66,4.06,11.58,5.46,17.53,3.01,12.82,5.48,25.75,8.2,38.63,.89,4.22,1.83,8.97,6.53,10.82,3.94,1.55,8.53,.5,12.49-.4,7.34-1.67,14.52-3.57,21.53-6.22,7.12-2.7,14.48-4.42,21.89-6.25,15.61-3.86,31.22-7.72,46.83-11.57,.59-.15,.65-.77,.33-1.16Z"/><g><polygon class="cls-6" points="390.54 549.96 427.34 452.59 560.12 455.74 521.41 550.4 390.54 549.96"/><path class="cls-6" d="M390.54,549.96l-81.64-3.03s3.3-5.18,5.88-5.87c2.58-.69,101.7,2.54,101.7,2.54l-25.95,6.36Z"/></g><path class="cls-3" d="M184.57,478.63s33.64,39.52,37.31,42.27c3.67,2.76,19.62-11.19,19.62-11.19l-23.5-46.26-33.44,15.18Z"/><path class="cls-3" d="M308.05,534.82s-3.07-.08-8.17-.29c-1.79-.07-3.84-.17-6.08-.26-17.35-.83-46.96-2.73-68.28-6.73-14.05-2.64-22.62-10.25-24.88-12.17-6.8-5.72-16.07-24.53-16.07-24.53l35.7-6.23,78.14,34.5,5.42,2.39,3.01,1.33,1.22,11.99Z"/><path class="cls-3" d="M305.27,522.14s17.44-3.88,23.7-2.25c6.26,1.63,12.5,12.62,14.14,14.21,1.64,1.59,2.86,7.46,.02,8.5-2.84,1.04-13.85-5.19-20.47-6.33s-14.61-1.46-14.61-1.46l-8.02-8.27,5.24-4.41Z"/><path class="cls-26" d="M158.73,381.03s-14.38,12.28-15.12,37.95c-.56,19.42,18.48,82.39,18.48,82.39,0,0,17.65,.35,36.46-4.79,32.61-8.92,46.38-24.65,46.38-24.65l-27.05-39.08-59.16-51.82Z"/><path class="cls-13" d="M303.81,521.5c-1.15,4.38-2.48,8.73-3.94,13.03-1.79-.07-3.84-.17-6.08-.26,1.74-4.99,3.28-10.04,4.6-15.15l5.42,2.39Z"/><path class="cls-8" d="M304.8,526.55c-.56,2.53-3.3,4.13-6.12,3.58-2.81-.55-4.64-3.06-4.07-5.59,.56-2.53,3.3-4.13,6.12-3.58,2.81,.55,4.64,3.06,4.07,5.59Z"/><path class="cls-8" d="M518.68,547.63h0l-122.36-.96c-.41,0-.73-.32-.73-.7,0-.38,.33-.69,.74-.69h0l122.36,.96c.41,0,.73,.32,.73,.7,0,.38-.33,.69-.74,.69Z"/><path class="cls-8" d="M391.53,549.5c-.06,0-.12,0-.18-.02-.39-.09-.63-.47-.53-.84l1.35-4.97c.1-.37,.5-.59,.9-.5,.39,.09,.63,.47,.53,.84l-1.35,4.97c-.08,.31-.38,.52-.71,.52Z"/><path class="cls-8" d="M485.54,485.45c-6.24,0-10.94-2.09-10.94-4.86s4.71-4.86,10.94-4.86,10.95,2.09,10.95,4.86-4.71,4.86-10.95,4.86Zm0-8.32c-5.58,0-9.47,1.83-9.47,3.47s3.89,3.47,9.47,3.47,9.47-1.83,9.47-3.47-3.89-3.47-9.47-3.47Z"/><g><path class="cls-6" d="M521.42,787.21c-.08-.26-.21-.54-.4-.82-1.5-2.16-8.11-1.62-10.32-1.63-2.18,0-20.99,2.3-21.67,.39,0,0-5-13.96-5-13.97-1.1-3.08-24.37,11.13-26.03,12.6-2.56,2.28-4.43,5.16-2.59,8.38,3.74,6.55,17.14,4.28,23.39,4.04,10.56-.41,43.6-5.57,42.62-8.99Z"/><path class="cls-17" d="M490.64,793.32c-.34,0-.64-.22-.72-.54l-1.35-5.74c-.09-.37,.16-.75,.56-.83,.41-.08,.79,.15,.88,.53l1.35,5.74c.09,.37-.16,.75-.56,.83-.05,.01-.11,.02-.16,.02Z"/></g><g><path class="cls-6" d="M456.41,769.34c-2.43-.11-4.83,.18-7.2,.67-2.63-5.26-15.32-10.95-17.12-10.37-5.01,1.61-7.29,3.67-11.49,6.51-4.47,3.02-22.18,18.14-7.48,20.67,10.22,1.76,21.07-.8,30.64-4.05,3.82-1.3,19.41-5.26,18.82-10.8-.26-2.43-4.34-2.54-6.16-2.63Z"/><path class="cls-17" d="M453.75,777.94c-.26,0-.51-.13-.64-.35l-3.94-6.5c-.2-.33-.08-.76,.28-.95,.35-.19,.8-.07,1.01,.26l3.94,6.5c.2,.33,.08,.76-.28,.95-.12,.06-.24,.09-.36,.09Z"/></g><path class="cls-4" d="M233.88,479.55c-.29,0-.57-.16-.68-.43-.22-.52-22.2-51.91-28.99-64.45-6.7-12.36-10.37-15.48-10.41-15.51-.3-.25-.34-.69-.07-.98,.27-.29,.73-.32,1.04-.07,.16,.13,3.88,3.24,10.76,15.93,6.82,12.6,28.83,64.05,29.05,64.57,.15,.36-.03,.76-.41,.9-.09,.03-.18,.05-.28,.05Z"/><path class="cls-4" d="M343.52,441.08c-.3,0-.59-.18-.69-.46-.1-.26-10.07-26.38-12.75-34.62-2.65-8.17-15.07-31.1-15.2-31.33-.19-.34-.04-.76,.32-.93,.36-.17,.81-.04,.99,.3,.51,.95,12.6,23.27,15.3,31.56,2.67,8.21,12.63,34.3,12.73,34.56,.14,.36-.06,.76-.45,.89-.08,.03-.17,.04-.25,.04Z"/><path class="cls-4" d="M231.17,550.65s-.08,0-.12,0c-.08-.01-8.54-1.32-18.26-4.53-9.98-3.29-14.72-14.29-14.91-14.76-.15-.36,.03-.76,.41-.9,.38-.14,.81,.03,.96,.39,.05,.11,4.69,10.88,14.03,13.96,9.6,3.17,17.92,4.46,18.01,4.47,.4,.06,.68,.42,.61,.8-.06,.34-.37,.58-.73,.58Z"/><path class="cls-22" d="M255.21,369.15c-12.92,0-27.89-17.41-28.55-18.19-.25-.3-.2-.74,.12-.98,.32-.24,.78-.19,1.04,.11,.16,.2,16.59,19.33,29.07,17.55,12.23-1.74,13.35-7,13.36-7.06,.07-.37,.44-.63,.85-.57,.4,.06,.67,.41,.61,.79-.04,.26-1.18,6.31-14.6,8.21-.62,.09-1.26,.13-1.89,.13Z"/><path class="cls-3" d="M241.24,316.55c.56,.45,3.2,1.88,3.62,.8,1.18-3.09,1.61-6.33,3.05-9.35,.94-1.96,1.94-3.83,2.66-5.84l.68,.78c-.2,.83,1.19,1,1.39,.18,.7-2.98-1.37-4.87-4.4-5.19-2.49-.26-4.9,.52-6.83,1.92-5.33,3.87-5.33,12.58-.17,16.7Z"/></g></g></g></g></svg>