<?xml version="1.0" encoding="UTF-8"?><svg id="Layer_2" xmlns="http://www.w3.org/2000/svg" xmlns:xlink="http://www.w3.org/1999/xlink" viewBox="0 0 1141.01 823.9"><defs><style>.cls-1{fill:none;}.cls-2{clip-path:url(#clippath);}.cls-3{fill:#0476a8;}.cls-4{fill:#017c33;}.cls-5{fill:#00abab;}.cls-6{fill:#ecd615;}.cls-7{fill:#fff;}.cls-8{fill:#e8e7e7;}.cls-9{fill:#97999b;}.cls-10{fill:#0297a9;}.cls-11{fill:#b6b5b5;}.cls-12{fill:#333;}.cls-13{fill:#c1635f;}.cls-14{fill:#d0d0ce;}.cls-15{fill:#cbcbcb;}.cls-16{fill:#d37973;}.cls-17{fill:#e3827a;}.cls-18{fill:#c5c1c1;}.cls-19{fill:#c6c8c8;}.cls-20{fill:#c96f6f;}.cls-21{fill:#14a2dc;}.cls-22{fill:#076e38;}.cls-23{fill:#1d293e;}.cls-24{fill:#9b5f5d;}.cls-25{fill:#895656;}.cls-26{fill:#63666a;}.cls-27{fill:#63b5e5;}.cls-28{fill:#4a9944;}.cls-29{fill:#5f72b6;}.cls-30{fill:#53565a;}.cls-31{fill:#75787b;}.cls-32,.cls-33{opacity:.37;}.cls-34{opacity:.94;}.cls-35{isolation:isolate;}.cls-33,.cls-36{fill:#283757;}.cls-36{opacity:.97;}</style><clipPath id="clippath"><rect class="cls-1" width="1141.01" height="787.69"/></clipPath></defs><g id="Layer_1-2"><g class="cls-2"><ellipse class="cls-3" cx="824.92" cy="702.82" rx="208.9" ry="24.05"/><path class="cls-3" d="M138.25,716.5c-35.76,2.81-33.81,11.94-6.26,13.18,95.64,4.29,126.03,24.19,109.14,34.02-18.13,10.55-114.69,15.58-118.17,36.47-2.27,13.63,156.35,30.1,332.09,21.24,95.69-4.82,243.19-24.25,242.14-50.81-.58-14.69-157.47-85.67-558.95-54.08Z"/><g class="cls-34"><g><rect class="cls-7" x="594.24" y="206.73" width="186.5" height="273.42"/><g><g><polygon class="cls-5" points="743.17 240.15 703.89 240.15 703.89 230.89 743.17 230.89 748.43 235.52 743.17 240.15"/><polygon class="cls-27" points="704.5 240.15 665.22 240.15 665.22 230.89 704.5 230.89 709.77 235.52 704.5 240.15"/><polygon class="cls-9" points="665.84 240.15 626.55 240.15 626.55 230.89 665.84 230.89 671.1 235.52 665.84 240.15"/></g><g><polygon class="cls-33" points="703.67 387.73 671.55 370.58 639.34 379.05 638.83 377.13 671.8 368.45 703.91 385.6 735.64 377.13 736.16 379.05 703.67 387.73"/><circle class="cls-27" cx="639.18" cy="378.18" r="5.34" transform="translate(124.26 913.37) rotate(-76.72)"/><circle class="cls-5" cx="671.39" cy="369.61" r="5.34"/><circle class="cls-9" cx="703.6" cy="386.75" r="5.34" transform="translate(165.54 982.67) rotate(-76.72)"/><circle class="cls-27" cx="735.81" cy="378.18" r="5.34" transform="translate(-51.9 631.06) rotate(-45)"/></g><g><g><path class="cls-9" d="M653.6,402.87h-19.96c-3.91,0-7.08,3.17-7.08,7.08v2.64h34.12v-2.64c0-3.91-3.17-7.08-7.08-7.08Z"/><g class="cls-32"><path class="cls-36" d="M653.71,421.71h-20.19c-.73,0-1.33-.59-1.33-1.33h0c0-.73,.59-1.33,1.33-1.33h20.19c.73,0,1.33,.59,1.33,1.33h0c0,.73-.59,1.33-1.33,1.33Z"/><path class="cls-36" d="M653.71,426.78h-20.19c-.73,0-1.33-.59-1.33-1.33h0c0-.73,.59-1.33,1.33-1.33h20.19c.73,0,1.33,.59,1.33,1.33h0c0,.73-.59,1.33-1.33,1.33Z"/><path class="cls-36" d="M653.71,431.86h-20.19c-.73,0-1.33-.59-1.33-1.33h0c0-.73,.59-1.33,1.33-1.33h20.19c.73,0,1.33,.59,1.33,1.33h0c0,.73-.59,1.33-1.33,1.33Z"/><path class="cls-36" d="M653.71,436.93h-20.19c-.73,0-1.33-.59-1.33-1.33h0c0-.73,.59-1.33,1.33-1.33h20.19c.73,0,1.33,.59,1.33,1.33h0c0,.73-.59,1.33-1.33,1.33Z"/><path class="cls-36" d="M653.71,447.08h-20.19c-.73,0-1.33-.59-1.33-1.33h0c0-.73,.59-1.33,1.33-1.33h20.19c.73,0,1.33,.59,1.33,1.33h0c0,.73-.59,1.33-1.33,1.33Z"/><path class="cls-36" d="M646.32,452.16h-12.8c-.73,0-1.33-.59-1.33-1.33h0c0-.73,.59-1.33,1.33-1.33h12.8c.73,0,1.33,.59,1.33,1.33h0c0,.73-.59,1.33-1.33,1.33Z"/></g></g><g><path class="cls-27" d="M697.47,402.87h-19.96c-3.91,0-7.08,3.17-7.08,7.08v2.64h34.12v-2.64c0-3.91-3.17-7.08-7.08-7.08Z"/><g class="cls-32"><path class="cls-36" d="M697.59,421.71h-20.19c-.73,0-1.33-.59-1.33-1.33h0c0-.73,.59-1.33,1.33-1.33h20.19c.73,0,1.33,.59,1.33,1.33h0c0,.73-.59,1.33-1.33,1.33Z"/><path class="cls-36" d="M697.59,431.86h-20.19c-.73,0-1.33-.59-1.33-1.33h0c0-.73,.59-1.33,1.33-1.33h20.19c.73,0,1.33,.59,1.33,1.33h0c0,.73-.59,1.33-1.33,1.33Z"/><path class="cls-36" d="M697.59,436.93h-20.19c-.73,0-1.33-.59-1.33-1.33h0c0-.73,.59-1.33,1.33-1.33h20.19c.73,0,1.33,.59,1.33,1.33h0c0,.73-.59,1.33-1.33,1.33Z"/><path class="cls-36" d="M697.59,442.01h-20.19c-.73,0-1.33-.59-1.33-1.33h0c0-.73,.59-1.33,1.33-1.33h20.19c.73,0,1.33,.59,1.33,1.33h0c0,.73-.59,1.33-1.33,1.33Z"/><path class="cls-36" d="M697.59,447.08h-20.19c-.73,0-1.33-.59-1.33-1.33h0c0-.73,.59-1.33,1.33-1.33h20.19c.73,0,1.33,.59,1.33,1.33h0c0,.73-.59,1.33-1.33,1.33Z"/><path class="cls-36" d="M693.89,452.16h-16.5c-.73,0-1.33-.59-1.33-1.33h0c0-.73,.59-1.33,1.33-1.33h16.5c.73,0,1.33,.59,1.33,1.33h0c0,.73-.59,1.33-1.33,1.33Z"/></g></g><g><path class="cls-5" d="M741.35,402.87h-19.96c-3.91,0-7.08,3.17-7.08,7.08v2.64h34.12v-2.64c0-3.91-3.17-7.08-7.08-7.08Z"/><g class="cls-32"><path class="cls-36" d="M732.22,421.71h-10.95c-.73,0-1.33-.59-1.33-1.33h0c0-.73,.59-1.33,1.33-1.33h10.95c.73,0,1.33,.59,1.33,1.33h0c0,.73-.59,1.33-1.33,1.33Z"/><path class="cls-36" d="M741.47,426.78h-20.19c-.73,0-1.33-.59-1.33-1.33h0c0-.73,.59-1.33,1.33-1.33h20.19c.73,0,1.33,.59,1.33,1.33h0c0,.73-.59,1.33-1.33,1.33Z"/><path class="cls-36" d="M741.47,431.86h-20.19c-.73,0-1.33-.59-1.33-1.33h0c0-.73,.59-1.33,1.33-1.33h20.19c.73,0,1.33,.59,1.33,1.33h0c0,.73-.59,1.33-1.33,1.33Z"/><path class="cls-36" d="M741.47,436.93h-20.19c-.73,0-1.33-.59-1.33-1.33h0c0-.73,.59-1.33,1.33-1.33h20.19c.73,0,1.33,.59,1.33,1.33h0c0,.73-.59,1.33-1.33,1.33Z"/><path class="cls-36" d="M741.47,442.01h-20.19c-.73,0-1.33-.59-1.33-1.33h0c0-.73,.59-1.33,1.33-1.33h20.19c.73,0,1.33,.59,1.33,1.33h0c0,.73-.59,1.33-1.33,1.33Z"/><path class="cls-36" d="M741.47,452.16h-20.19c-.73,0-1.33-.59-1.33-1.33h0c0-.73,.59-1.33,1.33-1.33h20.19c.73,0,1.33,.59,1.33,1.33h0c0,.73-.59,1.33-1.33,1.33Z"/></g></g></g><g class="cls-32"><path class="cls-36" d="M690.71,327.68h-56.91c-.73,0-1.33-.59-1.33-1.33h0c0-.73,.59-1.33,1.33-1.33h56.91c.73,0,1.33,.59,1.33,1.33h0c0,.73-.59,1.33-1.33,1.33Z"/><path class="cls-36" d="M690.71,332.76h-62.83c-.73,0-1.33-.59-1.33-1.33h0c0-.73,.59-1.33,1.33-1.33h62.83c.73,0,1.33,.59,1.33,1.33h0c0,.73-.59,1.33-1.33,1.33Z"/><rect class="cls-36" x="632.48" y="340.21" width="59.56" height="2.65" rx=".23" ry=".23"/><rect class="cls-36" x="626.55" y="345.28" width="65.49" height="2.65" rx=".23" ry=".23"/><rect class="cls-36" x="626.55" y="350.35" width="26.99" height="2.65" rx=".23" ry=".23"/></g><g><g><path class="cls-27" d="M645.44,278.16c0-4.18,3.39-7.57,7.57-7.57v-18.89c-14.62,0-26.46,11.85-26.46,26.46s11.85,26.46,26.46,26.46v-18.89c-4.18,0-7.57-3.39-7.57-7.57Z"/><path class="cls-5" d="M659.48,274.21l16.11-9.86c-4.65-7.59-13.02-12.65-22.57-12.65v18.89c2.73,0,5.13,1.45,6.46,3.62Z"/><path class="cls-9" d="M679.48,278.16c0-5.06-1.42-9.79-3.89-13.82l-16.11,9.86c.71,1.15,1.11,2.5,1.11,3.95,0,4.18-3.39,7.57-7.57,7.57v18.89c14.62,0,26.46-11.85,26.46-26.46Z"/></g><g class="cls-32"><path class="cls-36" d="M747.11,259.43h-43.88c-.73,0-1.33-.59-1.33-1.33h0c0-.73,.59-1.33,1.33-1.33h43.88c.73,0,1.33,.59,1.33,1.33h0c0,.73-.59,1.33-1.33,1.33Z"/><path class="cls-36" d="M747.11,264.5h-49.8c-.73,0-1.33-.59-1.33-1.33h0c0-.73,.59-1.33,1.33-1.33h49.8c.73,0,1.33,.59,1.33,1.33h0c0,.73-.59,1.33-1.33,1.33Z"/><path class="cls-36" d="M747.11,269.58h-49.8c-.73,0-1.33-.59-1.33-1.33h0c0-.73,.59-1.33,1.33-1.33h49.8c.73,0,1.33,.59,1.33,1.33h0c0,.73-.59,1.33-1.33,1.33Z"/><path class="cls-36" d="M747.11,274.65h-49.8c-.73,0-1.33-.59-1.33-1.33h0c0-.73,.59-1.33,1.33-1.33h49.8c.73,0,1.33,.59,1.33,1.33h0c0,.73-.59,1.33-1.33,1.33Z"/><path class="cls-36" d="M743.41,279.72h-46.11c-.73,0-1.33-.59-1.33-1.33h0c0-.73,.59-1.33,1.33-1.33h46.11c.73,0,1.33,.59,1.33,1.33h0c0,.73-.59,1.33-1.33,1.33Z"/><path class="cls-36" d="M747.11,290.02h-43.88c-.73,0-1.33-.59-1.33-1.33h0c0-.73,.59-1.33,1.33-1.33h43.88c.73,0,1.33,.59,1.33,1.33h0c0,.73-.59,1.33-1.33,1.33Z"/><path class="cls-36" d="M747.11,295.09h-49.8c-.73,0-1.33-.59-1.33-1.33h0c0-.73,.59-1.33,1.33-1.33h49.8c.73,0,1.33,.59,1.33,1.33h0c0,.73-.59,1.33-1.33,1.33Z"/><path class="cls-36" d="M731.56,300.16h-34.26c-.73,0-1.33-.59-1.33-1.33h0c0-.73,.59-1.33,1.33-1.33h34.26c.73,0,1.33,.59,1.33,1.33h0c0,.73-.59,1.33-1.33,1.33Z"/></g></g></g></g><g><g><polygon class="cls-7" points="608.45 646.85 629.84 482.04 635.18 482.81 613.9 646.85 608.45 646.85"/><rect class="cls-7" x="684.8" y="482.43" width="5.39" height="154.86"/></g><g><rect class="cls-9" x="653.12" y="202.27" width="70.9" height="4.7"/><rect class="cls-9" x="614.68" y="479.91" width="147.79" height="5.55"/></g></g></g><g><g><g><path class="cls-17" d="M239.99,637.95c-9.04,11.59-15.18,19.46-15.18,19.46l-15.23,7.29-2.73-15.57s6.91-10.99,15.68-25.04c2.17,2.54,4.7,5.02,7.55,7.35,3.24,2.63,6.59,4.81,9.9,6.51Z"/><g id="leg"><path class="cls-15" d="M207.2,644.79c-1.4-.62-21.04,17.18-20.04,19.75,.99,2.57,52.23,45.58,57.64,45.07,2.84-.27,6.73-8.49,5.88-9.68-15.49-21.88-21.97-45.92-21.97-45.92,0,0-6.12-.67-7.76,2.56l-.33,1.65s-5.68,.39-8.58-2.45c-2.89-2.84-1.3-9.41-4.86-10.98Z"/></g></g><g><path class="cls-17" d="M259.09,688.93l-1.45-32.16c3.49,.54,7.18,.83,11.01,.83,4.95,0,9.69-.49,14.04-1.37-2.4,28.88-3.38,42.53-3.38,42.53l-20.22-9.83Z"/><g id="leg-2"><path class="cls-15" d="M258.74,716.82c2.06,10.22,10.51,15.45,21.4,14.33,10.89-1.12,16.42-7.47,13.35-18.26-2.97-10.4-8.41-23.93-9.27-25.44-2.95-5.17-6.17-9.08-11.61-9.08-6.71,0-10.97,3.41-13.23,10.75-.68,6.11-2.29,19.49-.64,27.7Z"/></g></g><path id="hood" class="cls-5" d="M287.34,227.84c-12.56-.07-53.92-10.1-62.47-26.82-8.55-16.71,2.91-29.19,21.07-35.04,18.17-5.85,53.91,.06,61.39,16.72,7.48,16.66-2.63,45.24-19.99,45.14Z"/><g id="body"><polygon class="cls-17" points="253.36 196.38 275.83 219.65 282.95 200.13 280.56 167.1 255.76 162.54 253.36 196.38"/><path class="cls-20" d="M256.68,170.37s10.58,19,19.68,19c5.35,0,5.86-8.7,5.86-8.7l-25.54-10.3Z"/><g id="head"><g id="head-2"><path id="hair" class="cls-30" d="M239.15,132.28c0,16.7,13.65,31.97,30.49,31.97s30.49-15.27,30.49-31.97-13.65-30.23-30.49-30.23-30.49,13.53-30.49,30.23Z"/><g id="face"><path class="cls-20" d="M296.17,141.32s3.04-1.96,5.39,1.17c2.35,3.14,.79,14.89-5.09,14.89s-.3-16.06-.3-16.06Z"/><path class="cls-17" d="M249.59,141.11c-1.09-1.32-3.79-2.29-6.73,1.36-2.93,3.66-.98,17.38,6.36,17.38s3.36-15.14,.37-18.75Z"/><path class="cls-17" d="M252.01,138.05c2.16-14.37,14.47-21.82,27.62-21.82s19.69,8.63,19.69,21.82c0,0-.1,16.83-.1,17.64,0,9.86-8.54,28.43-18.03,28.43-10.96,0-29.64-14.58-29.64-24.08,0-.82-.36-16.56,.46-21.99Z"/></g><g id="eyebrows"><g><path class="cls-30" d="M276.85,137.61s-9.8-.98-11.69-.79c-3.15,.3-3.83,2.35-4.31,3.46-.17,.38,12.79,1.65,14.68,.97,1.88-.68,1.32-3.63,1.32-3.63Z"/><path class="cls-30" d="M286.63,137.61s9.8-.98,11.69-.79c.36,.04,.69,.09,.99,.17,1.05,.23,1.05,3.73,.2,3.83-3.92,.45-10.28,.88-11.56,.42-1.88-.68-1.32-3.63-1.32-3.63Z"/></g></g><polygon id="nose" class="cls-20" points="286.55 162.27 277.89 162.27 283.03 164.25 286.55 162.27"/><g id="glasses"><path class="cls-7" d="M284.94,151.55c-.37-2.87,.16-5.71,1.49-7.99,1.34-2.3,3.34-3.77,5.62-4.12,.35-.05,.7-.08,1.05-.08,4.33,0,8.13,4.11,8.83,9.56,.37,2.87-.16,5.71-1.49,7.99-1.34,2.3-3.34,3.77-5.62,4.12-.35,.05-.7,.08-1.05,.08-4.33,0-8.13-4.11-8.83-9.56Zm7.22-11.24c-2.04,.32-3.84,1.64-5.05,3.72-1.23,2.1-1.71,4.73-1.37,7.39,.64,5.02,4.1,8.8,8.03,8.8,.31,0,.63-.02,.94-.07,2.04-.32,3.84-1.64,5.05-3.72,1.23-2.1,1.71-4.73,1.37-7.39-.64-5.02-4.09-8.8-8.03-8.8-.31,0-.63,.02-.94,.07Z"/><path class="cls-7" d="M268.88,161.03c-4.68-.73-7.87-6.16-7.11-12.11,.7-5.45,4.49-9.56,8.83-9.56,.35,0,.7,.03,1.05,.08,2.28,.35,4.27,1.82,5.62,4.12,1.33,2.28,1.86,5.12,1.49,7.99-.7,5.45-4.49,9.56-8.83,9.56h0c-.35,0-.7-.03-1.05-.08Zm-6.31-11.99c-.7,5.47,2.18,10.45,6.42,11.11,.31,.05,.63,.07,.94,.07h0c3.93,0,7.39-3.78,8.03-8.8,.34-2.66-.15-5.29-1.37-7.39-1.21-2.08-3.01-3.4-5.05-3.72-.31-.05-.62-.07-.94-.07-3.93,0-7.39,3.78-8.03,8.8Z"/><path class="cls-7" d="M285.01,151.05l.62-.56c-1.08-1.44-2.37-2.21-3.73-2.21s-2.66,.76-3.73,2.21l.62,.56c.92-1.23,1.99-1.88,3.11-1.88s2.19,.65,3.11,1.88Z"/></g></g><g id="hair-2"><g id="_5"><g id="head-3"><g><path class="cls-30" d="M246.44,88.71c-.38,11.37,6.49,18.7,16.83,19.04,10.34,.34,15.3-6.92,15.68-18.29,.38-11.37-4.79-20.08-15.13-20.42-10.34-.34-17,8.31-17.38,19.67Z"/><path class="cls-30" d="M260.54,106.81c-4.95-.16-9.11-1.97-12.03-5.22-2.96-3.3-4.43-7.86-4.26-13.19,.18-5.3,1.81-10.1,4.61-13.5,2.95-3.59,6.98-5.49,11.64-5.49,.19,0,.38,0,.57,0,4.78,.16,8.67,2.2,11.25,5.91,2.42,3.48,3.61,8.25,3.42,13.81-.38,11.4-5.54,17.68-14.54,17.68-.22,0-.45,0-.67-.01Zm-11.16-31.48c-2.7,3.29-4.29,7.94-4.46,13.09-.17,5.15,1.24,9.55,4.08,12.71,2.8,3.11,6.79,4.84,11.55,5,4.73,.16,8.39-1.39,10.87-4.59,2.25-2.91,3.48-7.09,3.65-12.43,.18-5.41-.96-10.04-3.3-13.4-2.46-3.53-6.16-5.47-10.72-5.62-.19,0-.37,0-.55,0-4.46,0-8.3,1.81-11.13,5.25Z"/></g></g></g></g></g></g><path class="cls-30" d="M224.44,367.63s-6.96,35.86-5.35,56.74c1.61,20.88,21.95,117.76,21.95,117.76l11.24,129c12.05,6.36,32.12,.54,32.12,.54v-137.03l11.24-163.8-71.19-3.21Z"/><path class="cls-30" d="M224.44,367.63l102.78,11.24s-1.07,138.1-3.75,149.35c-2.68,11.24-14.99,25.69-14.99,25.69l-71.19,92.6c-6.42,0-22.48-18.2-22.48-18.2,0,0,23.02-49.78,28.74-57.61,5.72-7.83,21.58-24.29,21.58-24.29l-40.68-178.79Z"/><path class="cls-5" d="M253.34,193.12s18.23,25.08,29.44,4.28c0,0,22.22,7.49,33.79,13.86,12.2,6.71,37.15,88.2,40.45,103.64,8.4,39.28-28.8,69.83-28.8,69.83l3.27,40.17h0s-89.39,21.95-131.68-6.42c0,0-1.61-194.31,9.64-204.48,11.24-10.17,43.89-20.88,43.89-20.88Z"/><g id="hood-2"><path class="cls-10" d="M284.86,233.6c4.61,0,9.99-4.55,15.97-13.52,4.37-6.55,7.5-13.2,7.53-13.26l-1.45-.68c-.03,.07-3.12,6.61-7.42,13.07-5.58,8.37-10.64,12.79-14.62,12.79-13.28,0-54.64-23.48-55.06-23.71l-.8,1.4c1.71,.98,42.15,23.93,55.85,23.93Z"/><path class="cls-10" d="M291.95,296.96c1.85-6.42,1.62-22.7-.68-48.37-1.71-19.07-3.98-36.49-4-36.67l-1.59,.21c.09,.69,9.03,69.46,4.73,84.38l1.54,.45Z"/><path class="cls-10" d="M269.11,310.96l1.56-.37c-3.78-15.77-4.41-96.58-4.42-97.4h-1.61c.02,3.34,.64,81.83,4.46,97.77Z"/></g><path class="cls-10" d="M284.23,413.8c-24.92,0-47.1-3.77-47.46-3.83l-.65-.11v-21.77l18.85-30.58,.39-.04c.14-.01,14.6-1.32,29.06-2.02,29.83-1.45,30.6,.97,30.97,2.14,1.49,4.69,13.41,26.54,13.53,26.76l-1.38,.76c-.49-.9-12.12-22.21-13.65-27.04-.22-.4-2.7-2.36-29.78-1.02-12.96,.64-25.82,1.75-28.21,1.97l-18.2,29.53v19.99c6.55,1.06,60.52,9.24,92.03-2.73l.56,1.47c-13.17,5-30.17,6.53-46.05,6.53Z"/><path class="cls-18" d="M314.56,354.59l-71.07,15.48c-2.4,.52-4.8-.93-5.43-3.31l-27.85-103.51c-.68-2.54,.9-5.14,3.47-5.7l71.07-15.48c2.4-.52,4.8,.93,5.43,3.31l27.85,103.51c.68,2.54-.9,5.14-3.47,5.7Z"/><ellipse class="cls-8" cx="264.29" cy="305.87" rx="7.5" ry="7.14"/><path class="cls-17" d="M271.73,323.5s20.03,.33,22.52,.03c2.49-.3,12.45,1.49,14.54,2.39,2.09,.9,12.25,9.26,12.25,9.26,0,0-2.49,2.39-5.08,2.09-2.59-.3-12.75-4.48-12.75-4.48,0,0,5.03,8.91,15.21,10.82,2.2,.41,2.72,3.52,2.62,4.81-.1,1.29-1.49,2.39-1.49,2.39,0,0,1.65,2.81,.43,5.02-1.13,2.06-4.19,2.31-4.19,2.31,0,0-1.9,3.01-3.45,3.41-4.56,1.19-19.18-1.8-19.18-1.8l-14.84-15.12-9.26-2.09,2.67-19.05Z"/><path class="cls-5" d="M211.93,212.02c-23.57,14.45-35.67,94.58-35.13,103.15,.54,8.56,6.42,19.27,17.66,21.95s77.08,8.56,77.08,8.56l5.89-26.76-74.31-28.59s2.84-63.29,8.81-78.31Z"/></g><polygon class="cls-30" points="285.19 575.84 283.59 575.82 284.3 524.19 280.38 446.35 281.98 446.27 285.91 524.16 285.19 575.84"/><rect class="cls-30" x="245.46" y="578.98" width="1.61" height="50.48" transform="translate(-47.47 21.6) rotate(-4.58)"/><polygon class="cls-10" points="321.79 335.41 320.28 334.96 324.76 319.69 317.69 292.1 319.21 291.71 326.39 319.71 321.79 335.41"/><path class="cls-10" d="M338.2,324.05c-.05-.05-5.29-5.33-12.44-3.58l-.37-1.53c8.04-1.97,13.71,3.77,13.94,4.02l-1.13,1.1,.57-.55-.57,.55Z"/></g><g><g><path class="cls-30" d="M868.58,395.76c-1.76-.01-3.25-1.37-3.39-3.15l-.03-.33c-.08-1.02,.3-1.98,.96-2.66-.76-.57-1.28-1.46-1.36-2.48l-.02-.33c-.08-1.02,.31-1.98,.97-2.66-.76-.57-1.28-1.46-1.35-2.48l-.02-.33c-.07-1.02,.31-1.98,.98-2.65-.76-.58-1.27-1.47-1.34-2.49l-.02-.33c-.07-1.02,.32-1.97,.99-2.65-.76-.58-1.27-1.47-1.33-2.5l-.02-.32c-.07-1.02,.32-1.97,.99-2.65-.75-.58-1.26-1.47-1.33-2.5l-.02-.32c-.06-1.02,.33-1.97,1-2.64-.75-.58-1.26-1.48-1.32-2.5l-.02-.32c-.06-1.02,.33-1.97,1.01-2.64-.75-.59-1.25-1.48-1.31-2.51l-.02-.32c-.06-1.03,.34-1.97,1.02-2.64-.75-.59-1.25-1.48-1.3-2.51l-.02-.33c-.05-1.02,.35-1.97,1.03-2.63-.75-.59-1.24-1.49-1.29-2.51l-.02-.33c-.05-1.03,.36-1.97,1.04-2.63-.74-.59-1.24-1.49-1.28-2.52l-.02-.33c-.05-1.02,.36-1.96,1.05-2.62-.74-.6-1.23-1.5-1.27-2.53v-.32c-.06-1.03,.36-1.97,1.05-2.62-.74-.6-1.23-1.51-1.26-2.53v-.32c-.05-1.03,.37-1.97,1.06-2.62-.74-.6-1.22-1.51-1.25-2.54v-.34c-.04-1.02,.38-1.96,1.07-2.61-.73-.61-1.21-1.52-1.23-2.55v-.33c-.03-1.03,.39-1.96,1.09-2.6-.73-.61-1.2-1.52-1.22-2.55v-.33c-.03-1.03,.41-1.96,1.11-2.6-.73-.62-1.19-1.54-1.2-2.57v-.32c-.02-1.03,.43-1.96,1.14-2.6-.72-.62-1.18-1.54-1.18-2.57v-.34c0-1.03,.45-1.95,1.16-2.59-.72-.63-1.17-1.56-1.16-2.59v-.33c0-1.03,.47-1.95,1.19-2.57-.71-.64-1.15-1.57-1.13-2.6v-.34c.02-1.03,.5-1.95,1.23-2.56-.7-.65-1.13-1.59-1.1-2.62v-.33c.04-1.03,.53-1.94,1.27-2.55-.69-.66-1.1-1.61-1.05-2.64l.02-.33c.05-1.03,.56-1.94,1.32-2.53-.68-.68-1.07-1.64-1-2.68l.02-.33c.08-1.04,.61-1.93,1.39-2.5-.66-.7-1.03-1.68-.92-2.72l.04-.34c.12-1.05,.7-1.93,1.51-2.47-.64-.74-.96-1.76-.78-2.8,.02-.12,.04-.23,.06-.35,.19-1.07,.85-1.93,1.73-2.42-.6-.83-.82-1.93-.5-2.99,.04-.12,.07-.24,.11-.35,.34-1.08,1.16-1.87,2.15-2.22-.43-.89-.48-1.96-.04-2.92l.14-.31c.43-.94,1.24-1.6,2.17-1.86-.38-.89-.38-1.93,.08-2.87l.15-.3c.47-.94,1.3-1.56,2.24-1.8-.35-.91-.31-1.96,.2-2.88l.16-.29c.51-.92,1.39-1.52,2.35-1.7-.3-.94-.2-2,.37-2.89l.18-.29c.58-.91,1.52-1.45,2.51-1.55-.23-.98-.02-2.06,.65-2.91,.08-.09,.15-.19,.22-.28,.71-.88,1.76-1.31,2.81-1.27-.08-1.08,.35-2.18,1.26-2.91,.11-.09,.21-.17,.32-.25,1.04-.81,2.41-.92,3.53-.4,.48-1.3,1.73-2.24,3.2-2.25h.08c.17,0,.34,0,.5,.02,1.61,.11,2.88,1.32,3.14,2.84,1.4-.29,2.9,.32,3.66,1.62,.17,.29,.27,.5,.31,.57l-6.2,2.89s0,.02,.03,.05c0-.01-.02-.04-.04-.06-.22-.37-.35-.76-.42-1.15-.3,.06-.62,.09-.94,.06-.04,0-.08,0-.12,0-.5,0-.98-.11-1.41-.31-.21,.59-.59,1.12-1.12,1.53-.07,.05-.13,.1-.2,.16-.68,.55-1.5,.8-2.31,.76,.06,.84-.18,1.7-.75,2.41-.06,.08-.12,.15-.19,.23-.59,.75-1.43,1.18-2.31,1.27,.2,.87,.07,1.82-.45,2.63l-.17,.27c-.53,.83-1.35,1.35-2.24,1.52,.28,.87,.22,1.85-.26,2.71l-.16,.28c-.48,.87-1.28,1.45-2.18,1.67,.33,.86,.31,1.86-.13,2.75l-.15,.29c-.45,.9-1.23,1.51-2.12,1.77,.37,.86,.38,1.86-.04,2.77l-.13,.29c-.41,.89-1.15,1.52-2,1.82,.37,.76,.46,1.65,.19,2.52-.03,.09-.06,.18-.09,.28-.27,.9-.87,1.6-1.64,2.02,.52,.72,.76,1.64,.6,2.59-.02,.1-.03,.2-.05,.3-.16,.97-.72,1.78-1.48,2.29,.6,.7,.92,1.63,.81,2.62l-.03,.31c-.11,1-.63,1.84-1.38,2.39,.64,.68,1,1.61,.93,2.61l-.02,.33c-.08,1-.58,1.87-1.31,2.44,.66,.66,1.05,1.59,1,2.6l-.02,.32c-.05,1.01-.53,1.9-1.26,2.49,.68,.65,1.09,1.57,1.06,2.58v.33c-.04,1.01-.51,1.91-1.23,2.51,.69,.64,1.12,1.56,1.1,2.57v.32c-.02,1.02-.48,1.92-1.19,2.54,.7,.63,1.14,1.55,1.13,2.56v.33c0,1.02-.46,1.93-1.17,2.55,.71,.62,1.16,1.54,1.16,2.56v.32c0,1.02-.43,1.94-1.14,2.57,.71,.62,1.17,1.53,1.18,2.55v.33c.02,1.02-.42,1.94-1.12,2.57,.72,.61,1.18,1.52,1.2,2.54v.32c.03,1.02-.4,1.95-1.1,2.59,.72,.61,1.19,1.51,1.22,2.54v.33c.03,1.02-.39,1.94-1.08,2.59,.73,.6,1.2,1.51,1.23,2.53v.32c.04,1.02-.37,1.95-1.07,2.61,.73,.6,1.21,1.5,1.25,2.52v.33c.05,1.02-.36,1.95-1.05,2.6,.73,.6,1.22,1.49,1.26,2.51v.33c.05,1.02-.35,1.95-1.04,2.61,.74,.59,1.23,1.49,1.27,2.51v.32c.06,1.02-.34,1.96-1.02,2.62,.74,.59,1.23,1.49,1.28,2.51l.02,.33c.05,1.02-.35,1.96-1.03,2.62,.74,.59,1.24,1.48,1.29,2.5l.02,.32c.06,1.02-.34,1.96-1.02,2.63,.74,.59,1.24,1.48,1.3,2.5l.02,.33c.06,1.02-.34,1.96-1.01,2.63,.75,.58,1.25,1.47,1.31,2.49l.02,.33c.06,1.02-.33,1.96-1,2.63,.75,.58,1.25,1.47,1.32,2.49l.02,.33c.06,1.02-.33,1.96-1,2.63,.75,.58,1.26,1.46,1.33,2.48l.02,.33c.07,1.02-.32,1.96-.99,2.64,.75,.58,1.26,1.46,1.33,2.48l.02,.33c.07,1.02-.31,1.97-.98,2.64,.75,.57,1.27,1.46,1.34,2.48l.02,.33c.07,1.02-.31,1.97-.97,2.65,.76,.57,1.27,1.45,1.35,2.48l.02,.33c.08,1.02-.3,1.97-.96,2.65,.76,.57,1.28,1.45,1.36,2.47l.03,.33c.15,1.88-1.26,3.53-3.14,3.68-.1,0-.2,.01-.3,.01Z"/><path class="cls-30" d="M863.92,410.87c-1.66-.01-3.11-1.23-3.36-2.92l-.05-.33c-.15-1.02,.17-2,.79-2.73-.8-.52-1.38-1.37-1.52-2.39l-.05-.33c-.14-1.02,.18-2,.81-2.72-.79-.53-1.37-1.38-1.5-2.4l-.04-.33c-.13-1.02,.19-1.99,.82-2.71-.79-.53-1.36-1.39-1.48-2.41l-.04-.32c-.13-1.02,.21-1.99,.84-2.7-.79-.54-1.35-1.4-1.47-2.42l-.04-.33c-.12-1.02,.22-1.99,.85-2.7-.78-.54-1.34-1.41-1.45-2.43l-.04-.33c-.12-1.02,.23-1.99,.87-2.69-.78-.55-1.33-1.41-1.44-2.43l-.04-.33c-.11-1.02,.24-1.99,.89-2.69-.78-.55-1.32-1.42-1.43-2.44l-.03-.33c-.1-1.02,.25-1.98,.9-2.68-.77-.56-1.31-1.43-1.41-2.45l-.03-.33c-.1-1.02,.27-1.98,.92-2.67-.77-.56-1.3-1.44-1.4-2.46l-.03-.33c-.09-1.02,.28-1.98,.94-2.67-.77-.57-1.3-1.45-1.38-2.48l-.03-.32c-.09-1.02,.29-1.98,.95-2.67-.76-.57-1.28-1.46-1.36-2.48l-.02-.33c-.08-1.02,.3-1.98,.97-2.66-.76-.58-1.27-1.46-1.34-2.49l-.02-.33c-.07-1.03,.32-1.98,.99-2.65-.76-.58-1.26-1.48-1.33-2.5l-.02-.33c-.06-1.03,.34-1.97,1.01-2.64-.75-.59-1.25-1.49-1.31-2.52l-.02-.32c-.05-1.03,.35-1.98,1.04-2.64-.75-.59-1.24-1.5-1.29-2.53v-.34c-.06-1.03,.36-1.97,1.05-2.63-.74-.6-1.23-1.51-1.26-2.54v-.34c-.04-1.03,.38-1.96,1.07-2.61-.73-.61-1.21-1.52-1.23-2.55v-.33c-.03-1.03,.4-1.96,1.1-2.6-.72-.62-1.19-1.53-1.2-2.56v-.33c-.02-1.03,.43-1.96,1.14-2.6-.72-.63-1.18-1.55-1.18-2.58v-.33c0-1.03,.46-1.96,1.18-2.58-.71-.64-1.15-1.57-1.14-2.6v-.33c.02-1.03,.49-1.95,1.22-2.56-.7-.65-1.13-1.59-1.1-2.62v-.33c.04-1.03,.53-1.94,1.27-2.55-.69-.66-1.1-1.61-1.06-2.64l.02-.33c.05-1.03,.56-1.94,1.31-2.53-.68-.68-1.08-1.63-1-2.67l.02-.33c.07-1.03,.6-1.93,1.37-2.5-.67-.69-1.04-1.66-.94-2.7l.03-.33c.1-1.03,.65-1.91,1.43-2.47-.65-.71-1-1.69-.87-2.72l.04-.33c.13-1.03,.7-1.9,1.51-2.44-.63-.73-.95-1.73-.78-2.76l.05-.33c.16-1.03,.78-1.88,1.61-2.39-.6-.76-.88-1.78-.67-2.8l.07-.33c.21-1.03,.87-1.86,1.72-2.33-.57-.79-.8-1.83-.53-2.85,.03-.11,.06-.23,.09-.34,.27-1.03,.98-1.82,1.88-2.24-.52-.84-.68-1.9-.34-2.91,.04-.11,.08-.22,.11-.34,.35-1.02,1.14-1.76,2.08-2.1-.45-.9-.51-1.99-.06-2.97,.05-.11,.1-.22,.15-.33,.47-1,1.36-1.67,2.36-1.89-.34-.98-.24-2.1,.37-3.03,.07-.1,.14-.21,.21-.31,.65-.95,1.69-1.47,2.75-1.5-.15-1.07,.21-2.2,1.06-2.99,.09-.08,.17-.16,.26-.24,.79-.72,1.82-1,2.8-.86,.02-.99,.47-1.97,1.31-2.63,.09-.07,.19-.15,.28-.22,.86-.66,1.93-.85,2.91-.61,.12-1.01,.68-1.95,1.62-2.52,.1-.06,.2-.12,.3-.18,.95-.57,2.08-.63,3.04-.24,.27-1.01,1-1.89,2.04-2.3,.12-.05,.23-.09,.35-.14,1.08-.42,2.25-.24,3.14,.36,.5-.98,1.47-1.69,2.64-1.83,.13-.02,.26-.03,.39-.04,1.22-.12,2.36,.42,3.05,1.33,.84-.81,2.08-1.16,3.28-.83,.14,.04,.27,.08,.4,.12,1.23,.38,2.1,1.39,2.35,2.57,1.19-.38,2.55-.09,3.49,.86,.23,.23,.37,.4,.44,.48l-5.31,4.32s.01,.02,.04,.05c-.01-.01-.03-.03-.05-.06-.48-.49-.78-1.08-.91-1.7-.64,.21-1.35,.23-2.05,.01-.08-.02-.15-.05-.23-.07-.75-.21-1.37-.65-1.8-1.22-.53,.51-1.24,.86-2.03,.93-.09,0-.17,.02-.26,.03-.85,.1-1.66-.12-2.32-.56-.37,.72-1,1.31-1.82,1.63-.09,.03-.18,.07-.27,.1-.85,.34-1.75,.31-2.54,0-.22,.83-.75,1.58-1.55,2.06-.09,.05-.17,.1-.26,.16-.81,.49-1.74,.61-2.6,.4-.1,.88-.55,1.72-1.31,2.31-.08,.06-.16,.12-.24,.19-.77,.6-1.71,.82-2.6,.69-.02,.91-.39,1.8-1.11,2.46-.08,.07-.15,.14-.23,.21-.64,.59-1.44,.89-2.25,.91,.11,.81-.06,1.67-.56,2.4-.05,.08-.11,.16-.16,.24-.51,.77-1.28,1.27-2.12,1.45,.29,.82,.27,1.75-.13,2.59-.04,.09-.08,.18-.13,.27-.4,.87-1.12,1.5-1.95,1.8,.4,.8,.5,1.75,.18,2.67-.03,.1-.07,.19-.1,.29-.31,.93-.99,1.63-1.81,2.01,.48,.77,.66,1.73,.41,2.68-.03,.1-.05,.2-.08,.3-.25,.96-.88,1.72-1.69,2.16,.54,.75,.77,1.71,.57,2.68l-.06,.32c-.2,.98-.79,1.77-1.58,2.25,.58,.73,.86,1.68,.7,2.67l-.05,.32c-.16,.99-.72,1.81-1.5,2.32,.61,.71,.92,1.65,.8,2.65l-.04,.32c-.12,1-.66,1.84-1.42,2.38,.63,.69,.98,1.63,.88,2.64l-.03,.32c-.09,1-.61,1.86-1.36,2.42,.65,.67,1.02,1.61,.95,2.62l-.02,.32c-.07,1.01-.57,1.88-1.31,2.46,.67,.66,1.06,1.59,1.01,2.6l-.02,.32c-.05,1.01-.53,1.9-1.26,2.49,.68,.65,1.09,1.57,1.06,2.58v.33c-.04,1.01-.51,1.91-1.23,2.51,.69,.64,1.12,1.56,1.1,2.57v.32c-.02,1.01-.47,1.92-1.18,2.54,.7,.63,1.14,1.54,1.14,2.55v.33c0,1.02-.44,1.93-1.15,2.55,.71,.62,1.16,1.53,1.18,2.54v.32c.02,1.02-.41,1.93-1.11,2.57,.72,.61,1.18,1.51,1.2,2.53v.32c.03,1.02-.39,1.94-1.08,2.58,.73,.6,1.2,1.5,1.23,2.52v.32c.05,1.02-.37,1.95-1.05,2.6,.73,.6,1.22,1.49,1.26,2.51v.33c.06,1.02-.35,1.96-1.03,2.62,.74,.59,1.24,1.48,1.29,2.5l.02,.33c.05,1.02-.34,1.95-1.02,2.61,.74,.58,1.24,1.47,1.3,2.49l.02,.33c.06,1.02-.33,1.96-.99,2.62,.75,.58,1.26,1.46,1.32,2.48l.02,.32c.07,1.02-.31,1.96-.97,2.64,.75,.57,1.27,1.45,1.34,2.47l.02,.33c.08,1.02-.3,1.96-.96,2.64,.76,.57,1.28,1.44,1.36,2.46l.03,.33c.08,1.01-.29,1.96-.94,2.64,.76,.56,1.29,1.43,1.38,2.45l.03,.33c.09,1.02-.27,1.97-.92,2.65,.77,.56,1.3,1.43,1.39,2.44l.03,.32c.1,1.02-.26,1.97-.9,2.67,.77,.55,1.31,1.42,1.41,2.43l.03,.32c.11,1.02-.25,1.98-.89,2.67,.77,.55,1.31,1.41,1.42,2.43l.03,.32c.11,1.02-.23,1.98-.87,2.68,.78,.54,1.32,1.4,1.44,2.42l.04,.33c.12,1.01-.22,1.98-.86,2.68,.78,.54,1.33,1.39,1.45,2.41l.04,.33c.12,1.01-.21,1.98-.84,2.69,.78,.53,1.34,1.39,1.47,2.4l.04,.33c.13,1.01-.2,1.98-.83,2.69,.79,.53,1.35,1.38,1.48,2.39l.04,.33c.13,1.01-.19,1.98-.81,2.69,.79,.52,1.36,1.37,1.5,2.38l.04,.32c.14,1.01-.17,1.98-.79,2.7,.79,.52,1.37,1.36,1.52,2.37l.05,.32c.28,1.87-1.02,3.61-2.88,3.89-.18,.03-.35,.04-.53,.04Z"/><path class="cls-30" d="M854.07,420.72h-.01c-1.89-.02-3.41-1.57-3.39-3.46v-.33c.01-1.02,.47-1.93,1.18-2.55-.7-.63-1.14-1.55-1.14-2.57v-.33c0-1.02,.46-1.94,1.18-2.56-.71-.63-1.15-1.55-1.15-2.57v-.34c0-1.02,.46-1.94,1.17-2.56-.71-.63-1.16-1.55-1.16-2.57v-.33c0-1.02,.45-1.94,1.16-2.57-.71-.63-1.16-1.54-1.16-2.56v-.33c0-1.02,.44-1.94,1.15-2.57-.71-.62-1.16-1.54-1.17-2.56v-.33c0-1.02,.44-1.94,1.15-2.57-.71-.62-1.17-1.54-1.17-2.56v-.33c0-1.02,.43-1.94,1.14-2.57-.72-.62-1.17-1.53-1.18-2.56v-.33c-.01-1.02,.43-1.94,1.13-2.58-.72-.62-1.17-1.53-1.18-2.55v-.33c-.01-1.02,.42-1.94,1.13-2.58-.72-.62-1.18-1.53-1.19-2.55v-.33c-.02-1.02,.42-1.94,1.12-2.58-.72-.62-1.18-1.52-1.2-2.55v-.33c-.02-1.02,.41-1.95,1.11-2.59-.72-.61-1.18-1.52-1.2-2.54v-.33c-.02-1.02,.41-1.95,1.11-2.59-.72-.61-1.19-1.52-1.21-2.54v-.33c-.03-1.02,.4-1.95,1.1-2.59-.72-.61-1.19-1.52-1.22-2.54v-.32c-.03-1.02,.39-1.95,1.09-2.59-.72-.61-1.2-1.51-1.22-2.53v-.33c-.04-1.02,.39-1.95,1.08-2.6-.73-.61-1.2-1.51-1.23-2.53v-.33c-.04-1.02,.38-1.95,1.07-2.6-.73-.6-1.2-1.5-1.24-2.52v-.33c-.04-1.02,.38-1.96,1.07-2.61-.73-.6-1.21-1.5-1.25-2.53v-.33c-.05-1.02,.37-1.95,1.06-2.61-.73-.6-1.22-1.5-1.26-2.51v-.34c-.05-1.02,.36-1.95,1.04-2.61-.74-.6-1.22-1.49-1.26-2.52v-.32c-.06-1.02,.35-1.95,1.03-2.61-.73-.59-1.22-1.48-1.27-2.5l-.02-.33c-.05-1.02,.35-1.95,1.03-2.61-.74-.59-1.23-1.49-1.28-2.52v-.33c-.06-1.03,.36-1.97,1.05-2.63-.74-.61-1.22-1.52-1.25-2.55v-.32c-.04-1.03,.39-1.98,1.1-2.63-.73-.62-1.2-1.54-1.21-2.58v-.33c-.01-1.03,.44-1.97,1.16-2.6-.72-.64-1.17-1.57-1.16-2.61v-.34c.02-1.04,.49-1.96,1.22-2.58-.7-.65-1.13-1.6-1.09-2.63v-.34c.05-1.04,.55-1.95,1.31-2.55-.69-.68-1.09-1.64-1.02-2.67l.02-.33c.07-1.04,.6-1.94,1.38-2.52-.67-.7-1.03-1.68-.92-2.72l.04-.33c.11-1.04,.68-1.92,1.49-2.47-.64-.74-.96-1.74-.8-2.77l.05-.34c.17-1.04,.79-1.9,1.62-2.4-.6-.77-.87-1.8-.64-2.83l.07-.34c.23-1.04,.91-1.86,1.79-2.31-.55-.82-.75-1.87-.44-2.89,.03-.11,.07-.22,.1-.34,.32-1.03,1.07-1.8,2-2.17-.48-.88-.58-1.96-.17-2.96,.04-.11,.09-.22,.13-.32,.42-1,1.27-1.7,2.24-1.98-.39-.94-.36-2.04,.18-2.99,.06-.1,.12-.21,.18-.31,.55-.96,1.49-1.55,2.5-1.69-.26-.99-.07-2.09,.6-2.97,.07-.1,.15-.19,.22-.29,.68-.86,1.69-1.31,2.71-1.3h.03c-.11-1.02,.25-2.08,1.05-2.84,.09-.08,.18-.17,.27-.25,.81-.75,1.89-1.03,2.9-.86,.05-1.02,.55-2.01,1.45-2.64,.1-.07,.2-.14,.3-.21,.9-.62,1.99-.75,2.96-.45,.18-.99,.8-1.9,1.76-2.41,.1-.05,.21-.11,.31-.16,.95-.5,2.03-.5,2.95-.11,.28-.95,.97-1.77,1.95-2.19,.11-.05,.22-.09,.32-.13,1.01-.42,2.11-.32,3,.19,.4-.96,1.23-1.73,2.32-2.01,.12-.03,.25-.06,.37-.09,1.21-.29,2.42,.11,3.24,.93,.84-1.01,2.23-1.49,3.58-1.1,.19,.05,.37,.11,.55,.18,1.68,.62,2.58,2.43,2.11,4.13,1.52,.51,2.52,2.03,2.31,3.68-.04,.34-.1,.58-.12,.67l-6.67-1.56s0,.02-.01,.07c0-.01,0-.03,0-.05,.02-.16,.05-.33,.1-.48-.03-.01-.07-.02-.1-.04-.02,0-.05-.02-.07-.02-.59-.17-1.1-.48-1.5-.89-.46,.55-1.09,.96-1.84,1.14-.09,.02-.18,.04-.27,.07-.89,.23-1.79,.08-2.53-.34-.34,.81-.98,1.49-1.85,1.85-.1,.04-.19,.08-.29,.12-.9,.38-1.86,.34-2.69-.01-.25,.86-.84,1.62-1.7,2.07-.09,.05-.18,.1-.27,.14-.84,.45-1.78,.51-2.63,.24-.16,.86-.65,1.67-1.43,2.21-.08,.06-.16,.11-.24,.17-.77,.54-1.68,.72-2.53,.57-.04,.86-.41,1.71-1.09,2.35-.07,.07-.14,.13-.21,.2-.68,.64-1.54,.96-2.41,.94,.09,.86-.14,1.75-.72,2.48-.06,.08-.12,.16-.18,.23-.57,.74-1.38,1.18-2.24,1.3,.22,.84,.12,1.76-.34,2.58-.05,.09-.1,.17-.15,.26-.46,.83-1.22,1.38-2.07,1.62,.34,.81,.36,1.76,0,2.63-.04,.09-.08,.19-.12,.28-.37,.89-1.06,1.54-1.89,1.87,.43,.78,.56,1.73,.28,2.66-.03,.1-.06,.2-.09,.29-.28,.93-.92,1.66-1.73,2.07,.51,.75,.71,1.7,.5,2.66l-.07,.31c-.21,.96-.81,1.74-1.59,2.21,.56,.72,.84,1.67,.68,2.64l-.05,.31c-.15,.98-.71,1.8-1.47,2.31,.6,.7,.93,1.63,.82,2.62l-.03,.32c-.11,.99-.63,1.84-1.37,2.39,.64,.67,1,1.6,.93,2.59l-.02,.32c-.07,1-.56,1.87-1.29,2.45,.66,.65,1.06,1.57,1.02,2.58v.32c-.05,1.01-.52,1.9-1.23,2.5,.69,.64,1.11,1.55,1.1,2.55v.32c-.02,1.01-.46,1.91-1.16,2.53,.7,.62,1.15,1.52,1.16,2.53v.33c.01,1.01-.42,1.92-1.11,2.56,.72,.61,1.18,1.5,1.21,2.51v.32c.04,1.01-.37,1.94-1.06,2.58,.73,.6,1.21,1.49,1.25,2.5v.32c.06,1.02-.34,1.95-1.02,2.61,.74,.59,1.23,1.49,1.28,2.51l.02,.32c.05,1.02-.36,1.97-1.04,2.63,.74,.6,1.23,1.49,1.27,2.52v.33c.06,1.02-.35,1.96-1.04,2.62,.74,.6,1.22,1.5,1.26,2.53v.32c.05,1.03-.36,1.97-1.05,2.62,.74,.6,1.22,1.51,1.26,2.53v.33c.05,1.03-.37,1.96-1.07,2.62,.74,.6,1.22,1.51,1.25,2.54v.33c.04,1.03-.38,1.96-1.07,2.61,.73,.61,1.21,1.51,1.24,2.54v.32c.04,1.03-.38,1.96-1.08,2.61,.73,.61,1.2,1.51,1.23,2.54v.33c.04,1.03-.39,1.96-1.09,2.6,.73,.61,1.2,1.52,1.22,2.54v.33c.03,1.02-.4,1.95-1.1,2.59,.73,.61,1.2,1.52,1.22,2.55v.33c.03,1.03-.4,1.95-1.1,2.6,.72,.61,1.19,1.53,1.21,2.55v.32c.03,1.03-.41,1.96-1.11,2.6,.72,.62,1.19,1.53,1.2,2.55v.33c.02,1.03-.41,1.95-1.12,2.59,.72,.62,1.18,1.53,1.2,2.56v.33c.02,1.02-.42,1.95-1.13,2.59,.72,.62,1.18,1.54,1.19,2.56v.32c.02,1.03-.43,1.95-1.13,2.59,.72,.62,1.18,1.54,1.18,2.56v.33c.01,1.02-.43,1.95-1.14,2.58,.72,.62,1.17,1.54,1.18,2.57v.32c0,1.03-.44,1.95-1.15,2.58,.72,.62,1.17,1.54,1.17,2.57v.33c0,1.03-.44,1.95-1.15,2.58,.71,.63,1.17,1.54,1.17,2.57v.33c0,1.03-.45,1.95-1.16,2.58,.71,.63,1.16,1.55,1.16,2.57v.33c0,1.03-.45,1.94-1.17,2.57,.71,.63,1.16,1.55,1.16,2.58v.32c0,1.03-.46,1.95-1.18,2.57,.71,.63,1.16,1.55,1.15,2.58v.33c0,1.03-.46,1.94-1.18,2.57,.71,.63,1.15,1.56,1.14,2.59v.33c-.02,1.89-1.56,3.4-3.45,3.39Z"/><path class="cls-30" d="M845.47,412.44c-1.78-.01-3.28-1.4-3.39-3.21v-.22c-.08-1.03,.32-1.98,1-2.65-.75-.59-1.25-1.49-1.31-2.52l-.02-.33c-.05-1.03,.35-1.97,1.03-2.63-.74-.59-1.24-1.49-1.29-2.52l-.02-.33c-.05-1.03,.36-1.97,1.05-2.63-.74-.6-1.23-1.5-1.27-2.52v-.34c-.05-1.02,.36-1.96,1.05-2.62-.74-.6-1.22-1.51-1.26-2.53v-.33c-.05-1.03,.37-1.96,1.06-2.61-.74-.61-1.21-1.51-1.25-2.54v-.33c-.04-1.03,.38-1.96,1.08-2.61-.73-.61-1.21-1.52-1.23-2.55v-.33c-.03-1.02,.39-1.96,1.09-2.6-.73-.61-1.2-1.52-1.22-2.55v-.33c-.03-1.03,.4-1.95,1.11-2.6-.73-.62-1.19-1.53-1.21-2.56v-.33c-.02-1.03,.42-1.95,1.12-2.59-.72-.62-1.18-1.54-1.19-2.56v-.33c-.01-1.03,.43-1.95,1.14-2.58-.72-.62-1.18-1.54-1.18-2.57v-.33c0-1.03,.44-1.95,1.15-2.58-.71-.63-1.17-1.55-1.17-2.57v-.34c0-1.03,.45-1.95,1.17-2.57-.71-.63-1.16-1.55-1.15-2.58v-.33c0-1.03,.47-1.94,1.19-2.57-.71-.64-1.15-1.56-1.14-2.59v-.33c.02-1.03,.48-1.94,1.21-2.56-.71-.64-1.14-1.57-1.12-2.6v-.33c.03-1.03,.5-1.94,1.22-2.55-.7-.65-1.13-1.58-1.1-2.6v-.33c.04-1.03,.51-1.94,1.25-2.55-.7-.65-1.12-1.59-1.09-2.62v-.34c.05-1.03,.53-1.93,1.27-2.54-.69-.66-1.11-1.59-1.06-2.62v-.33c.06-1.03,.55-1.93,1.29-2.53-.68-.66-1.09-1.6-1.04-2.63l.02-.33c.05-1.03,.55-1.92,1.3-2.51-.68-.67-1.07-1.62-1.01-2.64l.02-.33c.06-1.03,.57-1.92,1.33-2.51-.67-.68-1.06-1.63-.99-2.66l.02-.33c.07-1.03,.59-1.92,1.36-2.49-.67-.68-1.04-1.64-.96-2.67l.03-.33c.09-1.03,.62-1.91,1.39-2.48-.66-.69-1.02-1.66-.93-2.68l.03-.33c.1-1.03,.64-1.9,1.42-2.46-.65-.7-1-1.67-.89-2.7l.04-.33c.11-1.03,.67-1.9,1.46-2.44-.64-.71-.97-1.69-.84-2.72l.04-.33c.13-1.03,.71-1.89,1.51-2.41-.63-.73-.94-1.71-.79-2.74l.05-.33c.15-1.02,.75-1.87,1.56-2.39-.61-.74-.91-1.74-.73-2.76l.06-.33c.18-1.02,.79-1.86,1.62-2.35-.59-.76-.87-1.77-.66-2.79l.07-.33c.21-1.02,.85-1.84,1.7-2.31-.57-.78-.81-1.8-.57-2.82l.08-.33c.24-1.02,.92-1.82,1.79-2.26-.54-.81-.74-1.84-.45-2.85l.09-.33c.29-1.01,1.01-1.79,1.91-2.19-.51-.84-.65-1.89-.3-2.89l.11-.33c.36-1.01,1.14-1.74,2.07-2.08-.45-.89-.51-1.96-.08-2.94,.05-.11,.1-.21,.14-.32,.45-.99,1.31-1.67,2.29-1.91-.37-.95-.3-2.06,.27-3,.06-.1,.13-.21,.19-.31,.59-.95,1.57-1.52,2.61-1.61-.21-1,.02-2.08,.73-2.92l.22-.26c.68-.8,1.66-1.21,2.63-1.21h.06c-.1-.99,.24-2.02,1-2.78,.08-.08,.17-.17,.25-.25,.78-.76,1.83-1.07,2.83-.94,0-1.02,.47-2.02,1.34-2.69,.09-.07,.19-.14,.28-.22,.89-.67,1.99-.84,2.98-.57,.16-1.03,.78-1.97,1.76-2.5,.11-.06,.21-.11,.32-.17,1.01-.53,2.16-.51,3.1-.04,.35-1,1.16-1.83,2.26-2.15,.12-.04,.25-.07,.37-.11,1.12-.31,2.26-.03,3.09,.65,.58-.91,1.59-1.53,2.76-1.58,.13,0,.25,0,.38-.01,1.17-.03,2.21,.54,2.85,1.42,.8-.73,1.93-1.08,3.06-.82,.13,.03,.25,.06,.37,.09,1.12,.27,1.98,1.06,2.38,2.06,.94-.51,2.1-.58,3.13-.08,.11,.05,.22,.11,.33,.16,1.02,.51,1.67,1.45,1.85,2.49,1.01-.3,2.14-.14,3.04,.54,.1,.08,.2,.15,.3,.23,.9,.69,1.35,1.74,1.33,2.79,1.06-.11,2.16,.28,2.92,1.14,.2,.23,.3,.36,.3,.36,1.18,1.47,.96,3.63-.51,4.81-1.46,1.19-3.61,.97-4.8-.49-.02-.02-.06-.07-.13-.16-.59-.67-.87-1.51-.85-2.34-.84,.09-1.72-.14-2.45-.69-.08-.06-.15-.12-.23-.17-.73-.55-1.18-1.33-1.32-2.17-.8,.24-1.7,.19-2.51-.22-.09-.04-.17-.09-.26-.13-.8-.39-1.38-1.05-1.69-1.81-.72,.39-1.58,.53-2.44,.33-.09-.02-.18-.04-.27-.06-.85-.19-1.56-.68-2.03-1.34-.59,.55-1.38,.89-2.24,.91-.09,0-.19,0-.28,0-.87,.03-1.68-.26-2.3-.78-.44,.69-1.12,1.22-1.96,1.45-.09,.02-.18,.05-.26,.08-.86,.25-1.74,.16-2.48-.21-.28,.79-.84,1.48-1.64,1.9-.09,.05-.17,.09-.26,.14-.81,.44-1.72,.51-2.54,.28-.13,.85-.58,1.66-1.32,2.22-.08,.06-.16,.12-.24,.18-.75,.58-1.66,.79-2.53,.68,0,.88-.35,1.77-1.04,2.43-.07,.07-.14,.14-.22,.21-.69,.68-1.58,1-2.48,.98,.09,.89-.17,1.82-.8,2.56l-.2,.24c-.61,.72-1.45,1.13-2.32,1.2,.18,.83,.04,1.73-.44,2.51-.05,.08-.1,.17-.16,.25-.49,.81-1.26,1.34-2.1,1.55,.32,.82,.32,1.77-.08,2.64-.04,.09-.08,.19-.13,.28-.39,.89-1.12,1.52-1.97,1.83,.41,.81,.5,1.78,.18,2.7l-.1,.3c-.33,.93-1.01,1.63-1.85,2,.47,.79,.63,1.76,.36,2.71l-.09,.31c-.27,.96-.93,1.7-1.75,2.12,.52,.77,.72,1.74,.49,2.71l-.07,.31c-.23,.97-.86,1.75-1.67,2.2,.55,.75,.79,1.72,.59,2.7l-.06,.32c-.2,.99-.8,1.79-1.6,2.26,.58,.74,.85,1.7,.68,2.7l-.06,.32c-.17,.99-.76,1.82-1.55,2.31,.6,.72,.89,1.69,.74,2.69l-.05,.32c-.15,1-.72,1.84-1.5,2.35,.61,.71,.93,1.67,.8,2.67l-.04,.32c-.13,1.01-.68,1.85-1.45,2.39,.63,.7,.96,1.65,.85,2.66l-.04,.33c-.11,1.01-.65,1.87-1.42,2.41,.64,.69,.99,1.64,.89,2.65l-.03,.32c-.1,1.01-.62,1.88-1.38,2.43,.65,.68,1.01,1.63,.93,2.64l-.03,.32c-.08,1.01-.6,1.89-1.35,2.46,.66,.67,1.03,1.62,.96,2.63l-.02,.33c-.07,1.01-.58,1.89-1.33,2.47,.66,.67,1.05,1.61,.99,2.62l-.02,.33c-.06,1.01-.56,1.9-1.3,2.48,.67,.66,1.07,1.6,1.01,2.61l-.02,.32c-.05,1.02-.54,1.91-1.28,2.5,.68,.66,1.08,1.59,1.04,2.6v.32c-.05,1.02-.54,1.92-1.27,2.52,.69,.65,1.1,1.58,1.07,2.6v.33c-.04,1.02-.52,1.92-1.25,2.53,.69,.65,1.12,1.57,1.09,2.6v.32c-.03,1.02-.5,1.92-1.23,2.53,.69,.64,1.12,1.56,1.1,2.58v.33c-.03,1.02-.49,1.93-1.21,2.54,.7,.64,1.13,1.56,1.12,2.58h0v.32c-.02,1.02-.47,1.93-1.19,2.55,.7,.63,1.14,1.55,1.14,2.57v.32c0,1.02-.46,1.93-1.17,2.56,.71,.63,1.15,1.54,1.15,2.56v.32c0,1.02-.45,1.94-1.15,2.57,.71,.62,1.16,1.54,1.17,2.56v.33c0,1.02-.43,1.94-1.14,2.57,.71,.62,1.17,1.53,1.18,2.55v.33c.01,1.02-.42,1.94-1.12,2.57,.72,.62,1.18,1.52,1.19,2.54v.33c.02,1.02-.41,1.94-1.11,2.58,.72,.61,1.19,1.52,1.21,2.54v.32c.03,1.02-.4,1.95-1.09,2.59,.72,.61,1.19,1.51,1.22,2.54v.33c.03,1.02-.39,1.94-1.08,2.59,.73,.6,1.2,1.51,1.23,2.53v.33c.04,1.02-.38,1.95-1.06,2.59,.73,.6,1.21,1.5,1.24,2.52v.33c.05,1.02-.37,1.95-1.05,2.6,.73,.6,1.22,1.5,1.26,2.52v.32c.06,1.02-.35,1.96-1.04,2.61,.74,.59,1.22,1.49,1.27,2.51l.02,.33c.05,1.02-.36,1.96-1.03,2.62,.74,.59,1.23,1.48,1.29,2.5l.02,.33c.05,1.02-.34,1.96-1.02,2.62,.74,.58,1.24,1.47,1.31,2.48v.21c.13,1.89-1.3,3.51-3.19,3.63-.08,0-.16,0-.24,0Z"/></g><polygon class="cls-30" points="917.05 241.34 927.45 280.83 918.22 341.41 858.56 323.48 854.67 281.13 863.49 257.65 917.05 241.34"/><rect class="cls-9" x="861.91" y="529.2" width="8.02" height="179.63"/><rect class="cls-9" x="949.56" y="499.15" width="8.02" height="179.63"/><rect class="cls-9" x="808.26" y="471.98" width="8.02" height="179.63"/><path class="cls-9" d="M899.09,360.72l70.31,.91c6.82,.09,12.06,6.07,11.26,12.84l-18.9,159.13c-.37,3.12-2.99,5.48-6.13,5.52l-131.52,1.64,74.99-180.04Z"/><polygon class="cls-31" points="956.24 522.41 874.27 512.56 841.44 526.48 956.24 522.41"/><path class="cls-31" d="M777.69,483.3c-3.49,114.15-22.84,206.51-22.84,206.51,0,0,19.98-8.83,24.06-12.22,4.07-3.4,27-98.53,28.29-109.66,2.85-24.64,4.7-54.69,4.7-54.69,0,0-33.86-41.3-34.2-29.94Z"/><path class="cls-31" d="M733.12,500.33c-3.49,114.15-22.78,189.48-22.78,189.48,0,0,20.52-8.83,24.59-12.22,4.07-3.4,28.29-88.63,30.71-118.38,1.44-17.68,1.9-38.38,2.04-51.08,.08-7.23,22.29-15.75,22.29-15.75,0,0-27.66-12.45-37.46-11.06-16.53,2.34-18.34,11.4-19.4,19.01Z"/><g id="head-4"><g id="neck"><polygon class="cls-24" points="903.88 307.41 884.57 343.23 874.55 311.12 876.92 278.38 901.51 273.86 903.88 307.41"/><path class="cls-24" d="M897.88,283.52l-21.96,11.48c6.53,13.99,19.3-2.53,21.96-11.48Z"/></g><path id="hair-3" class="cls-30" d="M917.61,244.25c0,16.34-13.36,31.29-29.84,31.29s-29.84-14.95-29.84-31.29,13.36-29.59,29.84-29.59,29.84,13.25,29.84,29.59Z"/><g id="face-2"><path class="cls-24" d="M905.01,249.9c-2.12-14.06-14.17-21.36-27.03-21.36s-19.27,8.45-19.27,21.36c0,0,.1,16.47,.1,17.27,0,9.65,8.36,27.83,17.65,27.83,10.72,0,29.01-14.27,29.01-23.57,0-.8,.35-16.21-.45-21.53Z"/></g><g id="eyebrows-2"><g><path class="cls-30" d="M880.7,249.47s9.59-.96,11.44-.78c3.08,.3,3.74,2.3,4.22,3.38,.17,.37-12.52,1.61-14.37,.95-1.84-.67-1.29-3.55-1.29-3.55Z"/><path class="cls-30" d="M871.13,249.47s-9.59-.96-11.44-.78c-.35,.03-.68,.09-.97,.17-1.03,.22-1.03,3.65-.2,3.75,3.83,.44,10.07,.86,11.32,.41,1.84-.67,1.29-3.55,1.29-3.55Z"/></g></g><path class="cls-12" d="M885.99,256.38c-1.49,.53-1.46,4.08-1.35,5.42,.08,.93,.83,3.56,2.13,2.58,1.59-1.2,1.42-4.87,.96-6.68-.21-.81-.89-1.61-1.74-1.31Z"/><path class="cls-12" d="M864.05,256.73c-1.49,.53-1.46,4.08-1.35,5.42,.08,.93,.83,3.56,2.13,2.58,1.59-1.2,1.42-4.87,.96-6.68-.21-.81-.89-1.61-1.74-1.31Z"/><path class="cls-25" d="M871.43,270.57c.01-1.03,.04-2.05,.09-3.08,.1-2.14,.28-4.28,.53-6.41,.04-.38-.55-.37-.6,0-.4,3.43-.64,6.88-.62,10.33,.01,2.33,1.13,3.14,3.37,2.63,.37-.09,.21-.66-.16-.57-1.05,.24-2.18,.5-2.6-1.29-.11-.46-.01-1.15,0-1.61Z"/><path class="cls-25" d="M877.85,271.37c-.92,.21-1.84,.43-2.76,.64-.37,.09-.21,.66,.16,.57l2.76-.64c.37-.09,.21-.66-.16-.57Z"/><path class="cls-7" d="M882.44,279.57s-2.33,.41-6.28,.68c-3.95,.27-7.54-.37-7.54-.37,0,0,2.12,3.71,6.72,3.81,4.6,.1,7.1-4.12,7.1-4.12Z"/></g><path class="cls-4" d="M874.55,306.78s2.78,13.58,11.61,12.22c8.83-1.36,17.73-16.4,17.73-16.4,0,0,42.47,19.19,45.18,28.7,2.72,9.51,2.96,103.83,1.61,113.33-1.36,9.51-25.13,48.22-25.13,48.22l-19.02-3.4s-18.34,23.77-23.09,28.52-60.66,26.18-60.66,26.18c-20.68-8.22-37.15-44.24-84.43-57.15,10.83-14.19,27.17-20.57,34-26.87,8.83-8.15,33.67-30.78,37.06-36.21,3.4-5.43,23.65-92.02,31.18-100.17,7.53-8.15,33.95-16.98,33.95-16.98Z"/><path class="cls-24" d="M925.55,492.86l-9.61,20.54s-4.84,10.48-7.77,12.68c-5.41,4.07-13.69,2.09-19.81,.39-5.01-1.39,2.72-17.43,2.72-17.43l15.45-19.58c13.24-5.26,19.02,3.4,19.02,3.4Z"/><rect class="cls-23" x="889.88" y="522.08" width="8.51" height=".54" transform="translate(172.3 1264.83) rotate(-76.1)"/><rect class="cls-23" x="896.47" y="523.66" width="9.25" height=".54" transform="translate(132.01 1227.49) rotate(-72.63)"/><polygon class="cls-22" points="912.74 472.17 911.18 471.79 920.38 434.46 916.2 365.98 917.81 365.88 922 434.61 912.74 472.17"/><path class="cls-22" d="M933.99,437.67c-.06-.05-5.71-4.87-12.7-2.43l-.53-1.52c7.89-2.76,14.03,2.51,14.28,2.74l-1.06,1.21,.53-.6-.53,.6Z"/><path class="cls-12" d="M783.77,671.59c1.6,.38,6.81,28.26,4.3,29.81-2.51,1.54-74.03,5.04-78.31,1.11-2.25-2.07-.24-11.59,1.25-12.06,27.37-8.63,48.45-24.93,48.45-24.93,0,0,5.65,3.39,4.95,7.2l-.79,1.62s4.59,4.01,8.89,3.47c4.3-.55,7.2-7.18,11.25-6.22Z"/><path class="cls-12" d="M740,665.45c1.6,.38,6.81,28.26,4.3,29.81-2.51,1.54-74.03,5.04-78.31,1.11-2.25-2.07-.24-11.59,1.25-12.06,27.37-8.63,48.45-24.93,48.45-24.93,0,0,5.65,3.39,4.95,7.2l-.79,1.62s4.59,4.01,8.89,3.47c4.3-.55,7.2-7.18,11.25-6.22Z"/><polygon class="cls-22" points="775.9 460.87 775.22 459.42 835.34 431.15 843.32 367.62 844.91 367.82 836.82 432.22 775.9 460.87"/><g><g class="cls-35"><g><polygon class="cls-11" points="850.96 494.57 891.72 457.5 782.37 444.68 850.96 494.57"/><g><polygon class="cls-30" points="851.77 478.34 858.16 473.06 851.77 472.34 851.77 478.34"/><polygon class="cls-30" points="851.96 465.62 851.96 467.29 853.77 465.79 851.96 465.62"/><polygon class="cls-30" points="851.97 468.88 851.97 471.1 859.55 471.93 865.46 467.05 855.54 465.98 851.97 468.88"/></g><polygon class="cls-18" points="849.62 497.25 850.96 494.57 891.72 457.5 891.54 459.1 849.62 497.25"/></g></g><path class="cls-18" d="M846.79,497.53l-87.63-14.69c-2.24-.34-3.91-2.26-3.91-4.53v-65.79c0-2.8,2.49-4.95,5.26-4.53l87.63,14.69c2.24,.34,3.91,2.26,3.91,4.53v65.79c0,2.8-2.49,4.95-5.26,4.53Z"/><ellipse class="cls-8" cx="803.36" cy="452.67" rx="6.69" ry="7.4"/></g><g><path class="cls-30" d="M904.12,392.15c1.76,0,3.25-1.35,3.41-3.13l.03-.33c.09-1.02-.28-1.98-.95-2.67,.77-.57,1.29-1.45,1.38-2.47l.03-.33c.08-1.02-.29-1.98-.95-2.66,.76-.57,1.29-1.45,1.37-2.47l.03-.33c.08-1.02-.3-1.98-.96-2.66,.76-.57,1.28-1.46,1.36-2.48l.02-.33c.08-1.02-.3-1.98-.97-2.66,.76-.57,1.28-1.46,1.35-2.49l.02-.32c.07-1.02-.31-1.98-.98-2.65,.76-.58,1.27-1.47,1.34-2.49l.02-.32c.07-1.02-.31-1.97-.98-2.65,.76-.58,1.27-1.47,1.34-2.49l.02-.32c.07-1.02-.32-1.97-.99-2.65,.75-.58,1.26-1.47,1.33-2.5l.02-.32c.07-1.02-.33-1.97-1-2.64,.75-.58,1.26-1.47,1.32-2.5l.02-.33c.06-1.02-.33-1.97-1.01-2.64,.75-.59,1.25-1.48,1.31-2.5l.02-.33c.06-1.02-.34-1.97-1.02-2.64,.75-.59,1.25-1.48,1.3-2.51l.02-.33c.05-1.02-.35-1.97-1.03-2.63,.75-.59,1.24-1.49,1.29-2.52l.02-.32c.05-1.03-.36-1.97-1.04-2.63,.74-.6,1.24-1.5,1.28-2.53v-.32c.06-1.03-.35-1.97-1.04-2.63,.74-.6,1.23-1.5,1.27-2.53v-.34c.05-1.02-.36-1.96-1.05-2.61,.74-.6,1.22-1.51,1.25-2.54v-.33c.04-1.03-.38-1.96-1.07-2.61,.73-.61,1.21-1.52,1.24-2.54v-.33c.04-1.03-.39-1.96-1.09-2.61,.73-.61,1.2-1.53,1.22-2.56v-.32c.03-1.03-.41-1.96-1.12-2.6,.72-.62,1.19-1.53,1.2-2.56v-.34c.01-1.03-.43-1.96-1.14-2.59,.72-.63,1.18-1.55,1.18-2.58v-.33c0-1.03-.45-1.95-1.17-2.58,.71-.63,1.16-1.56,1.15-2.59v-.34c-.01-1.03-.48-1.95-1.21-2.57,.71-.64,1.14-1.58,1.11-2.61v-.33c-.03-1.03-.51-1.95-1.25-2.56,.7-.66,1.12-1.6,1.07-2.64v-.34c-.06-1.03-.56-1.94-1.31-2.54,.69-.68,1.09-1.64,1.02-2.67l-.02-.33c-.07-1.04-.6-1.94-1.38-2.51,.67-.7,1.04-1.68,.93-2.72l-.04-.34c-.11-1.05-.68-1.93-1.49-2.48,.65-.74,.97-1.75,.8-2.79-.02-.12-.04-.23-.06-.35-.18-1.07-.84-1.94-1.71-2.43,.61-.83,.83-1.92,.52-2.98-.03-.12-.07-.24-.11-.35-.33-1.08-1.15-1.88-2.14-2.23,.44-.88,.49-1.95,.06-2.92l-.14-.31c-.43-.95-1.23-1.61-2.16-1.88,.39-.89,.39-1.93-.06-2.87l-.15-.3c-.46-.94-1.29-1.57-2.23-1.81,.35-.91,.32-1.96-.18-2.88l-.16-.29c-.51-.93-1.38-1.53-2.34-1.72,.31-.93,.21-2-.35-2.89l-.18-.29c-.58-.91-1.51-1.46-2.5-1.57,.24-.98,.04-2.06-.63-2.91-.07-.1-.15-.19-.22-.28-.7-.88-1.75-1.32-2.8-1.29,.09-1.08-.34-2.18-1.24-2.92-.11-.09-.21-.17-.32-.25-1.04-.81-2.4-.93-3.52-.43-.47-1.31-1.71-2.25-3.18-2.27h-.08c-.17,0-.34,0-.5,.01-1.61,.1-2.89,1.3-3.16,2.82-1.4-.3-2.9,.3-3.67,1.6-.17,.29-.27,.5-.31,.57l6.18,2.93s0,.02-.03,.05c0-.01,.02-.04,.04-.06,.22-.37,.36-.76,.43-1.15,.3,.06,.62,.09,.94,.07,.04,0,.08,0,.12,0,.5,0,.98-.11,1.41-.3,.21,.59,.58,1.12,1.11,1.54,.07,.05,.13,.1,.2,.16,.67,.55,1.5,.81,2.3,.78-.07,.84,.17,1.7,.74,2.41,.06,.08,.12,.16,.19,.24,.59,.75,1.43,1.19,2.3,1.29-.21,.87-.08,1.82,.43,2.63l.17,.27c.52,.83,1.34,1.36,2.23,1.54-.29,.87-.23,1.85,.24,2.71l.15,.28c.47,.87,1.27,1.46,2.17,1.68-.34,.86-.32,1.86,.11,2.75l.14,.29c.44,.9,1.22,1.52,2.11,1.78-.37,.85-.39,1.86,.02,2.77l.13,.3c.4,.89,1.13,1.53,1.99,1.83-.38,.76-.47,1.65-.21,2.52,.03,.09,.06,.18,.08,.28,.26,.9,.86,1.61,1.62,2.03-.53,.72-.77,1.64-.61,2.59,.02,.1,.03,.2,.05,.3,.16,.97,.71,1.79,1.47,2.3-.6,.69-.93,1.63-.83,2.61l.03,.31c.1,1,.62,1.85,1.37,2.4-.64,.67-1.01,1.6-.94,2.6l.02,.33c.07,1,.56,1.88,1.29,2.45-.67,.66-1.06,1.58-1.02,2.59v.32c.06,1.01,.53,1.9,1.26,2.5-.68,.64-1.1,1.56-1.07,2.57v.33c.03,1.01,.5,1.91,1.21,2.52-.69,.63-1.13,1.55-1.12,2.57v.32c.01,1.02,.46,1.93,1.17,2.55-.7,.63-1.15,1.54-1.15,2.55v.33c0,1.02,.44,1.93,1.15,2.56-.71,.62-1.17,1.53-1.18,2.55v.32c-.02,1.02,.42,1.95,1.12,2.58-.72,.61-1.18,1.52-1.2,2.54v.33c-.03,1.02,.4,1.94,1.1,2.58-.72,.61-1.19,1.51-1.22,2.53v.32c-.04,1.02,.39,1.95,1.08,2.6-.73,.6-1.21,1.51-1.24,2.53v.33c-.04,1.02,.37,1.95,1.06,2.59-.73,.6-1.21,1.5-1.25,2.52v.32c-.05,1.02,.36,1.96,1.05,2.61-.74,.6-1.22,1.49-1.27,2.51v.33c-.06,1.02,.35,1.95,1.03,2.61-.74,.59-1.23,1.49-1.28,2.5l-.02,.33c-.05,1.02,.35,1.96,1.03,2.61-.74,.59-1.24,1.48-1.29,2.5l-.02,.32c-.05,1.02,.34,1.96,1.02,2.63-.74,.59-1.24,1.48-1.3,2.5l-.02,.33c-.06,1.02,.34,1.96,1.01,2.63-.75,.58-1.25,1.47-1.31,2.49l-.02,.32c-.06,1.02,.33,1.97,1,2.63-.75,.58-1.25,1.47-1.32,2.49l-.02,.33c-.06,1.02,.33,1.96,.99,2.63-.75,.58-1.26,1.46-1.33,2.48l-.02,.33c-.07,1.02,.32,1.96,.99,2.64-.75,.58-1.26,1.46-1.33,2.48l-.02,.33c-.07,1.02,.31,1.96,.98,2.64-.75,.57-1.27,1.46-1.34,2.48l-.02,.33c-.07,1.02,.31,1.97,.97,2.64-.76,.57-1.27,1.45-1.35,2.47l-.03,.33c-.08,1.02,.3,1.97,.96,2.65-.76,.57-1.28,1.45-1.36,2.47l-.03,.33c-.08,1.02,.29,1.97,.95,2.65-.76,.57-1.28,1.45-1.37,2.47l-.03,.33c-.08,1.02,.29,1.97,.95,2.65-.76,.56-1.29,1.44-1.38,2.46l-.03,.33c-.16,1.88,1.24,3.54,3.12,3.7,.1,0,.2,.01,.3,.01Z"/><path class="cls-30" d="M908.68,407.3c1.66,0,3.12-1.21,3.38-2.9l.05-.33c.16-1.02-.15-2-.77-2.73,.8-.52,1.39-1.36,1.54-2.38l.05-.33c.15-1.02-.17-2-.79-2.72,.8-.52,1.37-1.37,1.52-2.39l.05-.33c.14-1.02-.18-1.99-.8-2.71,.79-.53,1.37-1.38,1.5-2.4l.04-.32c.14-1.02-.19-1.99-.82-2.71,.79-.53,1.36-1.39,1.49-2.41l.04-.33c.13-1.02-.2-1.99-.84-2.7,.79-.54,1.35-1.4,1.47-2.42l.04-.33c.12-1.02-.22-1.99-.85-2.7,.78-.54,1.34-1.4,1.46-2.42l.04-.33c.12-1.02-.23-1.99-.87-2.69,.78-.55,1.33-1.41,1.44-2.43l.04-.33c.11-1.02-.24-1.99-.88-2.69,.78-.55,1.32-1.42,1.43-2.44l.03-.33c.1-1.02-.25-1.98-.9-2.68,.77-.56,1.31-1.43,1.41-2.45l.03-.33c.1-1.02-.26-1.98-.92-2.68,.77-.56,1.31-1.44,1.4-2.47l.03-.32c.09-1.02-.28-1.98-.93-2.67,.77-.57,1.29-1.45,1.38-2.47l.03-.33c.08-1.02-.29-1.98-.95-2.66,.76-.57,1.28-1.46,1.36-2.48l.03-.33c.08-1.02-.31-1.98-.97-2.66,.76-.58,1.27-1.47,1.34-2.5l.02-.33c.07-1.03-.32-1.98-1-2.65,.76-.58,1.26-1.48,1.32-2.51l.02-.32c.06-1.03-.34-1.98-1.02-2.65,.75-.59,1.25-1.49,1.31-2.52l.02-.34c.05-1.03-.36-1.98-1.05-2.64,.75-.6,1.24-1.5,1.28-2.53v-.34c.05-1.03-.36-1.97-1.05-2.62,.74-.61,1.22-1.51,1.25-2.54v-.33c.04-1.03-.39-1.96-1.08-2.61,.73-.61,1.2-1.52,1.22-2.55v-.33c.03-1.03-.41-1.96-1.12-2.6,.72-.62,1.19-1.55,1.19-2.58v-.33c0-1.03-.44-1.96-1.16-2.59,.72-.63,1.16-1.56,1.16-2.59v-.33c-.01-1.03-.48-1.95-1.2-2.57,.71-.64,1.14-1.58,1.12-2.61v-.33c-.03-1.03-.51-1.95-1.25-2.56,.7-.66,1.12-1.6,1.07-2.63v-.33c-.06-1.03-.56-1.94-1.31-2.54,.69-.67,1.09-1.63,1.02-2.66l-.02-.33c-.07-1.03-.58-1.93-1.35-2.51,.67-.69,1.05-1.65,.96-2.69l-.03-.33c-.09-1.03-.63-1.92-1.42-2.48,.65-.71,1.01-1.68,.89-2.72l-.04-.33c-.12-1.04-.69-1.91-1.49-2.45,.64-.73,.96-1.72,.8-2.76l-.05-.33c-.16-1.03-.76-1.89-1.59-2.4,.61-.76,.89-1.77,.69-2.8l-.06-.33c-.2-1.03-.85-1.87-1.71-2.34,.57-.79,.81-1.82,.55-2.84-.03-.11-.06-.23-.09-.34-.26-1.03-.97-1.83-1.86-2.25,.53-.84,.69-1.89,.36-2.9-.04-.11-.07-.22-.11-.34-.35-1.02-1.13-1.77-2.06-2.12,.46-.9,.52-1.98,.08-2.97-.05-.11-.1-.22-.15-.33-.46-1-1.35-1.68-2.35-1.91,.35-.98,.26-2.1-.35-3.03-.07-.1-.14-.21-.21-.31-.64-.95-1.68-1.48-2.74-1.51,.16-1.07-.19-2.2-1.04-3-.09-.08-.17-.16-.26-.24-.78-.73-1.81-1.01-2.79-.88-.01-.99-.46-1.97-1.3-2.64-.09-.07-.18-.15-.28-.22-.85-.67-1.93-.87-2.9-.63-.11-1.01-.67-1.96-1.6-2.53-.1-.06-.2-.12-.3-.19-.95-.58-2.07-.64-3.03-.26-.26-1.01-.98-1.89-2.03-2.32-.12-.05-.23-.09-.34-.14-1.08-.42-2.25-.26-3.15,.34-.5-.98-1.46-1.7-2.63-1.85-.13-.02-.26-.03-.39-.05-1.22-.13-2.36,.4-3.06,1.31-.84-.81-2.07-1.18-3.28-.85-.14,.04-.27,.08-.4,.11-1.24,.37-2.11,1.38-2.37,2.56-1.19-.39-2.55-.11-3.49,.84-.23,.23-.38,.4-.44,.48l5.28,4.36s-.01,.02-.04,.05c.01-.01,.03-.03,.05-.06,.48-.48,.79-1.07,.92-1.69,.64,.21,1.35,.24,2.05,.03,.08-.02,.15-.04,.23-.07,.75-.2,1.37-.64,1.81-1.21,.53,.52,1.23,.87,2.03,.95,.09,0,.17,.02,.26,.03,.85,.11,1.66-.11,2.32-.55,.37,.72,.99,1.32,1.8,1.64,.09,.03,.18,.07,.27,.11,.85,.34,1.75,.32,2.54,.01,.21,.83,.74,1.58,1.53,2.07,.09,.05,.17,.11,.26,.16,.81,.5,1.74,.62,2.6,.42,.1,.88,.54,1.73,1.29,2.32,.08,.06,.16,.13,.24,.19,.76,.6,1.7,.83,2.59,.71,.01,.91,.38,1.8,1.1,2.47,.07,.07,.15,.14,.22,.21,.64,.6,1.44,.9,2.25,.93-.12,.81,.05,1.67,.54,2.41,.05,.08,.11,.16,.16,.24,.51,.77,1.27,1.28,2.11,1.47-.29,.82-.28,1.74,.11,2.59,.04,.09,.08,.18,.12,.27,.39,.87,1.11,1.5,1.94,1.81-.41,.8-.51,1.75-.2,2.66,.03,.1,.06,.19,.1,.29,.31,.93,.97,1.64,1.8,2.02-.49,.77-.67,1.73-.42,2.68,.03,.1,.05,.2,.08,.3,.24,.96,.87,1.72,1.67,2.17-.54,.74-.78,1.7-.59,2.67l.06,.32c.19,.98,.78,1.78,1.57,2.26-.58,.72-.87,1.67-.72,2.66l.05,.32c.15,.99,.71,1.82,1.48,2.33-.61,.7-.93,1.65-.82,2.64l.04,.32c.11,1,.65,1.85,1.41,2.39-.63,.69-.99,1.63-.9,2.63l.03,.32c.09,1,.6,1.87,1.34,2.43-.65,.67-1.03,1.6-.97,2.61l.02,.32c.06,1.01,.56,1.89,1.29,2.47-.67,.66-1.07,1.58-1.03,2.59v.32c.06,1.01,.53,1.9,1.26,2.5-.68,.64-1.1,1.56-1.08,2.58v.33c.03,1.01,.49,1.91,1.21,2.52-.7,.63-1.13,1.55-1.12,2.56v.32c.01,1.01,.46,1.92,1.16,2.54-.7,.62-1.15,1.53-1.16,2.54v.33c0,1.02,.43,1.93,1.13,2.56-.71,.61-1.17,1.52-1.19,2.53v.32c-.03,1.02,.4,1.94,1.09,2.58-.72,.61-1.19,1.51-1.22,2.52v.32c-.04,1.02,.37,1.94,1.06,2.59-.73,.6-1.21,1.49-1.25,2.51v.32c-.05,1.02,.35,1.95,1.03,2.61-.74,.59-1.23,1.48-1.28,2.5l-.02,.33c-.05,1.02,.35,1.96,1.03,2.62-.75,.58-1.25,1.47-1.31,2.49l-.02,.33c-.06,1.02,.33,1.95,1,2.62-.75,.58-1.25,1.46-1.32,2.48l-.02,.33c-.07,1.02,.31,1.96,.98,2.63-.75,.57-1.27,1.45-1.34,2.47l-.02,.32c-.08,1.02,.3,1.96,.96,2.64-.76,.57-1.28,1.44-1.36,2.46l-.03,.33c-.08,1.02,.28,1.96,.94,2.65-.76,.56-1.29,1.43-1.38,2.45l-.03,.33c-.09,1.01,.27,1.96,.92,2.65-.76,.56-1.3,1.43-1.39,2.44l-.03,.33c-.1,1.02,.26,1.97,.9,2.66-.77,.55-1.31,1.42-1.41,2.43l-.03,.32c-.11,1.02,.24,1.97,.89,2.67-.77,.55-1.32,1.41-1.43,2.42l-.03,.32c-.11,1.02,.23,1.98,.87,2.68-.78,.54-1.32,1.4-1.44,2.42l-.04,.32c-.12,1.02,.22,1.98,.85,2.68-.78,.54-1.33,1.39-1.45,2.41l-.04,.33c-.12,1.01,.21,1.98,.84,2.69-.78,.53-1.34,1.39-1.47,2.4l-.04,.33c-.13,1.01,.2,1.98,.82,2.69-.79,.53-1.35,1.38-1.48,2.39l-.04,.33c-.13,1.01,.19,1.98,.81,2.69-.79,.52-1.36,1.37-1.5,2.38l-.05,.33c-.14,1.01,.18,1.98,.79,2.7-.79,.52-1.37,1.36-1.51,2.37l-.05,.32c-.15,1.01,.16,1.98,.77,2.71-.8,.51-1.38,1.35-1.53,2.36l-.05,.32c-.29,1.87,.99,3.62,2.86,3.91,.18,.03,.35,.04,.53,.04Z"/><path class="cls-30" d="M925.9,415.58h.01c1.89-.08,3.36-1.67,3.28-3.56v-.33c-.06-1.02-.54-1.91-1.27-2.51,.68-.65,1.09-1.58,1.06-2.6v-.33c-.05-1.02-.53-1.92-1.27-2.52,.69-.65,1.1-1.58,1.07-2.6v-.33c-.05-1.02-.53-1.92-1.26-2.52,.69-.65,1.11-1.58,1.08-2.6v-.33c-.04-1.02-.52-1.92-1.25-2.53,.69-.65,1.11-1.58,1.08-2.6v-.33c-.04-1.02-.51-1.93-1.24-2.53,.69-.65,1.12-1.58,1.09-2.6v-.33c-.04-1.02-.51-1.93-1.24-2.53,.69-.64,1.12-1.57,1.09-2.59v-.33c-.04-1.02-.51-1.93-1.23-2.53,.7-.64,1.12-1.57,1.1-2.59v-.33c-.03-1.02-.5-1.93-1.22-2.54,.7-.64,1.12-1.57,1.1-2.59v-.33c-.03-1.02-.5-1.93-1.22-2.54,.7-.64,1.13-1.57,1.11-2.59v-.33c-.02-1.02-.49-1.93-1.21-2.54,.7-.64,1.13-1.56,1.12-2.58v-.33c-.02-1.02-.48-1.93-1.2-2.55,.7-.64,1.14-1.56,1.12-2.58v-.33c-.02-1.02-.48-1.93-1.2-2.55,.7-.63,1.14-1.56,1.13-2.58v-.33c-.01-1.02-.47-1.93-1.19-2.55,.71-.63,1.15-1.56,1.14-2.58v-.32c-.01-1.02-.47-1.94-1.18-2.56,.71-.63,1.15-1.55,1.14-2.57v-.33c0-1.02-.46-1.94-1.17-2.56,.71-.63,1.15-1.54,1.15-2.57v-.33c0-1.02-.45-1.94-1.16-2.56,.71-.63,1.16-1.54,1.16-2.56v-.33c0-1.02-.45-1.94-1.16-2.57,.71-.62,1.17-1.54,1.17-2.56v-.33c0-1.02-.44-1.94-1.15-2.57,.71-.62,1.17-1.53,1.18-2.55v-.34c.01-1.02-.43-1.94-1.13-2.57,.72-.62,1.17-1.53,1.18-2.55v-.32c.02-1.02-.42-1.94-1.12-2.58,.72-.62,1.18-1.52,1.19-2.54v-.33c.02-1.02-.41-1.94-1.11-2.58,.72-.62,1.18-1.53,1.2-2.56v-.33c.02-1.03-.43-1.96-1.14-2.6,.72-.63,1.17-1.55,1.17-2.58v-.32c0-1.04-.47-1.96-1.19-2.59,.71-.64,1.15-1.58,1.13-2.62v-.33c-.03-1.03-.51-1.95-1.25-2.56,.7-.66,1.12-1.61,1.08-2.64v-.33c-.06-1.03-.56-1.94-1.31-2.54,.68-.68,1.08-1.63,1.01-2.67l-.02-.34c-.07-1.04-.6-1.93-1.37-2.51,.67-.7,1.04-1.67,.93-2.7l-.03-.33c-.1-1.04-.66-1.92-1.46-2.47,.64-.72,.98-1.72,.84-2.75l-.05-.33c-.15-1.04-.74-1.9-1.57-2.42,.62-.75,.91-1.77,.71-2.8l-.06-.34c-.2-1.04-.84-1.87-1.7-2.35,.58-.79,.81-1.83,.55-2.85l-.08-.33c-.26-1.03-.97-1.83-1.86-2.25,.53-.84,.69-1.9,.35-2.91-.04-.11-.08-.22-.11-.33-.35-1.02-1.13-1.77-2.06-2.11,.46-.89,.52-1.98,.08-2.96-.05-.11-.1-.21-.14-.32-.45-.99-1.32-1.66-2.3-1.9,.36-.95,.29-2.05-.27-2.98-.06-.1-.12-.21-.19-.31-.58-.94-1.54-1.5-2.55-1.61,.23-1,0-2.09-.7-2.94-.08-.09-.15-.19-.23-.28-.71-.84-1.73-1.26-2.75-1.22h-.03c.07-1.02-.31-2.07-1.14-2.81-.09-.08-.18-.16-.27-.24-.83-.72-1.92-.98-2.92-.77-.08-1.02-.62-1.99-1.54-2.59-.1-.07-.2-.13-.31-.2-.92-.59-2.01-.68-2.97-.35-.21-.99-.86-1.87-1.84-2.35-.1-.05-.21-.1-.32-.15-.97-.47-2.05-.44-2.95-.01-.31-.94-1.02-1.74-2.02-2.13-.11-.04-.22-.08-.33-.12-1.03-.39-2.12-.25-2.99,.28-.43-.95-1.29-1.69-2.38-1.93-.13-.03-.25-.05-.37-.08-1.22-.25-2.42,.18-3.2,1.03-.87-.98-2.28-1.42-3.61-.99-.19,.06-.37,.13-.55,.2-1.66,.68-2.51,2.51-1.98,4.19-1.5,.56-2.45,2.11-2.19,3.75,.05,.34,.11,.58,.14,.67l6.61-1.77s0,.02,.02,.07c0-.01,0-.03,0-.05-.03-.16-.06-.32-.11-.48,.03-.01,.07-.03,.1-.04,.02,0,.05-.02,.07-.03,.58-.19,1.08-.52,1.47-.94,.47,.54,1.12,.93,1.87,1.08,.09,.02,.18,.04,.27,.06,.9,.2,1.79,.02,2.52-.42,.36,.8,1.03,1.46,1.91,1.79,.1,.04,.19,.07,.29,.11,.91,.35,1.87,.29,2.69-.1,.28,.85,.89,1.59,1.76,2.01,.09,.04,.19,.09,.28,.14,.85,.42,1.8,.45,2.63,.16,.19,.86,.7,1.65,1.5,2.16,.08,.05,.17,.11,.25,.16,.78,.51,1.7,.66,2.55,.49,.07,.86,.46,1.7,1.17,2.31,.07,.06,.15,.13,.22,.19,.7,.62,1.57,.91,2.43,.86-.06,.86,.2,1.74,.79,2.45,.06,.08,.13,.15,.19,.23,.59,.72,1.42,1.13,2.28,1.23-.19,.85-.07,1.77,.42,2.56,.05,.08,.1,.17,.16,.25,.49,.81,1.26,1.34,2.11,1.55-.31,.82-.31,1.77,.09,2.63,.04,.09,.08,.19,.13,.28,.39,.88,1.11,1.51,1.95,1.81-.41,.8-.5,1.75-.19,2.67,.03,.1,.07,.19,.1,.29,.31,.92,.98,1.63,1.79,2.01-.48,.77-.66,1.72-.42,2.67l.08,.31c.24,.96,.86,1.71,1.66,2.16-.54,.74-.78,1.69-.6,2.66l.06,.31c.18,.97,.76,1.78,1.54,2.26-.58,.71-.88,1.66-.74,2.64l.04,.32c.14,.99,.68,1.82,1.45,2.34-.62,.69-.95,1.63-.85,2.62l.03,.32c.1,1,.62,1.85,1.36,2.41-.64,.67-1.01,1.6-.94,2.61l.02,.32c.07,1.01,.56,1.88,1.3,2.46-.67,.66-1.06,1.58-1.02,2.59v.32c.06,1.01,.53,1.89,1.25,2.49-.68,.64-1.1,1.56-1.08,2.57v.33c.03,1.01,.49,1.91,1.2,2.52-.7,.63-1.13,1.54-1.13,2.55v.32c0,1.01,.44,1.92,1.15,2.55-.71,.62-1.16,1.52-1.17,2.54v.32c-.02,1.02,.41,1.94,1.11,2.57-.72,.62-1.18,1.53-1.2,2.55v.32c-.02,1.03,.41,1.95,1.12,2.59-.72,.62-1.18,1.53-1.19,2.56v.33c-.01,1.02,.43,1.95,1.13,2.58-.72,.62-1.18,1.54-1.18,2.56v.33c-.01,1.03,.43,1.95,1.15,2.59-.72,.62-1.17,1.54-1.18,2.57v.33c0,1.03,.44,1.95,1.16,2.58-.72,.63-1.17,1.55-1.17,2.57v.33c0,1.03,.45,1.95,1.16,2.58-.71,.63-1.16,1.55-1.16,2.58v.32c0,1.03,.46,1.95,1.17,2.57-.71,.63-1.15,1.55-1.15,2.58v.33c0,1.03,.46,1.94,1.18,2.57-.71,.63-1.15,1.56-1.14,2.58v.33c.01,1.02,.47,1.94,1.19,2.56-.71,.63-1.15,1.56-1.14,2.58v.33c.01,1.03,.48,1.94,1.2,2.56-.71,.64-1.14,1.56-1.13,2.59v.32c.02,1.03,.48,1.94,1.2,2.56-.7,.64-1.14,1.56-1.12,2.59v.33c.02,1.03,.49,1.94,1.21,2.56-.7,.64-1.13,1.57-1.12,2.59v.33c.02,1.02,.49,1.94,1.22,2.55-.7,.64-1.13,1.57-1.11,2.6v.32c.03,1.03,.5,1.94,1.22,2.55-.7,.64-1.13,1.57-1.1,2.6v.33c.03,1.02,.5,1.93,1.23,2.54-.7,.65-1.13,1.58-1.1,2.6v.32c.03,1.03,.51,1.93,1.24,2.54-.7,.65-1.12,1.58-1.09,2.6v.33c.04,1.02,.51,1.93,1.24,2.54-.69,.65-1.12,1.58-1.09,2.6v.33c.04,1.03,.52,1.93,1.25,2.54-.69,.65-1.11,1.58-1.08,2.61v.33c.04,1.02,.52,1.93,1.26,2.53-.69,.65-1.11,1.59-1.07,2.61v.32c.05,1.03,.53,1.93,1.27,2.53-.69,.65-1.11,1.59-1.07,2.61v.33c.05,1.03,.53,1.93,1.27,2.53-.69,.66-1.1,1.6-1.06,2.62v.33c.09,1.88,1.68,3.35,3.56,3.28Z"/><path class="cls-30" d="M934.78,406.39c1.78-.07,3.23-1.51,3.28-3.32v-.22c.03-1.03-.4-1.97-1.1-2.62,.73-.61,1.2-1.53,1.22-2.56v-.33c.02-1.03-.41-1.96-1.12-2.6,.72-.62,1.19-1.53,1.2-2.56v-.33c.02-1.03-.42-1.95-1.13-2.59,.72-.62,1.18-1.54,1.18-2.56v-.34c0-1.03-.44-1.95-1.15-2.58,.72-.63,1.17-1.55,1.17-2.57v-.33c0-1.03-.45-1.95-1.16-2.58,.71-.63,1.16-1.55,1.16-2.58v-.33c0-1.03-.46-1.95-1.18-2.57,.71-.63,1.15-1.56,1.15-2.59v-.33c-.01-1.03-.47-1.94-1.19-2.56,.71-.64,1.15-1.56,1.13-2.59v-.34c-.02-1.03-.48-1.94-1.2-2.56,.7-.64,1.14-1.57,1.12-2.6v-.33c-.02-1.03-.49-1.94-1.22-2.55,.7-.64,1.13-1.58,1.11-2.6v-.33c-.03-1.02-.51-1.93-1.24-2.54,.7-.65,1.12-1.58,1.09-2.61v-.33c-.04-1.03-.52-1.93-1.25-2.54,.69-.65,1.11-1.59,1.08-2.61v-.33c-.05-1.03-.53-1.93-1.27-2.53,.69-.66,1.1-1.59,1.06-2.62v-.33c-.06-1.02-.54-1.93-1.28-2.52,.68-.66,1.09-1.6,1.05-2.62l-.02-.33c-.05-1.03-.54-1.93-1.29-2.52,.68-.66,1.09-1.61,1.03-2.64l-.02-.33c-.05-1.03-.56-1.92-1.3-2.51,.68-.67,1.07-1.61,1.01-2.64l-.02-.33c-.06-1.03-.57-1.92-1.33-2.5,.67-.67,1.07-1.62,1-2.65l-.02-.34c-.07-1.03-.59-1.92-1.34-2.49,.67-.68,1.05-1.63,.97-2.66l-.03-.33c-.08-1.03-.6-1.91-1.36-2.48,.66-.69,1.03-1.64,.95-2.66l-.03-.33c-.09-1.02-.62-1.9-1.38-2.47,.65-.69,1.02-1.65,.92-2.68l-.03-.33c-.1-1.03-.64-1.9-1.41-2.46,.65-.7,1.01-1.67,.9-2.69l-.03-.33c-.11-1.02-.66-1.9-1.44-2.44,.64-.71,.99-1.68,.87-2.7l-.04-.33c-.12-1.02-.68-1.89-1.47-2.43,.63-.72,.97-1.69,.83-2.71l-.04-.33c-.13-1.02-.71-1.88-1.5-2.41,.62-.73,.94-1.71,.79-2.73l-.05-.33c-.15-1.02-.74-1.87-1.54-2.39,.61-.74,.92-1.72,.75-2.74l-.05-.33c-.17-1.02-.77-1.86-1.59-2.36,.6-.75,.89-1.74,.7-2.76l-.06-.33c-.19-1.02-.81-1.85-1.64-2.33,.59-.76,.85-1.77,.64-2.78l-.07-.33c-.21-1.02-.86-1.83-1.7-2.3,.57-.78,.8-1.79,.56-2.81l-.08-.32c-.24-1.01-.91-1.81-1.77-2.25,.55-.8,.75-1.83,.47-2.83l-.09-.33c-.28-1.01-.98-1.79-1.86-2.19,.52-.83,.68-1.86,.36-2.86l-.1-.32c-.33-1-1.07-1.75-1.98-2.12,.48-.86,.58-1.92,.2-2.9l-.13-.32c-.39-.99-1.19-1.7-2.14-2.01,.42-.9,.45-1.98-.02-2.95-.05-.11-.1-.21-.15-.31-.48-.98-1.37-1.62-2.36-1.83,.33-.97,.23-2.07-.37-2.99-.07-.1-.13-.2-.2-.3-.62-.93-1.62-1.46-2.66-1.52,.18-1-.1-2.08-.83-2.89l-.23-.25c-.71-.78-1.7-1.16-2.67-1.12h-.06c.06-.99-.31-2.01-1.1-2.74-.09-.08-.17-.16-.26-.24-.81-.73-1.86-1-2.86-.84-.04-1.02-.54-2-1.43-2.64-.1-.07-.19-.14-.29-.21-.91-.64-2.02-.77-3-.46-.19-1.02-.84-1.94-1.85-2.44-.11-.05-.22-.11-.33-.16-1.02-.49-2.17-.43-3.1,.06-.39-.99-1.22-1.79-2.33-2.07-.12-.03-.25-.06-.37-.09-1.13-.27-2.26,.05-3.07,.76-.62-.89-1.64-1.48-2.81-1.48-.13,0-.25,0-.38,0-1.17,.01-2.19,.61-2.8,1.51-.82-.71-1.96-1.01-3.09-.72-.12,.03-.25,.07-.37,.1-1.11,.31-1.95,1.13-2.31,2.14-.95-.48-2.12-.51-3.14,.03-.11,.06-.22,.12-.33,.17-1,.54-1.62,1.51-1.76,2.56-1.02-.27-2.14-.06-3.02,.65-.1,.08-.19,.16-.29,.24-.87,.72-1.29,1.78-1.24,2.83-1.07-.07-2.15,.35-2.88,1.24-.19,.23-.29,.37-.29,.37-1.13,1.51-.84,3.66,.67,4.79,1.5,1.13,3.64,.85,4.78-.65,.02-.02,.06-.08,.13-.16,.57-.69,.82-1.54,.77-2.37,.85,.06,1.72-.19,2.42-.78,.07-.06,.15-.12,.22-.18,.71-.57,1.13-1.37,1.24-2.21,.81,.21,1.7,.13,2.5-.3,.08-.05,.17-.09,.26-.14,.79-.41,1.35-1.09,1.62-1.87,.73,.37,1.6,.48,2.45,.24,.09-.02,.18-.05,.27-.07,.84-.22,1.53-.73,1.98-1.4,.61,.53,1.41,.84,2.27,.83,.09,0,.19,0,.28,0,.87,0,1.67-.32,2.27-.86,.46,.67,1.16,1.18,2.01,1.39,.09,.02,.18,.04,.27,.07,.87,.22,1.74,.1,2.48-.3,.3,.78,.89,1.45,1.7,1.84,.09,.04,.18,.09,.27,.13,.83,.41,1.74,.45,2.55,.2,.16,.85,.63,1.64,1.39,2.17,.08,.06,.16,.12,.25,.18,.77,.55,1.69,.74,2.56,.59,.04,.88,.41,1.75,1.12,2.39,.07,.07,.15,.14,.22,.2,.71,.65,1.62,.95,2.52,.9-.06,.9,.23,1.81,.89,2.53l.21,.23c.63,.7,1.49,1.08,2.36,1.12-.15,.84,.01,1.73,.52,2.5,.05,.08,.11,.16,.16,.25,.52,.79,1.3,1.29,2.15,1.47-.29,.83-.26,1.78,.17,2.63,.05,.09,.09,.18,.14,.28,.43,.87,1.17,1.48,2.03,1.76-.38,.82-.44,1.79-.08,2.7l.11,.29c.36,.92,1.07,1.6,1.92,1.94-.45,.8-.57,1.78-.26,2.72l.1,.3c.31,.95,.99,1.67,1.82,2.06-.49,.79-.66,1.77-.4,2.73l.09,.31c.26,.97,.92,1.72,1.75,2.14-.52,.77-.73,1.75-.5,2.72l.08,.32c.23,.98,.86,1.76,1.68,2.21-.55,.75-.79,1.73-.58,2.72l.07,.32c.2,.99,.82,1.79,1.62,2.26-.57,.74-.84,1.72-.65,2.71l.06,.32c.18,1,.78,1.81,1.58,2.3-.59,.73-.87,1.7-.71,2.7l.05,.32c.16,1,.74,1.83,1.54,2.33-.6,.72-.91,1.68-.76,2.69l.05,.33c.15,1,.71,1.84,1.5,2.36-.61,.71-.93,1.68-.8,2.68l.04,.32c.13,1.01,.69,1.86,1.47,2.39-.62,.7-.96,1.66-.84,2.67l.04,.32c.12,1.01,.66,1.87,1.44,2.41-.63,.7-.98,1.65-.87,2.66l.03,.33c.11,1.01,.64,1.87,1.41,2.42-.64,.69-1,1.64-.9,2.65l.03,.33c.1,1.01,.62,1.88,1.38,2.43-.65,.68-1.01,1.63-.92,2.64l.03,.32c.08,1.01,.6,1.89,1.36,2.45-.65,.68-1.03,1.62-.95,2.64l.02,.32c.08,1.02,.59,1.9,1.34,2.47-.66,.67-1.05,1.62-.98,2.63l.02,.32c.07,1.02,.58,1.9,1.33,2.48-.67,.67-1.06,1.61-1,2.63l.02,.32c.06,1.02,.56,1.91,1.3,2.49-.67,.66-1.07,1.6-1.01,2.62l.02,.33c.05,1.02,.55,1.91,1.29,2.5-.68,.66-1.08,1.59-1.03,2.61h0v.32c.06,1.02,.55,1.91,1.28,2.51-.68,.66-1.09,1.59-1.05,2.61v.32c.05,1.02,.54,1.92,1.27,2.52-.69,.65-1.1,1.58-1.06,2.6v.32c.05,1.02,.52,1.92,1.25,2.52-.69,.65-1.11,1.58-1.08,2.59v.33c.04,1.02,.51,1.92,1.24,2.53-.69,.64-1.12,1.57-1.09,2.59v.33c.03,1.02,.5,1.92,1.22,2.53-.7,.64-1.13,1.56-1.11,2.58v.33c.02,1.02,.49,1.93,1.21,2.54-.7,.64-1.13,1.56-1.12,2.58v.32c.02,1.02,.47,1.93,1.19,2.55-.7,.63-1.14,1.55-1.13,2.58v.33c.01,1.02,.47,1.93,1.18,2.55-.71,.63-1.15,1.55-1.15,2.57v.33c0,1.02,.45,1.93,1.16,2.56-.71,.63-1.16,1.54-1.16,2.56v.33c0,1.02,.44,1.94,1.15,2.57-.71,.62-1.16,1.54-1.17,2.56v.32c-.01,1.02,.43,1.94,1.14,2.58-.72,.62-1.17,1.53-1.18,2.55v.33c-.02,1.02,.42,1.94,1.12,2.58-.72,.61-1.18,1.52-1.2,2.54v.33c-.02,1.02,.41,1.94,1.1,2.58-.72,.61-1.19,1.51-1.22,2.53v.21c-.06,1.89,1.43,3.47,3.32,3.52,.08,0,.16,0,.24,0Z"/></g></g><g><path class="cls-30" d="M379.01,779.27c-3.77,0-7.53-.26-11.24-.79-24.83-3.53-45.74-18.63-58.88-42.5-12.56-22.81-17.12-51.9-12.85-81.9,4.18-29.4,18.66-55.91,40.77-74.67,21.63-18.35,48.32-26.85,73.22-23.3,49.97,7.11,80.81,60.59,71.73,124.4-4.18,29.4-18.66,55.91-40.77,74.67-18.4,15.61-40.47,24.09-61.98,24.09Zm19.75-211.33c-18.53,0-37.69,7.43-53.8,21.1-19.75,16.75-32.69,40.49-36.44,66.83-3.89,27.31,.17,53.6,11.42,74.04,11.18,20.32,28.8,33.14,49.61,36.1,21.33,3.04,44.4-4.41,63.29-20.43,19.75-16.75,32.69-40.49,36.44-66.83l6.24,.89-6.24-.89c3.89-27.31-.17-53.6-11.42-74.04-11.18-20.32-28.8-33.14-49.61-36.1-3.13-.45-6.3-.67-9.49-.67Z"/><path class="cls-21" d="M363.24,370.49s-59.37,61.47-64.63,77.24c-5.25,15.76,45.71,91.95,48.86,93,3.15,1.05,23.12-15.24,23.12-15.24l-28.9-64.1,36.78-36.78s-3.15-46.24-15.24-54.12Z"/><polygon class="cls-30" points="514.3 676.91 506.95 674.08 509.21 668.21 499.63 600.12 507.43 599.03 517.3 669.13 514.3 676.91"/><path class="cls-30" d="M489.12,692.4c-7.69,0-14.91-4.58-17.99-12.11l-18.01-44.02,7.29-2.98,18.01,44.02c2.31,5.64,8.51,8.5,14.27,6.65l17.17-10.99,4.25,6.64-17.94,11.48-.42,.15c-2.19,.79-4.43,1.17-6.63,1.17Z"/><path class="cls-30" d="M400.69,686.46c-2.9,0-5.78-.75-8.37-2.22-4.43-2.52-7.46-6.84-8.33-11.86l-5.19-30.1,7.77-1.34,5.19,30.1c.46,2.69,2.09,5,4.46,6.35,2.37,1.35,5.19,1.56,7.73,.59l9.9-3.79,2.82,7.36-9.9,3.79c-1.97,.75-4.03,1.13-6.07,1.13Z"/><rect class="cls-30" x="540.57" y="609.55" width="7.88" height="66.21" transform="translate(-106.71 1176.91) rotate(-89.09)"/><g id="_2"><g id="_2-2"><g id="neck-2"><polygon class="cls-17" points="409.1 355.54 425.78 369.02 439.95 369.02 437.46 325.01 411.6 320.25 409.1 355.54"/></g><g id="head-5"><g id="glasses-2"><path class="cls-7" d="M454.65,303.79c.12-3.19,1.22-6.19,3.08-8.43,1.88-2.26,4.32-3.49,6.87-3.46,.39,0,.78,.04,1.16,.1,4.72,.79,8.1,5.96,7.86,12.02-.12,3.19-1.22,6.19-3.08,8.43-1.88,2.26-4.32,3.49-6.87,3.46-.39,0-.78-.04-1.16-.1-4.72-.79-8.1-5.96-7.86-12.02Zm9.92-10.91c-2.28-.03-4.48,1.08-6.18,3.13-1.72,2.07-2.73,4.84-2.85,7.8-.22,5.58,2.85,10.33,7.13,11.05,.34,.06,.69,.09,1.03,.09,2.28,.03,4.48-1.08,6.18-3.13,1.72-2.07,2.73-4.84,2.85-7.8,.22-5.58-2.85-10.33-7.13-11.05-.34-.06-.69-.09-1.03-.09Z"/></g><g id="face-3"><path class="cls-17" d="M414.05,291.8c2.38-15.86,15.97-24.09,30.48-24.1,14.51,0,21.74,9.52,21.75,24.07,0,0,0,1.13-.02,2.85-.01,2.17-.97,5.26-.98,8.2-.02,4.17,.85,6.89,.88,9.19,.11,9.33-9.39,30.62-19.87,30.63-12.1,0-32.73-16.08-32.73-26.56,0-.9-.41-18.28,.49-24.28Z"/><path id="hair-4" class="cls-31" d="M394.01,287.56c0,12.35,6.31,31.45,17.12,40.45,0,0,14.54,6.03,32.35-22.68,2.17-3.49,11.16-13.42,16.94-31.52-5.78-10.16-18.19-17.59-32.6-17.59-18.59,0-33.81,12.91-33.81,31.34Z"/><rect class="cls-7" x="459.04" y="289.81" width=".94" height="26.52" transform="translate(124.37 739.74) rotate(-85.9)"/><path class="cls-16" d="M446.32,299.15c-.72-1.75-3.24-3.66-7.54-.79-4.3,2.89-6.77,17.99,.95,20.41,7.73,2.42,8.54-14.83,6.58-19.62Z"/><path class="cls-13" d="M438.29,335.26l.48,5.87s4.97,1.79,7.88,1.51l-8.36-7.38Z"/></g><g id="eyebrows-3"><path class="cls-30" d="M462.32,293.55s1.72-.35,3.94-.37c1.82-.01,1.74,4.59-.02,4.59-1.16,0-2.05-.07-2.46-.22-2.08-.75-1.46-4.01-1.46-4.01Z"/></g></g></g></g><path class="cls-21" d="M583.43,677.56s-2.37,23.67,9.47,28.41c3.31-.47,13.73-3.79,13.73-3.79,0,0,14.68,10.89,18.94,7.1,4.26-3.79,38.49-33.24,44.04-47.35,1.6-4.06,.95-14.2-10.42-13.26-7.78,.65-32.67,5.68-32.67,5.68l-18.94,4.73-24.15,18.47Z"/><path class="cls-27" d="M408.96,563.32s102.46-68.83,125.05-68.83c11.56,0,19.44,9.98,19.44,9.98,0,0,10.64-7.65,24.17-1.05,21.54,10.51,52.54,143.96,52.54,143.96,0,0-2.63,19.97-31.53,28.37-6.83-3.68-11.56,2.1-21.02,0,0,0-43.08-62-58.85-90.37-19.53-5.21-71.98,36.78-71.98,36.78l-37.83-58.85Z"/><g><polygon class="cls-18" points="545.64 513.96 500.96 535.84 500.96 534.15 545.64 512.09 545.64 513.96"/><polygon class="cls-11" points="545.64 512.09 499.12 535.06 462.57 513.01 545.64 512.09"/><polygon class="cls-30" points="488.86 516.22 527.12 516.22 496.98 528.56 488.86 516.22"/><rect class="cls-11" x="476.2" y="519.25" width="46.6" height=".53"/><rect class="cls-11" x="467.95" y="523.85" width="46.6" height=".53"/><g><path class="cls-9" d="M432.17,510.65c-.24,1.38,.68,2.49,2.05,2.49h108.78c1.38,0,2.7-1.12,2.96-2.49l13.24-70.78c.26-1.38-.66-2.49-2.04-2.49h-109.56c-1.39,0-2.71,1.12-2.95,2.49l-12.48,70.78Z"/><g><polygon class="cls-14" points="440.03 507.05 539.81 507.05 551.66 443.55 451.28 443.55 440.03 507.05"/><g><polygon class="cls-19" points="450.45 448.24 550.78 448.24 551.66 443.5 451.29 443.5 450.45 448.24"/><g><path class="cls-29" d="M547.31,445.87c-.12,.64,.31,1.16,.95,1.16s1.26-.52,1.38-1.16c.12-.64-.31-1.16-.95-1.16s-1.26,.52-1.38,1.16Z"/><path class="cls-28" d="M543.53,445.87c-.12,.64,.31,1.16,.95,1.16s1.26-.52,1.38-1.16c.12-.64-.31-1.16-.95-1.16s-1.26,.52-1.38,1.16Z"/><path class="cls-6" d="M539.75,445.87c-.12,.64,.31,1.16,.95,1.16s1.26-.52,1.38-1.16c.12-.64-.31-1.16-.95-1.16s-1.26,.52-1.38,1.16Z"/></g></g><path class="cls-29" d="M493.95,491.4c-.14,.78,.38,1.41,1.16,1.41h32.47c.78,0,1.53-.63,1.67-1.41h0c.14-.78-.37-1.41-1.16-1.41h-32.47c-.78,0-1.53,.63-1.67,1.41h0Z"/><path class="cls-7" d="M483.7,453.17c.14,.78-.37,1.41-1.16,1.41h-7.87c-.78,0-1.54-.63-1.68-1.41h0c-.14-.78,.37-1.41,1.16-1.41h7.87c.78,0,1.54,.63,1.68,1.41h0Z"/><path class="cls-28" d="M483.69,456.99c.14,.78-.38,1.41-1.16,1.41h-7.87c-.78,0-1.54-.63-1.68-1.41h0c-.14-.78,.37-1.41,1.16-1.41h7.87c.78,0,1.53,.63,1.68,1.41h0Z"/><path class="cls-7" d="M503.81,460.81c.14,.78-.38,1.41-1.16,1.41h-27.99c-.78,0-1.53-.63-1.68-1.41h0c-.14-.78,.37-1.41,1.16-1.41h27.99c.78,0,1.53,.63,1.67,1.41h0Z"/><path class="cls-29" d="M518.43,464.64c.14,.78-.38,1.41-1.16,1.41h-42.6c-.78,0-1.53-.63-1.68-1.41h0c-.14-.78,.37-1.41,1.16-1.41h42.62c.78,0,1.53,.63,1.67,1.41h0Z"/><path class="cls-19" d="M529.38,468.46c.14,.78-.38,1.41-1.16,1.41h-53.55c-.78,0-1.53-.63-1.68-1.41h0c-.14-.78,.37-1.41,1.16-1.41h53.57c.78,0,1.53,.63,1.67,1.41h0Z"/><path class="cls-28" d="M492.81,472.28c.14,.78-.38,1.41-1.16,1.41h-16.99c-.78,0-1.53-.63-1.68-1.41h0c-.14-.78,.37-1.41,1.16-1.41h17c.78,0,1.53,.63,1.67,1.41h0Z"/><g><path class="cls-19" d="M483.67,476.1c.14,.78-.37,1.41-1.16,1.41h-7.85c-.78,0-1.53-.63-1.68-1.41h0c-.14-.78,.37-1.41,1.16-1.41h7.86c.78,0,1.53,.63,1.67,1.41h0Z"/><path class="cls-7" d="M495.13,476.1c.14,.78-.38,1.41-1.16,1.41h-7.85c-.78,0-1.53-.63-1.67-1.41h0c-.14-.78,.38-1.41,1.16-1.41h7.86c.78,0,1.53,.63,1.67,1.41h0Z"/></g><path class="cls-29" d="M490.97,479.93c.14,.78-.38,1.41-1.16,1.41h-15.15c-.78,0-1.53-.63-1.68-1.41h0c-.14-.78,.37-1.41,1.16-1.41h15.16c.78,0,1.53,.63,1.67,1.41h0Z"/><path class="cls-7" d="M498.27,483.75c.14,.78-.38,1.41-1.16,1.41h-22.45c-.78,0-1.53-.63-1.67-1.41h0c-.14-.78,.37-1.41,1.15-1.41h22.46c.78,0,1.53,.63,1.67,1.41h0Z"/><path class="cls-19" d="M483.66,487.57c.14,.78-.37,1.41-1.16,1.41h-7.85c-.78,0-1.53-.63-1.67-1.41h0c-.14-.78,.37-1.41,1.15-1.41h7.85c.78,0,1.53,.63,1.67,1.41h0Z"/><g><path class="cls-28" d="M483.66,491.4c.14,.78-.37,1.41-1.15,1.41h-7.84c-.78,0-1.53-.63-1.67-1.41h0c-.14-.78,.37-1.41,1.15-1.41h7.84c.78,0,1.53,.63,1.67,1.41h0Z"/><path class="cls-29" d="M519.73,491.4c.14,.78-.38,1.41-1.16,1.41h-32.47c-.78,0-1.53-.63-1.67-1.41h0c-.14-.78,.37-1.41,1.16-1.41h32.47c.78,0,1.53,.63,1.67,1.41h0Z"/></g><path class="cls-19" d="M483.65,495.22c.14,.78-.37,1.41-1.15,1.41h-7.84c-.78,0-1.53-.63-1.67-1.41h0c-.14-.78,.37-1.41,1.15-1.41h7.84c.78,0,1.53,.63,1.67,1.41h0Z"/><path class="cls-29" d="M483.65,499.04c.14,.78-.37,1.41-1.15,1.41h-7.84c-.78,0-1.53-.63-1.67-1.41h0c-.14-.78,.37-1.41,1.15-1.41h7.84c.78,0,1.53,.63,1.67,1.41h0Z"/><path class="cls-19" d="M503.69,502.86c.14,.78-.38,1.41-1.16,1.41h-27.87c-.78,0-1.53-.63-1.67-1.41h0c-.14-.78,.37-1.41,1.15-1.41h27.88c.78,0,1.53,.63,1.67,1.41h0Z"/></g></g></g><path class="cls-21" d="M409.48,350.53s6.83,11.03,29.95,7.88c0,0,29.42,15.24,40.46,26.27,11.03,11.03,7.88,91.95,7.88,91.95l9.98,69.88-21.02,13.14s-48.41,31.88-67.78,28.9c-15.62-2.41-42.56-46.76-42.56-46.76l-13.66-115.07s-1.58-38.36,8.41-53.59c9.98-15.24,48.34-22.59,48.34-22.59Z"/><path class="cls-26" d="M351.5,511.03l58.85-3.35c6.1-.35,11.75,3.19,14.1,8.82l33.9,87.28,75.54-38.43c13.95-7.04,26.75-2.82,32.7,11.64l-115.66,73.13c-5.12,3.03-10.96,4.63-16.9,4.63,0,0-75.74,0-76.24-.04-9.77-.96-17.37-9.03-17.67-18.92l-2.18-109.95c-.24-7.8,5.78-14.37,13.57-14.81Z"/><path class="cls-30" d="M618.05,726.53l-5.22-5.9,33.39-29.52c7.89-6.97,9.14-18.64,2.92-27.14l-61.68-84.22c-2.93-4-8.36-5.12-12.64-2.6l-13.39,7.89-4-6.79,13.39-7.89c7.78-4.58,17.66-2.54,23,4.74l61.68,84.22c8.64,11.8,6.9,28.01-4.06,37.7l-33.39,29.52Z"/><path class="cls-30" d="M514.34,797.15c-25.55,0-51.39-11.55-71.5-32.1-21.66-22.14-34.48-51.84-36.1-83.64-1.65-32.39,6.1-63,21.83-86.18,16.45-24.23,40.32-38.34,67.21-39.71,26.93-1.38,54.56,10.29,75.79,31.99,21.66,22.14,34.48,51.84,36.1,83.64,1.65,32.39-6.1,63-21.83,86.18-16.45,24.23-40.32,38.34-67.21,39.71-1.43,.07-2.86,.11-4.29,.11Zm-14.26-227.55c-1.2,0-2.39,.03-3.58,.09-22.35,1.14-42.31,13.04-56.2,33.51-14.01,20.64-20.9,48.16-19.4,77.49,1.45,28.34,12.84,54.78,32.08,74.44,17.43,17.82,39.61,27.83,61.35,27.84,1.2,0,2.39-.03,3.58-.09,22.35-1.14,42.31-13.04,56.2-33.51,14.01-20.64,20.9-48.16,19.4-77.49-1.45-28.34-12.84-54.78-32.08-74.44-17.43-17.82-39.61-27.84-61.35-27.84Z"/><path class="cls-17" d="M506.36,526.46l5.51,14.6,20.56,9.68s7.86,7.14,7.69,12.64c-.17,5.42-10.33,17.81-12.95,19.38-3.68-.53-.53-7.36-.53-7.36,0,0-8.93,6.31-8.76,6.23-2.28-.45-.7-5.71-.7-5.71,0,0-7.88,1.58-7.56,1.52-2.43-3.63,7.03-9.93,7.03-9.93,0,0-13.73-3.35-16.3-6.26-2.58-2.91-6.09-12.6-6.09-12.6l-8.69-10.98,20.79-11.23Z"/><path class="cls-21" d="M487.77,476.63c4.2,29.95,27.85,59.9,27.85,59.9l-24.17,24.17s-51.93-46.03-48.34-66.2c2.11-11.84,33.48-22.3,44.66-17.86Z"/><ellipse class="cls-30" cx="616.23" cy="730.14" rx="21.53" ry="21"/><ellipse class="cls-30" cx="510.89" cy="675.5" rx="10.74" ry="13.59"/><rect class="cls-30" x="575.64" y="618.03" width="52.14" height="7.88" transform="translate(-76.25 1159.81) rotate(-84.37)"/><path class="cls-3" d="M478.64,549.64c-1.2-1.59-29.45-39.12-32.61-48.6-3.16-9.47-3.7-51.52-3.72-53.31l1.58-.02c0,.43,.56,43.59,3.64,52.83,3.08,9.23,32.08,47.76,32.37,48.14l-1.26,.95Z"/><rect class="cls-3" x="353.26" y="426.63" width="1.58" height="21.18" transform="translate(-51.5 47.29) rotate(-7.12)"/><path class="cls-3" d="M590.12,669.93c-3.11-4.1-39-69.81-40.52-72.61l1.38-.75c.37,.68,37.36,68.41,40.39,72.41l-1.26,.95Z"/></g></g></g></svg>