<?xml version="1.0" encoding="UTF-8"?><svg xmlns="http://www.w3.org/2000/svg" xmlns:xlink="http://www.w3.org/1999/xlink" viewBox="0 0 1142 831.51"><defs><style>.cls-1{fill:none;}.cls-2{clip-path:url(#clippath);}.cls-3{fill:#f3f3f3;}.cls-4{fill:#f7a489;}.cls-5{fill:#f6f7f7;}.cls-6{fill:#f2f2f2;}.cls-7{fill:#ebecec;}.cls-8{fill:#f28d61;}.cls-9{fill:#f0efef;}.cls-10{fill:#eaeaeb;}.cls-11{fill:#e6e7e7;}.cls-12{fill:#f4f5f5;}.cls-13{fill:#e7e8e8;}.cls-14{fill:#fff;}.cls-15{fill:#e8e8e9;}.cls-16{fill:#f1f1f1;}.cls-17{fill:#eceded;}.cls-18{fill:#e5e6e6;}.cls-19{fill:#e5f3fb;}.cls-20{fill:#e2e3e4;}.cls-21{fill:#efeeee;}.cls-22{fill:#e4e5e5;}.cls-23{fill:#fddc0d;}.cls-24{fill:#803721;}.cls-25{fill:#9a4328;}.cls-26{fill:#995a44;}.cls-27{fill:#995c4f;}.cls-28{fill:#80462f;}.cls-29{fill:#919395;}.cls-30{fill:#b6ca95;}.cls-31{fill:#332723;}.cls-32{fill:#324466;}.cls-33{fill:#a9aaaa;}.cls-34{fill:#ac512c;}.cls-35{fill:#a6a7aa;}.cls-36{fill:#d8d9da;}.cls-37{fill:#cfd1d2;}.cls-38{fill:#dededf;}.cls-39{fill:#d2d3d4;}.cls-40{fill:#d1d2d3;}.cls-41{fill:#c57160;}.cls-42{fill:#c3c3c3;}.cls-43{fill:#d6d8d8;}.cls-44{fill:#dcdcdc;}.cls-45{fill:#dcddde;}.cls-46{fill:#dbdcdd;}.cls-47{fill:#d3c0b9;}.cls-48{fill:#dadcdc;}.cls-49{fill:#dadbdb;}.cls-50{fill:#dff2fa;}.cls-51{fill:#d4d6d7;}.cls-52{fill:#d4d6d6;}.cls-53{fill:#d7d9d9;}.cls-54{fill:#d3d4d5;}.cls-55{fill:#d3d5d6;}.cls-56{fill:#e1e2e3;}.cls-57{fill:#e1f1ea;}.cls-58{fill:#e0e1e1;}.cls-59{fill:#e27f63;}.cls-60{fill:#d5d7d8;}.cls-61{fill:#dfe0e1;}.cls-62{fill:#dfdfdf;}.cls-63{fill:#dfe0e0;}.cls-64{fill:#252730;}.cls-65{fill:#221f1f;}.cls-66{fill:#414141;}.cls-67{fill:#545454;}.cls-68{fill:#868383;}.cls-69{fill:#8a4d3f;}.cls-70{fill:#833523;}.cls-71{fill:#5b5b5c;}.cls-72{fill:#26a7df;}.cls-73{fill:#2b2b2b;}.cls-74{fill:#485a7e;}.cls-75{fill:#354867;}.cls-76{fill:#383737;}.cls-77{fill:#36b24a;}.cls-78{fill:#828383;}.cls-79{fill:#4b4848;}.cls-80{fill:#5e5f5e;}.cls-81{fill:#787878;}.cls-82{clip-path:url(#clippath-1);}.cls-83{clip-path:url(#clippath-4);}.cls-84{clip-path:url(#clippath-3);}.cls-85{clip-path:url(#clippath-2);}.cls-86{clip-path:url(#clippath-6);}.cls-87{clip-path:url(#clippath-5);}.cls-88{opacity:.33;}.cls-89,.cls-90{opacity:.37;}.cls-91{opacity:.65;}.cls-92{opacity:.59;}.cls-93{mix-blend-mode:screen;opacity:.44;}.cls-94{isolation:isolate;}.cls-95{opacity:.2;}.cls-95,.cls-90{mix-blend-mode:multiply;}</style><clipPath id="clippath"><rect class="cls-1" width="1142" height="791"/></clipPath><clipPath id="clippath-1"><rect class="cls-1" x="551.49" y="266.45" width="217.98" height="117.16"/></clipPath><clipPath id="clippath-2"><rect class="cls-1" x="321.77" y="138.87" width="236.11" height="123.78"/></clipPath><clipPath id="clippath-3"><rect class="cls-1" x="551.17" y="138.87" width="230.28" height="123.78"/></clipPath><clipPath id="clippath-4"><rect class="cls-1" x="38.25" y="317.94" width="1058.06" height="471.58"/></clipPath><clipPath id="clippath-5"><path class="cls-1" d="M339.01,597.54c-10.17,3.41-175.35,71.88-175.35,71.88l940.19,8.39-154.42-75.71-610.43-4.56Z"/></clipPath><clipPath id="clippath-6"><path class="cls-1" d="M281.43,811.37l-11.22-77.82c.49-2.78,2.12-9.88,8.23-16.09,7.94-8.05,17.78-8.85,20.2-8.98,57.87-1,115.73-2,173.6-2.99,4.52,.25,15.17,1.48,24.69,9.35,3.81,3.16,6.45,6.55,8.23,9.35,7.61,31.43,15.21,62.85,22.82,94.28h-245.8l-.75-7.11Z"/></clipPath></defs><g class="cls-94"><g id="Layer_2"><g id="Layer_1-2"><g class="cls-2"><g><g><g><path class="cls-62" d="M863.22,408.76H320.81c-10.67,0-19.32-8.94-19.32-19.97V114.33c0-6.65,6.33-12.05,14.13-12.05,184.26,0,368.52,0,552.78,0,7.81,0,14.13,5.39,14.13,12.05,0,91.49,0,182.97,0,274.46,0,11.03-8.65,19.97-19.32,19.97Z"/><path class="cls-14" d="M867.65,384.03c-182.25,0-364.5,0-546.76,0V127.29c182.25,0,364.5,0,546.76,0V384.03Z"/><rect class="cls-57" x="320.89" y="127.29" width="546.91" height="11.58"/><rect class="cls-19" x="781.45" y="138.87" width="86.19" height="245.16"/><rect class="cls-71" x="321.14" y="259.82" width="230.28" height="123.78"/><g class="cls-93"><circle class="cls-71" cx="428.93" cy="303.9" r="24.64"/></g><rect class="cls-42" x="551.17" y="262.05" width="230.28" height="121.55"/><g class="cls-82"><path class="cls-16" d="M697.95,444.27c-2.24,4.97-98.82,4.78-102.06,0-3.23-4.78-1.11-87.43-1.44-105.14-.33-17.72,102.76-14.67,103.06-2.63,.3,12.04,2.68,102.8,.44,107.77Z"/><path class="cls-33" d="M597.81,338.74c-.1,0-.2-.05-.25-.15-.08-.14-.03-.31,.11-.39,.1-.05,9.86-5.42,23.9-7.21,14.43-1.84,37.57-1.41,50.73,.05,13.22,1.47,22.07,5.15,22.16,5.18,.15,.06,.21,.23,.15,.38-.06,.15-.23,.21-.38,.15-.09-.04-8.87-3.68-22-5.14-13.13-1.46-36.2-1.89-50.59-.06-13.93,1.78-23.6,7.09-23.7,7.14-.04,.02-.09,.04-.14,.04Z"/><path class="cls-18" d="M700.87,505.27h-105.81c-4.64,0-8.39-3.42-8.39-7.65h0c0-4.22,3.76-13.21,8.39-13.21h105.81c4.64,0,8.39,8.99,8.39,13.21h0c0,4.22-3.76,7.65-8.39,7.65Z"/><path class="cls-79" d="M649.24,501.71c-42.78,0-59.36-3.41-59.52-3.44-.16-.03-.25-.18-.22-.34s.18-.25,.34-.22c.16,.03,16.7,3.43,59.4,3.43h.15c42.79,0,56.04-3.39,56.17-3.42,.16-.04,.31,.05,.35,.2,.04,.15-.05,.31-.2,.35-.13,.03-13.42,3.43-56.32,3.44h-.15Z"/><path class="cls-35" d="M612.32,442.5s-13.7,18.77-12.43,33.26c1.27,14.49,10.16,23.38,47.5,21.66,30.58-1.41,43.23-.86,47.82-12.62,4.59-11.76-12.74-42.39-12.74-42.39l-51.16-2.92-19,3.01Z"/><path class="cls-66" d="M668.19,313.1c-.24-1.82-.93-3.07-.76-5.02,.13-1.5,.44-2.85,.31-4.37-.2-2.3-1.04-4.36-2.13-6.18-.04-1.45-.56-2.82-1.5-3.72-.62-.58-1.21-.67-1.9-1.02-1.34-.68-1.25-1.51-2.17-2.45-1.63-1.65-3.7-1.31-5.62-1.6-1.14-.17-2.17-.94-3.27-1.34-.99-.36-2.02-.57-3.04-.69-4.7-.58-9.26,1.35-12.69,5.43-1.18,1.42-2.27,3.09-3.04,4.91-.38,.9-.51,1.65-.61,2.64-.1,1.02,0,1.96-.48,2.89-.22,.44-.53,.8-.78,1.21-.93,1.54-1.44,3.4-1.47,5.33-.01,1.03,.17,1.91,.35,2.9,.33,1.72,.06,3.08-.2,4.75-.27,1.71-.08,3.11,.8,4.5l.02,.02c-.02,.09,0,.18,.04,.27,.12,.24,.25,.48,.4,.72,.64,1.17,1.37,2.24,2.14,3.24,.39,.85,.71,1.78,.9,2.89,.09,.52,.73,.3,.64-.22-.07-.38-.15-.76-.24-1.14,.06,.07,.12,.13,.18,.18,.56,.59,1.13,1.14,1.73,1.64,1.7,1.46,3.57,2.58,5.55,3.34,3.2,1.25,6.66,1.59,10.16,.97,1.15-.21,2.35-.46,3.55-.8,2.18-.61,4.37-1.47,6.33-2.76,.66-.41,1.28-.89,1.88-1.41,.43-.38,.85-.78,1.24-1.22,1.35-1.49,1.8-2.97,1.78-5.13,0-.56,.04-1.05,.12-1.51,.14-.72,.38-1.36,.75-2.08,.28-.56,.53-1.15,.73-1.77,.33-1.09,.49-2.24,.34-3.4Z"/><path class="cls-4" d="M638.55,332s.1,7.39-.82,10.67c-.92,3.28-3.59,8.82-3.59,8.82l14.72,41.57,13.69-40.75s-3.08-7.08-3.69-10.98c-.62-3.9-.72-12.21-.72-12.21l-19.59,2.87Z"/><g class="cls-90"><path class="cls-25" d="M638.52,335.12s.34,2.57,1.78,3.75c1.44,1.18,7.86,4.87,10.31,3.64,2.46-1.23,4.06-2.26,5.05-2.87,.99-.62,2.67-4.54,2.67-4.54,0,0-1.88-3.36-3.21-3.16-1.33,.21-9.44,2.05-12.98,2.26-3.54,.21-3.62,.92-3.62,.92Z"/></g><path class="cls-4" d="M633.09,306.14c-.12,.43-.19,.86-.23,1.31-.46,5.73,.42,10.54,1.54,16.16,.98,4.91,1.44,8.72,4.92,12.31,2.91,2.99,6.59,5.13,10.82,4.41,4.16-.71,7.7-3.82,9.6-7.39,2.85-5.34,2.95-10.38,3.31-16.34,.27-4.51,.74-10.72-2.05-14.61-3.63-5.07-13.42-5.49-18.91-4.06-4.04,1.06-7.85,3.97-9.01,8.22Z"/><path class="cls-4" d="M662.04,317.03s2.31-1.64,3.54,.46c1.23,2.1-.5,5.96-2,7.44-1.5,1.48-2.82,2-3.08,1.85-.26-.15,1.54-9.74,1.54-9.74Z"/><path class="cls-4" d="M634.69,317.03s-2.31-1.64-3.54,.46c-1.23,2.1,.5,5.96,2,7.44,1.5,1.48,2.82,2,3.08,1.85,.26-.15-1.54-9.74-1.54-9.74Z"/><path class="cls-66" d="M662.32,299.49c2.67,6.19-10.98-7.74-11.01-7.74-2.94-.02-5.96,.42-8.84,1.11-2.32,.55-4.63,1.46-6.45,3.24-1.87,1.85-2.56,4.29-3.1,6.96-.65,3.25-1.22,6.51-.95,9.84-.03-.02-.05-.04-.09-.05-.36-.18-.67,.42-.31,.6,.54,.27,.84,.78,1.15,1.26,.14,.23,.3,.46,.48,.64,.11,.11,.22,.21,.36,.28,.42,.23,.76,.09,1.1-.25,.01-.01,.03-.03,.04-.04,1.27-1.33,.71-4.19,.49-5.84-.42-3.27-.31-7.27,2.67-8.83,1.77-.92,3.04-2.57,4.61-3.78,1.48-.48,3.06-.5,4.63-.18,1.11,.23,1.99,.44,3.14,.31,1.39-.16,2.59-.27,3.95,.19,1.77,.59,4.87,1.51,5.51,3.7,.24,.85,.33,1.77,.59,2.64,.31,1.01,.64,2.02,.98,3.03,.09,1.44,.18,2.89,.28,4.34,.09,1.34-.14,3.35,.44,4.67,.09,.19,.18,.36,.3,.52,.13,.16,.4,.12,.49-.07,.08-.18,.15-.36,.23-.55,.09-.23,.17-.46,.25-.69,1.62-4.81,1-10.76-.96-15.29Z"/><path class="cls-72" d="M637.33,343.95s2.35,13.62,4.65,20.69c1.4,4.32,.09,0,1.3,4.02,1.21,4.01,5.6,5.19,5.6,5.19,0,0,4.86-2.88,6.39-10.08,1.72-8.09,4.22-19.83,4.22-19.83,0,0,31.63,6.83,32.77,8.17,1.15,1.34-1.91,30.2-1.53,37.47,.38,7.26,.22,13.17-2.46,21.01-2.68,7.84-1.03,16.7-.84,22.24,.19,5.54-5.06,11.85-5.06,11.85l-71.05-.75s-5.71-13.74-4.83-22.77c.79-8.03-.06-13.15-2.35-21.59-2.67-9.87-4.85-40.93-3.46-44.8,1.72-4.78,17.54-5.89,20.65-7.46,3.11-1.57,16-3.39,16-3.39Z"/><g><path class="cls-37" d="M594.54,410.54l-3.4,11.16s-16.64-2.13-18.67-2.07c-2.03,.06,2.04-18.38,2.04-18.38l20.03,9.29Z"/><path class="cls-37" d="M584.66,415.76c3.34,.37,10.81,3.9,18.89,7.32,10.68,4.52,24.53,10.36,24.53,10.36l-2.66,8.36s-49.74-8.11-52.58-12.47c-2.83-4.35-.12-18.77-.12-18.77l11.95,5.19Z"/></g><g><path class="cls-37" d="M716.47,387.82l10.88,4.22s8.6-14.41,9.9-15.96c1.3-1.55-15.72-9.75-15.72-9.75l-5.07,21.49Z"/><path class="cls-37" d="M727.03,384.81s-4.78,12.54-7.37,22.39c-2.29,8.7-5.89,21.15-5.89,21.15l8.22,3.07s24.35-44.13,22.67-49.05c-1.67-4.92-14.68-11.69-14.68-11.69l-2.95,14.13Z"/></g><path class="cls-72" d="M678.21,348.19s10.13,.26,15.43,2.55c5.3,2.29,4.87,4.44,10.9,5.02,6.02,.57,7.31,4.3,11.33,4.87,4.01,.57,10.47,2.01,11.04,3.01,.57,1-4.3,28.68-5.16,29.54s-6.17-1.72-9.03-.86-2.15,2.29-7.31,1.79c-5.16-.5-5.3,.02-10.32,1.98-5.02,1.96-6.74,4.83-13.05,2.68-6.31-2.15-8.46-5.02-8.46-5.88s4.64-44.7,4.64-44.7Z"/><path class="cls-72" d="M601.43,353.69s-6.7,8.88-6.95,9.15c-2.21,2.43-4.39,4.74-5.61,7.84-.8,2.05-1.36,4.2-2.22,6.23-1.27,2.97-3.83,5.07-5.09,7.91-1.1,2.48-1.14,5.47-2.99,7.59-2.66,3.06-6.61,8.36-6.39,9.49,.22,1.13,21.99,18.9,23.21,18.99,1.21,.09,3.54-5.33,6.28-6.55,2.73-1.22,3.13,.33,6.71-3.42,3.58-3.75,4.03-3.45,9.11-5.24,5.08-1.8,8.26-.75,11.63-6.5,3.37-5.75,3.13-9.33,2.56-9.98-.56-.65-30.24-35.51-30.24-35.51Z"/><path class="cls-35" d="M652.68,524.56l-10.47,.95h-.03c-1.44,.02-2.88,.05-4.32,.07h0c-8.73,.14-17.45,.26-26.18,.33-2.99-10.23-14.7-51.63-11.2-59.47,7.67-17.19,19.9-18.34,19.9-18.34l24.66,12.62,2.23,18.61,5.41,45.24Z"/><path class="cls-35" d="M684.71,524.9c-14.17,.12-28.34,.37-42.5,.6h-.03c-1.44,.02-2.88,.05-4.32,.07l9.41-46.25,3.79-18.61,34.01-13.44s10.47,17.6,11.12,28.49c.49,8.13-8.5,38.96-11.46,49.14Z"/><path class="cls-29" d="M650.2,523.36c-.16,0-.28-.13-.29-.28,0-.4-.59-40.35-3.79-50.9-3.16-10.43-29-16.58-29.26-16.64-.15-.04-.25-.19-.21-.34,.04-.15,.19-.25,.34-.21,1.08,.25,26.42,6.29,29.68,17.04,3.22,10.62,3.8,50.65,3.81,51.06,0,.16-.12,.29-.28,.29h0Z"/><path class="cls-29" d="M646.4,472.39c-.13,0-.25-.09-.28-.23-.01-.06-1.25-6.13-4.76-11.03-3.49-4.89-20.62-10.98-20.79-11.04-.15-.05-.23-.22-.18-.37,.05-.15,.22-.23,.37-.18,.71,.25,17.48,6.21,21.07,11.25,3.58,5.01,4.84,11.19,4.85,11.25,.03,.16-.07,.31-.23,.34-.02,0-.04,0-.06,0Z"/><path class="cls-29" d="M648.64,488.02s-.05,0-.07,0c-.15-.04-.24-.2-.2-.35l6-22.86c.04-.15,.19-.25,.35-.2,.15,.04,.24,.2,.2,.35l-6,22.86c-.03,.13-.15,.21-.28,.21Z"/><path class="cls-33" d="M691.63,396.38s-.05,0-.07,0c-.15-.04-.25-.19-.21-.35,.04-.16,4.06-16.49,4.25-23.36,.19-6.94,3.52-15.96,3.55-16.06,.06-.15,.22-.22,.37-.17,.15,.06,.22,.22,.17,.37-.03,.09-3.33,9.02-3.52,15.87-.19,6.93-4.23,23.32-4.27,23.48-.03,.13-.15,.22-.28,.22Z"/><path class="cls-33" d="M615.74,404.18c-.1,.09-.26,.09-.37,0-.14-.11-13.86-11.55-19.39-17.3-5.46-5.68-8.58-7.16-8.62-7.17-.14-.07-.21-.24-.14-.38,.07-.14,.24-.21,.38-.14,.13,.06,3.24,1.52,8.79,7.29,5.5,5.72,19.2,17.14,19.34,17.25,.12,.1,.14,.28,.04,.4-.01,.01-.02,.02-.03,.03Z"/><path class="cls-33" d="M597.41,417.26c-.11,.09-.27,.09-.38,0-.06-.05-6.27-5.48-10.21-9.39-3.91-3.88-11.34-8.58-11.41-8.63-.13-.08-.17-.26-.09-.4,.08-.13,.26-.17,.4-.09,.07,.05,7.55,4.78,11.51,8.71,3.93,3.9,10.12,9.31,10.19,9.37,.12,.1,.13,.29,.03,.4,0,.01-.02,.02-.03,.03Z"/><path class="cls-33" d="M718.16,391.74s-.03,0-.04,0c-.16-.02-.27-.17-.24-.32,.01-.09,1.3-9.24,2.15-15.06,.85-5.84,3.15-12.18,3.17-12.24,.05-.15,.22-.23,.37-.17,.15,.05,.23,.22,.17,.37-.02,.06-2.29,6.35-3.14,12.13-.85,5.81-2.14,14.96-2.15,15.05-.02,.14-.14,.25-.28,.25Z"/><path class="cls-44" d="M642.99,380.51c-.09,0-.18-.04-.23-.12-.41-.58-9.95-14.25-10.37-18.14-.4-3.68-6.47-7.94-6.53-7.98l-.19-.13,3.34-8.24c.06-.15,.23-.22,.37-.16,.15,.06,.22,.23,.16,.37l-3.16,7.82c1.07,.78,6.19,4.66,6.59,8.26,.41,3.74,10.17,17.73,10.27,17.87,.09,.13,.06,.31-.07,.4-.05,.04-.11,.05-.16,.05Z"/><path class="cls-33" d="M602.22,392.47c-.08,.07-.2,.09-.31,.04l-17.26-7.83c-.14-.07-.21-.24-.14-.38,.07-.14,.24-.21,.38-.14l17.26,7.83c.14,.07,.21,.24,.14,.38-.02,.04-.04,.07-.07,.1Z"/><path class="cls-44" d="M653.51,380.51s-.08,0-.12-.03c-.14-.07-.2-.24-.14-.38,.07-.15,7.1-15.11,7.73-18.38,.48-2.51,4.86-7.1,7.21-9.56,.61-.64,1.19-1.24,1.37-1.48-.37-.56-2.56-2.85-4.56-4.85-.11-.11-.11-.29,0-.41s.29-.11,.41,0c4.76,4.77,4.76,5.13,4.76,5.27,0,.2-.12,.34-1.57,1.86-2.31,2.42-6.61,6.93-7.06,9.28-.65,3.34-7.48,17.9-7.77,18.52-.05,.1-.15,.16-.26,.16Z"/><path class="cls-75" d="M581.1,576.27s-.08,0-.12-.01c-.27-.07-.43-.34-.36-.6,.07-.29,7.07-28.71,7.4-40.66,.33-12.09,6.13-27.79,6.19-27.95,.1-.26,.38-.39,.64-.29,.26,.1,.39,.38,.29,.64-.06,.16-5.8,15.71-6.13,27.63-.33,12.06-7.36,40.59-7.43,40.88-.06,.23-.26,.38-.48,.38Z"/><g><path class="cls-73" d="M585.14,393.06s7.88,4.17,16.25,2.81l-.38,6.32s-13.55,1.43-17.58-3.16l1.71-5.97Z"/><path class="cls-35" d="M593.58,395.76l-1.17,6.47,2.56,.17,1.13-6.33s-1.91-.2-2.52-.31Z"/><polygon class="cls-35" points="589.91 399.08 590.16 397.93 590.73 398.08 590.49 399.29 589.91 399.08"/><polygon class="cls-35" points="592.46 399.76 592.72 398.61 593.29 398.76 593.05 399.97 592.46 399.76"/><polygon class="cls-35" points="587.81 398.4 588.07 397.25 588.63 397.4 588.39 398.61 587.81 398.4"/><polygon class="cls-35" points="585.8 397.72 586.06 396.56 586.62 396.72 586.38 397.93 585.8 397.72"/></g><path class="cls-66" d="M645.87,308.56c-.15-.16-.37-.3-.59-.39-1.19-.5-2.57-.39-3.78-.03-.37,.11-2.81,.94-1.69,1.55,.53,.29,1.24,.16,1.8,.04,.74-.16,1.49-.24,2.25-.18,.56,.04,1.19,.17,1.73-.05,.64-.26,.58-.64,.29-.94Z"/><path class="cls-66" d="M658.55,308.27c-.17-.17-.4-.32-.64-.42-1.29-.54-2.78-.42-4.1-.03-.4,.12-3.04,1.01-1.83,1.68,.58,.32,1.34,.17,1.95,.04,.81-.17,1.61-.26,2.44-.19,.61,.05,1.29,.18,1.87-.05,.69-.28,.63-.69,.31-1.02Z"/><path class="cls-14" d="M644,326.8s1.51,.44,4.63,.44,5.18-.68,5.18-.68c0,0-.91,2.54-4.51,2.77-3.6,.22-5.3-2.53-5.3-2.53Z"/><g class="cls-90"><path class="cls-25" d="M647.92,321.78c-.1,0-.2-.07-.24-.17-.04-.13,.03-.27,.16-.32,.67-.22,1.74-.76,1.8-1.26,.07-.66-.71-4.39-1.02-5.77-.03-.13,.05-.27,.19-.3,.14-.03,.27,.06,.3,.19,.12,.52,1.12,5.06,1.03,5.93-.1,.98-1.93,1.61-2.13,1.68-.03,0-.05,.01-.08,.01Z"/></g><ellipse class="cls-65" cx="642.8" cy="312.98" rx="1.42" ry="1.75"/><ellipse class="cls-65" cx="655.22" cy="312.98" rx="1.42" ry="1.75"/></g><rect class="cls-78" x="551.17" y="138.87" width="230.28" height="123.78"/><rect class="cls-42" x="320.89" y="138.87" width="230.28" height="123.78"/><g class="cls-85"><g><path class="cls-74" d="M488.49,248.23c-.35-4.89-.72-9.87-2.36-14.4-1.64-4.53-4.79-8.63-8.96-9.84-.44-.13-1.27-.38-2.4-.74-1.66-.61-3.36-1.11-5.02-1.6-11.67-3.74-32.36-10.49-32.36-10.49l-.02,.03s-.06-.02-.08-.03c-.53,.71-1.46,1.38-2.7,2-1.24-.63-2.17-1.29-2.7-2-.03,.01-.06,.02-.08,.03l-.02-.03s-20.69,6.75-32.36,10.49c-1.66,.49-3.36,.99-5.02,1.6-1.13,.36-1.96,.61-2.4,.74-4.17,1.21-7.32,5.31-8.96,9.84-1.64,4.53-2.01,9.51-2.36,14.4-.89,12.38-1.77,24.75-2.66,37.13h113.12c-.89-12.38-1.77-24.75-2.66-37.13Z"/><rect class="cls-34" x="421.98" y="190.61" width="21.94" height="35.02" rx="6.61" ry="6.61"/><path class="cls-65" d="M452.76,178.06c-.25-1.69,.56-2.74,.74-4.55,.14-1.39,.46-2.65,.32-4.06-.21-2.13-1.09-4.06-2.25-5.75-.04-1.35-.59-2.62-1.58-3.46-.65-.54-1.27-.62-2-.95-1.41-.63-1.32-1.41-2.28-2.28-1.72-1.54-3.9-1.22-5.92-1.49-1.2-.16-2.28-.88-3.45-1.25-1.05-.34-2.13-.53-3.21-.65-4.96-.54-9.76,1.26-13.38,5.05-1.25,1.32-2.39,2.88-3.2,4.56-.4,.84-.54,1.54-.64,2.46-.11,.95,0,1.82-.51,2.68-.24,.4-.56,.74-.82,1.13-.98,1.43-1.52,3.16-1.55,4.95-.01,.95,.17,1.78,.37,2.7,.34,1.6,2.44,2.86,2.17,4.41-.29,1.59-.09,2.9,.84,4.19l.02,.02c-.02,.08,0,.16,.04,.25,.13,.23,.27,.45,.42,.67,.68,1.09-.94,2.09-.13,3.01,.41,.79,.75,1.65,.95,2.69,.09,.48,.77,.27,.67-.21-.07-.36-.16-.71-.26-1.06,.06,.06,.12,.12,.19,.17,.59,.55,1.19,1.06,1.83,1.52,1.8,1.36,3.77,2.39,5.84,3.11,3.37,1.17,7.02,1.48,10.7,.91,1.22-.19,2.48-.43,3.74-.75,2.3-.56,4.6-1.37,6.67-2.57,.69-.38,1.35-.82,1.98-1.31,.46-.35,.89-.73,1.3-1.13,1.42-1.39-.86-3-.88-5.01,0-.52,.04-.97,.12-1.4,.14-.67,.71-.54,1.72-3.35,.35-1.02,1.56-2.2,1.4-3.27Z"/><path class="cls-25" d="M423.04,203.27s.36,2.71,1.87,3.95c1.51,1.24,8.28,5.14,10.87,3.84,2.59-1.3,4.28-2.38,5.32-3.03,1.05-.65,2.81-4.78,2.81-4.78,0,0-1.98-3.54-3.39-3.33-1.41,.22-9.95,2.16-13.68,2.38-3.73,.22-3.82,.97-3.82,.97Z"/><path class="cls-34" d="M417.31,172.72c-.12,.45-.2,.91-.24,1.38-.49,6.04,.44,11.11,1.62,17.03,1.03,5.18,1.51,9.19,5.19,12.97,3.06,3.15,6.95,5.41,11.41,4.65,4.38-.75,8.11-4.03,10.12-7.79,3-5.62,3.11-10.94,3.48-17.22,.28-4.75,.78-11.3-2.16-15.4-3.82-5.35-14.15-5.79-19.93-4.28-4.26,1.11-8.27,4.18-9.5,8.66Z"/><path class="cls-14" d="M428.93,197.49s1.54,.45,4.73,.45,5.29-.69,5.29-.69c0,0-.93,2.6-4.61,2.83-3.68,.23-5.41-2.58-5.41-2.58Z"/><path class="cls-70" d="M433.4,194.77c-.13,0-.24-.08-.29-.21-.05-.16,.03-.33,.19-.38,.81-.27,2.11-.92,2.17-1.53,.08-.8-.86-5.31-1.24-6.98-.04-.16,.07-.32,.23-.36,.17-.03,.32,.07,.36,.23,.14,.63,1.36,6.13,1.25,7.18-.12,1.19-2.33,1.96-2.58,2.04-.03,.01-.06,.02-.1,.02Z"/><path class="cls-65" d="M429.67,180.54c-.19-.19-.45-.36-.71-.47-1.44-.61-3.11-.47-4.58-.03-.44,.13-3.4,1.13-2.05,1.87,.65,.36,1.5,.19,2.18,.04,.9-.19,1.8-.29,2.73-.22,.68,.05,1.44,.2,2.09-.06,.77-.31,.71-.77,.35-1.14Z"/><path class="cls-65" d="M438.21,180.54c.19-.19,.45-.36,.71-.47,1.44-.61,3.11-.47,4.58-.03,.44,.13,3.4,1.13,2.05,1.87-.65,.36-1.5,.19-2.18,.04-.9-.19-1.8-.29-2.73-.22-.68,.05-1.44,.2-2.09-.06-.77-.31-.71-.77-.35-1.14Z"/><path class="cls-34" d="M419,184.2s-2.43-1.73-3.73,.49c-1.3,2.22,.52,6.28,2.11,7.84,1.59,1.55,2.97,2.11,3.24,1.95,.27-.16-1.62-10.27-1.62-10.27Z"/><path class="cls-34" d="M448.85,182.77s2.43-1.73,3.73,.49c1.3,2.22-.52,6.28-2.11,7.84-1.59,1.55-2.97,2.11-3.24,1.95-.27-.16,1.62-10.27,1.62-10.27Z"/><path class="cls-65" d="M448.12,169.41c-2.27-4.64-6.48-7.17-11.61-7.2-3.1-.02-6.29,.39-9.32,1.03-2.44,.51-4.88,1.35-6.79,3.02-1.97,1.72-2.7,3.99-3.26,6.47-.68,3.02-1.28,6.05-1,9.15-.03-.02-.05-.04-.09-.05-.37-.17-.71,.39-.33,.56,.57,.25,.89,.73,1.21,1.17,.15,.22,.31,.43,.51,.6,.11,.1,.24,.19,.38,.26,.45,.21,.8,.08,1.15-.24,.01-.01,.03-.02,.04-.04,1.34-1.24,.74-3.89,.52-5.43-.45-3.04-.33-6.76,2.82-8.21,1.86-.85,3.2-2.39,4.86-3.51,1.56-.45,3.23-.47,4.88-.17,1.17,.22,2.1,.41,3.31,.28,1.46-.15,2.73-.25,4.16,.18,1.87,.55,5.14,1.4,5.81,3.44,.25,.79,.35,1.65,.62,2.45,.33,.94,.68,1.88,1.03,2.82,.1,1.34,.19,2.69,.29,4.03,.1,1.25-.15,3.12,.46,4.34,.09,.18,.19,.34,.32,.48,.13,.15,.42,.11,.51-.07,.08-.17,.16-.34,.24-.51,.1-.21,.18-.42,.27-.64,1.71-4.47,1.06-10-1.01-14.22Z"/><ellipse class="cls-65" cx="426.87" cy="185.02" rx="1.31" ry="1.61"/><ellipse class="cls-65" cx="426.65" cy="184.86" rx="1.31" ry="1.61"/><ellipse class="cls-65" cx="441.52" cy="184.81" rx="1.2" ry="1.55"/><ellipse class="cls-34" cx="432.95" cy="220.97" rx="10.97" ry="10.49"/></g></g><g class="cls-84"><g><path class="cls-64" d="M682.2,351.51s-.05,0-.07,0l-51.76-12.54c-.16-.04-.26-.2-.22-.36,.04-.16,.2-.25,.36-.22l51.76,12.54c.16,.04,.26,.2,.22,.36-.03,.14-.15,.23-.29,.23Z"/><ellipse class="cls-64" cx="652.4" cy="152.91" rx="5.82" ry="6.36"/><g><path class="cls-65" d="M684.92,212.48s15.66,5.02,25.13,13.91c4.43,4.15,8.41,9.52,12.99,17.15,5.8,9.67,3.09,14.45-.45,17.55-6.1,5.35-9.02,2.73-14.77,1.93-5.75-.79-11.95-2.13-12.75-2.53-.79-.4-6.15-32.52-6.15-32.52l-4.02-15.5Z"/><path class="cls-26" d="M712.15,240.53l-4.72-6.8s-2.08,6-2.13,6.25c-.05,.25-.25,4.26-.25,4.26l1.97,.53,5.35-.53-.22-3.71Z"/><path class="cls-26" d="M707.01,244.77l2.93,4.77c1.33,2.16,4.18,2.81,6.31,1.44h0c2.72-1.75,2.78-5.7,.12-7.54l-4.22-2.91-5.14,4.24Z"/><path class="cls-79" d="M653.36,315.03s-27.04,11.3-29.82,9.91c-2.78-1.39-26.57-93.18-27.36-96.75-.79-3.57,3.97-6.74,6.94-6.94,2.97-.2,58.35-13.62,58.35-13.62l-8.11,107.39Z"/><path class="cls-32" d="M691.07,322.23s-.08,0-.12-.02c-.15-.07-.22-.24-.16-.39,.04-.08,3.63-8.36,9.15-13.09,5.49-4.7,12.76-8.94,12.83-8.99,.12-.07,.28-.05,.37,.06,.09,.11,.1,.27,.01,.38l-7.14,9.17c-.1,.13-.29,.15-.42,.05-.13-.1-.15-.29-.05-.42l6.15-7.9c-2.37,1.46-7.36,4.65-11.38,8.1-5.41,4.64-8.96,12.79-8.99,12.87-.05,.11-.16,.18-.27,.18Z"/><path class="cls-65" d="M655.37,204.47s-5.23,1.85-12.63,5.59c-5.07,2.56-5.63,3.1-10.58,5.87-3.35,1.87-7.33,3.32-9.84,6.36-3.13,3.8-3.72,13.5-3.67,18.03,.11,9.75,2.26,14.93,3.33,24.62,.51,4.58,.58,11.51,3.51,15.38,4.96,6.54,5.95,20.62,6.94,24.99,.99,4.36,7.73,9.72,7.73,9.72,0,0,39.37-11.07,48.3-15.23,6.71-3.13,11.25-9.04,15.67-14.71,1.37-1.76,.22-6.05-.11-8.03-1.59-9.32-2.18-2.78-3.57-14.48-1.39-11.7-.79-40.95-5.35-45.51-4.56-4.56-39.72-12.6-39.72-12.6Z"/><path class="cls-64" d="M624.59,324.15c-.07,0-.14-.02-.19-.07-.13-.11-.14-.29-.04-.42l4.81-5.68-25.54-94.29c-.04-.16,.05-.32,.21-.36,.16-.04,.32,.05,.36,.21l25.62,94.59-5.01,5.92c-.06,.07-.14,.11-.23,.11Z"/><path class="cls-64" d="M630.54,317.46c-.13,0-.25-.09-.29-.22-.04-.16,.05-.32,.21-.36l7.58-1.96c.16-.04,.32,.05,.36,.21,.04,.16-.05,.32-.21,.36l-7.58,1.96s-.05,0-.07,0Z"/><path class="cls-64" d="M639.4,356.14c-.1,0-.19,0-.29-.03-.81-.16-1.33-.94-1.17-1.75l7.95-40.47c.16-.81,.94-1.33,1.75-1.17,.81,.16,1.33,.94,1.17,1.75l-7.95,40.47c-.14,.71-.76,1.2-1.46,1.2Z"/><path class="cls-64" d="M662.57,361.03c-.1,0-.19,0-.29-.03-.81-.16-1.33-.94-1.17-1.75l7.95-40.47c.16-.81,.94-1.33,1.75-1.17,.81,.16,1.33,.94,1.17,1.75l-7.95,40.47c-.14,.71-.76,1.2-1.46,1.2Z"/><g><path class="cls-64" d="M684.08,321.06c-.15,0-.29-.12-.3-.28l-.35-5.05,9.59-4.52c.15-.07,.33,0,.4,.14,.07,.15,0,.33-.14,.4l-9.22,4.34,.32,4.65c.01,.16-.11,.31-.28,.32h-.02Z"/><path class="cls-64" d="M682.2,315.82h-.03l-44.02-4.46c-.16-.02-.28-.16-.27-.33,.02-.16,.16-.28,.33-.27l44.02,4.46c.16,.02,.28,.16,.27,.33-.02,.15-.14,.27-.3,.27Z"/></g><path class="cls-64" d="M699.41,231.59l-7.99,20c-.16,.41,.15,.84,.59,.81l10.81-.72c.22-.01,.41-.15,.5-.35l8.99-19.76c.18-.4-.12-.86-.57-.84l-11.81,.48c-.23,0-.44,.16-.53,.37Z"/><path class="cls-26" d="M684.92,243.54s4.02-3.07,6.2-3.17c2.18-.1,3.36,0,3.36,0l-1.12,2.79s2.76,1.18,3.95,1.47c1.19,.3,5.5-.84,6.25-.79,.74,.05,.5,1.64-.4,3.52-.89,1.88-2.33,3.48-6.74,4.26-4.41,.78-11.06-.45-11.06-.45l-.45-7.63Z"/><polygon class="cls-26" points="684.92 243.54 668.46 251.88 674.26 264.21 688.45 249.19 684.92 243.54"/><g class="cls-92"><path class="cls-47" d="M628.78,267.74s-.07,0-.1-.02c-.15-.06-.23-.23-.18-.38,.15-.4,3.61-9.74,6.49-11.57,1.45-.93,3.08-1.42,4.81-1.94,1.64-.5,3.34-1.01,4.91-1.93,2.31-1.36,4.91-.77,7.22-.25,1.01,.23,1.96,.44,2.75,.45,1.31,.02,2.2-.32,3.24-.71,.93-.35,1.99-.75,3.48-.89,1.4-.13,2.35,.07,2.84,.58,.16,.17,.24,.34,.28,.48l2.65-.17c.15,0,.3,.11,.32,.28,.01,.16-.11,.3-.28,.32l-3.29,.21,.05-.36s.01-.18-.17-.36c-.2-.2-.78-.52-2.34-.38-1.4,.13-2.38,.49-3.32,.85-1.05,.4-2.04,.76-3.46,.75-.86-.01-1.84-.23-2.87-.47-2.19-.5-4.68-1.06-6.78,.18-1.63,.96-3.37,1.49-5.04,1.99-1.68,.51-3.27,.99-4.66,1.87-2.71,1.72-6.21,11.17-6.25,11.27-.04,.12-.16,.19-.28,.19Z"/></g><g class="cls-92"><path class="cls-47" d="M639.68,282.23c-4.02,0-5.76-.89-5.84-.93-.14-.08-.2-.26-.12-.4,.08-.14,.26-.2,.4-.12,.02,.01,2.44,1.23,8.15,.75,5.13-.43,18.74-1.57,20.27-4.03,1.33-2.15,5.42-5.61,7.61-7.47,.47-.4,.84-.71,1.06-.91,1.16-1.04,3.15-3.99,3.17-4.02,.09-.14,.28-.17,.41-.08,.14,.09,.17,.28,.08,.41-.08,.12-2.05,3.05-3.26,4.13-.22,.2-.6,.52-1.07,.92-2.01,1.71-6.21,5.26-7.49,7.33-1.48,2.39-11.31,3.52-20.72,4.3-.97,.08-1.84,.12-2.63,.12Z"/></g><g class="cls-92"><path class="cls-47" d="M648.63,250.68c-.13,0-.26-.09-.29-.23-.02-.08-1.96-7.9-5.85-11.82-3.94-3.97-16.13-14.69-16.26-14.8-.12-.11-.14-.3-.03-.42,.11-.12,.3-.14,.42-.03,.12,.11,12.34,10.84,16.29,14.83,4,4.04,5.92,11.77,6,12.1,.04,.16-.06,.32-.22,.36-.02,0-.05,0-.07,0Z"/></g><g class="cls-92"><path class="cls-47" d="M694.22,237.99s-.03,0-.04,0c-.16-.02-.28-.17-.25-.33l2.4-17.7c.02-.16,.17-.28,.33-.26,.16,.02,.28,.17,.25,.33l-2.4,17.7c-.02,.15-.15,.26-.29,.26Z"/></g><g class="cls-92"><path class="cls-47" d="M705.67,261.09c-.13,0-.25-.08-.28-.21-.03-.09-.68-2.27-.63-5.65,.05-3.4,1.91-7.39,1.99-7.55,.07-.15,.25-.21,.4-.14,.15,.07,.21,.25,.14,.4-.02,.04-1.89,4.04-1.94,7.31-.05,3.28,.6,5.44,.61,5.47,.05,.16-.04,.32-.2,.37-.03,0-.06,.01-.09,.01Z"/></g><g class="cls-92"><path class="cls-47" d="M700.21,260.61c-.13,0-.26-.09-.29-.23l-1.61-6.43c-.04-.16,.06-.32,.22-.36,.16-.04,.32,.06,.36,.22l1.61,6.43c.04,.16-.06,.32-.22,.36-.02,0-.05,0-.07,0Z"/></g><g class="cls-92"><path class="cls-47" d="M721.16,241.87h-4.96c-.16,0-.3-.13-.3-.3s.13-.3,.3-.3h4.96c.16,0,.3,.13,.3,.3s-.13,.3-.3,.3Z"/></g><rect class="cls-26" x="645.2" y="194.56" width="16.51" height="19.27" rx="6.61" ry="6.61"/><path class="cls-64" d="M673.03,175.89c-.23-1.54-.89-2.59-.72-4.23,.12-1.26,.42-2.4,.29-3.68-.19-1.93-.99-3.68-2.03-5.21-.03-1.22-.53-2.38-1.44-3.13-.59-.49-1.15-.57-1.81-.86-1.28-.57-1.19-1.27-2.07-2.06-1.55-1.39-3.53-1.11-5.36-1.35-1.09-.14-2.07-.8-3.13-1.13-.95-.3-1.93-.48-2.91-.58-4.49-.49-8.85,1.14-12.13,4.58-1.13,1.19-2.17,2.61-2.9,4.14-.36,.76-.49,1.39-.58,2.23-.1,.86,0,1.65-.46,2.43-.21,.37-.51,.67-.75,1.02-.89,1.29-1.38,2.87-1.4,4.49-.01,.86,.16,1.61,.33,2.44,.31,1.45,.06,2.59-.19,4-.26,1.44-.08,2.62,.76,3.79l.02,.02c-.02,.07,0,.15,.04,.23,.12,.21,.24,.4,.38,.6,.62,.99,1.31,1.89,2.04,2.73,.37,.72,.68,1.5,.86,2.44,.08,.44,.7,.25,.61-.19-.06-.32-.14-.64-.23-.96,.06,.06,.11,.11,.17,.16,.53,.5,1.08,.96,1.66,1.38,1.63,1.23,3.41,2.17,5.3,2.82,3.05,1.06,6.37,1.34,9.7,.82,1.1-.17,2.24-.39,3.39-.68,2.08-.51,4.17-1.24,6.05-2.33,.63-.35,1.23-.75,1.79-1.19,.41-.32,.81-.66,1.18-1.03,1.29-1.26,1.72-2.5,1.7-4.32,0-.47,.03-.88,.11-1.27,.13-.6,.37-1.14,.71-1.75,.27-.47,.51-.97,.7-1.49,.32-.92,.46-1.89,.32-2.87Z"/><path class="cls-28" d="M644.7,198.63s.32,2.46,1.7,3.58c1.37,1.13,7.51,4.65,9.85,3.48,2.35-1.18,3.87-2.16,4.82-2.74,.95-.59,2.55-4.33,2.55-4.33,0,0-1.8-3.21-3.07-3.02-1.27,.2-9.01,1.96-12.39,2.16-3.38,.2-3.46,.87-3.46,.87Z"/><path class="cls-26" d="M639.51,170.94c-.11,.41-.19,.82-.22,1.25-.44,5.47,.4,10.07,1.47,15.43,.93,4.69,1.37,8.33,4.7,11.76,2.78,2.86,6.3,4.9,10.34,4.21,3.97-.68,7.35-3.65,9.17-7.06,2.72-5.1,2.82-9.92,3.16-15.61,.26-4.3,.7-10.24-1.96-13.96-3.46-4.85-12.82-5.25-18.06-3.88-3.86,1.01-7.5,3.79-8.61,7.85Z"/><path class="cls-28" d="M654.09,190.93c-.11,0-.22-.07-.26-.19-.05-.14,.03-.3,.17-.35,.73-.24,1.91-.84,1.97-1.39,.08-.73-.78-4.82-1.12-6.33-.03-.15,.06-.29,.21-.33,.15-.03,.29,.06,.33,.21,.13,.57,1.23,5.56,1.13,6.51-.11,1.07-2.11,1.77-2.34,1.85-.03,0-.06,.01-.09,.01Z"/><path class="cls-64" d="M650.71,178.03c-.17-.17-.41-.32-.65-.42-1.31-.55-2.82-.43-4.15-.03-.4,.12-3.08,1.03-1.86,1.7,.59,.32,1.36,.17,1.97,.04,.82-.17,1.64-.26,2.47-.2,.61,.05,1.3,.18,1.9-.05,.7-.28,.64-.7,.31-1.03Z"/><path class="cls-64" d="M658.45,178.03c.17-.17,.41-.32,.65-.42,1.31-.55,2.82-.43,4.15-.03,.4,.12,3.08,1.03,1.86,1.7-.59,.32-1.36,.17-1.97,.04-.82-.17-1.64-.26-2.47-.2-.61,.05-1.3,.18-1.9-.05-.7-.28-.64-.7-.31-1.03Z"/><path class="cls-26" d="M667.17,181.35s2.2-1.57,3.38,.44c1.18,2.01-.47,5.69-1.91,7.1-1.44,1.41-2.69,1.91-2.94,1.76-.24-.15,1.47-9.31,1.47-9.31Z"/><path class="cls-26" d="M641.04,181.35s-2.2-1.57-3.38,.44c-1.18,2.01,.47,5.69,1.91,7.1,1.44,1.41,2.69,1.91,2.94,1.76,.24-.15-1.47-9.31-1.47-9.31Z"/><path class="cls-64" d="M667.43,167.95c-2.06-4.21-5.87-6.5-10.52-6.52-2.81-.02-5.7,.35-8.45,.93-2.21,.46-4.43,1.23-6.16,2.73-1.79,1.56-2.44,3.62-2.96,5.86-.62,2.74-1.16,5.48-.9,8.29-.03-.02-.05-.03-.08-.04-.34-.15-.64,.36-.3,.51,.52,.23,.81,.66,1.1,1.06,.14,.2,.28,.39,.46,.54,.1,.09,.21,.18,.35,.24,.41,.19,.72,.08,1.05-.21,.01-.01,.03-.02,.04-.03,1.21-1.12,.67-3.53,.47-4.92-.41-2.76-.3-6.13,2.55-7.44,1.69-.77,2.9-2.17,4.4-3.18,1.41-.41,2.93-.42,4.43-.15,1.06,.2,1.9,.37,3,.26,1.33-.14,2.48-.23,3.77,.16,1.69,.5,4.66,1.27,5.26,3.12,.23,.71,.32,1.5,.56,2.22,.3,.85,.61,1.7,.94,2.55,.09,1.22,.18,2.44,.26,3.65,.09,1.13-.13,2.83,.42,3.93,.08,.16,.18,.31,.29,.44,.12,.14,.38,.1,.47-.06,.08-.15,.15-.31,.22-.47,.09-.19,.16-.38,.24-.58,1.55-4.05,.96-9.07-.91-12.88Z"/><path class="cls-14" d="M650.4,195.12s1.38,.11,3.68,.06c2.31-.06,4.36-.62,4.36-.62,0,0-1.03,2.27-3.7,2.57-2.67,.3-4.35-2.01-4.35-2.01Z"/><path class="cls-64" d="M647.95,181.31c-.14-.36-.36-.67-.69-.65-.9,.04-.74,1.59-.56,2.07,.1,.28,.35,.57,.65,.64,.32,.07,.58-.16,.7-.44,.11-.25,.13-.54,.09-.81-.02-.2-.08-.51-.19-.8Z"/><path class="cls-64" d="M662.51,181.41c-.09-.37-.26-.71-.6-.74-.9-.08-.95,1.48-.85,1.97,.06,.29,.27,.61,.56,.72,.31,.12,.6-.07,.76-.34,.14-.24,.2-.52,.21-.79,0-.2,0-.52-.08-.82Z"/><path class="cls-23" d="M641.3,191.37c-.01-.67,.07-1.75-.4-2.29-.48-.55-1-.14-1.31,.35-.49,.8-.63,1.78-.64,2.71,0,.53,0,1.06,.09,1.58,.05,.25,.11,.55,.27,.75,.11,.14,.57,.41,.56,.03-.01-.41-.06-.83-.06-1.24,0-.26-.02-.52-.01-.78,0-.34,.02-.68,.04-1.02,0-.16,0-.38,0-.6,.03-.25,.05-.64,.38-.67,.12,0,.24,.06,.3,.16,.05,.08,.06,.17,.07,.26,.14,1.22-.04,2.52-.12,3.74,0,.05,0,.1,.01,.15,.03,.08,.11,.12,.19,.13,.17,.02,.34-.11,.42-.26,.08-.16,.09-.34,.1-.51,.05-.82,.1-1.65,.09-2.47v-.02Z"/><path class="cls-14" d="M639.78,189.47c.59,.46,1.19-.38,.91-.93-.15-.29-.54-.46-.83-.31-.19,.1-.3,.31-.34,.52-.03,.17-.02,.36,.07,.51,.05,.09,.12,.16,.18,.21Z"/><path class="cls-23" d="M669.48,190.62c-.01-.67,.07-1.75-.4-2.29-.48-.55-1-.14-1.31,.35-.49,.8-.63,1.78-.64,2.71,0,.53,0,1.06,.09,1.58,.05,.25,.11,.55,.27,.75,.11,.14,.57,.41,.56,.03-.01-.41-.06-.83-.06-1.24,0-.26-.02-.52-.01-.78,0-.34,.02-.68,.04-1.02,0-.16,0-.38,0-.6,.03-.25,.05-.64,.38-.67,.12,0,.24,.06,.3,.16,.05,.08,.06,.17,.07,.26,.14,1.22-.04,2.52-.12,3.74,0,.05,0,.1,.01,.15,.03,.08,.11,.12,.19,.13,.17,.02,.34-.11,.42-.26,.08-.16,.09-.34,.1-.51,.05-.82,.1-1.65,.09-2.47v-.02Z"/><path class="cls-14" d="M667.95,188.73c.59,.46,1.19-.38,.91-.93-.15-.29-.54-.46-.83-.31-.19,.1-.3,.31-.34,.52-.03,.17-.02,.36,.07,.51,.05,.09,.12,.16,.18,.21Z"/></g></g></g><circle class="cls-42" cx="597.33" cy="114.27" r="8.08"/><g class="cls-93"><path class="cls-71" d="M375.69,383.6s4.44-39.48,41.46-51.88c9.85-3.3,20.59-2.91,30.09,1.3,13.51,5.99,31.62,19.71,34.91,50.58h-106.47Z"/></g></g><g class="cls-93"><path class="cls-71" d="M368.65,383.63c0-31.9,25.86-57.75,57.75-57.75s57.75,25.86,57.75,57.75"/></g></g><g class="cls-83"><path class="cls-79" d="M457.27,515.86c-5.93,0-10.75-4.82-10.75-10.76s4.82-10.75,10.75-10.75,10.75,4.82,10.75,10.75-4.82,10.76-10.75,10.76Zm0-19.86c-5.02,0-9.1,4.08-9.1,9.1s4.08,9.1,9.1,9.1,9.1-4.08,9.1-9.1-4.08-9.1-9.1-9.1Z"/><g class="cls-87"><rect class="cls-37" x="163.67" y="597.54" width="23.5" height="80.27"/><rect class="cls-37" x="187.17" y="597.54" width="23.5" height="80.27"/><rect class="cls-40" x="210.68" y="597.54" width="23.5" height="80.27"/><rect class="cls-40" x="234.18" y="597.54" width="23.5" height="80.27"/><rect class="cls-39" x="257.69" y="597.54" width="23.5" height="80.27"/><rect class="cls-39" x="281.19" y="597.54" width="23.5" height="80.27"/><rect class="cls-54" x="304.7" y="597.54" width="23.5" height="80.27"/><rect class="cls-55" x="328.2" y="597.54" width="23.5" height="80.27"/><rect class="cls-52" x="351.71" y="597.54" width="23.5" height="80.27"/><rect class="cls-51" x="375.21" y="597.54" width="23.5" height="80.27"/><rect class="cls-60" x="398.72" y="597.54" width="23.5" height="80.27"/><rect class="cls-43" x="422.22" y="597.54" width="23.5" height="80.27"/><rect class="cls-53" x="445.73" y="597.54" width="23.5" height="80.27"/><rect class="cls-36" x="469.23" y="597.54" width="23.5" height="80.27"/><rect class="cls-49" x="492.73" y="597.54" width="23.5" height="80.27"/><rect class="cls-48" x="516.24" y="597.54" width="23.5" height="80.27"/><rect class="cls-46" x="539.74" y="597.54" width="23.5" height="80.27"/><rect class="cls-45" x="563.25" y="597.54" width="23.5" height="80.27"/><rect class="cls-38" x="586.75" y="597.54" width="23.5" height="80.27"/><rect class="cls-63" x="610.26" y="597.54" width="23.5" height="80.27"/><rect class="cls-61" x="633.76" y="597.54" width="23.5" height="80.27"/><rect class="cls-58" x="657.27" y="597.54" width="23.5" height="80.27"/><rect class="cls-56" x="680.77" y="597.54" width="23.5" height="80.27"/><rect class="cls-20" x="704.28" y="597.54" width="23.5" height="80.27"/><rect class="cls-22" x="727.78" y="597.54" width="23.5" height="80.27"/><rect class="cls-18" x="751.29" y="597.54" width="23.5" height="80.27"/><rect class="cls-11" x="774.79" y="597.54" width="23.5" height="80.27"/><rect class="cls-13" x="798.3" y="597.54" width="23.5" height="80.27"/><rect class="cls-15" x="821.8" y="597.54" width="23.5" height="80.27"/><rect class="cls-10" x="845.31" y="597.54" width="23.5" height="80.27"/><rect class="cls-7" x="868.81" y="597.54" width="23.5" height="80.27"/><rect class="cls-17" x="892.32" y="597.54" width="23.5" height="80.27"/><rect class="cls-21" x="915.82" y="597.54" width="23.5" height="80.27"/><rect class="cls-9" x="939.33" y="597.54" width="23.5" height="80.27"/><rect class="cls-16" x="962.83" y="597.54" width="23.5" height="80.27"/><rect class="cls-6" x="986.34" y="597.54" width="23.5" height="80.27"/><rect class="cls-3" x="1009.84" y="597.54" width="23.5" height="80.27"/><rect class="cls-12" x="1033.35" y="597.54" width="23.5" height="80.27"/><rect class="cls-5" x="1056.85" y="597.54" width="23.5" height="80.27"/><rect class="cls-5" x="1080.36" y="597.54" width="23.5" height="80.27"/></g><rect class="cls-79" x="163.67" y="669.42" width="791.29" height="22.98"/><rect class="cls-79" x="431.08" y="559.02" width="142.17" height="107.49" rx="6.61" ry="6.61"/><rect class="cls-14" x="431.08" y="569.56" width="128.23" height="96.95" rx="6.61" ry="6.61"/><circle class="cls-14" cx="460.92" cy="564.69" r="3.65"/><path class="cls-80" d="M508.68,750.14c1.58-4.39,4.72-7.44,8.03-7.8,3.48-.38,6.53,2.3,7.67,6.74,4.08,24.38,8.16,48.75,12.24,73.13l-34.45-9.77,6.51-62.31Z"/><path class="cls-74" d="M866.2,720.7s54.25-8.85,53.5-9.22c-.01,0-.02-.02-.02-.02-.01-.01,2.28-5.64,7.5-8.59,2.34-1.32,23.73-4.51,11.97-2.62l111.87,49.76s-13.96,60.99-15.67,60.63c-.02,0-.04-.02-.04-.03-10.29-10.26-92.41,7.86-92.41,7.86-19.24,4.25-47.56,5.76-85.68-7.83l8.98-89.95Z"/><path class="cls-75" d="M873.68,743.56c-.12,0-.23-.08-.26-.2-.04-.15,.04-.3,.18-.34l36.98-11.21c.78-.7,11.22-10.1,12.28-11.29,.1-.11,.28-.12,.39-.02,.11,.1,.12,.28,.02,.39-1.12,1.25-11.91,10.96-12.37,11.38l-.1,.06-37.04,11.22s-.05,.01-.08,.01Z"/><path class="cls-41" d="M877.8,598.92c-6.89-10.64-6.49-23.21,0-29.99,7.54-7.88,20.58-5.12,23.56-4.49,7.87,1.67,13.19,5.9,15.71,8.23-.41,3.62-1.25,8.12-2.99,13.09-2.19,6.27-5.07,11.14-7.48,14.59-9.6-.48-19.2-.96-28.8-1.44Z"/><path class="cls-67" d="M973.2,555.84c-1.12,.37-30.3,16.46-30.3,16.46l-19.45,34.79s-16.84,13.84-16.84,11.22v-21.7c-2.06-1.89-6.85-5.8-14.22-7.48-7.38-1.69-13.41-.25-16.09,.56-16.7,21.84-19.08,39.07-19.08,50.69,0,1.12,11.6,46.02,11.6,46.02,8.25,1.25,24.37,2.54,43.03-3.74,21.74-7.32,34.9-20.9,40.41-27.31-1.12,4.12-2.24,8.23-3.37,12.35-.71,.26-3.27,1.3-4.86,4.12-1.39,2.45-1.22,4.8-1.12,5.61-.46,.9-1.25,2.78-1.12,5.24,.2,3.69,2.36,6.08,2.99,6.73-1.54,.52-4.22,1.66-6.73,4.12-3.34,3.26-4.47,6.97-4.86,8.61,4.16,8.28,15.02,27.06,37.41,40.41,29.44,17.55,58.71,13.72,66.97,12.35,18.83-33.17,37.66-66.35,56.49-99.52,1.37-9.42,6.43-51.35-21.33-89.42-17.87-24.51-40.72-35.6-51.63-40.03-15.96,9.98-31.93,19.95-47.89,29.93Z"/><rect class="cls-79" x="928.44" y="467.87" width="8.84" height="19.15" rx="2" ry="2"/><path class="cls-41" d="M937.28,439.86c-1.43,2.64-2.88,5.76-4.12,9.35-2.44,7.08-3.21,13.48-3.37,18.33,1.93,1.12,3.87,2.24,5.8,3.37-2.84,8.65-3.32,16.07-3.18,21.33,.23,8.8,.57,21.49,9.35,27.31,4.98,3.3,10.82,3.16,14.59,2.62,.15,3.29,.76,8.12,2.99,13.47,3.28,7.86,8.33,12.77,11.22,15.19,15.34-6.88,30.68-13.76,46.02-20.63l-6.73-37.43c-24.19-17.63-48.39-35.27-72.58-52.9Z"/><rect class="cls-69" x="642.97" y="717.46" width="21.46" height="30.08" rx="6.61" ry="6.61"/><rect class="cls-69" x="632.74" y="688.28" width="20.47" height="40.97" rx="5.49" ry="5.49" transform="translate(-161.49 190.49) rotate(-15)"/><path class="cls-79" d="M297.39,516.97c-16.36,12.59-22.7,25.08-25.44,34.26-9.7,32.44,10.34,74.33,8.98,74.72,0,0-.02,0-.02,0-.04-.15,105.77-31.57,104.78-31.08-1,.5-32.17-59.49-32.17-59.49l-18.21-14.34-37.91-4.08Z"/><path class="cls-67" d="M290.63,626.66c-1.01,0-1.76-.14-2.54-.45-9.33-3.8-11.55-26.35-6.4-65.2h0c1.61-9.78,9.61-17.13,19.46-17.88,9.7-.75,18.68,5.18,21.85,14.4l9.15,64.94-.29,.03c-.11,.01-10.85,1.07-21.54,2.05-6.64,.61-10.95,1.16-14.1,1.56-2.65,.34-4.32,.55-5.59,.55Zm-8.4-65.58c-6.45,48.74-.26,62.04,6.07,64.62,1.63,.66,3.07,.48,7.85-.13,3.15-.4,7.47-.96,14.12-1.57,9.72-.89,19.47-1.85,21.25-2.02l-9.06-64.32c-3.08-8.94-11.83-14.7-21.28-13.98-9.59,.74-17.38,7.89-18.95,17.41h0Z"/><polygon class="cls-79" points="342.78 523.32 346.53 531.36 337.3 528.9 342.78 523.32"/><polygon class="cls-67" points="337.3 535.39 342.78 523.32 333.89 520.17 337.3 535.39"/><path class="cls-34" d="M324.33,487.12c-.21-.53-14.61,4-18.88,5.36-2,4.51-3.71,9.16-5.88,13.6-.15,.31-.3,.61-.45,.91-.08,1.55-.06,3.14-.17,4.62,7.64,7.31,22.51,21.16,22.51,21.16h15.34c.13-2.83,.72-7.55,3.24-12.72,2.05-4.21,4.62-7.16,6.48-8.98,0,0-21.95-23.32-22.2-23.94Z"/><path class="cls-8" d="M154.44,521.78c-5.14,11.11-11,18.7-15.52,23.65-7.6,8.32-16.8,15.09-14.99,19.45,.55,1.33,1.92,1.94,2.64,2.25,1.91,.8,56.82,23.94,75.57-.1,.71-.91,1.22-1.69,1.5-2.14-2.23-1.54-10.06-7.34-13.09-18.33-3.47-12.57,1.86-22.72,2.99-24.77h-39.1Z"/><path class="cls-77" d="M46.5,693.58c1.52-21.09,7.32-58.28,31.8-95.4,10.02-15.19,20.93-26.99,30.68-35.92,10-4.99,25.68-11.18,45.64-12.72,35.77-2.77,62.87,11.12,73.7,17.48,6.3,9.74,12.97,21.5,19.08,35.27,7.23,16.29,11.89,31.37,14.97,44.15l12.72,8.23c.4,1.8,3.04,14.73-4.89,23.13-6.07,6.43-14.93,6.62-23.17,6.8-8.22,.17-14.88-1.56-19.08-2.99-4.04-14.66-10.06-32.59-12.35-30.3-1.12,1.12-4.86,32.55-4.86,32.55-18.06,7.34-45.57,16.12-80.06,18.33-35.75,2.29-65.06-3.36-84.18-8.61Z"/><path class="cls-30" d="M134.1,599.61c18.4,4.64,30.22,15.5,35.43,20.95,11.08,15.69,27.16,38,47.24,64.35,55.51,72.86,69.46,84.39,66.36,96.99-5.25,21.4-58.42,38.38-251.82,26.63,.3-53.14,5.54-96.39,10.69-127.36,6.1-36.71,11.62-53.48,26.48-66.28,15.91-13.7,40.98-21.5,65.62-15.28Z"/><ellipse class="cls-8" cx="188.86" cy="494.17" rx="21.14" ry="36.66" transform="translate(-89 43.98) rotate(-10.77)"/><path class="cls-80" d="M613.47,755.06c1.05-4.44,4.57-7.88,8.98-8.79,4.64-.96,9.47,1.04,12.12,5.05,11.66,22.39,23.31,44.77,34.97,67.16l-49.34-3.25-6.73-60.17Z"/><rect class="cls-69" x="736.93" y="561.08" width="32.23" height="57.24" rx="6.61" ry="6.61"/><rect class="cls-79" x="638.91" y="642.69" width="45.55" height="86.42" rx="6.61" ry="6.61" transform="translate(-183.52 245.55) rotate(-18.51)"/><rect class="cls-50" x="642.87" y="650.19" width="37.64" height="71.42" rx="6.61" ry="6.61" transform="translate(-183.52 245.55) rotate(-18.51)"/><path class="cls-72" d="M693.72,726.07c-4.08-5.79-9.94-15.77-12.5-29.39-4.33-23.05,3.63-41.45,6.89-48.06,8.57-12.43,25.11-32.83,52.52-48.69,39.53-22.87,77.78-22.49,93.39-21.46,6.25,9.7,12.7,22.05,17.4,37.04,14.15,45.12,3.29,85.06-2.81,102.7-51.63,2.62-103.26,5.24-154.89,7.86Z"/><path class="cls-4" d="M551.92,661.72c-1.44-1.43-5.17-5.52-5.61-11.6-.14-1.87,.07-3.53,.37-4.86,.87-1.25,1.75-2.49,2.62-3.74l5.61,3.37,5.24-6.36c1.35-1.47,3.48-1.92,5.24-1.12,1.93,.88,3.01,3.08,2.5,5.24v5.24c2.21,.12,5.89,.6,9.84,2.62,1.56,.8,6.59,3.37,8.23,7.11,2.51,5.74-2.47,15.4-13.09,22.45l-20.95-18.33Z"/><path class="cls-4" d="M457.27,485.32v61.35c0,4.84-3.96,8.79-8.79,8.79h-8.04v11.56l-53.5-1.83v-60.42c0-4.84,3.96-8.79,8.79-8.79h30.87v-10.66c0-4.84,3.96-8.79,8.79-8.79h13.09c4.84,0,8.79,3.96,8.79,8.79Z"/><path class="cls-65" d="M461.38,479.89c-.94-6.48-5.02-10.36-6.22-11.43h0c.9-2.74,1.39-5.66,1.39-8.69,0-15.39-12.48-27.87-27.87-27.87-11.63,0-21.6,7.13-25.77,17.26-5.65,3.46-9.55,7.13-12.23,10.16,0,0-2.98,3.37-13.09,19.83,.17,7.25,1.23,17.55,5.24,29.18,4.7,13.62,11.52,23.49,16.46,29.56,1.13,1.1,5.62,5.17,12.72,5.61,7.23,.45,12.24-3.17,13.47-4.12,4.45-5.01,9.69-11.95,14.22-20.95,2.94-5.84,4.95-11.33,6.36-16.09,1.62,8.23,3.24,16.46,4.86,24.69l2.24-23.94,6.73-12.72c.73-1.62,2.22-5.51,1.5-10.48Z"/><rect class="cls-59" x="444.55" y="496.73" width="5.99" height="32.18" rx="2.25" ry="2.25" transform="translate(-71.88 72.96) rotate(-8.63)"/><rect class="cls-59" x="441.28" y="521.79" width=".55" height="29.93"/><rect class="cls-79" x="449.4" y="504.28" width="17.8" height="1.65"/><path class="cls-75" d="M454.65,581.28l-9.47-.02-65.45-.15-12.63-.02,12.63-15.89c7.59-2.18,18.73-4.46,32.27-4.12,14.15,.36,25.58,3.47,33.19,6.18l1.38,.04,8.09,13.99Z"/><path class="cls-75" d="M386.93,576.04h54.62c9.98,.13,30.78,1.84,51.38,15.34,37.37,24.47,42.7,67.12,43.4,73.58,4.07-3.95,8.15-7.9,12.22-11.85,3.23,.76,11.31,3.11,18.33,10.48,6.52,6.84,8.63,14.31,9.35,17.58-3.48,14.04-11.08,19.9-13.81,21.75-15.69,10.64-42.77,5.47-63.27-16.14,.74,7.01,1.78,18.27,2.99,32.18,1.4,16.09,2.62,32.18,1.87,32.18-1.5,0-230.09,6.73-230.09,6.73-1.75-.77-12.36-5.67-16.09-17.58-2.31-7.4-.81-13.78,0-16.46,12.46-37.05,20.43-67.28,25.44-88.3,4.28-17.97,5.56-25.61,11.6-34.05,19.56-27.32,63.88-27.81,92.04-25.44Z"/><g class="cls-95"><rect class="cls-32" x="297.81" y="625.05" width="1.65" height="105.5"/></g><g class="cls-86"><rect class="cls-37" x="270.2" y="705.49" width="6.44" height="112.99"/><rect class="cls-37" x="276.65" y="705.49" width="6.44" height="112.99"/><rect class="cls-40" x="283.09" y="705.49" width="6.44" height="112.99"/><rect class="cls-40" x="289.54" y="705.49" width="6.44" height="112.99"/><rect class="cls-39" x="295.98" y="705.49" width="6.44" height="112.99"/><rect class="cls-39" x="302.43" y="705.49" width="6.44" height="112.99"/><rect class="cls-54" x="308.87" y="705.49" width="6.44" height="112.99"/><rect class="cls-55" x="315.31" y="705.49" width="6.44" height="112.99"/><rect class="cls-52" x="321.76" y="705.49" width="6.44" height="112.99"/><rect class="cls-51" x="328.2" y="705.49" width="6.44" height="112.99"/><rect class="cls-60" x="334.65" y="705.49" width="6.44" height="112.99"/><rect class="cls-43" x="341.09" y="705.49" width="6.44" height="112.99"/><rect class="cls-53" x="347.54" y="705.49" width="6.44" height="112.99"/><rect class="cls-36" x="353.98" y="705.49" width="6.44" height="112.99"/><rect class="cls-49" x="360.42" y="705.49" width="6.44" height="112.99"/><rect class="cls-48" x="366.87" y="705.49" width="6.44" height="112.99"/><rect class="cls-46" x="373.31" y="705.49" width="6.44" height="112.99"/><rect class="cls-45" x="379.76" y="705.49" width="6.44" height="112.99"/><rect class="cls-38" x="386.2" y="705.49" width="6.44" height="112.99"/><rect class="cls-63" x="392.65" y="705.49" width="6.44" height="112.99"/><rect class="cls-61" x="399.09" y="705.49" width="6.44" height="112.99"/><rect class="cls-58" x="405.54" y="705.49" width="6.44" height="112.99"/><rect class="cls-56" x="411.98" y="705.49" width="6.44" height="112.99"/><rect class="cls-20" x="418.42" y="705.49" width="6.44" height="112.99"/><rect class="cls-22" x="424.87" y="705.49" width="6.44" height="112.99"/><rect class="cls-18" x="431.31" y="705.49" width="6.44" height="112.99"/><rect class="cls-11" x="437.76" y="705.49" width="6.44" height="112.99"/><rect class="cls-13" x="444.2" y="705.49" width="6.44" height="112.99"/><rect class="cls-15" x="450.65" y="705.49" width="6.44" height="112.99"/><rect class="cls-10" x="457.09" y="705.49" width="6.44" height="112.99"/><rect class="cls-7" x="463.54" y="705.49" width="6.44" height="112.99"/><rect class="cls-17" x="469.98" y="705.49" width="6.44" height="112.99"/><rect class="cls-21" x="476.42" y="705.49" width="6.44" height="112.99"/><rect class="cls-9" x="482.87" y="705.49" width="6.44" height="112.99"/><rect class="cls-16" x="489.31" y="705.49" width="6.44" height="112.99"/><rect class="cls-6" x="495.76" y="705.49" width="6.44" height="112.99"/><rect class="cls-3" x="502.2" y="705.49" width="6.44" height="112.99"/><rect class="cls-12" x="508.65" y="705.49" width="6.44" height="112.99"/><rect class="cls-5" x="515.09" y="705.49" width="6.44" height="112.99"/><rect class="cls-5" x="521.54" y="705.49" width="6.44" height="112.99"/></g><g class="cls-91"><path class="cls-79" d="M505.85,743.63c-1.02-1.25-2.12-2.85-3.29-4.53-5.07-7.32-12.03-17.34-23.59-17.34-1.46,0-182.2,2.18-187.69,2.24-.79,.36-6.05,2.82-8.67,6.15-1.8,2.3-2.64,5.45-2.5,9.37l-1.1,.04c-.15-4.19,.77-7.58,2.74-10.09,2.99-3.81,8.94-6.42,9.19-6.53l.1-.04h.11c1.86-.02,186.34-2.25,187.82-2.25,12.14,0,19.28,10.3,24.5,17.81,1.16,1.67,2.25,3.24,3.24,4.47l-.85,.7Z"/></g><g class="cls-95"><rect class="cls-32" x="490.49" y="598.46" width="1.65" height="77.88" transform="translate(-86.73 77.46) rotate(-8.29)"/></g><path class="cls-69" d="M717.11,527.91s-8.87-3.98-10.94-2.42c-2.07,1.57-.9,21.7,.89,24.6,1.8,2.9,12.46,4.13,12.46,4.13,0,0-3.15-12.13-2.41-26.31Z"/><path class="cls-27" d="M784.57,484.96c-.37,0-64.87,1.42-65.8,2.36-.93,.93-3.25,41.43-3.07,45.8,.19,4.36,3.6,27.98,6.01,31.48,2.07,2.99,23.6,19.89,24.9,20.44,1.3,.55,10.15,.78,11.83-.34,1.67-1.12,24.4-17.25,26.07-22.36,.74-2.25,5.96-28.25,3.08-35.21-2.88-6.97-3.02-42.15-3.02-42.15Z"/><path class="cls-69" d="M786.99,527.91s8.87-3.98,10.93-2.42c2.07,1.57,.91,21.7-.89,24.6-1.79,2.9-12.45,4.13-12.45,4.13,0,0,3.15-12.13,2.41-26.31Z"/><path class="cls-27" d="M790.44,522.82c-.41-12.22,.04-26.07-6.81-36.06-6.85-9.98-44.2-8.96-54.66-3.87-10.46,5.09-13.6,14.06-16,26.08-.98,4.91-.59,12.17,.22,19.02,0,.19,0,.35,.02,.48,0,0,.06,.33,.14,.91,1.18,9.35,3.02,17.6,3.02,17.6,0,0,.06,.06,.17,.14,1.33,6.5,2.89,12.83,4.29,15.44,3.38,6.27,13.08,15.85,13.08,15.85,0,0,9.98-4.49,16.95-5.1,6.97-.61,21.32,7.95,21.32,7.95,0,0,10.3-12.5,12.95-21.53,.8-2.74,1.53-6.13,2.16-9.53,.41-.35,.81-.71,1.22-1.07,0,0,2.33-14.08,1.93-26.31Z"/><path class="cls-65" d="M709.04,492.76s1.56,44.39-.24,69.42c-1.81,25.03,19.57,26.97,35.57,28.6,16,1.62,33.69,18.12,33.69,18.12,0,0,21.62-29.76,6.52-54.68-15.1-24.92-75.54-61.46-75.54-61.46Z"/><path class="cls-65" d="M752.07,495.52s-6.64,20.46-7.45,31.5c-1.07,14.52-26.46-4.98-26.46-4.98,0,0-7.48-2.72-9.32-32.05-1.08-17.16,27.31-46.72,55.84-40.08,28.53,6.64-6.38,39.88-12.61,45.61Z"/><path class="cls-65" d="M749.47,545.13c6.33,15.91,17.11,27.95,20.01,46.94,2.91,19,15.55,16.24,12.63,28.26-2.92,12.02-8.1,14.13-4.53,25.17,3.57,11.04,10.72,13.15,10.72,13.15,0,0-2.25-7.69,19.06-11.47,23.16-4.11,39.49-20.4,24.79-42.98-9.1-13.97,12.01-8.77,8.77-34.53-1.82-14.4-14.29-20.56-18.19-40.37-3.9-19.81-3.69-62.25-43.75-77.26-49-18.35-35.84,77.17-29.51,93.09Z"/><path class="cls-73" d="M748.05,464.96s5.13-11.49,28.83-5.63c23.71,5.85,26.31,26.15,24.36,40.52-1.94,14.37,7.78,27.15,16.07,40.08,8.29,12.93,1.48,22.03-6.64,33.72-8.12,11.69,2.25,22.41,6.64,37.02,4.39,14.61-19.97,17.21-17.37,26.96,0,0-2.13-13.97,10.14-24.36,12.27-10.39-12.01-23.24-11.57-41.66,.45-18.42,16.83-20.77,11.57-34.7-5.27-13.94-17.3-24.05-17.46-46.77-.16-22.71-32.17-34.18-44.58-25.2Z"/><path class="cls-72" d="M878.13,587.58c.56-.39,.35-1.38-.32-1.51-.03,0-.05,.05-.01,.05,.62,.11,.83,1.04,.31,1.41-.03,.02,0,.07,.03,.05h0Z"/><path class="cls-72" d="M836.96,588.51c20.48,22.69,31.06,44.4,36.72,58.99,8.17,21.08,18.77,48.41,5.99,62.11-9.39,10.05-27.01,8.08-34.79,6.73l-7.91-127.83Z"/><path class="cls-74" d="M852.62,704.8l-.54-.11c3.47-17.26,4.1-34.86,1.87-52.29-2.39-18.65-7.97-36.6-16.59-53.35l.49-.25c8.65,16.81,14.25,34.82,16.65,53.54,2.24,17.49,1.61,35.15-1.87,52.47Z"/><path class="cls-68" d="M636.33,817.78c-1.19-8.11-2.27-19.58-1.51-33.27,.49-8.72,1.59-28.39,7.52-40.66,13.22-27.35,57.12-31.81,113.74-36.86,21.3-1.9,51.36-3.4,87.71-1.22,17.21-2.56,25.23,2.27,28.81,5.29,5.85,4.95,9.84,13.52,8.71,68.53-.41,20.02-.69,30.01-1.44,32.28-6.08,18.49-57.12,30.19-243.55,5.91Z"/><g class="cls-88"><path class="cls-79" d="M653.73,768.3l-1.05-.34c2.22-6.75,5.49-13.04,9.73-18.72,3.05-4.09,6.6-7.83,10.54-11.13l.08-.07,.1-.03c31.3-9.89,63.8-15.74,96.58-17.37,29.39-1.46,58.99,.46,87.96,5.73l.15,.05c4.44,2.21,7.95,5.12,10.42,8.65,5.41,7.73,6.05,18.69,5.79,19.33l-.11,.28-.29,.07c-.52,.11-.67-.4-.74-.67l.1-.03c.07-1.22-.57-11.09-5.65-18.34-2.35-3.36-5.7-6.14-9.94-8.27-28.87-5.24-58.35-7.16-87.63-5.69-32.65,1.63-65.02,7.45-96.2,17.29-3.84,3.23-7.3,6.89-10.28,10.88-4.16,5.58-7.38,11.77-9.56,18.4Z"/></g><circle class="cls-31" cx="131.21" cy="452.75" r="18.15"/><path class="cls-31" d="M204.76,470.9c0,2.04-.25,5.16-1.49,8.68-.65,1.86-3.49,9.9-9.13,12.27-.03,3.71,0,7.08,.15,7.55,.2,.59-1.59-3.09-3.32-6.89-5.22,.08-9.49-4.56-10.9-3.21-.85,.81-.37,3.54,4.49,11.22,10.98,14.07,6.32,33.02-5.24,39.29-9.35,5.07-23.42,1.94-31.8-8.98,.49,6.56-4.79,11.31-9.36,10.84-3.72-.38-7.29-4.26-7.48-9.35-.76,5.8-6.04,9.93-11.6,9.35-5.87-.6-10.29-6.24-9.36-12.35-1.87,2.62-3.74,5.24-5.61,7.86,.04-8.06,1-18.91,4.86-31.06,6.69-21.01,18.59-35.01,25.81-42.28,15.26-16.89,37.23-21.99,52.75-13.84,10.95,5.74,15.6,16.46,17.21,20.87Z"/><g class="cls-89"><path class="cls-79" d="M205.52,698.43c-8.99-26.82-24.94-49.73-44.93-64.51-18.77-13.88-40.07-19.63-58.44-15.78-20.23,4.24-31.17,23.55-37.71,35.08-1.23,2.17-2.3,4.05-3.28,5.6l-.93-.59c.97-1.52,2.02-3.39,3.25-5.55,6.63-11.7,17.73-31.28,38.44-35.62,18.68-3.91,40.3,1.91,59.32,15.97,20.17,14.91,36.27,38.01,45.32,65.05l-1.05,.35Z"/></g><path class="cls-34" d="M362.91,486.7c-.67-4.3-9.01-10.34-9.4-10.65,0,0-.01-.01-.02-.03-8.35-17.47-27.77-25.6-43.38-18.15-15.62,7.45-21.51,27.67-13.16,45.16,1.91,3.99,4.39,7.49,7.28,10.43,1.79-.26,3.49-.68,5.05-1.71-.62-.35-1.09-.98-1.07-1.81,.05-2.53,.94-4.67,2.07-6.89,1.46-2.88,2.43-5.85,3.49-8.89,.65-1.87,2.97-1.81,3.89-.67,2.24-1.01,5.13-1.08,7.71-.59,5.9,1.11,12.81,6.09,13.99,12.23,.24,1.27-.53,2.18-1.48,2.53-.08,.06-.17,.12-.25,.17,.04,.06,.09,.11,.13,.17,.23,.15,.45,.34,.64,.6,1.76,2.42,3.89,4.53,5.63,6.97,.28,.4,.56,.79,.84,1.19,.63,.11,1.25,.19,1.86,.2,.2-.18,.41-.34,.61-.52,.01,0,.02-.02,.04-.02,1.29-.31,2.63-.74,4.01-1.37,5.2-2.36,8.12-6.07,9.33-7.83,.01-.02,.02-.04,.01-.06l-2.7-14.05s0-.05,.01-.07c1.54-2.13,4.01-5.79,4.86-6.36Z"/><path class="cls-65" d="M360.74,507.2c-1.2,1.74-4.12,5.49-9.36,7.85-1.14,.52-2.26,.91-3.34,1.2-.87,.23-5.08,1.24-9.25-1.2-5.46-3.19-5.95-9.42-5.99-9.95-3.58-2-7.15-4.01-10.73-6.01-5.24,12.84-10.05,17.54-14.33,17.54h0c-2.08-.38-4.9-1.21-7.45-3.25-12.75-10.22-11.38-44.79,8.07-56.44,11.45-6.86,24.87-3.21,29.18-1.83,.63,.5,3.26,2.69,3.47,6.07,.25,4.05-3.06,8.22-8.21,9.47,1.24,.45,5.02,2,7.23,5.99,2.5,4.5,1.99,10.32-1.25,14.96,.52,6.62,5.56,11.42,10.85,11.48,5.61,.06,9.04-5.26,9.24-5.57,.62,3.23,1.24,6.46,1.86,9.69Z"/><path class="cls-64" d="M351.87,479.32c-.08-.33-.07-.66,.18-.82,.68-.41,1.32,.8,1.43,1.23,.06,.25,.02,.59-.16,.79-.2,.21-.5,.17-.73,.02-.2-.13-.36-.33-.47-.54-.08-.15-.19-.41-.25-.68Z"/><path class="cls-31" d="M346.32,478.85c.17,.4,.72,.52,1.11,.39,.54-.18,1-.61,1.42-.98,.64-.56,1.26-1.15,1.89-1.73,.32-.29,.77-.55,.87-.99,.04-.18-.01-.31-.16-.42-.63-.5-1.89,.28-2.47,.61-.81,.48-1.63,1.13-2.21,1.87-.18,.23-.43,.57-.48,.89-.02,.12-.01,.24,.04,.36Z"/><rect class="cls-31" x="353.44" y="492.61" width="6.54" height="5.11" rx="1.92" ry="1.92" transform="translate(-176.48 198.28) rotate(-25.12)"/><path class="cls-76" d="M337.3,535.39c.12-.37-3.41-8.05-3.41-8.05l-7.52,6.06,10.93,2Z"/><polygon class="cls-67" points="325.7 540 293.16 521.17 295.19 506.64 333.89 527.34 325.7 540"/><path class="cls-1" d="M338.34,536.76c5.21,4.14,11.92,10.35,18.2,19.11,6.89,9.6,10.75,18.77,12.97,25.41"/><rect class="cls-79" x="351.83" y="470.32" width="2.09" height="15.72" rx=".79" ry=".79"/><g><line class="cls-79" x1="330.08" y1="496.44" x2="352.15" y2="474.37"/><path class="cls-79" d="M330.08,496.99c-.14,0-.28-.05-.39-.16-.22-.22-.22-.56,0-.78l22.07-22.07c.22-.22,.56-.22,.78,0s.22,.56,0,.78l-22.07,22.07c-.11,.11-.25,.16-.39,.16Z"/></g><ellipse class="cls-24" cx="327.77" cy="502.77" rx="6.18" ry="7.47" transform="translate(-182.44 186.71) rotate(-25.12)"/><path class="cls-67" d="M338.72,538.54c1.94,1.79,3.42,4.03,4.25,6.54,.88,2.68,.63,5.56,1.48,8.23,.33,1.04,.83,2.03,1.56,2.84,.8,.89,1.79,1.34,2.92,1.67,1.21,.35,2.18,.88,2.9,1.95,.61,.91,.97,1.97,1.23,3.02,.34,1.39,.53,2.81,.76,4.22l.88,5.39c.09,.52,.88,.3,.8-.22-.48-2.95-.87-5.93-1.48-8.86-.42-1.99-1.12-4.17-2.85-5.41-1.09-.79-2.49-.81-3.62-1.51-1.06-.66-1.76-1.78-2.18-2.93-.98-2.65-.69-5.6-1.51-8.3-.84-2.77-2.43-5.27-4.56-7.22-.39-.36-.98,.22-.58,.58h0Z"/><path class="cls-67" d="M341.38,538.81l.51,.74c.05,.1,.12,.17,.21,.23,.08,.07,.17,.12,.28,.15,.11,.03,.22,.04,.33,.01,.11,0,.21-.04,.31-.1l.17-.13c.1-.1,.17-.22,.21-.36l.03-.22c0-.15-.04-.29-.11-.42l-.51-.74c-.05-.1-.12-.17-.21-.23-.08-.07-.17-.12-.28-.15-.11-.03-.22-.04-.33-.01-.11,0-.21,.04-.31,.1l-.17,.13c-.1,.1-.17,.22-.21,.36l-.03,.22c0,.15,.04,.29,.11,.42h0Z"/><path class="cls-67" d="M347.88,546.89v-.14c0-1.06-1.65-1.07-1.65,0v.14c0,1.06,1.65,1.07,1.65,0v-.14c0-1.06-1.65-1.07-1.65,0v.14c0,1.06,1.65,1.07,1.65,0h0Z"/><path class="cls-67" d="M353.74,556.97v-.02s-.09-.1-.08-.09c0,0-.05-.06-.07-.09-.05-.05-.11-.1-.18-.14-.01,0-.19-.08-.2-.08-.04-.01-.05,0-.12-.02-.14-.02-.17-.03-.34,.02-.07,.02-.14,.05-.21,.09s-.13,.08-.18,.14c-.01,.01-.12,.15-.13,.17h0s-.03,.09-.05,.12c-.01,.03-.03,.08-.05,.11,0,.02,0,.03-.01,.05-.03,.2-.05,.32,0,.52,.06,.22,.21,.43,.41,.54,.13,.08,.29,.12,.44,.12,.02,0,.21-.03,.22-.03h.01c.08-.02,.15-.06,.22-.1,.15-.08,.25-.19,.34-.33,0,0,.01-.02,.02-.03,.02-.04,.07-.16,.09-.2v-.02c.05-.17,.06-.4,0-.57-.03-.08-.07-.19-.13-.27s-.11-.16-.19-.23c-.06-.05-.13-.11-.2-.15-.01,0-.03-.01-.04-.02-.21-.1-.26-.11-.49-.13-.11,0-.22,.02-.32,.07-.1,.03-.19,.09-.27,.17l-.13,.17c-.07,.13-.11,.27-.11,.42l-.06,.72c0,.11,.02,.22,.07,.32,.03,.1,.09,.19,.17,.27,.07,.08,.16,.14,.27,.17,.1,.05,.2,.08,.32,.07l.22-.03c.14-.04,.26-.11,.36-.21l.13-.17c.07-.13,.11-.27,.11-.42l.06-.72-.83,.83h.02l-.22-.03s.04,0,.06,.02l-.2-.08s.04,.02,.06,.04l-.17-.13s.05,.04,.06,.06l-.13-.17s.03,.05,.04,.08l-.08-.2s.01,.04,.02,.06l-.03-.22s0,.03,0,.05l.03-.22s0,.03-.01,.04l.08-.2s-.01,.02-.02,.03l.13-.17s-.02,.02-.03,.02l.17-.13s-.02,.01-.03,.02l.2-.08h-.02l.22-.02s0,0-.01,0l.22,.03h-.01l.2,.08h0l.17,.12h0l.13,.16v-.02l.07,.2s0-.02,0-.03l.03,.22s0-.04,0-.06l-.03,.22s0-.04,.02-.06l-.08,.2s0-.02,.01-.02l-.13,.17h0l-.17,.12h0l-.2,.08h0l-.22,.03h0l-.22-.03h0l-.2-.08h0l-.17-.12h0l-.13-.16s.01,.02,.02,.03c.05,.1,.12,.17,.21,.23,.08,.07,.17,.12,.28,.15,.11,.03,.22,.04,.33,.01,.11,0,.21-.04,.31-.1l.17-.13c.1-.1,.17-.22,.21-.36l.03-.22c0-.15-.04-.29-.11-.42h0Z"/><path class="cls-67" d="M357.03,566.27h-.5c-.11,0-.22,.02-.32,.07-.1,.03-.19,.09-.27,.17-.08,.07-.14,.16-.17,.27-.05,.1-.08,.2-.07,.32l.03,.22c.04,.14,.11,.26,.21,.36l.17,.13c.13,.07,.27,.11,.42,.11h.5c.11,0,.22-.02,.32-.07,.1-.03,.19-.09,.27-.17,.08-.07,.14-.16,.17-.27,.05-.1,.08-.2,.07-.32l-.03-.22c-.04-.14-.11-.26-.21-.36l-.17-.13c-.13-.07-.27-.11-.42-.11h0Z"/><rect class="cls-69" x="627.17" y="683.69" width="25.61" height="10.48" rx="3.94" ry="3.94" transform="translate(-286.88 847.43) rotate(-56.81)"/><path class="cls-66" d="M946.26,476.17c-1.12,0-8.98-37.68-8.98-37.68,13.63-13.98,34.2-18.34,52-11.04,18.38,7.54,30.36,26.09,29.93,46.43-2.12,10.91-4.24,21.82-6.36,32.73-1.44,1.97-8.01,10.51-19.45,12.18-11.4,1.66-23.11-4.17-29.93-14.84-5.24-3.3-10.48-6.6-15.71-9.9-2.29,1.13-4.87,.98-6.36-.38-2.11-1.94-2.15-6.46,1.12-9.31,1.25-2.73,2.49-5.47,3.74-8.2Z"/><path class="cls-67" d="M957.48,566.69c4.41-8.09,11.88-19.57,23.94-30.68,13.12-12.08,26.32-18.79,35.17-22.45,1.58,.86,4.75,2.87,7.11,6.73,3.19,5.22,2.81,10.4,2.62,12.09-8.37,6.49-19.21,13.79-32.55,20.46-13.5,6.74-25.99,11.04-36.29,13.84Z"/><path class="cls-81" d="M873.91,647.65l-.46-.3c11.5-17.38,16.88-21.09,17.1-21.24,3.64-2.44,7.89-4.15,12.63-5.07l.11,.54c-4.66,.91-8.84,2.58-12.43,4.98-.05,.04-5.54,3.84-16.95,21.09Z"/><path class="cls-79" d="M1008.74,814.74c-1.12-.37,27.69-112.99,27.69-112.99,10.97-34.28,39.56-52.14,60.98-46.77,15.51,3.89,23.97,19.12,26.56,24.32-.87,41.53-1.75,83.06-2.62,124.59l-112.61,10.85Z"/><path class="cls-68" d="M1028.1,788.18h-.55c0-1.52,22.26-86.62,23.21-90.24l.02-.06c8.51-16.51,25.09-26.22,41.27-24.16,12.59,1.6,20.85,9.7,24.66,14.38l-.43,.35c-3.76-4.62-11.91-12.61-24.3-14.19-15.94-2.03-32.29,7.55-40.7,23.84-7.99,30.54-23.11,88.63-23.18,90.07Z"/><g><line class="cls-69" x1="928.86" y1="469.59" x2="950.94" y2="481.66"/><path class="cls-79" d="M950.94,483.04c-.22,0-.45-.05-.66-.17l-22.07-12.07c-.67-.36-.91-1.2-.55-1.87,.36-.67,1.2-.91,1.87-.55l22.07,12.07c.67,.36,.91,1.2,.55,1.87-.25,.46-.72,.72-1.21,.72Z"/></g><rect class="cls-41" x="938.06" y="485.69" width="22.45" height="5.99" rx="2.25" ry="2.25" transform="translate(325.86 1355.46) rotate(-81.51)"/><path class="cls-81" d="M971.88,561.29l-.36-.42c9.48-8.06,19.81-15.12,30.73-20.98,7.21-3.88,14.78-7.28,22.48-10.12l.19,.52c-7.68,2.83-15.22,6.22-22.41,10.09-10.88,5.85-21.18,12.88-30.63,20.92Z"/><circle class="cls-66" cx="939.9" cy="437.24" r="5.42"/><circle class="cls-66" cx="937.28" cy="442.67" r="5.42"/><circle class="cls-66" cx="935.22" cy="435.18" r="5.42"/><circle class="cls-66" cx="949.44" cy="429.2" r="8.04"/><circle class="cls-66" cx="942.71" cy="429.76" r="8.04"/><circle class="cls-66" cx="963.01" cy="423.96" r="8.04"/><circle class="cls-66" cx="954.96" cy="421.15" r="8.04"/><circle class="cls-66" cx="978.25" cy="426.2" r="8.04"/><circle class="cls-66" cx="988.73" cy="431.82" r="8.04"/><circle class="cls-66" cx="1000.01" cy="435.18" r="8.04"/></g></g></g></g></g></g></svg>