<?xml version="1.0" encoding="UTF-8"?><svg id="Layer_2" xmlns="http://www.w3.org/2000/svg" xmlns:xlink="http://www.w3.org/1999/xlink" viewBox="0 0 1142 926.09"><defs><style>.cls-1{fill:none;}.cls-2{clip-path:url(#clippath);}.cls-3{fill:#f8ab7d;}.cls-4{fill:#034f59;}.cls-5{fill:#0476a8;}.cls-6{fill:#009047;}.cls-7{fill:#676767;}.cls-8{fill:#f4f4f4;}.cls-9,.cls-10{fill:#fcfcfc;}.cls-11,.cls-12{fill:#fff;}.cls-13,.cls-14{fill:#fffbfc;}.cls-15{fill:#ececec;}.cls-16{fill:#fdf1ed;}.cls-17{fill:#7c7c7c;}.cls-18{fill:#8a8a8a;}.cls-19{fill:#b5c8e7;}.cls-20{fill:#b3b3b4;}.cls-21{fill:#b7724d;}.cls-22{fill:#737373;}.cls-23{fill:#8dfaff;}.cls-24{fill:#d8d8d8;}.cls-25{fill:#b2b2b2;}.cls-26{fill:#bbb;}.cls-27{fill:#bdbdbd;}.cls-28{fill:#cb7452;}.cls-29{fill:#d0d0ce;}.cls-30{fill:#cbcbca;}.cls-31{fill:#d2e7e7;}.cls-32{fill:#e1e1e1;}.cls-33{fill:#252730;}.cls-34{fill:#434343;}.cls-35{fill:#414141;}.cls-36{fill:#444445;}.cls-37{fill:#1b75b7;}.cls-38{fill:#6d6d6d;}.cls-39{fill:#87c040;}.cls-40{fill:#636464;}.cls-41{fill:#26a7df;}.cls-42{fill:#2a2e4a;}.cls-43{fill:#2d2d2d;}.cls-44{fill:#354867;}.cls-45{fill:#38af4a;}.cls-46{fill:#272727;}.cls-47{fill:#575757;}.cls-48{fill:#838080;}.cls-49{fill:#616161;}.cls-50{fill:#606060;}.cls-51{fill:#53565a;}.cls-52{fill:#75787b;}.cls-53{fill:#777;}.cls-54{fill:#4b4848;}.cls-14{opacity:.5;}.cls-12{opacity:.9;}.cls-10{opacity:.7;}</style><clipPath id="clippath"><rect class="cls-1" width="1142" height="790"/></clipPath></defs><g id="Layer_1-2"><g class="cls-2"><g><g><g><polygon class="cls-20" points="860.13 686.17 .84 686.17 2.14 548.65 892.51 548.65 860.13 686.17"/><g><path class="cls-30" d="M823.57,580.84c-15.1,5.13-29.07,11.04-46.1,13.25-16.46,2.14-33.65,1.76-50.22,.41-33.33-2.7-65.28-9.82-98.09-14.16-15.81-2.09-31.91-3.57-48.08-3.58-15.92-.01-31.76,1.38-47.47,2.91-32.28,3.15-66.62,7.68-98.51,.77-15.38-3.33-28.36-9.93-43.67-13.32-15.41-3.41-32.02-2.96-47.97-1.71-33.43,2.6-67.46,5.83-99.78,12.04-16.02,3.08-31.16,7.3-46.3,11.81-15.93,4.75-32.1,9.18-49.72,10.44-17.64,1.26-35.41,.01-52.96-1.24-17.79-1.27-35.6-2.28-53.49-2.71-12.86-.31-26.73-.36-39.6-.17,.19,.75,.36,1.51,.47,2.27,4.52-.07,9.04-.11,13.56-.11,18.35,0,37.69,.49,55.97,1.49,17.5,.96,34.92,2.69,52.49,3.16,16.7,.44,33.13-.6,48.98-4.11,15.4-3.41,29.78-8.4,44.75-12.47,31.67-8.61,65.78-12.48,99.61-15.73,16.98-1.63,34.23-3.72,51.47-3.24,9.22,.26,18.27,1.43,26.76,3.79,7.14,1.99,13.83,4.57,20.67,6.93,13.33,4.59,27.39,7.45,42.47,8.37,15.78,.97,31.69,.05,47.35-1.31,33.03-2.85,65.37-7.22,98.84-4.58,33.06,2.62,64.74,9.6,97.23,14,30.42,4.12,64.61,6.75,94.06-1.3,14.8-4.05,27.85-10.27,42.88-14.02,15.15-3.78,31.36-5.72,47.6-5.71l.52-2.22c-22.07-.05-43.99,3.34-63.73,10.05Z"/><path class="cls-30" d="M891.87,551.37c-26.09,4.54-52.19,9.08-78.28,13.62-28.57,4.97-57.61,10.66-87.51,10.34-28.14-.31-55.23-5.83-82.66-9.24-13.61-1.69-27.28-2.75-41.15-2.81-14.99-.06-29.88,.31-44.72-1.34-20.77-2.31-40.37-7.29-59.19-13.28h-7.84c17.58,5.84,35.78,10.94,55.02,13.99,13.84,2.19,27.79,2.98,42.02,2.96,15.03-.02,29.8,0,44.68,1.52,27.78,2.83,54.74,8.56,82.85,10.12,29.54,1.64,58.28-2.89,86.57-7.8,29.88-5.19,59.76-10.39,89.64-15.59l.58-2.46Z"/><path class="cls-30" d="M795.94,548.65c-12.73,2.32-25.2,5.09-37.95,7.45-9.04,1.67-18.17,2.65-27.6,2.65-9.26,0-18.49-.7-27.67-1.44-18.67-1.52-37.22-3.64-55.57-6.32-5.02-.73-10.03-1.51-15.02-2.33h-13.65c25.07,4.51,50.59,7.95,76.38,10.26,17.96,1.61,36.42,3.28,54.4,.93,8.93-1.17,17.54-3.12,26.17-4.96,8.69-1.86,17.47-3.53,26.35-4.96,2.8-.45,5.6-.87,8.42-1.28h-14.26Z"/><path class="cls-30" d="M244.91,548.65h-3.76c.41,1.5-.34,3.17-1.88,4.71-2.76,2.77-6.95,4.56-11.41,6.04-17.81,5.9-38.29,6.87-57.17,10.75-9.35,1.92-17.52,4.91-26.12,7.87-5.05,1.74-10.29,3.18-16.04,3.55-5.45,.36-10.98-.08-16.41-.38-23.46-1.29-46.92-2.59-70.38-3.88-12.32-.68-27.63-1.36-39.95-2.04-.03,.76-.08,1.52-.15,2.28,36.76,2.03,76.53,4.07,113.29,6.07,5.75,.31,11.56,.6,17.27-.1,5-.61,9.7-2,14.16-3.54,4.73-1.63,9.3-3.46,14.18-4.92,5.2-1.55,10.66-2.71,16.18-3.71,10.28-1.85,20.8-3.06,31.11-4.83,9.55-1.64,20.13-3.7,28.09-7.62,4.64-2.28,9.56-6.43,8.99-10.28Z"/><path class="cls-30" d="M181.26,548.65c-3.64,.91-7.61,1.5-11.06,2.21-13.73,2.82-27.47,5.65-41.2,8.47-6.26,1.29-12.5,2.67-18.94,3.55-6.82,.94-13.73,1.03-20.67,.85-14.13-.38-28.26-1.15-42.33-2.03-14.11-.88-32.18-1.98-46.22-3.26,.02,.76,.05,1.53,.09,2.29,13.54,1.23,31.12,2.3,44.74,3.16,16.25,1.03,32.75,2.16,49.1,2.2,15.81,.04,30.45-3.59,45.31-6.65,7.88-1.62,15.76-3.24,23.64-4.86,6.99-1.44,14.35-2.59,21.06-4.52,1.37-.39,2.72-.87,3.96-1.42h-7.47Z"/><path class="cls-30" d="M435.7,604.23c-3.87-9.03-17.93-13.99-30.77-16.7-9.99-2.11-20.02-4.45-30.15-6.25-10.29-1.83-21.16-1.84-31.71-1.16-17.55,1.13-35.04,3.49-52.19,6.08-35.07,5.28-68.47,13.66-102.84,20.42-17.25,3.4-34.85,6.26-52.81,7.57-18.61,1.35-37.37,.89-55.99-.13-18.57-1.01-36.07-2.56-54.67-3.35-6.82-.29-15.82-.57-22.81-.57,0,.77-.08,1.54-.2,2.32,4.06,.01,8.1,.11,12.06,.22,17.94,.49,36.77,1.88,54.63,3.01,17.33,1.1,34.75,1.96,52.18,1.5,16.6-.43,33.01-2.23,49.1-4.85,32.53-5.3,63.63-13.6,95.87-19.53,17.06-3.14,34.36-5.76,51.8-7.84,15.38-1.84,31.36-3.8,47.06-2.7,7.75,.54,48.53,8.34,58.17,13.5,5.29,2.83,9.85,6.74,10.5,11.28,.66,4.6-2.87,8.83-8.06,11.86-12.31,7.19-31.24,6.52-46.74,6.47-17.81-.06-35.6-.7-53.4-.99-17.5-.28-35.07-.22-52.48,1.1-16.89,1.28-33.44,3.81-49.92,6.48-16.81,2.72-33.6,5.47-50.74,7.19-17.65,1.78-35.49,2.66-53.34,3.08-17.6,.42-35.23,.37-52.84,.24-16.16-.12-30.38-.12-46.5-.98-4.94-.26-10.88-.63-15.8-1.11l1,2.3c11.91,1.14,21.99,1.59,34.01,1.8,18.23,.32,36.5,.42,54.74,.36,36.92-.13,73.53-1.83,109.52-7.35,17.64-2.7,35.12-5.88,52.96-8.05,18.79-2.28,37.81-2.99,56.91-2.91,18.96,.07,37.9,.8,56.85,1.04,16.17,.21,34.75,1.21,49.78-3.39,11.58-3.55,20.43-11.51,16.81-19.96Z"/><path class="cls-30" d="M792.67,655.77c-16.64,.42-32.7-1.19-48.47-4.56-14.98-3.21-29.24-6.16-45.14-6.61-16-.45-32.3,.56-48.07-1.67-15.65-2.21-28.49-8.34-42.44-13.03-24.8-8.35-53.12-12.22-81.06-11.43-14.1,.4-28.15,1.97-41.6,4.75-14.36,2.97-27.6,7.6-41.26,11.64-15.06,4.45-30.61,7.28-47.16,8.2-15.97,.89-32.05,.33-48-.48-16.15-.82-32.28-1.95-48.48-2.26-16.59-.32-33.15,.39-49.63,1.61-33.97,2.51-67.62,6.54-101.6,9.07-49.5,3.68-97.31,5.66-147.14,5.94-.09,.75-.19,1.51-.27,2.26,41.96-.22,81.91-1.63,123.68-4.28,33.35-2.11,66.41-5.3,99.54-8.48,17.29-1.66,34.65-3.11,52.12-3.68,16.48-.53,32.88,0,49.3,.86,31.27,1.66,63.46,4.28,94.32-.84,14.67-2.43,28.09-6.9,41.69-11.08,13.9-4.27,28.15-7.66,43.34-9.45,29.27-3.45,60.11-1.41,87.67,5.79,14.36,3.76,26.88,9.67,40.94,13.78,13.85,4.05,28.59,4.81,43.61,4.89,16.61,.08,32.68,.09,48.72,3.26,14.71,2.91,28.73,6.47,44.14,7.6,31.99,2.35,64.02-3.07,94.09-9.59,1.27-.28,2.53-.56,3.8-.84l.59-2.52c-25.02,5.61-50.71,10.48-77.24,11.14Z"/><path class="cls-30" d="M143.3,686.17h11.13c33.96-6.9,71.72-10.13,103.81,0h7.52c-37.2-14.03-83.18-8.94-122.46,0Z"/><path class="cls-30" d="M739.64,679.08c-20.16,.14-40.57,.25-60.32-2.74-17.6-2.66-34.16-7.46-51.43-10.8-9.33-1.81-18.94-3.19-28.71-3.47-6.74-.2-18.03-.76-22.08,3.61-.3,.32-.37,.84,0,1.15,13.24,11.28,33.99,14.93,54.11,19.34h10.78c-7.04-1.76-14.29-3.23-21.4-4.8-14.66-3.23-29.84-7.1-39.74-15.12,2.35-1.66,6.72-1.72,9.95-1.85,4.38-.18,8.77-.1,13.13,.18,8.63,.56,17.09,1.96,25.34,3.63,16.43,3.31,32.29,7.8,49.09,10.34,35.42,5.36,71.98,.97,107.79,3.76,9.25,.72,18.44,1.94,27.21,3.87h9.85c-25.73-7.37-55.73-7.29-83.59-7.09Z"/><path class="cls-30" d="M440.13,556.61c-13.75,2.4-28.09,.76-41.56-1.58-11.57-2.02-22.91-4.62-34.59-6.38h-24.21c4.06,.18,8.11,.44,12.13,.82,16.5,1.57,32.06,5.5,48.14,8.17,14.88,2.47,31.35,3.92,46.02,.11,6.23-1.62,10.35-4.79,10.46-9.1h-3.56c-.21,4.7-6.23,6.81-12.84,7.96Z"/><path class="cls-30" d="M393.11,596.68c-5.65-1.36-11.88-1.9-17.83-2.47-5.79-.55-11.61-.95-17.45-1.19-12.38-.5-24.82-.28-37.14,.65-26.71,2.01-52.66,7.27-76.26,15.55-2.14,.33-3.64,1.71-3.79,3.26-.26,2.74,3.89,4.08,7.53,4.43,6.53,.63,13.38,.52,19.97,.68,7.07,.17,14.14,.3,21.21,.39,28.59,.36,57.42,.32,85.95-1.01,9.21-.43,22.67-.93,28.38-6.47,5.96-5.78-2.25-11.81-10.59-13.82Zm8.29,11.77c-1.89,2.69-6.74,4.03-10.9,4.77-11.11,1.97-23.23,1.8-34.67,2.08-11.78,.29-23.56,.46-35.35,.52-13.44,.07-26.88-.02-40.31-.26-6.6-.12-13.19-.27-19.79-.46-3.23-.09-6.47-.15-9.69-.31-1.34-.06-2.78-.12-4.04-.44-.95-.24-1.69-.54-2.11-1.13-2.02-2.88,21.62-8.17,24.49-8.9,8.2-2.08,16.6-3.82,25.15-5.21,17.09-2.78,34.73-4.16,52.35-4.08,6,.03,12.01,.23,17.99,.6,5.31,.33,10.59,.79,15.83,1.4,4.87,.56,10.05,1.08,14.45,2.61,4.72,1.64,9.1,5.23,6.59,8.8Z"/><path class="cls-30" d="M805.23,669.45c-28.89-2.8-58.18,.35-87.18-1.38-58.69-3.5-110.11-25.86-169-28.94-14.11-.74-28.42-.28-42.21,1.85-13.24,2.04-25.76,5.58-38.09,9.22-13.07,3.86-26.06,7.87-39.86,10.55-13.98,2.71-28.47,4.18-43.03,4.77-58.62,2.38-116.52-7.76-175.21-5.07-56.66,2.59-111.24,13.62-164.52,25.71h10.65c43.23-9.68,87.15-18.32,132.62-22.07,28.77-2.37,57.48-2.22,86.33-.59,28.53,1.61,56.96,4.18,85.63,4.58,27.67,.39,55.43-1.5,81.36-8.01,26.24-6.59,50.65-16.43,79.17-18.49,58.63-4.24,111.64,16.99,166.85,25.55,13.64,2.11,27.49,3.4,41.52,3.68,14.96,.3,29.92-.28,44.89-.29,24.81-.02,51.32,1.83,71.96,11.53,2.65,1.25,5.14,2.62,7.45,4.11h4.8c-13.85-9.77-33.94-14.76-54.12-16.72Z"/><path class="cls-30" d="M518.36,675.57c-20.35-2.94-41.38,.9-59.93,6.23-4.78,1.38-9.49,2.86-14.17,4.37h7.98c17.28-5.35,35.81-9.96,55.29-9.26,13.89,.49,25.25,4.19,35.41,9.26h5.8c-8.85-4.88-18.66-8.91-30.38-10.6Z"/><path class="cls-30" d="M527.79,597.63c2.32-.87,4.72-1.66,7.18-2.35,5.13-1.46,10.55-2.5,16.03-3.24,10.91-1.47,22.2-1.63,33.28-.98,25.01,1.48,48.8,7.19,72.92,11.3,23.18,3.95,47.01,6.48,70.99,7.1,23.79,.61,47.8-.72,70.87-4.57,24.16-4.03,46.13-12.16,70.4-15.86,4.59-.7,9.22-1.19,13.9-1.45l.54-2.31c-24.4,1.24-46.28,8.97-69.07,14.14-24.05,5.45-49.52,7.87-74.98,7.91-25.64,.04-51.2-2.27-76.06-6.23-24.96-3.98-49.24-9.93-74.87-11.99-21.97-1.76-45.78-.41-64.89,7.33-2.87,1.16-6.74,2.81-5.13,5.35,1.37,2.15,5.63,2.91,8.84,3.21,13.86,1.32,27.76,2.38,41.59,3.86,12.63,1.36,25.56,2.56,37.86,4.92,6.19,1.19,11.96,2.86,17.48,5.01,5.44,2.12,10.67,4.45,16.55,6.06,10.66,2.92,22.39,3.36,33.83,3.47,13,.12,25.73,.31,38.59,1.68,24.9,2.66,49.33,7.71,74.74,8.03,12.77,.16,25.39-1.14,37.87-2.76,13.53-1.75,27.03-3.63,40.54-5.45l6.85-.92,.57-2.4c-9.02,1.22-18.04,2.43-27.06,3.65-12.57,1.69-25.13,3.6-37.86,4.75-25.44,2.3-49.91-1.14-74.68-4.56-11.71-1.62-23.48-3.13-35.42-3.81-11.78-.67-23.62-.19-35.41-.76-6-.29-11.98-.9-17.69-2.14-5.89-1.28-11.11-3.39-16.35-5.5-10.08-4.06-20.42-6.62-32.06-8.22-12.47-1.71-25.1-3.04-37.69-4.31-6.42-.64-12.86-1.25-19.3-1.81-2.92-.25-5.84-.5-8.76-.74-2.59-.21-6.16-.17-8.34-1.26-3.42-1.7,2.19-3.39,4.24-4.16Z"/><path class="cls-30" d="M765.39,614.93c-5.78,.1-17.7-1.08-18.48,4.45-.26,1.81,1.38,2.99,3.86,3.69,4.52,1.26,9.76,1.9,14.55,2.56,18.79,2.58,38.36,2.66,57.2,.24,18.85-2.42,36.12-8.11,54.5-11.47l.58-2.46c-14.82,2.62-28.8,6.88-43.53,9.72-17.15,3.3-35.21,4.38-53.02,3.25-9.18-.58-18.46-1.72-27.23-3.59-1.67-.36-2.34-.27-2.88-1.39-.64-1.32,.6-1.98,2.58-2.4,2.04-.43,4.43-.27,6.54-.28,4.89,0,9.79-.12,14.67-.34,17.88-.83,35.53-3.14,52.5-6.84,17.94-3.9,35.24-9.03,53.64-11.99l.57-2.43c-18.76,2.88-36.34,8.09-54.55,12.09-19.82,4.35-40.55,6.83-61.5,7.19Z"/></g></g><path class="cls-54" d="M898.55,839.49c-.32,.05-.64,.07-.97,.07-3.59-.02-6.48-3.09-6.46-6.87l1.2-281.17c.02-3.78,2.94-6.83,6.52-6.81,3.59,.02,6.48,3.09,6.46,6.87l-1.2,281.17c-.01,3.43-2.42,6.26-5.55,6.74Z"/><path class="cls-54" d="M858.47,862.96c-.32,.05-.64,.07-.97,.07-3.59-.02-6.48-3.09-6.46-6.87l1.2-281.17c.02-3.78,2.94-6.83,6.52-6.81,3.59,.02,6.48,3.09,6.46,6.87l-1.2,281.17c-.01,3.43-2.42,6.26-5.55,6.74Z"/><rect class="cls-54" x="2.14" y="539.59" width="908.31" height="18.11" rx="1.98" ry="1.98"/></g><g><g><g><polygon class="cls-34" points="547.97 535.16 507.23 535.16 511.55 475.56 552.28 475.56 547.97 535.16"/><polygon class="cls-43" points="551.9 480.73 552.28 475.56 511.55 475.56 511.17 480.73 551.9 480.73"/><path class="cls-34" d="M706.06,476.49H357.63c-4.19,0-7.33-3.39-7.03-7.57l14.79-204.44c.3-4.18,3.94-7.57,8.13-7.57h348.43c4.19,0,7.33,3.39,7.03,7.57l-14.79,204.44c-.3,4.18-3.94,7.57-8.13,7.57Z"/><path class="cls-23" d="M708.68,466.43c.1-.41,.17-.82,.2-1.24l14.29-195.82c.3-4.14-2.85-7.5-7.03-7.5H379.17c-4.19,0-7.82,3.36-8.13,7.5l-14.29,195.82c-.03,.42-.02,.84,.02,1.24h351.91Z"/><path class="cls-34" d="M655.99,435.43H358.52l-3.56,32.67c-.28,2.59,1.75,4.85,4.35,4.85h296.68v-37.52Z"/><path class="cls-13" d="M700.97,472.68h-54.31l15.78-210.74,53.78-.08c4.15,0,7.27,3.36,6.97,7.5l-14.16,195.82c-.3,4.14-3.9,7.5-8.05,7.5Z"/><path class="cls-34" d="M595.68,530.27h-135.46c-2.7,0-5.05,2.19-5.25,4.89-.2,2.7,1.84,4.89,4.54,4.89h135.46c2.7,0,5.05-2.19,5.25-4.89,.2-2.7-1.84-4.89-4.54-4.89Z"/></g><g><path class="cls-34" d="M663.71,256.92h-63.67c-1.76,0-3.11-1.3-3-2.9l.89-13.42c.11-1.59,1.63-2.9,3.39-2.9h63.67c1.76,0,3.11,1.3,3,2.9l-.89,13.42c-.11,1.59-1.63,2.9-3.39,2.9Z"/><ellipse class="cls-13" cx="644.56" cy="247.32" rx="8.64" ry="7.68" transform="translate(-42.47 179.44) rotate(-15.35)"/><path class="cls-13" d="M631,247.32c-.12,1.83-1.86,3.31-3.87,3.31s-3.56-1.48-3.43-3.31c.12-1.83,1.86-3.31,3.87-3.31s3.56,1.48,3.43,3.31Z"/></g><path class="cls-39" d="M677.11,275.12c-.18,2.02-2.01,3.61-4.08,3.57-2.07-.05-3.59-1.72-3.41-3.74,.18-2.02,2.01-3.61,4.08-3.57,2.07,.05,3.59,1.72,3.41,3.74Z"/><path class="cls-45" d="M675.43,293.48c-.18,2.02-2.01,3.61-4.08,3.57-2.07-.05-3.59-1.72-3.41-3.74,.18-2.02,2.01-3.61,4.08-3.57,2.07,.05,3.59,1.72,3.41,3.74Z"/><path class="cls-41" d="M673.76,311.85c-.18,2.02-2.01,3.61-4.08,3.57-2.07-.05-3.59-1.72-3.41-3.74,.18-2.02,2.01-3.61,4.08-3.57,2.07,.05,3.59,1.72,3.41,3.74Z"/><path class="cls-37" d="M672.08,330.21c-.18,2.02-2.01,3.61-4.08,3.57-2.07-.05-3.59-1.72-3.41-3.74,.18-2.02,2.01-3.61,4.08-3.57,2.07,.05,3.59,1.72,3.41,3.74Z"/><path class="cls-19" d="M523.66,452.38c-.27,3-2.98,5.37-6.05,5.3-3.07-.07-5.34-2.56-5.06-5.56,.27-3,2.98-5.37,6.05-5.3,3.07,.07,5.34,2.56,5.06,5.56Z"/><path class="cls-4" d="M496.96,452.84c-.27,3-2.98,5.37-6.05,5.3-3.07-.07-5.34-2.56-5.06-5.56,.27-3,2.98-5.37,6.05-5.3,3.07,.07,5.34,2.56,5.06,5.56Z"/><path class="cls-34" d="M711.8,273.8h-29.84c-.61,0-.61,.95,0,.95h29.84c.61,0,.61-.95,0-.95Z"/><path class="cls-34" d="M702.49,277.47h-20.68c-.61,0-.61,.95,0,.95h20.68c.61,0,.61-.95,0-.95Z"/><path class="cls-34" d="M710.03,291.08h-29.84c-.61,0-.61,.95,0,.95h29.84c.61,0,.61-.95,0-.95Z"/><path class="cls-34" d="M700.71,294.76h-20.68c-.61,0-.61,.95,0,.95h20.68c.61,0,.61-.95,0-.95Z"/><path class="cls-34" d="M708.37,309.45h-29.84c-.61,0-.61,.95,0,.95h29.84c.61,0,.61-.95,0-.95Z"/><path class="cls-34" d="M706.83,327.82h-29.84c-.61,0-.61,.95,0,.95h29.84c.61,0,.61-.95,0-.95Z"/><path class="cls-34" d="M697.51,331.49h-20.68c-.61,0-.61,.95,0,.95h20.68c.61,0,.61-.95,0-.95Z"/><path class="cls-14" d="M611.8,445.14c-2.13,0-2.14,3.32,0,3.32s2.14-3.32,0-3.32Z"/><path class="cls-14" d="M611.03,452.66c-2.13,0-2.14,3.32,0,3.32s2.14-3.32,0-3.32Z"/><path class="cls-14" d="M610.2,459.92c-2.13,0-2.14,3.32,0,3.32s2.14-3.32,0-3.32Z"/></g><g><path class="cls-31" d="M407.04,381.85c-.7-1.61-2.33,1.23-2.67,1.86-1.43,2.61-2.53,5.42-3.54,8.21-1.57,4.33-2.8,8.79-3.66,13.31-1.78,9.34-1.88,18.83-.68,28.25,.06,.48,.13,.96,.2,1.44h2.21c.26-4.4,.84-8.78,1.64-13.1,1.64-8.84,4.24-17.47,5.75-26.34,.41-2.39,.73-4.8,.94-7.22,.06-.7,.47-4.93-.18-6.41Z"/><g><path class="cls-8" d="M390.05,347.64c.07-.03,.15-.06,.23-.06h88.19c.45,0,.49-.62,.14-.75-.21-.48-.43-.94-.69-1.39-1.42-3.79-2.91-7.56-4.5-11.28-.86-2.03-1.75-4.04-2.67-6.05-.72-1.57-1.45-3.03-2.84-4.11-2.91-2.25-6.91-3.2-10.43-3.95-4.04-.85-15.48-2.26-16.79-2.54,.66-3.18,1.37-6.34,2.15-9.49,.19-.77-.34-1.3-.94-1.42-1.73-.48-3.49-.82-5.28-.98-1.87-.17-4.16,.38-5.93-.18-.57-.18-1.01,.07-1.25,.47-.27,.12-.48,.36-.54,.76l-1.64,11.18c-1.9,.46-3.78,1.06-5.63,1.74-.06-.1-6.87,2.82-10.2,4.39-3.25,1.53-6.37,2.93-8.84,5.62-2.39,2.61-4.57,5.45-6.65,8.31-1.15,1.58-2.16,3.25-3.21,4.89-.61,.96-2.6,3.56-3.39,4.84h.71Z"/><path class="cls-49" d="M403.93,344.2c4.08,.33,8.12,.09,12.11-.83,4.31-.99,8.37-2.78,12.65-3.84,4.09-1.02,8.32-1.32,12.52-1.04,4.36,.29,8.57,.96,12.96,.59,6.66-.56,13.08-2.68,18.62-6.35-.67-1.55-1.35-3.09-2.05-4.63-.72-1.57-1.45-3.03-2.84-4.11-.38-.29-.77-.56-1.19-.81-.89,.73-1.73,1.49-2.52,2.06-2.53,1.83-5.25,3.31-8.14,4.46-12.05,4.8-25.28,1.55-37.74,3.89-5.56,1.05-10.97,2.64-16.51,.66-.8-.29-1.59-.62-2.37-.97-1.21,1.51-2.37,3.05-3.5,4.61-1,1.37-1.89,2.81-2.8,4.24,3.55,.94,7.12,1.76,10.79,2.06Z"/><path class="cls-49" d="M478.6,346.83c-.21-.48-.43-.94-.69-1.39-.93-2.5-1.9-4.98-2.9-7.44-.73,.51-1.48,.98-2.27,1.37-7.57,3.79-16.22,5.82-24.7,5.31-4.22-.25-8.32-.98-12.57-.69-4.21,.29-8.05,1.7-12.02,3.01-.62,.2-1.24,.4-1.87,.58h56.88c.45,0,.49-.62,.14-.75Z"/><path class="cls-49" d="M457.48,320.05c-4.04-.85-15.48-2.26-16.79-2.54,.24-1.15,.49-2.31,.74-3.46-.65,.05-1.29,.1-1.9,.16-3.93,.34-7.81,0-11.61-.82l-.65,4.45c-1.9,.46-3.78,1.06-5.63,1.74-.06-.1-6.87,2.82-10.2,4.39-2.97,1.4-5.83,2.69-8.18,4.96,.51,.18,1.03,.35,1.57,.49,2.58,.68,4.99,.22,7.56-.27,3.11-.59,6.2-1.25,9.34-1.65,6.46-.84,13.01-.21,19.5-.54,5.85-.3,11.54-1.28,16.69-4.2,1-.57,1.96-1.23,2.9-1.92-1.12-.3-2.25-.55-3.33-.78Z"/><path class="cls-9" d="M453.82,325.53c-1.71-7.52-2.7-11.83-2.57-19.59,.09-5.51,2.42-14.46-3.33-18.07-.53-.33-1.29-.12-1.6,.42-.53,.93-.74,1.82-.67,2.79-.26,3.34-.95,6.67-.81,10.03,.15,3.51,1.5,6.59,2.72,9.83,2.3,6.1,2.27,14.21,5.54,19.97,.67,1.18,1.02-4.11,.73-5.39Z"/><path class="cls-27" d="M447.86,273.75c-3.66-4.29-9.07-5.05-13.6-1.7-4.13,3.05-9.82,6.83-10.67,12.31-.5,3.24,.16,6.78,.39,10.03,.52,7.4,1.38,14.2,6.43,19.1,3.05,2.96,7.08,2.77,9.8,.15,3.62-3.48,5.95-7.99,7.7-12.64,3.32-8.86,6.95-19.06-.05-27.25Z"/><path class="cls-9" d="M455.29,276.23c-3.63-8.36-16.1-11.25-23.97-7.69-4.23,1.91-7.35,5.81-9.53,9.8-1.05,1.93-2.09,4.08-2.58,6.24-.28,1.22-.36,2.56-.42,3.81-.07,1.26,.38,3.1,.05,4.28-1.28,4.58-2.8,9.14-2.08,13.89,.56,3.71,2.22,7.32,3.22,10.94,.69,2.51,1.04,5.1,1.56,7.65,.25,1.22,.5,2.44,.88,3.63,.03,.09,1.35,2.83,1.52,2.29,1.24-4.02,1.96-8.2,2.4-12.45,.28-4.36,.36-8.73-.06-13.13-.4-4.16-.11-8.35,.61-12.46,.61-3.5,1.35-6.83,3.58-9.69,2.02-2.59,3.5-5.75,6.17-7.78,1.8-1.36,4.4-.77,5.49,1.2,.11,.21,.22,.41,.33,.62,.95,1.84,1.82,3.72,2.78,5.55,1.68,3.2,3.49,6.32,5.4,9.38-.03,1.17-.14,2.36-.28,3.53-.05,.4-.1,.81-.14,1.21-.1,2.87,.13,5.74,.28,8.61,.2,3.8,.25,7.6,.61,11.39,.47,4.9,1.46,9.73,2.31,14.57,.16-.13,.29-.3,.37-.53,2.28-6.1,2.57-12.6,2.49-19.04-.07-6.17,.15-12.33,.4-18.49,.23-5.72,.95-11.94-1.4-17.34Z"/><path class="cls-35" d="M444.85,293.45c-1.08-1.01-1.78,1.03-1.96,1.67-.2,.68-.37,1.41-.31,2.12,.04,.44,.28,.82,.79,.78,.54-.03,.91-.57,1.12-1.01,.37-.79,1.14-2.83,.36-3.56Z"/><path class="cls-35" d="M432.11,291.51c-1.24-.81-1.57,1.32-1.64,1.99-.07,.7-.12,1.45,.07,2.14,.12,.42,.42,.76,.92,.63,.53-.13,.8-.73,.92-1.19,.23-.84,.63-2.99-.27-3.57Z"/><path class="cls-18" d="M438.65,294.61c-.05,1.11-.12,2.23-.23,3.34-.13,1.28-.06,3.54-1.63,4.09-.47,.17-.27,.92,.21,.75,1.23-.43,1.72-1.4,1.94-2.64,.32-1.82,.41-3.7,.5-5.54,.02-.5-.76-.5-.78,0Z"/><path class="cls-18" d="M436.07,300.96l-.88-.13c-.21-.03-.42,.05-.48,.27-.05,.18,.06,.45,.27,.48,.29,.04,.59,.09,.88,.13,.21,.03,.42-.05,.48-.27,.05-.18-.06-.45-.27-.48Z"/><path class="cls-9" d="M439.73,306.5c-2.61-.03-5.21-.13-7.82-.29-.26-.02-.38,.21-.31,.41,.15,.42,1.41,.84,1.8,1.02,.81,.37,1.68,.66,2.59,.72,.91,.06,1.75-.33,2.57-.68,.33-.14,2.4-1.18,1.16-1.19Z"/><path class="cls-9" d="M448.72,290.57c-.07-.36-.31-.81-.41-.96-.54-.85-1.35-1.49-2.3-1.81-.76-.25-1.66-.29-2.39,.08-.35,.18-.77,.51-.9,.9-.21,.64,.28,.82,.77,.89,.89,.13,1.77,.23,2.65,.44,.79,.19,1.38,.74,2.15,.93,.42,.1,.49-.15,.42-.47Z"/><path class="cls-9" d="M435.81,287.33l-.02-.04c-.58-1.38-2.65-1.66-3.91-1.42-.94,.18-3.01,.86-2.9,2.1,.05,.63,1.25,.46,1.64,.44,1.08-.05,2.15,.06,3.23,.14,.75,.06,2.42-.04,1.95-1.24Z"/><path class="cls-24" d="M455.32,296.94c-1.47-.86-2.64-2.07-3.46-3.57-.24-.44-.92-.05-.67,.39,.88,1.61,2.16,2.92,3.74,3.85,.43,.25,.83-.42,.39-.67Z"/><path class="cls-24" d="M427.22,287.61c-1.5,2.89-3.72,5.67-7.27,5.67-.5,0-.5,.78,0,.78,3.82,0,6.31-2.92,7.94-6.06,.23-.45-.44-.84-.67-.39Z"/><path class="cls-24" d="M438.6,270.86c-2.93-.07-5.14,1.79-7.18,3.67-.37,.34,.18,.89,.55,.55,1.89-1.74,3.9-3.51,6.62-3.44,.5,.01,.5-.77,0-.78Z"/><path class="cls-24" d="M453.1,283.12c-.03-.5-.81-.5-.78,0,.08,1.41,.19,2.81,.3,4.21-.89-2.96-2.02-5.85-3.42-8.62-1.17-2.31-2.39-4.81-4.93-5.79-.47-.18-.67,.57-.21,.75,2.65,1.03,3.95,4.3,5.08,6.69,1.28,2.72,2.29,5.54,3.1,8.43,.08,.29,.37,.33,.57,.22,.19,.31,.77,.26,.72-.17-.18-1.91-.32-3.82-.43-5.73Z"/><path class="cls-24" d="M451.13,307.23c0-4.94,.66-9.91-.29-14.8-.1-.49-.85-.28-.75,.21,.99,5.05,.23,10.26,.27,15.36,.04,5.13,.45,10.25,.85,15.36,.04,.5,.82,.5,.78,0-.42-5.37-.84-10.74-.85-16.13Z"/><path class="cls-24" d="M424.41,312.94c-1-4.67-1.19-9.4-.6-14.14,.06-.5-.72-.49-.78,0-.6,4.81-.38,9.61,.63,14.35,.1,.49,.86,.28,.75-.21Z"/><path class="cls-27" d="M378.39,324.24c.52,1.81,2.79,2.46,4.28,3.13,3.53,1.59,7.15,2.95,10.51,4.87,.9,2.01,1.31,4.21,1.58,6.45,.38,3.07,.64,6.16,.84,9.25h9.45c-.05-.07-.11-.13-.18-.18,0-.06-.01-.12-.03-.18-.89-3.74-1.67-7.51-2.32-11.3-.4-2.37-.45-4.93-1.09-7.3-.3-1.09-.76-2.66-1.6-3.46-.84-.79-2.34-1.26-3.35-1.87-4.54-2.79-8.52-6.52-11.58-10.93-.7-1-2.23-.23-1.94,.76-.05,.29,.09,.55,.25,.87,.92,1.86,1.72,3.18,2.7,4.78,.21,.34,2.78,3.4,1.44,3.22-.08-.01-.15-.01-.22,0-1.92-1.16-3.29-3.09-4.46-5.1-1.6-2.75-2.32-4.85-3.86-7.64-.36-.65-1.02-.69-1.59-1.03-.67-.4-.85-.85-1.15-1.56-.54-1.25-2.64-.91-2.11,.34,.07,.17,.15,.34,.22,.51-.44,.18-.73,.6-.51,1.18,1.31,3.37,2.74,6.69,4.26,9.96,.04,1.75-.02,3.65,.44,5.25Z"/><path class="cls-27" d="M427.57,325.27c1.65-1.77,2.14-1.77,3.97-3.35,.92-.8,2.28-1.75,3.64-2.29,.53-.21,1,.41,.64,.85-.81,1.01-1.65,2.31-1.95,2.71-1.26,1.64-2.45,3.33-3.87,4.84-1.03,1.1,.62,2.76,1.66,1.66,.14-.15,.28-.3,.42-.45,.17-.19,.45-.22,.68-.11,.39,.19,.87,.17,1.28-.22,.3-.3,.6-.6,.9-.9,.16-.16,.4-.21,.61-.12,.17,.08,.36,.12,.55,.11,.32,.3,.79,.4,1.28,.07,3.69-2.51,7.5-4.82,11.41-6.95,.26-.14,.58-.05,.74,.2,1.36,2.21,5.09,9.25,6.25,11.52,2.47,4.87,4.81,9.81,7.02,14.81h11.91c-4.26-7.11-14.35-27-16.29-30.26-1.67-2.81-4.04-6.89-7.79-7.03-3.15-.12-6.34,1.38-9.32,3-4.18,1.48-8.33,3.07-12.43,4.77-.03,0-.06,.02-.08,.03-.21,.09-.42,.17-.63,.26-.02,0-.03,.02-.05,.03-.02,0-.04,.01-.06,.03-.14,.09-.27,.22-.32,.39-.13,.41,.21,.69,.51,.89,.27,.17,.57,.29,.88,.37-1.87,1.57-3.46,3.61-5.12,5.37-1.03,1.1,2.56,.88,3.59-.22Z"/><path class="cls-18" d="M389.49,326.1c-1.48-.66-2.99-1.23-4.55-1.67-2.06-.58-3.45-1.33-3.86-3.65-.44-2.51,.15-5.28-1.88-7.2-.33-.31-.82,.19-.49,.5,2.44,2.3,.78,6.1,2.35,8.84,.51,.88,1.28,1.44,2.22,1.77,1.96,.7,3.94,1.17,5.86,2.02,.4,.18,.76-.43,.35-.61Z"/><path class="cls-18" d="M442.56,317.69c-3,2.26-5.64,4.88-7.93,7.86-.31,.4,.37,.79,.67,.39,2.2-2.87,4.77-5.4,7.65-7.58,.4-.3,0-.98-.39-.67Z"/><path class="cls-18" d="M442.35,320.21c-1.96,1.45-3.8,3.04-5.53,4.76-.36,.36,.2,.91,.55,.55,1.68-1.68,3.46-3.23,5.37-4.64,.4-.3,.01-.97-.39-.67Z"/></g><g><path class="cls-17" d="M557.16,384.06c-.31-.6-.72-1.58-1.29-2.31-.46-.73-.98-1.32-1.55-1.62-.72-.69-1.47-.84-2.07,.33-.03,.05-.05,.1-.07,.15-1.05,1.16-.4,3.12,.03,4.41,.24,.72,.53,1.42,.86,2.09,.4,1.07,.92,2.12,1.61,2.9,.21,.23,.46,.43,.73,.58,.02,.01,.04,.02,.06,.03,.41,.21,.87,.3,1.31,.21,.78,0,1.41-.54,1.62-1.38,.08-.31,.1-.63,.08-.95,.39-1.42-.71-3.25-1.32-4.44Z"/><path class="cls-17" d="M585.46,377.18c-.02-.08-.05-.17-.07-.25-.15-.46-.49-.66-.94-.72-1.06-.14-1.53,.95-1.82,1.91-.19,.12-.35,.3-.43,.56-.16,.49-.52,1.81-.75,3.22-.34,1.34-.55,2.8-.17,4.03,.19,.62,.87,.88,1.43,.58,.11-.06,.21-.12,.31-.19,.16-.03,.33-.08,.51-.15,2.64-1.03,3.24-6.66,1.92-9Z"/><path class="cls-17" d="M579.81,418.04c-.59-7.46-.88-14.93-.85-22.41,0-.17-.04-.32-.1-.44-.07-.27-.29-.49-.68-.54-2.71-.37-5.39-.37-8.09,.16-1.37,.27-2.7,.84-4.09,1-.94,.11-1.87-.21-2.68,.38-.22,.16-.34,.37-.39,.59-.23,.21-.38,.53-.3,.93,1.41,7.48,1.41,12.97,1.25,20.57,0,.1,.63,2.27,.65,2.35-.15,.48,.02,1.05,.64,1.21,4.65,1.24,10.78,.52,14.58-2.53,.48-.39,.39-.91,.06-1.26Z"/><path class="cls-17" d="M582.1,372.23c-.87-3.22-2.32-6.25-3.75-9.24-.03-.07-.07-.12-.11-.18-.07-.29-.28-.54-.66-.64-5.63-1.45-11.86,.53-16.86,3.17-4.03,2.13-7.66,6.33-6.66,11.01,0,.08-.01,.16,0,.24,.68,5.83,2.15,11.49,4.51,16.87,2.04,4.66,5.67,10.06,10.78,11.81,4.79,1.64,8.08-1.52,10.28-5.81,2.62-5.1,3.1-11.63,3.28-17.22,.11-3.37,.08-6.73-.8-10.01Z"/><path class="cls-15" d="M612.31,435.33c.02-.19-.01-.38-.1-.57-1.26-2.63-3.55-6.81-6.64-7.52-3.19-.73-6.77-.05-9.81-1.34-2.58-1.09-13.16-5.12-14.08-6.66-.91-1.53-.1-10.29-1.49-10.29-5.29,1.08-10.64,1.54-16.04,1.4-.13,0-.24,.02-.34,.05-.41-.04-.82,.16-.93,.7-.39,1.99-.46,7.12-1.21,7.82-2.65,2.47-13.13,5.83-18.6,6.6-3.09,.43-6.02,1.09-8.52,3.07-2.24,1.78-3.88,4.16-5.46,6.52-.05,0-.13,.09-.22,.22h83.44Z"/><path class="cls-46" d="M581.56,359.18c-.67-.26-1.2-.79-1.52-1.44-.77-1.6-2.04-3.02-3.59-3.97-4.74-2.9-11.55-3.01-16.25-.02-1.08,.69-2.07,1.53-2.89,2.51-1.12,1.33-1.65,3.04-2.78,4.33-1,1.14-2.37,1.93-3.46,2.97-1.01,.96-1.91,2.04-2.69,3.19-1.54,2.29-2.57,4.89-1.31,7.54,.82,1.73,2.24,2.91,3.85,3.8,.42,.23,.77,.56,1.03,.96,.62,.95,1.22,1.91,1.8,2.88,.74,1.26,1.62,3.43,3.2,3.85-.3-1.98-.55-3.96-.9-5.93-.53-2.89,3.35-5.09,4.53-7.4,1.19-2.32,2.42-5.52,5.52-5.46,1.58,.03,3.11,.69,4.66,.94,1.06,.17,2.17,.18,3.24,.02,1.02-.15,2.2-.82,3.24-.51,.71,.21,1.17,.44,1.89,.51,.71,.07,1.31,0,1.58,.87,.54,1.74,1.48,3.07,1.61,4.94,.12,1.86,.26,3.72,.34,5.58,.13,.14,.33,.16,.63,.02,1.52-.72,1.37-2.99,1.57-4.42,.04-.28,.07-.55,.11-.83,.08-.59,.34-1.14,.73-1.58,.68-.77,1.23-1.7,1.47-2.24,2.32-5.13-1.03-9.32-5.6-11.12Z"/><path class="cls-46" d="M576.3,378.29c-1.54-.03-1.22,3.98-.58,4.66,.29,.3,.75,.34,1.07,.06,.96-.84,.76-2.88,.39-3.97-.15-.44-.52-.74-.89-.75Z"/><path class="cls-46" d="M563.47,379.3c-1.52,.24-.51,4.13,.25,4.69,.33,.25,.8,.21,1.07-.13,.8-.99,.25-2.97-.31-3.98-.23-.41-.64-.64-1-.58Z"/><path class="cls-46" d="M579.33,375.06c-1.06-1.87-3.9-3.32-5.56-1.59-.61,.64-.72,1.83,.19,2.18,.73,.28,1.48-.14,2.2-.2,.86-.08,1.77,.15,2.58,.47,.43,.17,.83-.44,.59-.86Z"/><path class="cls-46" d="M565.91,373.94c-.63-.24-1.43-.3-1.93-.25-1.28,.13-4.09,1.34-3.3,3.05,.47,1.02,1.57,.19,2.23-.14,.7-.34,1.26-.52,2.06-.51,.5,0,1.44,.01,1.72-.52,.44-.85-.06-1.36-.79-1.64Z"/><path class="cls-53" d="M572.22,380.62c-.1-.49-.85-.28-.75,.21,.45,2.3,1.21,5.52,.28,7.79-.19,.46,.56,.67,.75,.21,.99-2.42,.21-5.72-.28-8.2Z"/><path class="cls-53" d="M570.43,387.63c-.31-.08-.63-.1-.95-.07-.21,.02-.39,.16-.39,.39,0,.19,.18,.41,.39,.39,.25-.03,.5-.02,.74,.04,.49,.12,.7-.64,.21-.75Z"/><path class="cls-9" d="M575.36,392.33c-2.69,.61-5.41,1.05-8.16,1.31-.29,0-.56,.28-.37,.58,.79,1.29,3.07,1.91,4.15,2.02,2.01,.2,3.48-1.63,4.7-3.04,.06-.07,.09-.16,.09-.24,.19-.24-.01-.72-.41-.63Z"/><path class="cls-46" d="M582.92,386.64c-.01-.28-.44-.58-.67-.28-.48,.6-1.24,3.71-1.87,5.28-.59,1.49-1.3,3.04-2.43,4.2-.54,.55-1.72,1.83-2.48,2-.95,.22-.94-.54-1.37-.65-.99-.25-3.48-.32-4.25,.5-.69,.73-1.1,1.14-2.17,.94-.95-.18-2.61-.78-3.4-1.31-5.14-3.45-5.27-7.55-6.77-7.68-.29-.03-.4,.26-.36,.47-.09,.08-.13,.2-.07,.35,1.54,3.95,3.51,7.78,6.39,10.93,2.19,2.41,5.87,4.49,9.52,4.32,1.6-.08,3.05-1.01,4.29-2.51,1.18-1.42,2.28-2.92,3.02-4.61,1.64-3.7,2.21-7.78,2.67-11.76,0-.08-.01-.15-.04-.2Z"/></g><g><path class="cls-27" d="M421.53,399.74l-.02-.03c-.04-.12-.11-.21-.21-.27-1.37-1.72-2.58-3.45-4.27-4.91-1.6-1.38-4.02-2.24-5.32-3.85-.43-.53-1.15,.11-.92,.67,0,.04-.02,.08-.02,.12-.44,6.5-.87,13-1.31,19.49-.56-.16-.99,.71-.42,1.09,2.25,1.51,4.76,2.5,7.46,2.82,1.44,.17,2.99,.26,3.92-.73,.32,.05,.68-.14,.68-.56-.07-4.35,.07-8.68,.4-13.02,.19-.21,.27-.55,.04-.83Z"/><path class="cls-49" d="M454.91,435.43c-.98-2.94-2.32-5.77-3.95-8.4-1.09-1.76-2.05-3.73-3.63-5.12-1.56-1.37-18.29-5.28-22.04-5.8-7.62-1.06-15.01-1.43-22.65-.73-5.77,.54-13.36,1.46-18.03,5.36-4.36,3.65-4.21,9.5-3.57,14.69h73.88Z"/><path class="cls-49" d="M436.38,425.8c.12-2.41,.16-4.82,.35-7.21-4.73-1.18-9.62-2.23-11.45-2.49-7.49-1.04-14.75-1.42-22.26-.76,.95,1.65,2.17,3.09,4.01,4.12,3.95,2.2,8.76,3.28,13.24,3.58,4.45,.29,8.23,.8,12.14,3.1,1.29,.76,2.56,1.58,3.84,2.37,0-.91,.08-1.83,.12-2.7Z"/><path class="cls-47" d="M423.51,417.97l.61,.95c1.02,1.09,2.03,2.19,3.09,3.23,.54,.53,1.44,.09,1.36-.65-.14-1.27-.22-2.53-.25-3.8,.09,.47,.21,.93,.37,1.4,.65,1.92,1.28,3.95,2.07,5.84,.11,.27,.3,.51,.54,.68,.23,.16,.47,.33,.71,.48,1.67,1.07,3.27,3.72,4.98,4.72,1.32-7.86,1.58-18.01-2.47-25.13-1.02-1.79-1.48-4.03-.77-6.22,.22-.69-.23-1.46,.1-2.15,.37-.78-.17-1.53,.05-2.36,1.05-3.89,1.26-8.23,1.37-12.24,.09-3.32,.21-8.15-2.04-10.9-1.8-2.2-4.73-2.05-6.28,.3-.89,1.34-1.26,2.97-1.67,4.5-.64,2.42-1.23,4.85-1.77,7.29-.97,4.45-1.76,8.94-2.36,13.45-.36,2.73-.66,5.46-.89,8.2-.16,1.98-.77,4.61-.28,6.56,.52,2.06,2.38,4.07,3.51,5.84Z"/><path class="cls-27" d="M428.02,365.9c-.19-.33-.53-.34-.79-.19-3.49-2.34-8.48-2.07-12.41-1.24-4.55,.96-7.99,4.4-9.74,8.62-.79,1.9-1.42,4.19-1.05,6.27,.37,2.07,1.79,2.81,2.99,4.35,1.17,1.49,1,3.56,1.21,5.36,.14,1.19,.3,2.38,.5,3.57,.35,2.15-.91,2.72,.62,4.37,2.07,3.35,6.78,7.95,10.95,7.85,4.97-.12,6.76-4.35,8.34-8.39,3.85-9.83,4.72-21.1-.62-30.55Z"/><path class="cls-18" d="M419.03,404.16c-3.09-.99-5.68-2.92-7.53-5.59-.28-.41-.96-.02-.67,.39,1.96,2.84,4.71,4.89,7.99,5.95,.48,.15,.68-.6,.21-.75Z"/><path class="cls-49" d="M423.8,419.2c.08-1.38,.14-2.76,.26-4.14,.2-2.19,.58-4.26-.43-6.23-.09,0-.19,.01-.27,.05-.07-.01-.15-.02-.23,0-4.31,.74-9.81,.39-13.6-1.97-.03-.44-.6-.81-.99-.4-.37,.39-.58,.81-.71,1.27-.07,2.58-.27,5.15-.43,7.72-.08,1.31,5.11,3.78,6.02,4.16,1.57,.65,3.25,1.04,4.96,1.06,.56,0,2.93-.55,4.36-.77,.34-.26,.69-.51,1.06-.74Z"/><path class="cls-35" d="M424.75,360.04c-8.87-2.13-17.15,1.72-21.34,7.01-3.67,4.65-6.79,10.85-5.58,16.65,.84,4.03,2.3,7.59,1.48,11.76-.71,3.63-2.19,7.13-3.38,10.65-1.41,4.21-2.5,8.6-2.19,12.92,.06,.78,.41,1.51,.98,2.05,.6,.57,1.27,1.08,2.04,1.52,2.02,1.14,4.33,1.7,6.29,2.93,2.2,1.37,4.04,3.21,6.29,4.51,.8,.46,1.62,1.06,2.46,1.54,.61,.35,1.36-.13,1.3-.83-.17-2.02-.73-4.01-.89-6.02-.21-2.66,.45-5.26,.8-7.89,.33-2.41,.43-4.84-.16-7.22-.64-2.58,.64-5.2-.36-7.66-6.41-15.71-2.78-14.79,.05-21.42,.57-1.33,3.41-3.14,4.48-4.28,1.51-1.62,2.91-3.36,3.98-5.25,.97-1.71,1.68-3.73,1.96-5.71,.11-.8,1.9,.38,2.66,1.05,.19-1.21,1.31-5.78-.9-6.31Z"/><path class="cls-35" d="M432,396.67c-.3,3.33-.25,6.62,.52,9.87,.87,3.71,2.28,7.19,2.49,11.06,.06,1.16-.49,6.94-.06,10.92,.05,.5,.32,.95,.71,1.25,.69,.53,1.37,1.08,2.04,1.63l.5-.2c.82-7.15,1.6-14.41,.64-21.59-.49-3.61-1.72-6.99-2.37-10.56-.75-4.13-.09-8.24,.43-12.36,.79-6.3,.65-12.86-2.38-18.51-1.39-2.59-3.38-4.84-5.82-6.4-1.2-.77-2.51-1.36-3.88-1.74-.81-.22-2.24-.42-3.09-.39-.55,.02-1.68,.41-.89,1.3,1.07,1.2,1.09,2.86,1.69,4.32,.53,1.28-1.79,2.73-.85,3.67,2.28,2.28,7.22,4.8,8.77,7.81,3.31,6.42,2.18,13.1,1.56,19.93Z"/><path class="cls-35" d="M427.93,384.41c.08-.95-.11-2.03-.37-2.4-.59-.83-1.32,.47-1.4,.94-.15,.86-.13,1.77,.02,2.63,.06,.32,.33,.48,.66,.48,.7,0,1.01-.78,1.09-1.65Z"/><path class="cls-35" d="M417.86,384.35c0-.59,0-2.29-.76-2.56-.64-.22-1.29,.86-1.33,1.34-.08,.87,.02,1.5,.24,2.34,.08,.32,.57,.62,.89,.6,.7-.06,.95-.84,.96-1.72Z"/><path class="cls-18" d="M424.32,383.17c-.08-.49-.84-.28-.75,.21,.21,1.21,1.55,6.76-.25,7.4-.47,.17-.27,.92,.21,.75,1.06-.38,1.38-1.23,1.44-2.3,.1-1.98-.3-4.11-.64-6.06Z"/><path class="cls-18" d="M422.57,389.59c-.41,0-.81,.05-1.21,.15-.49,.13-.28,.88,.21,.75,.33-.09,.66-.12,1-.12,.5,0,.5-.78,0-.78Z"/><path class="cls-46" d="M427.09,377.57c-.55-.07-1.27-.11-1.71,.31-.35,.34-.42,.87-.13,1.26,.02,.02,.04,.05,.06,.06,.29,.39,.85,.43,1.38,.45,.66,.02,1.32,.1,1.97,.24,.38,.09,.76,.28,1.14,.14,.12-.04,.25-.13,.27-.27,.19-1.28-1.99-2.06-2.98-2.19Z"/><path class="cls-46" d="M414.79,379.26c.49,.13,1.17,.13,1.37,.13,.85,0,3.34,.45,3.84-.35,.21-.34,.25-.78,.02-1.17-.01-.02-.02-.04-.03-.05-.57-.88-1.87-.57-2.75-.39-.84,.17-2.33,.45-2.85,1.15-.28,.38-.01,.58,.4,.69Z"/><path class="cls-9" d="M424.65,394.77s-.03-.01-.05-.01c-1.28-.09-2.57-.16-3.86-.19-.74-.02-1.79-.24-2.43,.24-.15,.11-.23,.31-.12,.48,.94,1.6,2.99,1.63,4.59,1.66,1.24,.03,2.22-.49,2.29-1.86,.01-.27-.23-.38-.43-.32Z"/><path class="cls-27" d="M476.99,408.04c-.55-2.19-2.29-4.34-3.41-6.27-.14-.24-.32-.4-.52-.51-.36-.55-1.03-.85-1.73-.37-1.41,.98-3.1,1.91-4.13,3.32-1.11,1.53-.99,3.19-.83,4.98,.41,4.69,.69,9.38,.83,14.08,0,.29,.1,.53,.23,.73,.05,1.2,.16,2.38,.35,3.55,.06,.36,.23,.61,.44,.77-.18,1.5,2.21,2.07,2.68,.47,1.46-4.94,3.06-9.84,4.8-14.69,.68-1.88,1.8-4.01,1.29-6.07Z"/><path class="cls-49" d="M475.08,435.43c-.87-3.81-2.16-10.37-2.49-10.99-.25-.48-.03-.43-.59-.22-.38,.15-.79,.6-1.11,.84-1.39,1.07-2.77,2.17-4.36,3.02-1.38,.74-2.69,1.3-3.83,2.22,.31,1.72,.69,3.42,1.11,5.12h11.26Z"/><path class="cls-50" d="M434.2,413.14c-.6-3.38-2.24-6.67-2.21-10.13,.06-6.7,1.92-13.09,.87-19.83-.08-.49-.83-.28-.75,.21,.53,3.41,.41,6.84,.07,10.26-.33,3.33-1.1,6.77-.95,10.12,.13,2.91,1.43,5.65,2.02,8.49,.72,3.48,.89,7.02,.62,10.56-.04,.5,.74,.5,.78,0,.25-3.24,.13-6.48-.43-9.68Z"/><path class="cls-50" d="M428.35,405.92c0-.5-.78-.5-.78,0-.03,3.44,.15,6.86,.53,10.28,.06,.49,.84,.5,.78,0-.38-3.42-.56-6.84-.53-10.28Z"/><path class="cls-50" d="M417.19,367.66c-2.22,3.4-3.78,7.09-4.68,11.04-.11,.49,.64,.7,.75,.21,.89-3.89,2.43-7.52,4.6-10.86,.28-.42-.4-.81-.67-.39Z"/><path class="cls-50" d="M409.34,370.49c-2.67,4.61-3.37,9.36-3.38,14.62,0,1.87-.16,3.69-.42,5.5-.02-1.62-.13-3.24-.33-4.86-.06-.49-.84-.5-.78,0,.36,2.9,.43,5.8,.21,8.72-.01,.14,.04,.23,.12,.29-.61,2.72-1.41,5.4-2.24,8.1-.15,.48,.6,.69,.75,.21,1.6-5.17,3.2-10.42,3.43-15.86,.12-2.74-.11-5.49,.34-8.21,.47-2.88,1.5-5.59,2.96-8.11,.25-.44-.42-.83-.67-.39Z"/><path class="cls-25" d="M468.6,420.83s-.03,.02-.05,.04v-15.73s.03,.03,.05,.05v-3.52s-.03-.02-.05-.03v-1.76c0-1.25-1.02-2.28-2.28-2.28h-14.44c-1.25,0-2.28,1.02-2.28,2.28v26.28c0,1.25,1.02,2.28,2.28,2.28h14.44c1.25,0,2.28-1.02,2.28-2.28v-2.09s.03-.02,.05-.03v-3.2Z"/><path class="cls-27" d="M474.22,411.52c-3.32-4.1-7.19-7.65-11.53-10.66-1.45-1.01-2.81,1.36-1.38,2.36,.96,.66,.55,.68,1.45,1.4-1.33-.68-1.64,1.76-.34,2.78,.62,.49,.44,.33,1.03,.84-.65,.43-.21,2.05,.46,2.8,1.96,2.19,4.08,4.22,6.34,6.09,1.35,1.11,5.05-4.25,3.96-5.61Z"/><path class="cls-25" d="M468.61,400.57c-1.35-1.1-3.29,.82-1.93,1.93,2.73,2.23,5.11,5.24,5.01,8.96-.11,3.86-3.28,6.73-6.41,8.5-1.53,.86-.16,3.22,1.38,2.36,3.79-2.14,7.35-5.65,7.73-10.2,.39-4.65-2.3-8.73-5.77-11.56Z"/><path class="cls-27" d="M471.23,422.33c.11-.2,0-.39-.17-.48-.01,0-.02-.01-.04-.02-.09-.04-.2-.04-.29-.01-3.68,.21-5.68,3.7-8.84,5.13-3.58,1.62-7.67,1.54-11.36,2.81-.45,.15-.29,.83,.14,.76-.08,.23,.04,.53,.35,.51,2.35-.18,4.7-.26,7.06-.22,1.9,.04,4.16,.59,6.03,.28,1.35-.22,2.01-1.36,2.73-2.4,1.44-2.07,2.87-4.15,4.3-6.22,.04-.04,.08-.09,.1-.15Z"/><path class="cls-27" d="M470.88,402.71s.06,.08,.1,.12c1.51,.6,2.93,1.42,4.45,2-.75-1.53-1.63-2.99-2.78-4.26-2.32-2.55-5.7-3.93-8.68-5.54-1.55-.84-2.58,1.7-1.04,2.52,2.73,1.47,5.92,2.73,7.96,5.15Z"/><path class="cls-27" d="M446.31,435.43c.7-1.25,1.29-2.43,1.82-3.3,.34-.55,.92-.91,1.57-.96,1.69-.14,4.85-.27,5.98-.33,2.06-.12,4.31-.56,6.26-1.28,3.46-1.28,6.54-4.56,8.99-7.21,.73-.78,.29-1.81-.42-2.19-.38-.38-.96-.55-1.57-.17-2.54,1.57-5.16,3.64-8.02,4.55-1.65,.52-3.33,.93-5.04,1.19-1.06,.16-3.54,.86-4.37-.16-.72-.88,.19-1.9,.94-2.38,2.33-1.23,2.63-1.16,4.65-2.87,1.34-1.14,1.29-4.6-.04-3.47-3.08,2.61-6.58,4.39-10.28,5.94-1.67,.7-3.25,1.66-4.51,2.97-1.3,1.36-2,3.17-3.04,4.71-1.12,1.66-2.23,3.32-3.35,4.98h10.41Z"/><path class="cls-49" d="M446.13,435.43c-.58-.76-1.16-1.53-1.7-2.32-1.13-1.64-3.84-4.69-4.62-4.69-.02,0-2.34,4.1-3.99,7.01h10.31Z"/><path class="cls-18" d="M469.02,421.42c-1.92,2.99-4.57,5.31-7.78,6.83-.45,.22-.06,.89,.39,.67,3.33-1.58,6.07-4.01,8.06-7.11,.27-.42-.4-.82-.67-.39Z"/><path class="cls-18" d="M470.22,409.27c-1.79-1.65-3.68-3.2-5.64-4.64-.41-.3-.8,.38-.39,.67,1.91,1.4,3.74,2.91,5.49,4.52,.37,.34,.92-.21,.55-.55Z"/><path class="cls-18" d="M469.67,412.35c-1.52-1.59-3.21-2.98-5.06-4.17-.42-.27-.81,.4-.39,.67,1.79,1.16,3.42,2.51,4.9,4.05,.35,.36,.9-.19,.55-.55Z"/><path class="cls-53" d="M439.39,428.32c-1.47,2.1-2.81,4.27-4.02,6.53-.29,.54,.53,1.02,.82,.48,1.21-2.25,2.55-4.43,4.02-6.53,.35-.5-.47-.97-.82-.48Z"/></g><g><g><path class="cls-35" d="M581.33,272.62c-1.08-2.62-3.54-4.05-6.23-4.39-1.43-1.65-3.36-2.86-5.51-3.36-4.05-.95-7.46,1.52-11.41,1.51-1.81,0-3.41-.27-5.19,.26-1.56,.47-2.99,1.3-4.22,2.37-1.93,1.68-3.69,4.22-3.6,6.78,.03,.89-1.01,1.72-1.35,2.53-.42,1-.53,2.08-.5,3.15,.08,2.24,.79,4.41,.75,6.66-.03,1.62-.79,3.35-.09,4.91,.52,1.18,1.71,2.01,2.65,2.82,5.26,4.54,6.77,10.92,9.07,17.09,.65-.47,1.62-1.55,2.37-.57,.13,.17,.89-10.72,1.06-10.66,.16,.2-4.32-.32-4-.31,8.2,.42,8.5-10.86,11.21-16.1,1.82-3.51,4.29-5.62,7.57-7.66,.79,1.04,1.6,2.06,2.44,3.04,.49,.57,1.41,.97,2.06,.79,.22,0,.45-.1,.64-.34,1.96-2.52,3.63-5.3,2.29-8.53Z"/><path class="cls-27" d="M571.87,311.45c-1.61-2.34-4.1-3.87-6.42-5.43-2.89-1.95-5.86-3.76-8.9-5.47,0-.04,0-.08,0-.12-.01-.44-.62-.49-.75-.16-.27,.1-.4,.52-.08,.7l.06,.04c.14,6.74-.73,13.41-2.6,19.9-.09,.31,.18,.5,.43,.48,.77,2.63,2.53,4.88,5.04,6.08,2.28,1.08,6.52,2.25,8.89,.93,.25-.14,.23-.42,.07-.59,1.04-5.39,2.44-10.69,4.21-15.88,0-.01,0-.02,0-.03,.11-.11,.16-.27,.04-.44Z"/><path class="cls-27" d="M577.7,274.49c.16-.17,.2-.46-.06-.61-7.46-4.16-18.93-3.94-23.75,4.06-2.01,3.34-4.63,8.21-2.23,11.91,.67,1.03,1.52,1.91,2.1,3,.65,1.21,1,2.56,1.27,3.9,.48,2.42,.67,4.86,1.51,7.19,.07,.19,.23,.26,.39,.26,1.75,3.89,5.69,7.1,9.5,9.13,4.79,2.56,9.2,2.31,11.78-2.98,1.28-2.62,1.63-5.65,2.04-8.51,.46-3.2,.77-6.43,.81-9.66,.08-6.09-.84-12.12-3.35-17.7Z"/><path class="cls-35" d="M580.58,277.01c.22-1.82,.14-1.3,.06-1.62-2.55-10.42-17.38-7.8-24.58-2.74-3.76,2.64-6.74,6.8-7.77,11.27-.68,2.95-.04,5.76,1.35,8.25-.17,.33-.17,.74,.14,1.09,1.48,1.72,1.52,3.2,3.38,4.52,1.09,.78,3.24,3.41,4.71,2.88,1.48-.54,1-2.69,.55-3.74-1.04-2.42-1.46-5.1-1.42-7.92,.01-1.15,.42-2.4,1.33-3.16,1.04-.86,2.48-.8,3.71-1.19,1.78-.56,2.74-1.84,3.52-3.44,1.18-2.41,2.47-4.18,5.31-4.77,2.99-.63,7.05,1.46,8.89,3.83l.82-3.26Z"/><path class="cls-27" d="M559.21,300.61c-.42-1.36-1.17-2.7-1.71-3.63-1.25-2.17-3.8-4.66-6.27-3.03-2.69,1.78,.13,5.82,1.4,7.62,.99,1.4,4.25,5.22,6.17,3.05,.94-1.07,.86-2.56,.41-4.01Z"/><path class="cls-46" d="M580.24,287.44c-.6-.54-2.11-1.13-2.94-1.04-1.13,.13-1.46,1.07-1.25,1.81,.2,.72,1.91,.55,2.55,.59,.46,.03,1.05,.16,1.51,.05,.8-.19,.61-1,.14-1.42Z"/><path class="cls-46" d="M570.33,287.35c-.44-.6-1.24-.84-2-.85-1.66-.03-3.68,.85-4.74,2.06-.24,.27-.14,.62,.17,.79,.7,.39,1.48,.07,2.22-.08,1.29-.26,2.65-.2,3.92-.45,.82-.17,.83-.92,.43-1.46Z"/><path class="cls-35" d="M568.38,293.61c-.04-.76-.27-1.48-.7-1.85-.5-.42-1.19-.27-1.43,.4-.33,.9-.11,2.72,.49,3.35,.29,.31,.78,.7,1.12,.3,.39-.45,.58-1.34,.53-2.2Z"/><path class="cls-35" d="M578.74,291.96c-.05-.34-.37-1.07-.9-1.07-.49,0-.69,.3-.86,.91-.2,.73-.12,1.56,.05,2.28,.14,.61,.69,1.65,1.32,.94,.57-.65,.51-2.25,.39-3.06Z"/><path class="cls-18" d="M577.07,299.26c-.08-2.03-.41-4.04-.91-6.01-.12-.49-.88-.28-.75,.21,.35,1.39,.63,2.8,.77,4.23,.12,1.16,.52,3.11-.58,3.93-.4,.29-.01,.97,.39,.67,1.04-.76,1.13-1.8,1.08-3.03Z"/><path class="cls-18" d="M574.85,300.74c-.58-.01-1.15,.06-1.71,.22-.48,.14-.28,.89,.21,.75,.49-.14,.99-.2,1.5-.19,.5,0,.5-.77,0-.78Z"/><path class="cls-9" d="M576.55,304.87c.02-.22-.1-.34-.47-.28-2.5,.43-5,.83-7.5,1.2-.84,.13,.83,1.14,1.04,1.26,1.08,.65,2.43,1.2,3.76,.99,.83-.13,1.47-.64,1.97-1.22,.13-.15,1.15-1.38,1.2-1.95Z"/><path class="cls-50" d="M578.02,275.96c-.32-1.02-.83-1.89-1.49-2.61,.05-.1,.06-.22,0-.34-.84-1.78-2.09-3.26-3.67-4.42-.4-.3-.79,.38-.39,.67,1.1,.81,2.01,1.8,2.72,2.93-3.08-2.11-7.74-2.18-10.93-.5-.44,.23-.05,.91,.39,.67,4.08-2.15,11.04-1.22,12.61,3.81,.15,.48,.9,.27,.75-.21Z"/><path class="cls-50" d="M558.55,272.98c-3.64,2.46-6.1,6.43-4.88,10.9,.02,.06,.05,.11,.08,.16-2.13,1.52-1.79,4.33-1.11,6.59,.14,.48,.9,.28,.75-.21-.59-1.99-1.09-4.63,1.03-5.9,.28-.17,.21-.52,0-.66,.01-.06,.01-.12,0-.18-1.13-4.14,1.18-7.76,4.52-10.02,.41-.28,.02-.96-.39-.67Z"/><path class="cls-50" d="M551.05,280.65c-2.16-1.69-2.53-4.48-.9-6.69,.3-.4-.38-.79-.67-.39-1.81,2.46-1.39,5.75,1.02,7.64,.39,.31,.95-.24,.55-.55Z"/><path class="cls-18" d="M553.26,295.68c-.49-.08-.7,.67-.21,.75,.61,.1,1.17,.34,1.65,.67-.37-.06-.76-.06-1.15,0-.5,.07-.28,.82,.21,.75,.68-.09,1.34,.06,1.92,.41,.06,.04,.13,.05,.19,.05,.26,.42,.45,.89,.54,1.4,.09,.49,.85,.28,.75-.21-.37-1.95-1.95-3.5-3.9-3.83Z"/><path class="cls-18" d="M570.36,314.52c-4.5-1.41-8.33-4.21-11.02-8.08-.28-.41-.96-.02-.67,.39,2.81,4.05,6.78,6.97,11.49,8.44,.48,.15,.69-.6,.21-.75Z"/><path class="cls-10" d="M627.58,286.21s0-.05-.02-.08c-.65-2.26-3.91-.29-4.59,.9-.75,1.3-.91,2.83-1.22,4.28-.28,1.33-.78,2.59-1.41,3.8-1.14,2.19-2.99,3.86-5.5,4.05-3.66,.27-7.02-2.16-10.41,.36-2.44,1.82-3.35,5.02-2.6,7.93,.04,.14,.14,.2,.24,.21-.21,.34,.31,.63,.51,.3,3.81-6.11,11.56-4.01,17.27-6.17,2.19-.83,3.38-2.59,4.04-4.79,.47-1.57,.72-3.19,1.03-4.8,.21-1.1,.29-2.24,.64-3.31,.27-.84,2.17-1.75,2.03-2.66Z"/><path class="cls-38" d="M601.71,346.58c-.13-3.99-.65-7.95-1.64-11.82-.82-3.21-1.89-6.12-4.81-7.95-2.76-1.73-6.09-2.26-9.24-2.84-4.56-.84-9.12-1.68-13.67-2.52-.22-.04-.37,.09-.44,.24-.04,.03-.07,.06-.1,.11-2.2,3.83-5.67,7.75-10.53,7.35-4.47-.37-7.67-3.96-10.31-7.24,0-.19-.14-.37-.34-.38-.14-.07-.29-.02-.39,.09-7.34,2.1-14.42,5.37-20.59,9.9-2.65,1.95-4.88,4.23-6.44,7.15-1.51,2.84-2.41,5.93-3.24,9.02,.25,.07,.5,.14,.75,.22l.05-.19c13.56-.09,27.12-.19,40.69-.28,6.74-.05,40.3,.42,40.29-.08v-.06c.28-.11,.27-.58-.03-.72Z"/><path class="cls-27" d="M570.49,339.13c-.25-.69-1.22-1.19-1.97-.55-.05,.04-.1,.08-.14,.13-2.02,.31-4.04,.61-6.08,.77-1.45,.12-2.93,.06-4.37,.3-.3-.16-1.03-.23-1.42,0-2.92,1.8-4.91,4.31-7.2,6.84-.19,.21-.28,.44-.3,.67h12.47c2.53-2.61,3.94-3.63,5.06-3.92,.15-.02,3.19-2.53,3.34-2.55,.93-.14,1.03-1.08,.62-1.7Z"/><path class="cls-7" d="M619.25,312.11c0-.31-3.87-.09-7.02-.31-3.82-.27-5.04-.47-7.07-.65-3.2-.35-5.88-.92-5.88-.87l-1.13,25.46c-.12,1.18,.86,2.24,2.17,2.35l11.43,.97c1.32,.11,2.49-.77,2.61-1.96l4.88-24.99Z"/><path class="cls-9" d="M574.46,321.35c-.03-.57-.36-1.09-.87-1.34-.3-.15-.62-.28-.94-.45-.38-.2-1.1-.51-1.72-.77-.58-.25-1.25,.06-1.44,.66-.27,.87-.62,1.98-.73,2.37-.66,2.48-2.63,4.64-4.25,6.55-3.27-2.06-6.21-4.52-8.81-7.36-.66-.76-1.29-1.53-1.88-2.34-.02-.02-.03-.04-.05-.06-.07-.22-.3-.38-.54-.21-1.62,1.15-3.38,2.22-4.95,3.46-.43,.34-.52,.94-.24,1.4,.66,1.1,1.19,2.34,1.92,3.4,1.32,1.92,2.92,3.64,4.69,5.16,.62,.54,4.32,3.95,5.12,3.53,.64-.34,5.26-5.53,4.92-5.88,.44,.46,5.31,5.42,5.49,5.22,3.3-3.75,4.54-8.39,4.29-13.35Z"/><path class="cls-27" d="M598.84,328.77c-3.68,0-7.37,.29-11,.89-2,.33-3.96,.84-5.9,1.4-1.34,.39-2.46,1.22-3.85,1.54-1.77,.4-.41-1.22,.17-1.72,1.24-1.1,6.76-5,9.65-6.42,.99-.49,1.77-1.31,2.19-2.31v-.03c.32-.75-.54-1.46-1.28-1.08-4.33,2.27-8.64,4.73-12.83,7.32,.45-.43,.92-.95,1.36-1.55,.81-1.1,.06-2.61-1.1-1.83-3.55,2.38-6.77,5.17-10.1,7.82-3.44,2.75-7.2,5.04-10.67,7.75-.64,.49-.27,1.61,.48,1.77,2.48,.52,4.99,.23,7.45,.66,.17,.27,.46,.45,.9,.42h.82c.19,0,.35-.02,.5-.08,2.7-.16,5.34-.3,7.87-1.36,2.48-1.04,5.03-1.73,7.43-2.85,1.97-.45,3.96-.82,5.97-1.09,2.35-.32,5.08-.25,6.64-2.01,.12-.03,.24-.05,.36-.08,1.04-.24,2.21-.58,3.13-1.21,.5-.35,1.02-.8,1.26-1.38,.26-.61-.05-1.41,.3-1.94,.38-.57,1.12-.42,1.26-1.29,.11-.69-.27-1.33-1.02-1.34Z"/><path class="cls-18" d="M596.6,330.69c-5.87,.08-11.63,1.08-17.19,3-.47,.16-.27,.92,.21,.75,5.49-1.9,11.17-2.9,16.98-2.97,.5,0,.5-.79,0-.78Z"/><path class="cls-18" d="M592.8,333.89c-3.51,.41-6.99,1-10.45,1.75-.49,.11-.28,.86,.21,.75,3.39-.74,6.8-1.32,10.24-1.72,.49-.06,.5-.84,0-.78Z"/><path class="cls-25" d="M617.8,314.27c-1.43-.88-3.48,.76-2.03,1.65,2.89,1.79,5.41,4.22,5.31,7.3-.1,3.2-3.44,5.65-6.75,7.19-1.62,.75-.16,2.67,1.46,1.92,4-1.86,7.74-4.85,8.13-8.63,.4-3.86-2.46-7.17-6.13-9.44Z"/><path class="cls-27" d="M634.79,348.02c-1.5-5.95-2.6-12.57-2.8-18.66-.03-1.01-.81-.68-1.49-.34-.41-.06-.85,.08-1.13,.52-.83,1.26-1.58,2.56-2.27,3.9-.41,.14-.87,1.08-.83,1.65,.29,4.52,.9,8.5,1.56,12.93h6.97Z"/><path class="cls-27" d="M629.09,318.75c-.14-.03-6.44-.79-10.17-1.37-.66-.1-1.54,1.24-1.25,1.85-1.18-.28-2.27,1.52-1.08,2.1l.05,.02c-.48,.78-.2,1.48,.55,2.11,.29,.25,.41,.65,.3,1.02-.54,1.88,.79,1.89,3.12,2.93,1.4,.62,2.87,1.06,4.36,1.39,.71,.16,1.2,.79,1.16,1.51-.06,1.15-.05,2.3,.02,3.45,.13,1.99,.22,4.13,2.05,5.3,.81,.52,1.58-.12,1.71-.86,.22-.13,2.22-6.36,2.18-6.69-.22-1.87-.02-4.77,.52-8.78,.33-2.45-.34-3.26-3.53-4Z"/><path class="cls-18" d="M629.41,321.53c-2.6-.82-5.24-1.48-7.92-1.99-.49-.09-.7,.66-.21,.75,2.68,.5,5.32,1.17,7.92,1.99,.48,.15,.69-.6,.21-.75Z"/><path class="cls-18" d="M627.69,323.79c-2.36-.93-4.77-1.7-7.23-2.32-.49-.12-.7,.63-.21,.75,2.46,.62,4.87,1.39,7.23,2.32,.47,.18,.67-.57,.21-.75Z"/><path class="cls-18" d="M628.22,326l-6.45-2.13c-.48-.16-.68,.6-.21,.75,2.15,.71,4.3,1.42,6.45,2.13,.48,.16,.68-.6,.21-.75Z"/><path class="cls-53" d="M599.28,310.27s.81-.68,5.19-.4c4.38,.28,9.12,.52,11.61,.99,2.49,.47,3.62,.9,3.17,1.25-.45,.36-6.81,1.23-15.01-.17-3.14-.53-4.96-1.67-4.96-1.67Z"/></g><rect class="cls-32" x="654.57" y="278.92" width="3.26" height="24.92" rx=".36" ry=".36" transform="translate(59.78 -108.35) rotate(9.89)"/><rect class="cls-32" x="648.23" y="279.35" width="3.26" height="24.92" rx=".36" ry=".36" transform="translate(204.78 -264.41) rotate(27.15)"/></g></g><path class="cls-34" d="M504.38,435.81h-.03c-.21-.02-.38-.2-.36-.42l12.68-175.23c.02-.22,.2-.37,.42-.36,.21,.02,.38,.2,.36,.42l-12.68,175.23c-.01,.21-.19,.36-.39,.36Z"/><path class="cls-34" d="M649.1,435.82h-.03c-.21-.02-.38-.2-.36-.42l12.68-175.23c.02-.22,.2-.37,.42-.36,.21,.02,.38,.2,.36,.42l-12.68,175.23c-.01,.21-.19,.36-.39,.36Z"/><path class="cls-34" d="M655.6,348.19H365.43c-.22,0-.39-.17-.39-.39s.17-.39,.39-.39h290.16c.22,0,.39,.17,.39,.39s-.17,.39-.39,.39Z"/><path class="cls-34" d="M649.07,435.82H358.91c-.22,0-.39-.17-.39-.39s.17-.39,.39-.39h290.16c.22,0,.39,.17,.39,.39s-.17,.39-.39,.39Z"/></g><g><g><path class="cls-12" d="M595.79,412.2c-1.4-4.52-7-5.2-11.01-5.46-5.07-.32-10.2,.35-15.06,1.8-5.03,1.5-9.82,3.84-14.13,6.83-4.3,2.98-7.89,6.67-11.54,10.38-1.92,1.96-3.89,3.9-6.07,5.57-2.08,1.6-4.63,3.39-7.34,3.51-2.9,.12-3.93-2.5-5.88-4.09-1.65-1.34-3.66-2.13-5.77-2.36-11-1.21-14.95,12.28-13.91,20.92,1.4,11.64,10.59,22.27,20.57,28.01,0,0,.15-1.84,.14-1.92,0-.16-.49-.25-.84-.59-3.15-3-4.36-7.52-6.53-11.29-1.88-3.24-3.88-6.47-1.91-10.17,1.69-3.16,4.96-5,8.47-5.24,3.79-.26,7.68,.34,11.09-1.72,2.94-1.78,4.88-4.73,6.89-7.44,2.36-3.18,4.95-6.22,7.84-8.94,5.55-5.21,12.28-8.79,19.47-11.2,8.05-2.7,16.47-4.08,24.84-5.41,.51-.08,.82-.74,.68-1.2Z"/><path class="cls-26" d="M557.53,478.59l.25,1.08c.31-3.09,.4-1.16-10.83-1.6-4.15-.16-15.14-.21-18.31-.31-20.88-.7-23.67-1.83-26.05-2.44l-6.51,62.27c-.14,1.42,.9,2.58,2.33,2.58l50.03,1.5c1.43,0,2.7-1.15,2.85-2.58l.64-4.61c4.96-1.62,9.75-3.78,13.87-7.27,5.79-4.9,9.44-11.99,10.58-19.12,2.17-13.59-6.45-25.74-18.84-29.49Zm11.3,29.49c-.86,5.4-3.9,10.68-8.36,14.24-2.34,1.86-4.99,3.2-7.76,4.24l4.02-39.98c8.26,3.55,13.66,11.75,12.1,21.5Z"/><path class="cls-34" d="M556.72,486.58s3.2,1.67,4.17,2.37c2.7-1.27,5.47-2.37,8.31-3.27-3.17-3.25,.47,.31-4.03-1.05l-4.69-.99c.31-3.09-1.93-4.56-4.51-6.37,0,0-1.09,.47-5.25,.81-.19,.02-5.66,.03-5.66,.03,1.73,2.87,6.94,5.95,11.67,8.47Z"/><path class="cls-34" d="M568.22,498.98c2.52,4.2,4.51,8.68,7.01,12.91,.06,.11,.12,.21,.19,.32,.41-1.37,.73-2.75,.95-4.13,2.17-13.59-6.49-26.32-18.87-30.08l.06,.33c-.24,2.11-.34,4.21-.58,6.31-.15,1.31-.25,1.94-.25,1.94,5.51,2.37,9.75,6.81,11.5,12.4Z"/><path class="cls-52" d="M552.69,527.59c-.1,1.18-.19,2.36-.29,3.54-.05,.57,.84,.57,.89,0,.1-1.18,.19-2.36,.29-3.54,.05-.57-.84-.57-.89,0Z"/><path class="cls-52" d="M572.62,512.59c-1.09,6.61-6.25,10.94-11.2,14.91-.45,.36,.19,.98,.63,.63,5.07-4.06,10.31-8.54,11.43-15.3,.09-.56-.76-.8-.86-.24Z"/><path class="cls-52" d="M529.27,483.5c-7.4-.14-13.61-.47-21.02-1.46-.57-.08-.61,.8-.05,.89,7.18,1.04,13.33,1.49,21.02,1.46,.57,0,.62-.87,.05-.89Z"/><path class="cls-52" d="M502.81,475.86c-.4-.35-.26-1,.25-1.15,.9-.26,3.1-.49,6.93-.49,8.06,0,24.69,.18,32.08,1.09,7.39,.91,12.41,1.16,14.37,1.96,1.96,.8,2.57,1.91-3.8,2.81-11.78,1.65-36.35-.7-43.92-1.89-2.25-.36-5.23-1.72-5.91-2.32Z"/></g><g><path class="cls-34" d="M636.88,736.51c-.76,0-1.54-.1-2.31-.31-4.66-1.28-7.4-6.09-6.13-10.75l36.02-131.62c5.63-20.57,24.43-34.52,45.76-33.95l155.14,4.41c4.83,.14,8.63,4.16,8.5,8.99-.13,4.74-4.02,8.5-8.74,8.5-.08,0-.17,0-.25,0l-155.13-4.41c-13.22-.36-24.91,8.31-28.4,21.08l-36.02,131.62c-1.06,3.89-4.59,6.44-8.43,6.44Z"/><path class="cls-54" d="M777.19,925.91c-.59,.12-1.2,.19-1.83,.18-4.83-.02-8.73-3.95-8.71-8.78l1.13-274.03c.02-4.83,3.95-8.73,8.78-8.71,4.83,.02,8.73,3.95,8.71,8.78l-1.13,274.03c-.02,4.21-3,7.71-6.96,8.53Z"/><path class="cls-48" d="M1098.99,280.66l-199.68-6.9c-13.5-4.46-28.81,3.11-34.2,16.91l-163.18,417.73-88.05-.22c-3.92,0-7.32,3.18-7.58,7.1l-1.45,21.41c-.26,3.92,2.7,7.1,6.62,7.1,40.28,0,102.65,.22,142.93,.22h94.11c19.66,0,39.29,1.89,58.95,1.21,16.49-.57,34.13-1.88,41.17-19.44l165.03-412.05c5.39-13.81-1.18-28.62-14.67-33.08Z"/><g><path class="cls-40" d="M898.45,365.67c.33-3.91,1.24-7.83,2.98-11.36,.9-1.83,2.03-3.55,3.39-5.07,.67-.74,1.38-1.43,2.17-2.04,.37-.29,.73-.57,1.14-.79,.66-.35,12.89,12.3,14.01,12.74-5.6,2.91-13.76,10.2-6.47,32.65,1.32,4.08,5.57,.39,5.83,4.67,.24,3.91-5.26-4.29-5.5-.38-.02,.41-.06,.85-.17,1.24-.11,.29-.21,.57-.32,.86l-2.91,.28c-.69-.21-1.51-.98-2.06-1.4-1.33-1-2.56-2.13-3.67-3.37-2.17-2.41-3.9-5.22-5.22-8.18-2.74-6.18-3.77-13.13-3.2-19.85Z"/><path class="cls-40" d="M998.19,551.68c-1.13-6.7-3.67-13.1-6.87-19.06-6.69-12.44-16.22-23.16-25.48-33.72-4.6-5.25-9.73-11.25-16.06-14.47-2.23-1.14-4.69-1.19-6.42,.81-.62,.71-1.01,1.51-1.25,2.35-.63,.78-1.45,1.8-2.08,2.59-7.35,3.66-13.95,8.84-19.27,15.09-6.2,7.3-10.11,15.98-13.65,24.79-3.91,9.72-7.8,19.45-12.19,28.97-8.63,18.72-19.17,36.09-33.19,51.28-7.08,7.67-14.55,15.01-21,23.24-6.23,7.96-11.42,16.63-16.7,25.23-6.09,9.92-12.45,19.62-20.27,28.28-6.83,7.57-14.49,14.34-22.8,20.24-.77,.55-1.74,.72-2.66,.49-1.65-.42-3.28-.91-4.91-1.5-.53-.19-.76,.65-.23,.84,1.86,.67,3.74,1.22,5.63,1.67-.14,.1-.28,.19-.42,.29-.46,.31-.03,1.07,.44,.76,.71-.48,1.56-.68,2.39-.53,13.32,2.34,26.91,.26,40.07-1.74,8.63-1.31,17.46-1.16,26.02-2.95,11.34-2.36,12.73-6.46,18.45-15.71,4.12-6.66,7.67-13.52,10.66-20.77,6.31-15.3,10.22-31.35,17.29-46.36,12.76-27.07,30.81-50.64,41.45-78.83,2.81-7.44,6.32-15.6,15.67-13.37,7.85,1.87,13.57,8.62,19.02,14.07,7.17,7.17,13.61,16.67,21.57,22.86,1.81,1.4,1.81-.79,4.29-1.15,2.11-.31,2.89-2.15,3.06-4.06,.29-3.17-.05-6.49-.58-9.62Z"/></g><path class="cls-54" d="M916.04,719.91h-263.4c-.24,0-.44-.2-.44-.44s.2-.44,.44-.44h263.4c6.68,0,12.56-4.02,15-10.23l162.82-414.96c.09-.23,.34-.34,.57-.25,.22,.09,.34,.34,.25,.57l-162.82,414.96c-2.57,6.55-8.78,10.78-15.82,10.78Z"/><path class="cls-3" d="M777.7,507.49c-.06-.56-.36-1.08-.79-1.47-.08-.76,.11-1.99,.06-2.42-.13-1.15-.47-2.22-1-3.26-1.11-2.19-2.97-3.98-4.92-5.49-4.86-3.76-10.18-7.03-15.27-10.49-2.02-1.37-3.94,.98-3.26,2.8-.01,.01-.02,.02-.03,.03-14.25,13.12-28.81,25.93-43.65,38.42-1.22-1.85-4.83-.63-4.21,1.93,1.21,5.02,5.27,8.52,9.6,11.2,4.06,2.51,8.78,4.49,11.64,8.33-.19,1.43,1,3.09,2.89,2.62,9.71-2.42,16.63-10.18,23.48-16.74l23.53-22.54c1.31-.25,2.36-1.63,1.92-2.91Z"/><path class="cls-16" d="M821.5,608.97c-3.19-3.73-8.92-5.35-13.32-7.11-11.58-4.62-23.6-8.06-35.86-10.35-.84-.16-1.48,.32-1.76,.94-.32-.22-.73-.32-1.21-.2-3.99,.97-7.99,2.28-11.43,4.57-3.73,2.48-12.92,10.89-14.93,11.4-3.6,.92-29.03,3.2-37.88,4.16-25.52,2.77-51.03,5.7-76.47,9.11-15.71,2.11-31.42,4.21-47.02,7.01-14.77,2.66-29.24,5.27-41.98,13.73-23.65,15.72-19.36,45.98-12.28,69.92,1.43,4.82,20.49,82.72,20.49,82.72-.09,0-2.23,2.99-.26,3.05,.65,.02,1.29,.04,1.94,.06,.39,.16,.83,.16,1.22,.04,10.95,.33,21.9,.65,32.85,.99,5.85,.18,11.72,.45,17.42,1.84,5.51,1.35,10.76,3.57,15.96,5.79,.1,.22,.2,.44,.31,.66,.86,1.77,3.5,.22,2.64-1.55-7.3-15.13-9.5-31.97-8.98-48.62,.24-7.76-.39-12.63-4.45-19.41-3.48-5.81-7.83-11.42-7.76-18.54,.03-2.49,.52-5.05,1.91-7.12,4.6-6.83,22.59-6.86,30-7.87,11.76-1.6,23.59-2.66,35.33-4.47,22.36-3.45,43.78-11.04,65.98-15.3,10.98-2.1,22.04-3.75,33-5.91,5.53-1.09,11.04-2.32,16.49-3.8,4.72-1.29,9.73-2.54,14.09-4.8,3.97-2.06,6.55-5.29,7.56-9.65,1.11-4.8,1.36-9.67,2.81-14.42,1.47-4.82,3.59-9.42,6.27-13.69,2.54-4.05,5.91-7.34,8.69-11.19,2.64-3.65,3.82-8.27,.64-12Z"/><path class="cls-51" d="M821.5,608.97c-3.19-3.73-8.92-5.35-13.32-7.11-11.58-4.62-23.6-8.06-35.86-10.35-.84-.16-1.48,.32-1.76,.94-.32-.22-.73-.32-1.21-.2-3.99,.97-7.99,2.28-11.43,4.57-3.73,2.48-12.92,10.89-14.93,11.4-3.6,.92-29.03,3.2-37.88,4.16-25.52,2.77-51.03,5.7-76.47,9.11-15.71,2.11-31.42,4.21-47.02,7.01-14.77,2.66-29.24,5.27-41.98,13.73-23.65,15.72-19.36,45.98-12.28,69.92,1.43,4.82,20.49,82.72,20.49,82.72-.09,0-2.23,2.99-.26,3.05,.65,.02,1.29,.04,1.94,.06,.39,.16,.83,.16,1.22,.04,10.95,.33,21.9,.65,32.85,.99,5.85,.18,11.72,.45,17.42,1.84,5.51,1.35,10.76,3.57,15.96,5.79,.1,.22,.2,.44,.31,.66,.86,1.77,3.5,.22,2.64-1.55-7.3-15.13-9.5-31.97-8.98-48.62,.24-7.76-.39-12.63-4.45-19.41-3.48-5.81-7.83-11.42-7.76-18.54,.03-2.49,.52-5.05,1.91-7.12,4.6-6.83,22.59-6.86,30-7.87,11.76-1.6,23.59-2.66,35.33-4.47,22.36-3.45,43.78-11.04,65.98-15.3,10.98-2.1,22.04-3.75,33-5.91,5.53-1.09,11.04-2.32,16.49-3.8,4.72-1.29,9.73-2.54,14.09-4.8,3.97-2.06,6.55-5.29,7.56-9.65,1.11-4.8,1.36-9.67,2.81-14.42,1.47-4.82,3.59-9.42,6.27-13.69,2.54-4.05,5.91-7.34,8.69-11.19,2.64-3.65,3.82-8.27,.64-12Z"/><path class="cls-28" d="M774.55,511.26c-4.26-4.28-8.2-8.86-12.66-12.92-3.46-3.15-7.9-8.64-13.02-8.7-.37,0-.49,.37-.38,.63-.12,.12-.16,.3-.03,.48,1.47,2.06,18.22,20.42,22.54,23.54,.17,.12,.39,.04,.53-.07,1.01-.78,2.01-1.57,3.02-2.35,.19-.15,.15-.47,0-.62Z"/><path class="cls-52" d="M823.29,635.32c1.76-1.65,3.45-3.38,5.04-5.21,.33-.37,.55-.77,.71-1.17-1.85,2.19-3.77,4.31-5.75,6.37Z"/><path class="cls-35" d="M852.17,284.03c1.33-5.76,3.28-10.84,6.97-15.61,1.41-1.83,.31-4.69-1.57-5.75-2.23-1.25-4.58-.32-5.99,1.51-.2,.27-.4,.53-.6,.8-2.05-.82-1.26-4.44-2.55-2.76-9.94,13.01-21.33,31.85-27.31,46.95-2.88,7.27-5.18,17.29,.55,23.88,2.49,2.86,6.31,4.7,9.74,6.34,3.88,1.85,7.92,3.38,12.06,4.59,1.94,.56,7.83,2.59,8.76,1.42,4.97,3.44-3.12-2.63-2.55-2.78,2.45-.65,3.48-2.93,3.06-5.17-1.15-6.16-2.3-12.32-3.45-18.48-1.1-5.86-2.17-11.38-1.07-17.33,1.09-5.9,2.61-11.75,3.96-17.6Z"/><path class="cls-51" d="M867.01,614.63c-8.33-5.01-17.57-8.4-27.19-9.87-1.84-.28-3.7,.39-4.42,2.16-32.97,4.88-33.69,16.11-65.92,24.56-34.85,3.44-100.05,6.47-134.52,12.71-15.15,2.74-25.47,5.24-39.81,11.51-28.63,12.52-78.64,79.14-90.02,92.99-13.62,16.59-24.04,32.41-37.18,49.42,.33,.65-1.24-2.62-.64-2.27,.21,.12,.41,.21,.62,.29,.68,1.43,2.17,2.42,4.14,1.79,7.99-2.55,16.36-.75,24.5-.07,8.76,.74,17.23-.8,25.91-1.73,15.7-1.68,31.26,1.94,46.93,1.75,1.4-2.41,2.89-4.77,4.46-7.07,1.98-4.92,4.24-9.72,7.09-14.18,4.04-6.32,10-11.17,14.04-17.47,4.53-7.05,5.51-15.76,12.04-21.55,6.01-5.33,19.21-16.56,26.91-18.59,5.01-1.32,159.13-6.55,171.48-9.78,9.6-2.51,16.21-8.61,23.21-15.6,23.41-23.39,40.13-65.34,38.31-72.62,2.03-1.35,2.79-4.76,.06-6.41Z"/><path class="cls-41" d="M819.47,396.74c-.41-.17-3.17-1.99-4.66-1.33-14.59,5.68-21.01,21.02-30.38,32.52-5.61,6.88-11.67,13.41-17.56,20.06-5.99,6.75-16.81,16.32-22.79,23.07-.16,.18-.19,.38-.16,.56,.01,.25,.15,.5,.44,.62,4.15,1.58,33.02,23.66,39.18,35.24,.32,.59,1.09,.3,1.2-.23,2.46,.06,3.96-2.25,4.87-4.33,1.59-3.67,2.83-7.53,4.22-11.27,3.06-8.24,6.08-16.5,8.97-24.8,5.72-16.44,10.93-33.09,14.85-50.06,1.03-4.46,2.43-9.15,2.72-13.73,.2-3.18,2.19-5.05-.91-6.32Z"/><path class="cls-6" d="M776.07,489.81c-1.21,2.37,2.94-.62,1.59,1.69l-2.02,4.47c-.13,.04-.25,.13-.34,.27-.58,.91-.81,1.95-.7,2.99-.32-.16-.64-.32-.98-.45-.79-.3-1.13,.97-.35,1.27,2.13,.81,4.61,3.34,6.94,1.61,2.18-1.62,3.12-3.14,3.36-5.62,.64-6.56,3.71-16.44,6.46-22.96-.75,1.13-1.52,2.26-2.33,3.37-1.98,2.74-6.27,11.21-11.63,13.36Z"/><path class="cls-5" d="M788.16,502.67c-7.76-13.21-18.37-24.61-30.75-33.61-2.18-1.59-5.95-5.25-8.59-4.7-1.71,.36-13.04,10.35-14.04,14.06-1.03,3.84,19.44,13.61,41.77,36.79,1.32,1.37,12.09-9.2,11.98-11.37-.02-.37-.13-.76-.37-1.16Z"/><path class="cls-44" d="M875.76,598.19c-.37-.1-.74-.14-1.08-.14-32.58-6.9-64.89-14.98-96.88-24.24-1.05-.3-1.96-.16-2.69,.25-1.6,.04-2.88,1.19-3.48,2.73-2.76,7.09-5.52,14.18-8.28,21.27-.73,1.87,97.38,33.26,100.79,30.88,6.61-4.61,10.85-17.59,14.22-26.19,.73-1.87-.8-4.08-2.6-4.57Z"/><path class="cls-29" d="M833.89,622.92c.45-1.08,.91-2.16,1.32-3.25,1.3-3.43,2.49-6.91,3.81-10.34,1.85-4.8,4.09-9.43,6.23-14.11-2.19-.69-4.7-1.37-6.5-.15-.4,.27-.13,.87,.25,.83-4.22,8.09-7.52,16.59-9.86,25.39,1.56,.59,3.15,1.13,4.74,1.63Z"/><path class="cls-29" d="M783.99,581.81c-1.49-.51-2.98-1.01-4.48-1.51-2.45,5.19-4.74,10.44-6.86,15.77-.63,1.6-1.3,3.18-1.96,4.77,1.57,.73,3.13,1.43,4.76,2.18,1.08-3.03,2.05-5.51,3.33-8.48,1.8-4.17,3.53-8.49,5.67-12.57-.15-.05-.3-.11-.45-.16Z"/><path class="cls-35" d="M951.36,344.31c-1.15-4.78-3.74-10.59-8.53-8.49-1.2-2.11,2.02-5.1,1.76-5.69-3.89-8.88-16.11-9.82-23.86-5.04-4.26,2.63-8.6,5.5-12.56,8.54-4.26,3.28-4.73,7.85-3.9,12.74,1.38,8.06,4.91,16.15,12.66,19.72,4.92,2.26,12.49,1.93,17.7,.96,4.51-.85,9.62-2,13.03-5.17,4.54-4.21,4.91-12.48,3.68-17.58Z"/><path class="cls-3" d="M929.1,402.51c-.52-.75-1.31-1.34-2.07-1.89,.11,.08,.9-.63,1-.73-1.83-2.55-5.93-4.5-8.64-6.06-3.47-2-7.09-3.73-10.82-5.2-7.05-2.78-14.65-4.77-22.27-4.77-9.83,0-44.4,5.15-46.38,11.27-2.05,6.34,5.49,12.83,10.18,15.66,5.46,3.29,11.76,5.68,17.81,7.64,6.81,2.2,13.94,3.29,21.06,2.24,6.19-.91,12.4-3.11,18.22-5.36,4.34-1.68,8.63-3.7,12.3-6.59,3.08-2.42,5.45-6.7,10.05-5.29-.11-.33-.26-.64-.46-.92Z"/><path class="cls-41" d="M965.84,414.29c-1.2-8.93-7.97-18.32-16.82-19.66-5.73-.87-11.39-1.83-17.13-2.68-9.9-1.48-19.84-2.65-29.8-3.52-.83-.07-6.78,6.98-7.87,7.88-2.85,2.36-5.97,4.79-9.14,6.72-7.37,4.49-15.85,5.63-22.61,11.36-.8,.67-1.59,1.4-2.57,1.75-6.47,2.33-4.63-12.36-4.2-15.34,.74-5.08,3.32-9.92,6.18-14.22-2.49-.01-4.98,0-7.48,.02-.61,0-30.82,2.79-43.42,11.11-2.51,1.48-4.61,3.67-6.15,6.36-2.99,5.22-3.49,11.46-3.92,17.36-.78,10.65-1.03,21.39-2.69,31.93-.73,4.63-4.07,11.05-5.89,15.74-2.37,6.12-5.29,12.07-6.92,18.43-3.19,12.45-4.06,25.12-5.39,37.85-1.5,14.47-12.18,34.65-16.59,46.66-2.07,5.64,.18,7.23,5.58,10.5,1.35,.81,3.45,1.03,4.94,1.44,3.91,1.08,7.83,2.13,11.74,3.19,10.48,2.83,20.96,5.65,31.42,8.54,11.11,3.08,22.48,6.59,33.93,8.86,10.19,2.02,24.33,5.71,33.08-1.75,2.62-2.24,5.03-4.73,7.33-7.29,6.67-7.43,12.53-15.59,17.97-23.95,15.41-23.68,27.54-49.68,36.02-76.62,2.03-6.44,3.83-12.95,5.4-19.51,4.67-19.55,17.75-40.56,14.99-61.14Z"/><path class="cls-5" d="M856.77,390.91c-14.04-.14-26.31,.85-40.08,3.63-.55,.11-2.05,1.3-1.5,1.19,13.69-2.76,27.62-4.08,41.58-3.94,.56,0,.56-.87,0-.87Z"/><path class="cls-21" d="M848.9,292.54s-.05,.03-.06,.03c-.64,.32-1.36,2.01-1.74,2.63-3.31,5.41-9.22,23.85,1.57,33.18,8.31,7.19,4.79,5.5,4.82,5.11,.1-1.33,.09-2.68,.01-4.01-.17-2.98-.65-5.94-1.25-8.85-1.04-5.04-2.47-9.99-4.05-14.88-.18-.56-.92-1.91-.79-2.51,.79-3.49,1.57-6.98,2.36-10.47,.2-.9-.6-.39-.88-.23Z"/><path class="cls-5" d="M858.86,414.5c1.35-12.03,7.44-28.86,8.79-33.19,.25-.8-5.6,2.07-6.3,2.55-5.48,3.77-21.59,26.11-27.14,38.49-.25,.57,.02,1.2,.64,1.15,3.11-.22,23.67-5.94,24.01-9.01Z"/><path class="cls-3" d="M907.67,387.12c-3.21-21.64-2.9-43.78,1-65.32,.41-2.27-.59-4.61-2.9-5.33-1.34-.74-3.04-.91-4.28,.03-6.68,5.09-13.36,10.18-20.03,15.27-3.22,2.46-6.45,4.91-9.67,7.37-3.1,2.36-6.27,4.66-8.71,7.74-.74,.93-1.19,2.04-1.23,3.13-.48,.96-.62,2.1-.42,3.24,3.17,17.5,4.57,34.34,3.08,44.97-1.23,8.77,7.52,9.99,19.74,8.43,7.87-6.44,15.21-13.54,23.41-19.53Z"/><path class="cls-3" d="M934.73,262.98c-3.08-6.9-8.86-12.56-15.35-16.29-4.57-2.63-9.57-4.51-14.75-5.54-6.97-1.39-12.7-2.13-19.12,1.42-14.08,7.78-25.97,17.74-32.98,32.53-5.67,11.97-7.26,25.62-7.45,38.72-.18,12.86-.09,29.78,5.41,41.82,6.91,15.14,21.39,8.48,35.41,3.43,15.8-5.69,14.42-8.89,21.63-17.08,1.34-1.53,5.35-10.57,4.87-12.06,1.57-7.94,10.27-11.66,12.85-19.33,2.71-8.04,6.35-15.6,9.56-23.43,3.27-7.97,3.45-16.27-.08-24.18Z"/><path class="cls-33" d="M892.33,300.65c-2.45,.13-3.95,5.42-4.36,7.46-.29,1.42-.32,5.65,2.04,4.75,2.88-1.09,4.23-6.62,4.34-9.51,.05-1.3-.62-2.78-2.02-2.7Z"/><path class="cls-33" d="M861.6,294.2c-2.45,.13-3.95,5.42-4.36,7.46-.29,1.42-.32,5.65,2.04,4.75,2.88-1.09,4.23-6.62,4.34-9.51,.05-1.3-.62-2.78-2.02-2.7Z"/><path class="cls-28" d="M866.54,317.99c.46-1.52,.95-3.03,1.47-4.53,1.08-3.14,2.28-6.24,3.58-9.3,.23-.55-.66-.79-.89-.25-2.08,4.92-3.95,9.95-5.42,15.08-.99,3.47,.31,5.16,3.86,5.38,.59,.04,.6-.89,0-.92-1.67-.1-3.46-.21-3.3-3.05,.04-.72,.48-1.71,.69-2.39Z"/><path class="cls-28" d="M875.74,321.98c-1.46-.08-2.92-.16-4.37-.24-.59-.03-.6,.89,0,.92l4.37,.24c.59,.03,.6-.89,0-.92Z"/><path class="cls-3" d="M922.53,307.28c-2.66-.68-5.88,.33-8.03,2.38-4.22,4.02-13.15,20.49-3.16,23.2,1.4,.38,2.74,.25,4.02-.22,4.19-1.1,7.81-6.44,9.44-9.96,1.54-3.32,3.16-8.11,1.75-11.73-.8-2.07-2.29-3.23-4.02-3.68Z"/><path class="cls-35" d="M906.68,296.15c-1.64-2.91-4.37-5.33-7.37-6.79-2.67-1.31-7.22-2.41-9.57,.13-.75,.81-.98,1.87-.65,2.81,.11,1.75,2.42,2.36,4.09,2.84,1.36,.39,2.73,.71,4.11,.96,1.04,.25,2.08,.47,3.13,.66,1.74,.32,3.65,.83,5.42,.46,.5,.24,1.21-.44,.85-1.08Z"/><path class="cls-35" d="M873.37,284.96c-.05-1.62-1.82-2.79-3.19-3.38-3.48-1.5-8.27-1.22-11.67,.4-1,.48-3.67,2.31-1.95,3.43,1.29,.84,15.86,4.22,16.74,.19,.05-.22,.08-.44,.07-.64Z"/><path class="cls-35" d="M952.44,273.64c-2.52-8.54-6.85-16.45-14.47-21.64-24.04-16.37-62.05-16.85-83.79,3.8-2.09,1.99-4.01,4.15-5.77,6.42-4.62,5.97-8.07,12.62-11.48,19.26-3.28,6.39-6.66,12.54-8.89,19.43-.06,.19-.08,.37-.06,.53-1.05,.87,.2,2.74,1.61,2.04,2.55-1.26,5.55-2.67,8.15-.77,.19,.14,.38,.21,.56,.23,.51,.35,1.23,.42,1.67-.12,.86-1.06,4.59-1.81,7.28-7.7,3.75-8.19,7.9-13.78,14.4-20.23,3.92-3.89,9.56-8.93,14.39-11.63,1.44-.81,10.19-6.62,11.09-3.29,.37,1.35-.46,2.88-.74,4.2-.35,1.66-.52,3.37-.58,5.07-.19,5.21,3.62,9.01,6.16,13.66,2.01,3.68,9.14,9.09,11.37,12.68,5.78,9.31,7.5,37.13,8.33,40.73,.48,2.1,1.03,4.22,2.16,6.07,4.33,7.14,16.05,5.75,22.95,3.8,3.61-1.02,6.19-2.35,7.66-5.85,1.36-3.25-5,4.09-2.77,1.45,5.84-6.94,5.58-21.85,7.45-26.81,1.7-4.5,3.49-8.93,4.46-13.65,1.89-9.14,1.51-18.71-1.14-27.67Z"/><path class="cls-50" d="M939.48,342.7c-4.51-.88-7.82-5.26-9.99-9.03-2.12-3.69-3.51-7.74-4.73-11.8-.17-.57-1.06-.33-.89,.25,1.39,4.59,2.99,9.2,5.58,13.27,1.89,2.98,4.47,6.14,7.81,7.58-4.2,2.16-9.77,4.05-14.4,2.49-4.81-1.62-7.45-6.42-9.73-10.6-.28-.52-1.08-.06-.8,.47,2.4,4.4,5.22,9.33,10.28,11.02,5.07,1.69,11.08-.44,15.56-2.82,.08-.04,.13-.1,.17-.16,.29,.09,.59,.17,.89,.23,.58,.11,.83-.77,.25-.89Z"/><path class="cls-50" d="M944.21,339.44c-4-1.85-5.58-7.29-6.43-11.26-.12-.58-1.01-.33-.89,.25,.9,4.19,2.63,9.86,6.85,11.81,.54,.25,1-.55,.47-.8Z"/><path class="cls-50" d="M886.19,251.19c-12.39,.46-21.79,9.26-29.47,18.12-8.22,9.47-15.06,20.07-20.4,31.4-.25,.53,.54,1,.8,.47,5.08-10.78,11.5-20.88,19.2-29.98,7.7-9.1,17.2-18.62,29.88-19.09,.59-.02,.59-.94,0-.92Z"/><path class="cls-50" d="M916.32,289.44c-.38-5.52-.27-11.08-.89-16.58-.82-7.36-4.19-19.76-13.72-19.38-.59,.02-.59,.95,0,.92,5.54-.22,9.03,4.98,10.8,9.59,1.75,4.56,2.18,9.51,2.4,14.34,.46,10.02,1.04,19.89,2.85,29.78,.11,.58,1,.34,.89-.25-1.12-6.1-1.92-12.25-2.34-18.43Z"/><path class="cls-3" d="M1015.94,548.48c-.67-7.65-2.9-14.86-5.15-21.96-2.32-7.33-4.75-14.6-7.26-21.83-2.72-7.84-5.51-15.64-8.32-23.43,.69-2.09-.96-4.87-2.77-3.28-5.7,4.99-11.61,9.6-17.73,13.76-4.96,3.37-11.46,6.06-14.25,12.66-.04,.1-.08,.2-.11,.29-.68,.71-1.07,1.89-.6,3.16,4.99,13.4,10.61,26.72,17.59,38.7,5,8.58,16.36,29.18,28.86,25.72,9.31-2.57,10.4-15.91,9.71-23.78Z"/><path class="cls-28" d="M981.86,505.96c-3.74,2.29-6.75,6.09-10.71,7.98-2.91,1.39-5.79,.81-7.66,3.52-.32,.46,1.28,3.15,1.28,3.15,.02-.03-.41-.68-.39-.71,2.23-.74,15.75-5.2,17.03-6.53,1.2-1.25,1.44-3.56,1.95-5.16,.11-.36-1.18-2.44-1.5-2.24Z"/><path class="cls-50" d="M929.49,260.01c-.33-.49-1.13-.03-.8,.47,4.73,7.08,7.02,15.36,6.61,23.86-.03,.59,.89,.59,.92,0,.42-8.64-1.93-17.13-6.73-24.32Z"/><path class="cls-52" d="M883.77,359.61l-5.27,2.28,5.27-2.28Z"/><path class="cls-5" d="M802,422.39c-.75-.03-1.52,1.69-1.71,2.27-.64,2.01-.73,4.21-1.01,6.29-.57,4.28-.84,8.59-.85,12.9,0,.14,.05,.25,.14,.32-.77,5.38-1.48,10.79-3.4,15.89-4.29,11.4-9.45,22.48-12.26,34.39-.13,.55,.71,.78,.84,.23,2.82-11.9,7.96-22.99,12.26-34.39,2.19-5.8,2.78-12.01,3.72-18.11,.54-3.42,1.06-6.85,1.59-10.27,.3-1.92,.94-3.76,1.25-5.67,.13-.82,.44-2.51,.07-3.26-.2-.41-.42-.58-.65-.59Z"/><path class="cls-28" d="M890.64,356.92c-.64,.37-1.28,.73-1.93,1.08-1.52,.63-4.93,1.63-5.15,1.72-8.63,3.74-20.04,4.88-20.04,4.88-.49,0,.1,2.37,.12,3.16,.01,.41,5.21-.47,7.42-1.27,2.37-.86,4.73-1.73,7.08-2.65,3.77-1.49,12.98-5.98,12.97-6.13,.52-.3,.05-1.1-.46-.8Z"/><path class="cls-50" d="M945.2,343.51c-.05-.59-.97-.59-.92,0,.51,5.75-3.74,10.47-9.52,10.47-.59,0-.59,.92,0,.92,3.27,0,6.12-1.4,8.02-3.62-.74,2.29-1.67,4.55-3.39,6.26-2.32,2.32-5.68,3.18-8.88,3.1-6.81-.17-13.72-4.72-13.73-12.08,0-.59-.92-.59-.92,0,.02,7.61,6.86,12.49,13.96,12.97,3.2,.21,6.61-.46,9.2-2.44,3-2.3,4.19-5.98,5.24-9.46,.05-.18,0-.32-.11-.42,.84-1.68,1.24-3.64,1.06-5.71Z"/><path class="cls-5" d="M907.78,384.13c-14.58,9.83-35,22.41-50.35,31-1.66,.93,14.49,21.6,16.97,19.2,1.77-1.71,3.5-3.46,5.22-5.22,4.8-4.91,32.79-34.36,34.17-39.5,.29-1.07-4.42-5.21-6.01-5.48Z"/><path class="cls-28" d="M907.08,341.76c-3.28,7.18-9.67,12.03-16.69,15.27-4.01,1.85-8.23,3.21-12.44,4.52-4.18,1.3-8.36,2.62-12.68,3.35-.58,.1-.34,.99,.25,.89,4.73-.8,9.31-2.29,13.88-3.73,4.15-1.31,8.29-2.71,12.22-4.6,6.85-3.28,13.06-8.21,16.27-15.24,.25-.54-.55-1.01-.8-.47Z"/><path class="cls-41" d="M997.77,470.95c-.11-.11-.23-.21-.34-.3-6.73-13.56-13.46-27.13-20.18-40.69-5.88-11.85-12.3-31.16-25.13-34.11-1.97-.45-5.49,.63-6.56,1.79-.38-.03,4.52-.83,4.06-.66-15.79,5.85-25.07,20.6-29.73,36.11-2.59,8.61-4.83,18.05-3.14,27.04,1.59,8.44,6.67,16.34,11.35,23.39,5.41,8.15,11.64,15.73,18.57,22.63,1.38,1.37,3.13,1.01,4.22-.04,3.87-.32,7.48-1.93,10.78-4,4.16-2.6,8.11-5.57,12.07-8.45,7.87-5.71,15.59-11.62,23.17-17.71,.14-.1,.28-.21,.41-.32,.15-.12,.3-.23,.44-.35,1.3-1.05,1.07-3.24,0-4.33Z"/><path class="cls-5" d="M991.35,473.51c-4.5-7.29-8.69-14.76-12.53-22.42-3.82-7.61-6.77-15.74-10.98-23.13-2.07-3.63-4.62-6.97-6.71-10.59-2.03-3.5-3.61-7.22-5.49-10.8-1.45-2.75-3.07-5.61-5.56-7.56-3.02-2.35-7.08-2.66-10.73-3.22-9.74-1.52-19.58-2.33-29.43-2.47-.56,0-.56,.87,0,.87,8.64,.12,17.26,.76,25.82,1.94,4.01,.55,8.95,.72,12.54,2.73,3.24,1.81,5.14,5.31,6.79,8.49,1.8,3.47,3.35,7.07,5.31,10.45,2.03,3.5,4.48,6.74,6.52,10.25,3.99,6.88,6.74,14.49,10.26,21.62,4.09,8.3,8.59,16.4,13.45,24.28,.3,.48,1.05,.04,.76-.44Z"/><path class="cls-5" d="M1008.83,481.15c-.02-.49-.16-1.01-.48-1.54-3.15-5.31-6.54-10.47-10.17-15.47-.96-1.31-2.52-1.98-4.04-1.39-.75,0-1.52,.28-2.21,.98-14.9,15.18-32.13,27.82-51.06,37.51-6.73-8.56-12.7-17.77-17.52-27.53-2.9-5.88-5.28-12.16-5.82-18.75-.58-7.09,.97-14.13,2.5-21.01,0-.04,0-.07,0-.11,.02-.05,.03-.1,.03-.16-.02-.86-.67-1.06-1.38-.67-1.73,.95-2.21,4.5-2.51,6.15-.6,3.27-.4,6.71-.17,10.01,.57,8.3,2.35,16.04,5.91,23.58,4.86,10.28,11.13,19.96,18.17,28.91-.04,.02-.08,.04-.13,.07-.64,.33-1.08,.76-1.34,1.25-.73,.93-1.09,2.11-.97,3.51,.2,2.24,1.86,4.11,3.16,5.82,1.79,2.36,3.71,4.62,5.75,6.77,1.81,1.91,3.86,4.56,6.53,5.21,1.89,.46,3.44-.62,5.05-1.45,1.75-.91,3.48-1.84,5.19-2.81,3.43-1.93,6.8-3.96,10.1-6.1,6.6-4.28,12.92-8.98,18.92-14.07,5.58-4.73,10.89-9.79,15.87-15.15,1.05-1.13,1.1-2.46,.6-3.55Z"/><path class="cls-5" d="M858.8,418.09c-4.91,11.43-9.82,22.85-14.74,34.28-4.6,10.7-10.22,21.49-12.85,32.89-2.64,11.42-2.65,23.31-4.85,34.83-2.19,11.44-5.36,22.65-8.48,33.86-3.49,12.52-6.9,25.08-8.91,37.94-.09,.55,.76,.79,.84,.23,3.57-22.79,11.6-44.53,16.43-67.04,1.14-5.32,2.1-10.68,2.78-16.09,.76-6.05,1.09-12.15,2.03-18.17,1.87-12.01,7.31-22.97,12.07-34.03,5.48-12.76,10.97-25.51,16.45-38.27,.22-.51-.53-.96-.76-.44Z"/><path class="cls-29" d="M866.46,626c-9.25,1.68-17.92,.14-26.82-2.47-8.69-2.55-17.36-5.22-25.98-8-8.63-2.77-17.22-5.65-25.78-8.64-4.28-1.49-8.55-3.01-12.81-4.56-3.82-1.39-7.85-2.8-10.31-6.23-.32-.45-1.08-.02-.76,.44,3.38,4.73,9.64,6.22,14.82,8.08,7.2,2.58,14.42,5.09,21.67,7.52,14.27,4.78,28.64,9.53,43.18,13.46,7.6,2.05,15.23,2.67,23.01,1.25,.55-.1,.32-.94-.23-.84Z"/><path class="cls-5" d="M862.24,450.19c-.73-.67-1.62-1.09-2.63-1.09h-.22c-.51-.02-.99,.09-1.43,.32-.46,.15-.86,.41-1.2,.77-.36,.34-.62,.74-.77,1.2-.23,.44-.34,.92-.32,1.43,.04,.96,.36,1.96,1.09,2.63,.73,.67,1.62,1.09,2.63,1.09h.22c.51,.02,.99-.09,1.43-.32,.46-.15,.86-.41,1.2-.77,.36-.34,.62-.74,.77-1.2,.23-.44,.34-.92,.32-1.43-.04-.96-.36-1.96-1.09-2.63Z"/><path class="cls-5" d="M848.46,478.41c-4.78,0-4.79,7.44,0,7.44s4.79-7.44,0-7.44Z"/><path class="cls-5" d="M841.9,518.86c-.73-.67-1.62-1.09-2.63-1.09h-.22c-.51-.02-.99,.09-1.43,.32-.46,.15-.86,.41-1.2,.77-.36,.34-.62,.74-.77,1.2-.23,.44-.34,.92-.32,1.43,.04,.96,.36,1.96,1.09,2.63,.73,.67,1.62,1.09,2.63,1.09h.22c.51,.02,.99-.09,1.43-.32,.46-.15,.86-.41,1.2-.77,.36-.34,.62-.74,.77-1.2,.23-.44,.34-.92,.32-1.43-.04-.96-.36-1.96-1.09-2.63Z"/><path class="cls-34" d="M808.66,595.54c-.14-.43-.38-.8-.72-1.12-.66-.61-1.53-1.06-2.45-1.02-.92,.04-1.79,.35-2.45,1.02l-.1,.1c-.34,.31-.58,.69-.72,1.12-.22,.41-.32,.86-.3,1.34-.02,.48,.08,.92,.3,1.34,.14,.43,.38,.8,.72,1.12,.66,.61,1.53,1.06,2.45,1.02,.92-.04,1.79-.35,2.45-1.02l.1-.1c.34-.31,.58-.69,.72-1.12,.22-.41,.32-.86,.3-1.34,.02-.48-.08-.92-.3-1.34Z"/><path class="cls-34" d="M805.14,604.73c-.14-.43-.38-.8-.72-1.12-.66-.61-1.53-1.06-2.45-1.02-.92,.04-1.79,.35-2.45,1.02l-.1,.1c-.34,.31-.58,.69-.72,1.12-.22,.41-.32,.86-.3,1.34-.02,.48,.08,.92,.3,1.34,.14,.43,.38,.8,.72,1.12,.66,.61,1.53,1.06,2.45,1.02,.92-.04,1.79-.35,2.45-1.02l.1-.1c.34-.31,.58-.69,.72-1.12,.22-.41,.32-.86,.3-1.34,.02-.48-.08-.92-.3-1.34Z"/><path class="cls-29" d="M582.76,678.1c-17.29,30.64-34.59,61.28-50.72,92.55-4.55,8.82-9.01,17.7-13.35,26.62-.25,.5,.51,.95,.76,.44,15.38-31.64,32.25-62.53,49.45-93.21,4.86-8.66,9.74-17.31,14.62-25.96,.28-.49-.48-.93-.76-.44Z"/><path class="cls-29" d="M585.47,694.58c-2.59,16.39-6.03,32.64-10.29,48.67-.14,.54,.7,.78,.84,.23,4.26-16.04,7.69-32.28,10.29-48.67,.09-.55-.76-.79-.84-.23Z"/><path class="cls-29" d="M738.9,633.32c-27.99,1.78-55.95,3.99-83.74,7.8-9.6,1.32-19.17,2.82-28.7,4.56-9.06,1.66-18.14,3.55-26.7,7.02-10.39,4.21-19.71,10.52-28.13,17.87-.02,.02-.06,.03-.09,.03-.09,0-.18,.04-.27,.11-8.19,7.03-15.74,14.73-23.2,22.52-6.93,7.23-14.04,14.4-19.48,22.86,0,0,0,.01-.01,.03-.08,.14-.07,.28,0,.38,.34,.59,.48,2.29,1.25,2.52,.66,.19,1.79-1.7,2.23-2.25,1.52-1.87,3.04-3.75,4.54-5.64,3.03-3.79,6.04-7.59,9.08-11.36,6.07-7.51,12.31-14.91,19.15-21.74,6.78-6.77,14.17-12.97,22.36-17.97,2.58-1.57,5.22-3.03,7.94-4.34,8.18-3.97,16.95-6.31,25.83-8.09,9.16-1.84,18.4-3.33,27.65-4.69,18.86-2.77,37.82-4.75,56.81-6.32,11.23-.93,22.46-1.71,33.7-2.43,.03,0,.05-.01,.08-.03,.37-.29,.15-.86-.3-.83Z"/><path class="cls-29" d="M568.75,792.59c3.74-5.23,8.08-9.67,12.94-13.86,2.41-2.08,4.86-4.23,6.6-6.93,1.8-2.81,2.89-5.95,4.04-9.06,2.34-6.34,5.21-12.49,9.31-17.9,1.7-2.25,3.32-4.6,5.08-6.82-.03-.04-.05-.08-.08-.12-5.48,3.68-9.95,8.64-12.8,14.63-1.57,3.3-2.55,6.89-4.33,10.09-1.81,3.24-4.55,5.69-7.45,7.95-5.53,4.32-10.87,8.58-15.48,13.93-4.66,5.42-8.57,11.4-11.64,17.86-.6,1.26,.54,2.46,1.55,2.41,.13,.04,.26,.08,.41,.09,1.39,.11,2.76,.27,4.12,.49,2.34-4.4,4.84-8.71,7.73-12.76Z"/><path class="cls-3" d="M991.42,407.23c-2.11-2.54-2.09-5.31-4.7-7.35-3.39-2.64-7.23-4.79-11.5-4.37,.31-.6,.65-1.19,1.03-1.76,.9-1.34-1.24-2.6-2.14-1.27-5.13,7.63-3.95,17.89-3.71,26.63,.31,11.02,.89,22.03,1.69,33.03,1.58,21.57,4.02,43.06,6.91,64.48,1.66,12.3,3.47,24.58,5.35,36.85,.12,.81,.8,1.03,1.41,.85,3.32,3.62,6.98,6.89,10.95,9.75,2.15,1.55,4.47,2.8,6.67,4.28,1.18,.79-1.31,1.06-2.62,1.07,1.07,.7,4.79,3.39,5.47,3.16,15.23-4.98,14.12-29.16,8.65-58.27-4.45-17.71-23.57-88.73-23.46-107.09Z"/><path class="cls-3" d="M1051.11,321.03c-3.04,.31-5.34,2.68-7.1,4.98-.87,1.14-1.65,2.36-2.49,3.51-.78,1.07-1.75,3.34-2.81,4.04-.22,.15-.44,.3-.66,.45,1.05-2.28,2.14-4.54,3.28-6.78,2.29-4.51-7.23-3-9.53,1.53-2.53,4.98-2.13,4.55-4.27,9.7,.27-5.97-6.84-1.21-8.26,3.97-2.87,10.49-2.29,9-4.35,15.68-1.29,4.2-16.25,17.38-18.69,12.2-.31-1.06-.22-2.26,.44-3.42,2.7-4.71,3.98-7.1,6.37-11.96,1.6-3.86,3.24-7.79,3.84-11.95,.28-1.91,.48-4.24-.15-6.11-.4-1.2-3.55-2.88-4.53-1.03-7.16,13.4-13.32,26.51-21.55,39.29-4.19,6.51-9.97,12.92-10.72,20.91-.39,4.12,.04,8.35,.21,12.47l.55,13.64c0,.25,.07,.46,.14,.66-.34,2.34,2.92,4.71,5.31,2.66,1.94-1.66,3.88-3.33,5.82-4.99,.86-.74,1.72-1.48,2.59-2.22,.54-.46,1.08-.92,1.61-1.38l.31-.11c1.56,.14,4.9-3.93,5.16-5.84,1.95-14.17,11.09-18.68,19.65-28.12,1.86-1.8,3.75-3.56,5.71-5.25,5.35-4.62,11.39-8.33,14.69-14.81,1.56-3.06,2.78-6.28,4.31-9.35,1.66-3.33,3.51-6.55,5.48-9.7,3.95-6.32,9.23-14.25,13.65-20.25,1.26-1.71-1.17-2.69-4.01-2.41Z"/><path class="cls-28" d="M1044.51,336.93c-4.85-.22-8.85,2.68-11.68,6.4-3.37,4.42-5.79,9.64-8.65,14.4-1.54,2.57-3.06,5.17-4.75,7.65-2.02,2.96-4.68,4.34-7.79,5.92-5.56,2.83-11.05,5.8-16.46,8.9-.49,.28-.05,1.04,.44,.76,5.17-2.96,10.4-5.81,15.7-8.52,2.26-1.16,4.74-2.15,6.63-3.9,1.83-1.71,3.07-4.01,4.38-6.11,2.95-4.75,5.7-9.62,8.51-14.45,2.96-5.08,7.15-10.46,13.66-10.16,.56,.03,.56-.85,0-.87Z"/><path class="cls-28" d="M978.74,510.98c-.06-.55-.93-.56-.87,0,1.21,11.98,2.9,23.91,5.08,35.75,.1,.55,.94,.32,.84-.23-2.16-11.77-3.85-23.61-5.05-35.52Z"/><path class="cls-3" d="M733.02,540.06c-1.04-10.18-9.31-21.85-9.94-22.14-.86-.81-3.55-.64-5.65,.61-1.15,.68-2.44,1.06-3.76,1.25-10.07,1.39-34.99,1.84-41.62,1.64-8.28-.25-60.94-5.25-68.23-11.38-1.08-1.18-17.9,15.85-15.27,17.47,4.1,2.52,34.02,7.94,44.13,10.3,20.87,4.86,41.97,8.69,63.21,11.52,11.49,1.53,31.41,3.34,37.49-1.26,3.24-2.45-.43-3.58-.32-3.62,1.65-4.54,.09-3.09-.04-4.39Z"/><path class="cls-3" d="M604.3,510.49c-9.08-8.24-12.88-24.5-19.17-37.74-2.85-6-5.2-12.31-11.56-15.38-2.35-1.13-3.69-1.76-4.8-2.19-.16-.07-.31-.13-.43-.16-1.63-.59-2.97-.81-6.83-1.79-2.8-.72-4.88-1.17-6.73-1.51-8.38-1.9-10.14-2.18-19.62-5.34-4.25-1.42-3.55,5.08,.5,7.05,11.07,5.39,12.72,4.86,24.61,7.51-10.76,3.93-13.31,6.01-24.3,9.26-4.31,1.27,.98,6.26,5.47,5.71,2.41-.3,1.52-.51,4.07-1.31,.16,.01,.32,.02,.49,0,5.03-.52,5.05-1.44,6.63-.73,.06,.42,.21,.84,.46,1.28,2.72,4.67,5.49,9.28,8.75,13.59,3.23,4.28,6.73,8.36,9.88,12.7,5.86,8.09,12.57,25.18,16.85,26.07,.51,.11,3.39-.41,6.21-.94,4.6-3.94,8.09-9.22,10.07-14.92-.53-1.17-.26-.92-.53-1.17Zm-33.3-23.91c-3.83-4.67-7.49-9.5-11.12-14.33,.06-.02,.13-.03,.19-.05,4.23-1.06,8.7,.67,11.03,4.36l.05,.07c2.16,3.44,1.46,7.03,1.77,11.08-.7-.12-1.39-.48-1.92-1.13Z"/><path class="cls-28" d="M558.78,471.11c-1.18-1.23-3.44-3.24-5.2-1.96-1.54,1.11-1.69,3.31-.94,4.91,.24,.51,.99,.07,.76-.44-.56-1.2-.47-3.48,1.09-3.91,1.3-.36,2.85,1.16,3.68,2.02,.39,.41,1.01-.21,.62-.62Z"/><path class="cls-28" d="M580.54,479.08c-2.36-5.35-6.33-10.4-10.12-14.8-1.47-1.71-3.08-3.24-5.18-4.14-2.3-.98-4.83-1.18-7.28-1.52-5.19-.71-13.66-2.42-14.99-8.53-.12-.55-.95-.26-.83,.29,.86,3.94,4.59,6.02,8.11,7.29,2.33,.84,4.73,1.4,7.18,1.76,2.6,.38,5.31,.53,7.73,1.63,2.51,1.15,4.27,3.33,5.96,5.44,1.8,2.24,3.51,4.57,5.11,6.96,2.97,4.44,7.61,11.85,2.06,16.29-.44,.35,.05,1.08,.49,.73,3.53-2.82,3.45-7.56,1.76-11.4Z"/><path class="cls-29" d="M818.02,643.86c-22.66-6.5-46.12-9.92-69.7-10.16-.56,0-.56,.87,0,.87,23.5,.25,46.87,3.66,69.46,10.13,.54,.16,.77-.69,.23-.84Z"/><path class="cls-34" d="M786.58,650.64c-6.34-3.07-12.68-6.14-19.01-9.21-.5-.24-.95,.51-.44,.76,6.34,3.07,12.68,6.14,19.01,9.21,.5,.24,.95-.51,.44-.76Z"/><path class="cls-36" d="M779.58,655.1c-.06-.55-.94-.56-.87,0,.37,3.4,.32,6.78-.17,10.17-.08,.55,.76,.79,.84,.23,.5-3.47,.58-6.91,.21-10.4Z"/><path class="cls-36" d="M783.17,656.62c-.07-.55-.95-.56-.87,0,.34,2.67,.28,5.31-.19,7.97-.1,.55,.75,.79,.84,.23,.49-2.73,.57-5.45,.22-8.2Z"/><path class="cls-54" d="M768.7,741.26c-.78,0-1.57-.1-2.35-.32-4.65-1.3-7.37-6.12-6.08-10.77l36.02-129.21c5.64-20.24,24.44-33.97,45.74-33.41l155.14,4.33c4.83,.13,8.63,4.16,8.5,8.99-.13,4.83-4.16,8.63-8.99,8.5l-155.13-4.33c-13.24-.35-24.93,8.13-28.42,20.62l-36.02,129.21c-1.08,3.87-4.59,6.4-8.42,6.4Z"/><g><path class="cls-29" d="M780,648.54c-2.59-7.5-5.17-15-7.77-22.49-2.14-6.17-1.36-14.82-6.67-18.88-1.93-1.48-8.22,.47-10.28,2.36-1.73,1.6-1.9,4.4-.91,6.43,1.28,2.63,3.95,4.28,5.49,6.75,1.62,2.6,2.69,5.51,4.33,8.09,2,3.15,5.05,5.46,6.92,8.69,2.01,3.46,2.87,7.44,3.74,11.3,.43,1.9,3,1.46,3.37-.12,1.1,.06,2.24-.8,1.78-2.13Z"/><path class="cls-29" d="M670.98,622.06c3.94-.28,7.49,.78,11.05,2.36,1.05,.47,2.09,.91,3.12,1.32,2.57,.73,5.12,1.54,7.66,2.31,.25,.05,.49,.1,.75,.15,4.69,.82,9.45,1.23,14.03,2.59,2.23,.66,4.34,1.48,6.63,1.95,1.88,.39,3.76,.72,5.58,1.34-1.44-3.54-4.17-6.27-7.76-7.96-5.66-2.66-11.76-4.87-17.76-6.59-5.85-1.68-11.99-2.66-18.09-2.12-2.72,.24-5.42,.78-7.99,1.69-1.79,.63-3.68,1.37-4.2,3.36-.26,.26-.17,.79,.27,.74,1.75-.21,3.5-.28,5.22-.24,.29-.48,.78-.85,1.49-.9Z"/><path class="cls-29" d="M668.88,631.4c-1.01-4.4-5.55-7.14-9.63-8.42-5.57-1.75-11.62-1.55-17.38-1.51-13.8,.11-27.6,1.23-41.19,3.66-1.03,.18-2.03,.26-3.03,.27,8.29,2.99,17.03,3.68,25.8,3.18,1.34-.13,2.67-.25,4.01-.34,.3-.02,.6-.03,.9-.05,.48-.05,.96-.1,1.44-.15,.26-.03,.48,0,.68,.05,9.72-.38,19.47,.47,28.85,2.98,2.75,.74,7.2,2.34,10.18,1.07l.04-.24c.07-.41-.39-.65-.66-.51Z"/><path class="cls-29" d="M763.53,622.88c-1.67-2.08-6.47-.54-8.41,.09-8.59,2.79-17.11,4.33-26.17,3.74-.5-.03-.58,.73-.12,.86,6.13,1.68,12.48,2.38,18.82,1.95,4.74-.32,9.58-1.15,13.73-3.49,1.49-.39,3.49-1.48,2.15-3.15Z"/><path class="cls-13" d="M786.85,655.91c-.29-4.33-.66-8.74-1.2-13.13-.85-7.02-2.12-14.03-4.09-20.7-1.8-6.23-4.16-12.29-6.75-18.23-4.77-10.97-9.57-20.6-19.12-28.34-14.25-11.56-29.24-17.21-47.11-20.07-11.27-1.8-25.25-2.76-36.68-2.24-6.33,.29-12.63,1.06-18.83,2.39-1.16,.25-2.32,.51-3.45,.88-2.23,.73-4.49,1.78-6.86,1.87-.41,.01-.52-.47-.31-.74,.04-.05,.09-.1,.13-.15-4.2,1.28-8.33,2.88-12.34,4.9-10.35,5.19-20.36,11.67-27.81,20.53-8.81,10.48-12.6,23.05-6.77,33.64,5.29,9.61,16.96,12.24,26.08,10.34,1.37-.29,2.74-.51,4.12-.68,.23,0,.48-.04,.73-.09,14.17-1.57,28.49,2.63,41.52,7.97,1.21,.49,2.55,.1,3.57-.7,.71-.34,1.32-.87,1.67-1.6,1.98-4.11,1.03-8.49-1.81-11.53,2.48-.03,4.97,0,7.46,.06,.43,.55,.92,1.08,1.49,1.57,2.01,1.71,4.36,2.62,6.86,3.15,.1-.84,.68-1.56,1.77-1.46,4.02,.37,8.07,.62,12.08,1.15,2.98,.39,7.06,.98,7.81,4.45,.01,.06,.01,.11,.02,.16,3.83,1.86,7.14,4.59,9.24,8.56,1.71,3.24,5.63,2.29,7.11-.15,.75-.75,1.22-1.74,1.12-2.82-.18-1.92-2.03-5.85-2.78-7.54,0,0,5.18,.39,7.98,.91,7.18,1.33,17.74-.57,23.91-4.05,2.78-1.57,5.07-3.8,7.6-5.73,2.75-2.09,3.58,5.9,3.94,7.24,1.19,4.46,3,8.72,4.46,13.1,2.15,6.48,2.05,12.74,3.16,19.37,.65,3.87,2.34,7.47,4.28,10.9,2.59,2.67,5.26,.79,6.78-1.89,1.96-3.46,1.27-7.48,1.02-11.27Z"/><path class="cls-36" d="M641.63,557.83l.04,.03c.67,.42,1.31,.86,2,1.25,.63,.36,1.28,.69,1.93,1,.36,.17,.72,.34,1.09,.5l.19,.07c1.41,.51,2.82,1.02,4.26,1.44,2.52,.74,5.09,1.33,7.69,1.75,.1,.02,.21,.04,.33,.06,.06,0,.12,0,.2,0,.94,.02,1.88,.14,2.82,.17,2,.07,4.01,.03,6.01-.1,7.47-.48,15.2-2.45,22.77-4.36,6.11-1.55,12.22-3.07,18.43-4.04-10.57-2.09-21.39-2.98-32.15-2.81-12.16,.19-24.24,1.34-35.69,4.99l.08,.07Z"/><path class="cls-36" d="M785.04,651.31c.49,.14,.99,.25,1.49,.33-.24-2.94-.52-5.9-.88-8.86-.85-7.02-2.12-14.03-4.09-20.7-.23-.78-.46-1.55-.7-2.33-3.6,.78-6.72,2.9-8.11,6.88-1.39,3.99,.34,7.49,2.26,10.91,.57,1.02,1.11,2.07,1.6,3.13,.12,.25,.33,.76,.4,.94,.18,.46,.34,.93,.52,1.4,1.4,3.66,3.47,7.12,7.5,8.31Z"/><path class="cls-36" d="M700.01,626.43c3.4,.63,6.77,1.64,9.78,3.23-.03-.35-.08-.71-.15-1.07-.83-4.12-3.62-7.69-7.08-9.96-4.76-3.13-12-3.01-15,2.51-.61,1.12-.94,2.38-1,3.65,4.34,1.08,9.19,.85,13.45,1.64Z"/><path class="cls-36" d="M668.71,610.37c-6.58-1.03-13.4-1.16-20.06-1.61,3-2.38,5.98-4.89,8-8.19,2.07-3.39,3.07-7.42,2.86-11.38-.39-7.53-5.27-14.14-12.15-17.07-.51-.22-.96,.54-.44,.76,6.84,2.91,11.62,9.49,11.74,17,.14,8.53-5.23,14.02-11.48,18.94-.33,.26-.03,.72,.31,.75,5.79,.42,11.58,.82,17.37,1.27,5.52,.43,13.24,1.88,13.82,8.73,.05,.56,.92,.56,.87,0-.48-5.65-5.8-8.41-10.85-9.2Z"/><path class="cls-36" d="M669.85,613.05c-.51-.24-.95,.52-.44,.76,2.2,1.02,5.25,2.56,4.79,5.49-.09,.55,.76,.79,.84,.23,.53-3.39-2.54-5.24-5.19-6.47Z"/><path class="cls-36" d="M720.59,628.55c-.4-.4-1.02,.22-.62,.62,2.35,2.36,3.46,5.44,3.22,8.75-.04,.56,.83,.56,.87,0,.26-3.53-.98-6.86-3.47-9.37Z"/><path class="cls-36" d="M717.9,631.83c-.3-.47-1.06-.04-.76,.44,.84,1.33,1.37,2.78,1.54,4.34,.06,.55,.94,.56,.87,0-.19-1.72-.73-3.32-1.66-4.78Z"/><path class="cls-36" d="M684.21,583.94c-5.06,8.2-7.51,17.69-7.02,27.31,.03,.56,.9,.56,.87,0-.48-9.48,1.92-18.8,6.9-26.87,.3-.48-.46-.92-.76-.44Z"/><path class="cls-36" d="M785.75,611.09c-3.79-12.46-11.88-26.2-25.84-35-17.3-10.9-33.6-14.01-37.29-14.18-6.37-.3-2.26,12.52-1.23,14.95,.74,1.74,1.94,3.81,.96,5.57-1.54,2.77-2.19,5.02-3.55,8.05-.56,1.49-1.06,3-1.35,4.58-.48,2.67-.7,5.4-.69,8.13,.01,1.64,1.13,3.06,2.72,3.45,.86,.21,1.66,.36,2.12,.45,6.68,1.44,11.2-2.23,16.36-5.78,2.9-1.99,6.05-3.56,9.37-4.67,1.52-.51,2.97,.91,2.52,2.45-.92,3.14-1.66,6.33-2.21,9.56-.52,3.05-2.32,7.72-.58,10.62,.47,.77,1.13,1.41,1.81,2,.94,.81,1.95,1.54,3.01,2.19,.58,.35,1.18,.68,1.85,.79,2.76,.46,6.09-2.31,8.04-3.95,1.67-1.4,3.09-3.1,4.79-4.45,1.14-.91,2.35-2.16,3.78-2.65,3.7,.24,7.35,.93,10.93,2.06,1.76,.55,4.93-2.56,4.44-4.17Z"/><path class="cls-36" d="M723.2,627.59c-2.77-4.41-7.01-7.35-11.58-9.67-4.97-2.52-10.47-5.27-16.06-5.82-.56-.05-.56,.82,0,.87,5.45,.53,10.79,3.25,15.62,5.7,4.44,2.25,8.58,5.08,11.27,9.36,.3,.48,1.06,.04,.76-.44Z"/><path class="cls-52" d="M750.13,618.22c-1.08-.37-4.64,.7-5.5,.7-.71,0-5.08-.62-5.36-.02-.29,.62,1.96,1.09,2.28,1.19,1.66,.51,3.56,1.13,5.39,1.05,.79-.04,4.79-1.2,3.42-2.77-.05-.06-.13-.11-.23-.14Z"/><path class="cls-52" d="M728.77,611.97c-.3,.06-2.63-9.56-4.07-8.91-.92,.42,.13,4.89,.36,5.66,.52,1.73,1.6,3.65,3.71,3.25Z"/><path class="cls-36" d="M730.73,622.88c.14-1.44-.64-1.83-1.96-1.73-.86,.07-1.71,.28-2.54,.5-.39,.1-.6,.08-.74,.44-.26,.69,.59,1.5,.65,2.17,.05,.58-.29,1.03-.32,1.56-.01,.35-.19,.22,.17,.27,.55,.07,1.18-.5,1.81-.47,.85,.03,1.58,1.11,2.26,.31,.59-.7,.54-1.72,.68-2.57,.01-.08,.02-.16,.03-.23-.04-.06-.06-.14-.06-.24Z"/><path class="cls-52" d="M734.14,574.8c-3.98-2.16-7.19-5.29-9.44-9.22-.28-.49-1.04-.05-.76,.44,1.51,2.64,3.46,4.93,5.76,6.83-.53-.09-1.06-.14-1.6-.11-.34,.01-.62,.49-.31,.75l1.06,.86c.29,.24,1.03,.65,1.1,1.01,.14,.68-1.15,1.76-1.62,2.19-.42,.38,.2,1,.62,.62,.66-.6,1.99-1.82,1.98-2.8,0-.49-.31-.7-.66-.99-.27-.23-.55-.45-.83-.67,.04,0,.08,0,.12,.01,.37,.07,.59-.28,.53-.56,1.13,.89,2.32,1.7,3.61,2.4,.49,.27,.94-.49,.44-.76Z"/><path class="cls-52" d="M782.72,609.16c-5.11-1.32-9.99-3.23-14.63-5.73-.5-.27-.94,.49-.44,.76,.7,.38,1.42,.74,2.13,1.09-.09,.15-.09,.33,.09,.48,.84,.7,1.65,1.44,2.41,2.22-.24-.03-.48-.06-.72-.08-.32-.02-.7-.1-.97,.13-.67,.55,.13,1.87,.34,2.47,.18,.53,1.03,.3,.84-.23-.13-.36-.51-1.07-.52-1.54,.63-.08,1.59,.19,2.09,.26,.42,.06,.74-.39,.43-.73-.67-.73-1.37-1.42-2.09-2.08,3.49,1.59,7.09,2.87,10.82,3.83,.55,.14,.78-.7,.23-.84Z"/><path class="cls-52" d="M751.85,610.66c-3.41,1.04-6.74,2.3-9.98,3.77-.51,.23-.07,.99,.44,.76,3.18-1.45,6.43-2.67,9.77-3.69,.54-.16,.31-1.01-.23-.84Z"/><path class="cls-52" d="M750.95,613.91c-1.67,.04-3.31,.26-4.94,.64-.55,.13-.32,.97,.23,.84,1.55-.37,3.12-.57,4.71-.61,.56-.01,.56-.89,0-.87Z"/><path class="cls-52" d="M732.24,595.94c-.06-.55-.94-.56-.87,0,.41,3.6,.21,7.14-.62,10.68-.13,.55,.71,.78,.84,.23,.85-3.61,1.07-7.22,.66-10.91Z"/><path class="cls-52" d="M730.1,602.52l-.77-2.91c-.14-.54-.99-.31-.84,.23l.77,2.91c.14,.54,.99,.31,.84-.23Z"/><path class="cls-36" d="M671.34,619.76c-2.98-3.37-7.23-4.85-11.52-5.77-5.81-1.24-11.77-1.98-17.69-2.47-10.99-.9-26.09,1.18-33.23-9.37-.31-.46-1.07-.03-.76,.44,6.22,9.19,18.13,8.99,28.02,9.43,6.64,.29,13.27,1,19.82,2.13,5.3,.91,11,2,14.73,6.22,.37,.42,.99-.2,.62-.62Z"/></g><g><path class="cls-52" d="M922.78,473.52c.18,.58,.42,1.07,.67,1.53-.22-.7-.44-1.41-.66-2.11-.08-.27-.09,.32-.01,.58Z"/><path class="cls-5" d="M924.72,477.65c-.32-1.03-.82-1.77-1.27-2.6,.28,.89,.56,1.78,.83,2.67,0,.03,0,.07,.03,.11,2.32,11.95,9.82,27.72,14.74,35.45,2.11-5.14,1.37-3.51,3.2-8.75-6.08-8.8-11.93-17.77-17.53-26.88Z"/></g><path class="cls-11" d="M879.05,335.22s-3.66-.07-9.74-.84c-6.08-.77-11.35-2.8-11.35-2.8,0,0,2.11,6.27,9.07,7.79,6.96,1.52,12.02-4.14,12.02-4.14Z"/></g></g><g><path class="cls-36" d="M244.28,540.34l-39.71,.08c-2.26-.44-3.74-2.62-3.31-4.88l14.77-75.53c.48-2.49,3.04-3.98,5.44-3.16l33.57,12.8c1.97,.67,.51,3.54,.11,5.59l-5.99,61.8c-.44,2.26-2.62,3.74-4.88,3.31Z"/><path class="cls-22" d="M255.04,469.65l-33.57-12.8c-2.4-.82-4.96,.67-5.44,3.16l-6.54,33.45c1.12,9.65,5.86,40.88,6.53,46.94l28.26-.05c2.26,.44,4.45-1.05,4.88-3.31l5.99-61.8c.39-2.04,1.86-4.92-.11-5.59Z"/><path class="cls-36" d="M262.65,537.81l-38.6,2.55c-2.27,.36-4.41-1.18-4.78-3.46l-12.07-75.37c-.4-2.5,1.5-4.78,4.03-4.83l39.4-.09c2.08-.04,3.88,1.45,4.21,3.51l11.27,72.9c.36,2.27-1.18,4.41-3.46,4.78Z"/><path class="cls-34" d="M266.19,536.16l-38.6,2.55c-2.27,.36-4.41-1.18-4.78-3.46l-12.07-75.37c-.4-2.5,1.5-4.78,4.03-4.83l39.4-.09c2.08-.04,3.88,1.45,4.21,3.51l11.27,72.9c.36,2.27-1.18,4.41-3.46,4.78Z"/><rect class="cls-36" x="220.08" y="523.09" width="53.21" height="17.33" rx="1.9" ry="1.9"/><path class="cls-42" d="M215.93,458.76c-.09-.58-.96-.33-.88,.24,2.72,18.42,5.44,36.84,8.16,55.26,.09,.58,.96,.33,.88-.24-2.72-18.42-5.44-36.84-8.16-55.26Z"/><path class="cls-19" d="M254.61,472.58h-32.31c-.71,0-1.31-.51-1.42-1.21l-1.04-6.52c-.14-.87,.54-1.67,1.42-1.67h32.31c.71,0,1.31,.51,1.42,1.21l1.04,6.52c.14,.87-.54,1.67-1.42,1.67Z"/></g></g></g></g></svg>